<svg width="61" height="61" viewBox="0 0 61 61" fill="none" xmlns="http://www.w3.org/2000/svg">
<path fill-rule="evenodd" clip-rule="evenodd" d="M10.6794 10.6796H22.2901L30.5 2.46948L38.7098 10.6796H50.3204V22.29L58.5304 30.5L50.3204 38.7101V50.3205H38.7098L30.5 58.5306L22.2901 50.3205H10.6794V38.7098L2.46957 30.5L10.6794 22.2902V10.6796Z" fill="#FEEB97"/>
<path fill-rule="evenodd" clip-rule="evenodd" d="M12.3846 10.5844H22.2507L29.227 3.60819C29.93 2.90518 31.0699 2.90518 31.7728 3.60819L38.7492 10.5844H48.6152C49.6093 10.5844 50.4155 11.3905 50.4155 12.3847V22.2507L57.392 29.2271C58.0946 29.9301 58.0946 31.07 57.392 31.7729L50.4155 38.7493V48.6155C50.4155 49.6096 49.6093 50.4158 48.6152 50.4158H38.7492L31.7728 57.392C31.0699 58.095 29.93 58.095 29.227 57.392L22.2507 50.4158H12.3846C11.3905 50.4158 10.5842 49.6097 10.5842 48.6155V38.7491L3.60804 31.7729C2.90527 31.0699 2.90527 29.93 3.60804 29.2271L10.5842 22.251V12.3848C10.5842 11.3906 11.3905 10.5844 12.3846 10.5844ZM22.9965 14.1848H14.1848V22.9965C14.185 23.2329 14.1385 23.4671 14.0481 23.6855C13.9576 23.9039 13.8249 24.1024 13.6576 24.2694L7.42695 30.5L13.6575 36.7305C13.8248 36.8975 13.9575 37.096 14.048 37.3144C14.1385 37.5328 14.1849 37.767 14.1847 38.0034V46.8153H22.9964C23.2328 46.8151 23.4669 46.8616 23.6854 46.9521C23.9038 47.0425 24.1022 47.1752 24.2693 47.3426L30.5 53.5732L36.7307 47.3424C36.8978 47.1751 37.0962 47.0424 37.3146 46.9519C37.533 46.8614 37.7672 46.815 38.0036 46.8152H46.8151V38.0035C46.8149 37.7671 46.8613 37.533 46.9518 37.3145C47.0423 37.0961 47.175 36.8977 47.3423 36.7306L53.573 30.5L47.3423 24.2693C47.1749 24.1023 47.0422 23.9039 46.9517 23.6854C46.8612 23.467 46.8148 23.2328 46.8151 22.9964V14.1849H38.0036C37.7672 14.1852 37.5331 14.1387 37.3146 14.0482C37.0962 13.9578 36.8978 13.8251 36.7307 13.6577L30.5 7.42686L24.2694 13.6576C24.1024 13.825 23.9039 13.9577 23.6855 14.0482C23.4671 14.1386 23.2329 14.1851 22.9965 14.1848Z" fill="#C4BB5E"/>
<path fill-rule="evenodd" clip-rule="evenodd" d="M10.6792 8.70962H21.474L29.107 1.07649C29.8762 0.30751 31.1235 0.30751 31.8926 1.07649L39.5256 8.70962H50.3202C51.4079 8.70962 52.2899 9.59157 52.2899 10.6793V21.4739L59.923 29.1069C60.692 29.8761 60.692 31.1235 59.923 31.8925L52.2899 39.5255V50.3203C52.2899 51.4081 51.4079 52.29 50.3202 52.29H39.5256L31.8926 59.9231C31.1234 60.6921 29.8761 60.6921 29.107 59.9231L21.474 52.29H10.6792C9.59144 52.29 8.70961 51.4081 8.70961 50.3203V39.5254L1.07648 31.8925C0.307498 31.1235 0.307498 29.8761 1.07648 29.1069L8.70949 21.4742V10.6794C8.70961 9.59169 9.59144 8.70962 10.6792 8.70962ZM22.2899 12.649H12.6489V22.29C12.6491 22.5487 12.5983 22.8049 12.4992 23.0439C12.4002 23.2828 12.2549 23.4999 12.0717 23.6826L5.25469 30.4998L12.0717 37.3168C12.2549 37.4995 12.4003 37.7166 12.4993 37.9556C12.5984 38.1946 12.6492 38.4509 12.6489 38.7096V48.3506H22.2899C22.5486 48.3504 22.8047 48.4012 23.0437 48.5002C23.2827 48.5993 23.4997 48.7445 23.6824 48.9277L30.4998 55.745L37.3171 48.9278C37.4997 48.7446 37.7168 48.5993 37.9557 48.5003C38.1947 48.4012 38.4509 48.3504 38.7096 48.3507H48.3504V38.71C48.3501 38.4512 48.401 38.195 48.5 37.956C48.599 37.717 48.7443 37.4999 48.9275 37.3172L55.7449 30.4998L48.9277 23.6824C48.7444 23.4998 48.5991 23.2827 48.5001 23.0438C48.401 22.8048 48.3502 22.5486 48.3505 22.2899V12.6491H38.7097C38.451 12.6494 38.1949 12.5985 37.9559 12.4995C37.7169 12.4005 37.4999 12.2552 37.3172 12.0721L30.4998 5.2547L23.6825 12.072C23.4999 12.2552 23.2828 12.4004 23.0438 12.4995C22.8048 12.5985 22.5486 12.6493 22.2899 12.649Z" fill="#0C907D"/>
<path fill-rule="evenodd" clip-rule="evenodd" d="M31.0637 20.6651H30.1277V17.912H31.0637V20.6651ZM33.6207 20.9893C33.657 21.2542 33.6754 21.5919 33.6754 22.0029C33.6754 22.6376 33.5064 23.1353 33.1777 23.5005C32.8489 23.8705 32.4107 24.0531 31.8672 24.0531C31.2965 24.0531 30.9041 23.8614 30.6894 23.4778C30.4338 24.1901 29.9268 24.5461 29.1781 24.5461C28.0641 24.5461 27.507 23.9891 27.507 22.8751C27.507 22.6148 27.5252 22.2677 27.5619 21.8294H28.4979C28.4612 22.1355 28.443 22.464 28.443 22.8204C28.443 23.3454 28.6895 23.6101 29.1781 23.6101C29.8037 23.6101 30.1141 23.1033 30.1141 22.0853V21.3913H31.0364V21.9666C31.0364 22.7381 31.3149 23.1262 31.8672 23.1262C32.4472 23.1262 32.7393 22.7517 32.7393 22.0029C32.7393 21.5235 32.7119 21.1856 32.6572 20.9893H33.6207ZM37.9583 38.8602C37.9583 40.1432 37.5977 41.1705 36.8807 41.9375C36.1639 42.7045 35.2189 43.0882 34.0498 43.0882C32.7396 43.0882 31.7168 42.6179 30.9861 41.6818C30.2557 42.6179 29.2283 43.0882 27.9088 43.0882C26.5528 43.0882 25.5665 42.4672 24.941 41.2298C24.4661 40.2984 24.2334 39.0976 24.2334 37.6181C23.9275 38.1068 23.4891 38.5176 22.9093 38.8464C22.3293 39.1752 21.7541 39.3442 21.1834 39.3442C20.1195 39.3442 19.2978 38.9515 18.7088 38.1662C18.1745 37.4586 17.9053 36.5635 17.9053 35.4767C17.9053 33.9242 18.5948 32.582 19.9781 31.4497C21.1562 30.4862 22.5716 29.8469 24.2335 29.5366V28.5731H25.9822V37.8693C25.9822 38.6272 26.1329 39.2573 26.4252 39.7548C26.7631 40.3346 27.2606 40.6269 27.909 40.6269C28.5985 40.6269 29.1465 40.3393 29.5573 39.7685C29.9226 39.2525 30.1052 38.6181 30.1052 37.8693V25.6966H31.8587V37.8694C31.8587 38.6182 32.0367 39.2527 32.3928 39.7686C32.7855 40.3393 33.3242 40.627 34.0092 40.627C34.6987 40.627 35.2464 40.3394 35.6574 39.7686C36.0227 39.2527 36.2054 38.6182 36.2054 37.8694V25.6966H37.9586V38.8602H37.9583ZM24.2333 35.2623V31.3447C23.0278 31.5913 22.0098 32.0297 21.1832 32.6552C20.1651 33.4222 19.6583 34.3537 19.6583 35.4496C19.6583 36.5087 20.1651 37.043 21.1832 37.043C22.4662 37.0428 23.4845 36.4493 24.2333 35.2623ZM43.095 42.8735H41.3416V22.0578H43.095V42.8735Z" fill="black"/>
</svg>
