<svg width="61" height="61" viewBox="0 0 61 61" fill="none" xmlns="http://www.w3.org/2000/svg">
<path d="M41.5083 56.525L16.6667 56.5334C16.6667 56.5334 15.2583 56.625 15.2333 55.4584C15.2333 55.4584 15.2583 55.45 15.3083 55.425C15.4 55.3917 15.5583 55.3167 15.7583 55.1917C15.7917 55.175 15.825 55.15 15.8667 55.1334C16.5 54.7584 17.025 54.325 17.3 53.9084C17.4583 53.6667 17.5917 53.4167 17.6833 53.1417C18.2417 52.1167 18.625 50.6584 18.4417 48.6417L16.6833 29.4C16.6645 29.1366 16.659 28.8724 16.6667 28.6084C16.7333 25.6 18.0167 22.7334 20.1167 20.575L21.0917 19.525C21.1 19.5334 21.1083 19.55 21.1167 19.5584C22.525 21.7417 26 23.8584 30.2333 23.3667L30.4583 24.7417L32.8917 31.5084L40.6917 29.3584L41.3583 30.8167L42.875 34.1417L43.5917 35.725C43.5917 35.725 36.7417 38.775 32.775 39.4084C32.7917 39.7834 32.8083 40.2667 32.8167 40.35C32.925 41.725 34.05 42.825 35.4083 43.0917C38.2667 43.6667 46.75 45.6417 47.0833 49.3334C47.4083 52.8917 45.8167 56.3667 41.5083 56.525Z" fill="#37477A"/>
<path d="M34.1083 39.1333C38.1083 38.1667 43.5833 35.7333 43.5833 35.7333L43.5583 35.675C41.3583 36.5917 36.975 38.3167 34.1 38.775C34.1 38.8917 34.1083 39.0167 34.1083 39.1333ZM42.8417 55.8833L18 55.8917C18 55.8917 16.5917 55.9833 16.5667 54.8167C16.5667 54.8167 16.5917 54.8083 16.6417 54.7833C16.7333 54.75 16.8917 54.675 17.0917 54.55C17.125 54.5333 17.1583 54.5083 17.2 54.4917C17.8333 54.1167 18.3583 53.6833 18.6333 53.2667C18.7917 53.025 18.925 52.775 19.0167 52.5C19.575 51.475 19.9583 50.0167 19.775 48L18.0167 28.7583C18 28.5417 17.9917 28.275 18 27.975C18.0667 24.9833 19.3417 22.1333 21.4167 19.9833C21.3083 19.8417 21.2083 19.7083 21.125 19.5667C21.1167 19.5583 21.1083 19.5417 21.1 19.5333L20.125 20.5833C18.025 22.7417 16.7417 25.6083 16.675 28.6167C16.6667 28.9167 16.675 29.175 16.6917 29.4083L18.45 48.65C18.6333 50.6667 18.2583 52.1167 17.6917 53.15C17.6 53.425 17.4667 53.675 17.3083 53.9167C17.025 54.3333 16.5083 54.7667 15.875 55.1417C15.8333 55.1583 15.8 55.1833 15.7667 55.2C15.5667 55.3167 15.4083 55.3917 15.3167 55.4333C15.2667 55.4583 15.2417 55.4667 15.2417 55.4667C15.2667 56.6333 16.675 56.5417 16.675 56.5417L41.5167 56.5333C42.8167 56.4833 43.8667 56.1333 44.6917 55.5667C44.1333 55.7417 43.525 55.8583 42.8417 55.8833Z" fill="#1B2D5F"/>
<path d="M51.4333 39.7749C51.15 39.7749 50.9167 39.5416 50.9167 39.2583V37.5499C50.9167 37.2666 51.15 37.0333 51.4333 37.0333C51.7167 37.0333 51.95 37.2666 51.95 37.5499V39.2583C51.95 39.5416 51.7167 39.7749 51.4333 39.7749ZM51.4333 44.0166C51.15 44.0166 50.9167 43.7833 50.9167 43.4999V41.7916C50.9167 41.5083 51.15 41.2749 51.4333 41.2749C51.7167 41.2749 51.95 41.5083 51.95 41.7916V43.4999C51.95 43.7833 51.7167 44.0166 51.4333 44.0166ZM54.4083 41.0416H52.7C52.4167 41.0416 52.1833 40.8083 52.1833 40.5249C52.1833 40.2416 52.4167 40.0083 52.7 40.0083H54.4083C54.6917 40.0083 54.925 40.2416 54.925 40.5249C54.925 40.8083 54.7 41.0416 54.4083 41.0416ZM50.1667 41.0416H48.4583C48.175 41.0416 47.9417 40.8083 47.9417 40.5249C47.9417 40.2416 48.175 40.0083 48.4583 40.0083H50.1667C50.45 40.0083 50.6833 40.2416 50.6833 40.5249C50.6833 40.8083 50.4583 41.0416 50.1667 41.0416ZM13.0167 12.5999C12.7417 12.5999 12.5083 12.3749 12.5083 12.0916V10.4333C12.5083 10.1583 12.7333 9.92493 13.0167 9.92493C13.2917 9.92493 13.525 10.1499 13.525 10.4333V12.0916C13.525 12.3749 13.2917 12.5999 13.0167 12.5999ZM13.0167 16.7166C12.7417 16.7166 12.5083 16.4916 12.5083 16.2083V14.5499C12.5083 14.2749 12.7333 14.0416 13.0167 14.0416C13.2917 14.0416 13.525 14.2666 13.525 14.5499V16.2083C13.525 16.4916 13.2917 16.7166 13.0167 16.7166ZM15.9083 13.8333H14.25C13.975 13.8333 13.7417 13.6083 13.7417 13.3249C13.7417 13.0499 13.9667 12.8166 14.25 12.8166H15.9083C16.1833 12.8166 16.4167 13.0416 16.4167 13.3249C16.4083 13.5999 16.1833 13.8333 15.9083 13.8333ZM11.7833 13.8333H10.125C9.84999 13.8333 9.61666 13.6083 9.61666 13.3249C9.61666 13.0499 9.84166 12.8166 10.125 12.8166H11.7833C12.0583 12.8166 12.2917 13.0416 12.2917 13.3249C12.2917 13.5999 12.0667 13.8333 11.7833 13.8333Z" fill="#CCCCCC"/>
<path d="M35.6583 49.6334L34.1333 49.8417C33.5167 49.925 32.8833 49.8917 32.2667 49.8C30.7167 49.5667 29.1833 49.5834 27.6917 49.8584C21.9667 50.8917 19.625 50.2834 18.6667 49.5917C18.1167 49.2 18.0333 48.7917 18.025 48.7084L18.475 48.3584C18.475 48.3584 19.6417 50.4417 27.5417 49.0167C29.4417 48.675 31.4083 48.7167 33.375 49.1334L35.6583 49.6334ZM31.5333 39.95C31.375 39.95 31.2333 39.9417 31.0917 39.9334C24.6667 39.3084 20.8833 29.925 20.725 29.525C20.7333 29.5417 21.575 29.7667 21.875 30.3917C23.0417 32.8334 26.3167 38.875 31.025 39.325C31.4333 39.3667 32.1583 39.5167 32.7583 39.4167L32.7833 39.95C32.3083 40.025 31.9167 39.95 31.5333 39.95Z" fill="#1B2D5F"/>
<path d="M33.4917 15.1416L32.3417 15.7416C32.3417 15.7416 32.55 17.175 32.7083 18.8166C32.7833 19.65 31.4667 20.1833 29.7083 20.125C28.6833 20.0916 27.5083 19.8583 26.3667 19.3583C25.6127 19.019 24.9309 18.538 24.3583 17.9416C24.35 17.9333 24.35 17.9333 24.35 17.925C24.2667 17.6333 23.125 13.825 24.6833 13.3C26.3 12.7666 26.325 15.0916 27.3917 14.0666C28.475 13.0333 27.8 10.0833 29.3667 9.09165C30.9333 8.09998 32.3417 9.29165 32.3417 9.29165V9.29998L32.8833 12.2L33.7917 14.225C33.95 14.575 33.8167 14.9583 33.4917 15.1416Z" fill="#EFD092"/>
<path d="M30.225 19.7584C29.2 19.725 28.025 19.4917 26.8833 18.9917C26.8 18.9584 26.7167 18.9167 26.6333 18.8667C25.4167 18.1917 24.625 16.9334 24.4583 15.55C24.3583 14.7 24.3667 13.8 24.7167 13.3C24.7083 13.3 24.7 13.3 24.6833 13.3084C23.1167 13.8417 24.2833 17.6834 24.35 17.9334C24.3583 17.9417 24.3583 17.9417 24.3583 17.95C24.9 18.5167 25.5667 19.0084 26.3583 19.3667C27.5 19.8667 28.6667 20.1 29.7 20.1334C31.0333 20.175 32.1083 19.8834 32.5167 19.375C31.9917 19.6417 31.175 19.7834 30.225 19.7584Z" fill="#EABE7F"/>
<path d="M27.9167 13.6916C28.9083 12.7332 28.425 10.1666 29.5583 8.99158C29.5 9.02491 29.4333 9.05824 29.375 9.09158C27.8667 10.0416 28.4333 12.8082 27.5083 13.9332C27.625 13.9166 27.7583 13.8416 27.9167 13.6916ZM32.8583 15.3666C32.8583 15.3666 32.8666 15.4082 32.875 15.4666L33.5 15.1416C33.6 15.0832 33.6833 14.9999 33.7416 14.9082L32.8583 15.3666Z" fill="#F0CA8C"/>
<path d="M32.35 9.29998C32.35 9.29998 30.9417 8.09998 29.375 9.09998C27.8083 10.0833 28.4833 13.0333 27.4 14.075C26.325 15.1 26.3 12.775 24.6917 13.3083C23.1333 13.8333 24.275 17.6416 24.3583 17.9333C23.9 17.475 23.5333 16.9583 23.2167 16.4333C22.0083 14.3833 21.7917 12.1916 21.7917 12.1916L30.75 5.59998H30.7583C32.6667 6.13331 34.3333 7.23331 32.35 9.29998Z" fill="#4D4D4D"/>
<path d="M23.9667 16.6166C23.9583 16.6 23.9417 16.575 23.9333 16.5583C22.7167 14.4583 23.3583 11.775 25.3083 10.3416L31.45 5.82498C31.225 5.74164 30.9917 5.66664 30.7583 5.59998H30.75L21.7917 12.1916C21.7917 12.1916 22.0167 14.3833 23.2167 16.4333C23.5333 16.95 23.9 17.4666 24.3583 17.9333C24.3333 17.8416 24.1917 17.375 24.075 16.775C24.0417 16.725 24 16.675 23.9667 16.6166Z" fill="#1A1A1A"/>
<path d="M30.85 5.52497L30.7583 5.59164H30.75L21.7917 12.1833C20.4833 9.72497 21.125 6.62497 23.4333 4.92497C25.7417 3.24164 28.9 3.54997 30.85 5.52497Z" fill="#BCED24"/>
<path d="M25.4 9.0333C23.625 10.3416 21.15 8.49997 22.0083 6.46663C22.0167 6.44997 22.025 6.4333 22.025 6.41663C21.4722 7.26976 21.1582 8.25547 21.1157 9.27114C21.0732 10.2868 21.3038 11.2953 21.7833 12.1916L30.75 5.59997H30.7583L30.85 5.5333C30.75 5.4333 30.6333 5.3583 30.525 5.2583L25.4 9.0333Z" fill="#96CC0A"/>
<path d="M49.5 30.0333C49.275 30.5249 48.825 30.8666 48.3917 31.1833C46.625 32.3916 44.8833 33.5416 42.8667 34.1583L41.35 30.8333C42.525 30.0583 43.2083 29.0333 43.1333 27.5333C43.1167 27.1499 43.0583 26.7499 43.175 26.3916C43.3 26.0249 43.7 25.7166 44.0583 25.8749C44.2667 25.9583 44.4083 26.1916 44.5 26.4083C44.8167 27.1416 44.9583 27.9416 44.9 28.7333C45.975 28.3833 48.3 24.5166 48.5833 24.4166C48.8417 24.3166 49.1417 24.5083 49.3083 24.7499C50.6083 26.6083 49.775 29.4249 49.5 30.0333Z" fill="#EFD092"/>
<path d="M43.0166 28.7166C43.35 28.1583 43.525 27.5083 43.4833 26.7333C43.475 26.4999 43.45 26.2499 43.4583 26.0166C43.3416 26.1166 43.2333 26.2499 43.1833 26.3999C43.0666 26.7583 43.125 27.1583 43.1416 27.5416C43.1666 27.9666 43.1166 28.3583 43.0166 28.7166Z" fill="#F0CA8C"/>
<path d="M48.7333 30.3749C47.9667 30.8916 47.2083 31.4083 46.4333 31.8666C44.7917 32.8416 42.6667 32.1666 41.875 30.4333C41.7083 30.5749 41.5417 30.7083 41.35 30.8333L42.8667 34.1583C44.8833 33.5416 46.625 32.3916 48.3917 31.1833C48.825 30.8666 49.275 30.5249 49.5 30.0333C49.55 29.9166 49.625 29.7166 49.7 29.4583C49.4583 29.8333 49.0917 30.1166 48.7333 30.3749Z" fill="#EABE7F"/>
<path d="M51.4333 13.275C51.1688 14.5894 50.4573 15.7717 49.4197 16.6209C48.3821 17.4701 47.0825 17.9338 45.7417 17.9333C42.5333 17.9333 39.9417 15.3416 39.9417 12.1333C39.9417 9.31662 41.9417 6.97495 44.5917 6.44995C44.1242 6.8998 43.7526 7.43954 43.4991 8.03673C43.2456 8.63391 43.1155 9.2762 43.1167 9.92495C43.116 10.8892 43.4038 11.8316 43.9432 12.6309C44.4825 13.4302 45.2487 14.0498 46.1431 14.4101C47.0375 14.7704 48.0192 14.8548 48.962 14.6525C49.9048 14.4502 50.7655 13.9704 51.4333 13.275Z" fill="#CCCCCC"/>
<path d="M46.15 17.1833C42.9417 17.1833 40.35 14.5916 40.35 11.3833C40.35 10.5249 40.5583 9.71661 40.8917 8.98328C40.2736 9.92081 39.9434 11.0187 39.9417 12.1416C39.9417 15.3499 42.5333 17.9416 45.7417 17.9416C48.0833 17.9416 50.0833 16.5499 51.0083 14.5583C49.9667 16.1249 48.1833 17.1833 46.15 17.1833ZM30.2417 23.3749C26.0083 23.8666 22.5333 21.7499 21.125 19.5666L23.225 16.4333C23.5417 16.9499 23.9083 17.4666 24.3667 17.9333C24.3667 17.9416 24.3667 17.9416 24.375 17.9499C24.9167 18.5166 25.5833 19.0083 26.3833 19.3666C27.525 19.8666 28.6917 20.0999 29.725 20.1333L30.2417 23.3749Z" fill="#B3B3B3"/>
<path d="M24.8083 22.1583C22.9083 21.1417 22.3333 18.6833 23.525 16.9C23.4167 16.7417 23.3083 16.5917 23.2167 16.4333L21.1167 19.5667C22.525 21.75 26 23.8667 30.2333 23.375V23.3583C28.1667 23.4667 26.3083 22.9667 24.8083 22.1583Z" fill="#999999"/>
<path d="M18.6583 49.2082C18.6333 49.9166 18.4667 50.5999 18.3333 51.2999C18.2083 51.9582 18.1 52.6499 17.8667 53.2749C17.7667 53.5666 17.6333 53.8332 17.4583 54.0916C17.1583 54.5332 16.6083 54.9999 15.9333 55.3916C15.8917 55.4082 15.85 55.4332 15.8167 55.4582C15.6667 55.5416 15.5 55.6249 15.3333 55.6999C15.275 55.7249 15.25 55.7332 15.25 55.7332C14.1917 56.2166 12.95 56.4832 11.8917 56.2832C11.5917 56.2249 11.125 55.2666 11.2333 54.8499C11.3083 54.5582 12.125 54.4499 12.3917 54.3082C13.2333 53.8749 13.9083 53.1082 14.1917 52.1999C14.4167 51.4582 14.4 50.6749 14.4083 49.8916C14.4083 49.1166 14.425 48.3166 14.725 47.6082C15.025 46.8916 15.6667 46.2666 16.4333 46.2082C17.1417 46.1499 17.8167 46.5749 18.2 47.1749C18.575 47.7666 18.6917 48.4999 18.6583 49.2082Z" fill="#EFD092"/>
<path d="M14.475 51.6583C14.7 50.9167 14.6833 50.1333 14.6917 49.35C14.6917 48.5917 14.7167 47.8167 14.9917 47.125C14.8833 47.275 14.7917 47.4417 14.7167 47.6167C14.4167 48.325 14.4 49.1167 14.4 49.9C14.3917 50.675 14.4083 51.4667 14.1833 52.2083C14.15 52.3083 14.1 52.4083 14.05 52.5083C14.2333 52.2333 14.3833 51.9583 14.475 51.6583ZM17.7417 53.5333C17.4417 53.975 16.8917 54.4417 16.2167 54.8333C16.175 54.85 16.1333 54.875 16.1 54.9C15.95 54.9833 15.7833 55.0667 15.6167 55.1417C15.5583 55.1667 15.5333 55.175 15.5333 55.175C14.475 55.6583 13.2333 55.925 12.175 55.725C11.9333 55.6833 11.5917 55.0583 11.5167 54.6C11.3667 54.6667 11.25 54.7417 11.225 54.8417C11.1167 55.2583 11.5833 56.2167 11.8833 56.275C12.9417 56.475 14.1833 56.2 15.2417 55.725C15.2417 55.725 15.2667 55.7167 15.325 55.6917C15.4917 55.6083 15.65 55.525 15.8083 55.45C15.8417 55.4333 15.8833 55.4083 15.925 55.3833C16.6 54.9833 17.1583 54.525 17.45 54.0833C17.575 53.9 17.675 53.7083 17.7583 53.5083C17.7583 53.5167 17.75 53.525 17.7417 53.5333Z" fill="#EABE7F"/>
<path d="M54.9083 57.1667H6.09165C5.92368 57.1667 5.76259 57.1 5.64382 56.9812C5.52505 56.8624 5.45832 56.7013 5.45832 56.5334C5.45832 56.3654 5.52505 56.2043 5.64382 56.0855C5.76259 55.9667 5.92368 55.9 6.09165 55.9H54.9C55.25 55.9 55.5333 56.1834 55.5333 56.5334C55.5417 56.8834 55.2583 57.1667 54.9083 57.1667Z" fill="#1A1A1A"/>
</svg>
