<svg width="34" height="34" viewBox="0 0 34 34" fill="none" xmlns="http://www.w3.org/2000/svg">
<rect width="34" height="34" rx="6" fill="#E6EBEB" fill-opacity="0.35"/>
<path d="M13.9101 25.67C13.7201 25.67 13.5301 25.6 13.3801 25.45C13.0901 25.16 13.0901 24.68 13.3801 24.39L19.9001 17.87C20.3801 17.39 20.3801 16.61 19.9001 16.13L13.3801 9.61002C13.0901 9.32002 13.0901 8.84002 13.3801 8.55002C13.6701 8.26002 14.1501 8.26002 14.4401 8.55002L20.9601 15.07C21.4701 15.58 21.7601 16.27 21.7601 17C21.7601 17.73 21.4801 18.42 20.9601 18.93L14.4401 25.45C14.2901 25.59 14.1001 25.67 13.9101 25.67Z" fill="#292D32"/>
</svg>
