<svg fill="none" height="20" viewBox="0 0 20 20" width="20" xmlns="http://www.w3.org/2000/svg" xmlns:xlink="http://www.w3.org/1999/xlink"><clipPath id="a"><path d="m0 0h20v20h-20z"/></clipPath><g clip-path="url(#a)"><path d="m18.3437 2.72565h-4.8543c-.8115-.00055-1.5989.27529-2.2326.78209s-1.0759 1.21433-1.2537 2.00603c-.17823-.79149-.62053-1.49876-1.25413-2.00548-.63361-.50673-1.4208-.78274-2.23211-.78264h-4.85063c-.44203.00016-.865908.17583-1.178472.4884-.312563.31256-.48823322.73644-.48839887 1.17847v8.53498c.00016565.4421.17583587.8659.48839887 1.1785.312564.3126.736442.4882 1.178472.4884h3.11438c3.54875 0 4.6075.8469 5.11437 2.6044.02438.0975.18062.0975.20812 0 .5106-1.7569 1.5694-2.6044 5.1144-2.6044h3.1144c.442-.0002.8659-.1758 1.1784-.4884.3126-.3126.4883-.7364.4884-1.1785v-8.53123c0-.44054-.174-.86324-.4842-1.17603s-.7315-.49034-1.172-.49397zm-9.94122 9.21495c.00017.016-.00285.0319-.00888.0466-.00604.0148-.01496.0283-.02626.0396-.01129.0112-.02472.0202-.03951.0262-.01478.006-.03063.0091-.0466.0089h-5.56625c-.01594.0001-.03175-.003-.04649-.0091-.01475-.006-.02815-.015-.03943-.0262-.01127-.0113-.0202-.0247-.02627-.0395-.00606-.0147-.00914-.0305-.00906-.0465v-.795c0-.0656.05188-.1212.12125-.1212h5.56938c.06562 0 .12125.0519.12125.1212v.795zm0-2.11433c.00009.01595-.00299.03175-.00906.0465-.00606.01475-.01499.02815-.02626.03942-.01128.01128-.02468.02021-.03943.02627-.01475.00607-.03055.00915-.0465.00906h-5.56625c-.01594.00009-.03175-.00299-.04649-.00906-.01475-.00606-.02815-.01499-.03943-.02627-.01127-.01127-.0202-.02467-.02627-.03942-.00606-.01475-.00914-.03055-.00906-.0465v-.795c0-.06625.05188-.12125.12125-.12125h5.56938c.06562 0 .12125.05188.12125.12125v.795zm0-2.11437c.00009.01594-.00299.03175-.00906.0465-.00606.01474-.01499.02814-.02626.03942-.01128.01127-.02468.0202-.03943.02627-.01475.00606-.03055.00914-.0465.00906h-5.56625c-.01594.00008-.03175-.003-.04649-.00906-.01475-.00607-.02815-.015-.03943-.02627-.01127-.01128-.0202-.02468-.02627-.03942-.00606-.01475-.00914-.03056-.00906-.0465v-.795c0-.06563.05188-.12125.12125-.12125h5.56938c.06562 0 .12125.05187.12125.12125v.795zm9.00372 4.2256c.0001.016-.003.0318-.009.0465-.0061.0148-.015.0282-.0263.0394-.0113.0113-.0247.0202-.0394.0263-.0148.0061-.0306.0092-.0465.0091h-5.5663c-.0159.0001-.0317-.003-.0465-.0091-.0147-.0061-.0281-.015-.0394-.0263-.0113-.0112-.0202-.0246-.0263-.0394-.006-.0147-.0091-.0305-.009-.0465v-.795c0-.0656.0519-.1212.1212-.1212h5.5694c.0663 0 .1213.0518.1213.1212v.795zm0-2.11435c.0002.01597-.0028.03181-.0089.0466-.006.01478-.0149.02821-.0262.03951-.0113.01129-.0247.02021-.0395.02625-.0148.00603-.0306.00905-.0466.00889h-5.5663c-.0159.00008-.0317-.003-.0465-.00906-.0147-.00607-.0281-.015-.0394-.02627-.0113-.01128-.0202-.02468-.0263-.03942-.006-.01475-.0091-.03056-.009-.0465v-.795c0-.06563.0519-.12125.1212-.12125h5.5694c.0663 0 .1213.05187.1213.12125v.795zm0-2.115c.0001.01594-.003.03175-.009.0465-.0061.01474-.015.02814-.0263.03942-.0113.01127-.0247.0202-.0394.02627-.0148.00606-.0306.00914-.0465.00906h-5.5663c-.0159.00008-.0317-.003-.0465-.00906-.0147-.00607-.0281-.015-.0394-.02627-.0113-.01128-.0202-.02468-.0263-.03942-.006-.01475-.0091-.03056-.009-.0465v-.79188c0-.06562.0519-.12125.1212-.12125h5.5694c.0663 0 .1213.05188.1213.12125v.79188z" fill="#fff"/></g></svg>