<svg fill="none" height="24" viewBox="0 0 24 24" width="24" xmlns="http://www.w3.org/2000/svg"><g fill="#997647"><path d="m8 5.75c-.41 0-.75-.34-.75-.75v-3c0-.41.34-.75.75-.75s.75.34.75.75v3c0 .41-.34.75-.75.75z"/><path d="m16 5.75c-.41 0-.75-.34-.75-.75v-3c0-.41.34-.75.75-.75s.75.34.75.75v3c0 .41-.34.75-.75.75z"/><path d="m8.5 14.5c-.13 0-.26-.03-.38-.08-.13-.05-.23-.12-.33-.21-.18-.19-.29-.44-.29-.71 0-.13.03-.26.08-.38s.12-.23.21-.33c.1-.09.2-.16.33-.21.36-.15.81-.07 1.09.21.18.19.29.45.29.71 0 .06-.01.13-.02.2-.01.06-.03.12-.06.18-.02.06-.05.12-.09.18-.03.05-.08.1-.12.15-.19.18-.45.29-.71.29z"/><path d="m12 14.5c-.13 0-.26-.03-.38-.08-.13-.05-.23-.12-.33-.21-.18-.19-.29-.44-.29-.71 0-.13.03-.26.08-.38s.12-.23.21-.33c.1-.09.2-.16.33-.21.36-.16.81-.07 1.09.21.18.19.29.45.29.71 0 .06-.01.13-.02.2-.01.06-.03.12-.06.18-.02.06-.05.12-.09.18-.03.05-.08.1-.12.15-.19.18-.45.29-.71.29z"/><path d="m15.5 14.5c-.13 0-.26-.03-.38-.08-.13-.05-.23-.12-.33-.21-.04-.05-.08-.1-.12-.15-.04-.06-.07-.12-.09-.18-.03-.06-.05-.12-.06-.18-.01-.07-.02-.14-.02-.2 0-.26.11-.52.29-.71.1-.09.2-.16.33-.21.37-.16.81-.07 1.09.21.18.19.29.45.29.71 0 .06-.01.13-.02.2-.01.06-.03.12-.06.18-.02.06-.05.12-.09.18-.03.05-.08.1-.12.15-.19.18-.45.29-.71.29z"/><path d="m8.5 18c-.13 0-.26-.03-.38-.08s-.23-.12-.33-.21c-.18-.19-.29-.45-.29-.71 0-.13.03-.26.08-.38.05-.13.12-.24.21-.33.37-.37 1.05-.37 1.42 0 .18.19.29.45.29.71s-.11.52-.29.71c-.19.18-.45.29-.71.29z"/><path d="m12 18c-.26 0-.52-.11-.71-.29-.18-.19-.29-.45-.29-.71 0-.13.03-.26.08-.38.05-.13.12-.24.21-.33.37-.37 1.05-.37 1.42 0 .09.09.16.2.21.33.05.12.08.25.08.38 0 .26-.11.52-.29.71-.19.18-.45.29-.71.29z"/><path d="m15.5 18c-.26 0-.52-.11-.71-.29-.09-.09-.16-.2-.21-.33-.05-.12-.08-.25-.08-.38s.03-.26.08-.38c.05-.13.12-.24.21-.33.23-.23.58-.34.9-.27.07.01.13.03.19.06.06.02.12.05.18.09.05.03.1.08.15.12.18.19.29.45.29.71s-.11.52-.29.71c-.19.18-.45.29-.71.29z"/><path d="m20.5 9.83997h-17c-.41 0-.75-.34-.75-.75s.34-.75.75-.75h17c.41 0 .75.34.75.75s-.34.75-.75.75z"/><path d="m16 22.75h-8c-3.65 0-5.75-2.1-5.75-5.75v-8.5c0-3.65 2.1-5.75 5.75-5.75h8c3.65 0 5.75 2.1 5.75 5.75v8.5c0 3.65-2.1 5.75-5.75 5.75zm-8-18.5c-2.86 0-4.25 1.39-4.25 4.25v8.5c0 2.86 1.39 4.25 4.25 4.25h8c2.86 0 4.25-1.39 4.25-4.25v-8.5c0-2.86-1.39-4.25-4.25-4.25z"/></g></svg>