<svg width="61" height="61" viewBox="0 0 61 61" fill="none" xmlns="http://www.w3.org/2000/svg">
<path d="M32.4875 28.5125C32.9459 28.9722 33.2308 29.5767 33.2936 30.2228C33.3564 30.869 33.1932 31.517 32.832 32.0564C32.4707 32.5958 31.9336 32.9933 31.3122 33.1811C30.6907 33.369 30.0234 33.3357 29.4238 33.0868C28.8242 32.8379 28.3294 32.3888 28.0237 31.8161C27.7179 31.2434 27.6202 30.5824 27.7471 29.9457C27.874 29.309 28.2177 28.736 28.7197 28.3242C29.2216 27.9125 29.8508 27.6875 30.5 27.6875C30.8693 27.6875 31.2349 27.7603 31.576 27.9019C31.917 28.0435 32.2268 28.251 32.4875 28.5125Z" fill="#FFD422"/>
<path d="M26.8625 24.4812L26.225 26.225L24.4812 26.8625L22.0437 22.0437L26.8625 24.4812ZM26.225 34.775L26.8625 36.5093L22.0625 38.9375L24.4906 34.1375L26.225 34.775ZM34.775 34.775L36.5094 34.1375L38.9375 38.9375L34.1375 36.5093L34.775 34.775ZM38.9562 22.0437L36.5187 26.8625L34.775 26.225L34.1375 24.4812L38.9562 22.0437Z" fill="#043336"/>
<path d="M28.5125 32.4875L26.225 34.775L24.4906 34.1375L14.5625 30.5H27.6875C27.6875 30.8693 27.7603 31.2349 27.9019 31.576C28.0435 31.917 28.251 32.2268 28.5125 32.4875ZM34.775 34.775L34.1375 36.5094L30.5 46.4375V33.3125C30.8693 33.3125 31.2349 33.2397 31.576 33.0981C31.917 32.9565 32.2268 32.749 32.4875 32.4875L34.775 34.775ZM36.5187 26.8625L46.4375 30.5H33.3125C33.3125 30.1307 33.2397 29.7651 33.0981 29.424C32.9565 29.083 32.749 28.7732 32.4875 28.5125L34.775 26.225L36.5187 26.8625ZM26.8625 24.4812L30.5 14.5625V27.6875C30.1307 27.6875 29.7651 27.7603 29.424 27.9019C29.083 28.0435 28.7732 28.251 28.5125 28.5125L26.225 26.225L26.8625 24.4812Z" fill="#064329"/>
<path d="M26.225 26.225L28.5125 28.5125C28.251 28.7732 28.0435 29.083 27.9019 29.424C27.7603 29.7651 27.6875 30.1307 27.6875 30.5H14.5625L24.4812 26.8625L26.225 26.225ZM30.5 33.3125V46.4375L26.8625 36.5094L26.225 34.775L28.5125 32.4875C28.7732 32.749 29.083 32.9565 29.424 33.0981C29.7651 33.2397 30.1307 33.3125 30.5 33.3125ZM46.4375 30.5L36.5094 34.1375L34.775 34.775L32.4875 32.4875C32.749 32.2268 32.9565 31.917 33.0981 31.576C33.2397 31.2349 33.3125 30.8693 33.3125 30.5H46.4375ZM34.775 26.225L32.4875 28.5125C32.2268 28.251 31.917 28.0435 31.576 27.9019C31.2349 27.7603 30.8693 27.6875 30.5 27.6875V14.5625L34.1375 24.4812L34.775 26.225Z" fill="#064329"/>
<path d="M33.3125 11.75C33.167 11.75 33.0234 11.7161 32.8932 11.651C32.7631 11.5859 32.6498 11.4914 32.5625 11.375L28.625 6.125V11.75H26.75V3.3125C26.75 3.11574 26.8119 2.92396 26.927 2.76433C27.042 2.60471 27.2044 2.48533 27.391 2.42311C27.5777 2.36089 27.7792 2.35897 27.967 2.41764C28.1548 2.47631 28.3194 2.59259 28.4375 2.75L32.375 8V2.375H34.25V10.8125C34.25 11.0093 34.1881 11.2012 34.073 11.3609C33.9579 11.5206 33.7955 11.64 33.6087 11.7022C33.5131 11.7336 33.4131 11.7498 33.3125 11.75ZM31.4375 58.625H29.5625C28.8166 58.625 28.1012 58.3287 27.5738 57.8012C27.0463 57.2738 26.75 56.5584 26.75 55.8125H28.625C28.625 56.0611 28.7238 56.2996 28.8996 56.4754C29.0754 56.6512 29.3139 56.75 29.5625 56.75H31.4375C31.6861 56.75 31.9246 56.6512 32.1004 56.4754C32.2762 56.2996 32.375 56.0611 32.375 55.8125C32.375 55.5639 32.2762 55.3254 32.1004 55.1496C31.9246 54.9738 31.6861 54.875 31.4375 54.875H29.5625C28.8166 54.875 28.1012 54.5787 27.5738 54.0512C27.0463 53.5238 26.75 52.8084 26.75 52.0625C26.75 51.3166 27.0463 50.6012 27.5738 50.0738C28.1012 49.5463 28.8166 49.25 29.5625 49.25H31.4375C32.1834 49.25 32.8988 49.5463 33.4262 50.0738C33.9537 50.6012 34.25 51.3166 34.25 52.0625H32.375C32.375 51.8139 32.2762 51.5754 32.1004 51.3996C31.9246 51.2238 31.6861 51.125 31.4375 51.125H29.5625C29.3139 51.125 29.0754 51.2238 28.8996 51.3996C28.7238 51.5754 28.625 51.8139 28.625 52.0625C28.625 52.3111 28.7238 52.5496 28.8996 52.7254C29.0754 52.9012 29.3139 53 29.5625 53H31.4375C32.1834 53 32.8988 53.2963 33.4262 53.8238C33.9537 54.3512 34.25 55.0666 34.25 55.8125C34.25 56.5584 33.9537 57.2738 33.4262 57.8012C32.8988 58.3287 32.1834 58.625 31.4375 58.625ZM58.625 27.6875V25.8125H53C52.7514 25.8125 52.5129 25.9113 52.3371 26.0871C52.1613 26.2629 52.0625 26.5014 52.0625 26.75V34.25C52.0625 34.4986 52.1613 34.7371 52.3371 34.9129C52.5129 35.0887 52.7514 35.1875 53 35.1875H58.625V33.3125H53.9375V31.4375H56.75V29.5625H53.9375V27.6875H58.625ZM8.9375 35.1875C8.73389 35.1874 8.53584 35.121 8.3733 34.9984C8.21075 34.8758 8.09255 34.7036 8.03656 34.5078L7.0625 31.1L6.08843 34.5078C6.03155 34.706 5.91091 34.8799 5.7452 35.0026C5.57949 35.1253 5.37795 35.19 5.17178 35.1866C4.96562 35.1831 4.76633 35.1118 4.60477 34.9837C4.44322 34.8556 4.32841 34.6778 4.27812 34.4778L2.40312 26.9778L4.22187 26.5222L5.2475 30.6266L6.16156 27.4297C6.21782 27.2342 6.33613 27.0623 6.49865 26.94C6.66117 26.8176 6.85907 26.7515 7.0625 26.7515C7.26592 26.7515 7.46382 26.8176 7.62634 26.94C7.78886 27.0623 7.90718 27.2342 7.96343 27.4297L8.8775 30.6266L9.90312 26.5222L11.7219 26.9778L9.84687 34.4778C9.79677 34.6779 9.68208 34.8559 9.52055 34.9842C9.35902 35.1125 9.15969 35.184 8.95343 35.1875H8.9375Z" fill="#D7A664"/>
<path d="M24.6594 55.1347C20.2573 54.0942 16.2148 51.892 12.9533 48.7578C9.69177 45.6235 7.33052 41.6719 6.11562 37.3147L7.92219 36.8104C9.0468 40.8447 11.2328 44.5035 14.2525 47.4056C17.2721 50.3077 21.0149 52.3468 25.0906 53.3104L24.6594 55.1347ZM36.3406 55.1347L35.9094 53.3104C39.9852 52.3469 43.728 50.3079 46.7477 47.4058C49.7674 44.5037 51.9534 40.8448 53.0778 36.8104L54.8844 37.3147C53.6695 41.6719 51.3082 45.6235 48.0467 48.7578C44.7852 51.892 40.7427 54.0942 36.3406 55.1347ZM53.0778 24.1897C51.9532 20.1554 49.7672 16.4966 46.7475 13.5945C43.7279 10.6924 39.9851 8.65333 35.9094 7.68973L36.3406 5.86536C40.7427 6.90592 44.7852 9.10806 48.0467 12.2423C51.3082 15.3765 53.6695 19.3282 54.8844 23.6854L53.0778 24.1897ZM7.68969 25.0907L5.86531 24.6594C6.96433 20.1003 9.30064 15.933 12.6168 12.6168C15.933 9.30069 20.1002 6.96438 24.6594 5.86536L25.0906 7.68973C20.8695 8.70749 17.0113 10.8707 13.9409 13.941C10.8706 17.0113 8.70744 20.8696 7.68969 25.0907Z" fill="#043336"/>
</svg>
