<svg fill="none" height="143" viewBox="0 0 326 143" width="326" xmlns="http://www.w3.org/2000/svg" xmlns:xlink="http://www.w3.org/1999/xlink"><linearGradient id="a" gradientUnits="userSpaceOnUse" x1="0" x2="106.446" y1="-1" y2="239.981"><stop offset=".07" stop-color="#004b40"/><stop offset="1" stop-color="#004b40" stop-opacity=".89"/></linearGradient><clipPath id="b"><rect height="169" rx="10" width="326" y="-26"/></clipPath><g clip-path="url(#b)"><rect fill="url(#a)" height="144" rx="10" width="326" y="-1"/><g clip-rule="evenodd" fill="#001732" fill-opacity=".06" fill-rule="evenodd"><path d="m260.849 116.918c0-1.765-1.34-3.253-3.203-3.822 0-.02.005-.039.005-.06 0-.601-.456-1.109-1.093-1.304l-.232-.596c.044-.054.074-.115.074-.186 0-.136-.1-.251-.236-.305l-.145-1.876c0-.009-.011-.015-.02-.015-.012 0-.024.006-.024.015l-.145 1.876c-.138.054-.238.169-.238.305 0 .071.032.133.078.187l-.233.595c-.638.195-1.095.701-1.095 1.304 0 .021.005.04.007.06-1.452.444-2.575 1.447-3.005 2.7v-4.735h.087c.211 0 .381-.143.381-.322v-.183c0-.176-.17-.322-.381-.322h-.52c.024-.12.038-.238.038-.365 0-.861-.544-1.618-1.358-2.039-.498-.26-.931-.602-1.274-1 .064-.051.104-.123.104-.202 0-.112-.08-.211-.198-.252l-.083-1.09h-.096l-.084 1.09c-.117.041-.197.14-.197.252 0 .079.038.151.103.202-.339.4-.77.739-1.276 1-.813.421-1.355 1.178-1.355 2.039 0 .127.014.245.035.365h-.502c-.212 0-.384.146-.384.322v.183c0 .179.172.322.384.322h.074v4.516h-1.246c.323-.509.498-1.053.498-1.614 0-1.962-2.126-3.678-5.311-4.637-2.074-.627-3.841-1.469-5.217-2.448.054-.086.089-.179.089-.284 0-.255-.183-.475-.448-.573l-.189-2.474h-.221l-.188 2.474c-.265.097-.451.318-.451.573 0 .105.038.197.09.284-1.26.901-2.835 1.673-4.697 2.281-.047-.321-.147-.657-.323-.994-.278-.547-.842-1.045-1.484-1.496-.622-.435-1.32-.805-1.884-1.078.02-.064.057-.161.057-.257 0-.129-.018-.274-.085-.419-.077-.144-.24-.289-.422-.402-.162-.113-.344-.209-.478-.273l-.01-.241c.039-.032.058-.049.077-.097.038-.032.048-.081.048-.128 0-.049-.02-.097-.048-.146-.028-.031-.057-.064-.105-.08l-.009-.225c.018-.016.047-.049.057-.065.029-.032.038-.064.038-.112 0-.033-.019-.081-.038-.113-.02-.032-.048-.048-.076-.064l-.02-.241-.096-1.737c0-.032-.019-.049-.037-.049-.029.017-.049.032-.049.049l-.095 1.737-.009.241c-.04.017-.058.032-.077.064-.028.032-.039.08-.039.113 0 .048 0 .08.029.112.01.017.039.049.067.065l-.02.225c-.037.016-.076.049-.094.08-.039.049-.059.097-.059.146 0 .047.02.096.048.128.02.049.048.065.087.097l-.019.241c-.135.064-.307.161-.479.273-.172.113-.335.258-.421.402-.067.145-.086.29-.077.419 0 .096.03.193.058.257-.574.273-1.263.643-1.884 1.078-.321.225-.624.462-.882.711-1.851-3.816-6.181-6.551-11.313-6.793v-.39c0-.14-.138-.2554-.304-.2554h-.237l-.194-4.1017c.541.1552 1.128.2144 1.731.125.972-.1432 1.778-.6066 2.298-1.2385-.374.194-.794.3329-1.253.4004-1.914.2824-3.745-.7963-4.079-2.4074-.166-.7982.061-1.5758.567-2.1917-1.184.6199-1.868 1.802-1.612 3.03.216 1.0346 1.05 1.8429 2.125 2.2198l-.19 4.1641h-.243c-.079 0-.153.0257-.209.0724-.056.047-.086.11-.086.176v.406c-4.759.289-8.806 2.722-10.782 6.16l-.04-5.178h.168c.276 0 .504-.192.504-.42 0-.229-.228-.418-.504-.418h-.168l-.039-5.8193h.207c.244 0 .448-.1651.448-.3702 0-.175-.144-.3231-.336-.3632v-1.7425h.176c.128 0 .231-.0878.231-.1952 0-.1041-.103-.1887-.231-.1887h-.217c.128-.3126.281-.9111-.036-1.5203-.148-.2829-.451-.5517-.788-.7872-.332-.2286-.7-.424-1-.5651.016-.0401.032-.0872.032-.1448.004-.0707-.004-.1448-.048-.2179-.036-.0811-.124-.1552-.22-.216-.083-.057-.18-.1041-.252-.1376l-.008-.1317c.016-.0131.036-.0302.044-.0471.017-.023.025-.0465.025-.0701 0-.0278-.008-.0575-.028-.0773-.008-.0204-.033-.034-.053-.0477l-.003-.114c.007-.0105.023-.0236.031-.0407.012-.0131.017-.0335.017-.0538 0-.0198-.005-.0434-.02-.0602-.009-.0137-.025-.0273-.045-.0407l-.004-.1213-.048-.921c-.004-.0137-.012-.0204-.028-.0204s-.024.01-.024.0204l-.048.921-.007.1213c-.016.0136-.033.0273-.041.0407-.016.0168-.024.0401-.024.0602 0 .0203.008.0407.02.0538.009.0171.021.0302.037.0407l-.008.114c-.024.0137-.041.0273-.057.0477-.015.0198-.023.0497-.023.0773 0 .0236.008.0471.023.0701.008.0169.024.034.041.0471l-.004.1317c-.069.0335-.165.0806-.252.1376-.097.0608-.185.1349-.224.216-.041.0731-.048.1475-.045.2179.004.0576.017.1047.028.1448-.296.1411-.664.3368-.992.5651-.344.2358-.64.5045-.792.7872-.32.6089-.16 1.2077-.035 1.5203h-.26c-.121 0-.225.0846-.225.1887 0 .1071.104.1952.225.1952h.191v1.7425c-.195.0372-.343.185-.343.3632 0 .2051.199.3702.44.3702h.216l-.041 5.8193h-.175c-.273 0-.496.189-.496.418 0 .228.223.42.496.42h.167l-.022 3.381c-1.716-3.041-6.836-2.715-8.35-.513v-.69h.071c.184 0 .325-.119.325-.262 0-.166-.141-.286-.325-.286h-.183c.339-.619 1.145-2.618.083-4.6419-.41-.8097-1.245-1.5474-2.194-2.2136-.921-.6435-1.954-1.1904-2.789-1.5956.029-.095.085-.2385.085-.3806 0-.1909-.028-.4048-.126-.6192-.115-.2144-.355-.4288-.625-.595-.24-.1667-.508-.3099-.707-.4052l-.015-.3566c.058-.0476.086-.0717.114-.1432.057-.0476.071-.1191.071-.1897 0-.0723-.029-.1438-.071-.215-.042-.0476-.085-.0955-.155-.1191l-.015-.3335c.028-.0236.071-.0712.085-.095.044-.0477.057-.095.057-.1662 0-.0477-.028-.1197-.057-.1668-.029-.0477-.07-.0712-.113-.095l-.028-.3571-.142-2.5709c0-.0477-.028-.0718-.056-.0718-.043.0241-.072.0477-.072.0718l-.141 2.5709-.014.3571c-.058.0241-.085.0476-.113.095-.043.0471-.057.1191-.057.1668 0 .0712 0 .1185.042.1662.015.0241.057.0717.1.095l-.03.3335c-.055.0236-.112.0717-.14.1191-.057.0712-.085.1427-.085.215 0 .0706.028.1421.071.1897.028.0718.071.0956.128.1432l-.029.3566c-.198.095-.453.2385-.708.4052-.255.1662-.496.3806-.624.595-.099.2144-.126.4283-.113.6192 0 .1421.043.2853.086.3806-.85.4052-1.869.9521-2.788 1.5956-.949.6659-1.799 1.4036-2.21 2.2136-1.062 2.0239-.241 4.0229.084 4.6419h-.168c-.185 0-.327.12-.327.286 0 .143.142.262.327.262h.154v.69h-1.527l-.029-12.2601h.452c.298 0 .538-.2144.538-.4521 0-.2615-.24-.4521-.538-.4521h-.452l-.043-6.7848h.156c.255 0 .482-.1667.482-.3811 0-.238-.227-.4048-.482-.4048h-.171l-.027-5.4989h.198c.227 0 .424-.1665.424-.3571 0-.1668-.142-.3097-.325-.333v-1.6668h.17c.127 0 .213-.0717.213-.167s-.086-.1903-.213-.1903h-.198c.113-.2859.268-.8568-.042-1.428-.142-.262-.426-.5244-.737-.7382-.312-.238-.666-.405-.948-.5477.014-.0235.028-.0714.028-.1429 0-.0477-.014-.1183-.043-.1906-.043-.095-.113-.1662-.212-.2141-.084-.0474-.17-.0948-.242-.1189v-.1426c.016 0 .03-.0236.03-.048.028 0 .028-.0238.028-.0476 0-.0235 0-.0479-.028-.0715 0-.0238-.03-.0476-.056-.0476v-.1188c.026 0 .026-.0236.042-.0236.014-.0244.014-.0482.014-.0723 0 0 0-.0235-.03-.0476 0-.0233-.013-.0233-.026-.0233l-.015-.1191-.043-.8809s-.014-.0238-.029-.0238c-.014 0-.027.0238-.027.0238l-.043.8809v.1191c-.014 0-.043 0-.043.0233-.013.0241-.027.0476-.027.0476 0 .0241.014.0479.027.0723 0 0 .015.0236.029.0236v.1188c-.029 0-.042.0238-.056.0476-.016.0236-.029.048-.029.0715 0 .0238.013.0476.029.0476 0 .0244.027.048.042.048l-.015.1426c-.056.0241-.141.0718-.226.1189-.1.0479-.17.1188-.226.2141-.029.0723-.029.1429-.029.1906 0 .0717.014.1194.029.1429-.284.1427-.638.3097-.95.5477-.324.2138-.608.4759-.749.7382-.297.5712-.141 1.1421-.028 1.428h-.241c-.128 0-.212.0948-.212.1903 0 .0956.084.167.212.167h.17v.4519c0 .0243 0 .0479-.015.0717l.015.0474v1.0958c-.184.0233-.326.1662-.326.333 0 .1906.198.3571.425.3571h.199l-.029 5.4989h-.17c-.255 0-.481.1668-.481.4048 0 .2144.226.3811.481.3811h.155l-.042 6.7848h-.454c-.295 0-.537.1909-.537.4521 0 .238.242.4521.537.4521h.441l-.015 7.0708h-.807v-2.833h-1.842v-.6901h.073c.169 0 .325-.1196.325-.2623 0-.1662-.156-.2853-.325-.2853h-.171c.325-.6192 1.132-2.6192.085-4.6425-.423-.8091-1.259-1.5474-2.208-2.2136-.921-.6429-1.954-1.1909-2.788-1.5956.041-.0955.069-.2379.097-.4047 0-.1667-.028-.3806-.141-.595s-.353-.4288-.623-.5956c-.24-.1667-.509-.3094-.707-.4047l-.015-.3565c.056-.0482.099-.0717.128-.1432.028-.0477.057-.1191.057-.1909 0-.0717-.029-.1426-.057-.2138-.057-.0477-.099-.095-.17-.1191l-.014-.333c.042-.0241.071-.0717.099-.0956.028-.0476.056-.095.056-.1667 0-.0471-.028-.1186-.056-.1668-.028-.0471-.085-.0712-.126-.0947l-.016-.3571-.141-2.571c0-.0481-.028-.0717-.07-.0717-.044.0236-.071.0477-.071.0717l-.142 2.571-.014.3571c-.043.0235-.086.0476-.113.0947-.043.0482-.058.1197-.058.1668 0 .0717.015.1191.043.1667.03.0241.058.0718.1.0956l-.015.333c-.055.0241-.113.0717-.155.1191-.043.0712-.071.1421-.071.2138 0 .0718.028.1432.056.1909.029.0717.086.095.143.1432l-.028.3565c-.199.095-.455.238-.71.4047-.255.1668-.509.3812-.622.5956s-.141.4283-.128.595c.015.1668.043.3089.084.4047-.833.4047-1.853.9527-2.787 1.5956-.95.666-1.784 1.4042-2.195 2.2136-1.061 2.0233-.241 4.0233.071 4.6425h-.169c-.171 0-.313.1191-.313.2853 0 .1427.142.2623.313.2623h.169v.6901h-1.94v2.833h-1.401v-2.143c.169-.095.312-.238.312-.4283 0-.262-.227-.5002-.51-.5473v-2.6433h.269c.183 0 .339-.1421.339-.2848 0-.1673-.156-.2853-.339-.2853h-.325c.184-.4767.424-1.3817-.058-2.3097-.227-.4288-.679-.8338-1.189-1.1898-.51-.3576-1.061-.6435-1.528-.8573.029-.0477.056-.1432.056-.215 0-.118 0-.2138-.071-.3329-.071-.1186-.184-.238-.339-.333-.127-.0712-.269-.1668-.382-.2144v-.1903c.028-.0241.056-.0477.056-.0718.028-.0241.042-.0717.042-.095 0-.0476-.014-.0956-.042-.1186-.028-.0482-.056-.0717-.085-.0717v-.1909c.014 0 .029-.0235.043-.0476.014-.0236.028-.0482.028-.0948 0-.024-.014-.0481-.028-.0717-.014-.0241-.043-.0482-.072-.0717v-.1903l-.084-1.3807c0-.0235-.015-.0482-.029-.0482-.027 0-.042.0247-.042.0482l-.071 1.3807-.014.1903c-.029.0235-.042.0476-.07.0717-.015.0236-.03.0477-.03.0717 0 .0466.015.0712.03.0948.013.0241.028.0476.056.0476v.1909c-.043 0-.071.0235-.086.0717-.028.023-.056.0712-.056.1186 0 .0236.028.0712.042.095.014.0241.044.0477.072.0718l-.015.1903c-.099.0476-.24.1432-.382.2144-.14.095-.269.2144-.341.333-.055.1191-.07.2384-.055.3329 0 .0718.014.1673.029.215-.439.2138-.993.4997-1.501.8573-.511.356-.964.7613-1.191 1.1898-.481.928-.255 1.833-.056 2.3097h-.397c-.183 0-.339.118-.339.2853 0 .1427.156.2848.339.2848h.284v2.6433c-.284.0471-.509.2853-.509.5473 0 .1903.127.333.283.4283v2.143h-.021v-.0921c-1.214-7.0785-6.416-12.9485-19.409-17.3382-6.683-2.2591-9.996-5.329-11.619-7.583 1.556-.5715 2.644-1.8748 2.644-3.3933 0-1.8091-1.544-3.3126-3.583-3.6362l-.072-1.6331c.563-.2064.957-.6769.957-1.2264 0-.5838-.447-1.0753-1.067-1.2581l-.173-3.9184c1.974.3566 4.079.2955 6.129-.2853 3.078-.8739 5.421-2.7182 6.734-4.9912-1.096.7891-2.381 1.4157-3.83 1.8274-6.069 1.72-12.6556-1.0239-14.7039-6.1262-1.015-2.5284-.7319-5.155.5498-7.3721-3.4912 2.515-5.0161 6.6457-3.4536 10.536 1.2957 3.2323 4.4185 5.5134 8.0747 6.3169l-.284 3.9891c-.667.1595-1.159.67-1.159 1.2819 0 .5562.404 1.0329.978 1.2347l-.114 1.598c-2.141.2516-3.7906 1.7931-3.7906 3.663 0 1.5846 1.1859 2.9326 2.8506 3.4612-1.6396 2.2474-4.9543 5.279-11.5698 7.5151-12.1053 4.0902-17.4512 9.465-19.1057 15.9053v-.618c.1557-.095.283-.238.283-.4283 0-.262-.2254-.5002-.5094-.5473v-2.6433h.284c.1831 0 .3387-.1421.3387-.2848 0-.1673-.1556-.2853-.3387-.2853h-.3963c.1983-.4767.4243-1.3817-.057-2.3097-.227-.4288-.6794-.8338-1.1904-1.1898-.5084-.3576-1.0614-.6435-1.5004-.8573.0146-.0477.028-.1432.028-.215.0153-.0947 0-.2138-.0551-.3329-.0713-.1186-.1999-.238-.3406-.333-.1414-.0712-.283-.1668-.382-.2144l-.0144-.1903c.0281-.0241.057-.0477.0714-.0718.0136-.0241.0423-.0717.0423-.095 0-.0476-.0287-.0956-.0567-.1186-.0146-.0482-.0426-.0717-.085-.0717v-.1909c.028 0 .0424-.0235.0561-.0476.0143-.0236.0289-.0482.0289-.0948 0-.024-.0146-.0481-.0289-.0717-.0281-.0241-.0414-.0482-.0704-.0717l-.0137-.1903-.0713-1.3807c0-.0235-.0153-.0482-.0423-.0482-.0144 0-.029.0247-.029.0482l-.0837 1.3807v.1903c-.029.0235-.058.0476-.0723.0717-.0143.0236-.028.0477-.028.0717 0 .0466.0137.0712.028.0948.0143.0241.029.0476.0433.0476v.1909c-.029 0-.0576.0235-.0847.0717-.029.023-.0427.0712-.0427.1186 0 .0236.0137.0712.0427.095 0 .0241.0271.0477.0557.0718v.1903c-.1133.0476-.255.1432-.382.2144-.1557.095-.2684.2144-.3397.333-.071.1191-.071.2149-.071.3329 0 .0718.0277.1673.0567.215-.4667.2138-1.0181.4997-1.5285.8573-.51.356-.9624.7613-1.1884 1.1898-.4823.928-.2426 1.833-.0579 2.3097h-.326c-.1828 0-.3388.118-.3388.2853 0 .1427.156.2848.3388.2848h.2696v2.6433c-.283.0471-.5103.2853-.5103.5473 0 .1903.1423.333.3116.4283v2.143h-1.4011v-2.833h-1.9394v-.6901h.1694c.1703 0 .3126-.1196.3126-.2623 0-.1662-.1423-.2853-.3126-.2853h-.1694c.3117-.6192 1.1321-2.6192.0713-4.6425-.411-.8091-1.2454-1.5474-2.1954-2.2136-.9337-.6429-1.9538-1.1909-2.7875-1.5956.0417-.0955.0697-.2379.084-.4047.0137-.1667-.0143-.3806-.128-.595-.1127-.2144-.3664-.4288-.6217-.5956-.255-.1667-.5107-.3094-.7093-.4047l-.028-.3565c.0569-.0482.1136-.0717.1423-.1432.028-.0477.056-.1191.056-.1909 0-.0717-.028-.1426-.0704-.2138-.0423-.0477-.0999-.095-.1556-.1191l-.0147-.333c.0424-.0241.0704-.0717.0993-.0956.029-.0476.0433-.095.0433-.1667 0-.0471-.0143-.1186-.0576-.1668-.028-.0471-.0703-.0712-.1136-.0947l-.0134-.3571-.1423-2.571c0-.024-.0271-.0481-.0704-.0717-.0423 0-.0703.0236-.0703.0717l-.1414 2.571-.0156.3571c-.0414.0235-.0984.0476-.1261.0947-.0289.0482-.0569.1197-.0569.1668 0 .0717.028.1191.0569.1667.0277.0241.0567.0718.0991.0956l-.0144.333c-.0713.0241-.1133.0717-.1703.1191-.028.0712-.0567.1421-.0567.2138 0 .0718.0287.1432.0567.1909.029.0717.0723.095.128.1432l-.0147.3565c-.198.095-.4676.238-.7073.4047-.2697.1668-.5104.3812-.6228.5956-.1133.2144-.1413.4283-.1413.595.028.1668.056.3089.0974.4047-.8344.4047-1.8672.9527-2.7882 1.5956-.9487.666-1.7841 1.4042-2.2081 2.2136-1.0471 2.0233-.2407 4.0233.085 4.6425h-.1703c-.1694 0-.3254.1191-.3254.2853 0 .1427.156.2623.3254.2623h.0722v.6901h-1.841v2.833h-.8074l-.0146-7.0708h.4399c.2958 0 .5377-.2144.5377-.4521 0-.2615-.2422-.4521-.5377-.4521h-.4533l-.0424-6.7848h.1557c.2541 0 .4804-.1667.4804-.3811 0-.238-.2263-.4048-.4804-.4048h-.1703l-.029-5.4989h.1993c.2264 0 .4244-.1665.4244-.3571 0-.1668-.1423-.3097-.326-.333v-1.0958l.0153-.0474c-.0153-.0238-.0153-.0474-.0153-.0717v-.4519h.1703c.1277 0 .2117-.0717.2117-.167s-.084-.1903-.2117-.1903h-.2416c.1133-.2859.2687-.8568-.0271-1.428-.1413-.262-.4253-.5244-.7494-.7382-.3126-.238-.6663-.405-.95-.5477.0147-.0235.029-.0714.029-.1429 0-.0477 0-.1183-.029-.1906-.0566-.095-.1267-.1662-.226-.2141-.085-.0474-.1703-.0948-.2264-.1189l-.0143-.1426c.0143 0 .0414-.0236.0414-.048.0156 0 .029-.0238.029-.0476 0-.0235-.0134-.0479-.029-.0715-.0134-.0238-.0271-.0476-.056-.0476v-.1188c.0146 0 .0289-.0236.0289-.0236.0137-.0244.0271-.0482.0271-.0723 0 0-.0134-.0235-.0271-.0476 0-.0233-.0289-.0233-.0433-.0233v-.1191l-.0423-.8809s-.0137-.0238-.0271-.0238c-.0152 0-.0289.0238-.0289.0238l-.0433.8809-.0144.1191c-.0136 0-.027 0-.027.0233-.029.0241-.029.0476-.029.0476 0 .0241 0 .0479.0134.0723.0156 0 .0156.0236.0426.0236v.1188c-.027 0-.056.0238-.056.0476-.028.0236-.028.048-.028.0715 0 .0238 0 .0476.028.0476 0 .0244.0134.048.029.048v.1426c-.0713.0241-.157.0718-.2416.1189-.0994.0479-.1694.1188-.2118.2141-.0289.0723-.0433.1429-.0433.1906 0 .0717.0144.1194.0287.1429-.283.1427-.637.3097-.9487.5477-.311.2138-.5947.4759-.737.7382-.3101.5712-.1547 1.1421-.0424 1.428h-.1973c-.1271 0-.2127.0948-.2127.1903 0 .0956.0856.167.2127.167h.1703v1.6668c-.1837.0233-.326.1662-.326.333 0 .1906.198.3571.4244.3571h.198l-.0268 5.4989h-.1712c-.2544 0-.4814.1668-.4814.4048 0 .2144.227.3811.4814.3811h.1556l-.0423 6.7848h-.4524c-.2983 0-.538.1909-.538.4521 0 .238.24.4521.538.4521h.4524l-.029 12.2601h-1.5275v-.69h.1551c.1846 0 .326-.119.326-.262 0-.166-.1414-.286-.326-.286h-.1684c.3244-.619 1.1454-2.618.0837-4.6419-.411-.8097-1.2607-1.5474-2.2094-2.2136-.9194-.6435-1.9385-1.1904-2.7882-1.5956.0423-.095.0856-.2385.0856-.3806.0134-.1909-.0143-.4048-.1133-.6192-.128-.2144-.3687-.4288-.6237-.595-.255-.1667-.5093-.3099-.7077-.4052l-.0286-.3566c.0566-.0476.0993-.0717.1276-.1432.0427-.0476.0713-.1191.0713-.1897 0-.0723-.0286-.1438-.0856-.215-.028-.0476-.085-.0955-.1404-.1191l-.029-.3335c.0424-.0236.0847-.0712.0994-.095.0423-.0477.0423-.095.0423-.1662 0-.0477-.0143-.1197-.057-.1668-.0286-.0477-.0557-.0712-.1133-.095l-.0134-.3571-.1413-2.5709c0-.0241-.029-.0477-.0723-.0718-.028 0-.056.0241-.056.0718l-.1414 2.5709-.029.3571c-.0423.0241-.0837.0476-.1127.095-.0289.0471-.0569.1191-.0569.1668 0 .0712.0136.1185.0569.1662.0144.0241.0577.0717.0847.095l-.0143.3335c-.0704.0236-.1133.0717-.155.1191-.0424.0712-.0713.1427-.0713.215 0 .0706.0136.1421.0713.1897.028.0718.056.0956.1136.1432l-.0146.3566c-.199.095-.4677.2385-.7074.4052-.2697.1662-.5104.3806-.6246.595-.0984.2144-.1261.4283-.1261.6192 0 .1421.056.2853.085.3806-.8354.4052-1.8681.9521-2.7892 1.5956-.949.6659-1.7837 1.4036-2.1944 2.2136-1.0617 2.0239-.2553 4.0229.0837 4.6419h-.1827c-.184 0-.3254.12-.3254.286 0 .143.1414.262.3254.262h.0704v.69c-1.5142-2.202-6.634-2.528-8.3496.513l-.0227-3.381h.1675c.2725 0 .496-.192.496-.42 0-.229-.2232-.418-.496-.418h-.1757l-.0401-5.8193h.2158c.2404 0 .4403-.1651.4403-.3702 0-.1782-.1484-.3263-.3438-.3632v-1.7425h.1916c.121 0 .2245-.0878.2245-.1952 0-.1041-.1035-.1887-.2245-.1887h-.2598c.1245-.3126.2847-.9111-.0356-1.5203-.1525-.2829-.4476-.5517-.7921-.7872-.3282-.2286-.6966-.424-.992-.5651.0118-.0401.0239-.0872.028-.1448.0035-.0707-.0041-.1448-.0442-.2179-.0402-.0811-.1277-.1552-.2245-.216-.0872-.057-.1837-.1041-.2518-.1376l-.0041-.1317c.0162-.0131.0324-.0302.0404-.0471.0156-.023.0239-.0465.0239-.0701 0-.0278-.0083-.0575-.0239-.0773-.0162-.0204-.0325-.034-.0564-.0477l-.0079-.114c.0159-.0105.028-.0236.0363-.0407.0118-.0131.02-.0335.02-.0538 0-.0198-.0079-.0434-.0242-.0602-.0079-.0137-.0238-.0273-.0401-.0407l-.0076-.1213-.0478-.921c0-.0104-.0079-.0204-.0242-.0204-.0162 0-.0242.0067-.028.0204l-.0477.921-.0045.1213c-.0197.0136-.0353.0273-.0442.0407-.015.0168-.0198.0401-.0198.0602 0 .0203.0048.0407.0163.0538.0076.0171.0238.0302.0315.0407l-.0035.114c-.0201.0137-.0443.0273-.0526.0477-.0197.0198-.0277.0497-.0277.0773 0 .0236.008.0471.0242.0701.0077.0169.0281.034.0443.0471l-.0083.1317c-.0719.0335-.1681.0806-.2518.1376-.0965.0608-.184.1349-.22.216-.0442.0731-.0522.1475-.0477.2179 0 .0576.0156.1047.0318.1448-.2999.1411-.6679.3368-1.0006.5651-.3365.2358-.6399.5045-.788.7872-.3161.6089-.1639 1.2077-.0359 1.5203h-.2162c-.128 0-.2318.0846-.2318.1887 0 .1071.1035.1952.2318.1952h.1757v1.7425c-.1922.0401-.3361.1882-.3361.3632 0 .2051.2047.3702.4479.3702h.2079l-.0395 5.8193h-.1684c-.276 0-.504.189-.504.418 0 .228.228.42.504.42h.1684l-.0404 5.178c-1.97545-3.438-6.02307-5.871-10.781895-6.16v-.406c0-.066-.030563-.129-.086276-.176-.056031-.047-.129572-.0724-.208843-.0724h-.243863l-.057623-1.2623v43.1247h262.285v-23.062-.617h-1.675c.142-.384.239-.784.239-1.207zm-246.406-23.4242v.6828h-1.6408v-.6828s-.008-.0538.0519-.1213c.0643-.0674.0363-.1207.0121-.1882-.1837-.4306.6606-.4098.7605-.7398.0958.3298.9401.3089.7606.7398-.0325.0675-.0567.1208.0073.1882.064.0675.0484.1213.0484.1213zm25.8692-16.1412v-1.2607c0-.4786.3846-.8809.9057-1.0043.524.1234.9077.5257.9077 1.0043v1.232l.0006.0287zm24.6639 17.7324h-1.0528v-1.963c0-.6368.2216-1.1711.5237-1.3322.3056.1611.5291.6954.5291 1.3322zm.3979-.0024v-1.8517c0-.7026.5648-1.2939 1.3301-1.4748.7695.1809 1.333.7722 1.333 1.4748v1.8094l.001.0423zm4.2157.0083h-1.0524v-1.9687c0-.6367.2215-1.171.5272-1.3321.3027.1611.5249.6954.5249 1.3321v1.9687zm68.2693 0h-1.053v-1.9687c0-.6367.223-1.171.525-1.3321.306.1611.528.6954.528 1.3321zm3.163-.0083h-2.664l.002-.0423v-1.8094c0-.7026.563-1.2939 1.332-1.4748.766.1809 1.33.7722 1.33 1.4748zm1.451.0024h-1.053v-1.963c0-.6368.224-1.1711.529-1.3322.302.1611.524.6954.524 1.3322zm23.611-17.7324h-1.814l.001-.0287v-1.232c0-.4786.384-.8809.907-1.0043.521.1234.906.5257.906 1.0043zm27.51 16.1412v.6828h-1.641v-.6828s-.015-.0538.049-.1213c.064-.0674.039-.1207.007-.1882-.18-.4306.665-.4098.76-.7398.1.3298.945.3089.761.7398-.024.0675-.052.1208.012.1882.06.0675.052.1213.052.1213zm52.722 22.0822h-1.053v-2.456c0-.637.222-1.172.525-1.332.305.16.527.695.527 1.332zm3.107.043h-2.018v-.043h-.644v-2.722c0-.702.563-1.294 1.332-1.475.766.181 1.33.773 1.33 1.475zm1.506 0h-1.053v-2.499c0-.637.224-1.172.529-1.332.303.16.524.695.524 1.332z" opacity=".3"/><path d="m0 94.275v1.4476c1.0092-.3956 1.78536-1.1746 1.99229-2.1652.25596-1.2281-.42819-2.4101-1.611533-3.03.505872.6159.732863 1.3932.566997 2.1917-.126388.6102-.468624 1.1434-.947754 1.5559z" opacity=".3"/><path d="m326 82.1074c-.268-.0942-.534-.1884-.809-.2813-6.682-2.2591-9.996-5.329-11.618-7.5831 1.556-.5714 2.644-1.8747 2.644-3.3932 0-1.8092-1.544-3.3126-3.583-3.6363l-.073-1.633c.564-.2064.958-.6769.958-1.2264 0-.5838-.447-1.0753-1.068-1.2581l-.173-3.9184c1.975.3566 4.08.2955 6.129-.2853 3.079-.8739 5.422-2.7182 6.735-4.9912-1.096.7891-2.381 1.4157-3.83 1.8274-6.07 1.72-12.656-1.0239-14.704-6.1262-1.015-2.5284-.732-5.155.549-7.3721-3.491 2.515-5.016 6.6457-3.453 10.536 1.296 3.2323 4.418 5.5134 8.074 6.3169l-.284 3.9891c-.667.1595-1.159.67-1.159 1.2819 0 .5562.404 1.0329.979 1.2347l-.115 1.598c-2.141.2516-3.79 1.7931-3.79 3.663 0 1.5846 1.186 2.9326 2.85 3.4612-1.639 2.2474-4.954 5.279-11.57 7.5151-12.105 4.0902-17.451 9.465-19.105 15.9053v-.618c.155-.095.283-.238.283-.4283 0-.262-.226-.5002-.51-.5473v-2.6433h.284c.183 0 .339-.1421.339-.2848 0-.1673-.156-.2853-.339-.2853h-.396c.198-.4767.424-1.3817-.057-2.3097-.227-.4288-.679-.8338-1.19-1.1898-.509-.3576-1.062-.6435-1.501-.8573.015-.0477.028-.1432.028-.215.016-.0947 0-.2138-.055-.333-.071-.1185-.2-.2379-.34-.3329-.142-.0712-.283-.1668-.382-.2144l-.015-.1903c.028-.0241.057-.0477.071-.0718s.043-.0717.043-.095c0-.0476-.029-.0956-.057-.1186-.014-.0482-.042-.0717-.085-.0717v-.1909c.028 0 .043-.0235.056-.0476.015-.0236.029-.0482.029-.0948 0-.024-.014-.0481-.029-.0717-.028-.0241-.041-.0482-.07-.0717l-.014-.1903-.071-1.3807c0-.0235-.015-.0482-.043-.0482-.014 0-.028.0247-.028.0482l-.084 1.3807v.1903c-.029.0235-.058.0476-.072.0717-.015.0236-.028.0477-.028.0717 0 .0466.013.0712.028.0948.014.0241.029.0476.043.0476v.1909c-.029 0-.058.0235-.085.0717-.029.023-.043.0712-.043.1186 0 .0236.014.0712.043.095 0 .0241.027.0477.056.0718v.1903c-.113.0476-.255.1432-.382.2144-.156.095-.269.2144-.34.3329-.071.1192-.071.215-.071.333 0 .0718.028.1673.057.215-.467.2138-1.018.4997-1.529.8573-.51.356-.962.7612-1.188 1.1898-.482.928-.243 1.833-.058 2.3097h-.326c-.183 0-.339.118-.339.2853 0 .1427.156.2848.339.2848h.27v2.6433c-.283.0471-.511.2853-.511.5473 0 .1903.143.333.312.4283v2.143h-1.401v-2.8331h-1.94v-.69h.17c.17 0 .312-.1196.312-.2623 0-.1662-.142-.2853-.312-.2853h-.17c.312-.6192 1.133-2.6192.072-4.6425-.411-.8091-1.246-1.5474-2.196-2.2136-.933-.6429-1.953-1.1908-2.787-1.5956.042-.0955.07-.2379.084-.4047.014-.1667-.014-.3806-.128-.595-.113-.2144-.367-.4288-.622-.5956-.255-.1667-.511-.3094-.709-.4047l-.028-.3565c.057-.0482.113-.0717.142-.1432.028-.0477.056-.1191.056-.1909 0-.0717-.028-.1426-.07-.2138-.043-.0477-.1-.0951-.156-.1191l-.015-.333c.043-.0241.071-.0717.1-.0956.029-.0476.043-.095.043-.1667 0-.0471-.014-.1186-.058-.1668-.028-.0471-.07-.0712-.113-.0947l-.014-.3571-.142-2.571c0-.024-.027-.0481-.07-.0717-.043 0-.071.0236-.071.0717l-.141 2.571-.016.3571c-.041.0235-.098.0476-.126.0947-.029.0482-.057.1197-.057.1668 0 .0717.028.1191.057.1667.028.0241.057.0718.099.0956l-.014.333c-.071.024-.113.0717-.17.1191-.028.0712-.057.1421-.057.2138 0 .0718.029.1432.057.1909.029.0717.072.095.128.1432l-.015.3565c-.198.0951-.468.238-.707.4047-.27.1668-.511.3812-.623.5956-.113.2144-.141.4283-.141.595.028.1668.056.3089.097.4047-.834.4048-1.867.9527-2.788 1.5956-.949.666-1.784 1.4042-2.208 2.2136-1.047 2.0233-.241 4.0233.085 4.6425h-.171c-.169 0-.325.1191-.325.2853 0 .1427.156.2623.325.2623h.073v.69h-1.841v2.8331h-.808l-.014-7.0708h.44c.295 0 .537-.2144.537-.4521 0-.2615-.242-.452-.537-.452h-.454l-.042-6.7849h.156c.254 0 .48-.1668.48-.3812 0-.2379-.226-.4047-.48-.4047h-.171l-.029-5.4989h.2c.226 0 .424-.1665.424-.3571 0-.1668-.142-.3097-.326-.333v-1.0958l.015-.0474c-.015-.0238-.015-.0474-.015-.0717v-.4519h.17c.128 0 .212-.0717.212-.167s-.084-.1903-.212-.1903h-.241c.113-.2859.268-.8568-.027-1.428-.142-.2621-.426-.5244-.75-.7382-.312-.238-.666-.405-.95-.5477.015-.0235.029-.0714.029-.1429 0-.0477 0-.1183-.029-.1906-.056-.095-.127-.1662-.226-.2141-.085-.0474-.17-.0948-.226-.1189l-.015-.1426c.015 0 .042-.0236.042-.048.015 0 .029-.0238.029-.0476 0-.0235-.014-.0479-.029-.0715-.014-.0238-.027-.0476-.056-.0476v-.1189c.014 0 .029-.0235.029-.0235.013-.0244.027-.0482.027-.0723 0 0-.014-.0235-.027-.0476 0-.0233-.029-.0233-.044-.0233v-.1191l-.042-.8809s-.014-.0238-.027-.0238c-.015 0-.029.0238-.029.0238l-.043.8809-.015.1191c-.013 0-.027 0-.027.0233-.029.0241-.029.0476-.029.0476 0 .0241 0 .0479.014.0723.015 0 .015.0235.042.0235v.1189c-.027 0-.056.0238-.056.0476-.028.0236-.028.048-.028.0715 0 .0238 0 .0476.028.0476 0 .0244.014.048.029.048v.1426c-.071.0241-.157.0718-.241.1189-.1.0479-.17.1188-.212.2141-.029.0723-.043.1429-.043.1906 0 .0717.014.1194.028.1429-.283.1427-.637.3097-.948.5477-.311.2138-.595.4759-.737.7382-.31.5712-.155 1.1421-.043 1.428h-.197c-.127 0-.213.0948-.213.1903 0 .0956.086.167.213.167h.17v1.6668c-.183.0233-.326.1662-.326.333 0 .1906.198.3571.425.3571h.198l-.027 5.4989h-.171c-.255 0-.482.1668-.482.4047 0 .2144.227.3812.482.3812h.155l-.042 6.7849h-.452c-.299 0-.538.1908-.538.452 0 .238.24.4521.538.4521h.452l-.029 12.2604h-1.527v-.69h.155c.184 0 .326-.12.326-.262 0-.167-.142-.286-.326-.286h-.169c.325-.619 1.146-2.618.084-4.6422-.411-.8097-1.261-1.5474-2.209-2.2137-.92-.6434-1.939-1.1903-2.789-1.5955.043-.095.086-.2385.086-.3806.013-.1909-.014-.4048-.113-.6192-.128-.2144-.369-.4288-.624-.595-.255-.1667-.509-.3099-.708-.4052l-.028-.3566c.056-.0476.099-.0717.127-.1432.043-.0476.072-.1191.072-.1897 0-.0723-.029-.1438-.086-.215-.028-.0476-.085-.0955-.14-.1191l-.029-.3335c.042-.0236.084-.0712.099-.095.042-.0477.042-.0951.042-.1663 0-.0476-.014-.1196-.057-.1667-.028-.0477-.055-.0712-.113-.095l-.013-.3571-.142-2.571c0-.024-.029-.0476-.072-.0717-.028 0-.056.0241-.056.0717l-.141 2.571-.029.3571c-.043.0241-.084.0476-.113.095-.029.0471-.057.1191-.057.1667 0 .0712.014.1186.057.1663.014.0241.058.0717.085.095l-.015.3335c-.07.0236-.113.0717-.155.1191-.042.0712-.071.1427-.071.215 0 .0706.014.1421.071.1897.028.0718.056.0956.114.1432l-.015.3566c-.199.095-.467.2385-.707.4052-.27.1662-.511.3806-.625.595-.098.2144-.126.4283-.126.6192 0 .1421.056.2853.085.3806-.835.4052-1.868.9521-2.789 1.5955-.949.666-1.784 1.4037-2.194 2.2137-1.062 2.0242-.256 4.0232.083 4.6422h-.182c-.184 0-.326.119-.326.286 0 .142.142.262.326.262h.07v.69c-1.514-2.202-6.634-2.528-8.35.513l-.022-3.381h.167c.273 0 .496-.192.496-.421s-.223-.418-.496-.418h-.176l-.04-5.8186h.216c.241 0 .44-.1652.44-.3702 0-.1783-.148-.3263-.343-.3632v-1.7425h.191c.121 0 .225-.0878.225-.1952 0-.1041-.104-.1887-.225-.1887h-.26c.125-.3126.285-.9111-.035-1.5203-.153-.283-.448-.5517-.792-.7872-.328-.2286-.697-.424-.992-.5651.012-.0401.024-.0872.028-.1448.003-.0707-.004-.1448-.044-.2179-.041-.0811-.128-.1552-.225-.216-.087-.057-.184-.1041-.252-.1376l-.004-.1317c.016-.0131.033-.0302.041-.0471.015-.023.023-.0465.023-.0701 0-.0278-.008-.0575-.023-.0773-.017-.0204-.033-.034-.057-.0477l-.008-.114c.016-.0105.028-.0236.037-.0407.011-.0131.02-.0335.02-.0538 0-.0198-.008-.0434-.025-.0602-.008-.0137-.023-.0273-.04-.0407l-.007-.1213-.048-.921c0-.0105-.008-.0204-.024-.0204-.017 0-.025.0067-.028.0204l-.048.921-.005.1213c-.019.0136-.035.0273-.044.0407-.015.0168-.02.0401-.02.0602 0 .0203.005.0407.017.0538.007.0171.024.0302.031.0407l-.003.114c-.02.0137-.045.0273-.053.0477-.02.0198-.028.0497-.028.0773 0 .0236.008.0471.025.0701.007.0169.028.034.044.0471l-.008.1317c-.072.0335-.168.0806-.252.1376-.097.0608-.184.1349-.22.216-.044.0731-.052.1475-.048.2179 0 .0576.016.1047.032.1448-.3.1411-.668.3367-1.001.5651-.336.2358-.64.5045-.788.7872-.316.6089-.164 1.2077-.036 1.5203h-.216c-.128 0-.232.0846-.232.1887 0 .1071.104.1952.232.1952h.176v1.7425c-.192.0401-.336.1882-.336.3632 0 .205.205.3702.448.3702h.208l-.04 5.8186h-.168c-.276 0-.504.189-.504.418s.228.421.504.421h.168l-.04 5.177c-1.976-3.438-6.023-5.871-10.782-6.16v-.406c0-.065-.031-.129-.086-.175-.056-.0473-.13-.0727-.209-.0727h-.243l-.19-4.1641c1.075-.3769 1.909-1.1852 2.125-2.2198.256-1.228-.428-2.41-1.612-3.03.506.6159.733 1.3932.567 2.1917-.334 1.6114-2.166 2.6898-4.079 2.4074-.459-.0674-.879-.2064-1.253-.4004.52.6319 1.326 1.0953 2.298 1.2385.603.0894 1.189.0302 1.731-.125l-.194 4.1017h-.237c-.167 0-.304.1147-.304.2557v.39c-5.132.242-9.462 2.977-11.313 6.793-.258-.249-.562-.486-.882-.711-.621-.435-1.31-.805-1.884-1.078.028-.065.058-.161.058-.258.009-.128-.01-.273-.077-.418-.086-.145-.249-.29-.421-.402-.172-.113-.344-.209-.478-.274l-.02-.241c.038-.031.067-.048.087-.096.028-.032.047-.081.047-.128 0-.049-.019-.098-.058-.146-.018-.032-.057-.064-.095-.08l-.019-.226c.028-.016.057-.048.067-.064.029-.032.029-.064.029-.112 0-.033-.01-.082-.039-.113-.019-.032-.038-.048-.077-.065l-.009-.241-.095-1.737c0-.016-.02-.032-.049-.048-.019 0-.037.016-.037.048l-.096 1.737-.02.241c-.028.017-.056.033-.076.065-.02.031-.038.08-.038.113 0 .048.009.08.038.112.01.016.039.049.057.064l-.009.226c-.048.016-.077.048-.105.08-.028.048-.048.097-.048.146 0 .047.009.096.048.128.019.048.038.065.077.096l-.01.241c-.134.065-.316.161-.478.274-.182.112-.345.257-.422.402-.066.145-.086.29-.086.418 0 .097.038.193.058.258-.564.273-1.262.643-1.884 1.078-.642.45-1.206.948-1.484 1.496-.177.337-.276.672-.323.994-1.862-.609-3.437-1.38-4.697-2.282.052-.086.09-.178.09-.283 0-.256-.186-.476-.451-.573l-.188-2.474h-.221l-.189 2.474c-.265.097-.448.317-.448.573 0 .105.035.197.089.283-1.376.98-3.143 1.822-5.217 2.448-3.186.959-5.312 2.676-5.312 4.638 0 .561.176 1.105.499 1.613h-1.246v-4.515h.074c.212 0 .384-.144.384-.322v-.184c0-.176-.172-.322-.384-.322h-.502c.021-.119.035-.238.035-.364 0-.862-.542-1.618-1.355-2.039-.506-.261-.936-.6-1.276-1 .064-.051.102-.124.102-.203 0-.111-.079-.21-.196-.251l-.084-1.09h-.097l-.082 1.09c-.117.041-.198.14-.198.251 0 .079.04.152.104.203-.343.398-.775.74-1.274 1-.814.421-1.358 1.177-1.358 2.039 0 .127.014.245.038.364h-.52c-.211 0-.381.146-.381.322v.184c0 .178.17.322.381.322h.087v4.735c-.431-1.253-1.553-2.257-3.005-2.7.002-.02.007-.039.007-.06 0-.603-.457-1.11-1.095-1.304l-.233-.595c.046-.054.078-.117.078-.187 0-.137-.1-.251-.238-.305l-.145-1.877c0-.008-.012-.015-.025-.015-.008 0-.019.007-.019.015l-.145 1.877c-.137.053-.236.168-.236.305 0 .071.031.132.074.185l-.232.597c-.637.195-1.093.703-1.093 1.304 0 .02.006.04.006.06-1.864.569-3.203 2.057-3.203 3.822 0 .423.096.823.238 1.207h-1.675v.617h-.171v23.062h173.156zm-160.575 33.5116h-1.053v-2.499c0-.637.221-1.172.524-1.333.305.161.529.696.529 1.333zm3.116-.043h-.645v.043h-2.018v-2.765c0-.702.565-1.294 1.33-1.475.77.181 1.333.773 1.333 1.475zm1.497 0h-1.052v-2.456c0-.637.221-1.172.527-1.333.303.161.525.696.525 1.333zm53.31-22.0823v.6828h-1.641v-.6828s-.008-.0538.052-.1212c.064-.0675.036-.1207.012-.1882-.184-.4307.661-.4098.761-.7398.095.3297.94.3089.76.7398-.032.0675-.057.1207.007.1882.064.0674.049.1212.049.1212zm25.869-16.1412v-1.2607c0-.4786.385-.8809.906-1.0043.524.1234.908.5257.908 1.0043v1.2321.0286zm24.664 17.7325h-1.053v-1.9631c0-.6368.222-1.171.524-1.3321.306.1611.529.6953.529 1.3321zm.398-.0024v-1.8517c0-.7027.565-1.2939 1.33-1.4749.77.181 1.333.7722 1.333 1.4749v1.8094l.001.0423zm4.216.0083h-1.053v-1.9687c0-.6368.222-1.1711.528-1.3322.302.1611.525.6954.525 1.3322z" opacity=".3"/><path d="m324.285 118.753c.145-.393.244-.803.244-1.236 0-1.808-1.372-3.332-3.28-3.914 0-.021.006-.041.006-.062 0-.615-.467-1.136-1.119-1.335l-.238-.61c.045-.055.076-.118.076-.19 0-.14-.102-.258-.242-.313l-.149-1.921c0-.009-.011-.016-.02-.016-.012 0-.024.006-.024.016l-.149 1.921c-.141.055-.244.173-.244.313 0 .072.033.136.08.191l-.239.609c-.653.199-1.121.718-1.121 1.335 0 .021.005.041.007.062-1.487.454-2.636 1.481-3.078 2.765v-4.85h.09c.216 0 .39-.147.39-.33v-.187c0-.181-.174-.329-.39-.329h-.533c.025-.123.039-.244.039-.374 0-.881-.557-1.656-1.39-2.088-.511-.267-.953-.616-1.305-1.024.065-.052.107-.126.107-.207 0-.115-.083-.216-.203-.258l-.085-1.116h-.099l-.086 1.116c-.12.042-.201.143-.201.258 0 .081.039.155.105.207-.348.409-.789.757-1.307 1.024-.832.431-1.387 1.207-1.387 2.088 0 .13.015.251.035.374h-.513c-.218 0-.394.149-.394.329v.187c0 .184.177.33.394.33h.075v4.624h-1.275c.33-.52.51-1.077.51-1.652 0-2.009-2.177-3.767-5.439-4.749-2.124-.641-3.933-1.504-5.342-2.507.055-.088.091-.183.091-.29 0-.262-.187-.487-.459-.586l-.193-2.534h-.226l-.193 2.534c-.271.099-.462.324-.462.586 0 .107.039.202.093.29-1.291.923-2.903 1.713-4.81 2.337-.048-.33-.15-.674-.331-1.019-.285-.56-.862-1.07-1.519-1.532-.637-.444-1.352-.824-1.93-1.104.02-.065.059-.164.059-.263 0-.132-.019-.28-.087-.428-.079-.148-.246-.297-.432-.412-.166-.116-.352-.214-.49-.28l-.01-.247c.04-.033.06-.05.079-.099.04-.033.049-.083.049-.132s-.02-.099-.049-.149c-.029-.032-.059-.065-.108-.082l-.009-.231c.019-.016.048-.049.059-.065.03-.034.039-.066.039-.116 0-.033-.02-.083-.039-.114-.021-.034-.049-.05-.078-.067l-.02-.247-.098-1.779c0-.032-.02-.05-.038-.05-.031.017-.051.034-.051.05l-.097 1.779-.01.247c-.04.017-.059.033-.078.067-.03.031-.04.081-.04.114 0 .05 0 .082.029.116.011.016.04.05.07.065l-.02.231c-.039.017-.079.05-.098.082-.04.05-.059.1-.059.149s.02.099.049.132c.02.05.049.066.089.099l-.02.247c-.138.066-.314.164-.49.28-.177.115-.343.264-.431.412-.069.148-.088.296-.079.428 0 .099.03.198.059.263-.588.28-1.293.66-1.929 1.104-.328.231-.639.474-.903.728-1.896-3.907-6.33-6.708-11.585-6.955v-.399c0-.145-.141-.262-.312-.262h-.242l-.2-4.2003c.555.159 1.156.2192 1.773.1279.995-.1469 1.821-.6207 2.353-1.2685-.383.1989-.813.3413-1.283.4104-1.96.2888-3.835-.8156-4.177-2.4655-.17-.8172.063-1.6133.58-2.2442-1.211.635-1.912 1.8453-1.65 3.1028.221 1.0595 1.075 1.8874 2.176 2.2734l-.195 4.264h-.248c-.08 0-.156.026-.214.074-.057.048-.088.113-.088.18v.416c-4.873.296-9.018 2.787-11.041 6.308l-.042-5.302h.173c.283 0 .516-.197.516-.431s-.233-.428-.516-.428h-.173l-.04-5.9587h.213c.249 0 .459-.1697.459-.379 0-.1794-.148-.3309-.345-.3726v-1.784h.18c.132 0 .237-.0902.237-.1995 0-.1068-.105-.1937-.237-.1937h-.221c.131-.3199.287-.9329-.037-1.5568-.152-.2894-.462-.5645-.807-.8062-.34-.234-.717-.4339-1.024-.5787.016-.041.032-.0894.032-.1483.005-.0723-.003-.1486-.049-.2232-.037-.0833-.126-.159-.225-.2209-.086-.0586-.184-.1068-.258-.141l-.008-.1347c.016-.0136.036-.031.045-.0484.017-.0238.025-.0474.025-.0717 0-.0284-.008-.0589-.029-.0795-.008-.0209-.033-.0348-.053-.0485l-.004-.117c.007-.0109.024-.0243.032-.042.012-.0131.017-.0342.017-.0546 0-.0206-.005-.0447-.02-.0615-.009-.0142-.025-.0279-.046-.0421l-.004-.1242-.049-.9432c-.004-.0137-.012-.0204-.029-.0204-.016 0-.025.0099-.025.0204l-.048.9432-.008.1242c-.017.0145-.033.0279-.041.0421-.017.0168-.025.0409-.025.0615 0 .0204.008.0415.02.0546.009.0177.021.0311.037.042l-.008.117c-.024.0137-.041.0276-.058.0485-.016.0206-.024.0508-.024.0795 0 .0243.008.0479.024.0717.009.0171.025.0348.042.0484l-.004.1347c-.07.0342-.169.0827-.258.141-.1.0619-.189.1379-.23.2209-.042.0746-.049.1509-.045.2232.003.0589.016.1071.028.1483-.303.1448-.68.3447-1.016.5787-.353.2414-.655.5168-.811.8062-.328.6239-.164 1.2369-.036 1.5568h-.267c-.124 0-.229.0867-.229.1937 0 .1093.105.1995.229.1995h.197v1.784c-.201.0385-.353.19-.353.3726 0 .2093.205.379.452.379h.22l-.041 5.9587h-.179c-.28 0-.509.194-.509.428s.229.431.509.431h.17l-.022 3.462c-1.757-3.114-7-2.78-8.55-.525v-.707h.072c.188 0 .333-.122.333-.268 0-.171-.145-.293-.333-.293h-.187c.347-.634 1.173-2.682.085-4.7538-.42-.8293-1.275-1.5849-2.247-2.2669-.943-.6593-2.001-1.219-2.856-1.6339.029-.0974.087-.2441.087-.3894 0-.1957-.029-.4146-.13-.6338-.117-.2195-.364-.439-.639-.6093-.246-.1707-.521-.3174-.725-.4149l-.014-.3648c.059-.0492.087-.0736.116-.1469.059-.049.073-.1221.073-.1949 0-.0736-.03-.1467-.073-.2198-.042-.0484-.087-.0977-.159-.122l-.015-.3413c.028-.0243.072-.0725.087-.0974.045-.049.058-.0972.058-.1705 0-.0485-.028-.1226-.058-.1705-.029-.049-.072-.0731-.115-.0975l-.03-.3653-.145-2.6331c0-.049-.028-.0736-.057-.0736-.044.0249-.074.0493-.074.0736l-.145 2.6331-.014.3653c-.059.0244-.086.0488-.115.0975-.044.0479-.059.122-.059.1705 0 .0731 0 .1215.043.1705.016.0249.059.0731.102.0974l-.03.3413c-.057.0243-.115.0736-.144.122-.058.0731-.087.1462-.087.2198 0 .0726.029.1459.073.1949.029.073.073.0977.131.1469l-.029.3648c-.203.0975-.464.2442-.725.4149-.261.1705-.507.3898-.639.6093-.101.2192-.129.4381-.116.6338 0 .1453.044.292.088.3894-.871.4152-1.915.9749-2.855 1.6339-.972.682-1.843 1.4376-2.263 2.2669-1.087 2.0718-.247 4.1198.086 4.7538h-.173c-.189 0-.334.122-.334.293 0 .146.145.268.334.268h.159v.707h-1.564l-.03-12.5553h.463c.306 0 .551-.2193.551-.4628 0-.2674-.245-.4628-.551-.4628h-.463l-.044-6.9479h.16c.261 0 .493-.171.493-.3905 0-.2436-.232-.4141-.493-.4141h-.175l-.028-5.6315h.203c.232 0 .435-.1705.435-.3656 0-.1708-.146-.3172-.334-.341v-1.7067h.174c.13 0 .218-.0733.218-.171s-.087-.1949-.218-.1949h-.202c.115-.2928.274-.8774-.044-1.4622-.146-.2685-.436-.537-.754-.7559-.32-.2436-.682-.4146-.972-.5608.015-.0244.029-.0731.029-.1467 0-.0487-.014-.121-.044-.1951-.044-.0974-.115-.1702-.217-.2192-.086-.0485-.174-.0969-.247-.1218v-.1462c.016 0 .03-.024.03-.0489.028 0 .028-.0244.028-.049 0-.0241 0-.049-.028-.0728 0-.0244-.03-.0487-.058-.0487v-.1218c.028 0 .028-.0241.044-.0241.014-.0249.014-.0493.014-.0739 0 0 0-.0241-.03-.049 0-.0238-.014-.0238-.028-.0238l-.014-.1221-.045-.902s-.014-.0244-.03-.0244c-.014 0-.028.0244-.028.0244l-.043.902v.1221c-.015 0-.044 0-.044.0238-.014.0249-.028.049-.028.049 0 .0246.014.049.028.0739 0 0 .015.0241.029.0241v.1218c-.029 0-.043.0243-.057.0487-.016.0241-.029.0489-.029.0728 0 .0246.013.049.029.049 0 .0249.028.0489.043.0489l-.015.1462c-.057.0249-.145.0733-.232.1218-.102.0492-.174.1218-.232.2192-.029.0739-.029.1464-.029.1951 0 .0734.014.1223.029.1467-.29.1462-.653.3172-.973.5608-.332.2189-.623.4874-.767.7559-.303.5848-.144 1.1694-.028 1.4622h-.247c-.131 0-.218.0972-.218.1949s.087.171.218.171h.174v.4628c0 .0249 0 .049-.016.0734l.016.0484v1.1221c-.188.0238-.334.1702-.334.341 0 .1951.203.3656.435.3656h.204l-.03 5.6315h-.174c-.261 0-.493.1705-.493.4141 0 .2195.232.3905.493.3905h.159l-.043 6.9479h-.465c-.302 0-.55.1954-.55.4628 0 .2435.248.4628.55.4628h.451l-.015 7.2409h-.827v-2.9012h-1.885v-.7067h.074c.173 0 .333-.1226.333-.269 0-.17-.16-.292-.333-.292h-.175c.333-.6338 1.159-2.6823.087-4.7543-.434-.8287-1.289-1.5843-2.261-2.2666-.943-.6582-2.001-1.2198-2.856-1.6339.043-.0979.072-.2436.1-.4146 0-.1705-.028-.3895-.145-.6092-.115-.2195-.361-.439-.637-.6092-.246-.1711-.522-.3175-.725-.4146l-.014-.3651c.057-.0496.101-.0731.131-.147.028-.0484.058-.1221.058-.1951 0-.0736-.03-.1464-.058-.219-.059-.049-.102-.0971-.175-.122l-.014-.3408c.043-.0249.072-.0736.101-.0985.029-.0484.058-.0971.058-.1705 0-.0484-.029-.1215-.058-.171-.029-.0479-.087-.0726-.13-.0967l-.016-.3656-.144-2.6328c0-.0489-.029-.073-.072-.073-.045.0243-.072.0487-.072.073l-.146 2.6328-.014.3656c-.045.0241-.088.049-.117.0967-.044.0495-.058.1226-.058.171 0 .0731.014.1221.044.1705.03.0249.059.0736.102.0985l-.016.3408c-.056.0249-.116.073-.159.122-.043.0726-.072.1454-.072.219 0 .0728.029.1467.057.1951.03.0736.088.0974.146.147l-.028.3651c-.204.0971-.466.2435-.727.4146-.261.1705-.521.3897-.637.6092-.116.2197-.145.439-.131.6092.015.171.044.3167.086.4146-.854.4141-1.898.9757-2.854 1.6339-.973.6823-1.827 1.4379-2.248 2.2666-1.086 2.072-.246 4.1205.072 4.7543h-.172c-.175 0-.321.122-.321.292 0 .1464.146.269.321.269h.172v.7067h-1.985v2.9012h-1.435v-2.1943c.173-.0974.319-.2436.319-.4385 0-.2684-.232-.5125-.522-.5605v-2.7069h.276c.187 0 .347-.1459.347-.2915 0-.1716-.16-.2925-.347-.2925h-.334c.189-.4883.434-1.4149-.059-2.3652-.232-.4395-.696-.8538-1.218-1.2186-.522-.3662-1.087-.6593-1.565-.878.03-.0487.058-.1469.058-.22 0-.121 0-.2187-.073-.3408-.073-.1215-.188-.2435-.347-.3407-.131-.0731-.275-.1713-.392-.2195v-.1951c.03-.0249.057-.0487.057-.0731.03-.0249.044-.0736.044-.0974 0-.049-.014-.0983-.044-.1216-.027-.0495-.057-.0733-.086-.0733v-.1951c.015 0 .029-.0244.044-.049.015-.0238.029-.0492.029-.0969 0-.0246-.014-.049-.029-.0731-.015-.0246-.044-.0495-.074-.0733v-.1949l-.085-1.4138c0-.0241-.015-.0495-.03-.0495-.027 0-.044.0254-.044.0495l-.072 1.4138-.014.1949c-.03.0241-.044.049-.072.0733-.015.0244-.03.0488-.03.0731 0 .0479.015.0731.03.0969.014.0246.028.049.057.049v.1951c-.043 0-.072.0241-.087.0733-.029.0233-.058.0726-.058.1216 0 .0238.029.0725.043.0974.015.0246.045.0485.073.0731l-.014.1951c-.102.0485-.247.1464-.392.2195-.143.0972-.275.2192-.349.3407-.056.1221-.072.2442-.056.3408 0 .0731.013.1715.029.22-.45.2187-1.016.5118-1.537.878-.523.3645-.987.7791-1.219 1.2186-.493.9503-.261 1.8769-.058 2.3652h-.406c-.187 0-.347.1209-.347.2925 0 .1456.16.2915.347.2915h.291v2.7069c-.291.048-.522.2921-.522.5605 0 .1949.13.3408.29.4385v2.1943h-.022v-.0942c-1.242-7.2487-6.57-13.2595-19.876-17.755-6.843-2.3134-10.236-5.4572-11.897-7.7653 1.593-.5854 2.707-1.9197 2.707-3.4746 0-1.8528-1.581-3.3924-3.669-3.7238l-.074-1.6723c.577-.2112.981-.6933.981-1.2559 0-.5977-.458-1.101-1.094-1.2883l-.177-4.0124c2.023.3651 4.178.3028 6.277-.2923 3.152-.8951 5.551-2.7834 6.896-5.1114-1.122.8081-2.438 1.45-3.922 1.8713-6.215 1.7613-12.96-1.0484-15.058-6.2733-1.039-2.5894-.749-5.279.563-7.5496-3.575 2.5755-5.136 6.8055-3.536 10.7894 1.327 3.3103 4.525 5.6459 8.268 6.4688l-.29 4.0851c-.684.1633-1.187.686-1.187 1.3127 0 .5696.414 1.0578 1.002 1.2644l-.117 1.6363c-2.193.2577-3.882 1.8362-3.882 3.7511 0 1.6226 1.214 3.0029 2.919 3.5442-1.679 2.3016-5.073 5.4058-11.848 7.6957-12.396 4.1885-17.871 9.6922-19.564 16.2876v-.6328c.159-.0974.289-.2436.289-.4384 0-.2685-.231-.5126-.522-.5605v-2.707h.291c.188 0 .347-.1458.347-.2914 0-.1716-.159-.2926-.347-.2926h-.406c.203-.4882.435-1.4149-.058-2.3651-.232-.4395-.696-.8539-1.219-1.2187-.521-.3662-1.087-.6593-1.536-.878.014-.0487.028-.1469.028-.22.016-.0966 0-.2187-.056-.3407-.073-.1216-.205-.2436-.349-.3408-.145-.073-.29-.1713-.391-.2195l-.015-.1951c.029-.0249.058-.0487.073-.0731.014-.0249.043-.0736.043-.0974 0-.049-.029-.0982-.058-.1215-.015-.0495-.043-.0733-.087-.0733v-.1952c.029 0 .044-.0243.058-.049.014-.0238.029-.0492.029-.0969 0-.0246-.015-.0489-.029-.073-.029-.0247-.043-.0496-.072-.0734l-.014-.1948-.073-1.4139c0-.024-.016-.0495-.044-.0495-.014 0-.029.0255-.029.0495l-.086 1.4139v.1948c-.029.0241-.059.049-.074.0734-.014.0243-.028.0487-.028.073 0 .0479.014.0731.028.0969.015.0247.03.049.045.049v.1952c-.03 0-.059.024-.087.0733-.03.0233-.044.0725-.044.1215 0 .0238.014.0725.044.0974 0 .0247.028.0485.057.0731v.1951c-.116.0485-.261.1465-.391.2195-.16.0972-.275.2192-.348.3408-.073.122-.073.2197-.073.3407 0 .0731.029.1716.058.22-.478.2187-1.042.5118-1.565.878-.522.3645-.986.7792-1.217 1.2187-.494.9502-.248 1.8769-.059 2.3651h-.334c-.187 0-.347.121-.347.2926 0 .1456.159.2914.347.2914h.276v2.707c-.29.0479-.523.292-.523.5605 0 .1948.146.3407.32.4384v2.1943h-1.435v-2.9012h-1.986v-.7067h.173c.175 0 .321-.1225.321-.269 0-.1699-.146-.292-.321-.292h-.173c.319-.6338 1.159-2.6823.073-4.7543-.421-.8287-1.275-1.5843-2.248-2.2666-.956-.6582-2.001-1.2198-2.854-1.6339.042-.0979.071-.2435.086-.4146.014-.1705-.015-.3894-.132-.6092-.115-.2195-.375-.439-.636-.6092-.261-.171-.524-.3174-.727-.4146l-.028-.3651c.058-.0495.116-.0731.146-.147.028-.0484.057-.122.057-.1951 0-.0736-.029-.1464-.072-.2189-.043-.049-.103-.0972-.159-.1221l-.015-.3407c.043-.0249.072-.0736.101-.0985.03-.0485.045-.0972.045-.1705 0-.0485-.015-.1216-.059-.1711-.029-.0479-.072-.0725-.117-.0966l-.013-.3656-.146-2.6328c0-.0244-.028-.049-.072-.0731-.044 0-.072.0244-.072.0731l-.145 2.6328-.016.3656c-.042.0241-.101.049-.129.0966-.029.0495-.058.1226-.058.1711 0 .073.029.122.058.1705.028.0249.058.0736.101.0985l-.014.3407c-.073.0249-.116.0731-.175.1221-.028.0725-.058.1453-.058.2189 0 .0728.03.1467.058.1951.03.0736.074.0975.131.147l-.014.3651c-.203.0972-.479.2436-.725.4146-.276.1705-.522.3897-.637.6092-.116.2198-.145.439-.145.6092.029.1711.057.3167.1.4146-.855.4141-1.912.9757-2.856 1.6339-.971.6823-1.827 1.4379-2.261 2.2666-1.072 2.072-.246 4.1205.087 4.7543h-.175c-.173 0-.333.1221-.333.292 0 .1465.16.269.333.269h.074v.7067h-1.885v2.9012h-.827l-.015-7.2409h.451c.303 0 .55-.2192.55-.4628 0-.2674-.248-.4628-.55-.4628h-.464l-.043-6.9479h.159c.26 0 .492-.171.492-.3905 0-.2436-.232-.4141-.492-.4141h-.174l-.03-5.6314h.204c.232 0 .435-.1705.435-.3657 0-.1707-.146-.3172-.334-.341v-1.122l.015-.0485c-.015-.0243-.015-.0484-.015-.0733v-.4628h.174c.131 0 .217-.0734.217-.1711s-.086-.1948-.217-.1948h-.247c.116-.2929.275-.8774-.028-1.4623-.145-.2685-.435-.5369-.768-.7559-.32-.2436-.682-.4146-.972-.5608.015-.0243.029-.073.029-.1466 0-.0488 0-.121-.029-.1952-.058-.0974-.13-.1702-.2319-.2192-.0869-.0484-.1745-.0969-.2318-.1218l-.0146-.1461c.0147 0 .0423-.0241.0423-.049.016 0 .0296-.0244.0296-.049 0-.0241-.0136-.049-.0296-.0728-.0136-.0243-.0276-.0487-.0573-.0487v-.1218c.015 0 .0296-.0241.0296-.0241.0141-.0249.0277-.0492.0277-.0739 0 0-.0136-.0241-.0277-.049 0-.0238-.0296-.0238-.0442-.0238v-.122l-.0433-.9021s-.014-.0243-.0277-.0243c-.0156 0-.0296.0243-.0296.0243l-.0443.9021-.0146.122c-.014 0-.0277 0-.0277.0238-.0296.0249-.0296.049-.0296.049 0 .0247 0 .049.0137.0739.0159 0 .0159.0241.0436.0241v.1218c-.0277 0-.0573.0244-.0573.0487-.0287.0241-.0287.049-.0287.0728 0 .0246 0 .049.0287.049 0 .0249.0137.049.0296.049v.1461c-.0729.0249-.1608.0734-.2474.1218-.1015.0493-.1735.1218-.2168.2192-.0296.0739-.0442.1464-.0442.1952 0 .0733.0146.1223.0293.1466-.2897.1462-.6523.3172-.9717.5608-.3183.219-.609.4874-.7548.7559-.3174.5849-.1585 1.1694-.0433 1.4623h-.2025c-.1302 0-.2177.0971-.2177.1948s.0875.1711.2177.1711h.1748v1.7066c-.1881.0238-.3339.1703-.3339.341 0 .1952.2027.3657.4345.3657h.2028l-.0274 5.6314h-.1754c-.2604 0-.4928.1705-.4928.4141 0 .2195.2324.3905.4928.3905h.1592l-.0433 6.9479h-.4632c-.3053 0-.5511.1954-.5511.4628 0 .2436.2458.4628.5511.4628h.4632l-.0296 12.5556h-1.5641v-.707h.1592c.1888 0 .3336-.122.3336-.269 0-.17-.1448-.292-.3336-.292h-.1726c.3318-.634 1.1729-2.682.0857-4.7541-.4209-.8292-1.291-1.5849-2.2626-2.2669-.9414-.6592-1.985-1.2189-2.8551-1.6338.0433-.0975.0876-.2441.0876-.3895.0137-.1956-.0147-.4146-.1162-.6338-.1312-.2195-.3776-.439-.6386-.6092-.2611-.1708-.5215-.3175-.7246-.4149l-.0293-.3648c.0582-.0493.1015-.0737.1312-.147.0436-.049.0729-.1221.0729-.1949 0-.0736-.0293-.1466-.0876-.2197-.0286-.0485-.0869-.0977-.1439-.1221l-.0296-.3413c.0433-.0243.0866-.0725.1016-.0974.0432-.049.0433-.0971.0433-.1705 0-.0484-.0147-.1226-.0583-.1705-.0293-.049-.057-.0731-.1162-.0974l-.0137-.3654-.1449-2.633c0-.0247-.0296-.049-.0738-.0737-.0287 0-.0573.025-.0573.0737l-.1449 2.633-.0296.3654c-.0433.0243-.0859.0487-.1152.0974-.0296.0479-.0583.1221-.0583.1705 0 .0731.0137.1215.0583.1705.0146.0249.0589.0731.0866.0974l-.0147.3413c-.0719.0244-.1162.0736-.1591.1221-.043.0731-.073.1461-.073.2197 0 .0726.0141.1459.073.1949.0289.0731.0576.0977.1165.147l-.0147.3648c-.204.0974-.4788.2441-.7242.4149-.2761.1705-.5228.3897-.6396.6092-.1006.2192-.1296.4382-.1296.6338 0 .1454.0576.292.0869.3895-.8554.4151-1.913.9748-2.856 1.6338-.9719.682-1.8264 1.4377-2.2473 2.2669-1.0872 2.0721-.2613 4.1201.0857 4.7541h-.1872c-.1885 0-.3334.122-.3334.292 0 .147.1449.269.3334.269h.0719v.707c-1.5507-2.255-6.7934-2.589-8.5501.525l-.0233-3.463h.1716c.2792 0 .5078-.196.5078-.43 0-.235-.2286-.428-.5078-.428h-.1799l-.0407-5.959h.2209c.2461 0 .4508-.1697.4508-.379 0-.1826-.1518-.3341-.3518-.3726v-1.784h.1961c.1239 0 .2299-.0902.2299-.1994 0-.1068-.106-.1938-.2299-.1938h-.2661c.1273-.3199.2913-.9328-.0366-1.5568-.156-.2893-.4585-.5645-.8112-.8062-.3362-.2339-.7131-.4339-1.0159-.5787.0121-.0409.0245-.0894.0287-.1483.0035-.0723-.0042-.1485-.0452-.2232-.0411-.0833-.1309-.159-.2299-.2208-.0894-.0587-.1881-.1068-.2579-.1411l-.0041-.1346c.0166-.0137.0331-.0311.0414-.0485.0159-.0238.0245-.0474.0245-.0717 0-.0284-.0086-.0589-.0245-.0795-.0166-.0209-.0331-.0348-.0576-.0485l-.0083-.1169c.0159-.011.0286-.0244.0372-.0421.0121-.0131.0204-.0342.0204-.0546 0-.0206-.0083-.0447-.0248-.0615-.0083-.0142-.0245-.0279-.0411-.042l-.0079-.1242-.0491-.9433c0-.0105-.0079-.0204-.0248-.0204s-.0248.0067-.0287.0204l-.049.9433-.0044.1242c-.0201.0144-.0363.0278-.0452.042-.0153.0168-.0201.0409-.0201.0615 0 .0204.0048.0415.0166.0546.0079.0177.0245.0311.0321.0421l-.0035.1169c-.0207.0137-.0452.0276-.0535.0485-.02.0206-.0286.0508-.0286.0795 0 .0243.0082.0479.0248.0717.008.0171.0287.0348.0452.0485l-.0086.1346c-.0735.0343-.1722.0827-.2579.1411-.0987.0618-.1884.1378-.2254.2208-.0452.0747-.0534.1509-.049.2232 0 .0589.0159.1071.0325.1483-.3072.1448-.6838.3448-1.0245.5787-.3445.2414-.6552.5169-.8067.8062-.3238.624-.1678 1.2369-.037 1.5568h-.2212c-.1312 0-.2372.0867-.2372.1938 0 .1092.106.1994.2372.1994h.1799v1.784c-.1968.0415-.3442.1932-.3442.3726 0 .2093.2095.379.4588.379h.2126l-.0401 5.959h-.1725c-.2827 0-.5164.193-.5164.428 0 .234.2334.43.5164.43h.1725l-.0414 5.302c-2.0228-3.52-6.1678-6.011-11.0413-6.307v-.416c0-.067-.0312-.132-.0882-.18-.0576-.048-.1327-.074-.2139-.074h-.2483l-.1949-4.2643c1.1009-.386 1.9548-1.2139 2.176-2.2733.262-1.2575-.4384-2.4679-1.6503-3.1028.5179.6306.7503 1.4269.5806 2.2441-.3425 1.6499-2.2177 2.7543-4.1775 2.4655-.4702-.0691-.8997-.2115-1.2826-.4103.5323.6477 1.3581 1.1215 2.3533 1.2684.617.0916 1.218.0311 1.7723-.1279l-.199 4.1996h-.2426c-.1706 0-.311.118-.311.262v.4c-5.2555.247-9.6899 3.048-11.5848 6.955-.2645-.254-.5753-.497-.9032-.728-.6364-.445-1.3412-.824-1.9292-1.104.0289-.066.0589-.164.0589-.263.0092-.132-.0099-.28-.0787-.428-.0885-.149-.255-.297-.431-.412-.1764-.116-.3524-.215-.49-.281l-.0197-.246c.0391-.033.0684-.05.0888-.099.0293-.033.049-.083.049-.132s-.0197-.099-.0595-.149c-.0188-.032-.0586-.066-.0971-.082l-.0201-.231c.0293-.016.0586-.049.0691-.066.0293-.033.0293-.065.0293-.115 0-.033-.0105-.083-.0398-.115-.0197-.033-.0385-.049-.0786-.067l-.0092-.246-.0978-1.779c0-.017-.02-.033-.05-.05-.0191 0-.0385.017-.0385.05l-.098 1.779-.0201.246c-.029.018-.0576.034-.0777.067-.02.032-.0394.082-.0394.115 0 .05.0095.082.0394.115.0099.017.0398.05.0586.066l-.0099.231c-.0487.016-.0786.05-.1076.082-.0289.05-.049.1-.049.149s.0096.099.049.132c.0195.049.0389.066.079.099l-.0102.246c-.1379.066-.3238.165-.4893.281-.1869.115-.3534.263-.4324.412-.0681.148-.0875.296-.0875.428 0 .099.0388.197.0589.263-.5778.28-1.2925.659-1.9299 1.104-.6571.462-1.2346.972-1.5189 1.532-.1811.345-.2827.689-.3311 1.018-1.9066-.623-3.5194-1.413-4.8101-2.336.0535-.088.0924-.183.0924-.29 0-.262-.1901-.487-.4613-.587l-.193-2.533h-.226l-.1939 2.533c-.2712.1-.4584.325-.4584.587 0 .107.036.202.0913.29-1.4093 1.003-3.2189 1.866-5.342 2.507-3.2626.982-5.4395 2.74-5.4395 4.748 0 .575.1799 1.132.5103 1.653h-1.2769v-4.624h.0758c.2168 0 .3931-.147.3931-.33v-.187c0-.181-.1763-.329-.3931-.329h-.5142c.0214-.123.036-.244.036-.374 0-.882-.5555-1.657-1.3881-2.088-.5176-.268-.9588-.615-1.3065-1.024.0662-.052.1051-.126.1051-.207 0-.115-.0812-.216-.2012-.259l-.086-1.115h-.0987l-.0847 1.115c-.12.043-.2021.144-.2021.259 0 .081.0404.155.106.207-.3515.407-.7937.757-1.305 1.024-.8334.431-1.3899 1.206-1.3899 2.088 0 .13.014.251.0388.374h-.5323c-.2161 0-.3906.148-.3906.329v.187c0 .183.1745.33.3906.33h.0895v4.849c-.4413-1.283-1.59118-2.311-3.0776-2.765.00191-.02.00733-.04.00733-.061 0-.617-.46799-1.136-1.12126-1.335l-.23877-.609c.0468-.056.07959-.119.07959-.191 0-.14-.10252-.258-.24355-.314l-.14867-1.921c0-.009-.01242-.015-.02483-.015-.00828 0-.01942.006-.01942.015l-.14868 1.921c-.14008.056-.24163.173-.24163.314 0 .072.0312.135.07545.189l-.23718.611c-.65232.199-1.11935.719-1.11935 1.335 0 .021.00573.041.00573.061-1.90761.583-3.27973 2.107-3.27973 3.914 0 .433.09869.843.2445 1.237h-1.715957v.631h-.17637041v23.616h325.99949741v-23.616-.631zm-10.992-5.126c0-.652.229-1.2.542-1.364.309.164.536.712.536 1.364v2.559h-1.078zm-3.191-.272c0-.72.577-1.325 1.365-1.51.784.185 1.362.79 1.362 1.51v2.831h-2.067v-.044h-.66zm-1.533.272c0-.652.228-1.2.537-1.364.313.164.54.712.54 1.364v2.515h-1.078v-2.515zm-54.534-20.4148c-.184-.4414.681-.4197.778-.7575.103.3378.968.3161.779.7575-.025.069-.053.1236.012.1927.062.069.053.1242.053.1242v.6991h-1.68v-.6991s-.016-.0552.05-.1242c.065-.0691.04-.1237.008-.1927zm-28.406-16.2416v-1.2615c0-.4904.393-.9021.929-1.0284.534.1263.928.5383.928 1.0284v1.2909h-1.857zm-23.4 16.1781c0-.6525.229-1.1991.542-1.3646.309.1652.536.7121.536 1.3646v2.0099h-1.078zm-3.134 1.9642v-1.8534c0-.7192.577-1.3247 1.364-1.5101.784.1852 1.362.7909 1.362 1.5101v1.8965h-2.727zm-1.59-1.9642c0-.6525.227-1.1991.537-1.3646.313.1652.54.7121.54 1.3646v2.0161h-1.078zm-69.911 0c0-.6525.227-1.1991.54-1.3646.31.1652.538.7121.538 1.3646v2.0161h-1.078zm-3.239.1108c0-.7192.578-1.3247 1.362-1.5101.788.1852 1.364.7909 1.364 1.5101v1.8534l.001.0431h-2.728v-1.8965zm-1.486-.1108c0-.6525.227-1.1991.536-1.3646.313.1652.542.7121.542 1.3646v2.0099h-1.078zm-24.1782-17.4396c0-.4904.3938-.9021.9274-1.0284.5368.1263.9288.5383.9288 1.0284v1.2615l.001.0292h-1.8572zm-28.1063 17.5031c-.1882-.4414.6765-.4197.7787-.7575.098.3378.9624.3161.7787.7575-.0331.069-.0579.1236.0076.1927.0656.069.0497.1242.0497.1242v.6991h-1.6803v-.6991s-.0083-.0552.0532-.1242c.0659-.0691.0375-.1237.0124-.1927zm-54.0542 20.4148c0-.652.227-1.2.54-1.364.3101.164.5377.712.5377 1.364v2.515h-1.0777zm-3.1826-.272c0-.72.5785-1.325 1.3619-1.51.7883.185 1.3648.79 1.3648 1.51v2.787h-.6599v.044h-2.0671zm-1.5421.272c0-.652.227-1.2.5361-1.364.3129.164.5418.712.5418 1.364v2.559h-1.0779z"/></g><g opacity=".02"><path d="m227.534 142c46.959 0 85.027-9.49 85.027-21.196s-38.068-21.1955-85.027-21.1955-85.027 9.4895-85.027 21.1955 38.068 21.196 85.027 21.196z" fill="#043336" opacity=".25"/><g fill="#365c5e"><path d="m294.123 18.515-66.589 24.3787-66.657-24.3787-31.877 49.6255 98.534 36.0975 98.466-36.0975z"/><path d="m140.616 66.115 81.717 33.4936-28.094-29.8042s-46.127-11.9362-53.623-3.6894z" opacity=".45"/><path d="m314.452 66.115-81.718 33.4936 28.095-29.8042c-.068 0 46.059-11.9362 53.623-3.6894z" opacity=".45"/><path d="m227.534 104.238-98.534-36.0975v4.7021l98.534 36.0974 98.466-36.0974v-4.7021z"/><path d="m175.059 125.94 11.413-32.0464 36.739 13.4554z"/><path d="m178.233 116.681 44.978-9.332-36.739-13.4553z" opacity=".45"/><path d="m227.534 105.685-52.475 20.255 3.917 4.413 48.558-18.519 48.49 18.519 3.984-4.413z"/><path d="m280.008 125.94-11.481-32.0463-36.739 13.4553z"/><path d="m276.767 116.681-44.979-9.332 36.739-13.4553z" opacity=".45"/></g><path d="m227.534 111.834c1.977 0 3.579-1.716 3.579-3.834 0-2.117-1.602-3.834-3.579-3.834s-3.579 1.717-3.579 3.834c0 2.118 1.602 3.834 3.579 3.834z" fill="#fff" fill-opacity=".74"/><path d="m291.287 18.515-63.753 34-63.753-34c-2.904 4.1234-26.272 45.8638-26.272 45.8638.271 0 .473.0723.743.0723 58.621 6.2936 74.897 26.0425 80.3 30.817 5.402 4.8469 9.049 4.3404 9.049 4.3404s3.647.5065 9.05-4.3404c5.403-4.7745 21.679-24.5234 80.299-30.817.27 0 .473-.0723.743-.0723-.135 0-23.57-41.668-26.406-45.8638z" fill="#dfb883"/><path d="m317.558 64.3788c-.27 0-.473.0724-.743.0724-58.62 6.2936-74.896 26.0425-80.299 30.817-5.403 4.8468-9.05 4.3404-9.05 4.3404s-3.647.5064-9.049-4.3404c-5.403-4.7745-21.679-24.5234-80.3-30.817-.27 0-.473-.0724-.743-.0724-.472.7958 0 1.3745 0 1.3745 59.229 6.1489 74.964 25.9702 80.367 30.817 5.403 4.7747 9.658 4.4127 9.658 4.4127s4.254.362 9.657-4.4127c5.403-4.7745 21.139-24.5957 80.367-30.817.135 0 .608-.5787.135-1.3745z" fill="#365c5e"/><path d="m288.856 14.5363c-32.62-8.39143-61.39 20.3277-61.39 20.3277s-28.77-28.71913-61.389-20.3277c0 0-9.252 15.1915-22.017 41.017 0 0 64.226 7.7404 83.406 36.6042 19.18-28.8638 83.406-36.6042 83.406-36.6042-12.764-25.8255-22.016-41.017-22.016-41.017z" fill="#f5effb"/><path d="m310.872 55.5532s-64.226 7.7404-83.406 36.6042c-19.112-28.8638-83.338-36.6042-83.338-36.6042s0 2.3149-3.579 6.8724c0 0 58.282 4.4851 79.488 30.3829 4.998 6.0766 7.429 5.3532 7.429 5.3532s2.499.7234 7.429-5.3532c21.139-25.8978 79.489-30.3829 79.489-30.3829-3.512-4.6298-3.512-6.8724-3.512-6.8724z" fill="#132d2e" fill-opacity=".17"/><path d="m285.209 17.5746s-24.38-6.6553-57.743 21.051c-33.295-27.634-57.742-21.051-57.742-21.051l-16.479 34.2893c50.111 3.6894 74.221 30.817 74.221 30.817s24.11-27.1276 74.221-30.817zm-57.675 61.851s-22.557-24.7404-70.372-29.5872l13.845-30.817s23.975-4.9915 56.527 21.1957c32.552-26.1872 56.527-21.1957 56.527-21.1957l13.844 30.817c-47.815 4.8468-70.371 29.5872-70.371 29.5872z" fill="#365c5e"/><g stroke="#365c5e" stroke-linecap="round" stroke-width="3.568"><path d="m233.679 64.4467c9.005-7.1134 37.145-22.855 56.055-20.6848" opacity=".2"/><path d="m233.679 44.4852c7.992-6.7026 28.77-19.8351 47.95-18.7445" opacity=".2"/><path d="m233.679 54.6129c8.667-7.2182 31.202-21.3609 52.002-20.1864" opacity=".2"/><path d="m222.198 64.4467c-9.004-7.1134-37.144-22.855-56.054-20.6848" opacity=".2"/><path d="m222.198 44.4852c-7.991-6.7026-28.77-19.8351-47.95-18.7445" opacity=".2"/><path d="m222.198 54.6129c-8.667-7.2182-31.201-21.3609-52.002-20.1864" opacity=".2"/></g><path d="m227.534 34.864s.675-2.5319 1.958-1.8085c0 0-.81 41.0169.54 57.0041.338 3.9787 3.58 9.4043 4.863 11.4294h-1.688l-.473 1.664s-4.998-9.0423-5.2-12.587c-1.013-15.9148-.473-51.868 0-55.702z" fill="#54daf5"/></g></g></svg>