<svg width="27" height="36" viewBox="0 0 27 36" fill="none" xmlns="http://www.w3.org/2000/svg">
<path d="M27.0001 13.3125C26.9999 13.0211 26.9413 12.7326 26.8277 12.4642C26.7141 12.1958 26.5478 11.953 26.3386 11.75C26.6334 11.4643 26.8413 11.101 26.9384 10.7021C27.0355 10.3033 27.0177 9.88509 26.8872 9.49588C26.7567 9.10666 26.5187 8.76231 26.2008 8.50259C25.8829 8.24287 25.498 8.07838 25.0906 8.02812C25.1435 7.73942 25.1362 7.4429 25.0689 7.1572C25.0017 6.87149 24.8761 6.60279 24.7 6.36798C24.5239 6.13317 24.3011 5.93735 24.0456 5.79281C23.7902 5.64827 23.5076 5.55815 23.2156 5.52812C23.278 5.18695 23.2566 4.83575 23.1533 4.50466C23.0501 4.17357 22.868 3.87248 22.6228 3.62724C22.3775 3.382 22.0764 3.19993 21.7453 3.09667C21.4142 2.99341 21.063 2.97203 20.7219 3.03437C20.6763 2.66077 20.5345 2.30542 20.3102 2.00314C20.086 1.70086 19.7871 1.46202 19.4428 1.31004C19.0985 1.15805 18.7206 1.09812 18.3461 1.13613C17.9717 1.17415 17.6136 1.30879 17.3068 1.52687C17.1292 1.26033 16.895 1.03621 16.621 0.870455C16.3469 0.704697 16.0397 0.601378 15.7212 0.567848C15.4026 0.534318 15.0806 0.571401 14.778 0.67646C14.4755 0.781518 14.1998 0.951969 13.9706 1.17568C13.6902 0.866324 13.3266 0.644341 12.9234 0.536329C12.5201 0.428318 12.0943 0.438857 11.6968 0.566684C11.2994 0.694511 10.9472 0.934207 10.6826 1.25706C10.4179 1.5799 10.2519 1.97222 10.2044 2.387C10.0944 2.36717 9.98297 2.35591 9.87119 2.35331C9.29124 2.354 8.73524 2.5847 8.32516 2.99478C7.91507 3.40487 7.68438 3.96086 7.68369 4.54081C7.68369 4.55518 7.68762 4.5685 7.68787 4.58281L7.68337 4.58231C7.10343 4.58302 6.54744 4.81372 6.13736 5.2238C5.72728 5.63388 5.49658 6.18987 5.49587 6.76981C5.49893 6.99303 5.53663 7.21441 5.60762 7.42606C5.31318 7.50713 5.03914 7.64939 4.8034 7.84356C4.56767 8.03772 4.37553 8.27941 4.23953 8.55286C4.10353 8.82631 4.02673 9.12537 4.01415 9.43052C4.00157 9.73566 4.05348 10.04 4.1665 10.3237C4.21386 10.4395 4.271 10.5511 4.33731 10.6571C4.06361 10.8102 3.82657 11.0211 3.6427 11.2751C3.45884 11.5291 3.33257 11.8202 3.27269 12.128C3.21281 12.4358 3.22077 12.753 3.296 13.0575C3.37124 13.3619 3.51194 13.6463 3.70831 13.8907C3.25001 14.2276 2.94167 14.7304 2.8492 15.2917C2.75672 15.8529 2.88745 16.4281 3.21344 16.8942C3.21825 16.9011 3.22469 16.9062 3.22956 16.9129C2.8192 17.1885 2.51555 17.5962 2.36911 18.0683C2.22268 18.5404 2.24229 19.0484 2.42469 19.5078C2.07451 19.6302 1.76147 19.8402 1.51532 20.1177C1.26917 20.3953 1.0981 20.7312 1.01836 21.0935C0.93863 21.4557 0.952886 21.8324 1.05978 22.1876C1.16667 22.5429 1.36264 22.8649 1.62906 23.123C1.3744 23.37 1.18395 23.6755 1.07428 24.0128C0.964615 24.3502 0.939048 24.7093 0.999807 25.0588C1.06057 25.4083 1.20581 25.7377 1.42291 26.0183C1.64 26.2989 1.92236 26.5221 2.24544 26.6687C2.09513 26.9665 2.01585 27.295 2.01381 27.6286C2.01452 28.2086 2.24522 28.7646 2.6553 29.1746C3.06538 29.5847 3.62137 29.8154 4.20131 29.8161C4.52109 29.8147 4.83658 29.7424 5.12506 29.6044V34.875C5.12506 35.0408 5.19091 35.1997 5.30812 35.3169C5.42533 35.4342 5.5843 35.5 5.75006 35.5H8.25006C8.34893 35.5 8.44639 35.4766 8.53444 35.4316C8.62249 35.3867 8.69862 35.3215 8.75657 35.2414C8.81453 35.1613 8.85265 35.0686 8.86782 34.9709C8.88298 34.8732 8.87476 34.7733 8.84381 34.6794L7.04419 29.2231C7.13299 29.2377 7.22263 29.2467 7.31256 29.25C7.60401 29.2499 7.89246 29.1913 8.16085 29.0777C8.42924 28.964 8.67211 28.7977 8.87506 28.5886C9.16077 28.8833 9.52405 29.0912 9.92291 29.1883C10.3218 29.2854 10.74 29.2676 11.1292 29.1371C11.5184 29.0066 11.8627 28.7687 12.1225 28.4508C12.3822 28.1329 12.5467 27.748 12.5969 27.3406C12.9413 27.4043 13.2961 27.3802 13.6287 27.2706C13.9614 27.1611 14.261 26.9695 14.5001 26.7136C14.7858 27.0083 15.149 27.2162 15.5479 27.3133C15.9468 27.4104 16.365 27.3926 16.7542 27.2621C17.1434 27.1316 17.4877 26.8937 17.7475 26.5758C18.0072 26.2579 18.1717 25.873 18.2219 25.4656C18.5631 25.5279 18.9143 25.5065 19.2454 25.4033C19.5765 25.3 19.8776 25.1179 20.1228 24.8727C20.3681 24.6275 20.5501 24.3264 20.6534 23.9953C20.7567 23.6642 20.778 23.313 20.7157 22.9718C21.1931 22.9103 21.6366 22.6922 21.977 22.3519C22.3174 22.0115 22.5354 21.568 22.5969 21.0906C22.9381 21.1529 23.2893 21.1315 23.6204 21.0283C23.9515 20.925 24.2526 20.7429 24.4978 20.4977C24.7431 20.2525 24.9251 19.9514 25.0284 19.6203C25.1317 19.2892 25.153 18.938 25.0907 18.5968C25.4981 18.5465 25.883 18.382 26.2008 18.1223C26.5187 17.8626 26.7567 17.5182 26.8872 17.129C27.0177 16.7399 27.0354 16.3217 26.9383 15.9228C26.8413 15.524 26.6334 15.1607 26.3386 14.875C26.5478 14.672 26.7141 14.4292 26.8277 14.1608C26.9413 13.8924 26.9999 13.6039 27.0001 13.3125ZM25.7501 10.1875C25.7501 10.3729 25.6951 10.5542 25.5921 10.7083C25.489 10.8625 25.3426 10.9827 25.1713 11.0536C25 11.1246 24.8115 11.1432 24.6297 11.107C24.4478 11.0708 24.2808 10.9815 24.1496 10.8504C24.0185 10.7193 23.9292 10.5523 23.8931 10.3704C23.8569 10.1885 23.8755 10 23.9464 9.82873C24.0174 9.65743 24.1375 9.51101 24.2917 9.408C24.4459 9.30498 24.6271 9.25 24.8126 9.25C25.0611 9.25028 25.2994 9.34914 25.4752 9.52489C25.6509 9.70065 25.7498 9.93894 25.7501 10.1875ZM23.2865 14.875C23.0306 15.114 22.839 15.4137 22.7294 15.7463C22.6198 16.0789 22.5958 16.4338 22.6595 16.7781C22.1821 16.8397 21.7385 17.0577 21.3982 17.3981C21.0578 17.7384 20.8398 18.182 20.7782 18.6594C20.4371 18.597 20.0859 18.6184 19.7548 18.7217C19.4237 18.8249 19.1226 19.007 18.8774 19.2522C18.6321 19.4975 18.4501 19.7986 18.3468 20.1297C18.2435 20.4607 18.2222 20.812 18.2845 21.1531C17.8071 21.2147 17.3635 21.4327 17.0232 21.7731C16.6828 22.1134 16.4648 22.557 16.4032 23.0344C16.0589 22.9707 15.704 22.9947 15.3714 23.1043C15.0388 23.2139 14.7391 23.4055 14.5001 23.6614C14.2143 23.3667 13.8511 23.1587 13.4522 23.0617C13.0533 22.9646 12.6352 22.9823 12.2459 23.1129C11.8567 23.2434 11.5124 23.4813 11.2527 23.7992C10.9929 24.1171 10.8284 24.502 10.7782 24.9094C10.4338 24.8457 10.079 24.8698 9.74637 24.9793C9.41376 25.0889 9.11411 25.2805 8.87506 25.5364C8.64719 25.3016 8.36934 25.1211 8.06215 25.0084C7.75496 24.8956 7.42631 24.8536 7.10063 24.8853C6.77494 24.917 6.46058 25.0216 6.18089 25.1915C5.9012 25.3613 5.66337 25.592 5.48506 25.8664C5.36802 25.7806 5.24272 25.7067 5.111 25.6457C5.31897 25.2347 5.38947 24.7678 5.3121 24.3137C5.23474 23.8596 5.0136 23.4423 4.68125 23.1233C4.98999 22.8264 5.20327 22.4443 5.29387 22.0256C5.38447 21.607 5.34829 21.1709 5.18994 20.7729C5.50946 20.6619 5.7986 20.4777 6.03424 20.2351C6.26988 19.9924 6.4455 19.698 6.54706 19.3753C6.64862 19.0527 6.67331 18.7108 6.61914 18.3769C6.56498 18.043 6.43347 17.7264 6.23512 17.4524C6.24275 17.4472 6.25118 17.4437 6.25881 17.4385C6.73474 17.1068 7.05943 16.5996 7.16147 16.0285C7.26351 15.4574 7.13454 14.8691 6.80294 14.3931C6.77794 14.3576 6.74669 14.3295 6.71994 14.2957C7.16054 13.9756 7.46356 13.5004 7.56804 12.9658C7.67251 12.4313 7.57069 11.877 7.28306 11.4145C7.71886 11.1709 8.05636 10.7833 8.23775 10.3181C8.41913 9.85296 8.43309 9.3392 8.27725 8.86487C8.73461 8.73647 9.13764 8.46245 9.42524 8.08436C9.71284 7.70627 9.86934 7.24473 9.871 6.76968C9.871 6.75531 9.867 6.74206 9.86675 6.72775L9.87131 6.72819C10.4043 6.72649 10.9183 6.52984 11.3164 6.17532C11.7144 5.8208 11.969 5.33291 12.0322 4.80362C12.3654 4.86482 12.7086 4.8434 13.0317 4.74121C13.3547 4.63903 13.6478 4.45921 13.8852 4.2175C14.2409 4.61131 14.7289 4.86064 15.2564 4.91806C15.784 4.97547 16.3142 4.83696 16.7462 4.52887C16.9721 4.8816 17.2979 5.15906 17.6821 5.32587C18.0662 5.49267 18.4914 5.54126 18.9033 5.46544C18.9649 5.94284 19.1829 6.38639 19.5232 6.72675C19.8636 7.06712 20.3072 7.28513 20.7846 7.34669C20.7316 7.63538 20.739 7.93191 20.8063 8.21761C20.8735 8.50332 20.9991 8.77202 21.1752 9.00683C21.3513 9.24163 21.5741 9.43746 21.8295 9.582C22.085 9.72654 22.3676 9.81665 22.6596 9.84669C22.5958 10.1911 22.6198 10.5459 22.7294 10.8786C22.839 11.2112 23.0306 11.5109 23.2865 11.75C23.0772 11.9529 22.9109 12.1957 22.7972 12.4641C22.6836 12.7325 22.6251 13.021 22.6251 13.3125C22.6251 13.604 22.6836 13.8925 22.7972 14.1609C22.9109 14.4293 23.0772 14.6721 23.2865 14.875ZM5.4205 11.6087C5.60592 11.6087 5.78717 11.6637 5.94135 11.7667C6.09552 11.8697 6.21568 12.0161 6.28663 12.1874C6.35759 12.3587 6.37616 12.5472 6.33998 12.7291C6.30381 12.9109 6.21452 13.078 6.08341 13.2091C5.9523 13.3402 5.78525 13.4295 5.6034 13.4657C5.42154 13.5018 5.23304 13.4833 5.06173 13.4123C4.89043 13.3414 4.74401 13.2212 4.641 13.067C4.53798 12.9129 4.483 12.7316 4.483 12.5462C4.48328 12.2976 4.58214 12.0593 4.7579 11.8836C4.93365 11.7078 5.17194 11.609 5.4205 11.6087ZM4.08531 15.4786C4.12408 15.2625 4.23743 15.0668 4.40562 14.9257C4.57381 14.7846 4.78619 14.7069 5.00575 14.7062C5.06183 14.7062 5.1178 14.7112 5.173 14.7212C5.41772 14.7649 5.63506 14.904 5.77721 15.108C5.91937 15.3119 5.97471 15.564 5.93106 15.8087C5.9094 15.9299 5.86407 16.0456 5.79768 16.1493C5.73129 16.253 5.64512 16.3426 5.54411 16.4129C5.3401 16.5551 5.08798 16.6103 4.84322 16.5666C4.59845 16.5228 4.3811 16.3836 4.23896 16.1796C4.09683 15.9756 4.04156 15.7234 4.08531 15.4786ZM4.4595 17.7827C4.64492 17.7827 4.82617 17.8377 4.98035 17.9407C5.13452 18.0437 5.25468 18.1901 5.32564 18.3614C5.39659 18.5327 5.41516 18.7212 5.37898 18.9031C5.34281 19.0849 5.25352 19.252 5.12241 19.3831C4.9913 19.5142 4.82425 19.6035 4.6424 19.6397C4.46054 19.6758 4.27204 19.6573 4.10073 19.5863C3.92943 19.5154 3.78301 19.3952 3.68 19.241C3.57698 19.0869 3.522 18.9056 3.522 18.7202C3.52228 18.4716 3.62114 18.2333 3.7969 18.0576C3.97265 17.8818 4.21094 17.783 4.4595 17.7827ZM23.8751 7.6875C23.8751 7.87292 23.8201 8.05417 23.7171 8.20834C23.614 8.36252 23.4676 8.48268 23.2963 8.55363C23.125 8.62459 22.9365 8.64316 22.7547 8.60698C22.5728 8.57081 22.4058 8.48152 22.2746 8.35041C22.1435 8.2193 22.0542 8.05225 22.0181 7.87039C21.9819 7.68854 22.0005 7.50004 22.0714 7.32873C22.1424 7.15743 22.2625 7.01101 22.4167 6.90799C22.5709 6.80498 22.7521 6.75 22.9376 6.75C23.1861 6.75028 23.4244 6.84914 23.6002 7.0249C23.7759 7.20065 23.8748 7.43894 23.8751 7.6875ZM22.0001 5.1875C22.0001 5.37292 21.9451 5.55417 21.8421 5.70834C21.739 5.86252 21.5926 5.98268 21.4213 6.05363C21.25 6.12459 21.0615 6.14316 20.8797 6.10698C20.6978 6.07081 20.5308 5.98152 20.3996 5.85041C20.2685 5.7193 20.1792 5.55225 20.1431 5.37039C20.1069 5.18854 20.1255 5.00004 20.1964 4.82873C20.2674 4.65743 20.3875 4.51101 20.5417 4.40799C20.6959 4.30498 20.8771 4.25 21.0626 4.25C21.3111 4.25028 21.5494 4.34914 21.7252 4.5249C21.9009 4.70065 21.9998 4.93894 22.0001 5.1875ZM18.5626 2.375C18.748 2.375 18.9292 2.42998 19.0834 2.53299C19.2376 2.63601 19.3577 2.78243 19.4287 2.95373C19.4997 3.12504 19.5182 3.31354 19.482 3.49539C19.4459 3.67725 19.3566 3.8443 19.2255 3.97541C19.0944 4.10652 18.9273 4.19581 18.7455 4.23198C18.5636 4.26816 18.3751 4.24959 18.2038 4.17863C18.0325 4.10768 17.8861 3.98752 17.7831 3.83334C17.68 3.67917 17.6251 3.49792 17.6251 3.3125C17.6253 3.06394 17.7242 2.82565 17.9 2.6499C18.0757 2.47414 18.314 2.37528 18.5626 2.375ZM15.4904 1.80587C15.6758 1.80587 15.857 1.86086 16.0112 1.96387C16.1654 2.06688 16.2856 2.2133 16.3565 2.38461C16.4275 2.55591 16.446 2.74441 16.4099 2.92627C16.3737 3.10813 16.2844 3.27517 16.1533 3.40628C16.0222 3.5374 15.8551 3.62669 15.6733 3.66286C15.4914 3.69903 15.3029 3.68047 15.1316 3.60951C14.9603 3.53855 14.8139 3.41839 14.7109 3.26422C14.6079 3.11005 14.5529 2.92879 14.5529 2.74337C14.5531 2.49481 14.652 2.25651 14.8278 2.08075C15.0035 1.90499 15.2418 1.80614 15.4904 1.80587ZM12.3654 1.71212C12.5508 1.71212 12.732 1.76711 12.8862 1.87012C13.0404 1.97313 13.1606 2.11955 13.2315 2.29086C13.3025 2.46216 13.321 2.65066 13.2849 2.83252C13.2487 3.01438 13.1594 3.18142 13.0283 3.31253C12.8972 3.44365 12.7301 3.53293 12.5483 3.56911C12.3664 3.60528 12.1779 3.58672 12.0066 3.51576C11.8353 3.4448 11.6889 3.32464 11.5859 3.17047C11.4829 3.0163 11.4279 2.83504 11.4279 2.64962C11.4283 2.40113 11.5272 2.16294 11.7029 1.98726C11.8786 1.81159 12.1169 1.7124 12.3654 1.71212ZM9.87119 3.60331C10.0566 3.60331 10.2379 3.65829 10.392 3.76131C10.5462 3.86432 10.6664 4.01074 10.7373 4.18204C10.8083 4.35335 10.8268 4.54185 10.7907 4.72371C10.7545 4.90556 10.6652 5.07261 10.5341 5.20372C10.403 5.33483 10.2359 5.42412 10.0541 5.4603C9.87222 5.49647 9.68373 5.4779 9.51242 5.40695C9.34111 5.33599 9.1947 5.21583 9.09168 5.06166C8.98867 4.90749 8.93369 4.72623 8.93369 4.54081C8.93397 4.29226 9.03283 4.05396 9.20858 3.87821C9.38434 3.70245 9.62263 3.60359 9.87119 3.60331ZM7.68337 5.83231C7.86879 5.83231 8.05005 5.88729 8.20422 5.99031C8.35839 6.09332 8.47855 6.23974 8.54951 6.41104C8.62047 6.58235 8.63903 6.77085 8.60286 6.95271C8.56669 7.13456 8.4774 7.30161 8.34628 7.43272C8.21517 7.56383 8.04813 7.65312 7.86627 7.6893C7.68441 7.72547 7.49591 7.7069 7.32461 7.63595C7.1533 7.56499 7.00688 7.44483 6.90387 7.29066C6.80086 7.13649 6.74587 6.95523 6.74587 6.76981C6.74615 6.52126 6.84502 6.28296 7.02077 6.10721C7.19653 5.93145 7.43482 5.83259 7.68337 5.83231ZM5.34112 9.14743C5.42759 8.94878 5.58026 8.78625 5.77312 8.68752C5.96598 8.5888 6.1871 8.55998 6.39881 8.60599C6.61053 8.652 6.79975 8.76999 6.93424 8.93985C7.06873 9.10971 7.14017 9.32094 7.1364 9.53757C7.13263 9.7542 7.05387 9.96281 6.91354 10.1279C6.77322 10.293 6.58 10.4043 6.36681 10.4429C6.15362 10.4815 5.93364 10.445 5.74434 10.3396C5.55504 10.2342 5.40812 10.0665 5.32862 9.86493C5.28315 9.75046 5.26084 9.62809 5.26299 9.50493C5.26513 9.38177 5.29169 9.26026 5.34112 9.14743ZM2.21762 21.5608C2.21762 21.3754 2.27261 21.1941 2.37562 21.04C2.47863 20.8858 2.62505 20.7656 2.79636 20.6947C2.96766 20.6237 3.15616 20.6052 3.33802 20.6413C3.51988 20.6775 3.68692 20.7668 3.81804 20.8979C3.94915 21.029 4.03844 21.1961 4.07461 21.3779C4.11078 21.5598 4.09222 21.7483 4.02126 21.9196C3.9503 22.0909 3.83014 22.2373 3.67597 22.3403C3.5218 22.4433 3.34054 22.4983 3.15512 22.4983C2.90656 22.498 2.66826 22.3992 2.4925 22.2234C2.31675 22.0477 2.21789 21.8094 2.21762 21.5608ZM3.15512 23.7483C3.34054 23.7483 3.5218 23.8033 3.67597 23.9063C3.83014 24.0093 3.9503 24.1557 4.02126 24.327C4.09222 24.4984 4.11078 24.6869 4.07461 24.8687C4.03844 25.0506 3.94915 25.2176 3.81804 25.3487C3.68692 25.4798 3.51988 25.5691 3.33802 25.6053C3.15616 25.6415 2.96766 25.6229 2.79636 25.5519C2.62505 25.481 2.47863 25.3608 2.37562 25.2067C2.27261 25.0525 2.21762 24.8712 2.21762 24.6858C2.21789 24.4373 2.31675 24.1989 2.4925 24.0232C2.66826 23.8474 2.90656 23.7486 3.15512 23.7483ZM4.20131 28.5664C4.01589 28.5664 3.83463 28.5115 3.68046 28.4084C3.52629 28.3054 3.40613 28.159 3.33517 27.9877C3.26422 27.8164 3.24565 27.6279 3.28182 27.446C3.318 27.2642 3.40729 27.0971 3.5384 26.966C3.66951 26.8349 3.83656 26.7456 4.01841 26.7094C4.20027 26.6733 4.38877 26.6918 4.56008 26.7628C4.73138 26.8338 4.8778 26.9539 4.98081 27.1081C5.08383 27.2623 5.13881 27.4435 5.13881 27.6289C5.13855 27.8775 5.03969 28.1158 4.86393 28.2916C4.68817 28.4673 4.44987 28.5662 4.20131 28.5664ZM6.37506 34.25V31.1854L7.38581 34.25H6.37506ZM7.31256 28C7.12714 28 6.94588 27.945 6.79171 27.842C6.63754 27.739 6.51738 27.5926 6.44642 27.4213C6.37547 27.25 6.3569 27.0615 6.39307 26.8796C6.42925 26.6977 6.51854 26.5307 6.64965 26.3996C6.78076 26.2685 6.94781 26.1792 7.12966 26.143C7.31152 26.1068 7.50002 26.1254 7.67133 26.1964C7.84263 26.2673 7.98905 26.3875 8.09206 26.5417C8.19508 26.6958 8.25006 26.8771 8.25006 27.0625C8.24978 27.3111 8.15092 27.5493 7.97516 27.7251C7.79941 27.9009 7.56111 27.9997 7.31256 28ZM10.4376 28C10.2521 28 10.0709 27.945 9.91671 27.842C9.76254 27.739 9.64238 27.5926 9.57142 27.4213C9.50047 27.25 9.4819 27.0615 9.51807 26.8796C9.55425 26.6977 9.64354 26.5307 9.77465 26.3996C9.90576 26.2685 10.0728 26.1792 10.2547 26.143C10.4365 26.1068 10.625 26.1254 10.7963 26.1964C10.9676 26.2673 11.114 26.3875 11.2171 26.5417C11.3201 26.6958 11.3751 26.8771 11.3751 27.0625C11.3748 27.3111 11.2759 27.5493 11.1002 27.7251C10.9244 27.9009 10.6861 27.9997 10.4376 28ZM12.9376 26.125C12.7521 26.125 12.5709 26.07 12.4167 25.967C12.2625 25.864 12.1424 25.7176 12.0714 25.5463C12.0005 25.375 11.9819 25.1865 12.0181 25.0046C12.0542 24.8227 12.1435 24.6557 12.2746 24.5246C12.4058 24.3935 12.5728 24.3042 12.7547 24.268C12.9365 24.2318 13.125 24.2504 13.2963 24.3214C13.4676 24.3923 13.614 24.5125 13.7171 24.6667C13.8201 24.8208 13.8751 25.0021 13.8751 25.1875C13.8748 25.4361 13.7759 25.6743 13.6002 25.8501C13.4244 26.0259 13.1861 26.1247 12.9376 26.125ZM16.0626 26.125C15.8771 26.125 15.6959 26.07 15.5417 25.967C15.3875 25.864 15.2674 25.7176 15.1964 25.5463C15.1255 25.375 15.1069 25.1865 15.1431 25.0046C15.1792 24.8227 15.2685 24.6557 15.3996 24.5246C15.5308 24.3935 15.6978 24.3042 15.8797 24.268C16.0615 24.2318 16.25 24.2504 16.4213 24.3214C16.5926 24.3923 16.739 24.5125 16.8421 24.6667C16.9451 24.8208 17.0001 25.0021 17.0001 25.1875C16.9998 25.4361 16.9009 25.6743 16.7252 25.8501C16.5494 26.0259 16.3111 26.1247 16.0626 26.125ZM18.5626 24.25C18.3771 24.25 18.1959 24.195 18.0417 24.092C17.8875 23.989 17.7674 23.8426 17.6964 23.6713C17.6255 23.5 17.6069 23.3115 17.6431 23.1296C17.6792 22.9477 17.7685 22.7807 17.8996 22.6496C18.0308 22.5185 18.1978 22.4292 18.3797 22.393C18.5615 22.3568 18.75 22.3754 18.9213 22.4464C19.0926 22.5173 19.239 22.6375 19.3421 22.7917C19.4451 22.9458 19.5001 23.1271 19.5001 23.3125C19.4998 23.5611 19.4009 23.7993 19.2252 23.9751C19.0494 24.1509 18.8111 24.2497 18.5626 24.25ZM20.4376 21.75C20.2521 21.75 20.0709 21.695 19.9167 21.592C19.7625 21.489 19.6424 21.3426 19.5714 21.1713C19.5005 21 19.4819 20.8115 19.5181 20.6296C19.5542 20.4477 19.6435 20.2807 19.7746 20.1496C19.9058 20.0185 20.0728 19.9292 20.2547 19.893C20.4365 19.8568 20.625 19.8754 20.7963 19.9464C20.9676 20.0173 21.114 20.1375 21.2171 20.2917C21.3201 20.4458 21.3751 20.6271 21.3751 20.8125C21.3748 21.0611 21.2759 21.2993 21.1002 21.4751C20.9244 21.6509 20.6861 21.7497 20.4376 21.75ZM22.9376 19.875C22.7521 19.875 22.5709 19.82 22.4167 19.717C22.2625 19.614 22.1424 19.4676 22.0714 19.2963C22.0005 19.125 21.9819 18.9365 22.0181 18.7546C22.0542 18.5727 22.1435 18.4057 22.2746 18.2746C22.4058 18.1435 22.5728 18.0542 22.7547 18.018C22.9365 17.9818 23.125 18.0004 23.2963 18.0714C23.4676 18.1423 23.614 18.2625 23.7171 18.4167C23.8201 18.5708 23.8751 18.7521 23.8751 18.9375C23.8748 19.1861 23.7759 19.4243 23.6002 19.6001C23.4244 19.7759 23.1861 19.8747 22.9376 19.875ZM25.7501 16.4375C25.7501 16.6229 25.6951 16.8042 25.5921 16.9583C25.489 17.1125 25.3426 17.2327 25.1713 17.3036C25 17.3746 24.8115 17.3932 24.6297 17.357C24.4478 17.3208 24.2808 17.2315 24.1496 17.1004C24.0185 16.9693 23.9292 16.8023 23.8931 16.6204C23.8569 16.4385 23.8755 16.25 23.9464 16.0787C24.0174 15.9074 24.1375 15.761 24.2917 15.658C24.4459 15.555 24.6271 15.5 24.8126 15.5C25.0611 15.5003 25.2994 15.5991 25.4752 15.7749C25.6509 15.9506 25.7498 16.1889 25.7501 16.4375ZM23.8751 13.3125C23.8751 13.1271 23.93 12.9458 24.0331 12.7917C24.1361 12.6375 24.2825 12.5173 24.4538 12.4464C24.6251 12.3754 24.8136 12.3568 24.9955 12.393C25.1773 12.4292 25.3444 12.5185 25.4755 12.6496C25.6066 12.7807 25.6959 12.9477 25.732 13.1296C25.7682 13.3115 25.7497 13.5 25.6787 13.6713C25.6077 13.8426 25.4876 13.989 25.3334 14.092C25.1792 14.195 24.998 14.25 24.8126 14.25C24.564 14.2497 24.3257 14.1509 24.15 13.9751C23.9742 13.7993 23.8753 13.5611 23.8751 13.3125Z" fill="#365C5E"/>
</svg>
