<svg xmlns="http://www.w3.org/2000/svg" version="1.1" xmlns:xlink="http://www.w3.org/1999/xlink" width="512" height="512" x="0" y="0" viewBox="0 0 64 64" style="enable-background:new 0 0 512 512" xml:space="preserve"><g><path fill="#0E5952" d="M58 16.482h-2v-1c0-2.21-1.79-4-4-4h-7.08c-.893-5.287-6.948-5.284-7.84 0h-4.16c-.893-5.287-6.948-5.284-7.84 0h-4.16c-.893-5.287-6.948-5.284-7.84 0H6c-2.21 0-4 1.79-4 4v32c0 2.21 1.79 4 4 4h2v1c0 2.21 1.79 4 4 4h46c2.21 0 4-1.79 4-4v-32c0-2.21-1.79-4-4-4zm-17-7c.85 0 1.59.85 1.873 2h-3.746c.283-1.15 1.022-2 1.873-2zm-12 0c.85 0 1.59.85 1.873 2h-3.746c.283-1.15 1.022-2 1.873-2zm-12 0c.85 0 1.59.85 1.873 2h-3.746c.283-1.15 1.022-2 1.873-2zm37 38c0 1.1-.9 2-2 2H6c-1.1 0-2-.9-2-2v-32c0-1.1.9-2 2-2h7.08c.373 2.28 1.988 4 3.92 4 1.314-.022 1.315-1.978 0-2-.85 0-1.59-.85-1.873-2h9.954c.372 2.28 1.987 4 3.919 4 1.314-.022 1.315-1.978 0-2-.85 0-1.59-.85-1.873-2h9.954c.372 2.28 1.987 4 3.919 4 1.314-.022 1.315-1.978 0-2-.85 0-1.59-.85-1.873-2H52c1.1 0 2 .9 2 2z" opacity="1" data-original="#0e5952"></path><g fill="#F2BE22"><path d="m33 33.345 3.4 1.155-.1-3.447 2.2-2.733-3.46-.975L33 24.5l-2.04 2.845-3.46.975 2.2 2.733-.1 3.447z" fill="#F2BE22" opacity="1" data-original="#f2be22"></path><path d="M32 40.5a9 9 0 0 1-9-9c0-1.682.47-3.251 1.273-4.598C21.125 28.715 19 32.106 19 36c0 5.799 4.701 10.5 10.5 10.5S40 41.799 40 36c0-.119-.014-.234-.018-.352A8.994 8.994 0 0 1 32 40.5z" fill="#F2BE22" opacity="1" data-original="#f2be22"></path><rect width="6" height="6" x="8" y="25.5" rx="1" fill="#F2BE22" opacity="1" data-original="#f2be22"></rect><rect width="6" height="6" x="8" y="36.5" rx="1" fill="#F2BE22" opacity="1" data-original="#f2be22"></rect><rect width="6" height="6" x="44" y="25.5" rx="1" fill="#F2BE22" opacity="1" data-original="#f2be22"></rect><rect width="6" height="6" x="44" y="36.5" rx="1" fill="#F2BE22" opacity="1" data-original="#f2be22"></rect></g><path fill="#0E5952" d="M13 21.482h32c1.304-.019 1.323-1.977 0-2H13c-1.304.019-1.323 1.977 0 2z" opacity="1" data-original="#0e5952"></path></g></svg>