<svg width="24" height="24" viewBox="0 0 24 24" fill="none" xmlns="http://www.w3.org/2000/svg">
<g clip-path="url(#clip0_177_1253)">
<path d="M20.4853 3.51473C18.2188 1.24823 15.2053 0 12 0C8.79469 0 5.78123 1.24823 3.51469 3.51473C1.24823 5.78123 0 8.79469 0 12H1.40625V18.4688H2.8125V21.4219C2.8125 22.8435 3.96905 24 5.39062 24C6.8122 24 7.96875 22.8435 7.96875 21.4219V15.5156C7.96875 14.094 6.8122 12.9375 5.39062 12.9375C3.96905 12.9375 2.8125 14.094 2.8125 15.5156V12H4.21875C4.21875 7.70939 7.70939 4.21875 12 4.21875C16.2906 4.21875 19.7812 7.70939 19.7812 12H21.1875V15.5156C21.1875 14.094 20.031 12.9375 18.6094 12.9375C17.1878 12.9375 16.0312 14.094 16.0312 15.5156V21.4219C16.0312 22.8435 17.1878 24 18.6094 24C20.031 24 21.1875 22.8435 21.1875 21.4219V18.4688H22.5938V12H24C24 8.79469 22.7518 5.78123 20.4853 3.51473ZM4.21875 15.5156C4.21875 14.8695 4.74445 14.3438 5.39062 14.3438C6.0368 14.3438 6.5625 14.8695 6.5625 15.5156V21.4219C6.5625 22.068 6.0368 22.5938 5.39062 22.5938C4.74445 22.5938 4.21875 22.068 4.21875 21.4219V15.5156ZM19.7812 21.4219C19.7812 22.068 19.2555 22.5938 18.6094 22.5938C17.9632 22.5938 17.4375 22.068 17.4375 21.4219V15.5156C17.4375 14.8695 17.9632 14.3438 18.6094 14.3438C19.2555 14.3438 19.7812 14.8695 19.7812 15.5156V21.4219ZM21.08 10.5938C20.4011 6.19289 16.5879 2.8125 12 2.8125C7.41206 2.8125 3.59888 6.19289 2.92003 10.5938H1.49977C2.18977 5.41472 6.6353 1.40625 12 1.40625C17.3647 1.40625 21.8102 5.41472 22.5002 10.5938H21.08Z" fill="#D7A664"/>
</g>
<defs>
<clipPath id="clip0_177_1253">
<rect width="24" height="24" fill="white"/>
</clipPath>
</defs>
</svg>
