<svg width="59" height="58" viewBox="0 0 59 58" fill="none" xmlns="http://www.w3.org/2000/svg">
<path fill-rule="evenodd" clip-rule="evenodd" d="M26.6629 9.29152C29.3009 8.35787 32.1332 7.85046 35.0809 7.85046C49.2763 7.85046 60.8011 19.6168 60.8011 34.1095C60.8011 48.6023 49.2763 60.3685 35.0809 60.3685C20.8854 60.3685 9.36065 48.6023 9.36065 34.1095C9.36065 31.6812 9.68418 29.3295 10.2896 27.0968L26.6629 9.29152Z" fill="url(#paint0_linear_445_1433)"/>
<path fill-rule="evenodd" clip-rule="evenodd" d="M13.891 0.36853C6.66636 0.36853 0.801071 6.35687 0.801071 13.7327C0.801071 21.1087 6.66636 27.0969 13.891 27.0969C15.9008 27.0969 17.8054 26.6335 19.5079 25.8057C20.6608 25.2451 24.2328 27.3497 28.6712 25.941C29.5241 25.6702 24.555 21.6083 25.2456 20.3826C26.3495 18.4239 26.981 16.1529 26.981 13.7327C26.981 6.35687 21.1155 0.36853 13.891 0.36853Z" fill="url(#paint1_linear_445_1433)"/>
<path fill-rule="evenodd" clip-rule="evenodd" d="M9.14057 17.1398C9.14057 17.1398 7.30392 16.1282 7.28527 13.3545C7.25219 8.44668 12.2204 7.06982 13.7503 4.73805C13.768 4.70716 13.7933 4.68154 13.8237 4.66374C13.8541 4.64593 13.8885 4.63658 13.9235 4.6366C13.9586 4.63662 13.993 4.64601 14.0234 4.66384C14.0538 4.68168 14.079 4.70733 14.0967 4.73824C15.6271 7.06982 20.5953 8.44668 20.5624 13.3545C20.5438 16.1282 18.7069 17.1398 18.7069 17.1398H9.14057Z" fill="url(#paint2_linear_445_1433)"/>
<path fill-rule="evenodd" clip-rule="evenodd" d="M8.74648 16.823V26.0236C10.3265 26.7144 12.0654 27.0968 13.891 27.0968C15.7423 27.0968 17.5042 26.7036 19.101 25.9947V16.823C17.9261 16.5272 16.1132 16.1926 13.9238 16.1926C11.7343 16.1926 9.92144 16.5272 8.74648 16.823Z" fill="url(#paint3_linear_445_1433)"/>
<path fill-rule="evenodd" clip-rule="evenodd" d="M34.3192 52.8058V56.4693C34.3192 56.8985 34.6604 57.2469 35.0809 57.2469C35.5013 57.2469 35.8425 56.8985 35.8425 56.4693V52.8058C35.8425 52.3766 35.5013 52.0282 35.0809 52.0282C34.6604 52.0282 34.3192 52.3766 34.3192 52.8058ZM24.2496 51.7079L23.4709 53.0848C23.37 53.2634 23.3426 53.4756 23.3949 53.6748C23.4472 53.874 23.5748 54.0438 23.7497 54.147C23.9246 54.2501 24.1325 54.278 24.3276 54.2246C24.5227 54.1712 24.6891 54.041 24.7901 53.8624L25.5688 52.4854C25.6696 52.3068 25.6969 52.0946 25.6446 51.8955C25.5924 51.6963 25.4648 51.5265 25.29 51.4233C25.1151 51.3203 24.9072 51.2924 24.7121 51.3457C24.517 51.3991 24.3506 51.5294 24.2496 51.7079ZM46.6908 53.0848L45.9121 51.7079C45.8111 51.5294 45.6447 51.3991 45.4496 51.3457C45.2545 51.2924 45.0466 51.3203 44.8717 51.4233C44.6968 51.5265 44.5693 51.6963 44.517 51.8954C44.4647 52.0946 44.492 52.3068 44.5929 52.4854L45.3716 53.8624C45.4727 54.041 45.639 54.1712 45.8341 54.2246C46.0292 54.278 46.2371 54.2501 46.412 54.147C46.5869 54.0438 46.7145 53.874 46.7668 53.6748C46.8191 53.4756 46.7917 53.2634 46.6908 53.0848ZM17.0821 43.8211L15.7333 44.6161C15.5585 44.7193 15.4309 44.8891 15.3787 45.0882C15.3264 45.2874 15.3537 45.4996 15.4546 45.6782C15.5557 45.8567 15.722 45.9869 15.9171 46.0403C16.1122 46.0937 16.32 46.0659 16.495 45.9629L17.8438 45.1679C18.0186 45.0647 18.1462 44.8949 18.1984 44.6957C18.2507 44.4966 18.2234 44.2844 18.1226 44.1057C18.0215 43.9272 17.8552 43.7969 17.6601 43.7435C17.465 43.6902 17.2571 43.7181 17.0821 43.8211ZM54.4284 44.6161L53.0796 43.8211C52.9046 43.7181 52.6968 43.6902 52.5017 43.7435C52.3066 43.7969 52.1402 43.9272 52.0391 44.1057C51.9383 44.2844 51.911 44.4966 51.9633 44.6957C52.0155 44.8949 52.1431 45.0647 52.3179 45.1679L53.6667 45.9629C53.8417 46.0659 54.0495 46.0937 54.2446 46.0403C54.4397 45.9869 54.606 45.8567 54.7071 45.6782C54.808 45.4996 54.8353 45.2874 54.783 45.0882C54.7308 44.8891 54.6032 44.7193 54.4284 44.6161ZM37.5781 35.0304L43.256 35.0713C43.4562 35.0699 43.6478 34.9881 43.7894 34.8436C43.931 34.6991 44.0112 34.5035 44.0126 34.2991C44.014 34.0948 43.9365 33.898 43.797 33.7515C43.6574 33.605 43.467 33.5204 43.2668 33.5162L37.5889 33.4753C37.3869 33.474 37.1927 33.5545 37.0489 33.6993C36.9051 33.844 36.8234 34.0412 36.8219 34.2473C36.8205 34.4535 36.8994 34.6518 37.0412 34.7987C37.183 34.9455 37.3761 35.0289 37.5781 35.0304ZM13.18 34.8872H16.7685C16.9704 34.8871 17.1641 34.8051 17.3068 34.6593C17.4496 34.5135 17.5299 34.3158 17.53 34.1096C17.5299 33.9035 17.4496 33.7058 17.3068 33.56C17.164 33.4142 16.9704 33.3323 16.7685 33.3322H13.18C12.9781 33.3323 12.7844 33.4142 12.6416 33.56C12.4989 33.7058 12.4186 33.9035 12.4185 34.1096C12.4185 34.5388 12.7598 34.8872 13.18 34.8872ZM53.3932 34.8872H56.9817C57.1837 34.8871 57.3773 34.8051 57.5201 34.6593C57.6629 34.5135 57.7431 34.3158 57.7432 34.1096C57.7431 33.9035 57.6629 33.7058 57.5201 33.56C57.3773 33.4142 57.1837 33.3323 56.9817 33.3322H53.3932C53.1913 33.3323 52.9977 33.4142 52.8549 33.56C52.7121 33.7058 52.6318 33.9035 52.6317 34.1096C52.6317 34.5388 52.973 34.8872 53.3932 34.8872ZM35.8425 31.7588V19.5838C35.8425 19.1547 35.5013 18.8063 35.0809 18.8063C34.6604 18.8063 34.3192 19.1547 34.3192 19.5838V31.7588C34.3192 32.1878 34.6604 32.5363 35.0809 32.5363C35.5013 32.5363 35.8425 32.1878 35.8425 31.7588ZM53.6667 22.2565L52.3179 23.0515C52.1431 23.1547 52.0155 23.3245 51.9633 23.5237C51.911 23.7229 51.9383 23.9351 52.0391 24.1137C52.1403 24.2922 52.3066 24.4224 52.5017 24.4757C52.6968 24.5291 52.9046 24.5012 53.0796 24.3983L54.4284 23.6033C54.6032 23.5001 54.7307 23.3302 54.783 23.1311C54.8352 22.9319 54.808 22.7197 54.7071 22.5411C54.606 22.3626 54.4396 22.2324 54.2446 22.179C54.0495 22.1257 53.8417 22.1535 53.6667 22.2565ZM45.3716 14.357L44.5929 15.7339C44.4921 15.9125 44.4648 16.1247 44.5171 16.3239C44.5693 16.523 44.6969 16.6929 44.8717 16.7961C45.0466 16.8991 45.2545 16.9271 45.4496 16.8737C45.6447 16.8203 45.8111 16.6901 45.9121 16.5115L46.6908 15.1345C46.7883 14.9561 46.8131 14.7457 46.7599 14.5488C46.7067 14.3519 46.5797 14.1842 46.4064 14.0821C46.2331 13.98 46.0274 13.9516 45.8338 14.003C45.6402 14.0545 45.4742 14.1816 45.3716 14.357ZM34.3192 11.7502V15.4136C34.3192 15.8429 34.6604 16.1913 35.0809 16.1913C35.5013 16.1913 35.8425 15.8429 35.8425 15.4136V11.7502C35.8425 11.3209 35.5013 10.9725 35.0809 10.9725C34.6604 10.9725 34.3192 11.3209 34.3192 11.7502Z" fill="url(#paint4_linear_445_1433)"/>
<path d="M35.0809 36.8586C36.568 36.8586 37.7735 35.6278 37.7735 34.1095C37.7735 32.5913 36.568 31.3605 35.0809 31.3605C33.5938 31.3605 32.3882 32.5913 32.3882 34.1095C32.3882 35.6278 33.5938 36.8586 35.0809 36.8586Z" fill="url(#paint5_linear_445_1433)"/>
<path fill-rule="evenodd" clip-rule="evenodd" d="M7.56056 17.9926C7.56056 17.9926 10.1627 16.9701 13.9238 16.9701C17.6848 16.9701 20.2871 17.9926 20.2871 17.9926C20.679 18.1477 21.1205 17.9489 21.2725 17.5488C21.4246 17.1487 21.2298 16.6978 20.8379 16.5426C20.8379 16.5426 18.0118 15.415 13.9238 15.415C9.83572 15.415 7.00964 16.5426 7.00964 16.5426C6.61774 16.6978 6.42289 17.1487 6.57497 17.5488C6.72705 17.9489 7.16866 18.1477 7.56056 17.9926Z" fill="url(#paint6_linear_445_1433)"/>
<defs>
<linearGradient id="paint0_linear_445_1433" x1="50.0457" y1="10.6319" x2="23.5474" y2="58.1729" gradientUnits="userSpaceOnUse">
<stop stop-color="#D5EDEC"/>
<stop offset="1" stop-color="#0E6D5E" stop-opacity="0.39"/>
</linearGradient>
<linearGradient id="paint1_linear_445_1433" x1="20.0546" y1="2.53148" x2="4.45457" y2="23.1209" gradientUnits="userSpaceOnUse">
<stop stop-color="#E9F8F0"/>
<stop offset="1" stop-color="#CCE7E7"/>
</linearGradient>
<linearGradient id="paint2_linear_445_1433" x1="17.594" y1="6.87141" x2="7.09874" y2="17.4133" gradientUnits="userSpaceOnUse">
<stop stop-color="#B0F596"/>
<stop offset="1" stop-color="#1EAC61"/>
</linearGradient>
<linearGradient id="paint3_linear_445_1433" x1="20.7044" y1="19.1219" x2="7.50265" y2="19.5188" gradientUnits="userSpaceOnUse">
<stop stop-color="#064329"/>
<stop offset="1" stop-color="#365C5E"/>
</linearGradient>
<linearGradient id="paint4_linear_445_1433" x1="12.4185" y1="34.1096" x2="57.7434" y2="34.1096" gradientUnits="userSpaceOnUse">
<stop stop-color="#064329"/>
<stop offset="1" stop-color="#365C5E"/>
</linearGradient>
<linearGradient id="paint5_linear_445_1433" x1="36.4052" y1="31.2408" x2="33.6593" y2="35.8573" gradientUnits="userSpaceOnUse">
<stop stop-color="#B0F596"/>
<stop offset="1" stop-color="#1EAC61"/>
</linearGradient>
<linearGradient id="paint6_linear_445_1433" x1="20.7044" y1="19.122" x2="7.50265" y2="19.5189" gradientUnits="userSpaceOnUse">
<stop stop-color="#004B40"/>
<stop offset="1" stop-color="#365C5E"/>
</linearGradient>
</defs>
</svg>
