<svg width="69" height="39" viewBox="0 0 69 39" fill="none" xmlns="http://www.w3.org/2000/svg">
<path d="M57.8351 2.11682L34.5118 10.0884L11.1649 2.11682L0 18.3438L34.5118 30.1473L69 18.3438L57.8351 2.11682Z" fill="#006754"/>
<path opacity="0.45" d="M4.06856 17.6814L32.6904 28.6334L22.8502 18.8877C22.8502 18.8877 6.6942 14.9848 4.06856 17.6814Z" fill="#004B40"/>
<path opacity="0.45" d="M64.9551 17.6814L36.3332 28.6334L46.1735 18.8877C46.1498 18.8877 62.3058 14.9848 64.9551 17.6814Z" fill="#004B40"/>
<path d="M34.5118 30.1473L0 18.3438L0 19.8813L34.5118 31.6849L69 19.8813V18.3438L34.5118 30.1473Z" fill="#A85000"/>
<path d="M16.1323 37.2437L20.1299 26.7648L32.998 31.1645L16.1323 37.2437Z" fill="#773A08"/>
<path opacity="0.45" d="M17.2441 34.2159L32.9979 31.1645L20.1299 26.7648L17.2441 34.2159Z" fill="#773A08"/>
<path d="M34.5119 30.6205L16.1324 37.2437L17.5043 38.6866L34.5119 32.6311L51.4957 38.6866L52.8914 37.2437L34.5119 30.6205Z" fill="#BDF8D4"/>
<path d="M52.8913 37.2437L48.8701 26.7648L36.002 31.1645L52.8913 37.2437Z" fill="#773A08"/>
<path opacity="0.45" d="M51.7559 34.2159L36.002 31.1645L48.8701 26.7648L51.7559 34.2159Z" fill="#773A08"/>
<path d="M34.5118 32.631C35.2042 32.631 35.7655 32.0697 35.7655 31.3773C35.7655 30.6849 35.2042 30.1237 34.5118 30.1237C33.8194 30.1237 33.2581 30.6849 33.2581 31.3773C33.2581 32.0697 33.8194 32.631 34.5118 32.631Z" fill="white" fill-opacity="0.5"/>
<path d="M56.8417 2.11682L34.5119 13.2344L12.1821 2.11682C11.1649 3.46512 2.98048 17.1137 2.98048 17.1137C3.0751 17.1137 3.14607 17.1374 3.24068 17.1374C23.7727 19.1953 29.4735 25.653 31.3658 27.2142C33.2582 28.799 34.5355 28.6334 34.5355 28.6334C34.5355 28.6334 35.8129 28.799 37.7052 27.2142C39.5976 25.653 45.2983 19.1953 65.8303 17.1374C65.925 17.1374 65.9959 17.1137 66.0905 17.1137C66.0432 17.1137 57.8351 3.48878 56.8417 2.11682Z" fill="#F5B304"/>
<path d="M66.0432 17.1138C65.9486 17.1138 65.8777 17.1374 65.783 17.1374C45.251 19.1954 39.5503 25.653 37.6579 27.2142C35.7656 28.7991 34.4882 28.6335 34.4882 28.6335C34.4882 28.6335 33.2109 28.7991 31.3185 27.2142C29.4262 25.653 23.7255 19.1954 3.19339 17.1374C3.09878 17.1374 3.02781 17.1138 2.9332 17.1138C2.76761 17.374 2.9332 17.5632 2.9332 17.5632C23.6781 19.5738 29.1896 26.0551 31.082 27.64C32.9743 29.2012 34.4646 29.0829 34.4646 29.0829C34.4646 29.0829 35.9548 29.2012 37.8471 27.64C39.7395 26.0788 45.251 19.5975 65.9959 17.5632C66.0433 17.5632 66.2088 17.374 66.0432 17.1138Z" fill="#87D1A4"/>
<path d="M55.9901 0.815844C44.565 -1.92807 34.4882 7.46274 34.4882 7.46274C34.4882 7.46274 24.4114 -1.92807 12.9863 0.815844C12.9863 0.815844 9.74567 5.78327 5.27498 14.2279C5.27498 14.2279 27.7703 16.7589 34.4882 26.1971C41.2061 16.7589 63.7014 14.2279 63.7014 14.2279C59.2308 5.78327 55.9901 0.815844 55.9901 0.815844Z" fill="#FBF9EF"/>
<path d="M63.7015 14.2279C63.7015 14.2279 41.2061 16.7589 34.4882 26.1971C27.794 16.7589 5.29864 14.2279 5.29864 14.2279C5.29864 14.2279 5.29864 14.9848 4.04495 16.4751C4.04495 16.4751 24.4587 17.9417 31.8862 26.4099C33.6367 28.3969 34.4882 28.1604 34.4882 28.1604C34.4882 28.1604 35.3634 28.3969 37.0902 26.4099C44.494 17.9417 64.9315 16.4751 64.9315 16.4751C63.7015 14.9612 63.7015 14.2279 63.7015 14.2279Z" fill="#BDF8D4"/>
<path d="M54.7127 1.80938C54.7127 1.80938 46.1735 -0.366833 34.4882 8.69282C22.8265 -0.343179 14.2636 1.80938 14.2636 1.80938L8.49193 13.0216C26.0435 14.228 34.4882 23.0984 34.4882 23.0984C34.4882 23.0984 42.9328 14.228 60.4844 13.0216L54.7127 1.80938ZM34.5118 22.0339C34.5118 22.0339 26.6112 13.9441 9.86389 12.3593L14.713 2.28247C14.713 2.28247 23.1104 0.65031 34.5118 9.21322C45.9133 0.65031 54.3106 2.28247 54.3106 2.28247L59.1597 12.3593C42.4124 13.9441 34.5118 22.0339 34.5118 22.0339Z" fill="#006754"/>
<path opacity="0.2" d="M36.6643 17.1358C39.8183 14.8098 49.6743 9.66247 56.2975 10.3721" stroke="#BDF8D4" stroke-width="2.09308" stroke-linecap="round"/>
<path opacity="0.2" d="M36.6644 10.6088C39.4635 8.4171 46.7412 4.12291 53.459 4.47952" stroke="#BDF8D4" stroke-width="2.09308" stroke-linecap="round"/>
<path opacity="0.2" d="M36.6643 13.9204C39.7 11.5601 47.5927 6.93559 54.8783 7.31963" stroke="#BDF8D4" stroke-width="2.09308" stroke-linecap="round"/>
<path opacity="0.2" d="M32.6431 17.1358C29.4892 14.8098 19.6332 9.66247 13.0099 10.3721" stroke="#BDF8D4" stroke-width="2.09308" stroke-linecap="round"/>
<path opacity="0.2" d="M32.6432 10.6088C29.844 8.4171 22.5664 4.12291 15.8485 4.47952" stroke="#BDF8D4" stroke-width="2.09308" stroke-linecap="round"/>
<path opacity="0.2" d="M32.6431 13.9204C29.6075 11.5601 21.7148 6.93559 14.4292 7.31963" stroke="#BDF8D4" stroke-width="2.09308" stroke-linecap="round"/>
<path d="M34.5118 7.46272C34.5118 7.46272 34.7484 6.63482 35.1978 6.87136C35.1978 6.87136 34.914 20.2834 35.387 25.5111C35.5053 26.8121 36.6407 28.5861 37.0902 29.2485H36.4988L36.3332 29.7925C36.3332 29.7925 34.5828 26.8357 34.5118 25.6766C34.157 20.4727 34.3463 8.71641 34.5118 7.46272Z" fill="#BC8F7B"/>
</svg>
