<svg width="61" height="61" viewBox="0 0 61 61" fill="none" xmlns="http://www.w3.org/2000/svg">
<g clip-path="url(#clip0_452_1920)">
<path d="M49.6954 58.0742L46.4608 59.4102L30.6758 20.8146H30.3242L14.5392 59.4102L11.3046 58.0742L27.9689 17.299H33.0311L49.6954 58.0742Z" fill="#5A5A5A"/>
<path d="M24.6289 28.625H36.3711V32.1406H24.6289V28.625ZM46.2499 50.1055L44.035 52.8477L30.5 42.0195L16.965 52.8477L14.7501 50.1055L27.6875 39.7694L22.0624 35.2695L24.2772 32.5273L30.5 37.5196L36.7228 32.5273L38.9376 35.2695L33.3125 39.7694L46.2499 50.1055Z" fill="#5A5A5A"/>
<path d="M30.5 28.625H36.3711V32.1406H30.5V28.625ZM44.035 52.8477L30.5 42.0195V37.5196L36.7228 32.5273L38.9376 35.2695L33.3125 39.7694L46.2499 50.1055L44.035 52.8477Z" fill="#444444"/>
<path d="M10.4894 32.9766C6.3902 28.1993 4.13281 22.107 4.13281 15.8225C4.13281 10.2916 5.83402 4.99238 9.05094 0.5L11.9108 2.54621C9.12125 6.43953 7.64844 11.0298 7.64844 15.8225C7.64844 21.2676 9.60535 26.5478 13.1571 30.6867L10.4894 32.9766Z" fill="#D7A664"/>
<path d="M50.5106 32.9766L47.8429 30.6867C51.3946 26.5478 53.3516 21.2676 53.3516 15.8225C53.3516 11.0298 51.8787 6.43953 49.0892 2.54621L51.9491 0.5C55.166 4.99238 56.8672 10.2916 56.8672 15.8225C56.8672 22.107 54.6098 28.1993 50.5106 32.9766Z" fill="#D7A664"/>
<path d="M15.8264 28.4018C12.8206 24.8981 11.1641 20.4315 11.1641 15.8224C11.1641 11.7661 12.412 7.87971 14.7724 4.58545L17.6288 6.63166C15.6993 9.32674 14.6797 12.5043 14.6797 15.8224C14.6797 19.5921 16.0341 23.2467 18.494 26.1119L15.8264 28.4018Z" fill="#D7A664"/>
<path d="M45.1736 28.4018L42.506 26.1119C44.9659 23.2467 46.3203 19.5921 46.3203 15.8224C46.3203 12.5043 45.3007 9.32674 43.3712 6.63166L46.2276 4.58545C48.588 7.87971 49.8359 11.7661 49.8359 15.8224C49.8359 20.4315 48.1794 24.8981 45.1736 28.4018Z" fill="#D7A664"/>
<path d="M21.1617 23.8288C19.2486 21.5998 18.1964 18.7598 18.1953 15.8225C18.1953 13.2424 18.9884 10.7688 20.4904 8.67114L23.3503 10.7174C22.2774 12.2142 21.7109 13.9806 21.7109 15.8225C21.7114 17.9198 22.4629 19.9476 23.8292 21.5388L21.1617 23.8288Z" fill="#D7A664"/>
<path d="M39.8384 23.8288L37.1708 21.5388C38.5371 19.9476 39.2886 17.9198 39.2891 15.8225C39.2891 13.9806 38.7226 12.2142 37.6497 10.7174L40.5096 8.67114C42.0116 10.7688 42.8047 13.2424 42.8047 15.8225C42.8047 18.7579 41.7507 21.6007 39.8384 23.8288Z" fill="#D7A664"/>
<path d="M15.8398 49.7188H45.1602V53.2344H15.8398V49.7188Z" fill="#5A5A5A"/>
<path d="M30.5 49.7188H45.1602V53.2344H30.5V49.7188Z" fill="#444444"/>
<path d="M49.6954 58.0742L46.4608 59.4102L30.6758 20.8146H30.5V17.299H33.0311L49.6954 58.0742Z" fill="#444444"/>
<path d="M7.64844 56.9844H53.3516V60.5H7.64844V56.9844Z" fill="#132D2E"/>
<path d="M30.5 56.9844H53.3516V60.5H30.5V56.9844Z" fill="#132D2E"/>
<path d="M30.5 10.5491C27.5819 10.5491 25.2266 12.9044 25.2266 15.8225C25.2266 18.7406 27.5819 21.0959 30.5 21.0959C33.4181 21.0959 35.7734 18.7406 35.7734 15.8225C35.7734 12.9044 33.4181 10.5491 30.5 10.5491Z" fill="#D7A664"/>
<path d="M35.7734 15.8225C35.7734 18.7406 33.4181 21.0959 30.5 21.0959V10.5491C33.4181 10.5491 35.7734 12.9044 35.7734 15.8225Z" fill="#D7A664"/>
</g>
<defs>
<clipPath id="clip0_452_1920">
<rect width="60" height="60" fill="white" transform="translate(0.5 0.5)"/>
</clipPath>
</defs>
</svg>
