<svg fill="none" height="36" viewBox="0 0 36 36" width="36" xmlns="http://www.w3.org/2000/svg"><path d="m31.0781 12.6219v-6.64534c0-.58247-.4722-1.05468-1.0547-1.05468h-6.6453l-4.6339-4.614544c-.4116-.409781-1.0769-.409781-1.4885 0l-4.6338 4.614544h-6.64534c-.58247 0-1.05468.47221-1.05468 1.05468v6.64534l-4.614544 4.6339c-.409781.4116-.409781 1.0769 0 1.4885l4.614544 4.6338v6.6453c0 .5825.47221 1.0547 1.05468 1.0547h6.64534l4.6338 4.6146c.2058.2049.4751.3073.7443.3073s.5385-.1024.7442-.3073l4.6339-4.6146h6.6453c.5825 0 1.0547-.4722 1.0547-1.0547v-6.6453l4.6146-4.6338c.4097-.4116.4097-1.0769 0-1.4885zm-1.802 9.5764c-.1968.1977-.3073.4652-.3073.7442v6.0263h-6.0263c-.2789 0-.5465.1105-.7441.3073l-4.1984 4.1808-4.1983-4.1808c-.1977-.1968-.4652-.3073-.7442-.3073h-6.02625v-6.0263c0-.2789-.11053-.5465-.30734-.7441l-4.18078-4.1984 4.18078-4.1983c.19681-.1977.30734-.4652.30734-.7442v-6.02625h6.02625c.2789 0 .5465-.11053.7441-.30734l4.1984-4.18078 4.1984 4.18078c.1977.19681.4652.30734.7441.30734h6.0263v6.02625c0 .2789.1105.5465.3073.7441l4.1808 4.1984z" fill="#d7a664"/></svg>