<svg width="61" height="61" viewBox="0 0 61 61" fill="none" xmlns="http://www.w3.org/2000/svg">
<path d="M48.0341 11.3403L46.145 11.4275C45.2355 11.4758 44.3247 11.3615 43.4553 11.09L37.5088 8.86438C37.5088 8.86438 29.6206 13.4441 26.5934 14.4069C24.0631 15.065 21.4999 15.5892 18.9144 15.9772C18.2579 16.088 17.639 16.3592 17.1126 16.7667C16.5861 17.1742 16.1685 17.7054 15.8966 18.3131C15.6248 18.9208 15.5072 19.5862 15.5543 20.2502C15.6013 20.9143 15.8117 21.5564 16.1666 22.1197L20.3469 28.7675C21.089 29.9494 22.161 30.8882 23.4304 31.468C24.6999 32.0478 26.1114 32.2431 27.4906 32.03C29.8745 31.71 32.2362 31.2425 34.5622 30.6303C37.4178 29.5849 40.1903 28.3254 42.8562 26.8625C44.1335 26.2276 45.5152 25.829 46.9344 25.6859L49.0597 25.505L48.0341 11.3403Z" fill="#F5CA9E"/>
<path d="M27.3537 27.3256C27.1169 26.9248 26.8072 26.5719 26.4406 26.285C26.9504 25.5072 27.1491 24.5662 26.9973 23.6487C26.8455 22.7313 26.3543 21.9044 25.6212 21.3322C25.9872 20.7678 26.194 20.1149 26.2196 19.4427C26.2452 18.7705 26.0887 18.1038 25.7667 17.5132C25.4447 16.9226 24.9691 16.4299 24.3902 16.0872C23.8112 15.7446 23.1505 15.5647 22.4778 15.5666C21.9573 15.5593 21.4369 15.5806 20.9187 15.6303C20.2512 15.7494 19.5762 15.8666 18.9144 15.9772C18.258 16.0882 17.6392 16.3595 17.1129 16.767C16.5866 17.1745 16.169 17.7057 15.8972 18.3134C15.6255 18.9211 15.508 19.5864 15.5551 20.2504C15.6023 20.9144 15.8126 21.5565 16.1675 22.1197L20.3469 28.7675C20.9984 29.8042 21.9054 30.6561 22.9809 31.2415C24.0563 31.8269 25.2641 32.1262 26.4884 32.1106C27.1781 31.5462 27.644 30.7545 27.8026 29.8776C27.9612 29.0006 27.8021 28.0958 27.3537 27.3256Z" fill="#EDC287"/>
<path d="M48.0313 11.3468C48.0313 11.3468 45.8497 11.4406 45.7034 11.4396L46.4422 21.6471C46.4832 22.2137 46.2994 22.7736 45.9305 23.2056C45.5617 23.6376 45.0375 23.9069 44.4716 23.9552C43.0524 24.0982 41.6707 24.4969 40.3934 25.1318C37.7275 26.5947 34.9549 27.8542 32.0994 28.8996C29.7731 29.5119 27.411 29.9794 25.0269 30.2993C23.7133 30.4999 22.3698 30.3288 21.1484 29.8052C21.9403 30.6696 22.933 31.3256 24.0387 31.7151C25.1444 32.1046 26.329 32.2156 27.4878 32.0384C29.872 31.7181 32.234 31.2503 34.5603 30.6377C37.4155 29.5926 40.1878 28.3334 42.8534 26.8709C44.131 26.2358 45.513 25.8372 46.9325 25.6943L49.0578 25.5124L48.0313 11.3468Z" fill="#EDC287"/>
<path d="M16.2164 14.8283L13.2838 16.5475C12.1672 17.2021 11.7926 18.638 12.4472 19.7547C13.1018 20.8714 14.5378 21.246 15.6545 20.5913L18.5871 18.8722C19.7037 18.2175 20.0783 16.7816 19.4237 15.6649C18.7691 14.5482 17.3331 14.1737 16.2164 14.8283Z" fill="#F5F1D1"/>
<path d="M21.3003 17.2796L12.9417 22.1797C11.825 22.8343 11.4504 24.2702 12.105 25.3869C12.7597 26.5036 14.1956 26.8782 15.3123 26.2235L23.6709 21.3235C24.7876 20.6688 25.1622 19.2329 24.5076 18.1162C23.8529 16.9995 22.417 16.625 21.3003 17.2796Z" fill="#F5E5AE"/>
<path d="M22.1206 22.2314L16.8628 25.3137C15.7461 25.9683 15.3715 27.4043 16.0262 28.521C16.6808 29.6376 18.1167 30.0122 19.2334 29.3576L24.4912 26.2753C25.6079 25.6207 25.9825 24.1847 25.3279 23.068C24.6732 21.9514 23.2373 21.5768 22.1206 22.2314Z" fill="#F5D48A"/>
<path d="M22.9423 27.1813L20.7844 28.4463C19.6678 29.1009 19.2932 30.5368 19.9478 31.6535C20.6025 32.7702 22.0384 33.1448 23.1551 32.4901L25.3129 31.2252C26.4296 30.5705 26.8041 29.1346 26.1495 28.0179C25.4949 26.9013 24.0589 26.5267 22.9423 27.1813Z" fill="#F5CA8A"/>
<path d="M56.2559 26.3562L50.84 26.7593C50.3442 26.796 49.8542 26.6343 49.4776 26.3098C49.1011 25.9852 48.8688 25.5244 48.8319 25.0287L47.8306 11.54C47.794 11.0442 47.9557 10.5542 48.2802 10.1776C48.6047 9.80103 49.0655 9.56875 49.5613 9.53183L54.9772 9.12964L56.2559 26.3562Z" fill="#46A676"/>
<path d="M54.9641 9.12402L53.0919 9.26277L53.9788 21.2159C54.033 21.9485 53.794 22.6726 53.3144 23.2291C52.8348 23.7855 52.1538 24.1287 51.4213 24.1831L48.7691 24.38L48.8169 25.0268C48.8352 25.2724 48.9016 25.5119 49.0125 25.7318C49.1233 25.9517 49.2764 26.1475 49.463 26.3082C49.6495 26.4689 49.8659 26.5913 50.0998 26.6684C50.3336 26.7455 50.5804 26.7757 50.8259 26.7575L56.2428 26.3553L54.9641 9.12402Z" fill="#469C76"/>
<path d="M38.0656 9.06871C37.0878 8.60183 34.3325 6.86933 34.3325 6.86933C33.9225 6.59654 33.449 6.43436 32.9578 6.39855C32.4667 6.36274 31.9746 6.45452 31.5294 6.66496C28.9625 7.8809 23.4706 9.58996 21.4756 10.5312C18.7953 11.7959 22.745 16.8565 28.7225 13.6456C29.0833 13.4518 29.5016 13.3937 29.9015 13.4819C30.3014 13.5702 30.6565 13.7989 30.9022 14.1265C31.6882 15.4425 32.7089 16.6032 33.9134 17.5512C34.5319 17.9709 35.2389 18.2421 35.9794 18.3437C36.7199 18.4453 37.4738 18.3746 38.1825 18.1371C38.8912 17.8995 39.5355 17.5016 40.0651 16.9743C40.5948 16.4469 40.9956 15.8044 41.2362 15.0968L42.7381 10.8218C42.7381 10.8218 39.1906 9.60871 38.0656 9.06871Z" fill="#EDC287"/>
<path d="M39.8511 45.0196C40.7257 44.3545 40.8955 43.1064 40.2305 42.2319C39.5654 41.3573 38.3174 41.1874 37.4428 41.8525C36.5682 42.5175 36.3984 43.7656 37.0634 44.6402C37.7284 45.5148 38.9765 45.6846 39.8511 45.0196Z" fill="#B06200"/>
<path d="M43.8259 41.3772C44.1422 40.3251 43.5456 39.2157 42.4934 38.8994C41.4412 38.5831 40.3319 39.1797 40.0156 40.2319C39.6993 41.2841 40.2959 42.3935 41.3481 42.7098C42.4003 43.026 43.5097 42.4294 43.8259 41.3772Z" fill="#B06200"/>
<path d="M43.2424 37.9369C43.9654 37.1096 43.8808 35.8529 43.0535 35.1299C42.2262 34.4069 40.9695 34.4915 40.2465 35.3188C39.5235 36.1461 39.6081 37.4029 40.4354 38.1258C41.2627 38.8488 42.5195 38.7643 43.2424 37.9369Z" fill="#B06200"/>
<path d="M40.1887 34.9686C40.9117 34.1412 40.8271 32.8845 39.9998 32.1615C39.1725 31.4385 37.9158 31.5231 37.1928 32.3504C36.4698 33.1777 36.5544 34.4345 37.3817 35.1575C38.209 35.8804 39.4657 35.7959 40.1887 34.9686Z" fill="#B06200"/>
<path d="M36.2282 32.6759C37.2588 32.2951 37.7855 31.1509 37.4047 30.1203C37.0239 29.0897 35.8797 28.5629 34.8491 28.9438C33.8185 29.3246 33.2918 30.4688 33.6726 31.4994C34.0534 32.5299 35.1976 33.0567 36.2282 32.6759Z" fill="#B06200"/>
<path d="M32.5318 30.0504C33.6294 30.0013 34.4794 29.0717 34.4303 27.9741C34.3812 26.8765 33.4517 26.0265 32.3541 26.0756C31.2565 26.1246 30.4065 27.0542 30.4555 28.1518C30.5046 29.2494 31.4342 30.0994 32.5318 30.0504Z" fill="#B06200"/>
<path d="M30.2071 26.6171C31.3036 26.5477 32.1363 25.6026 32.0669 24.506C31.9976 23.4095 31.0524 22.5769 29.9559 22.6462C28.8594 22.7156 28.0267 23.6607 28.0961 24.7573C28.1655 25.8538 29.1106 26.6864 30.2071 26.6171Z" fill="#B06200"/>
<path d="M28.8705 22.7319C29.967 22.6626 30.7997 21.7174 30.7303 20.6209C30.6609 19.5244 29.7158 18.6917 28.6193 18.7611C27.5228 18.8305 26.6901 19.7756 26.7595 20.8721C26.8289 21.9686 27.774 22.8013 28.8705 22.7319Z" fill="#C16200"/>
<path d="M28.231 18.6024C29.2418 18.1719 29.7122 17.0035 29.2817 15.9926C28.8512 14.9818 27.6827 14.5114 26.6719 14.9419C25.661 15.3724 25.1906 16.5409 25.6211 17.5517C26.0517 18.5625 27.2201 19.033 28.231 18.6024Z" fill="#C16200"/>
<path d="M19.6487 11.0623C19.8916 9.99081 19.2198 8.92529 18.1483 8.68244C17.0768 8.43958 16.0113 9.11135 15.7684 10.1829C15.5256 11.2544 16.1973 12.3199 17.2688 12.5628C18.3404 12.8056 19.4059 12.1339 19.6487 11.0623Z" fill="#C16200"/>
<path d="M14.3008 12.3675C15.327 11.975 15.8407 10.8249 15.4483 9.79873C15.0558 8.77253 13.9057 8.25879 12.8795 8.65128C11.8533 9.04377 11.3396 10.1938 11.732 11.22C12.1245 12.2463 13.2746 12.76 14.3008 12.3675Z" fill="#C16200"/>
<path d="M9.09359 17.3347C9.9366 16.6301 10.0488 15.3755 9.34418 14.5325C8.63956 13.6895 7.38497 13.5773 6.54196 14.2819C5.69895 14.9865 5.58676 16.2411 6.29137 17.0841C6.99599 17.9271 8.25058 18.0393 9.09359 17.3347Z" fill="#C16200"/>
<path d="M11.0549 13.9091C11.9746 13.308 12.2328 12.0751 11.6317 11.1554C11.0306 10.2358 9.79772 9.97755 8.87805 10.5787C7.95838 11.1798 7.70015 12.4127 8.30128 13.3323C8.90241 14.252 10.1353 14.5102 11.0549 13.9091Z" fill="#C16200"/>
<path d="M8.84025 20.6623C9.32671 19.6772 8.92245 18.4842 7.93731 17.9978C6.95217 17.5113 5.7592 17.9156 5.27274 18.9007C4.78628 19.8858 5.19055 21.0788 6.17569 21.5653C7.16083 22.0517 8.35379 21.6475 8.84025 20.6623Z" fill="#C16200"/>
<path d="M8.73583 23.92C8.74791 22.8213 7.86709 21.9209 6.76845 21.9088C5.66982 21.8968 4.76941 22.7776 4.75732 23.8762C4.74524 24.9749 5.62607 25.8753 6.72471 25.8874C7.82334 25.8994 8.72375 25.0186 8.73583 23.92Z" fill="#C16200"/>
<path d="M8.52039 29.7032C9.52565 29.2598 9.98116 28.0855 9.53778 27.0802C9.09441 26.0749 7.92005 25.6194 6.91478 26.0628C5.90951 26.5062 5.45401 27.6805 5.89739 28.6858C6.34076 29.6911 7.51512 30.1466 8.52039 29.7032Z" fill="#C16200"/>
<path d="M10.7953 33.1573C11.716 32.5577 11.9764 31.3253 11.3769 30.4046C10.7774 29.4839 9.54496 29.2235 8.62424 29.823C7.70353 30.4226 7.44315 31.655 8.04267 32.5757C8.64219 33.4964 9.87458 33.7568 10.7953 33.1573Z" fill="#C16200"/>
<path d="M13.965 35.939C14.8683 35.3135 15.0936 34.0742 14.4681 33.1709C13.8426 32.2677 12.6033 32.0424 11.7 32.6679C10.7967 33.2934 10.5715 34.5327 11.197 35.436C11.8224 36.3393 13.0618 36.5645 13.965 35.939Z" fill="#C16200"/>
<path d="M17.5268 38.2125C18.3211 37.4535 18.3497 36.1942 17.5906 35.3999C16.8316 34.6055 15.5723 34.577 14.778 35.336C13.9836 36.0951 13.9551 37.3544 14.7141 38.1487C15.4732 38.943 16.7325 38.9716 17.5268 38.2125Z" fill="#C16200"/>
<path d="M21.2632 40.0337C21.9726 39.1947 21.8677 37.9395 21.0287 37.2301C20.1898 36.5206 18.9346 36.6256 18.2251 37.4645C17.5157 38.3034 17.6206 39.5586 18.4595 40.2681C19.2985 40.9776 20.5537 40.8726 21.2632 40.0337Z" fill="#C16200"/>
<path d="M24.9956 41.9062C25.6404 41.0166 25.4418 39.7727 24.5521 39.128C23.6625 38.4833 22.4186 38.6819 21.7739 39.5715C21.1292 40.4612 21.3278 41.705 22.2174 42.3497C23.1071 42.9944 24.3509 42.7959 24.9956 41.9062Z" fill="#C16200"/>
<path d="M28.6971 43.4312C29.2915 42.5071 29.0242 41.2762 28.1002 40.6818C27.1761 40.0875 25.9452 40.3547 25.3508 41.2788C24.7565 42.2028 25.0237 43.4337 25.9478 44.0281C26.8718 44.6225 28.1027 44.3552 28.6971 43.4312Z" fill="#C16200"/>
<path d="M32.3969 45.0073C32.9912 44.0833 32.724 42.8524 31.7999 42.258C30.8759 41.6636 29.6449 41.9309 29.0506 42.8549C28.4562 43.779 28.7235 45.0099 29.6475 45.6043C30.5716 46.1986 31.8025 45.9314 32.3969 45.0073Z" fill="#B06200"/>
<path d="M36.6162 54.6087H32.9159C32.7719 54.6086 32.6298 54.5754 32.5006 54.5116C32.3715 54.4478 32.2588 54.3551 32.1713 54.2406C32.0838 54.1262 32.0238 53.9931 31.9961 53.8518C31.9683 53.7104 31.9735 53.5646 32.0112 53.4255L33.6819 47.2643H35.8438L37.5209 53.4255C37.5587 53.5646 37.5639 53.7104 37.5361 53.8518C37.5084 53.9931 37.4484 54.1262 37.3609 54.2406C37.2734 54.3551 37.1607 54.4478 37.0316 54.5116C36.9024 54.5754 36.7603 54.6086 36.6162 54.6087Z" fill="#844E00"/>
<path d="M33.6163 47.5193H35.9C36.2989 46.6021 36.5859 45.6402 36.755 44.6543C36.7482 44.3931 36.6901 44.1358 36.5839 43.8971C36.4777 43.6584 36.3255 43.443 36.136 43.2631C35.9465 43.0832 35.7235 42.9423 35.4796 42.8486C35.2357 42.7549 34.9757 42.7102 34.7145 42.717C34.4533 42.7237 34.196 42.7819 33.9573 42.8881C33.7186 42.9943 33.5032 43.1465 33.3233 43.336C33.1434 43.5254 33.0025 43.7485 32.9089 43.9924C32.8152 44.2363 32.7704 44.4963 32.7772 44.7574C32.9495 45.7073 33.2311 46.6341 33.6163 47.5193Z" fill="#845D00"/>
</svg>
