<svg version="1.2" xmlns="http://www.w3.org/2000/svg" viewBox="0 0 70 30" width="70" height="30">
	<title>New Project</title>
	<style>
		.s0 { fill: #191c4f } 
	</style>
	<g id="الفاتحة">
		<path id="&lt;Compound Path&gt;" fill-rule="evenodd" class="s0" d="m13.3 22l-0.1-0.1c0 0.1 0 0.1-0.1 0.3-0.1 0.2-0.2 0.2-0.3 0.3-0.3 0.1-2.7 0.9-2.9 1-0.3 0.1-0.2 0-0.2 0q0 0 0.1-0.3c0-0.2 0.1-0.2 0.3-0.3 0.3-0.1 2.7-0.9 3-1 0.3-0.1 0.2-0.1 0.2 0.1zm18.6-0.9c0 0-0.1 0.2-0.1 0.4-0.3 0.8-0.2 1.2-0.1 1.3 0.2 0.4 0.5 0.1 0.6-0.2 0.1-0.1 0.1 0 0.1 0q0.1 0.1 0 0.3c-0.1 0.5-0.3 0.6-0.5 0.6-0.4 0-0.5-0.4-0.5-0.6-0.1-0.9 0.3-1.6 0.4-1.8 0.1-0.3 0.1-0.2 0.1 0zm-8.3-1l-0.1-0.1c-0.1 0.2-0.1 0.2-0.1 0.3-0.1 0.2-0.2 0.2-0.4 0.3-0.2 0.1-4.7 1.9-4.8 2-0.3 0.1-0.2 0-0.2-0.1q0 0 0.1-0.2c0-0.2 0.1-0.2 0.3-0.3 0.2-0.2 4.7-1.9 5-2 0.3-0.2 0.2-0.1 0.2 0.1zm25.3-7.9c0.1 0.1 1.2 1.3 1.4 1.4 0.1 0.2 0 0.2 0 0.2h-0.6c0 0 0.7 1.3 0.9 1.7 0.4 1.1 0.2 1.9 0.1 2.2-0.4 0.7-1 1.3-1.7 1.9-0.1 0.6-0.3 3 2 3.1 0.3 0 1.5 0.1 3.9-1.8 0.5-0.4 1.1-1 1.6-1.7 0.3-0.3 0.4-0.8 0-0.8-0.3 0.1-2.8 0.9-3.1-0.5-0.1-0.4 0.1-3.9 2.5-2.2 0.1 0.2 0.6 0.6 1 1.3 0.4-0.2 1.1-0.6 2-1.3 0.3-0.3 0.6-0.4 0.6 0-0.1 0.3-0.3 2.3 1.9 1.7 0.2-0.1 1.2-0.3 1.8-2 0.2-0.4 0.5-0.3 0.3 0-0.1 0.4-0.4 0.8-0.1 1 0.2 0.2 0.8 0.6 1.5 0.5 0.3 0 0.4-0.1 0.3-0.3 0-0.3-0.3-0.7-0.3-0.7 0.1-0.3 0.2-0.7 0.2-0.8 0.1-0.2 0.1-0.3 0.2-0.2 0.1 0.2 0.8 1.1 0.4 2.3h0.1c-0.1 0.2-0.3 1.1-1.6 0.9-0.4-0.1-1-0.3-1.3-0.9-0.3 0.4-1 1.6-2.5 1.4-0.3-0.1-1.3-0.5-1.4-1.7 0 0-1.2 0.9-1.7 1.2 0 0.5 0 1-0.2 1.6-0.3 0.6-2.9 3.5-5 4-0.7 0.2-3.4 0.7-3.5-2.3q0-1 0.1-1.5c-1.6 1.3-3.7 2.3-4.3 2.6-0.8 0.4-3.9 0.9-4.5 1-0.3 0-0.4 0-0.2-0.2 0.2-0.1 7.1-2.4 10.6-6.1 0.1-0.2 0.1-0.3 0-0.5-0.2-0.2-1.3-2.3-1.4-2.6 0-0.3-0.2-0.7-0.3-0.8 0-0.1 0-0.2 0-0.3 0-0.1 0.1-0.7 0.2-0.8 0-0.1 0.1-0.1 0.1 0zm-28.5 1.4c0.2 0.9 0 1.7-0.1 2-0.1 0.2-0.2 0-0.3-0.2 0-0.1 0-0.7-0.2-1.2 0-0.3-0.3-0.3-0.6-0.2-0.2 0.1-0.7 0.8-0.8 1-0.5 0.9-1.7 1.9-1.9 2 0 0 1.8 0.3 3.2 0.4 1.1 0.1 3 0 3.3 0 0.2-0.1 0.1 0.1 0.1 0.1-0.1 0.2-0.5 0.9-0.6 1 0 0-1.4 0.1-1.8 0.2-0.9 0.2-2.9 1.4-3.1 1.5-2.5 1.3-3.4 1.1-3.6 1.1-1.7-0.1-2-1.7-2.3-2.2-0.3-0.5-1-0.1-1.3 0.1-1.2 0.7-1.9 3.1-2.1 3.4-0.4 0.9-1.3 0.5-1.5 0.4-2-1.2-1.2-4.5-1.1-4.8 0.1-0.3 0.2-0.1 0.2 0.2-0.1 0.2-0.2 1.2-0.1 1.5 0.1 1.6 1.2 2.3 1.6 2.3 0.5 0 0.9-0.9 1.3-2 0.4-1.1 1.2-1.9 2.3-2.4 1.1-0.4 1.4 0.9 1.5 1.2 0.7 1.5 1.9 1.2 2.5 1.1 1.7-0.3 3.3-1.4 3.5-1.6 0 0-4-0.6-4.3-0.3-0.2 0-0.2-0.1-0.2-0.2 0.1-0.2 0.3-0.6 0.4-0.8 0.1-0.2 1.7-1 2-1.2 1.2-0.6 1.6-1.5 2-2.1 0.4-0.7 1-1 1-1.1 0.7-0.4 1 0.7 1 0.8zm25.8-0.3c0 0.2-0.3 1.1-0.4 1.2-0.1 0.1-0.9 1.2-0.9 1.2 0 0 1 0.6 1.3 1 0.5 0.6 0.2 1.3 0.1 1.6-0.3 1-1.6 1.5-2 1.6-1.2 0.4-1.3-0.8-1.2-1.7 0.1-0.9 0.7-2 0.7-2 0-0.1-1.3-1.1-1.4-1.2-0.1-0.1-0.2-0.2-0.4-0.3 0-0.1 0-0.1 0-0.1 0 0 0-0.9 0-1 0-0.2 0.1-0.1 0.2-0.1 0.1 0.1 1.5 0.6 1.6 0.7 0.1 0.1 0.1 0.2 0 0.2-0.1 0-0.6 0.1-0.6 0.1l1.2 0.9c0 0 1.5-2 1.7-2.2 0.1-0.2 0.1-0.1 0.1 0.1zm-1.8 3.2c-0.1 0.1-0.7 1.2-0.8 1.4-0.3 0.7 0.4 0.8 0.6 0.8 0.3 0 1.2-0.5 1.7-0.9 0.4-0.3-1.2-1.1-1.5-1.3zm-34-2.5l1 0.8-0.6 0.8h-0.1l-0.9-0.7-0.5 0.7h-0.1l-0.9-0.7v-0.1l0.5-0.8h0.1l0.9 0.7 0.5-0.7zm43.7 2.9c-0.1 0.2-0.2 0.5 0.6 0.5 0.8 0.1 1.2-0.1 1.2-0.1-0.8-1-1.7-0.5-1.8-0.4zm10.2 2.7l-0.1 0.1v0.5c0 0.2-0.1 0.5-0.2 0.8-0.1 0.3-0.7 0.4-1.1 0.1-0.8 1.2-1.4 0.6-1.8 0.5-0.6-0.3-0.8 0.1-0.9 0.3-0.9 0.9-2.3 0.9-2.7 0.9-0.3 0.1 0-0.2 0.1-0.2 1.2-0.5 1.9-0.6 2.9-1.5 0.5-0.5 0.8-0.2 0.9-0.2 1 0.5 1.2 0 1.3-0.1 0.1-0.1 0.3-0.6 0.4-0.8 0.1-0.1 0.1 0 0.1 0.1 0 0.1 0 0.3-0.1 0.4 0.4 0.3 0.8 0 0.9-0.1 0 0 0-0.3 0-0.4q0-0.1 0.1-0.5c0.1-0.3 0.2-0.1 0.2 0.1zm-19.3-8.7l1 0.8v0.1l-0.6 0.7-1-0.7-0.5 0.7-1-0.7v-0.1l0.5-0.8h0.1l1 0.7 0.4-0.7zm-39.2 1.1c0 0-0.1 0.4-0.2 0.8-0.4 1.7-0.1 2.4 0 2.6 0.5 0.8 1 0.3 1.1-0.3 0.1-0.3 0.2-0.2 0.2 0 0 0 0 0.3 0 0.5-0.2 1-0.6 1.3-0.9 1.3-0.5 0-0.8-0.8-0.9-1.2-0.2-1.8 0.4-3.4 0.5-3.9 0.1-0.4 0.2-0.2 0.2 0.2zm57.5-1c0 0-0.1 0.2-0.2 0.4-0.3 0.9-0.1 1.3-0.1 1.3 0.3 0.5 0.6 0.2 0.7-0.1 0-0.2 0.1-0.1 0.1 0q0 0.1-0.1 0.3c-0.1 0.5-0.3 0.6-0.5 0.6-0.3 0-0.5-0.4-0.5-0.6 0-0.9 0.4-1.7 0.5-2 0.1-0.2 0.1-0.1 0.1 0.1zm-43.3-1.3l1 0.8v0.1l-0.5 0.7h-0.1l-1-0.7-0.4 0.7h-0.1l-1-0.7v-0.1l0.6-0.8 1 0.7 0.5-0.7zm33.4 0.8c0 0 0 0.3-0.1 0.4-0.3 0.9-0.1 1.4-0.1 1.5 0.3 0.4 0.6 0.2 0.8-0.2 0-0.1 0-0.1 0 0q0 0.1 0 0.3c-0.1 0.6-0.4 0.7-0.6 0.7-0.3 0-0.5-0.5-0.5-0.7h-0.1c0-1 0.4-1.8 0.5-2.1 0.1-0.2 0.2-0.1 0.1 0.1zm-36.4-0.5c-0.1 0.1-0.1 0.1-0.2 0.3-0.1 0.1-0.1 0.2-0.3 0.3-0.2 0.1-4.6 2.2-4.7 2.2-0.3 0.2-0.3 0.1-0.3 0q0 0 0.1-0.3c0-0.1 0.1-0.2 0.3-0.3h0.1c0.2-0.1 4.5-2.2 4.7-2.3 0.3-0.1 0.3 0 0.3 0.1zm-8.3-1.7c0 0-0.1 0.3-0.2 0.5-0.3 1.2-0.1 1.6 0 1.7 0.3 0.5 0.7 0.2 0.9-0.2 0-0.2 0.1-0.1 0.1 0 0 0.1 0 0.2-0.1 0.3-0.1 0.7-0.4 0.9-0.6 0.9-0.5 0-0.7-0.5-0.7-0.8-0.2-1.2 0.3-2.2 0.4-2.5 0.1-0.2 0.3-0.1 0.2 0.1zm5.7-1.1c0.1 0.2 0 0.6-0.1 0.8-0.1 0.2-0.2 0-0.3-0.1 0 0-0.1-0.1-0.2-0.2-0.5-0.4-0.7 0.4-0.7 0.8-0.1 0.3-0.1 1.2-0.2 1.7 0 0.2-0.2 0.1-0.2 0-0.3-1.1-1-1.7-1.1-1.7-0.1-0.2-0.2 0-0.2 0.1 0 0.1-0.1 0.1-0.1 0-0.1 0-0.4-0.2-0.6-0.4-0.1-0.1 0-0.6 0-0.7 0-0.3 0.2-0.4 0.3-0.4 1.3 0.8 1.7 2 1.7 2.2 0.1-0.9 0.1-1.8 0.6-2.4 0.5-0.5 1.1 0.2 1.1 0.3zm4.8-0.7c0 0-0.1 0.2-0.1 0.4-0.3 0.8-0.1 1.2-0.1 1.3 0.2 0.4 0.5 0.2 0.7-0.1 0-0.2 0-0.1 0 0q0 0 0 0.2c-0.1 0.5-0.3 0.6-0.5 0.6-0.4 0-0.5-0.4-0.5-0.6h0.1c-0.1-0.8 0.3-1.6 0.3-1.8 0.1-0.2 0.2-0.1 0.1 0zm33.5 0c-0.1 0.2-0.1 0.2-0.2 0.3 0 0.2-0.1 0.2-0.3 0.3-0.2 0.1-5.2 3.1-5.3 3.1-0.3 0.2-0.3 0.1-0.3 0h0.1q0 0 0-0.3c0-0.2 0.1-0.2 0.3-0.3 0.2-0.2 5.2-3 5.5-3.2 0.3-0.1 0.2 0 0.2 0.1zm10.5 0c0.5 0.8 0.2 1.6 0.2 1.6 0.2 0.1 0.5 0.4 0.3 0.9 0 0.1-0.1 0.1-0.2-0.1-0.1-0.1-0.2-0.2-0.4-0.3-0.2 0.5-0.1 0.5-1 1.2-1.8 1.6-3.9 2.2-4 2.2q-0.2 0 0.1-0.2c0.6-0.5 3.3-1.7 4.6-3.3 0 0-0.4-0.2-0.7-0.4-0.3-0.2-0.1-1 0.1-1.3h-0.1c0.6-0.8 1-0.4 1.1-0.3zm-0.8 0.8c-0.1 0.1 0 0.2 0.2 0.3 0.2 0.1 0.6 0.3 0.6 0.3 0-0.1 0-0.6-0.3-0.9-0.1-0.1-0.2-0.1-0.5 0.3zm-3.6-0.5c0.1 0.2 0 0.6 0 0.9-0.1 0.2-0.2 0-0.3-0.1 0 0-0.2-0.2-0.3-0.3-0.5-0.4-0.7 0.5-0.8 0.9 0 0.3-0.1 1.2-0.1 1.8-0.1 0.2-0.3 0.2-0.3 0-0.3-1.2-1-1.8-1.1-1.8-0.1-0.2-0.2 0-0.2 0.1q-0.1 0.1-0.2 0c0 0-0.4-0.3-0.6-0.4h0.1c-0.1-0.1-0.1-0.6-0.1-0.8 0-0.3 0.2-0.4 0.3-0.4 1.4 0.8 1.8 2.1 1.9 2.4 0.1-1 0.1-1.9 0.6-2.6 0.5-0.6 1.1 0.2 1.1 0.3zm-23.1-0.6c0 0.1 1.2 2.9 1.3 3.1 0 0.2-0.1 0.2-0.2 0.1-0.1 0-0.7-0.6-0.7-0.6 0 0 1.3 8.6 1.4 9h-0.1c0.2 0.9 0.1 1.8 0 2.1-0.5 1.2-1.5 1.5-1.9 1.5-2.2 0.3-2.6-0.9-2.9-1.3 0 0-1.6 0.8-2.4 1-1.9 0.8-3.2 0.7-3.8 0.6-2.8-0.5-2.7-4.2-2.8-4.6 0-0.5-0.4-4.4-0.5-5.3-0.2-1.4-0.6-3.3-0.7-4.1-0.2-0.9 0-1.2 0.2-1.3 0.1-0.2 0.1-0.2 0.2 0.1 0.1 0.3 0.2 1.1 0.3 1.5 0.3 1.2 0.6 4.5 0.6 4.5 0 0 0.5 4.4 0.7 5.4 0.6 2.3 1.9 2.5 2.3 2.6 1.9 0.3 4.5-0.9 5.4-1.4-0.3-0.7-0.4-1.4-0.4-1.9 0.2-1.4 0.9-1.8 1.2-1.8 0.3-0.1 1.4-0.1 1.5 2 0 1.4-0.7 1.9-1 2.1 0.5 0.8 1.6 0.7 1.9 0.7 1.8-0.3 1.6-0.9 1.6-1.5-0.1-0.6-1.6-11.2-1.7-11.7 0 0 0.3-0.7 0.4-0.9 0-0.1 0 0 0.1 0.1zm-1.1 2.6c0 0.1 0 0.2-0.1 0.3-0.1 0.2-0.2 0.3-0.4 0.4-0.2 0.1-8.5 4.7-8.6 4.7-0.4 0.2-0.3 0.1-0.3 0v-0.1c0 0 0-0.1 0.1-0.3 0-0.2 0.1-0.2 0.3-0.3 0.3-0.2 8.5-4.7 8.8-4.8 0.3-0.2 0.3 0 0.2 0.1zm-2.4 3.9l1 0.7v0.1l-0.6 0.7-1-0.7v-0.1l0.5-0.7zm-2.7-6c0.1 0.2 0 0.6-0.1 0.8 0 0.2-0.1 0-0.3-0.1 0 0-0.1-0.1-0.2-0.2-0.5-0.5-0.7 0.4-0.8 0.8 0 0.3-0.1 1.2-0.2 1.8 0 0.2-0.2 0.2-0.2 0-0.4-1.2-1-1.7-1.1-1.8-0.2-0.1-0.2 0-0.2 0.1q-0.1 0.1-0.2 0.1c-0.1-0.1-0.4-0.3-0.6-0.5h0.1c-0.2-0.1-0.1-0.6-0.1-0.7 0-0.4 0.2-0.5 0.3-0.4 1.4 0.7 1.8 2.1 1.9 2.3 0.1-1 0.1-1.9 0.6-2.6 0.4-0.5 1.1 0.3 1.1 0.4zm3.2 9.9c-0.5 0.3-0.5 0.6-0.4 0.8 0.1 0.3 0.5 1.4 0.5 1.4 0.2-0.1 1.4-0.8 1.1-1.3-0.3-0.5-0.6-1.1-1.2-0.9zm-4-1.5c0 0-0.1 0.3-0.2 0.5v-0.1c-0.3 1.1 0 1.6 0 1.7 0.3 0.5 0.8 0.2 0.9-0.2 0.1-0.2 0.1-0.1 0.1 0 0 0.1 0 0.2 0 0.3-0.2 0.7-0.5 0.9-0.7 0.9-0.4 0-0.6-0.5-0.7-0.8-0.2-1.1 0.3-2.1 0.4-2.4 0.2-0.3 0.3-0.2 0.2 0.1zm10.2-8.9c0 0.1 1.2 2.9 1.3 3.1 0 0.2-0.1 0.2-0.2 0.1-0.1 0-0.7-0.6-0.7-0.6 0 0 1.1 7.7 1.1 7.9 0.2 1.5 0.3 2.6 0.2 3.4 0 0.9-0.2 1.3-0.2 1.4-0.1 0.2-0.2 0.1-0.2-0.1 0-0.6-0.1-1.6-0.2-2.7-0.3-2.4-1.3-9.8-1.5-11-0.1-0.1-0.1-0.5-0.1-0.6 0 0 0.3-0.8 0.3-1 0.1-0.1 0.1 0 0.2 0.1zm5.3 0c0.5 0.8 0.2 1.6 0.2 1.6 0.3 0.1 0.5 0.4 0.3 0.9 0 0.1-0.1 0.1-0.2-0.1 0 0-0.4-0.3-0.4-0.3 0 0-0.3 0.8-1 1.4-1.3 0.9-2.4 1.1-2.4 1.1-0.2 0-0.2-0.1 0-0.2 0.8-0.5 1.7-0.8 3.1-2.4 0 0-0.4-0.2-0.7-0.4-0.3-0.2-0.2-1 0.1-1.3 0.5-0.8 0.9-0.4 1-0.3zm-0.8 0.8c-0.1 0.1 0 0.2 0.1 0.3 0.2 0 0.6 0.2 0.6 0.2 0-0.1 0.1-0.5-0.2-0.8-0.1-0.1-0.3-0.1-0.5 0.3z"/>
	</g>
</svg>