<svg version="1.2" xmlns="http://www.w3.org/2000/svg" viewBox="0 0 70 30" width="70" height="30">
	<title>New Project</title>
	<style>
		.s0 { fill: #191c4f } 
	</style>
	<g id="البقرة">
		<path id="&lt;Compound Path&gt;" fill-rule="evenodd" class="s0" d="m30.4 4.2c0 0.1 1.6 3.9 1.7 4.1 0.1 0.2-0.1 0.3-0.2 0.2-0.2-0.1-0.9-0.9-0.9-0.9l1 8.3c0.3 2 0.3 2.5 0.1 3.4-0.6 2.2-1.9 2.2-2.4 2.2-2 0-2.6-1.3-2.9-1.7-1.6 2.4-4.3 1.9-4.7 1.8-1.5-0.4-2.2-2.1-2.2-2.1-0.3 0.1-3.9 1.2-4.9 1.5-1.5 0.5-3.3 2.1-3.7 2.4-2.1 2-3.3 1.8-3.7 1.6-2.5-1.3-1.2-4.5-0.8-5.4-0.4 0.2-0.8 0.2-1 0.3-1.3 0.2-1.2-1.2-1.2-1.5 0.1-1.5 1-2.9 1.2-3.2 0 0-1.4-1.3-1.5-1.4-0.1 0-0.1-0.1-0.1-0.3 0-0.1 0-1.1 0.1-1.3 0-0.2 0.1-0.1 0.2 0 0.1 0.1 1.3 0.7 1.4 0.7 0.2 0.1 0.2 0.2 0.1 0.2-0.1 0-0.4 0.1-0.4 0.1 0 0-0.1 0.1 0 0.2 0.1 0.1 0.8 0.7 1 0.8 0 0 1.6-2.3 1.8-2.5 0.1-0.2 0.2-0.1 0.1 0.1 0 0.2-0.3 1.1-0.4 1.2 0 0.2-1 1.6-1 1.6 1 0.8 1.4 1.3 1.5 1.7 0.3 1.5 0 2.1-0.2 2.2-0.3 0.4-0.6 0.7-0.9 0.9 0 0 0 0.1-0.1 0.2-1.5 3.2-0.4 3.9-0.2 4.1 1.4 0.8 3.4-1.1 3.8-1.5 2.4-2.3 4.5-2.9 5-3 1.7-0.5 3.4-1.1 3.4-1.1-0.4-0.6-0.5-2.4 0.2-3.5 0.8-1.1 1.4-0.7 1.7-0.5 1.4 1.3 1 2.9 0.8 3.5-0.1 0.7-1.2 1.4-1.2 1.4 1.1 1.3 2.3 1.3 2.7 1.3 2.4-0.1 3.6-2 3.9-2.4 0.3-0.3 0.3 0.1 0.2 0.6-0.1 0.4 0.6 1.1 0.8 1.1 1.7 0.9 2.7 0.1 2.9-0.1 0.3-0.3 0.2-0.6 0.2-0.8-0.1-1-1.8-13.1-1.8-13.4 0 0 0.4-1.1 0.4-1.2 0.1-0.2 0.1-0.1 0.2 0.1zm-12.4 17.1c0 0-0.1 0.3-0.1 0.6-0.4 1.2-0.1 1.7-0.1 1.8 0.4 0.6 0.8 0.3 1-0.2 0.1-0.1 0.1-0.1 0.1 0q0 0.2 0 0.4c-0.2 0.7-0.5 0.9-0.7 0.9-0.5 0-0.7-0.6-0.8-0.9-0.2-1.2 0.4-2.4 0.5-2.7 0.1-0.3 0.2-0.2 0.1 0.1zm28-9.6c0.1 0.1 1.4 1.5 1.5 1.6 0.2 0.2 0.1 0.3 0 0.3h-0.7c0 0 0.9 1.4 1.1 1.9 0.5 1.2 0.2 2.2 0.1 2.5-0.4 0.8-1.1 1.5-1.9 2.2-0.1 0.7-0.4 3.5 2.3 3.6 0.4 0 1.7 0.1 4.4-2.1 0.7-0.5 1.3-1.1 1.9-1.9 0.3-0.4 0.4-1 0-0.9-0.4 0-3.2 1-3.6-0.7-0.1-0.4 0.1-4.4 2.8-2.4 0.2 0.2 0.8 0.6 1.2 1.4 0.5-0.2 1.4-0.7 2.4-1.5 0.3-0.3 0.6-0.4 0.6 0-0.1 0.3-0.3 2.6 2.3 2 0.2-0.1 1.3-0.3 2-2.3 0.2-0.5 0.5-0.4 0.4 0-0.2 0.5-0.5 0.9-0.2 1.1 0.2 0.3 0.9 0.8 1.8 0.7 0.3-0.1 0.4-0.2 0.3-0.5-0.1-0.2-0.3-0.7-0.3-0.7 0.1-0.4 0.2-0.9 0.2-1 0-0.2 0.1-0.3 0.2-0.2 0.1 0.2 0.9 1.2 0.5 2.7-0.1 0.2-0.3 1.2-1.8 0.9-0.4 0-1.1-0.2-1.4-1-0.4 0.5-1.2 1.9-2.9 1.6-0.4 0-1.6-0.5-1.6-1.9 0 0-1.4 1.1-2 1.4 0 0.6 0 1.2-0.3 1.9-0.2 0.7-3.2 4-5.6 4.5-0.9 0.2-3.9 0.8-4.1-2.7 0-0.7 0.1-1.2 0.1-1.6-1.9 1.4-4.2 2.6-4.9 2.9-1 0.5-4.5 1.1-5.1 1.2-0.5 0.1-0.5 0-0.3-0.2 0.3-0.1 8.1-2.8 12.2-7.1 0.1-0.1 0-0.3-0.1-0.5-0.1-0.3-1.4-2.7-1.5-3-0.1-0.4-0.3-0.8-0.3-0.9-0.1-0.1-0.1-0.2-0.1-0.4 0.1-0.1 0.2-0.8 0.2-0.9 0.1-0.2 0.1-0.1 0.2 0zm-12.4 8.2c0 0-0.1 0.4-0.2 0.6-0.4 1.4-0.1 1.9 0 2.1 0.4 0.6 0.9 0.2 1-0.3 0.1-0.2 0.2-0.1 0.2 0 0 0.1 0 0.2-0.1 0.4-0.2 0.8-0.5 1-0.8 1-0.5 0-0.7-0.5-0.8-0.9-0.1-1.4 0.4-2.7 0.5-3 0.1-0.3 0.3-0.2 0.2 0.1zm9.2-7c0 0.2-0.3 1.2-0.4 1.4-0.1 0.1-1.1 1.4-1.1 1.4 0 0 1.3 0.7 1.6 1.1 0.5 0.7 0.2 1.5 0.1 1.9-0.4 1-1.9 1.7-2.3 1.8-1.4 0.4-1.5-1-1.4-2 0.1-1 0.8-2.3 0.8-2.3-0.1-0.1-1.5-1.2-1.6-1.3-0.1-0.1-0.3-0.3-0.4-0.4-0.1-0.1-0.1-0.1-0.1-0.1 0 0 0-1.1 0-1.2 0.1-0.2 0.1-0.1 0.2-0.1 0.2 0.1 1.7 0.7 1.9 0.8 0.1 0.1 0.1 0.2 0 0.3-0.1 0-0.6 0.1-0.6 0.1l1.3 1-0.1 0.1c0 0 1.8-2.4 2-2.7 0.2-0.2 0.2-0.1 0.1 0.2zm-2 3.7c-0.1 0.1-0.9 1.3-1 1.6-0.3 0.8 0.5 1 0.8 0.9 0.3 0 1.4-0.5 1.9-1 0.5-0.4-1.3-1.3-1.7-1.5zm11.1 0.6c-0.1 0.1-0.2 0.5 0.7 0.5 1 0.1 1.3-0.1 1.3-0.1-0.8-1.2-1.9-0.6-2-0.4zm11.7 2.9v0.2 0.5c0 0.3-0.2 0.6-0.3 1-0.1 0.3-0.8 0.4-1.3 0.1-0.9 1.3-1.6 0.7-2 0.5-0.7-0.3-0.9 0.2-1.1 0.4-1 1-2.6 1-3 1-0.4 0.1-0.1-0.2 0.1-0.3 1.3-0.5 2.1-0.5 3.3-1.6 0.5-0.6 0.9-0.3 1.1-0.2 1.1 0.5 1.2 0 1.4-0.2 0.1-0.1 0.3-0.7 0.4-0.9 0.1-0.2 0.2 0 0.2 0.1 0 0.1-0.1 0.3-0.1 0.4 0.4 0.4 0.9 0.1 1 0 0 0 0-0.4 0-0.5q0-0.2 0.1-0.6c0.1-0.3 0.2-0.1 0.2 0.1zm-46.6-6.5c-0.1 0.1-0.1 0.2-0.2 0.4-0.1 0.2-0.3 0.2-0.5 0.4-0.2 0.1-5.3 2.3-5.5 2.4-0.4 0.3-0.4 0.1-0.3 0 0 0 0.1-0.2 0.1-0.4 0.1-0.2 0.2-0.3 0.5-0.4 0.2-0.2 5.3-2.4 5.6-2.5 0.4-0.3 0.3-0.1 0.3 0.1zm12.9-0.7c0 0.1-0.1 0.2-0.2 0.4-0.1 0.2-0.2 0.2-0.5 0.4-0.2 0.1-5.3 2.3-5.4 2.4-0.5 0.3-0.4 0.1-0.4 0 0-0.1 0.1-0.2 0.1-0.4 0.1-0.3 0.2-0.3 0.5-0.5v0.1c0.3-0.2 5.3-2.4 5.6-2.5 0.4-0.3 0.4-0.1 0.3 0.1zm11.2-2.7l1.1 0.8v0.1l-0.6 0.9h-0.1l-1.1-0.8-0.5 0.8h-0.1l-1.2-0.8v-0.1l0.7-0.9h0.1l1 0.8 0.6-0.8zm-21.9 0.1l1.3 0.9 0.6-0.9h0.1l1.3 1v0.1l-0.7 1h-0.1l-1.3-0.9-0.6 0.8h-0.1l-1.3-0.9v-0.1l0.7-1zm43.2-0.3c0 0-0.1 0.3-0.1 0.5h-0.1c-0.3 1-0.1 1.5-0.1 1.6 0.3 0.4 0.7 0.2 0.8-0.2 0.1-0.2 0.1-0.1 0.1 0q0 0.1 0 0.3c-0.2 0.6-0.4 0.7-0.6 0.7-0.4 0-0.6-0.4-0.6-0.7 0-1 0.4-2 0.5-2.2 0.1-0.3 0.2-0.2 0.1 0zm-55.4-1.5l1.2 1v0.1l-0.7 1h-0.1l-1.3-0.9-0.7 1h-0.1l-1.3-0.9v-0.1l0.7-1.1h0.1l1.3 1 0.8-1.1zm44.1 0.5c0 0 0 0.4-0.1 0.7-0.4 1.3-0.1 1.9-0.1 2 0.4 0.6 0.9 0.2 1.1-0.2 0.1-0.3 0.1-0.1 0.1 0 0 0 0 0.1 0 0.3-0.2 0.9-0.6 1.1-0.8 1.1-0.5 0-0.8-0.6-0.8-1-0.2-1.4 0.3-2.6 0.5-3 0.1-0.3 0.2-0.2 0.1 0.1zm-25.2-1.8c0 0 0 0.4-0.1 0.7-0.4 1.3-0.1 1.8-0.1 2 0.4 0.6 0.9 0.2 1-0.3 0.1-0.2 0.2-0.1 0.2 0 0 0.1 0 0.2-0.1 0.4-0.2 0.9-0.5 1.1-0.8 1.1-0.4 0-0.7-0.6-0.7-1-0.2-1.4 0.3-2.6 0.5-3 0.1-0.3 0.2-0.2 0.1 0.1zm24.3-2.6c-0.1 0.1-0.1 0.1-0.2 0.3-0.1 0.2-0.2 0.3-0.4 0.4-0.2 0.1-6 3.5-6.1 3.5-0.3 0.2-0.3 0.1-0.3 0h0.1q-0.1 0 0-0.3c0.1-0.2 0.1-0.3 0.4-0.4 0.2-0.2 6-3.5 6.2-3.6 0.4-0.2 0.3-0.1 0.3 0.1zm7.3 0.2c0.1 0.3 0 0.7-0.1 1-0.1 0.2-0.2 0-0.4-0.1 0 0-0.1-0.2-0.3-0.3-0.6-0.5-0.8 0.5-0.9 0.9 0 0.4-0.1 1.5-0.2 2.1 0 0.3-0.2 0.3-0.3 0.1-0.4-1.4-1.1-2.1-1.2-2.2-0.2-0.1-0.3 0.1-0.3 0.2 0 0.1-0.1 0.1-0.2 0 0 0-0.5-0.3-0.6-0.5-0.1-0.1-0.1-0.6-0.1-0.8 0-0.4 0.3-0.5 0.4-0.5 1.5 0.9 2 2.4 2.1 2.7 0.1-1.2 0.2-2.2 0.8-3 0.5-0.6 1.2 0.3 1.3 0.4zm-51.5-0.6c0 0-0.1 0.4-0.2 0.6-0.3 1 0 1.5 0 1.6 0.3 0.5 0.7 0.2 0.8-0.2 0.1-0.2 0.1-0.1 0.1 0q0.1 0.1 0 0.3c-0.2 0.7-0.4 0.9-0.6 0.9-0.4 0-0.6-0.5-0.7-0.8-0.1-1.2 0.3-2.2 0.4-2.4 0.1-0.3 0.2-0.2 0.2 0zm14.2 11.5c-0.3 0.3-0.6 0.6-0.5 1.1 0.2 0.5 0.6 1.1 0.6 1.1 0.2-0.1 1.8-0.8 1.2-1.4-0.2-0.3-1-1.1-1.3-0.8zm-13.8-0.1c-0.1 0.3-1.1 1.6-1.2 2-0.1 0.6 0.4 1.1 0.9 0.9 0.6-0.1 1.6-0.6 1.8-0.9 0 0 0.3-0.3 0.2-0.5-0.5-0.7-1.7-1.5-1.7-1.5zm20.5 7.2l1.3 0.9v0.1l-0.8 1h-0.1l-1.3-0.9v-0.1l0.8-1zm13.7-18.5c0.6 0.9 0.3 1.7 0.3 1.7 0.2 0.2 0.5 0.5 0.3 1.1 0 0.2-0.1 0.1-0.2-0.1-0.1 0-0.5-0.4-0.5-0.4 0 0-0.4 1-1.2 1.6-1.5 1.1-2.7 1.3-2.8 1.3-0.1 0-0.1-0.1 0.1-0.3v0.1c0.9-0.5 2-0.9 3.5-2.8 0 0-0.4-0.2-0.8-0.5-0.3-0.2-0.1-1.1 0.1-1.4 0.6-1 1.1-0.5 1.2-0.3zm-0.9 0.8c-0.1 0.2 0 0.3 0.2 0.3 0.1 0.1 0.6 0.3 0.6 0.3 0-0.1 0.1-0.6-0.3-0.9-0.1-0.1-0.2-0.1-0.5 0.3zm23.6-0.8c0.5 0.9 0.2 1.7 0.2 1.7 0.3 0.2 0.5 0.5 0.4 1.1-0.1 0.2-0.2 0.1-0.3-0.1-0.1-0.1-0.2-0.3-0.4-0.4-0.3 0.6-0.2 0.6-1.2 1.5-2.1 1.8-4.5 2.4-4.6 2.5-0.2 0-0.2-0.1 0-0.3 0.8-0.5 3.8-1.9 5.4-3.8 0 0-0.5-0.2-0.8-0.5-0.3-0.2-0.2-1.1 0.1-1.4h-0.1c0.7-1 1.2-0.5 1.3-0.3zm-1 0.9c-0.1 0.1 0 0.2 0.2 0.3h0.1c0.2 0.1 0.6 0.3 0.6 0.3 0-0.1 0.1-0.6-0.3-1-0.1-0.1-0.3-0.1-0.6 0.4zm-37.1-0.9c-0.1 0.1-0.1 0.2-0.3 0.4 0 0.3-0.2 0.4-0.5 0.5-0.3 0.2-12.1 5.9-12.3 6-0.5 0.3-0.4 0.1-0.3-0.1 0 0 0-0.2 0.1-0.4 0-0.3 0.1-0.3 0.4-0.5h0.1c0.3-0.2 12.1-5.9 12.4-6.1 0.5-0.2 0.5 0 0.4 0.2zm-10.5 0.3c0.1 0.1 0 0.6-0.1 0.8 0 0.2-0.2 0-0.3-0.1 0 0-0.1-0.2-0.3-0.3-0.5-0.4-0.7 0.4-0.8 0.8 0 0.4-0.1 1.3-0.2 1.9 0 0.2-0.1 0.2-0.2 0-0.3-1.2-1-1.8-1.1-1.9-0.2-0.1-0.2 0.1-0.2 0.2-0.1 0.1-0.2 0.1-0.2 0-0.1 0-0.5-0.2-0.6-0.4-0.1-0.2 0-0.6 0-0.8 0-0.3 0.2-0.4 0.3-0.3 1.3 0.8 1.8 2.1 1.9 2.3 0.1-1 0.1-1.9 0.6-2.6 0.5-0.6 1.1 0.3 1.2 0.4zm19.6-0.5c0 0.2 1.4 3.4 1.5 3.6 0 0.2-0.1 0.3-0.2 0.2-0.2-0.1-0.8-0.8-0.8-0.8 0 0 1.2 8.9 1.3 9.2 0.2 1.7 0.3 3 0.2 3.8 0 1.1-0.2 1.5-0.3 1.6-0.1 0.2-0.1 0.1-0.1-0.1 0-0.6-0.2-1.8-0.3-3.1-0.4-2.7-1.6-11.2-1.8-12.6 0-0.2-0.1-0.6-0.1-0.7 0 0 0.4-1 0.4-1.1 0.1-0.2 0.1-0.1 0.2 0z"/>
	</g>
</svg>