<svg version="1.2" xmlns="http://www.w3.org/2000/svg" viewBox="0 0 70 30" width="70" height="30">
	<title>New Project</title>
	<style>
		.s0 { fill: #191c4f } 
	</style>
	<g id="آل عمران">
		<path id="&lt;Path&gt;" class="s0" d="m38.8 23.7c-0.1 0.1-0.1 0.1-0.1 0.3-0.1 0.1-0.2 0.2-0.4 0.3-0.1 0.1-3.1 1.4-3.2 1.5-0.3 0.2-0.2 0-0.2-0.1q0 0 0.1-0.2c0-0.2 0.1-0.2 0.3-0.3 0.2-0.2 3.1-1.5 3.2-1.6 0.3-0.2 0.3 0 0.3 0.1z"/>
		<path id="&lt;Path&gt;" class="s0" d="m20 22.1c0 0 0 0.2-0.1 0.4-0.2 1 0 1.4 0 1.4 0.3 0.5 0.6 0.2 0.7-0.1 0.1-0.2 0.2-0.1 0.1-0.1q0 0.1 0 0.3c-0.1 0.6-0.3 0.8-0.5 0.8-0.4 0-0.5-0.4-0.6-0.7-0.1-1 0.2-1.8 0.3-2.1 0.1-0.2 0.2-0.1 0.1 0.1z"/>
		<path id="&lt;Path&gt;" class="s0" d="m26.7 21.9c0 0-0.1 0.2-0.1 0.4-0.3 1 0 1.4 0 1.5 0.3 0.4 0.6 0.1 0.7-0.2 0.1-0.2 0.1-0.1 0.1 0q0 0 0 0.2c-0.1 0.6-0.4 0.8-0.5 0.8-0.4 0-0.6-0.4-0.6-0.7-0.2-1 0.2-1.8 0.3-2.1 0.1-0.2 0.1-0.1 0.1 0.1z"/>
		<path id="&lt;Path&gt;" class="s0" d="m64.2 20.8c0 0 0 0.3 0 0.5 0 0.2-0.1 0.5-0.2 0.8-0.1 0.3-0.7 0.4-1.1 0.1-0.7 1.1-1.3 0.6-1.7 0.4-0.6-0.2-0.8 0.2-0.9 0.4-0.8 0.8-2.2 0.8-2.6 0.8-0.3 0.1 0-0.1 0.1-0.2 1.1-0.4 1.8-0.5 2.8-1.4 0.5-0.4 0.7-0.2 0.9-0.2 0.9 0.4 1.1 0 1.2-0.1 0.1-0.1 0.3-0.6 0.3-0.7 0.1-0.2 0.2-0.1 0.2 0.1 0 0.1-0.1 0.2-0.1 0.3 0.4 0.3 0.8 0.1 0.8 0 0 0 0-0.3 0-0.4q0-0.1 0.1-0.5c0.1-0.3 0.2 0 0.2 0.1z"/>
		<path id="&lt;Compound Path&gt;" fill-rule="evenodd" class="s0" d="m46.8 19.5c-0.3 0.9-1.6 1.5-1.9 1.5-1.2 0.4-1.3-0.8-1.2-1.6 0.1-0.9 0.7-1.9 0.7-1.9 0-0.1-1.3-1.1-1.4-1.2-0.1-0.1-0.2-0.2-0.3-0.3-0.1 0-0.1-0.1-0.1-0.1 0 0 0-0.9 0-1 0-0.1 0.1 0 0.2 0 0.1 0 1.4 0.6 1.6 0.7 0.1 0 0 0.1 0 0.2-0.1 0-0.6 0.1-0.6 0.1l1.1 0.8c0 0 1.6-2 1.7-2.2 0.2-0.2 0.2-0.1 0.1 0.1 0 0.2-0.3 1.1-0.4 1.2 0 0.1-0.8 1.2-0.8 1.2 0 0 1 0.6 1.2 1 0.5 0.6 0.2 1.2 0.1 1.5zm-1.9-1.7c0 0-0.7 1.1-0.8 1.3-0.3 0.7 0.4 0.9 0.7 0.8 0.2 0 1.1-0.5 1.6-0.8 0.4-0.4-1.3-1.2-1.5-1.3z"/>
		<path id="&lt;Compound Path&gt;" fill-rule="evenodd" class="s0" d="m65.6 18.4c-0.1 0.2-0.3 1.1-1.6 0.9-0.3-0.1-0.9-0.2-1.2-0.9-0.3 0.4-1 1.6-2.4 1.3-0.3 0-1.3-0.4-1.4-1.6 0 0-1.1 0.9-1.7 1.2 0.1 0.5 0.1 1-0.2 1.5-0.2 0.6-2.7 3.4-4.7 3.9-0.7 0.1-3.3 0.6-3.4-2.3q-0.1-0.9 0-1.4c-1.6 1.3-3.5 2.2-4.1 2.5-0.8 0.4-3.8 0.9-4.3 1-0.4 0-0.5-0.1-0.2-0.2 0.2-0.1 6.8-2.3 10.2-6q0.2-0.1 0-0.4c-0.1-0.2-1.2-2.2-1.3-2.5-0.1-0.3-0.2-0.6-0.3-0.7q0-0.2 0-0.3c0-0.2 0.1-0.7 0.2-0.8 0-0.2 0.1-0.1 0.1 0 0.1 0.1 1.2 1.2 1.3 1.3 0.1 0.1 0 0.2 0 0.2-0.1 0-0.6 0-0.6 0 0 0 0.7 1.2 0.9 1.6 0.5 1 0.2 1.8 0.1 2.2-0.3 0.6-0.9 1.2-1.6 1.8-0.1 0.5-0.3 2.9 1.9 3 0.4 0 1.5 0.1 3.8-1.7 0.5-0.5 1.1-1 1.6-1.7 0.2-0.3 0.3-0.7-0.1-0.7-0.3 0-2.7 0.9-3-0.5-0.1-0.4 0.1-3.8 2.4-2.1 0.2 0.2 0.7 0.6 1 1.2 0.4-0.2 1.1-0.6 2-1.3 0.3-0.2 0.5-0.3 0.5 0 0 0.3-0.2 2.3 1.9 1.7 0.2-0.1 1.1-0.3 1.8-1.9 0.2-0.4 0.4-0.4 0.3 0-0.2 0.4-0.4 0.7-0.2 0.9 0.2 0.2 0.8 0.7 1.6 0.6 0.2-0.1 0.4-0.2 0.3-0.4-0.1-0.2-0.4-0.6-0.4-0.6 0.1-0.3 0.2-0.7 0.2-0.8 0-0.2 0.1-0.3 0.2-0.2 0.1 0.1 0.8 1 0.4 2.2zm-9.6 0.1c-0.7-1-1.6-0.4-1.7-0.3-0.1 0.1-0.2 0.4 0.5 0.5 0.9 0 1.2-0.2 1.2-0.2z"/>
		<path id="&lt;Path&gt;" class="s0" d="m8.2 18.4c0 0 0 0.2-0.1 0.4-0.3 0.8-0.1 1.1-0.1 1.2 0.2 0.4 0.5 0.2 0.7-0.1 0-0.2 0.1-0.1 0 0q0 0.1 0 0.2c-0.2 0.5-0.4 0.6-0.5 0.6-0.3 0-0.4-0.4-0.5-0.6 0-0.8 0.4-1.6 0.4-1.8 0.1-0.2 0.2-0.1 0.1 0.1z"/>
		<path id="&lt;Path&gt;" class="s0" d="m10.2 18l0.9 0.7q0 0 0 0.1l-0.5 0.7q-0.1 0-0.1 0l-1-0.7q0 0 0 0l0.6-0.8q0 0 0.1 0z"/>
		<path id="&lt;Path&gt;" class="s0" d="m19.5 15.4c0 0-0.1 0.3-0.1 0.5-0.3 0.8-0.1 1.2 0 1.3 0.2 0.4 0.5 0.1 0.6-0.2 0.1-0.2 0.1-0.1 0.1 0q0 0.1 0 0.3c-0.1 0.5-0.3 0.6-0.5 0.7-0.3 0-0.5-0.4-0.5-0.6-0.1-1 0.2-1.8 0.3-2 0-0.3 0.1-0.2 0.1 0z"/>
		<path id="&lt;Path&gt;" class="s0" d="m23.9 14.4c0.6 0.1 0.4 0.4 0.3 0.6-0.5 0.7-1.1 1.1-1.6 1.3-0.5 0.2-0.2-0.2 0-0.4 0 0 0.3-0.2 0.7-0.5 0.5-0.3-0.7-0.2-1.1-0.3-0.5 0-0.6 0.2-0.8 0.4-0.1 0.2-0.3 0.1-0.2-0.2 0.1-0.1 0.2-0.4 0.6-0.8 0.3-0.3 1.4-0.2 2.1-0.1z"/>
		<path id="&lt;Path&gt;" class="s0" d="m35.2 19.7c-0.1 0.1-0.1 0.1-0.1 0.3-0.1 0.1-0.2 0.2-0.4 0.3-0.1 0.1-3.1 1.4-3.2 1.5-0.3 0.2-0.2 0.1-0.2 0q0-0.1 0.1-0.3c0-0.2 0.1-0.2 0.3-0.3 0.2-0.1 3.1-1.5 3.3-1.6 0.2-0.2 0.2 0 0.2 0.1z"/>
		<path id="&lt;Path&gt;" class="s0" d="m45.5 12.4l1 0.7q0 0 0 0l-0.6 0.8q0 0 0 0l-1-0.7-0.4 0.7q-0.1 0-0.1 0l-0.9-0.7q-0.1 0-0.1-0.1l0.6-0.7q0 0 0.1 0l0.9 0.6 0.5-0.6q0 0 0 0z"/>
		<path id="&lt;Path&gt;" class="s0" d="m63.2 12.4c0 0-0.1 0.3-0.2 0.4-0.3 0.8-0.1 1.2-0.1 1.3 0.3 0.4 0.6 0.2 0.7-0.1 0-0.2 0.1-0.1 0.1 0q0 0.1-0.1 0.2c-0.1 0.6-0.3 0.7-0.5 0.7-0.3 0-0.4-0.4-0.5-0.7 0-0.9 0.4-1.6 0.5-1.8 0-0.3 0.1-0.2 0.1 0z"/>
		<path id="&lt;Path&gt;" class="s0" d="m53.8 11.9c0 0-0.1 0.3-0.1 0.5-0.4 0.9-0.2 1.3-0.2 1.4 0.3 0.4 0.6 0.2 0.8-0.2 0-0.1 0.1 0 0.1 0q-0.1 0.1-0.1 0.3c-0.2 0.6-0.4 0.7-0.6 0.7-0.3 0-0.5-0.5-0.5-0.7 0-1 0.4-1.8 0.5-2 0.1-0.3 0.2-0.2 0.1 0z"/>
		<path id="&lt;Path&gt;" class="s0" d="m14.5 11.6c-0.1 0.1-0.1 0.1-0.2 0.3 0 0.1-0.1 0.2-0.3 0.3-0.1 0.1-4.9 2.1-5.5 2.4-0.6 0.4-0.5 0.6-0.4 0.6 0.4 0.2 0.6 0.5 0.4 0.9q-0.1 0.1-0.1 0c-0.1 0-0.2-0.2-0.4-0.2-0.3-0.1-0.3-0.5-0.2-1 0.1-0.3 0.2-0.5 0.5-0.7 0.4-0.3 5.8-2.6 5.9-2.7 0.3-0.2 0.3 0 0.3 0.1z"/>
		<path id="&lt;Path&gt;" class="s0" d="m24.1 9.8c0 0.1 0 0.1-0.1 0.3 0 0.1-0.1 0.2-0.3 0.3-0.1 0-5 2.1-5.5 2.4-0.6 0.4-0.5 0.6-0.4 0.6 0.4 0.2 0.6 0.5 0.3 0.9q0 0.1 0 0c-0.1-0.1-0.2-0.2-0.4-0.2-0.3-0.1-0.4-0.5-0.2-1 0-0.3 0.2-0.6 0.5-0.7 0.4-0.4 5.8-2.6 5.9-2.7 0.3-0.2 0.3 0 0.2 0.1z"/>
		<path id="&lt;Path&gt;" class="s0" d="m9.8 9.1c0.1 0.2 0.1 0.6 0 0.8-0.1 0.2-0.2 0.1-0.3-0.1 0 0-0.2-0.1-0.3-0.2-0.5-0.4-0.6 0.5-0.7 0.9 0 0.2 0.1 1.2 0 1.7 0 0.2-0.1 0.2-0.2 0.1-0.4-1.2-1.1-1.6-1.2-1.7-0.2-0.2-0.2 0-0.2 0.1-0.1 0.1-0.1 0.1-0.2 0-0.1 0-0.4-0.2-0.6-0.3-0.1-0.1-0.1-0.6-0.1-0.7 0-0.3 0.2-0.5 0.3-0.4 1.4 0.6 1.9 1.9 2 2.1 0-1-0.1-1.8 0.4-2.5 0.4-0.6 1 0.1 1.1 0.2z"/>
		<path id="&lt;Path&gt;" class="s0" d="m11.8 8.8c0 0-0.1 0.2-0.1 0.4-0.3 1-0.1 1.4 0 1.5 0.3 0.4 0.6 0.1 0.7-0.2 0.1-0.2 0.1-0.1 0.1 0q0 0 0 0.2c-0.1 0.6-0.4 0.8-0.5 0.8-0.4 0-0.6-0.4-0.6-0.7-0.2-1 0.2-1.8 0.3-2.1 0-0.2 0.1-0.1 0.1 0.1z"/>
		<path id="&lt;Path&gt;" class="s0" d="m33.5 8.6c0 0-0.1 0.5-0.2 0.8-0.5 1.5-0.2 2.2-0.2 2.4 0.4 0.7 0.9 0.3 1.1-0.2 0.1-0.3 0.1-0.2 0.1-0.1q0 0.2-0.1 0.5c-0.2 1-0.5 1.2-0.8 1.2-0.5 0-0.7-0.8-0.7-1.2-0.1-1.6 0.5-3.1 0.6-3.5 0.2-0.4 0.3-0.2 0.2 0.1z"/>
		<path id="&lt;Path&gt;" class="s0" d="m53 8.1c-0.1 0.1-0.1 0.1-0.2 0.3 0 0.2-0.1 0.2-0.3 0.3-0.2 0.1-5.1 2.9-5.1 3-0.3 0.2-0.3 0.1-0.3 0q0-0.1 0.1-0.3c0-0.2 0.1-0.2 0.3-0.3 0.2-0.1 5.1-3 5.2-3.1 0.3-0.1 0.3 0 0.3 0.1z"/>
		<path id="&lt;Path&gt;" class="s0" d="m19.3 8.1c0 0-0.1 0.2-0.1 0.4-0.3 0.9-0.1 1.3 0 1.4 0.3 0.4 0.6 0.1 0.6-0.2 0.1-0.2 0.1-0.1 0.1 0q0 0 0 0.2c-0.1 0.6-0.3 0.7-0.5 0.7-0.3 0-0.5-0.4-0.5-0.6-0.1-0.9 0.2-1.7 0.3-2 0-0.2 0.1-0.1 0.1 0.1z"/>
		<path id="&lt;Path&gt;" class="s0" d="m58.9 8.4c0.1 0.2 0.1 0.6 0 0.8-0.1 0.2-0.2 0-0.3-0.1 0 0-0.2-0.1-0.3-0.2-0.5-0.4-0.7 0.4-0.7 0.8-0.1 0.2-0.1 1.1-0.2 1.7 0 0.2-0.2 0.2-0.2 0-0.4-1.1-1-1.7-1.1-1.8-0.1-0.1-0.2 0.1-0.2 0.2 0 0-0.1 0-0.2 0 0 0-0.4-0.3-0.5-0.4-0.2-0.1-0.1-0.6-0.1-0.7 0-0.3 0.2-0.4 0.3-0.4 1.3 0.8 1.8 2.1 1.8 2.3 0.1-1 0.1-1.9 0.6-2.5 0.5-0.6 1.1 0.2 1.1 0.3z"/>
		<path id="&lt;Path&gt;" class="s0" d="m30.5 8.4c0.1 0.2 0 0.6-0.1 0.8 0 0.2-0.2 0-0.3-0.1 0 0-0.1-0.1-0.2-0.2-0.5-0.5-0.7 0.4-0.7 0.7-0.1 0.3-0.1 1.2-0.2 1.8 0 0.2-0.2 0.2-0.2 0-0.4-1.1-1-1.7-1.1-1.8-0.1-0.1-0.2 0.1-0.2 0.2-0.1 0.3-0.5 1.1-1 1.5-0.6 0.6-1.9 1-2.1 1.1-0.2 0-0.1-0.1 0-0.2 2.4-1.5 2.7-2.2 2.8-2.5-0.1 0-0.4-0.2-0.5-0.3-0.1-0.1 0-0.6 0-0.7 0-0.3 0.2-0.4 0.3-0.4 1.3 0.8 1.7 2 1.8 2.3 0.1-1 0.1-1.9 0.6-2.5 0.4-0.6 1.1 0.2 1.1 0.3z"/>
		<path id="&lt;Compound Path&gt;" fill-rule="evenodd" class="s0" d="m63.8 10.5c-0.1 0.1-0.1 0-0.2-0.1-0.1-0.1-0.2-0.3-0.4-0.3-0.2 0.4-0.2 0.4-1 1.1-1.8 1.6-3.8 2.1-3.9 2.2-0.1 0-0.2-0.1 0-0.2 0.6-0.5 3.2-1.6 4.6-3.3 0 0-0.5-0.1-0.7-0.3-0.3-0.2-0.2-1 0-1.3 0.5-0.8 1-0.4 1.1-0.2 0.4 0.7 0.2 1.5 0.2 1.5 0.2 0.1 0.4 0.4 0.3 0.9zm-0.9-2c-0.1 0-0.2 0-0.5 0.3-0.1 0.1 0 0.2 0.2 0.3 0.2 0.1 0.6 0.3 0.6 0.3 0-0.1 0-0.6-0.3-0.9z"/>
		<path id="&lt;Path&gt;" class="s0" d="m36.6 7.8c0 0.1 1.1 2.8 1.2 3 0 0.2-0.1 0.2-0.2 0.1 0-0.1-0.6-0.6-0.6-0.6 0 0 0.8 5.2 1.1 7.6 0 0 0.2 0.9 0.1 2-0.1 1.2-0.4 1.7-0.8 2.1-3.5 3.5-6.3 2.6-6.7 2.4-2.4-0.8-1.4-4-1.4-4-2.9 1.1-4.7 0.7-4.9 0.7 0 0 0.1 0.4 0 0.8 0 0.6-0.3 0.6-0.4 0.6-1.3-0.2-1.6-1.2-1.8-1.7-0.1-0.6-0.3-0.5-0.6-0.5-1.3 0-3.7 2.1-4 2.5-1.9 2.3-3.2 2.2-3.6 2.1-2-0.4-1.5-2.7-1.3-3.3q-0.2 0.1-0.3 0.2c-3.7 2.3-5.5 1.3-5.9 1-2.4-1.4-1.1-4.7-0.9-5.3q0 0 0 0c-0.4-0.2-0.5-0.7-0.6-1-0.1-1.6 0.5-2.9 0.6-3.3 0.2-0.4 0.3-0.3 0.2 0.1 0 0-0.1 0.4-0.2 0.7-0.4 1.5-0.1 2.1-0.1 2.3 0.5 0.7 1 0.3 1.2-0.3 0.1-0.3 0.2-0.1 0.1 0q0 0.1 0 0.4c-0.3 0.9-0.6 1.2-0.9 1.2q0 0-0.1 0c-0.7 1.7-0.2 2.8-0.1 3.1 0.8 1.7 2.9 1.4 3.4 1.3 2.5-0.4 4.8-2.5 5.2-2.9 0.4-0.3 0.2-0.5 0.1-0.8-0.2-0.2-1.3-2.4-1.4-2.8 0 0 0.1-0.8 0.2-0.9 0.1-0.2 0.1 0 0.2 0.1 0 0.1 1 1 1.1 1.1 0.1 0.2 0.1 0.2 0 0.2-0.1 0-0.5-0.1-0.5-0.1 0 0 0.6 1.2 0.7 1.5 0.4 0.8 0.2 1.7 0.1 2.1-0.3 0.5-1.1 1.3-1.7 1.8q0 0.1 0 0.1c-0.8 2.3 0.3 2.5 0.8 2.6 1.2 0.2 2.8-1.6 3.3-2.1 2.8-2.8 4.3-2.7 5-2.8 0 0 0.1-0.2 0.2-0.4 0.1-0.3 0.1 0 0.3 0.1 2.8 2.3 6 0.7 6 0.7-2.7-1.7-2.2-3.4-2.1-3.9 0.4-1.8 2.1-2 2.5-2 1.8-0.2 3.1 0.5 3.4 0.8 0.3 0.2 0 0.3-0.1 0.2-2.3-0.9-5 0.7-5.2 0.8-0.2 0.2-0.3 0.3-0.2 0.6 1 2.5 3.4 2.6 3.7 2.6 0.4 0 3.4-1.4 3.6-1.5q0.4-0.2 0.2 0.1c-0.1 0.2-0.3 0.9-0.4 1-0.1 0-4.2 1.7-4.3 1.9-1 2.7 1.6 3.3 2.1 3.3 2.6 0.2 5.6-2.6 5.8-2.9 0.1-0.3-0.1-2-0.3-3.2-0.5-3.2-1.2-8.4-1.3-8.7 0 0 0.3-0.8 0.3-0.9 0.1-0.1 0.1 0 0.2 0.1z"/>
		<path id="&lt;Path&gt;" class="s0" d="m15.7 7.7c0.1 0.1 1.2 2.9 1.3 3 0 0.2-0.1 0.2-0.2 0.1-0.1 0-0.6-0.6-0.6-0.6 0 0 0.8 5.5 0.9 5.8 0.5 4.1 0.1 5 0 5.2-0.1 0.2-0.1 0.1-0.1-0.1-0.1-1.6-1-7.5-1-7.9-0.1-0.3-0.6-4.2-0.7-4.7 0 0 0.3-0.7 0.3-0.8 0.1-0.1 0.1-0.1 0.1 0z"/>
		<path id="&lt;Path&gt;" class="s0" d="m39.7 7.7c0 0.1 1.2 2.9 1.2 3 0.1 0.2 0 0.2-0.1 0.1-0.1 0-0.7-0.6-0.7-0.6 0 0 1 6.8 1 7.1 0.7 4 0.1 5.1 0.1 5.3-0.1 0.1-0.2 0.1-0.2-0.1 0-1.6-0.9-7.6-1-7.9 0-0.4-0.7-5.6-0.7-6.1 0 0 0.2-0.7 0.3-0.8 0-0.1 0.1-0.1 0.1 0z"/>
		<path id="&lt;Compound Path&gt;" fill-rule="evenodd" class="s0" d="m45.3 10.2c-0.1 0.1-0.1 0-0.2-0.1-0.1 0-0.4-0.3-0.4-0.3 0 0-0.4 0.8-1.1 1.3-1.2 1-2.2 1.1-2.3 1.1-0.1 0.1-0.1 0 0.1-0.2 0.7-0.4 1.7-0.7 3-2.3 0 0-0.4-0.2-0.7-0.4-0.3-0.2-0.2-0.9 0-1.2 0.5-0.8 1-0.4 1.1-0.3 0.4 0.7 0.2 1.5 0.2 1.5 0.2 0.1 0.4 0.4 0.3 0.9zm-0.9-1.9c-0.1-0.1-0.2-0.1-0.5 0.3 0 0.1 0 0.2 0.2 0.2 0.2 0.1 0.6 0.3 0.6 0.3 0-0.1 0-0.6-0.3-0.8z"/>
		<path id="&lt;Path&gt;" class="s0" d="m41.4 6.8c0 0.1-0.1 0 0-0.1 0-0.2 0.1-0.5 0.2-0.8 0-0.2-0.1-0.1-0.3 0-1.2 0.7-2.4 0.8-3.2 0.7 0 0.2-0.1 0.5-0.1 0.6-0.1 0.1-0.1 0.2-0.1 0.1-0.1-0.5-0.4-0.8-0.6-1 0 0 0.1-0.4 0.2-0.5 0.1-0.1 0.1-0.1 0.3-0.1 1.9 0.5 3.6-0.5 4-0.7 0.3-0.2-0.3 1.7-0.4 1.8z"/>
	</g>
</svg>