<svg version="1.2" xmlns="http://www.w3.org/2000/svg" viewBox="0 0 70 30" width="70" height="30">
	<title>New Project</title>
	<style>
		.s0 { fill: #191c4f } 
	</style>
	<g id="النساء">
		<path id="&lt;Path&gt;" class="s0" d="m28.9 23.5c-0.1 0.2-0.1 0.2-0.2 0.4-0.1 0.2-0.2 0.2-0.4 0.3-0.3 0.2-4 1.6-4.1 1.7-0.4 0.2-0.4 0.1-0.3-0.1q0 0 0.1-0.3c0-0.2 0.1-0.2 0.4-0.3 0.2-0.2 3.9-1.6 4.2-1.8 0.4-0.2 0.3 0 0.3 0.1z"/>
		<path id="&lt;Path&gt;" class="s0" d="m16.5 23.3c0.4 0.1 0.5 0.6 0.4 0.8-0.1 1.1-0.7 1.9-0.9 2.1-0.2 0.3-0.2 0.1-0.1-0.1 0 0 0.1-0.2 0.2-0.4 0.6-0.9 0.5-1.4 0.5-1.5-0.2-0.5-0.6-0.4-0.8 0-0.1 0.1-0.2 0-0.1 0q0-0.1 0.1-0.3c0.3-0.6 0.6-0.7 0.7-0.6z"/>
		<path id="&lt;Path&gt;" class="s0" d="m9.9 21.1c0 0.1 0 0.2-0.1 0.4-0.1 0.2-0.3 0.2-0.5 0.3-0.2 0.1-3.3 1.2-3.4 1.2-0.4 0.3-0.3 0.1-0.3 0q0.1-0.1 0.1-0.4c0.1-0.1 0.2-0.2 0.4-0.3 0.3-0.2 3.3-1.2 3.6-1.3 0.4-0.2 0.3 0 0.2 0.1z"/>
		<path id="&lt;Path&gt;" class="s0" d="m63.8 19.6c0 0 0.1 0.3 0.1 0.6 0 0.2-0.2 0.6-0.3 1-0.1 0.3-0.9 0.5-1.4 0.1-0.9 1.4-1.6 0.7-2.1 0.5-0.7-0.3-1 0.2-1.2 0.4-0.9 1.1-2.7 1.1-3.1 1.1-0.5 0.1-0.1-0.2 0.1-0.3 1.4-0.5 2.2-0.5 3.5-1.7 0.5-0.6 0.9-0.3 1.1-0.2 1.1 0.5 1.3 0 1.5-0.2 0.1-0.1 0.3-0.7 0.4-0.9 0.1-0.2 0.2-0.1 0.2 0.1 0 0.1-0.1 0.3-0.1 0.5 0.4 0.3 0.9 0 1-0.1 0 0 0-0.4 0-0.5q0-0.1 0.1-0.6c0.1-0.3 0.2 0 0.2 0.2z"/>
		<path id="&lt;Path&gt;" class="s0" d="m7.8 16.2c0.1 0.2-0.2 0.6-0.3 0.8-0.1 0.2-0.2 0.2-0.4-0.1-0.4-0.5-1-0.1-1.2 0.1-0.2 0.1-0.2 0.3 0.4 0.8 0.7 0.6 2 0.2 2.4 0.1 0.3-0.1 0.6-0.1 0.5 0.1 0 0.3-0.1 0.7-0.1 0.7-1.3 0.3-3.1 1.2-3.6 1.4q0 0.1-0.2 0.1c-0.2 0.1-0.2 0-0.2-0.1q0-0.2 0.2-0.6c0-0.3 0.3-0.4 0.6-0.5 0 0-0.5-0.4-0.8-0.9-0.4-0.5 0.5-1.8 1.4-2.3 0.8-0.4 1.2 0.2 1.3 0.4z"/>
		<path id="&lt;Compound Path&gt;" fill-rule="evenodd" class="s0" d="m42.1 17.9c-0.3 1.2-2 1.8-2.4 1.9-1.4 0.5-1.5-1-1.4-2 0.1-1.1 0.8-2.4 0.8-2.4 0-0.1-1.6-1.3-1.7-1.4-0.1-0.2-0.3-0.3-0.4-0.4-0.2-0.1-0.1-0.2-0.1-0.2 0 0 0-1.1 0-1.2 0-0.1 0-0.1 0.2 0 0.1 0 1.8 0.7 1.9 0.8 0.2 0.1 0.2 0.2 0.1 0.2-0.1 0.1-0.7 0.2-0.7 0.2l1.4 1c0 0 1.9-2.5 2.1-2.8 0.2-0.2 0.1-0.1 0.1 0.2 0 0.2-0.4 1.3-0.5 1.5-0.1 0.1-1.1 1.5-1.1 1.5 0 0 1.3 0.7 1.6 1.2 0.6 0.8 0.2 1.5 0.1 1.9zm-2.4-2.2c0 0-0.8 1.5-1 1.8-0.3 0.8 0.5 1 0.8 1 0.4-0.1 1.5-0.7 2-1.1 0.6-0.4-1.5-1.5-1.8-1.7z"/>
		<path id="&lt;Compound Path&gt;" fill-rule="evenodd" class="s0" d="m65.6 16.6c-0.1 0.2-0.4 1.3-1.9 1-0.4-0.1-1.2-0.2-1.5-1.1-0.4 0.5-1.3 2-3.1 1.7-0.4 0-1.6-0.5-1.7-2.1 0 0-1.4 1.2-2.1 1.6 0 0.5 0 1.2-0.3 1.9-0.2 0.7-3.4 4.2-5.9 4.8-0.9 0.2-4.1 0.8-4.3-2.9 0-0.7 0-1.3 0.1-1.7-2 1.6-4.5 2.8-5.2 3.1-1 0.5-4.7 1.1-5.4 1.2-0.5 0.1-0.5 0-0.3-0.2 0.3-0.1 8.6-2.9 12.9-7.4 0.1-0.2 0.1-0.4 0-0.6-0.1-0.2-1.5-2.8-1.6-3.1-0.1-0.4-0.3-0.8-0.4-0.9q-0.1-0.2 0-0.4c0-0.2 0.1-0.9 0.1-1 0.1-0.2 0.2-0.1 0.3 0 0 0.1 1.4 1.5 1.5 1.7 0.2 0.1 0.1 0.2 0 0.2 0 0-0.7 0-0.7 0 0 0 0.9 1.5 1.2 2.1 0.5 1.2 0.2 2.2 0 2.6-0.4 0.8-1.1 1.6-1.9 2.3-0.2 0.6-0.4 3.6 2.3 3.7 0.5 0 1.9 0.2 4.7-2.1 0.7-0.5 1.4-1.2 2.1-2.1 0.2-0.3 0.4-0.9-0.1-0.9-0.4 0.1-3.4 1.2-3.8-0.6-0.1-0.5 0.1-4.7 3-2.6 0.3 0.2 0.9 0.7 1.3 1.5 0.5-0.2 1.4-0.7 2.5-1.6 0.3-0.3 0.6-0.4 0.6 0 0 0.4-0.3 2.8 2.4 2.1 0.3-0.1 1.4-0.3 2.2-2.4 0.2-0.5 0.5-0.5 0.4 0-0.2 0.5-0.5 0.9-0.3 1.2 0.3 0.2 1 0.8 2 0.6 0.3 0 0.5-0.1 0.4-0.4-0.1-0.3-0.5-0.8-0.5-0.8 0.1-0.3 0.2-0.9 0.3-1 0-0.2 0.1-0.3 0.2-0.2 0.1 0.2 1 1.3 0.5 2.8zm-12 0.1c-0.9-1.3-2-0.5-2.2-0.4-0.1 0.1-0.2 0.5 0.8 0.6 1 0 1.4-0.2 1.4-0.2z"/>
		<path id="&lt;Path&gt;" class="s0" d="m6 9.8c0 0-0.1 0.4-0.2 0.6-0.4 1.3-0.1 1.9 0 2 0.4 0.7 0.9 0.3 1.1-0.2 0-0.2 0.1-0.1 0.1 0q0 0.1-0.1 0.4c-0.2 0.8-0.5 1-0.8 1-0.5 0-0.8-0.6-0.8-0.9-0.2-1.4 0.4-2.6 0.5-3 0.1-0.3 0.3-0.2 0.2 0.1z"/>
		<path id="&lt;Path&gt;" class="s0" d="m40.5 9l1.2 0.9q0 0 0 0.1l-0.7 0.9q0 0-0.1 0l-1.1-0.8-0.6 0.8q-0.1 0-0.1 0l-1.2-0.8q0-0.1 0-0.1l0.7-1q0 0 0.1 0l1.1 0.8 0.6-0.8q0.1 0 0.1 0z"/>
		<path id="&lt;Path&gt;" class="s0" d="m62.6 9.1c0 0-0.1 0.3-0.2 0.5-0.4 1-0.2 1.5-0.1 1.6 0.3 0.5 0.7 0.2 0.8-0.2 0.1-0.2 0.1-0.1 0.1 0q0 0.1-0.1 0.3c-0.1 0.7-0.4 0.8-0.6 0.8-0.4 0-0.6-0.5-0.6-0.8-0.1-1.1 0.4-2 0.5-2.3 0.1-0.3 0.2-0.2 0.2 0.1z"/>
		<path id="&lt;Path&gt;" class="s0" d="m50.8 8.5c0 0-0.1 0.3-0.1 0.5-0.4 1.1-0.2 1.6-0.2 1.7 0.4 0.6 0.8 0.3 0.9-0.1 0.1-0.2 0.2-0.1 0.2 0q-0.1 0.1-0.1 0.3c-0.2 0.7-0.5 0.9-0.7 0.9-0.4-0.1-0.6-0.6-0.6-0.9-0.1-1.2 0.4-2.2 0.5-2.5 0.1-0.3 0.2-0.2 0.1 0.1z"/>
		<path id="&lt;Path&gt;" class="s0" d="m5.9 5.1c0 0-0.1 0.4-0.2 0.6-0.3 1.1-0.1 1.6 0 1.7 0.3 0.5 0.8 0.2 0.9-0.2 0.1-0.2 0.2-0.1 0.1 0q0 0.1 0 0.3c-0.2 0.7-0.5 0.9-0.7 0.9-0.5 0-0.7-0.5-0.7-0.8-0.2-1.2 0.3-2.2 0.4-2.5 0.1-0.3 0.2-0.2 0.2 0z"/>
		<path id="&lt;Path&gt;" class="s0" d="m14.9 14.1c0 0-0.1 0.5-0.2 0.7-0.5 1.5-0.2 2.2-0.1 2.3 0.5 0.7 1.1 0.3 1.3-0.3 0.1-0.2 0.2-0.1 0.1 0q0 0.1 0 0.5c-0.3 0.9-0.7 1.1-1 1.1-0.6 0-0.9-0.7-0.9-1-0.2-1.6 0.4-3 0.6-3.4 0.1-0.4 0.3-0.2 0.2 0.1z"/>
		<path id="&lt;Path&gt;" class="s0" d="m22.2 13c0.2 0.2 0.2 0.7 0.1 0.9-0.1 0.2-0.2 0.1-0.4-0.1 0 0-0.1-0.1-0.3-0.2-0.6-0.4-0.7 0.5-0.7 1 0 0.3 0.1 1.4 0 2 0 0.2-0.1 0.2-0.2 0-0.5-1.2-1.3-1.7-1.5-1.8-0.1-0.1-0.2 0.1-0.2 0.1 0 0.1-0.1 0.1-0.2 0.1 0 0-0.5-0.2-0.7-0.4-0.1-0.1-0.1-0.6-0.1-0.8 0-0.3 0.2-0.5 0.3-0.4 1.6 0.6 2.2 2 2.3 2.3 0-1.1-0.1-2.1 0.4-2.9 0.4-0.7 1.2 0.1 1.2 0.2z"/>
		<path id="&lt;Path&gt;" class="s0" d="m28.1 11.8c0 0-0.1 0.4-0.2 0.6-0.3 1.1-0.1 1.6 0 1.7 0.3 0.5 0.8 0.2 0.9-0.2 0.1-0.2 0.2-0.1 0.1 0q0 0.1 0 0.3c-0.2 0.7-0.5 0.9-0.7 0.9-0.5 0-0.7-0.5-0.7-0.8-0.2-1.2 0.3-2.2 0.4-2.5 0.1-0.3 0.2-0.2 0.2 0z"/>
		<path id="&lt;Path&gt;" class="s0" d="m24.6 11l1.2 0.8q0 0.1 0 0.1l-0.7 1q-0.1 0-0.1 0l-1.2-0.9q0 0 0-0.1l0.7-0.9q0-0.1 0.1 0z"/>
		<path id="&lt;Path&gt;" class="s0" d="m21.6 7.5c0 0.1 0 0.2-0.1 0.4-0.1 0.2-0.3 0.3-0.5 0.4-0.2 0.2-8.8 4.7-8.9 4.8-0.4 0.3-0.4 0.1-0.3 0q0-0.1 0.1-0.4c0-0.2 0.1-0.3 0.4-0.4 0.3-0.2 8.7-4.8 9-4.9 0.4-0.3 0.4-0.1 0.3 0.1z"/>
		<path id="&lt;Path&gt;" class="s0" d="m26.3 6.9c0 0 0.1 0.7 0 1.2-0.4 1.2-1.2 1-1.4 0.9-0.9 1.1-1.5 0.5-1.7 0.1-0.1-0.3 0.1-0.8 0.1-1 0.1-0.2 0.2-0.1 0.2 0.1 0 0.1 0 0.3 0 0.4 0.4 0.6 1.1 0.1 1.2-0.1 0.1-0.2 0.1-0.4 0.1-0.6-0.1-0.2-0.1-0.3 0.1-0.5 0.1-0.3 0.1-0.1 0.1 0.1 0.1 0.2 0 0.6 0.1 0.7 0.3 0.3 0.9-0.1 0.9-0.3 0-0.1 0-0.5-0.1-0.6 0-0.2 0-0.3 0.2-0.6 0.1-0.3 0.2-0.1 0.2 0.2z"/>
		<path id="&lt;Path&gt;" class="s0" d="m16.9 5c0.1 0.2 0 0.7-0.1 1-0.1 0.2-0.3 0-0.4-0.1 0 0-0.1-0.2-0.3-0.3-0.6-0.6-0.8 0.5-0.9 0.9-0.1 0.4-0.1 1.5-0.2 2.2 0 0.3-0.2 0.3-0.3 0.1-0.4-1.5-1.2-2.1-1.4-2.3-0.1-0.1-0.2 0.1-0.2 0.2-0.1 0.1-0.2 0.1-0.2 0-0.1 0-0.6-0.3-0.7-0.5-0.2-0.1-0.1-0.7-0.1-0.9 0-0.4 0.3-0.5 0.4-0.4 1.6 0.9 2.2 2.5 2.2 2.8 0.1-1.2 0.2-2.3 0.8-3.1 0.6-0.7 1.3 0.3 1.4 0.4z"/>
		<path id="&lt;Path&gt;" class="s0" d="m22.2 3.7c0 0-0.1 0.3-0.2 0.5-0.3 1-0.1 1.4-0.1 1.5 0.3 0.5 0.7 0.3 0.8-0.1 0.1-0.2 0.1-0.1 0.1 0q0 0.1-0.1 0.3c-0.1 0.6-0.4 0.7-0.6 0.7-0.4 0-0.5-0.5-0.5-0.7-0.1-1.1 0.3-2 0.5-2.3 0.1-0.2 0.2-0.1 0.1 0.1z"/>
		<path id="&lt;Path&gt;" class="s0" d="m49.8 3.7c0 0.1-0.1 0.1-0.1 0.3-0.1 0.2-0.2 0.3-0.4 0.4-0.3 0.1-6.4 3.7-6.5 3.8-0.4 0.2-0.3 0-0.3-0.1q0 0 0.1-0.3c0-0.2 0.1-0.3 0.4-0.4 0.2-0.2 6.3-3.7 6.5-3.8 0.4-0.2 0.4-0.1 0.3 0.1z"/>
		<path id="&lt;Path&gt;" class="s0" d="m57.3 4c0.1 0.3 0 0.8-0.1 1.1-0.1 0.1-0.3 0-0.4-0.2 0 0-0.1-0.2-0.3-0.3-0.6-0.5-0.8 0.5-0.9 1-0.1 0.3-0.1 1.5-0.2 2.2-0.1 0.2-0.2 0.2-0.3 0-0.4-1.4-1.2-2.1-1.4-2.2-0.1-0.2-0.2 0-0.3 0.1 0 0.1-0.1 0.1-0.1 0.1-0.1-0.1-0.6-0.4-0.7-0.5-0.2-0.2-0.1-0.7-0.1-0.9 0-0.4 0.3-0.5 0.4-0.5 1.6 1 2.2 2.6 2.2 2.8 0.1-1.2 0.2-2.3 0.8-3.1 0.5-0.7 1.3 0.3 1.4 0.4z"/>
		<path id="&lt;Compound Path&gt;" fill-rule="evenodd" class="s0" d="m63.3 6.6c0 0.2-0.1 0.1-0.2-0.1-0.1-0.1-0.3-0.3-0.5-0.4-0.3 0.5-0.2 0.6-1.3 1.5-2.2 1.9-4.7 2.6-4.8 2.6-0.2 0.1-0.2 0 0-0.2 0.8-0.6 4-2 5.7-4.1 0 0-0.5-0.2-0.9-0.4-0.3-0.3-0.2-1.2 0.1-1.6 0.6-1 1.2-0.5 1.3-0.3 0.5 0.9 0.2 1.9 0.2 1.9 0.3 0.2 0.6 0.5 0.4 1.1zm-1-2.4c-0.2-0.1-0.3-0.1-0.7 0.4-0.1 0.1 0.1 0.2 0.3 0.3 0.2 0.1 0.7 0.3 0.7 0.3 0-0.1 0-0.7-0.3-1z"/>
		<path id="&lt;Path&gt;" class="s0" d="m29.4 3.3c0 0.1 1.5 3.6 1.5 3.8 0.1 0.2 0 0.3-0.1 0.1-0.2-0.1-0.9-0.7-0.9-0.7 0 0 1.8 10.8 2 11.5 0.2 1.2 0.1 1.6 0 2-0.4 1.6-0.7 1.7-1 1.9-1.6 0.8-2.5 0.3-2.8 0.1-1-0.4-1.4-1.5-1.4-1.5-0.1 1.1-0.9 1.5-1.2 1.5-1.1 0.1-1.8-0.6-2-0.7-0.6 1.2-1.4 1.3-1.7 1.3-1 0-1.2-0.9-1.3-1.1q-0.4 0.7-1 0.9c-1.7 1-2.6-0.3-2.9-0.6-1.7 1.9-3.8 1.2-4.2 1-1.7-0.7-1.9-2.5-2.1-3.5-0.2-1.2-0.6-6.6-0.7-7.5-0.1-0.5-0.5-4.7-1-6.5 0 0 0.3-0.9 0.3-1 0.1-0.2 0.2-0.2 0.3 0 0.3 0.6 0.5 2.4 0.6 3.2 0.2 0.9 0.8 7.7 0.8 8.2 0.2 2.2 0.7 3.8 0.9 4.1 1.1 2.5 3 1.9 3.6 1.7 1.2-0.4 2-1.6 2.1-1.9 0.2-0.2 0.3 0.1 0.3 0.2-0.1 0.1-0.1 0.4-0.2 0.6 0.3 1.4 1.7 1.1 2.4 0.7 0.6-0.4 1.2-1.3 1.4-1.5 0.2-0.2 0.3 0 0.2 0.1 0 0.1-0.1 0.3-0.2 0.5 0 1.1 1.4 1 1.8 0.6 0.3-0.3 0.7-1.2 0.9-1.5 0.2-0.3 0.2 0 0.2 0.2 0 0.1 0 0.1 0 0.2 0.1 0.6 1.1 0.9 1.3 0.9 0.7 0.1 1-0.5 1-0.8-0.1-1.2-1-3.7-1.2-4.2 0 0 0.1-0.8 0.2-1.1 0.1-0.2 0.1-0.2 0.3 0 0.6 1 1.2 3.3 1.3 3.8 0.2 1.5 1 2 1.2 2.2 1.3 1 3-0.2 3.1-0.2 0.1-0.1 0.1-0.4 0.1-0.6-0.1-0.4-1.4-7.9-1.4-7.9-0.5-3.5-1-7.2-1.1-7.5 0 0 0.4-0.9 0.4-1 0.1-0.2 0.2-0.1 0.2 0z"/>
		<path id="&lt;Path&gt;" class="s0" d="m33.1 3.3c0.1 0.1 1.5 3.5 1.6 3.7 0 0.2-0.1 0.3-0.2 0.2-0.1-0.2-0.8-0.8-0.8-0.8 0 0 1.1 8.4 1.2 8.8 0.8 5.1 0.1 6.4 0 6.6-0.1 0.2-0.2 0.1-0.1-0.1-0.1-2-1.2-9.4-1.3-9.9 0-0.4-0.8-6.9-0.9-7.5 0 0 0.3-1 0.4-1.1 0-0.2 0.1-0.1 0.1 0.1z"/>
		<path id="&lt;Compound Path&gt;" fill-rule="evenodd" class="s0" d="m40.2 6.3c-0.1 0.1-0.1 0-0.3-0.1 0-0.1-0.4-0.4-0.4-0.4 0 0-0.5 1-1.3 1.6-1.6 1.2-2.9 1.4-2.9 1.4-0.2 0.1-0.2-0.1 0-0.2 1-0.6 2.1-1 3.8-3 0 0-0.6-0.2-0.9-0.5-0.4-0.2-0.2-1.1 0.1-1.5 0.6-1 1.2-0.5 1.3-0.3 0.5 0.9 0.2 1.8 0.2 1.8 0.3 0.2 0.6 0.6 0.4 1.2zm-1.1-2.4c-0.1-0.1-0.3-0.1-0.6 0.3-0.1 0.2 0 0.3 0.2 0.4 0.3 0.1 0.7 0.3 0.7 0.3 0-0.1 0.1-0.7-0.3-1z"/>
	</g>
</svg>