<svg version="1.2" xmlns="http://www.w3.org/2000/svg" viewBox="0 0 70 30" width="70" height="30">
	<title>New Project</title>
	<style>
		.s0 { fill: #191c4f } 
	</style>
	<g id="المائدة">
		<path id="&lt;Path&gt;" class="s0" d="m21.7 22.5c-0.1 0.2-0.1 0.2-0.2 0.4-0.1 0.2-0.2 0.2-0.4 0.3-0.2 0.1-4.4 1.7-4.5 1.8-0.4 0.2-0.4 0-0.3-0.1q0 0 0.1-0.3c0-0.2 0.1-0.2 0.4-0.4 0.2-0.1 4.4-1.6 4.6-1.8 0.4-0.1 0.3 0 0.3 0.1z"/>
		<path id="&lt;Path&gt;" class="s0" d="m63.4 20.8c0 0 0.1 0.3 0.1 0.6 0 0.2-0.2 0.6-0.3 0.9-0.1 0.4-0.8 0.5-1.3 0.2-0.8 1.3-1.6 0.6-2 0.5-0.7-0.3-0.9 0.2-1.1 0.4-1 1-2.6 1-3 1-0.5 0-0.1-0.2 0-0.3 1.4-0.5 2.2-0.5 3.4-1.7 0.5-0.5 0.9-0.2 1.1-0.2 1.1 0.5 1.2 0.1 1.4-0.1 0.1-0.1 0.3-0.7 0.4-0.9 0.1-0.2 0.2 0 0.1 0.1 0 0.1 0 0.3-0.1 0.4 0.5 0.4 1 0.1 1.1 0 0 0-0.1-0.3-0.1-0.5q0-0.1 0.2-0.6c0.1-0.2 0.1 0 0.1 0.2z"/>
		<path id="&lt;Path&gt;" class="s0" d="m7.1 19.2c0 0.1 0 0.1-0.1 0.2-0.1 0.2-0.2 0.2-0.3 0.3-0.2 0.1-2.4 1-2.5 1.1-0.2 0.1-0.2 0-0.2-0.1q0 0 0.1-0.2c0-0.2 0.1-0.2 0.3-0.3 0.2-0.1 2.3-1 2.5-1.1 0.3-0.2 0.3 0 0.2 0.1z"/>
		<path id="&lt;Compound Path&gt;" fill-rule="evenodd" class="s0" d="m42.7 19.3c-0.3 1.1-1.9 1.7-2.2 1.8-1.4 0.4-1.5-1-1.4-2 0-1 0.8-2.3 0.8-2.3-0.1 0-1.6-1.2-1.7-1.3-0.1-0.1-0.2-0.3-0.4-0.4-0.1-0.1-0.1-0.1-0.1-0.1 0 0 0-1.1 0-1.2 0.1-0.1 0.1-0.1 0.2 0 0.1 0 1.7 0.6 1.9 0.7 0.2 0.1 0.1 0.2 0 0.3-0.1 0-0.6 0.1-0.6 0.1l1.3 1c0 0 1.8-2.4 2-2.6 0.2-0.3 0.2-0.1 0.1 0.1 0 0.2-0.3 1.2-0.4 1.4-0.1 0.2-1.1 1.5-1.1 1.5 0 0 1.3 0.7 1.6 1.1 0.5 0.7 0.2 1.5 0 1.9zm-2.3-2.1c0 0-0.8 1.3-0.9 1.6-0.3 0.8 0.5 1 0.8 1 0.3-0.1 1.4-0.6 1.9-1.1 0.5-0.4-1.4-1.4-1.8-1.5z"/>
		<path id="&lt;Path&gt;" class="s0" d="m18.5 12.7c0.1 0.2-0.1 0.5-0.2 0.6 0 0.2-0.2 0.2-0.3 0-0.3-0.4-0.8 0-0.9 0.1-0.2 0.1-0.1 0.2 0.4 0.6 0.5 0.4 1.5 0.1 1.7 0 0.3-0.1 0.5-0.1 0.4 0.1 0 0.1 0 0.4 0 0.4-1 0.3-2.3 1.1-2.7 1.3q0 0-0.1 0c-0.2 0.1-0.2 0-0.1-0.1q-0.1-0.1 0-0.4c0.1-0.2 0.3-0.3 0.5-0.4 0 0-0.4-0.3-0.7-0.6-0.2-0.4 0.4-1.5 1-1.8 0.6-0.4 0.9 0.1 1 0.2z"/>
		<path id="&lt;Compound Path&gt;" fill-rule="evenodd" class="s0" d="m65.1 18c-0.1 0.2-0.3 1.2-1.8 1-0.4-0.1-1.1-0.3-1.5-1.1-0.3 0.5-1.2 1.9-2.9 1.6-0.3 0-1.5-0.5-1.6-2 0 0-1.4 1.2-2 1.5 0.1 0.5 0 1.1-0.2 1.8-0.3 0.7-3.3 4.1-5.7 4.6-0.8 0.2-4 0.8-4.1-2.7 0-0.7 0-1.3 0.1-1.7-1.9 1.5-4.3 2.7-4.9 3-1 0.5-4.6 1.1-5.2 1.2-0.5 0.1-0.5-0.1-0.3-0.2 0.3-0.2 8.2-2.8 12.3-7.1q0.2-0.2 0-0.6c-0.1-0.2-1.4-2.6-1.5-3-0.2-0.3-0.3-0.7-0.4-0.8q-0.1-0.2 0-0.4c0-0.1 0.1-0.8 0.1-0.9 0.1-0.2 0.1-0.1 0.2 0 0.1 0.1 1.4 1.4 1.6 1.5 0.1 0.2 0 0.3-0.1 0.3 0 0-0.6 0-0.6 0 0 0 0.8 1.4 1.1 1.9 0.5 1.2 0.2 2.2 0 2.6-0.4 0.7-1.1 1.5-1.9 2.2-0.1 0.6-0.4 3.4 2.3 3.5 0.4 0 1.8 0.2 4.5-2 0.6-0.5 1.3-1.1 1.9-2 0.3-0.3 0.4-0.9 0-0.9-0.5 0.1-3.3 1.1-3.7-0.6-0.1-0.4 0.2-4.4 2.9-2.4 0.2 0.1 0.8 0.6 1.2 1.4 0.5-0.2 1.3-0.7 2.4-1.6 0.3-0.2 0.6-0.3 0.6 0 0 0.4-0.3 2.7 2.3 2 0.2 0 1.3-0.3 2.1-2.2 0.2-0.5 0.5-0.4 0.3 0-0.2 0.5-0.4 0.9-0.2 1.1 0.3 0.2 1 0.8 1.9 0.6 0.3 0 0.4-0.1 0.3-0.4-0.1-0.2-0.4-0.7-0.4-0.7 0.1-0.4 0.2-0.9 0.2-1 0.1-0.2 0.1-0.3 0.2-0.2 0.1 0.2 1 1.2 0.5 2.7zm-11.4 0.1c-0.9-1.2-1.9-0.5-2.1-0.4-0.1 0.1-0.2 0.5 0.7 0.5 1.1 0.1 1.4-0.1 1.4-0.1z"/>
		<path id="&lt;Path&gt;" class="s0" d="m41.2 10.7l1.1 0.8q0.1 0.1 0 0.1l-0.6 0.9q-0.1 0.1-0.1 0.1l-1.1-0.8-0.6 0.7q0 0.1 0 0.1l-1.2-0.9q0 0 0-0.1l0.7-0.9q0 0 0.1 0l1.1 0.8 0.5-0.8q0.1 0 0.1 0z"/>
		<path id="&lt;Path&gt;" class="s0" d="m11.8 14.4c0 0-0.1 0.3-0.1 0.5-0.3 0.9-0.1 1.4-0.1 1.5 0.3 0.4 0.6 0.2 0.8-0.2 0-0.2 0.1-0.1 0.1 0q-0.1 0.1-0.1 0.3c-0.1 0.6-0.4 0.7-0.6 0.7-0.3 0-0.5-0.4-0.5-0.7-0.1-1 0.3-1.9 0.4-2.1 0.1-0.3 0.2-0.2 0.1 0z"/>
		<path id="&lt;Path&gt;" class="s0" d="m62.2 10.8c0 0 0 0.3-0.1 0.5-0.4 0.9-0.2 1.4-0.1 1.5 0.2 0.5 0.6 0.2 0.8-0.1 0-0.2 0.1-0.1 0.1 0q-0.1 0-0.1 0.3c-0.2 0.6-0.4 0.7-0.6 0.7-0.4 0-0.6-0.5-0.6-0.7 0-1.1 0.4-2 0.5-2.3 0.1-0.3 0.2-0.1 0.1 0.1z"/>
		<path id="&lt;Compound Path&gt;" fill-rule="evenodd" class="s0" d="m19.9 20.5c-0.1 0.4-0.3 1.6-1.9 1.5-0.4 0-1.7-0.2-2.4-2-0.1-0.4-0.6-1.7-0.6-1.7-0.1 0.4-0.2 1.1-0.5 1.4-0.3 0.4-2.9 2.5-4.1 3.1-1.3 0.5-3.8 0.5-3.2-2.7 0.1-0.3 0.4-1.6 0.5-2q-0.3 0.1-0.5 0.1c-1.3 0.5-1.4-0.9-1.3-1.8 0.1-1 0.8-2.2 0.8-2.2-0.1-0.1-1.5-1.2-1.6-1.3-0.1-0.1-0.2-0.3-0.3-0.4-0.2 0-0.1-0.1-0.1-0.1 0 0 0-1 0-1.1 0-0.1 0.1-0.1 0.2 0 0.1 0 1.6 0.6 1.8 0.7 0.1 0.1 0.1 0.2 0 0.2-0.1 0-0.6 0.2-0.6 0.2l1.2 0.9c0 0 1.8-2.3 1.9-2.5 0.2-0.2 0.2-0.1 0.2 0.2-0.1 0.2-0.4 1.1-0.5 1.3-0.1 0.1-1 1.4-1 1.4 0 0 1.2 0.7 1.4 1.1 0.5 0.7 0.2 1.4 0.1 1.7-0.2 0.6-0.8 1.1-1.3 1.4q0 0 0 0.1c-0.1 0.6-1.2 3.3 0.4 3.7 1.7 0.5 4.5-2 5.1-2.6 0.7-0.6 1.7-1.1 0.9-3.3-0.2-0.7-1.2-3.7-1.2-3.7 0 0-0.1-0.7-0.1-1 0-0.4 0.1-1 0.3-0.6 0.3 0.4 1.5 2.1 2 5.9 0.1 0.9 0.6 3.3 1.7 4 0.5 0.3 1.2 0.4 1.9-0.1 0.2-0.1 0.3-0.2 0.1-0.5-0.2-0.6-0.9-1.2-0.9-1.2 0 0 0.1-1.2 0.1-1.3 0.1-0.2 0.1-0.2 0.2 0 0.2 0.1 1.4 1.3 1.3 3.2zm-11-4.5c0.5-0.4-1.4-1.3-1.7-1.5 0 0-0.7 1.3-0.9 1.6-0.3 0.8 0.5 0.9 0.8 0.9 0.3 0 1.3-0.6 1.8-1z"/>
		<path id="&lt;Path&gt;" class="s0" d="m51.1 10.2c0 0-0.1 0.3-0.2 0.5-0.4 1.1-0.2 1.6-0.1 1.7 0.3 0.5 0.7 0.2 0.8-0.2 0.1-0.2 0.2-0.1 0.1 0q0 0.1 0 0.3c-0.2 0.7-0.5 0.9-0.7 0.9-0.4-0.1-0.6-0.6-0.6-0.8-0.1-1.2 0.4-2.2 0.5-2.5 0.1-0.3 0.2-0.1 0.2 0.1z"/>
		<path id="&lt;Path&gt;" class="s0" d="m7.3 7l1.1 0.8q0.1 0.1 0 0.1l-0.6 0.9q0 0.1-0.1 0l-1.1-0.8-0.6 0.8q0 0.1 0 0l-1.2-0.8q0 0 0-0.1l0.7-0.9q0 0 0.1 0l1.1 0.8 0.5-0.8q0.1 0 0.1 0z"/>
		<path id="&lt;Path&gt;" class="s0" d="m17.3 6c-0.1 0.1-0.1 0.1-0.1 0.3-0.1 0.2-0.2 0.3-0.4 0.4-0.2 0.1-5.8 3.2-5.9 3.3-0.4 0.3-0.3 0.1-0.3 0q0-0.1 0.1-0.3c0-0.2 0.1-0.3 0.3-0.4 0.2-0.2 5.8-3.3 6-3.4 0.4-0.2 0.3-0.1 0.3 0.1z"/>
		<path id="&lt;Path&gt;" class="s0" d="m27.5 16.3c0 0-0.1 0.3-0.1 0.5-0.4 0.9-0.2 1.3-0.1 1.4 0.2 0.5 0.6 0.3 0.7-0.1 0.1-0.2 0.1-0.1 0.1 0q0 0.1 0 0.3c-0.2 0.6-0.4 0.7-0.6 0.7-0.4 0-0.5-0.5-0.6-0.7 0-1 0.4-1.9 0.5-2.2 0.1-0.2 0.2-0.1 0.1 0.1z"/>
		<path id="&lt;Path&gt;" class="s0" d="m29.2 13.2c0 0.1-0.1 0.2-0.1 0.4-0.1 0.2-0.3 0.2-0.5 0.4-0.2 0.1-5.3 2.4-5.4 2.5-0.4 0.2-0.3 0.1-0.3 0q0-0.1 0.1-0.4c0-0.2 0.1-0.2 0.4-0.4 0.2-0.1 5.3-2.4 5.5-2.6 0.4-0.2 0.4 0 0.3 0.1z"/>
		<path id="&lt;Path&gt;" class="s0" d="m27 9.1c0.1 0.2 0 0.6-0.1 0.9 0 0.1-0.2 0-0.3-0.2 0 0-0.1-0.1-0.2-0.2-0.5-0.4-0.7 0.4-0.8 0.8 0 0.3-0.1 1.3-0.2 1.8 0 0.2-0.1 0.2-0.2 0.1-0.4-1.2-1-1.8-1.2-1.9-0.1-0.1-0.2 0.1-0.2 0.1 0 0.1-0.1 0.1-0.1 0.1-0.1-0.1-0.5-0.3-0.6-0.4-0.2-0.2-0.1-0.6-0.1-0.8 0-0.3 0.2-0.4 0.3-0.4 1.4 0.8 1.9 2.2 1.9 2.4 0.1-1 0.1-2 0.7-2.6 0.4-0.6 1.1 0.2 1.1 0.3z"/>
		<path id="&lt;Path&gt;" class="s0" d="m50.1 5.6c-0.1 0.2-0.1 0.2-0.2 0.4 0 0.2-0.2 0.2-0.4 0.3-0.2 0.2-6 3.6-6.1 3.6-0.4 0.2-0.3 0.1-0.3 0q0-0.1 0.1-0.3c0-0.2 0.1-0.3 0.3-0.4 0.3-0.2 6.1-3.5 6.3-3.7 0.4-0.2 0.3 0 0.3 0.1z"/>
		<path id="&lt;Path&gt;" class="s0" d="m57.2 6c0.1 0.2 0 0.7-0.1 1-0.1 0.1-0.2 0-0.4-0.2 0 0-0.1-0.1-0.2-0.3-0.6-0.5-0.8 0.5-0.9 1-0.1 0.3-0.1 1.4-0.2 2 0 0.3-0.2 0.3-0.3 0.1-0.4-1.4-1.2-2-1.3-2.1-0.1-0.2-0.2 0-0.3 0.1 0 0.1-0.1 0.1-0.1 0.1-0.1-0.1-0.5-0.4-0.7-0.5-0.1-0.2-0.1-0.7-0.1-0.9 0-0.4 0.3-0.5 0.4-0.4 1.6 0.9 2.1 2.4 2.2 2.7 0-1.2 0.1-2.2 0.7-3 0.5-0.7 1.2 0.3 1.3 0.4z"/>
		<path id="&lt;Compound Path&gt;" fill-rule="evenodd" class="s0" d="m63 8.5c-0.1 0.1-0.2 0-0.3-0.1-0.1-0.1-0.2-0.3-0.4-0.4-0.3 0.5-0.2 0.5-1.2 1.4-2.2 1.8-4.5 2.5-4.7 2.5-0.1 0.1-0.1 0 0.1-0.2 0.7-0.6 3.8-1.9 5.4-3.9 0 0-0.5-0.2-0.8-0.4-0.4-0.3-0.2-1.1 0-1.5 0.6-0.9 1.2-0.5 1.3-0.3 0.5 0.9 0.2 1.8 0.2 1.8 0.3 0.1 0.6 0.5 0.4 1.1zm-1.1-2.4c-0.1 0-0.2 0-0.5 0.4-0.1 0.1 0 0.3 0.2 0.3 0.2 0.1 0.6 0.3 0.6 0.3 0.1-0.1 0.1-0.6-0.3-1z"/>
		<path id="&lt;Compound Path&gt;" fill-rule="evenodd" class="s0" d="m34.1 22c-0.5 0.4-1.2 0.1-1.5 0-0.6-0.3-0.9-0.8-1.4-1.5-0.5 0.2-7.7 4.6-9.7-0.3-0.9-2-1-6.1-1-6.7-0.1-2.6-0.9-5.9-1.1-6.7 0 0 0.3-1 0.4-1.1 0-0.1 0-0.2 0.1 0 0.1 0.2 0.3 0.9 0.5 1.7 1.1 4.6 0.9 7.8 1 8.9 0.4 3.3 1.5 3.9 2.1 4.3 2.5 1.5 6.7-0.9 7.3-1.3 0 0-0.3-1.4-0.4-1.9-0.6-3.8-1.5-10.7-1.6-11.1 0 0 0.3-0.9 0.4-1 0.1-0.2 0.1-0.1 0.1 0 0.1 0.1 1.4 3.4 1.5 3.6 0.1 0.2-0.1 0.3-0.2 0.2-0.1-0.2-0.7-0.8-0.7-0.8 0 0 0.3 2.8 0.7 5.5 0.4 2.6 1 5 1 5 0.6-0.2 2-0.7 2.7 0.5 0.4 0.7 0.3 2.2-0.2 2.7zm-0.3-1.5c-0.4-0.6-1.3-0.6-1.5-0.5 0 0 0.3 0.7 1.3 0.8 0.3 0 0.3-0.2 0.2-0.3z"/>
		<path id="&lt;Path&gt;" class="s0" d="m24.2 5.3c0 0-0.1 0.3-0.1 0.5-0.3 0.9-0.2 1.4-0.1 1.5 0.2 0.4 0.6 0.2 0.7-0.2 0.1-0.1 0.1-0.1 0.1 0q0 0.1 0 0.3c-0.2 0.6-0.4 0.7-0.6 0.7-0.4 0-0.5-0.4-0.6-0.7 0-1 0.4-1.9 0.5-2.1 0.1-0.3 0.2-0.2 0.1 0z"/>
		<path id="&lt;Path&gt;" class="s0" d="m34 5.2c0 0.2 1.4 3.5 1.5 3.6 0 0.2-0.1 0.3-0.2 0.2-0.1-0.1-0.8-0.8-0.8-0.8 0 0 1.2 8.1 1.2 8.5 0.8 4.8 0.1 6.1 0 6.3-0.1 0.1-0.1 0.1-0.1-0.1-0.1-2-1.2-9-1.2-9.5-0.1-0.4-0.8-6.6-0.9-7.2 0 0 0.3-0.9 0.4-1 0-0.1 0.1-0.1 0.1 0z"/>
		<path id="&lt;Compound Path&gt;" fill-rule="evenodd" class="s0" d="m40.9 8.1c-0.1 0.2-0.1 0.1-0.2-0.1-0.1 0-0.5-0.4-0.5-0.4 0 0-0.5 1.1-1.2 1.7-1.5 1.1-2.7 1.2-2.8 1.3-0.1 0-0.2-0.1 0.1-0.3 0.9-0.5 2-0.9 3.5-2.8 0 0-0.5-0.2-0.8-0.4-0.3-0.3-0.2-1.2 0.1-1.5 0.6-1 1.1-0.5 1.2-0.3 0.5 0.9 0.2 1.7 0.2 1.7 0.3 0.2 0.6 0.6 0.4 1.1zm-1-2.3c-0.1 0-0.3-0.1-0.6 0.4-0.1 0.1 0 0.2 0.2 0.3 0.2 0.1 0.7 0.3 0.7 0.3 0-0.1 0-0.6-0.3-1z"/>
	</g>
</svg>