<svg version="1.2" xmlns="http://www.w3.org/2000/svg" viewBox="0 0 70 30" width="70" height="30">
	<title>New Project</title>
	<style>
		.s0 { fill: #191c4f } 
	</style>
	<g id="الأنعام">
		<path id="&lt;Path&gt;" class="s0" d="m13.2 22.9c-0.1 0.2-0.1 0.2-0.1 0.4-0.1 0.1-0.2 0.2-0.4 0.3-0.1 0.1-3.4 1.7-3.5 1.8-0.3 0.2-0.2 0.1-0.2 0q0-0.1 0-0.3c0.1-0.2 0.1-0.2 0.3-0.4 0.2-0.1 3.4-1.7 3.6-1.8 0.3-0.2 0.3-0.1 0.3 0z"/>
		<path id="&lt;Path&gt;" class="s0" d="m23.3 22.4c0 0-0.1 0.3-0.1 0.5-0.3 0.9-0.2 1.3-0.1 1.4 0.2 0.5 0.6 0.2 0.7-0.1 0.1-0.2 0.1-0.1 0.1 0q0 0.1 0 0.3c-0.2 0.5-0.4 0.7-0.6 0.7-0.4 0-0.5-0.5-0.6-0.7 0-1.1 0.4-1.9 0.5-2.2 0.1-0.2 0.2-0.1 0.1 0.1z"/>
		<path id="&lt;Path&gt;" class="s0" d="m64.1 20.4c0 0 0 0.3 0 0.5 0 0.2-0.1 0.5-0.2 0.9-0.1 0.3-0.8 0.4-1.2 0.1-0.7 1.2-1.4 0.6-1.8 0.4-0.7-0.2-0.8 0.2-1 0.4-0.9 1-2.4 0.9-2.8 1-0.3 0 0-0.2 0.1-0.3 1.2-0.4 2-0.5 3.1-1.5 0.4-0.5 0.7-0.3 0.9-0.2 1 0.4 1.2 0 1.3-0.1 0.1-0.1 0.3-0.7 0.4-0.8 0.1-0.2 0.2-0.1 0.1 0.1 0 0.1-0.1 0.3-0.1 0.3 0.4 0.4 0.9 0.1 0.9 0 0 0 0-0.3 0-0.4q0-0.2 0.1-0.5c0.1-0.3 0.2-0.1 0.2 0.1z"/>
		<path id="&lt;Path&gt;" class="s0" d="m32.1 17.7c0 0-0.1 0.3-0.1 0.5-0.3 1.2-0.1 1.7 0 1.8 0.3 0.5 0.6 0.2 0.8-0.2 0-0.2 0.1-0.1 0.1 0q0 0.1-0.1 0.3c-0.1 0.7-0.4 0.9-0.6 0.9-0.4 0-0.6-0.6-0.6-0.8-0.1-1.2 0.3-2.3 0.4-2.6 0.1-0.3 0.2-0.2 0.1 0.1z"/>
		<path id="&lt;Path&gt;" class="s0" d="m17.7 18.3c0 0-0.1 0.3-0.1 0.5-0.3 1-0.1 1.4-0.1 1.5 0.3 0.5 0.7 0.2 0.8-0.2 0.1-0.2 0.1-0.1 0.1 0q0 0.1 0 0.3c-0.2 0.6-0.4 0.8-0.6 0.8-0.4 0-0.6-0.5-0.6-0.7-0.1-1.1 0.3-2 0.4-2.3 0.1-0.2 0.2-0.1 0.1 0.1z"/>
		<path id="&lt;Path&gt;" class="s0" d="m26.1 14l1 0.7q0.1 0.1 0 0.1l-0.6 0.8q0 0.1 0 0.1l-1.1-0.8q0 0 0-0.1l0.6-0.8q0.1 0 0.1 0z"/>
		<path id="&lt;Compound Path&gt;" fill-rule="evenodd" class="s0" d="m45.4 19c-0.3 1-1.7 1.5-2.1 1.6-1.2 0.5-1.3-0.8-1.2-1.7 0.1-1 0.7-2.1 0.7-2.1 0-0.1-1.4-1.1-1.5-1.2-0.1-0.1-0.2-0.3-0.3-0.3-0.1-0.1-0.1-0.2-0.1-0.2 0 0 0-0.9 0-1 0-0.2 0-0.1 0.2-0.1 0.1 0.1 1.5 0.6 1.7 0.7 0.1 0.1 0.1 0.2 0 0.2-0.1 0.1-0.6 0.2-0.6 0.2l1.2 0.8c0 0 1.6-2.1 1.8-2.3 0.2-0.2 0.1-0.1 0.1 0.1 0 0.2-0.3 1.1-0.4 1.3-0.1 0.1-0.9 1.3-0.9 1.3 0 0 1.1 0.6 1.3 1 0.5 0.7 0.2 1.3 0.1 1.7zm-2.1-1.9c0 0-0.7 1.3-0.8 1.5-0.3 0.7 0.4 0.9 0.7 0.9 0.3-0.1 1.2-0.6 1.7-1 0.5-0.3-1.3-1.2-1.6-1.4z"/>
		<path id="&lt;Path&gt;" class="s0" d="m21 13.2c0 0-0.1 0.3-0.2 0.5-0.3 0.9-0.1 1.4-0.1 1.5 0.3 0.5 0.7 0.2 0.8-0.2 0.1-0.1 0.2-0.1 0.1 0q0 0.1 0 0.3c-0.2 0.6-0.5 0.8-0.7 0.8-0.4 0-0.5-0.5-0.5-0.8-0.1-1 0.4-1.9 0.5-2.2 0.1-0.2 0.2-0.1 0.1 0.1z"/>
		<path id="&lt;Compound Path&gt;" fill-rule="evenodd" class="s0" d="m65.6 17.8c-0.1 0.2-0.3 1.2-1.7 0.9-0.3 0-1-0.2-1.3-0.9-0.3 0.4-1.1 1.7-2.6 1.4-0.3 0-1.4-0.4-1.4-1.8 0 0-1.3 1.1-1.9 1.4 0.1 0.4 0.1 1-0.2 1.6-0.2 0.6-2.9 3.7-5.1 4.2-0.7 0.1-3.6 0.6-3.7-2.5 0-0.6 0-1.2 0.1-1.5-1.7 1.3-3.8 2.4-4.4 2.7-1 0.4-4.2 0.9-4.7 1-0.4 0.1-0.5 0-0.3-0.1 0.3-0.2 7.4-2.6 11.1-6.5q0.2-0.2 0-0.4c-0.1-0.2-1.3-2.5-1.4-2.8-0.1-0.2-0.2-0.6-0.3-0.7q-0.1-0.2 0-0.4c0-0.1 0.1-0.7 0.1-0.8 0.1-0.2 0.1-0.1 0.2 0 0.1 0.1 1.2 1.3 1.4 1.4 0.1 0.2 0 0.2 0 0.2-0.1 0-0.7 0-0.7 0 0 0 0.8 1.3 1 1.8 0.5 1.1 0.2 1.9 0.1 2.3-0.4 0.7-1 1.4-1.7 2-0.1 0.5-0.4 3.1 2 3.2 0.4 0 1.6 0.1 4.1-1.9 0.6-0.4 1.2-1 1.7-1.7 0.3-0.3 0.4-0.9 0-0.8-0.4 0-2.9 1-3.3-0.6-0.1-0.4 0.1-4 2.6-2.2 0.2 0.2 0.7 0.6 1.1 1.3 0.4-0.2 1.2-0.6 2.1-1.4 0.3-0.2 0.6-0.4 0.6 0-0.1 0.3-0.2 2.4 2 1.8 0.3-0.1 1.2-0.3 1.9-2.1 0.2-0.4 0.5-0.3 0.4 0-0.2 0.5-0.5 0.9-0.2 1.1 0.2 0.2 0.8 0.6 1.6 0.5 0.3 0 0.5-0.1 0.4-0.3-0.1-0.3-0.4-0.7-0.4-0.7 0-0.3 0.2-0.8 0.2-0.9 0-0.1 0.1-0.2 0.2-0.1 0.1 0.1 0.8 1 0.4 2.3zm-10.3 0.1c-0.8-1-1.8-0.4-1.9-0.3-0.1 0.1-0.1 0.4 0.6 0.5 1 0 1.3-0.2 1.3-0.2z"/>
		<path id="&lt;Path&gt;" class="s0" d="m25 11.9c0.5 0.1 0.4 0.3 0.3 0.5-0.4 0.6-0.9 0.9-1.3 1.1-0.5 0.1-0.3-0.2 0-0.3 0 0 0.2-0.2 0.6-0.4 0.3-0.3-0.6-0.3-1-0.3-0.4 0-0.5 0.2-0.6 0.3-0.2 0.2-0.3 0.1-0.2-0.1 0.1-0.1 0.2-0.4 0.5-0.7 0.3-0.3 1.1-0.2 1.7-0.1z"/>
		<path id="&lt;Path&gt;" class="s0" d="m9.6 11.7c0 0 0 0.3-0.1 0.5-0.3 1.1-0.1 1.6 0 1.7 0.3 0.5 0.7 0.2 0.9-0.2 0-0.2 0.1-0.1 0.1 0q0 0.1-0.1 0.3c-0.1 0.7-0.4 0.9-0.6 0.9-0.5 0-0.7-0.5-0.7-0.8-0.2-1.1 0.3-2.2 0.4-2.4 0.1-0.3 0.2-0.2 0.1 0z"/>
		<path id="&lt;Path&gt;" class="s0" d="m44 11.3l1 0.7q0.1 0.1 0.1 0.1l-0.6 0.8q-0.1 0.1-0.1 0.1l-1-0.8-0.5 0.7q-0.1 0.1-0.1 0.1l-1-0.8q-0.1 0 0-0.1l0.6-0.8q0 0 0 0l1 0.7 0.5-0.7q0.1 0 0.1 0z"/>
		<path id="&lt;Path&gt;" class="s0" d="m63 11.4c0 0-0.1 0.2-0.1 0.4-0.3 0.9-0.2 1.3-0.1 1.4 0.2 0.4 0.5 0.2 0.7-0.1 0-0.2 0.1-0.1 0.1-0.1q-0.1 0.1-0.1 0.3c-0.2 0.6-0.4 0.7-0.6 0.7-0.3 0-0.4-0.5-0.5-0.7 0-0.9 0.4-1.8 0.5-2 0.1-0.2 0.2-0.1 0.1 0.1z"/>
		<path id="&lt;Path&gt;" class="s0" d="m52.9 10.8c0 0-0.1 0.3-0.1 0.5-0.4 1-0.2 1.4-0.1 1.5 0.2 0.5 0.6 0.2 0.7-0.1 0.1-0.2 0.1-0.1 0.1 0q0 0 0 0.2c-0.2 0.6-0.5 0.8-0.6 0.8-0.4 0-0.6-0.5-0.6-0.7 0-1.1 0.4-2 0.5-2.2 0.1-0.3 0.2-0.2 0.1 0z"/>
		<path id="&lt;Path&gt;" class="s0" d="m24.5 9.5c-0.1 0.1-0.1 0.2-0.2 0.3-0.1 0.2-0.2 0.2-0.4 0.4-0.2 0.1-5.5 2.2-5.6 2.2-0.4 0.2-0.3 0.1-0.3 0q0-0.1 0.1-0.3c0-0.2 0.1-0.2 0.4-0.4 0.2-0.1 5.5-2.2 5.7-2.3 0.4-0.2 0.3 0 0.3 0.1z"/>
		<path id="&lt;Compound Path&gt;" fill-rule="evenodd" class="s0" d="m29.8 21.4c-0.7 1.2-2.5 1.4-3 1.5-1.9 0.1-3.2-1.7-3.2-1.7 0 0-2.8 1.8-5.7 2.2-1.4 0.1-2.8 0-3.9-0.9-0.9-0.8-1.3-2-1.5-3.4q-0.1 0.1-0.2 0.1c-1.6 0.9-2.8 2.7-3.2 3.3-1.3 1.9-2.2 1.6-2.6 1.5-2.9-1-0.8-5-0.3-5.8-0.4-0.2-0.6-0.8-0.6-1.1-0.2-1.9 0.4-3.5 0.5-4 0.2-0.5 0.3-0.3 0.2 0.1 0 0-0.1 0.5-0.2 0.9-0.4 1.7-0.1 2.5 0 2.7 0.5 0.8 1 0.3 1.2-0.3 0.1-0.4 0.2-0.2 0.2 0q-0.1 0.1-0.1 0.5c-0.2 1.1-0.6 1.3-0.9 1.4-0.3 0.3-0.7 1.1-1 2.1-0.5 2.6 0.7 2.5 0.8 2.5 1 0.1 1.9-0.9 2.2-1.3 0.3-0.3 1.5-2.1 2.2-2.6 0.4-0.3 1-0.7 1.7-1.1q0-0.4-0.1-0.7c-0.1-1.7-0.3-5-0.7-6.9-0.1-0.8-0.4-2.2-0.5-2.4 0 0 0.2-0.7 0.3-1.1 0.1-0.4 0.4 0.4 0.5 0.9 0.7 2.8 1 7.3 1.2 9.8 1-0.5 1.8-0.9 2.1-1.1 0 0-0.2-0.2-0.4-0.4-0.4-0.9 0-1.5 0.4-2 0.5-0.6 1.1-0.6 1.3-0.5 1.1 0.4 1.9 1.3 2 1.5 0.1 0.1-0.1 0.7-0.1 0.9-0.1 0.1-0.1 0.2-0.3 0.3-0.1 0.1-0.8 0.4-1.7 0.9 0 0.3-0.1 0.6-0.1 0.6-0.1 0.1-0.2 0.1-0.2 0.1q-0.1-0.1-0.2-0.5c-0.9 0.5-2 1-2.7 1.4q0.1 0.4 0.1 0.6c0.5 2.2 2.4 2.5 2.9 2.6 3.3 0.5 6.3-1.5 6.5-1.7-1.4-1.4-2.2-0.8-2.6-0.7-0.4 0.2-0.1-0.6-0.1-0.7 0.1-0.2 0.1-0.3 0.2-0.4 3.2-2 6.5-0.3 6.7-0.2 0.3 0.2-0.1 1-0.1 1.2-0.7 0.2-2.3 1.1-2.3 1.1 0.4 0.5 1.3 0.9 1.6 1 1.7 0.3 3.2-0.8 3.3-1 0.2-0.2 0-0.6-0.3-1-0.2-0.4-1.2-1.8-1.4-2.5 0 0 0.1-0.8 0.1-1 0.1-0.2 0.1-0.1 0.1-0.1 0 0 1.3 1.1 1.6 1.3 0.3 0.3-0.3 0.3-0.7 0.3 0 0 0.8 1 1 1.4 0.5 1.1 0.2 2.1 0 2.4zm-14.6-6c0.2 0.2 0.7 0.8 0.7 0.8 0 0 1.3-0.6 1.3-0.6 0.1 0 0.1-0.1 0-0.2 0-0.1-1-0.9-1.6-0.6-0.5 0.2-0.5 0.4-0.4 0.6zm9.9 3.7c-0.4-0.2-1.3-0.5-2.4-0.1 0.5 0.2 1 0.8 1 0.8 0.4-0.2 1.4-0.7 1.4-0.7z"/>
		<path id="&lt;Path&gt;" class="s0" d="m9.2 7.3c0.1 0.2 0 0.6-0.1 0.9-0.1 0.1-0.2 0-0.3-0.2 0 0-0.1-0.1-0.3-0.2-0.5-0.4-0.7 0.4-0.7 0.8-0.1 0.3-0.1 1.2-0.2 1.8 0 0.2-0.2 0.2-0.2 0-0.4-1.2-1-1.7-1.1-1.8-0.2-0.1-0.3 0-0.3 0.1 0 0.1-0.1 0.1-0.1 0.1-0.1-0.1-0.5-0.3-0.6-0.5-0.1-0.1-0.1-0.5-0.1-0.7 0.1-0.3 0.3-0.4 0.4-0.4 1.3 0.8 1.7 2.1 1.8 2.3 0.1-1 0.1-1.8 0.7-2.5 0.4-0.6 1 0.2 1.1 0.3z"/>
		<path id="&lt;Path&gt;" class="s0" d="m31.1 6.9c0 0 0 0.3-0.1 0.5-0.3 1.1-0.1 1.6 0 1.7 0.3 0.6 0.7 0.3 0.8-0.2 0-0.2 0.1-0.1 0.1 0q0 0.1-0.1 0.4c-0.1 0.7-0.3 0.8-0.5 0.9-0.4 0-0.6-0.6-0.7-0.9-0.1-1.2 0.3-2.2 0.4-2.5 0.1-0.3 0.2-0.2 0.1 0.1z"/>
		<path id="&lt;Path&gt;" class="s0" d="m52 6.7c0 0.1 0 0.1-0.1 0.3-0.1 0.2-0.2 0.2-0.4 0.3-0.1 0.2-5.4 3.2-5.5 3.3-0.3 0.2-0.3 0-0.3-0.1q0 0 0.1-0.2c0-0.2 0.1-0.2 0.3-0.4 0.2-0.1 5.5-3.2 5.7-3.3 0.3-0.2 0.3 0 0.2 0.1z"/>
		<path id="&lt;Path&gt;" class="s0" d="m58.4 7c0.2 0.2 0.1 0.7 0 0.9-0.1 0.2-0.2 0-0.4-0.1 0 0-0.1-0.2-0.2-0.3-0.5-0.4-0.7 0.4-0.8 0.9 0 0.3-0.1 1.3-0.2 1.8 0 0.3-0.2 0.2-0.2 0.1-0.4-1.3-1.1-1.8-1.2-1.9-0.1-0.2-0.2 0-0.2 0.1-0.1 0.1-0.1 0.1-0.2 0-0.1 0-0.5-0.3-0.6-0.4-0.1-0.1-0.1-0.6-0.1-0.8 0-0.3 0.3-0.4 0.4-0.4 1.4 0.8 1.8 2.2 1.9 2.4 0.1-1 0.1-1.9 0.7-2.6 0.4-0.6 1.1 0.2 1.1 0.3z"/>
		<path id="&lt;Path&gt;" class="s0" d="m19.8 6.7c0 0-0.1 0.2-0.1 0.4-0.3 1-0.1 1.4 0 1.5 0.3 0.5 0.6 0.2 0.7-0.2 0.1-0.2 0.1-0.1 0.1 0q0 0.1 0 0.3c-0.2 0.6-0.4 0.8-0.6 0.8-0.3 0-0.5-0.5-0.6-0.7-0.1-1 0.3-1.9 0.4-2.2 0-0.3 0.1-0.2 0.1 0.1z"/>
		<path id="&lt;Compound Path&gt;" fill-rule="evenodd" class="s0" d="m63.7 9.3c-0.1 0.1-0.2 0-0.3-0.1 0-0.1-0.2-0.3-0.4-0.4-0.2 0.5-0.2 0.5-1.1 1.3-1.9 1.7-4 2.3-4.1 2.3-0.2 0-0.2-0.1 0-0.2 0.7-0.5 3.5-1.8 4.9-3.5 0 0-0.5-0.2-0.8-0.4-0.3-0.3-0.1-1 0.1-1.4 0.6-0.8 1-0.4 1.1-0.2 0.5 0.8 0.2 1.6 0.2 1.6 0.3 0.1 0.5 0.4 0.4 1zm-1-2.1c-0.1-0.1-0.2-0.1-0.5 0.3-0.1 0.1 0 0.2 0.2 0.3 0.2 0.1 0.6 0.3 0.6 0.3 0-0.1 0.1-0.6-0.3-0.9z"/>
		<path id="&lt;Path&gt;" class="s0" d="m34.2 6.4c0 0.1 1.2 3 1.3 3.2 0 0.2-0.1 0.2-0.2 0.1-0.1-0.1-0.7-0.6-0.7-0.6 0 0 1.2 7.1 1.3 7.8 0.3 2.3-0.1 3.4-0.7 4.5-1.5 2.5-5.2 3.2-5.5 3.2-0.3 0.1-0.5 0-0.1-0.3 3.2-1.3 4.7-2.6 5.3-3.6q0-0.1 0-0.3c-0.1-2-2.7-4.2-3-4.5-0.4-0.2-2.8-2.2-4.9-4.6-0.4-0.5-0.9-1-1-1.1-0.1-0.1-0.1-0.1-0.1-0.2 0-0.1-0.1-1.2-0.1-1.3 0-0.2 0.1-0.1 0.3 0.1 0.2 0.1 2.3 1.7 2.5 1.8 0.1 0.1-0.1 0.1-0.3 0.1 0 0-0.7-0.2-0.7-0.2q0 0 0 0c1.4 2.1 5.8 4.8 6.8 6.9 0.6 1.4 0.8 2.2 0.8 2.8q0.1-0.4 0.2-0.6c0.1-0.7-0.4-3.7-0.5-4.2-0.5-3.5-1.2-7.8-1.3-8.1 0 0 0.4-0.9 0.4-1 0.1-0.1 0.1 0 0.2 0.1z"/>
		<path id="&lt;Path&gt;" class="s0" d="m37.7 6.3c0 0.1 1.2 3.1 1.3 3.3 0 0.1-0.1 0.2-0.2 0.1-0.1-0.1-0.7-0.7-0.7-0.7 0 0 1.1 8.1 1.2 8.3q0.3 2.4 0.2 3.5c0 1-0.2 1.4-0.3 1.5-0.1 0.2-0.1 0.1-0.1-0.1 0-0.6-0.2-1.7-0.3-2.9-0.3-2.4-1.4-10.1-1.6-11.4 0-0.2-0.1-0.6-0.1-0.6 0 0 0.4-0.9 0.4-1.1 0.1-0.1 0.1 0 0.2 0.1z"/>
		<path id="&lt;Compound Path&gt;" fill-rule="evenodd" class="s0" d="m43.7 9c0 0.1-0.1 0-0.2-0.1 0-0.1-0.4-0.4-0.4-0.4 0 0-0.4 0.9-1.1 1.5-1.3 1-2.4 1.1-2.5 1.2-0.1 0-0.2-0.1 0-0.3 0.9-0.4 1.9-0.8 3.3-2.5 0 0-0.5-0.2-0.8-0.4-0.3-0.2-0.1-1 0.1-1.4 0.5-0.8 1-0.4 1.1-0.2 0.5 0.8 0.2 1.6 0.2 1.6 0.3 0.1 0.5 0.4 0.3 1zm-0.9-2.1c-0.1-0.1-0.2-0.1-0.5 0.3-0.1 0.1 0 0.2 0.2 0.3 0.2 0.1 0.6 0.3 0.6 0.3 0-0.1 0.1-0.6-0.3-0.9z"/>
		<path id="&lt;Path&gt;" class="s0" d="m26 6.4c0.1 0.1-0.1 0.3-0.2 0.4q0 0.2-0.2 0c-0.2-0.3-0.6-0.1-0.7 0-0.1 0.1-0.1 0.2 0.3 0.5 0.4 0.3 1.1 0.1 1.3 0.1 0.2-0.1 0.3-0.1 0.3 0 0 0.2 0 0.4-0.1 0.4-0.7 0.2-1.7 0.7-2 0.8q0 0-0.1 0.1c-0.1 0-0.1 0-0.1-0.1q0-0.1 0-0.3c0.1-0.2 0.3-0.2 0.4-0.3 0 0-0.3-0.3-0.5-0.5-0.2-0.3 0.3-1.1 0.8-1.3 0.5-0.3 0.8 0.1 0.8 0.2z"/>
		<path id="&lt;Path&gt;" class="s0" d="m17.6 5.8c0.1 0.2 0.1 0.6 0 0.8-0.1 0.2-0.2 0.1-0.3-0.1 0 0-0.2-0.1-0.3-0.2-0.5-0.4-0.6 0.5-0.7 0.9 0 0.3 0.3 2.8-0.7 3.6-0.9 0.8-1.7 1.3-1.4 1 0.2-0.4 1.2-1.3 1.4-1.6 0.3-0.3 0.8-0.9 0.3-1.6-0.1-0.4-0.5-0.8-1.1-1.3-0.1-0.1-0.2 0-0.2 0.1 0 0.1-0.1 0.1-0.2 0.1 0-0.1-0.4-0.3-0.6-0.4-0.1-0.1-0.1-0.6-0.1-0.7 0-0.3 0.2-0.5 0.3-0.4 1.4 0.6 1.9 1.9 2 2.1 0-1 0-1.9 0.5-2.6 0.4-0.5 1 0.2 1.1 0.3z"/>
		<path id="&lt;Path&gt;" class="s0" d="m27.1 4.2c-0.1 0.1-0.1 0.2-0.2 0.3-0.1 0.2-0.2 0.3-0.4 0.4-0.2 0.1-4.1 2.1-4.2 2.1-0.4 0.3-0.3 0.1-0.3 0q0-0.1 0.1-0.3c0-0.2 0.1-0.3 0.4-0.4 0.2-0.1 4.1-2.1 4.3-2.2 0.4-0.2 0.3-0.1 0.3 0.1z"/>
	</g>
</svg>