<svg version="1.2" xmlns="http://www.w3.org/2000/svg" viewBox="0 0 70 30" width="70" height="30">
	<title>New Project</title>
	<style>
		.s0 { fill: #191c4f } 
	</style>
	<g id="الأعراف">
		<path id="&lt;Path&gt;" class="s0" d="m14.7 23c-0.1 0.1-0.1 0.2-0.2 0.3 0 0.2-0.1 0.2-0.3 0.3-0.2 0.2-4 1.2-4.1 1.3-0.3 0.2-0.3 0.1-0.2-0.1q0 0 0-0.2c0.1-0.2 0.2-0.2 0.4-0.3 0.2-0.2 3.9-1.2 4.1-1.3 0.4-0.2 0.3-0.1 0.3 0z"/>
		<path id="&lt;Path&gt;" class="s0" d="m24 21.2c0 0-0.1 0.2-0.2 0.4-0.3 0.9-0.1 1.3-0.1 1.4 0.3 0.5 0.6 0.2 0.7-0.1 0.1-0.2 0.2-0.1 0.1 0q0 0.1 0 0.3c-0.2 0.5-0.4 0.6-0.6 0.6-0.3 0-0.5-0.4-0.5-0.6-0.1-1 0.4-1.9 0.4-2.1 0.1-0.2 0.2-0.1 0.2 0.1z"/>
		<path id="&lt;Path&gt;" class="s0" d="m64.1 20.7c0 0 0.1 0.3 0.1 0.5 0 0.2-0.2 0.5-0.3 0.8-0.1 0.3-0.7 0.4-1.1 0.2-0.7 1.1-1.4 0.5-1.8 0.4-0.6-0.3-0.8 0.1-1 0.3-0.8 0.9-2.3 0.9-2.6 0.9-0.4 0.1-0.1-0.1 0.1-0.2 1.2-0.4 1.9-0.5 2.9-1.5 0.5-0.4 0.8-0.2 0.9-0.2 1 0.5 1.2 0.1 1.3-0.1 0.1-0.1 0.3-0.6 0.4-0.8 0-0.1 0.1 0 0.1 0.1 0 0.1-0.1 0.3-0.1 0.4 0.4 0.3 0.8 0.1 0.9 0 0 0 0-0.3 0-0.4q-0.1-0.2 0.1-0.6c0.1-0.2 0.1 0 0.1 0.2z"/>
		<path id="&lt;Path&gt;" class="s0" d="m29.1 18.6c0 0-0.1 0.4-0.2 0.7-0.3 1.2 0 1.8 0 1.9 0.4 0.6 0.8 0.3 0.9-0.2 0.1-0.3 0.2-0.1 0.1 0q0 0.1 0 0.4c-0.2 0.7-0.4 0.9-0.7 0.9-0.4 0.1-0.6-0.5-0.7-0.9-0.1-1.3 0.3-2.5 0.4-2.8 0.1-0.4 0.3-0.2 0.2 0z"/>
		<path id="&lt;Compound Path&gt;" fill-rule="evenodd" class="s0" d="m46 19.3c-0.3 1-1.7 1.5-2 1.6-1.2 0.4-1.3-0.8-1.2-1.7 0-0.9 0.7-2 0.7-2-0.1-0.1-1.4-1.1-1.5-1.2-0.1-0.1-0.2-0.2-0.3-0.3-0.1-0.1-0.1-0.2-0.1-0.2 0 0 0-0.9 0-1 0-0.1 0.1 0 0.2 0 0.1 0 1.5 0.6 1.6 0.7 0.2 0 0.1 0.2 0 0.2-0.1 0-0.5 0.1-0.5 0.1l1.1 0.8c0 0 1.6-2 1.8-2.2 0.1-0.2 0.1-0.1 0.1 0.1 0 0.2-0.3 1.1-0.4 1.2-0.1 0.2-0.9 1.3-0.9 1.3 0 0 1 0.6 1.3 1 0.5 0.6 0.2 1.3 0.1 1.6zm-2-1.8c0 0-0.7 1.2-0.8 1.4-0.3 0.8 0.4 0.9 0.6 0.9 0.3-0.1 1.2-0.6 1.7-0.9 0.5-0.4-1.3-1.3-1.5-1.4z"/>
		<path id="&lt;Compound Path&gt;" fill-rule="evenodd" class="s0" d="m65.6 18.2c-0.1 0.2-0.3 1.1-1.6 0.9-0.3-0.1-1-0.3-1.3-1-0.3 0.4-1 1.7-2.5 1.5-0.3-0.1-1.4-0.5-1.4-1.8 0 0-1.2 1-1.8 1.3 0 0.5 0 1-0.2 1.6-0.2 0.6-2.9 3.6-5 4-0.7 0.2-3.4 0.7-3.6-2.4 0-0.6 0.1-1.1 0.1-1.4-1.7 1.3-3.7 2.3-4.3 2.6-0.9 0.4-4 0.9-4.6 1-0.3 0.1-0.4 0-0.2-0.2 0.2-0.1 7.2-2.4 10.8-6.2q0.1-0.2 0-0.5c-0.1-0.2-1.3-2.3-1.4-2.6-0.1-0.3-0.2-0.6-0.3-0.7q-0.1-0.2 0-0.4c0-0.1 0.1-0.7 0.1-0.8 0.1-0.1 0.1-0.1 0.2 0 0.1 0.1 1.2 1.2 1.3 1.4 0.2 0.1 0.1 0.2 0 0.2 0 0-0.6 0-0.6 0 0 0 0.8 1.3 1 1.7 0.4 1.1 0.2 1.9 0 2.2-0.3 0.7-0.9 1.4-1.6 1.9-0.1 0.6-0.3 3.1 2 3.2 0.3 0 1.5 0.1 3.9-1.8 0.6-0.5 1.2-1 1.7-1.7 0.2-0.3 0.3-0.8 0-0.8-0.4 0-2.9 1-3.2-0.5-0.1-0.4 0.1-3.9 2.5-2.2 0.2 0.2 0.7 0.6 1.1 1.3 0.4-0.2 1.1-0.7 2-1.4 0.3-0.2 0.6-0.3 0.5 0 0 0.3-0.2 2.3 2.1 1.7 0.2 0 1.1-0.2 1.8-2 0.2-0.4 0.5-0.3 0.3 0-0.2 0.5-0.4 0.8-0.2 1 0.2 0.3 0.9 0.7 1.7 0.6 0.2 0 0.4-0.1 0.3-0.4-0.1-0.2-0.4-0.6-0.4-0.6 0.1-0.3 0.2-0.8 0.2-0.9 0-0.1 0.1-0.2 0.2-0.1 0.1 0.1 0.8 1 0.4 2.3zm-10 0.1c-0.8-1.1-1.7-0.5-1.8-0.3-0.1 0.1-0.2 0.4 0.6 0.4 0.9 0.1 1.2-0.1 1.2-0.1z"/>
		<path id="&lt;Path&gt;" class="s0" d="m10.4 15.1c0 0-0.2 0.5-0.3 0.8-0.4 1.7-0.1 2.5 0 2.7 0.4 0.8 0.9 0.3 1.1-0.3 0.1-0.3 0.2-0.2 0.2 0q0 0.1-0.1 0.5c-0.2 1.1-0.6 1.3-0.9 1.3-0.5 0-0.8-0.8-0.8-1.2-0.2-1.9 0.4-3.5 0.6-3.9 0.1-0.5 0.3-0.3 0.2 0.1z"/>
		<path id="&lt;Path&gt;" class="s0" d="m21.1 14.1c0 0-0.1 0.3-0.1 0.5-0.4 0.9-0.2 1.4-0.1 1.5 0.2 0.4 0.6 0.2 0.8-0.2 0-0.1 0.1-0.1 0.1 0q-0.1 0.1-0.1 0.3c-0.2 0.6-0.4 0.7-0.6 0.7-0.4 0-0.6-0.4-0.6-0.7-0.1-1 0.4-1.9 0.5-2.1 0.1-0.3 0.2-0.2 0.1 0z"/>
		<path id="&lt;Path&gt;" class="s0" d="m13.8 12.9l1 0.7q0 0 0 0.1l-0.6 0.8q0 0 0 0l-1-0.7q-0.1-0.1 0-0.1l0.5-0.8q0.1 0 0.1 0z"/>
		<path id="&lt;Compound Path&gt;" fill-rule="evenodd" class="s0" d="m30.7 16.2c-0.1 0.2-0.4 0.9-0.5 1 0 0.1-4.5 2.1-5.6 2.7-1.1 0.5-2 0.9-2.7 1.5-1.2 0.8-1.8 1.6-1.9 1.7-1.4 2-2.6 1.7-3.1 1.6-1.7-0.6-1.2-2.8-0.8-4-0.7 0.5-1.9 1.1-4.2 1.9-3.7 1.1-5.2 0.1-5.6-0.2-2.2-1.6-1-4.2-0.7-4.9-0.2-0.3-0.3-0.8-0.4-1.1-0.1-1.8 0.5-3.4 0.7-3.8 0.1-0.5 0.2-0.3 0.1 0.1 0 0-0.1 0.5-0.2 0.8-0.4 1.7-0.1 2.5-0.1 2.6 0.5 0.9 1 0.4 1.2-0.2 0.1-0.3 0.2-0.2 0.2 0q-0.1 0.1-0.1 0.5c-0.2 1-0.6 1.3-0.9 1.3q-0.1 0-0.2-0.1c-0.1 0.4-0.3 1.1-0.4 1.4 0 2.2 1.8 2.6 2.3 2.7 2.9 0.9 7.7-1.7 8.1-2q0.6-0.3 0.5-0.5c-0.2-0.6-0.7-0.6-1.1-0.6-0.2 0-1.3 0.2-1.9-0.3-0.8-0.7-0.2-1.8 0.2-2.3 0.1-0.1 0.4-0.4 0.5-0.4 0.7-0.3 2-0.3 2.7 2.5 0.2 0.8 0.1 1.4-0.1 1.8q0 0 0 0.1 0 0.1 0 0.1c-0.1 0.2-0.5 1.3-0.6 1.8-0.4 2.5 1.7 1.9 2.4 1.4 0.4-0.2 1.6-1.9 2.8-2.7 0.5-0.3 3.2-1.8 3.5-2-0.6-0.2-1.2-1-1.6-1.6-0.5-1.1-0.2-2.2 0.4-3 0.6-0.8 1.6-1 2.3-1.1 0.7-0.1 2.1 0.3 2.4 0.6 0.3 0.3 0.2 0.4-0.3 0.2-1.8-0.3-3.8 0.8-4.2 1-0.4 0.3-0.4 0.5-0.3 0.8 0.1 0.2 0.4 1 1.5 1.8 1 0.7 1.7 0.4 2.1 0.3 0.4-0.1 3.1-1.4 3.4-1.6 0.2-0.1 0.2 0 0.2 0.2zm-15.2 1.2c-0.7-1-1.3-0.8-1.4-0.7-0.4 0.1-0.6 0.6-0.1 0.7 0.5 0.2 0.8 0.1 1 0 0.2 0 0.5 0 0.5 0z"/>
		<path id="&lt;Path&gt;" class="s0" d="m44.6 11.8l1 0.8q0.1 0 0 0l-0.5 0.8q-0.1 0.1-0.1 0l-1-0.7-0.5 0.7q0 0.1 0 0l-1-0.7q-0.1 0 0 0l0.5-0.8q0.1-0.1 0.1-0.1l1 0.7 0.5-0.6q0-0.1 0-0.1z"/>
		<path id="&lt;Path&gt;" class="s0" d="m63.1 11.9c0 0-0.1 0.2-0.2 0.4-0.3 0.9-0.1 1.3-0.1 1.4 0.3 0.4 0.6 0.2 0.7-0.2 0.1-0.1 0.1 0 0.1 0q0 0.1 0 0.3c-0.2 0.5-0.4 0.7-0.6 0.7-0.3-0.1-0.4-0.5-0.5-0.7 0-0.9 0.4-1.7 0.5-2 0.1-0.2 0.1-0.1 0.1 0.1z"/>
		<path id="&lt;Path&gt;" class="s0" d="m53.3 11.4c0 0-0.1 0.3-0.2 0.4-0.3 1-0.1 1.4-0.1 1.5 0.3 0.5 0.6 0.2 0.8-0.1 0-0.2 0.1-0.1 0.1 0q0 0-0.1 0.2c-0.2 0.6-0.4 0.8-0.6 0.8-0.3-0.1-0.5-0.5-0.5-0.8-0.1-1 0.4-1.8 0.5-2.1 0.1-0.2 0.2-0.1 0.1 0.1z"/>
		<path id="&lt;Path&gt;" class="s0" d="m25.5 10.8c0.5 0.1 0.4 0.4 0.3 0.5-0.4 0.6-0.9 0.9-1.3 1-0.4 0.2-0.2-0.1 0-0.2 0 0 0.3-0.2 0.6-0.4 0.3-0.3-0.6-0.2-1-0.3-0.3 0-0.4 0.2-0.6 0.3-0.1 0.1-0.2 0.1-0.1-0.1 0.1-0.1 0.2-0.3 0.4-0.7 0.3-0.3 1.2-0.1 1.7-0.1z"/>
		<path id="&lt;Path&gt;" class="s0" d="m24.1 9c0 0.2-0.1 0.2-0.1 0.4-0.1 0.2-0.2 0.2-0.4 0.3-0.2 0.1-4.2 2.2-4.3 2.2-0.3 0.2-0.3 0.1-0.2 0q0-0.1 0-0.3c0.1-0.2 0.1-0.2 0.3-0.4 0.3-0.1 4.2-2.1 4.4-2.2 0.4-0.2 0.3-0.1 0.3 0z"/>
		<path id="&lt;Path&gt;" class="s0" d="m14.5 7.9c0 0-0.1 0.3-0.1 0.5-0.3 1.1-0.1 1.5 0 1.6 0.3 0.5 0.7 0.2 0.8-0.2 0-0.2 0.1-0.1 0.1 0q0 0.1-0.1 0.3c-0.1 0.7-0.4 0.9-0.6 0.9-0.4 0-0.6-0.5-0.6-0.8-0.1-1.1 0.3-2.1 0.4-2.4 0.1-0.2 0.2-0.1 0.1 0.1z"/>
		<path id="&lt;Path&gt;" class="s0" d="m52.4 7.4c0 0.1 0 0.1-0.1 0.3-0.1 0.1-0.2 0.2-0.4 0.3-0.1 0.1-5.3 3.1-5.4 3.1-0.3 0.2-0.2 0.1-0.2 0q0 0 0.1-0.3c0-0.1 0.1-0.2 0.3-0.3 0.2-0.1 5.3-3.1 5.5-3.2 0.3-0.2 0.3 0 0.2 0.1z"/>
		<path id="&lt;Path&gt;" class="s0" d="m35.5 7.3c0 0.1 1.1 2.9 1.2 3.1 0 0.1-0.1 0.2-0.2 0.1-0.1-0.1-0.7-0.7-0.7-0.7 0 0 0.8 6.7 0.9 7.3 0.3 2.2-0.1 3.2-0.6 4.2-1.7 2.6-5.7 2.9-6 3-0.3 0-0.5-0.1 0-0.3 3.1-1.2 4.7-2.5 5.5-3.4q0-0.1 0-0.3c0-1.9-2.3-4-2.6-4.3-0.3-0.3-1.9-1.6-3.9-3.8-0.4-0.5-0.8-1-0.9-1.1-0.1 0-0.1-0.1-0.1-0.2 0-0.1 0-0.9 0-1.1 0-0.1 0.1 0 0.2 0.1 0.2 0.2 2.1 1.4 2.2 1.6 0.2 0.1 0 0.1-0.2 0.1-0.1-0.1-0.6-0.2-0.6-0.2q0 0 0 0.1c1.3 1.9 4.8 4 5.7 6 0.5 1.2 0.6 2.2 0.5 2.7q0.3-0.4 0.3-0.6c0.2-0.6-0.3-3.4-0.3-3.9-0.4-3.2-0.9-7.3-1-7.6 0 0 0.4-0.7 0.4-0.8 0.1-0.2 0.1-0.1 0.2 0z"/>
		<path id="&lt;Path&gt;" class="s0" d="m58.7 7.7c0.1 0.2 0 0.6-0.1 0.8-0.1 0.2-0.2 0-0.3-0.1 0 0-0.2-0.1-0.3-0.2-0.5-0.5-0.7 0.4-0.8 0.8 0 0.3 0 1.2-0.1 1.8-0.1 0.2-0.2 0.2-0.3 0.1-0.3-1.2-1-1.8-1.1-1.9-0.1-0.1-0.2 0-0.2 0.1-0.1 0.1-0.1 0.1-0.2 0-0.1 0-0.4-0.2-0.6-0.4-0.1-0.1-0.1-0.5 0-0.7 0-0.4 0.2-0.5 0.3-0.4 1.4 0.8 1.8 2.1 1.9 2.3 0-1 0.1-1.9 0.6-2.6 0.5-0.5 1.1 0.3 1.2 0.4z"/>
		<path id="&lt;Path&gt;" class="s0" d="m38.3 7.2c0 0.1 1.1 3.1 1.2 3.2 0 0.2-0.1 0.2-0.2 0.1-0.1-0.1-0.6-0.6-0.6-0.6 0 0 0.8 7.8 0.9 8.1q0.2 2.3 0.1 3.4c-0.1 0.9-0.3 1.3-0.3 1.4-0.1 0.2-0.2 0.1-0.1-0.1 0-0.5-0.1-1.6-0.2-2.8-0.3-2.4-1.1-9.9-1.3-11.2 0-0.1-0.1-0.5-0.1-0.5 0 0 0.4-0.9 0.5-1 0-0.1 0-0.1 0.1 0z"/>
		<path id="&lt;Compound Path&gt;" fill-rule="evenodd" class="s0" d="m63.7 9.9c0 0.1-0.1 0-0.2-0.1-0.1-0.1-0.2-0.3-0.4-0.4-0.2 0.5-0.2 0.5-1.1 1.3-1.8 1.6-3.9 2.2-4 2.2-0.1 0-0.2-0.1 0-0.2 0.7-0.5 3.4-1.7 4.8-3.4 0 0-0.5-0.2-0.8-0.4-0.3-0.2-0.1-1 0.1-1.3 0.5-0.8 1-0.4 1.1-0.3 0.4 0.8 0.2 1.6 0.2 1.6 0.2 0.1 0.5 0.5 0.3 1zm-0.9-2.1c-0.1 0-0.2-0.1-0.5 0.3-0.1 0.1 0 0.3 0.2 0.3 0.2 0.1 0.6 0.3 0.6 0.3 0-0.1 0-0.6-0.3-0.9z"/>
		<path id="&lt;Path&gt;" class="s0" d="m28.2 7.4c0.1 0.1-0.1 0.4-0.2 0.5q0 0.1-0.2-0.1c-0.2-0.3-0.6-0.1-0.7 0-0.1 0-0.1 0.2 0.3 0.5 0.3 0.3 1.1 0.1 1.3 0.1 0.2 0 0.3 0 0.3 0.1-0.1 0.1-0.1 0.3-0.1 0.3-0.8 0.2-1.7 0.6-2.1 0.7q0 0-0.1 0.1c-0.1 0-0.1-0.1-0.1-0.1q0-0.1 0.1-0.3c0.1-0.2 0.2-0.2 0.4-0.3 0 0-0.3-0.2-0.5-0.5-0.1-0.3 0.4-1 0.9-1.2 0.5-0.2 0.7 0.1 0.7 0.2z"/>
		<path id="&lt;Path&gt;" class="s0" d="m11.3 7.5c0.1 0.2 0.1 0.5 0 0.8 0 0.1-0.2 0-0.3-0.1 0 0-0.1-0.1-0.2-0.2-0.5-0.4-0.6 0.4-0.6 0.8-0.1 0.3 0.2 2.5-0.7 3.3-0.8 0.7-1.5 1.2-1.3 0.9 0.2-0.4 1.1-1.2 1.3-1.5 0.2-0.2 0.7-0.8 0.3-1.5-0.2-0.3-0.5-0.7-1-1.1-0.2-0.1-0.2 0-0.2 0.1 0 0.1-0.1 0.1-0.2 0 0 0-0.4-0.2-0.5-0.3-0.1-0.1-0.1-0.5-0.1-0.7 0-0.3 0.1-0.4 0.2-0.3 1.3 0.6 1.8 1.7 1.9 1.9 0-0.9 0-1.7 0.4-2.3 0.3-0.6 1 0.1 1 0.2z"/>
		<path id="&lt;Path&gt;" class="s0" d="m17.3 7.1c0.1 0.1 1.3 2.9 1.4 3.1 0.1 0.2-0.1 0.2-0.2 0.1-0.1-0.1-0.7-0.6-0.7-0.6 0 0 1.1 5.3 1.2 5.6 1 4.9 0.1 6.4 0.1 6.6-0.1 0.1-0.2 0.1-0.2-0.1 0.3-2.6-1.2-8.9-1.2-9.3-0.1-0.3-0.7-4.1-0.8-4.6 0 0 0.2-0.7 0.3-0.9 0-0.1 0.1 0 0.1 0.1z"/>
		<path id="&lt;Path&gt;" class="s0" d="m33.6 7.3c0.1 0.2 0.1 0.5 0.1 0.7 0 0.2-0.2 0.1-0.3 0 0 0-0.1-0.1-0.2-0.2-0.5-0.3-0.6 0.5-0.6 0.8 0 0.3 0.2 1.1 0.2 1.6 0 0.2-0.1 0.2-0.2 0-0.5-0.9-1.2-1.3-1.3-1.3-0.1-0.1-0.1 0-0.2 0.1 0 0.1 0 0.1-0.1 0.1 0-0.1-0.4-0.2-0.5-0.3-0.2-0.1-0.2-0.5-0.2-0.6 0-0.3 0.1-0.4 0.2-0.4 1.3 0.4 1.9 1.5 2 1.7-0.1-0.9-0.2-1.7 0.1-2.3 0.3-0.6 1 0 1 0.1z"/>
		<path id="&lt;Compound Path&gt;" fill-rule="evenodd" class="s0" d="m44.4 9.6c-0.1 0.1-0.1 0-0.2-0.1-0.1-0.1-0.4-0.4-0.4-0.4 0 0-0.4 0.9-1.1 1.4-1.3 1-2.4 1.2-2.4 1.2-0.2 0-0.2-0.1 0-0.2 0.8-0.5 1.7-0.8 3.1-2.5 0 0-0.4-0.2-0.7-0.4-0.3-0.2-0.1-1 0.1-1.3 0.5-0.8 1-0.4 1-0.3 0.5 0.8 0.3 1.6 0.3 1.6 0.2 0.2 0.5 0.5 0.3 1zm-0.9-2.1c-0.1 0-0.3 0-0.5 0.4-0.1 0.1 0 0.2 0.2 0.3 0.1 0 0.5 0.2 0.5 0.2 0.1-0.1 0.1-0.6-0.2-0.9z"/>
		<path id="&lt;Path&gt;" class="s0" d="m20.4 6.2c0 0-0.1 0.2-0.1 0.4-0.3 0.9-0.1 1.3 0 1.4 0.2 0.4 0.5 0.1 0.6-0.2 0.1-0.2 0.2-0.1 0.1 0q0 0 0 0.2c-0.1 0.6-0.3 0.7-0.5 0.7-0.3 0.1-0.5-0.4-0.5-0.6-0.2-0.9 0.2-1.8 0.3-2 0-0.2 0.1-0.1 0.1 0.1z"/>
		<path id="&lt;Path&gt;" class="s0" d="m28.9 5.2c-0.1 0.1-0.1 0.1-0.2 0.3 0 0.2-0.2 0.3-0.4 0.4-0.2 0.1-3.6 1.7-3.7 1.8-0.3 0.2-0.3 0.1-0.3-0.1q0.1 0 0.1-0.3c0.1-0.1 0.1-0.2 0.4-0.3 0.2-0.2 3.6-1.8 3.8-1.9 0.4-0.2 0.3-0.1 0.3 0.1z"/>
	</g>
</svg>