<svg version="1.2" xmlns="http://www.w3.org/2000/svg" viewBox="0 0 70 30" width="70" height="30">
	<title>New Project</title>
	<style>
		.s0 { fill: #191c4f } 
	</style>
	<g id="التوبة">
		<path id="&lt;Path&gt;" class="s0" d="m29.6 21.9c0.3 0.1 0.4 0.5 0.3 0.8-0.1 0.9-0.7 1.6-0.9 1.8-0.2 0.2-0.2 0.1-0.1-0.1 0 0 0.1-0.2 0.3-0.3 0.5-0.8 0.4-1.3 0.4-1.4-0.1-0.5-0.5-0.3-0.7 0-0.1 0.1-0.2 0-0.1 0q0-0.1 0.1-0.3c0.3-0.5 0.5-0.6 0.7-0.5z"/>
		<path id="&lt;Path&gt;" class="s0" d="m15.6 21.6c0 0.1 0 0.2-0.1 0.3-0.1 0.2-0.2 0.3-0.4 0.4-0.2 0.1-5.6 2.7-5.7 2.8-0.3 0.2-0.3 0.1-0.3 0q0-0.1 0.1-0.3c0-0.2 0.1-0.3 0.3-0.4 0.3-0.1 5.7-2.8 5.9-2.9 0.3-0.2 0.3 0 0.2 0.1z"/>
		<path id="&lt;Path&gt;" class="s0" d="m35.7 21.3c0.4 0.1 0.3 0.6 0.3 0.8-0.4 1-1.1 1.6-1.2 1.7-0.2 0.2-0.3 0.1-0.1-0.1 0 0 0.2-0.2 0.3-0.3 0.6-0.7 0.6-1.2 0.6-1.3-0.1-0.5-0.5-0.4-0.7-0.1-0.1 0.1-0.1 0-0.1 0q0-0.1 0.2-0.3c0.3-0.4 0.6-0.5 0.7-0.4z"/>
		<path id="&lt;Path&gt;" class="s0" d="m64 20c0 0 0 0.3 0 0.6 0 0.2-0.1 0.5-0.2 0.9-0.1 0.3-0.8 0.4-1.3 0.1-0.7 1.2-1.5 0.6-1.8 0.5-0.7-0.3-1 0.2-1.1 0.3-0.9 1.1-2.5 1-2.9 1.1-0.4 0-0.1-0.3 0.1-0.3 1.3-0.5 2-0.6 3.2-1.6 0.5-0.5 0.8-0.3 1-0.2 1 0.5 1.2 0 1.3-0.1 0.2-0.2 0.4-0.7 0.4-0.9 0.1-0.2 0.2 0 0.2 0.1 0 0.1-0.1 0.3-0.1 0.4 0.4 0.3 0.8 0.1 0.9 0 0 0 0-0.4 0-0.5q0-0.1 0.1-0.5c0.1-0.3 0.2 0 0.2 0.1z"/>
		<path id="&lt;Path&gt;" class="s0" d="m21.2 20.3l1.1 0.8q0 0.1 0 0.1l-0.7 0.9q0 0 0 0l-1.1-0.8q0 0 0-0.1l0.6-0.8q0-0.1 0.1-0.1z"/>
		<path id="&lt;Path&gt;" class="s0" d="m12 13.1l1.1 0.8q0 0.1 0 0.1l-0.6 0.9q-0.1 0-0.1 0l-1.1-0.8-0.5 0.8q0 0-0.1 0l-1-0.8q-0.1 0-0.1-0.1l0.7-0.9q0 0 0.1 0l1 0.8 0.5-0.8q0.1 0 0.1 0z"/>
		<path id="&lt;Path&gt;" class="s0" d="m29.8 13.1l1.1 0.8q0 0 0 0l-0.6 0.9q-0.1 0-0.1 0l-1-0.7-0.6 0.7q0 0-0.1 0l-1-0.8q-0.1 0 0 0l0.6-0.9q0 0 0.1 0l1 0.7 0.5-0.7q0.1 0 0.1 0z"/>
		<path id="&lt;Compound Path&gt;" fill-rule="evenodd" class="s0" d="m44.3 18.6c-0.3 1-1.8 1.6-2.1 1.7-1.4 0.4-1.5-0.9-1.4-1.9 0.1-1 0.8-2.2 0.8-2.2-0.1 0-1.5-1.1-1.6-1.3-0.1-0.1-0.2-0.2-0.3-0.3-0.2-0.1-0.2-0.1-0.2-0.1 0 0 0.1-1 0.1-1.2 0-0.1 0 0 0.1 0 0.2 0.1 1.7 0.7 1.8 0.8 0.2 0 0.1 0.2 0 0.2 0 0-0.6 0.1-0.6 0.1l1.3 0.9c0 0 1.7-2.2 1.9-2.5 0.2-0.2 0.2 0 0.1 0.2 0 0.2-0.3 1.2-0.4 1.3-0.1 0.2-1 1.4-1 1.4 0 0 1.2 0.7 1.4 1.1 0.5 0.7 0.2 1.4 0.1 1.8zm-2.2-2c0 0-0.7 1.3-0.8 1.5-0.4 0.8 0.4 1 0.7 0.9 0.3 0 1.3-0.5 1.8-0.9 0.5-0.4-1.4-1.4-1.7-1.5z"/>
		<path id="&lt;Path&gt;" class="s0" d="m24.8 12.5c0.6 0.1 0.5 0.4 0.3 0.6-0.4 0.7-1 1-1.5 1.2-0.4 0.1-0.2-0.2 0.1-0.4 0 0 0.2-0.1 0.6-0.4 0.4-0.3-0.6-0.3-1.1-0.3-0.4 0-0.5 0.2-0.7 0.3-0.1 0.2-0.3 0.1-0.1-0.1 0.1-0.2 0.1-0.4 0.5-0.8 0.3-0.3 1.3-0.2 1.9-0.1z"/>
		<path id="&lt;Path&gt;" class="s0" d="m17.5 12.4c0 0-0.1 0.3-0.1 0.5-0.4 1-0.2 1.5-0.1 1.6 0.2 0.5 0.6 0.2 0.8-0.2 0-0.2 0.1-0.1 0.1 0q0 0.1-0.1 0.3c-0.2 0.7-0.4 0.8-0.6 0.8-0.4 0-0.6-0.5-0.6-0.8-0.1-1.1 0.4-2 0.5-2.3 0.1-0.3 0.2-0.1 0.1 0.1z"/>
		<path id="&lt;Compound Path&gt;" fill-rule="evenodd" class="s0" d="m65.6 17.3c-0.1 0.2-0.4 1.2-1.7 1-0.4-0.1-1.1-0.3-1.4-1-0.4 0.4-1.2 1.8-2.8 1.5-0.3-0.1-1.5-0.5-1.5-1.9 0 0-1.3 1.1-1.9 1.4 0 0.5 0 1.1-0.3 1.7-0.2 0.7-3.1 3.9-5.4 4.4-0.8 0.2-3.7 0.7-3.8-2.6-0.1-0.7 0-1.2 0-1.6-1.8 1.4-4 2.5-4.6 2.8-1 0.5-4.4 1.1-5 1.2-0.4 0.1-0.5-0.1-0.2-0.2 0.2-0.1 7.8-2.7 11.7-6.8q0.1-0.2-0.1-0.5c-0.1-0.2-1.3-2.5-1.4-2.8-0.1-0.3-0.3-0.7-0.4-0.8q0-0.2 0-0.4c0-0.1 0.1-0.8 0.2-0.9 0-0.2 0.1-0.1 0.2 0 0 0.1 1.3 1.3 1.4 1.5 0.1 0.2 0 0.2 0 0.2-0.1 0-0.7 0-0.7 0 0 0 0.8 1.4 1.1 1.9 0.5 1.1 0.2 2 0 2.4-0.3 0.7-1 1.4-1.7 2.1-0.2 0.6-0.4 3.3 2.1 3.4 0.4 0 1.7 0.1 4.3-2 0.6-0.5 1.2-1 1.8-1.8 0.2-0.4 0.4-0.9 0-0.9-0.5 0.1-3.1 1.1-3.5-0.6-0.1-0.4 0.1-4.2 2.7-2.3 0.3 0.2 0.8 0.6 1.2 1.4 0.4-0.2 1.2-0.7 2.2-1.5 0.3-0.2 0.6-0.4 0.6 0 0 0.3-0.2 2.5 2.2 1.9 0.2-0.1 1.3-0.3 2-2.2 0.2-0.4 0.5-0.4 0.3 0-0.2 0.5-0.4 0.9-0.2 1.1 0.2 0.2 0.9 0.7 1.8 0.6 0.3 0 0.4-0.2 0.3-0.4-0.1-0.2-0.4-0.7-0.4-0.7 0.1-0.3 0.2-0.8 0.3-0.9 0-0.2 0-0.3 0.1-0.2 0.1 0.1 0.9 1.2 0.5 2.5zm-10.8 0.1c-0.9-1.1-1.9-0.5-2-0.3-0.1 0.1-0.2 0.4 0.6 0.5 1 0 1.4-0.2 1.4-0.2z"/>
		<path id="&lt;Path&gt;" class="s0" d="m5.8 11.5c0 0-0.1 0.6-0.2 0.9-0.4 1.9-0.1 2.7 0 2.9 0.5 0.9 1.1 0.4 1.2-0.3 0.1-0.4 0.2-0.2 0.2-0.1q0 0.2-0.1 0.6c-0.2 1.2-0.6 1.4-0.9 1.5-0.6 0-0.9-0.9-1-1.4-0.2-2 0.5-3.7 0.6-4.2 0.2-0.5 0.3-0.3 0.2 0.1z"/>
		<path id="&lt;Path&gt;" class="s0" d="m42.9 10.4l1 0.8q0.1 0.1 0 0.1l-0.6 0.9q0 0-0.1 0l-1-0.8-0.5 0.8q-0.1 0-0.1 0l-1.1-0.8q0 0 0-0.1l0.6-0.8q0.1-0.1 0.1-0.1l1 0.8 0.6-0.7q0-0.1 0.1-0.1z"/>
		<path id="&lt;Path&gt;" class="s0" d="m62.9 10.5c0 0-0.1 0.3-0.2 0.5-0.3 0.9-0.1 1.3-0.1 1.4 0.3 0.5 0.6 0.2 0.7-0.1 0.1-0.2 0.2-0.1 0.1 0q0 0.1 0 0.3c-0.2 0.5-0.4 0.7-0.6 0.7-0.4 0-0.5-0.5-0.5-0.7-0.1-1.1 0.3-1.9 0.4-2.2 0.1-0.2 0.2-0.1 0.2 0.1z"/>
		<path id="&lt;Path&gt;" class="s0" d="m52.2 9.9c0 0-0.1 0.3-0.1 0.5-0.4 1-0.2 1.5-0.1 1.6 0.2 0.5 0.6 0.3 0.8-0.1 0-0.2 0.1-0.1 0.1 0q0 0.1-0.1 0.3c-0.2 0.6-0.4 0.7-0.6 0.7-0.4 0-0.6-0.5-0.6-0.7-0.1-1.1 0.4-2.1 0.5-2.3 0.1-0.3 0.2-0.2 0.1 0z"/>
		<path id="&lt;Path&gt;" class="s0" d="m29.7 9.4c0 0 0.1 0.8-0.1 1.3-0.6 1.1-1.3 0.8-1.5 0.7-1.1 1.1-1.6 0.3-1.7 0-0.1-0.3 0.1-0.8 0.2-1.1 0.1-0.2 0.2 0 0.2 0.1-0.1 0.2-0.1 0.4-0.1 0.5 0.3 0.6 1.1 0.2 1.2 0 0.2-0.2 0.1-0.4 0.1-0.6 0.1-0.2 0-0.3 0.2-0.5 0.2-0.3 0.2-0.1 0.2 0.1 0 0.2-0.1 0.6 0 0.8 0.2 0.2 0.9-0.1 0.9-0.2 0.1-0.1 0-0.6 0-0.7 0-0.1 0-0.2 0.2-0.5 0.1-0.3 0.2-0.2 0.2 0.1z"/>
		<path id="&lt;Path&gt;" class="s0" d="m13.7 7.1c0 0-0.1 0.3-0.2 0.5-0.3 0.9-0.2 1.4-0.1 1.5 0.3 0.5 0.6 0.2 0.8-0.1 0-0.2 0.1-0.1 0.1-0.1q0 0.1-0.1 0.3c-0.2 0.6-0.4 0.8-0.6 0.8-0.4 0-0.5-0.5-0.6-0.8 0-1 0.4-1.9 0.5-2.2 0.1-0.2 0.2-0.1 0.2 0.1z"/>
		<path id="&lt;Path&gt;" class="s0" d="m11.2 7c0.2 0.2 0.1 0.6 0 0.9-0.1 0.1-0.2 0-0.4-0.2 0 0-0.1-0.1-0.2-0.2-0.5-0.5-0.7 0.4-0.8 0.8 0 0.3-0.1 1.3-0.2 1.9 0 0.2-0.2 0.2-0.2 0.1-0.4-1.3-1.1-1.9-1.2-2-0.1-0.1-0.2 0.1-0.3 0.2 0 0 0 0-0.1 0-0.1 0-0.5-0.3-0.6-0.4-0.1-0.2-0.1-0.6-0.1-0.8 0-0.3 0.3-0.5 0.4-0.4 1.4 0.8 1.8 2.2 1.9 2.4 0.1-1 0.1-2 0.7-2.7 0.4-0.5 1.1 0.3 1.1 0.4z"/>
		<path id="&lt;Path&gt;" class="s0" d="m23.2 5.9c-0.1 0.2-0.1 0.2-0.2 0.4-0.1 0.3-0.2 0.3-0.4 0.5-0.2 0.1-7.4 3.7-8.1 4.2-0.8 0.5-0.7 0.8-0.5 0.9 0.5 0.1 0.8 0.5 0.5 1.1 0 0.1-0.1 0.1-0.1 0.1-0.1-0.1-0.2-0.3-0.5-0.3-0.4-0.1-0.6-0.7-0.4-1.3 0.1-0.5 0.3-0.8 0.6-1.1 0.6-0.5 8.5-4.4 8.8-4.6 0.4-0.2 0.3 0 0.3 0.1z"/>
		<path id="&lt;Compound Path&gt;" fill-rule="evenodd" class="s0" d="m33.9 20.3c-0.6 0.6-1.6 0.7-1.8 0.7-2.3 0.3-2.5-2.4-2.5-2.5-0.1-0.2-0.1-0.2-0.2-0.1-0.2 0.1-1.5 0.8-1.6 0.9-0.1 1.1-0.2 1.5-0.5 2-3.6 4.3-6.3 3.7-6.9 3.5-2.4-0.6-1.7-4.1-1.6-4.7q0.1-0.1 0.1-0.2c-1.1 0.4-2.5 0.6-3.8 0.3-1.2-0.3-2.2-1.6-2.5-2.2-0.1-0.1-0.3-0.3-0.5-0.3-0.5 0.1-1.4 0.4-1.9 1.4-0.2 0.4-1.3 3.2-1.6 3.7-0.1 0.2-0.8 1-1.7 0.4-1.8-1.5-1.4-5.3-1.3-5.6 0-0.3 0.2-0.3 0.2 0 0 0.3 0 1.3 0 1.8 0.2 1.8 1.3 2.5 1.5 2.6 0.7 0.5 1.3-0.3 1.4-0.6 0.1-0.3 0.7-1.9 0.8-2.4 0.4-0.9 1.3-1.9 2.2-2.4 0.9-0.6 1.3 0.2 1.4 0.5 0.9 1.7 2.5 1.9 2.9 2 2.6 0.2 4.6-1.3 5-1.7 0.4-0.3-0.4-1.3-0.7-1.6 0 0 0.1-0.6 0.2-1.1 0.2-0.5 0.8 0.7 1 1.2 0.3 1.1-0.1 2.5-0.4 2.8-0.3 0.3-1 0.7-1.9 1.1q0 0.1 0 0.2c-0.8 2.9 1.4 3.7 2.1 3.7 2.7 0.1 5.7-3.4 5.9-3.7 0.2-0.2-0.1-0.5-0.1-0.5-0.1 0-2.1 0.7-2.8 0-0.8-0.7-0.4-1.9 0.2-2.7 0.7-0.8 1.4-0.5 1.8-0.2 0.7 0.4 1.2 1.5 1.2 1.5 0.5-0.1 1.7-0.8 2.2-1.1 0.5-0.3 0.4 0 0.4 0.2-0.2 1.4 0.6 2.2 0.8 2.4 1.1 0.6 2.6-0.2 2.8-0.4 0.3-0.1 0.2-0.5 0.1-0.8 0-0.4-1.6-11.7-1.6-11.9 0 0 0.3-0.8 0.4-1 0-0.1 0.1 0 0.1 0.1 0 0.1 1.3 3.3 1.4 3.4 0.1 0.2-0.1 0.3-0.2 0.2-0.1-0.2-0.7-0.7-0.7-0.7 0 0 0 0.2 0.1 0.5 0 0 1.2 8.7 1.2 9.1 0.1 1-0.3 1.9-0.6 2.2zm-7.5-1.9c-0.8-1.1-1.5-0.6-1.7-0.5-0.1 0.2-0.2 0.5 0.2 0.6 0.9 0.1 1.5-0.1 1.5-0.1z"/>
		<path id="&lt;Path&gt;" class="s0" d="m51.3 5.6c0 0.1-0.1 0.2-0.1 0.3-0.1 0.2-0.2 0.3-0.4 0.4-0.2 0.1-5.8 3.3-5.9 3.4-0.3 0.2-0.3 0.1-0.2-0.1q0 0 0-0.3c0.1-0.1 0.1-0.2 0.4-0.3 0.2-0.2 5.7-3.4 5.9-3.5 0.4-0.2 0.3 0 0.3 0.1z"/>
		<path id="&lt;Path&gt;" class="s0" d="m30.8 5.6c0 0.2-0.1 0.3-0.2 0.5-0.1 0.2-0.2 0.3-0.5 0.5-0.2 0.1-8.9 4.3-9 4.4-0.5 0.3-0.4 0.1-0.4-0.1q0 0 0.1-0.4c0.1-0.2 0.2-0.3 0.5-0.5 0.3-0.2 8.9-4.3 9.2-4.5 0.4-0.2 0.4 0 0.3 0.1z"/>
		<path id="&lt;Path&gt;" class="s0" d="m58.1 5.9c0.1 0.3 0 0.7-0.1 1-0.1 0.1-0.2 0-0.4-0.2 0 0-0.1-0.1-0.2-0.2-0.6-0.5-0.8 0.4-0.9 0.9 0 0.3-0.1 1.3-0.2 1.9 0 0.3-0.1 0.2-0.2 0.1-0.4-1.3-1.1-1.9-1.3-2.1-0.1-0.1-0.2 0.1-0.2 0.2 0 0.1-0.1 0.1-0.2 0 0 0-0.5-0.3-0.6-0.4-0.2-0.2-0.1-0.7-0.1-0.9 0-0.3 0.3-0.4 0.4-0.4 1.5 0.9 1.9 2.4 2 2.6 0.1-1.1 0.1-2.1 0.7-2.8 0.5-0.7 1.2 0.2 1.3 0.3z"/>
		<path id="&lt;Compound Path&gt;" fill-rule="evenodd" class="s0" d="m63.5 8.3c0 0.1-0.1 0-0.2-0.1-0.1-0.1-0.2-0.3-0.4-0.4-0.2 0.5-0.2 0.6-1.2 1.4-2 1.7-4.3 2.3-4.4 2.4-0.1 0-0.1-0.1 0.1-0.2 0.7-0.6 3.6-1.9 5.1-3.7 0 0-0.5-0.2-0.8-0.4-0.3-0.3-0.1-1.1 0.1-1.4 0.6-0.9 1.1-0.5 1.2-0.4 0.5 0.9 0.2 1.7 0.2 1.7 0.3 0.2 0.5 0.5 0.3 1.1zm-0.9-2.2c-0.1-0.1-0.3-0.1-0.6 0.3-0.1 0.1 0 0.3 0.2 0.3 0.2 0.1 0.7 0.3 0.7 0.3 0-0.1 0-0.6-0.3-0.9z"/>
		<path id="&lt;Path&gt;" class="s0" d="m36.2 5.2c0 0.1 1.3 3.2 1.4 3.4 0 0.2-0.1 0.2-0.2 0.1-0.1-0.1-0.7-0.7-0.7-0.7 0 0 1.1 8.5 1.2 8.8 0.2 1.6 0.3 2.9 0.2 3.7 0 1-0.2 1.4-0.3 1.5-0.1 0.2-0.2 0.1-0.1-0.1-0.1-0.6-0.2-1.7-0.3-3-0.4-2.6-1.5-10.7-1.7-12.1 0-0.1-0.1-0.5-0.1-0.6 0 0 0.4-1 0.4-1.1 0.1-0.1 0.1 0 0.2 0.1z"/>
		<path id="&lt;Compound Path&gt;" fill-rule="evenodd" class="s0" d="m42.6 8c-0.1 0.1-0.1 0-0.3-0.1 0-0.1-0.4-0.4-0.4-0.4 0 0-0.4 1-1.2 1.5-1.4 1.1-2.5 1.3-2.6 1.3-0.1 0-0.2-0.1 0-0.2 0.9-0.5 1.9-0.9 3.4-2.7 0 0-0.4-0.2-0.7-0.5-0.4-0.2-0.2-1 0-1.4 0.6-0.9 1.1-0.4 1.2-0.3 0.5 0.9 0.2 1.7 0.2 1.7 0.3 0.2 0.6 0.5 0.4 1.1zm-1-2.2c-0.1-0.1-0.2-0.1-0.5 0.3-0.1 0.1 0 0.3 0.2 0.3 0.2 0.1 0.6 0.3 0.6 0.3 0-0.1 0-0.6-0.3-0.9z"/>
	</g>
</svg>