<svg version="1.2" xmlns="http://www.w3.org/2000/svg" viewBox="0 0 70 30" width="70" height="30">
	<title>New Project</title>
	<style>
		.s0 { fill: #191c4f } 
	</style>
	<g id="يونس">
		<path id="&lt;Path&gt;" class="s0" d="m34.5 21.3l1.2 0.9q0.1 0 0 0.1l-0.7 1q0 0-0.1 0l-1.1-0.9-0.6 0.9q-0.1 0-0.1 0l-1.2-0.9q-0.1 0 0-0.1l0.7-0.9q0-0.1 0.1-0.1l1.1 0.9 0.6-0.8q0.1-0.1 0.1-0.1z"/>
		<path id="&lt;Path&gt;" class="s0" d="m19.4 21.2c0 0 0 0.3-0.1 0.5-0.3 1.2 0 1.7 0 1.8 0.4 0.6 0.9 0.2 1-0.2 0.1-0.3 0.2-0.2 0.2-0.1q-0.1 0.1-0.1 0.4c-0.1 0.7-0.4 0.9-0.7 0.9-0.5 0.1-0.7-0.5-0.8-0.7-0.2-1.3 0.3-2.4 0.4-2.7 0.1-0.3 0.2-0.2 0.1 0.1z"/>
		<path id="&lt;Path&gt;" class="s0" d="m63.8 20.8c0 0 0 0.3 0 0.6 0 0.2-0.1 0.6-0.2 1-0.2 0.3-0.9 0.5-1.4 0.1-0.9 1.4-1.7 0.7-2.1 0.5-0.8-0.3-1 0.2-1.2 0.4-1 1.2-2.8 1.1-3.2 1.2-0.5 0-0.1-0.3 0.1-0.3 1.4-0.5 2.2-0.6 3.5-1.8 0.6-0.6 0.9-0.3 1.1-0.2 1.2 0.5 1.4 0 1.5-0.2 0.2-0.1 0.4-0.7 0.5-0.9 0.1-0.2 0.2-0.1 0.1 0.1 0 0.1 0 0.3-0.1 0.4 0.5 0.4 1 0.1 1.1 0 0 0 0-0.4 0-0.5q-0.1-0.2 0.1-0.6c0.1-0.3 0.2 0 0.2 0.2z"/>
		<path id="&lt;Compound Path&gt;" fill-rule="evenodd" class="s0" d="m41.9 19.1c-0.4 1.2-2 1.8-2.4 1.9-1.5 0.5-1.6-1-1.5-2.1 0.1-1 0.8-2.4 0.8-2.4 0 0-1.6-1.3-1.7-1.4-0.1-0.1-0.3-0.3-0.4-0.4-0.2-0.1-0.2-0.2-0.2-0.2 0 0 0.1-1.1 0.1-1.2 0-0.1 0-0.1 0.2 0 0.1 0 1.8 0.7 2 0.8 0.1 0.1 0.1 0.2 0 0.2-0.1 0.1-0.7 0.2-0.7 0.2l1.4 1c0 0 1.9-2.5 2.1-2.7 0.2-0.3 0.2-0.2 0.2 0.1-0.1 0.3-0.5 1.3-0.5 1.5-0.1 0.2-1.1 1.5-1.1 1.5 0 0 1.3 0.8 1.6 1.2 0.5 0.8 0.2 1.6 0.1 2zm-2.5-2.2c0 0-0.8 1.5-0.9 1.7-0.4 0.9 0.4 1.1 0.8 1 0.3 0 1.4-0.6 2-1 0.5-0.5-1.5-1.5-1.9-1.7z"/>
		<path id="&lt;Path&gt;" class="s0" d="m11.3 15.5c0 0-0.1 0.6-0.2 1-0.4 1.9-0.1 2.8 0 2.9 0.5 1 1.1 0.4 1.3-0.3 0.1-0.4 0.2-0.2 0.2 0q0 0.2-0.1 0.6c-0.2 1.2-0.6 1.5-0.9 1.5-0.7 0-1-0.9-1.1-1.4-0.2-2.1 0.5-3.9 0.6-4.4 0.2-0.5 0.3-0.3 0.2 0.1z"/>
		<path id="&lt;Compound Path&gt;" fill-rule="evenodd" class="s0" d="m65.6 17.7c-0.1 0.3-0.4 1.4-2 1.1-0.4-0.1-1.2-0.3-1.5-1.1-0.4 0.5-1.3 2-3.1 1.7-0.4-0.1-1.6-0.5-1.7-2.1 0 0-1.4 1.2-2.1 1.5 0 0.6 0 1.2-0.3 2-0.2 0.7-3.4 4.3-6 4.8-0.9 0.2-4.2 0.8-4.3-2.9 0-0.7 0-1.3 0.1-1.7-2.1 1.6-4.5 2.8-5.2 3.1-1.1 0.5-4.9 1.2-5.5 1.3-0.5 0.1-0.6-0.1-0.3-0.2 0.3-0.2 8.7-3 13-7.6 0.1-0.1 0.1-0.3 0-0.5-0.2-0.3-1.5-2.9-1.6-3.2-0.2-0.4-0.4-0.8-0.4-0.9q-0.1-0.2-0.1-0.4c0.1-0.2 0.2-0.9 0.2-1 0.1-0.2 0.1-0.1 0.2 0 0.1 0.1 1.5 1.5 1.6 1.7 0.2 0.2 0.1 0.2 0 0.2 0 0-0.7 0-0.7 0 0 0 0.9 1.5 1.2 2.1 0.5 1.3 0.2 2.3 0 2.7-0.4 0.8-1.1 1.6-2 2.3-0.1 0.6-0.4 3.7 2.4 3.8 0.5 0 1.9 0.2 4.8-2.2 0.7-0.5 1.4-1.2 2-2.1 0.3-0.3 0.5-1 0-0.9-0.5 0.1-3.4 1.2-3.9-0.7-0.1-0.4 0.2-4.7 3.1-2.6 0.2 0.2 0.8 0.7 1.3 1.6 0.4-0.3 1.4-0.8 2.5-1.7 0.3-0.3 0.6-0.4 0.6 0 0 0.4-0.2 2.8 2.4 2.1 0.3-0.1 1.5-0.3 2.3-2.4 0.2-0.5 0.5-0.4 0.3 0-0.2 0.5-0.5 1-0.2 1.2 0.3 0.3 1 0.8 2 0.7 0.3 0 0.5-0.2 0.4-0.5-0.2-0.2-0.5-0.8-0.5-0.8 0.1-0.3 0.2-0.9 0.3-1 0-0.1 0.1-0.3 0.2-0.1 0.1 0.1 1 1.2 0.5 2.7zm-12.1 0.2c-0.9-1.3-2.1-0.6-2.2-0.4-0.1 0.1-0.2 0.4 0.7 0.5 1.1 0.1 1.5-0.1 1.5-0.1z"/>
		<path id="&lt;Path&gt;" class="s0" d="m15.7 11.5c0 0 0 0.3-0.1 0.6-0.3 1.2 0 1.6 0 1.8 0.5 0.5 0.9 0.1 1-0.3 0.1-0.2 0.2-0.1 0.2 0q-0.1 0.1-0.1 0.3c-0.1 0.7-0.4 0.9-0.7 1-0.5 0-0.7-0.5-0.8-0.8-0.2-1.2 0.3-2.3 0.4-2.7 0.1-0.3 0.2-0.2 0.1 0.1z"/>
		<path id="&lt;Compound Path&gt;" fill-rule="evenodd" class="s0" d="m34 17c-0.2 0.7-1.2 1.1-1.5 1.3 0 0 0 1.3-0.3 1.9-0.5 1.1-1.5 2.1-2.3 2.8-3.5 2.8-5.5 1.7-5.9 1.4-2-1.4-1-5.3-0.8-5.9q0 0 0 0c-0.8-0.1-1.5-0.7-1.5-0.7-0.6 1.6-1.4 1.5-1.6 1.5-0.7-0.1-1.3-1-1.3-1-0.8 1.1-1.9 1.1-2.1 1.1 0 0 0.1 1.5-0.1 2.1-0.2 1.2-2.2 2.5-2.5 2.8-4.1 2.8-7 1.1-7.3 0.9-2.8-2-1.1-6.1-0.9-6.8-0.5-0.2-0.8-1-0.8-1.5-0.3-2.2 0.4-4.1 0.6-4.7 0.1-0.5 0.3-0.3 0.2 0.2 0 0-0.1 0.6-0.2 1-0.5 2.1-0.1 3 0 3.2 0.5 1 1.1 0.4 1.4-0.4 0-0.4 0.2-0.2 0.1 0q0 0.2 0 0.6c-0.3 1.2-0.6 1.5-1 1.6-0.6 1.7-0.4 3.3-0.3 3.7 0.5 2.3 3.3 2.3 3.8 2.3 3.2-0.1 6-2.9 6.3-3.2 0.2-0.2 0.3-0.6 0.3-0.8-0.2-0.9-1.2-2.5-1.2-2.5 0 0 0.1-1 0.1-1.1 0-0.2 0.1-0.1 0.2 0 0.1 0.1 0.7 1 0.7 1 1.8 0.8 3-1.2 3.1-1.5 0.2-0.3 0.3-0.1 0.2 0.2 0 0.1-0.1 0.2-0.1 0.4 0 0.7 0.9 0.9 1 0.9 1 0.1 1.2-1.1 1.4-1.6 0.2-0.5 0.3-0.2 0.3 0.1 0.1 0.2 0.6 0.8 1.7 0.9 1 0 0.8-0.6 0.7-0.9-0.1-0.3-1.7-3.1-1.8-3.2-0.1-0.2-0.2-0.5-0.3-0.6-0.1 0-0.1-0.1-0.1-0.2 0 0 0.2-1.2 0.2-1.4 0.1-0.2 0.2 0.1 0.3 0.2 0 0 1.3 1.2 1.5 1.4 0.2 0.2 0 0.3-0.1 0.2-0.1 0-0.8-0.1-0.8-0.1 0 0 1.2 1.7 1.7 2.9 0.3 0.9 0 1.9 0 2.1-0.3 0.7-0.8 0.9-1.1 0.9q-0.2 0.1-0.3 0.1c-0.4 1-0.4 2.6-0.3 2.9 0.5 2.1 2.5 2.1 3.1 2 3.2-0.5 5.4-4.4 5.5-4.5 0-0.2 0-0.4-0.1-0.3-0.1 0-0.9 0.2-1.2 0.2-1.2 0.4-1.9-0.1-2.1-0.4-0.5-0.6-0.3-2.1 0.4-2.8 0.8-0.7 1.3-0.4 1.6-0.2 0.9 0.5 1.6 1.5 1.6 1.5 0.7-0.2 1.3-0.7 1.5-0.8 0.2-0.1 0-0.4-0.3-0.7-0.4-0.4-1.3-2-1.4-2.2-0.1-0.2-0.2-0.4-0.4-0.5-0.1-0.1-0.1-0.2-0.1-0.4 0-0.2 0.1-0.9 0.2-1.2 0.1-0.3 0.3 0.2 0.3 0.3 0.1 0.1 1.4 1.1 1.5 1.2 0.2 0.2 0 0.3-0.1 0.2q-0.2 0-0.6 0c0 0 1 1.3 1.1 1.5 0.6 1.3 0.3 2.3 0.2 2.6zm-3.1 0.5c-0.6-0.9-1.3-0.9-1.6-0.6-0.4 0.3-0.4 0.5-0.1 0.6 1 0.3 1.7 0 1.7 0z"/>
		<path id="&lt;Path&gt;" class="s0" d="m40.2 10.1l1.2 0.8q0.1 0.1 0.1 0.1l-0.7 1q-0.1 0-0.1 0l-1.2-0.8-0.6 0.8q0 0-0.1 0l-1.2-0.9q0 0 0-0.1l0.7-0.9q0-0.1 0.1 0l1.2 0.8 0.6-0.8q0-0.1 0 0z"/>
		<path id="&lt;Path&gt;" class="s0" d="m62.5 10.1c0 0-0.1 0.3-0.1 0.5-0.4 1.1-0.2 1.6-0.2 1.7 0.3 0.5 0.7 0.2 0.9-0.2 0-0.2 0.1-0.1 0.1 0q0 0.1-0.1 0.3c-0.2 0.7-0.4 0.8-0.6 0.8-0.4 0-0.6-0.5-0.6-0.8-0.1-1.1 0.4-2.1 0.5-2.3 0.1-0.3 0.2-0.2 0.1 0z"/>
		<path id="&lt;Path&gt;" class="s0" d="m50.7 9.5c0 0-0.1 0.3-0.2 0.6-0.4 1.1-0.2 1.6-0.1 1.7 0.3 0.6 0.7 0.3 0.9-0.1 0-0.3 0.1-0.1 0.1 0q0 0.1-0.1 0.3c-0.2 0.7-0.5 0.9-0.7 0.9-0.4-0.1-0.6-0.6-0.6-0.9-0.1-1.2 0.4-2.3 0.5-2.6 0.2-0.3 0.3-0.1 0.2 0.1z"/>
		<path id="&lt;Path&gt;" class="s0" d="m21.7 8.3l1.2 0.8q0.1 0.1 0 0.1l-0.7 1q0 0-0.1 0l-1.2-0.9q0 0 0-0.1l0.7-0.9q0.1-0.1 0.1 0z"/>
		<path id="&lt;Path&gt;" class="s0" d="m18.7 6.6c-0.1 0.2-0.1 0.2-0.2 0.5-0.1 0.2-0.2 0.3-0.4 0.4-0.2 0.2-7.9 4-8.7 4.5-0.8 0.6-0.7 0.9-0.5 1 0.6 0.1 0.9 0.6 0.5 1.2 0 0.1 0 0.1-0.1 0 0-0.1-0.2-0.2-0.5-0.3-0.4 0-0.6-0.7-0.5-1.3 0.1-0.5 0.4-0.9 0.7-1.2 0.7-0.5 9.1-4.7 9.4-4.9 0.4-0.2 0.3 0 0.3 0.1z"/>
		<path id="&lt;Path&gt;" class="s0" d="m10.9 6.3c0.1 0.2 0.1 0.7 0 1-0.1 0.2-0.3 0-0.4-0.2 0 0-0.2-0.1-0.3-0.2-0.7-0.5-0.8 0.5-0.8 1-0.1 0.3 0 1.5 0 2.1-0.1 0.3-0.2 0.3-0.3 0.1-0.5-1.4-1.4-1.9-1.5-2.1-0.2-0.1-0.3 0.1-0.3 0.2 0 0.1-0.1 0.1-0.1 0.1-0.1-0.1-0.6-0.3-0.8-0.4-0.1-0.2-0.1-0.7-0.1-0.9 0-0.4 0.2-0.5 0.3-0.5 1.7 0.8 2.3 2.3 2.4 2.5 0-1.1 0-2.2 0.5-3 0.5-0.7 1.3 0.2 1.4 0.3z"/>
		<path id="&lt;Path&gt;" class="s0" d="m26.4 5.4c0 0-0.1 0.3-0.1 0.6-0.3 1.1-0.1 1.6 0 1.8 0.4 0.5 0.9 0.1 1-0.3 0.1-0.2 0.2-0.1 0.1 0q0 0.1 0 0.3c-0.2 0.7-0.5 0.9-0.7 1-0.5 0-0.8-0.5-0.8-0.8-0.2-1.2 0.2-2.3 0.3-2.7 0.2-0.3 0.3-0.2 0.2 0.1z"/>
		<path id="&lt;Compound Path&gt;" fill-rule="evenodd" class="s0" d="m32.5 7.9c0 0.2-0.1 0.1-0.2 0-0.1-0.1-0.5-0.4-0.5-0.4 0 0-0.9 1.7-1.7 2.5-1.4 1.3-2.7 1.9-2.8 1.9-0.1 0-0.2-0.1 0-0.3 0.9-0.7 2.6-2 4-4.2 0 0-0.5-0.1-0.9-0.4-0.4-0.2-0.3-1.1-0.1-1.5 0.5-1.1 1.1-0.7 1.2-0.5 0.7 0.9 0.5 1.8 0.5 1.8 0.3 0.2 0.7 0.5 0.5 1.1zm-0.9-1.3c0-0.1 0-0.7-0.4-1-0.2 0-0.3 0-0.6 0.5-0.1 0.1 0 0.3 0.3 0.3 0.2 0.1 0.7 0.2 0.7 0.2z"/>
		<path id="&lt;Path&gt;" class="s0" d="m49.6 4.7c0 0.1 0 0.1-0.1 0.3-0.1 0.2-0.2 0.3-0.4 0.4-0.2 0.2-6.4 3.7-6.6 3.8-0.3 0.3-0.3 0.1-0.2 0q0-0.1 0-0.4c0.1-0.2 0.2-0.2 0.4-0.4 0.3-0.1 6.4-3.7 6.7-3.8 0.3-0.2 0.3-0.1 0.2 0.1z"/>
		<path id="&lt;Path&gt;" class="s0" d="m57.2 5c0.1 0.3 0 0.8-0.1 1.1-0.1 0.2-0.3 0-0.4-0.2 0 0-0.1-0.1-0.3-0.3-0.6-0.5-0.8 0.5-0.9 1-0.1 0.4-0.1 1.5-0.2 2.2-0.1 0.3-0.2 0.3-0.3 0.1-0.5-1.5-1.3-2.2-1.4-2.3-0.2-0.1-0.3 0.1-0.3 0.2 0 0.1-0.1 0.1-0.2 0-0.1 0-0.5-0.3-0.7-0.5-0.1-0.1-0.1-0.7-0.1-0.9 0.1-0.4 0.3-0.5 0.4-0.5 1.7 1 2.2 2.6 2.3 2.9 0.1-1.3 0.2-2.3 0.8-3.2 0.5-0.7 1.3 0.3 1.4 0.4z"/>
		<path id="&lt;Compound Path&gt;" fill-rule="evenodd" class="s0" d="m63.3 7.7c-0.1 0.1-0.1 0-0.3-0.1-0.1-0.2-0.2-0.3-0.4-0.5-0.3 0.6-0.3 0.7-1.3 1.5-2.3 2-4.8 2.7-4.9 2.7-0.2 0.1-0.2 0 0-0.2 0.8-0.6 4.1-2.1 5.8-4.1 0 0-0.6-0.2-0.9-0.5-0.4-0.2-0.2-1.2 0-1.5 0.7-1 1.3-0.5 1.4-0.4 0.5 1 0.2 1.9 0.2 1.9 0.3 0.2 0.6 0.6 0.4 1.2zm-1.1-2.5c-0.1-0.1-0.3-0.1-0.6 0.4-0.1 0.1 0 0.3 0.2 0.4 0.2 0 0.7 0.3 0.7 0.3 0-0.2 0.1-0.7-0.3-1.1z"/>
		<path id="&lt;Compound Path&gt;" fill-rule="evenodd" class="s0" d="m22.1 7.4c0 0.1-0.1 0-0.2-0.1-0.1-0.1-0.5-0.4-0.5-0.4 0 0-0.4 1.1-1.2 1.7-1.4 1.1-2.7 1.4-2.7 1.4-0.2 0-0.2-0.1 0-0.2 0.9-0.6 2-1 3.5-3 0 0-0.5-0.2-0.9-0.4-0.3-0.3-0.2-1.1 0.1-1.5 0.6-1 1.1-0.5 1.2-0.4 0.6 0.9 0.3 1.8 0.3 1.8 0.3 0.2 0.6 0.5 0.4 1.1zm-1.1-2.3c-0.1-0.1-0.3-0.1-0.6 0.4-0.1 0.1 0.1 0.2 0.3 0.3 0.2 0.1 0.6 0.3 0.6 0.3 0-0.1 0.1-0.7-0.3-1z"/>
		<path id="&lt;Compound Path&gt;" fill-rule="evenodd" class="s0" d="m39.9 7.3c0 0.2-0.1 0.1-0.2-0.1-0.1-0.1-0.5-0.4-0.5-0.4 0 0-0.5 1.1-1.3 1.7-1.6 1.2-2.9 1.4-3 1.4-0.1 0-0.2-0.1 0.1-0.2 1-0.6 2.1-1 3.8-3.1 0 0-0.5-0.2-0.9-0.4-0.4-0.3-0.2-1.2 0.1-1.6 0.6-1 1.2-0.5 1.3-0.3 0.5 0.9 0.2 1.9 0.2 1.9 0.3 0.2 0.6 0.5 0.4 1.1zm-1.1-2.4c-0.1-0.1-0.2-0.1-0.6 0.3-0.1 0.2 0 0.3 0.3 0.4 0.2 0.1 0.7 0.3 0.7 0.3 0-0.1 0-0.7-0.4-1z"/>
	</g>
</svg>