<svg version="1.2" xmlns="http://www.w3.org/2000/svg" viewBox="0 0 70 30" width="70" height="30">
	<title>New Project</title>
	<style>
		.s0 { fill: #191c4f } 
	</style>
	<g id="هود">
		<path id="&lt;Path&gt;" class="s0" d="m11.7 26.2c0 0.1 0 0.1-0.1 0.3-0.2 0.3-0.2 0.2-0.4 0.3-0.2 0.1-3 1.1-3.1 1.1-0.3 0.1-0.3 0.1-0.3 0q0-0.1 0.1-0.3c0.1-0.2 0.1-0.3 0.4-0.4 0.2 0 3-1 3.2-1.1 0.3-0.2 0.3 0 0.2 0.1z"/>
		<path id="&lt;Path&gt;" class="s0" d="m11.7 24.8c0 0.1 0 0.2-0.1 0.3-0.2 0.3-0.2 0.3-0.4 0.4-0.2 0.1-3 1-3.1 1.1-0.3 0.1-0.3 0-0.3-0.1q0 0 0.1-0.3c0.1-0.2 0.1-0.2 0.4-0.3 0.2-0.1 3-1.1 3.2-1.2 0.3-0.1 0.3 0 0.2 0.1z"/>
		<path id="&lt;Path&gt;" class="s0" d="m27.6 22.3c0 0-0.1 0.4-0.2 0.7-0.4 1.4-0.1 2.1 0 2.2 0.4 0.7 0.9 0.3 1.1-0.3 0.1-0.2 0.2-0.1 0.1 0q0 0.2 0 0.5c-0.2 0.8-0.6 1.1-0.8 1.1-0.6 0-0.9-0.7-0.9-1-0.2-1.6 0.4-2.9 0.5-3.3 0.2-0.4 0.3-0.2 0.2 0.1z"/>
		<path id="&lt;Path&gt;" class="s0" d="m63.7 21.7c0 0 0 0.4 0 0.7 0 0.2-0.2 0.6-0.3 1-0.1 0.4-1 0.6-1.5 0.2-1 1.5-1.8 0.7-2.3 0.6-0.8-0.4-1.1 0.2-1.3 0.4-1 1.2-3 1.2-3.4 1.2-0.5 0.1-0.1-0.2 0.1-0.3 1.5-0.6 2.4-0.6 3.8-1.9 0.6-0.6 1-0.3 1.2-0.3 1.3 0.6 1.5 0.1 1.6-0.1 0.2-0.1 0.4-0.8 0.5-1 0.1-0.2 0.2-0.1 0.2 0.1 0 0.1-0.1 0.4-0.1 0.5 0.5 0.4 1 0 1.1-0.1 0 0 0-0.4 0-0.5q0-0.2 0.1-0.7c0.2-0.3 0.2 0 0.3 0.2z"/>
		<path id="&lt;Compound Path&gt;" fill-rule="evenodd" class="s0" d="m40 19.9c-0.4 1.3-2.2 2-2.6 2.1-1.6 0.5-1.7-1.1-1.6-2.2 0.1-1.2 0.9-2.7 0.9-2.7 0 0-1.7-1.4-1.9-1.5-0.1-0.1-0.2-0.3-0.4-0.4-0.2-0.1-0.1-0.2-0.1-0.2 0 0 0-1.2 0-1.3 0-0.2 0.1-0.1 0.2 0 0.1 0 2 0.7 2.1 0.8 0.2 0.1 0.2 0.3 0.1 0.3-0.1 0-0.7 0.2-0.7 0.2l1.5 1.1c0 0 2-2.8 2.2-3 0.2-0.3 0.2-0.1 0.2 0.1-0.1 0.3-0.5 1.5-0.6 1.6-0.1 0.2-1.1 1.7-1.1 1.7 0 0 1.4 0.8 1.7 1.3 0.6 0.9 0.2 1.7 0.1 2.1zm-2.6-2.4c0 0-0.9 1.6-1.1 1.9-0.4 1 0.5 1.1 0.9 1.1 0.3 0 1.6-0.7 2.2-1.1 0.6-0.5-1.7-1.7-2-1.9z"/>
		<path id="&lt;Compound Path&gt;" fill-rule="evenodd" class="s0" d="m32.4 18.8c-0.2 1.8-0.7 2-1.1 2.1-1.1 0.3-4.4-0.4-4.9-0.6-0.4-0.1-1.9 0.6-2.7 0.8q0 0.3 0 0.5c0 0-0.2 1.6-1.1 2.5-4.8 4.2-7.8 2.9-8.1 2.7-2.2-1.2-0.9-4.7-0.6-5.5q0-0.1 0-0.1c-1.4 0.9-3.6 2.3-4.1 2.6-2.3 1.5-3.2 1.4-3.7 1.2-2.4-1.2-0.3-5.8 0.2-7.1q0.1-0.4 0.3-0.6c-0.6-0.1-0.8-0.7-0.9-1.1-0.2-1.6 0.5-3.1 0.6-3.5 0.2-0.4 0.3-0.2 0.2 0.1 0 0-0.1 0.5-0.2 0.8-0.5 1.5-0.1 2.2 0 2.3 0.5 0.8 1 0.3 1.2-0.2 0.1-0.3 0.2-0.2 0.2-0.1q0 0.2-0.1 0.5c-0.1 0.7-0.4 1-0.6 1.1-1.8 3.6-1.5 4.6-1.4 5 0.4 1.8 1.7 1.3 2.1 1.1 2.5-1.1 6.3-3.7 7-4.1 0.7-0.5 0.4-0.7 0.3-0.8-0.5-0.7-2.5-1.7-3-1.9-1.7-0.8-3.3-2.6-3.5-2.9 0 0 0.1-1.2 0.1-1.4 0.1-0.3 0.2-0.1 0.3 0 0.4 0.3 1.9 1 2.1 1.1 0.2 0.1 0.1 0.2 0 0.2-0.1 0.1-0.7 0.2-0.7 0.2 0 0 1.6 1.1 4 2.2 1.3 0.8 1.3 1.7 1.4 2.1 0.2 1.5-0.3 2.1-0.5 2.3-0.1 0.1-0.4 0.3-0.9 0.6q0.1 0.1 0 0.2c-0.1 0.3-0.3 1-0.3 1.4-0.8 2.9 2.1 3.2 2.5 3.2 3.2-0.1 6.2-3.4 6.5-3.9 0.4-0.5-0.3-0.4-0.5-0.3-1.1 0.2-1.8 0-2.3-0.1-1.4-0.6-1.3-2.5-0.3-3.5 1.1-1.1 1.9-0.5 2.8 0.5q0.6 0.7 0.8 1.3c1.1-0.2 1.6-0.6 1.6-0.6-0.8-2.3 1-4.3 1.2-4.5 0 0-0.1 0-0.2 0 0-0.1 0.1-1.3 0.1-1.3 0 0 2 0.7 2.3 0.8 0.2 0.1 0.1 0.3-0.1 0.3-0.1 0.1-0.3 0.1-0.6 0.2 0.2 0.3 2.7 1.4 3.1 1.7 1.6 1 1.5 1.9 1.5 2.5zm-10.2 1.1c-0.5-1.4-1.7-1-1.9-0.9-0.2 0.2-0.6 0.7 0.4 0.9 1.1 0.3 1.5 0 1.5 0zm5.9-2.6c-0.3-0.9-1.1-2-1.6-1.5-0.4 0.5-1.3 1.5-0.9 1.9 0.4 0.4 0.9 0.9 1.3 0.7 0.4-0.1 1.5-0.4 1.2-1.1zm3.6 1.5c-0.9-1.2-2.6-1.7-2.8-1.7 0 0 0 0.4-0.2 1-0.1 0.4-0.5 1-0.5 1 1.1 0.3 2.3 0.3 3.1 0.2 0.8 0 0.5-0.4 0.4-0.5z"/>
		<path id="&lt;Compound Path&gt;" fill-rule="evenodd" class="s0" d="m65.6 18.5c-0.1 0.2-0.4 1.4-2.1 1.1-0.5-0.1-1.3-0.3-1.7-1.2-0.4 0.5-1.4 2.1-3.3 1.8-0.4 0-1.8-0.5-1.8-2.2 0 0-1.6 1.2-2.4 1.6 0.1 0.7 0.1 1.4-0.2 2.1-0.3 0.8-3.7 4.7-6.5 5.3-1 0.2-4.5 0.8-4.7-3.1 0-0.9 0.1-1.5 0.1-2-2.2 1.8-4.8 3.1-5.6 3.4-1.1 0.6-5.2 1.3-5.9 1.4-0.5 0.1-0.6 0-0.3-0.2 0.3-0.2 9.3-3.2 14-8.2 0.1-0.1 0.1-0.3 0-0.6-0.1-0.2-1.6-3-1.8-3.4-0.1-0.4-0.3-0.8-0.4-1q-0.1-0.2 0-0.4c0-0.2 0.1-0.9 0.2-1.1 0-0.2 0.1-0.1 0.2 0 0.1 0.2 1.6 1.6 1.8 1.8 0.1 0.2 0 0.3-0.1 0.3 0 0-0.7 0-0.7 0 0 0 0.9 1.7 1.2 2.3 0.6 1.3 0.3 2.4 0.1 2.9-0.5 0.8-1.3 1.7-2.2 2.4-0.1 0.7-0.4 4 2.6 4.1 0.5 0 2.1 0.2 5.1-2.3 0.8-0.6 1.6-1.3 2.3-2.3 0.2-0.4 0.4-1-0.1-1-0.5 0.1-3.7 1.3-4.2-0.7-0.1-0.5 0.2-5.1 3.3-2.8 0.3 0.2 1 0.8 1.4 1.7 0.5-0.3 1.5-0.8 2.7-1.8 0.4-0.3 0.7-0.5 0.7 0 0 0.4-0.3 3 2.6 2.3 0.3-0.1 1.5-0.4 2.4-2.7 0.3-0.5 0.6-0.4 0.4 0-0.2 0.6-0.5 1.1-0.2 1.4 0.3 0.2 1.1 0.8 2.1 0.7 0.3 0 0.5-0.2 0.4-0.5-0.1-0.3-0.5-0.9-0.5-0.9 0.1-0.3 0.3-0.9 0.3-1.1 0-0.1 0.1-0.3 0.2-0.1 0.1 0.1 1.1 1.3 0.6 3zm-13 0.1c-1.1-1.4-2.3-0.6-2.4-0.4-0.2 0.1-0.3 0.5 0.7 0.6 1.2 0 1.7-0.2 1.7-0.2z"/>
		<path id="&lt;Path&gt;" class="s0" d="m38.3 10.2l1.2 0.9q0.1 0.1 0.1 0.1l-0.8 1.1q0 0-0.1 0l-1.2-0.9-0.7 0.9q0 0-0.1 0l-1.3-1q0 0 0-0.1l0.8-1q0 0 0.1 0l1.2 0.9 0.7-0.9q0 0 0.1 0z"/>
		<path id="&lt;Path&gt;" class="s0" d="m62.3 10.3c0 0-0.1 0.3-0.2 0.5-0.4 1.1-0.2 1.6-0.1 1.8 0.3 0.5 0.7 0.2 0.9-0.2 0-0.2 0.1-0.1 0.1 0q0 0.1-0.1 0.3c-0.2 0.7-0.5 0.9-0.7 0.9-0.4 0-0.6-0.6-0.6-0.9-0.1-1.2 0.4-2.2 0.5-2.5 0.2-0.3 0.3-0.2 0.2 0.1z"/>
		<path id="&lt;Path&gt;" class="s0" d="m18.3 10.2c0 0-0.1 0.4-0.2 0.7-0.5 1.5-0.2 2.1-0.2 2.3 0.4 0.7 1 0.3 1.2-0.2 0.1-0.3 0.2-0.1 0.1 0q0 0.1 0 0.4c-0.3 0.9-0.7 1.1-1 1.1-0.5 0-0.7-0.7-0.8-1.1-0.1-1.6 0.6-2.9 0.7-3.3 0.2-0.4 0.3-0.2 0.2 0.1z"/>
		<path id="&lt;Path&gt;" class="s0" d="m49.5 9.6c0 0-0.1 0.3-0.2 0.6-0.4 1.2-0.2 1.8-0.1 1.9 0.3 0.6 0.8 0.3 1-0.2 0-0.2 0.1-0.1 0.1 0q0 0.1-0.1 0.4c-0.2 0.7-0.5 0.9-0.8 0.9-0.4 0-0.6-0.6-0.6-0.9-0.1-1.3 0.4-2.5 0.6-2.8 0.1-0.3 0.2-0.2 0.1 0.1z"/>
		<path id="&lt;Path&gt;" class="s0" d="m9 4.6c0 0-0.2 0.5-0.3 0.8-0.5 1.7-0.2 2.4-0.2 2.6 0.5 0.8 1.1 0.4 1.3-0.2 0.2-0.3 0.3-0.2 0.2 0q0 0.1-0.1 0.5c-0.3 1-0.7 1.2-1 1.2-0.6 0-0.9-0.8-0.9-1.2-0.2-1.8 0.6-3.4 0.8-3.8 0.2-0.4 0.3-0.2 0.2 0.1z"/>
		<path id="&lt;Path&gt;" class="s0" d="m48.4 4.4c-0.1 0.1-0.1 0.2-0.2 0.4-0.1 0.2-0.2 0.2-0.4 0.4-0.3 0.1-6.9 4-7.1 4.1-0.4 0.2-0.3 0.1-0.3-0.1q0 0 0.1-0.3c0-0.2 0.1-0.3 0.4-0.5 0.3-0.1 6.9-4 7.2-4.1 0.4-0.3 0.3-0.1 0.3 0.1z"/>
		<path id="&lt;Path&gt;" class="s0" d="m56.5 4.8c0.2 0.3 0.1 0.8-0.1 1.1-0.1 0.2-0.2 0-0.4-0.2 0 0-0.2-0.2-0.3-0.3-0.7-0.6-0.9 0.5-1 1.1-0.1 0.4-0.1 1.6-0.2 2.3-0.1 0.3-0.3 0.3-0.4 0.1-0.4-1.6-1.3-2.3-1.4-2.4-0.2-0.2-0.3 0-0.4 0.1 0 0.1-0.1 0.1-0.2 0.1 0-0.1-0.5-0.4-0.7-0.6-0.2-0.1-0.1-0.7-0.1-1 0-0.4 0.3-0.5 0.4-0.4 1.8 1 2.4 2.7 2.5 3 0.1-1.3 0.1-2.5 0.8-3.4 0.6-0.7 1.4 0.3 1.5 0.5z"/>
		<path id="&lt;Compound Path&gt;" fill-rule="evenodd" class="s0" d="m63.1 7.6c-0.1 0.2-0.1 0.1-0.3-0.1-0.1-0.1-0.2-0.3-0.5-0.5-0.3 0.6-0.2 0.7-1.4 1.7-2.4 2.1-5.1 2.8-5.3 2.9-0.1 0-0.2-0.1 0.1-0.3 0.8-0.7 4.4-2.2 6.2-4.4 0 0-0.6-0.3-1-0.5-0.4-0.3-0.2-1.3 0.1-1.7 0.7-1.1 1.3-0.6 1.4-0.4 0.6 1 0.3 2.1 0.3 2.1 0.3 0.2 0.6 0.5 0.4 1.2zm-1.2-2.6c-0.1-0.1-0.3-0.1-0.6 0.4-0.1 0.1 0 0.3 0.2 0.4 0.3 0.1 0.8 0.3 0.8 0.3 0-0.1 0.1-0.8-0.4-1.1z"/>
		<path id="&lt;Compound Path&gt;" fill-rule="evenodd" class="s0" d="m37.9 7.2c-0.1 0.2-0.1 0.1-0.3-0.1 0-0.1-0.5-0.4-0.5-0.4 0 0-0.5 1.1-1.4 1.8-1.7 1.3-3.1 1.5-3.2 1.5-0.1 0-0.2-0.1 0.1-0.3 1-0.6 2.3-1 4.1-3.2 0 0-0.6-0.2-1-0.5-0.4-0.3-0.2-1.3 0.1-1.7 0.7-1.1 1.3-0.5 1.4-0.4 0.6 1.1 0.3 2.1 0.3 2.1 0.3 0.2 0.6 0.6 0.4 1.2zm-1.2-2.6c-0.1-0.1-0.3-0.1-0.6 0.4-0.1 0.1 0 0.3 0.2 0.4 0.3 0.1 0.8 0.3 0.8 0.3 0-0.1 0.1-0.7-0.4-1.1z"/>
		<path id="&lt;Path&gt;" class="s0" d="m20.6 3.9c0.1 0.2 0 0.7-0.2 1.1-0.1 0.2-0.2-0.1-0.4-0.2 0 0-0.1-0.2-0.3-0.4-0.6-0.6-0.9 0.5-1 1-0.1 0.4-0.2 1.6-0.3 2.3-0.1 0.3-0.3 0.3-0.3 0.1-0.4-1.6-1.3-2.3-1.4-2.5q0 0-0.1 0c0.1 0.1 0.1 0.3 0.1 0.5-0.4 2-2.4 2.6-2.8 2.8-0.3 0.2-0.3 0.1 0-0.3 0.4-0.3 1.9-1.8 2.2-2 0.7-0.7-0.5-1.2-0.6-1.4-0.2-0.1-0.1-0.7-0.1-0.9 0.1-0.4 0.4-0.6 0.5-0.5 1.7 1.1 2.2 2.9 2.3 3.1 0.1-1.3 0.2-2.4 1-3.3 0.6-0.7 1.3 0.4 1.4 0.6z"/>
		<path id="&lt;Compound Path&gt;" fill-rule="evenodd" class="s0" d="m29.2 7.1c-0.1 0.2-0.2 0.1-0.4-0.1 0-0.1-0.6-0.5-0.6-0.5 0 0-1.4 2.6-3 3.8-1.9 1.5-3.5 2.2-3.6 2.2-0.2 0.1-0.2-0.1 0.1-0.3 1.2-0.7 4-3.3 6-5.9 0 0-0.7-0.2-1.1-0.5-0.5-0.4-0.3-1.5 0-2 0.8-1.3 1.5-0.7 1.6-0.5 0.8 1.2 0.4 2.4 0.4 2.4 0.4 0.2 0.8 0.6 0.6 1.4zm-1.5-3c-0.1-0.1-0.3-0.1-0.7 0.5-0.2 0.2 0 0.3 0.3 0.4 0.2 0.1 0.8 0.4 0.8 0.4 0.1-0.2 0.1-0.9-0.4-1.3z"/>
	</g>
</svg>