<svg version="1.2" xmlns="http://www.w3.org/2000/svg" viewBox="0 0 70 30" width="70" height="30">
	<title>New Project</title>
	<style>
		.s0 { fill: #191c4f } 
	</style>
	<g id="الرعد">
		<path id="&lt;Path&gt;" class="s0" d="m14.6 21.2c-0.1 0.1-0.1 0.1-0.2 0.3-0.1 0.2-0.2 0.3-0.4 0.4-0.2 0.1-5.4 2.5-5.5 2.5-0.4 0.3-0.4 0.1-0.3 0q0-0.1 0-0.3c0.1-0.2 0.2-0.3 0.4-0.4 0.3-0.2 5.5-2.5 5.7-2.6 0.4-0.2 0.3-0.1 0.3 0.1z"/>
		<path id="&lt;Path&gt;" class="s0" d="m30.2 21.2c0 0-0.1 0.3-0.2 0.5-0.3 1-0.1 1.5-0.1 1.6 0.3 0.5 0.7 0.2 0.8-0.2 0.1-0.1 0.1 0 0.1 0q0 0.1 0 0.3c-0.2 0.7-0.5 0.8-0.7 0.8-0.4 0-0.5-0.5-0.5-0.8-0.1-1.1 0.3-2 0.5-2.3 0.1-0.2 0.2-0.1 0.1 0.1z"/>
		<path id="&lt;Path&gt;" class="s0" d="m63.9 20.2c0 0 0 0.4 0 0.6 0 0.2-0.1 0.6-0.2 1-0.2 0.3-0.9 0.5-1.4 0.1-0.8 1.3-1.6 0.7-2 0.5-0.8-0.3-1 0.2-1.2 0.4-0.9 1.1-2.6 1-3 1.1-0.5 0-0.1-0.2 0.1-0.3 1.3-0.5 2.2-0.6 3.4-1.7 0.5-0.5 0.8-0.3 1-0.2 1.2 0.5 1.3 0 1.5-0.1 0.1-0.2 0.3-0.8 0.4-1 0.1-0.1 0.2 0 0.2 0.2-0.1 0.1-0.1 0.3-0.1 0.4 0.4 0.3 0.9 0 1-0.1 0 0 0-0.3 0-0.4q-0.1-0.2 0.1-0.6c0.1-0.3 0.2-0.1 0.2 0.1z"/>
		<path id="&lt;Compound Path&gt;" fill-rule="evenodd" class="s0" d="m42.8 18.7c-0.3 1.1-1.9 1.7-2.3 1.8-1.4 0.5-1.5-1-1.4-2 0.1-1 0.8-2.4 0.8-2.4-0.1 0-1.6-1.2-1.7-1.3-0.1-0.1-0.2-0.3-0.4-0.4-0.1-0.1-0.1-0.1-0.1-0.1 0 0 0-1.1 0-1.2 0-0.2 0.1-0.1 0.2-0.1 0.1 0.1 1.7 0.7 1.9 0.8 0.2 0.1 0.1 0.2 0 0.3-0.1 0-0.6 0.1-0.6 0.1l1.3 1c0 0 1.9-2.4 2.1-2.7 0.2-0.2 0.1-0.1 0.1 0.2 0 0.2-0.4 1.2-0.5 1.4-0.1 0.2-1 1.5-1 1.5 0 0 1.2 0.7 1.5 1.2 0.6 0.7 0.2 1.4 0.1 1.9zm-2.3-2.2c0 0-0.8 1.4-1 1.7-0.3 0.8 0.5 1 0.8 1 0.3-0.1 1.4-0.6 1.9-1.1 0.6-0.4-1.4-1.4-1.7-1.6z"/>
		<path id="&lt;Compound Path&gt;" fill-rule="evenodd" class="s0" d="m65.6 17.3c-0.1 0.3-0.4 1.3-1.9 1-0.4 0-1.1-0.2-1.4-1-0.4 0.4-1.3 1.9-3 1.6-0.4 0-1.6-0.5-1.6-2 0 0-1.5 1.1-2.1 1.5 0 0.5 0 1.2-0.2 1.8-0.3 0.7-3.4 4.2-5.8 4.7-0.9 0.2-4 0.8-4.2-2.8 0-0.7 0.1-1.3 0.1-1.7-1.9 1.6-4.3 2.7-5 3.1-1 0.5-4.6 1.1-5.3 1.2-0.4 0-0.5-0.1-0.2-0.2 0.2-0.2 8.3-2.9 12.4-7.3q0.2-0.2 0-0.5c-0.1-0.2-1.4-2.7-1.5-3.1-0.1-0.3-0.3-0.7-0.4-0.8q-0.1-0.2 0-0.4c0-0.2 0.1-0.8 0.2-1 0-0.1 0.1-0.1 0.1 0 0.1 0.1 1.4 1.5 1.6 1.6 0.2 0.2 0 0.3 0 0.3-0.1 0-0.7 0-0.7 0 0 0 0.8 1.4 1.1 2 0.5 1.2 0.2 2.1 0.1 2.6-0.4 0.7-1.1 1.5-1.9 2.2-0.2 0.6-0.4 3.5 2.3 3.6 0.4 0 1.8 0.2 4.5-2.1 0.7-0.5 1.4-1.1 2-2 0.2-0.3 0.4-0.9-0.1-0.9-0.4 0.1-3.2 1.1-3.7-0.6 0-0.4 0.2-4.5 3-2.5 0.2 0.2 0.8 0.7 1.2 1.5 0.5-0.2 1.3-0.8 2.4-1.6 0.3-0.3 0.6-0.4 0.6 0 0 0.4-0.2 2.7 2.3 2 0.3-0.1 1.4-0.3 2.2-2.3 0.2-0.5 0.5-0.4 0.3 0-0.2 0.5-0.4 0.9-0.2 1.2 0.3 0.2 1 0.7 1.9 0.6 0.3 0 0.5-0.2 0.4-0.4-0.1-0.3-0.4-0.8-0.4-0.8 0-0.3 0.2-0.9 0.2-1 0-0.1 0.1-0.3 0.2-0.1 0.1 0.1 1 1.2 0.5 2.6zm-11.6 0.1c-0.9-1.2-2-0.5-2.1-0.3-0.2 0.1-0.2 0.4 0.7 0.5 1 0.1 1.4-0.2 1.4-0.2z"/>
		<path id="&lt;Path&gt;" class="s0" d="m41.3 10l1.1 0.8q0 0 0 0.1l-0.7 0.9q0 0.1 0 0l-1.2-0.8-0.5 0.8q-0.1 0.1-0.1 0l-1.2-0.8q0-0.1 0-0.1l0.7-0.9q0-0.1 0.1 0l1.1 0.8 0.6-0.8q0-0.1 0.1 0z"/>
		<path id="&lt;Path&gt;" class="s0" d="m62.7 10c0 0-0.1 0.3-0.2 0.5-0.3 1-0.2 1.5-0.1 1.6 0.3 0.5 0.6 0.2 0.8-0.2 0-0.2 0.1-0.1 0.1 0q0 0.1-0.1 0.3c-0.2 0.6-0.4 0.8-0.6 0.8-0.4 0-0.6-0.5-0.6-0.8 0-1.1 0.4-2 0.5-2.3 0.1-0.2 0.2-0.1 0.2 0.1z"/>
		<path id="&lt;Path&gt;" class="s0" d="m51.3 9.4c0 0-0.1 0.3-0.2 0.6-0.4 1-0.2 1.5-0.1 1.6 0.3 0.6 0.7 0.3 0.8-0.1 0.1-0.2 0.2-0.1 0.2 0q-0.1 0.1-0.1 0.3c-0.2 0.7-0.5 0.8-0.7 0.8-0.4 0-0.6-0.5-0.6-0.8-0.1-1.2 0.4-2.2 0.5-2.4 0.2-0.3 0.3-0.2 0.2 0z"/>
		<path id="&lt;Path&gt;" class="s0" d="m10.2 12.5c0 0-0.1 0.4-0.1 0.6-0.4 1.2-0.1 1.7-0.1 1.8 0.4 0.5 0.8 0.2 1-0.2 0.1-0.3 0.2-0.1 0.1-0.1q0 0.1 0 0.4c-0.2 0.7-0.5 0.9-0.8 0.9-0.4 0-0.7-0.5-0.7-0.8-0.2-1.2 0.3-2.3 0.5-2.6 0.1-0.3 0.2-0.2 0.1 0z"/>
		<path id="&lt;Path&gt;" class="s0" d="m27.8 13c0 0 0.1 0.6 0.4 0.9 0.1 0.3 0.2 0.7 0.2 1.2-0.1 0.5-0.4 0.8-0.6 0.9-0.3 0.1-0.8 0.1-1.2-0.4-0.4 0.9-1 1-1.4 0.8-0.5-0.2-0.5-0.8-0.5-1.1 0.1-0.2 0-0.9 0-1 0-0.2 0.1-0.3 0.2-0.5 0.1-0.1 0.1-0.1 0.1 0.2 0 0.2-0.1 1.1 0.1 1.5 0.4 0.5 1.2 0 1.3-0.3 0.2-0.3-0.2-1.3-0.2-1.3q0-0.1 0-0.2c0 0 0-0.3 0.1-0.5q0.1-0.2 0.2 0c0.1 0.2 0.1 0.4 0.3 1.3 0.1 0.9 1 0.8 1.2 0.7 0.1-0.1 0.1-0.2 0.1-0.3-0.1-0.1-0.4-0.9-0.6-1.2-0.1-0.3 0-0.6 0.1-0.8 0.1-0.3 0.1-0.1 0.2 0.1z"/>
		<path id="&lt;Path&gt;" class="s0" d="m26.4 8.3c0 0-0.1 0.3-0.1 0.5-0.4 1-0.2 1.5-0.1 1.6 0.2 0.5 0.6 0.2 0.8-0.2 0-0.1 0.1 0 0.1 0q-0.1 0.1-0.1 0.3c-0.2 0.7-0.4 0.8-0.6 0.8-0.4 0-0.6-0.5-0.6-0.7-0.1-1.2 0.4-2.1 0.5-2.4 0.1-0.2 0.2-0.1 0.1 0.1z"/>
		<path id="&lt;Path&gt;" class="s0" d="m17.3 5.2c0.8 0.1 0.6 0.4 0.4 0.6-0.5 0.9-1.3 1.2-1.8 1.5-0.5 0.2-0.3-0.2 0-0.4 0 0 0.4-0.2 0.8-0.6 0.5-0.3-0.8-0.3-1.3-0.3-0.5 0-0.7 0.2-0.8 0.4-0.2 0.2-0.4 0.1-0.3-0.2 0.1-0.2 0.3-0.5 0.7-0.9 0.4-0.4 1.6-0.3 2.3-0.1z"/>
		<path id="&lt;Path&gt;" class="s0" d="m27.9 5.2c-0.1 0.2-0.1 0.2-0.2 0.5-0.2 0.2-0.3 0.3-0.6 0.5-0.3 0.1-9.1 4.5-9.3 4.6-0.5 0.3-0.4 0.1-0.4-0.1q0.1 0 0.1-0.4c0.1-0.2 0.2-0.3 0.6-0.5 0.3-0.2 9.1-4.5 9.4-4.7 0.5-0.3 0.5-0.1 0.4 0.1z"/>
		<path id="&lt;Path&gt;" class="s0" d="m50.3 4.8c-0.1 0.1-0.1 0.1-0.2 0.3 0 0.2-0.2 0.3-0.4 0.4-0.2 0.1-6.1 3.6-6.2 3.6-0.4 0.3-0.4 0.1-0.3 0q0 0 0.1-0.3c0-0.2 0.1-0.2 0.3-0.4 0.3-0.2 6.2-3.6 6.4-3.7 0.4-0.2 0.3-0.1 0.3 0.1z"/>
		<path id="&lt;Path&gt;" class="s0" d="m57.5 5.1c0.1 0.3 0.1 0.8-0.1 1 0 0.2-0.2 0-0.3-0.1 0 0-0.2-0.2-0.3-0.3-0.6-0.5-0.8 0.5-0.9 1-0.1 0.3-0.1 1.4-0.2 2.1-0.1 0.2-0.2 0.2-0.3 0-0.4-1.4-1.2-2-1.3-2.2-0.2-0.1-0.3 0.1-0.3 0.2 0 0.1-0.1 0.1-0.2 0 0 0-0.5-0.3-0.7-0.4-0.1-0.2 0-0.7 0-0.9 0-0.4 0.2-0.5 0.3-0.5 1.7 0.9 2.2 2.5 2.3 2.8 0-1.2 0.1-2.3 0.7-3.1 0.5-0.6 1.3 0.3 1.3 0.4z"/>
		<path id="&lt;Compound Path&gt;" fill-rule="evenodd" class="s0" d="m63.4 7.7c-0.1 0.1-0.1 0-0.3-0.1 0-0.2-0.2-0.3-0.4-0.4-0.3 0.5-0.2 0.5-1.2 1.4-2.2 1.9-4.6 2.5-4.8 2.6-0.1 0-0.1-0.1 0.1-0.2 0.7-0.6 3.9-2 5.5-4 0 0-0.5-0.2-0.9-0.5-0.3-0.2-0.1-1.1 0.1-1.5 0.6-0.9 1.2-0.4 1.3-0.3 0.5 0.9 0.2 1.8 0.2 1.8 0.3 0.2 0.6 0.6 0.4 1.2zm-1-2.4c-0.2-0.1-0.3-0.1-0.6 0.4-0.1 0.1 0 0.2 0.2 0.3 0.2 0.1 0.7 0.3 0.7 0.3 0-0.1 0-0.7-0.3-1z"/>
		<path id="&lt;Path&gt;" class="s0" d="m10.6 4.8c0.1 0.3 0 0.7-0.1 1-0.1 0.2-0.2 0-0.4-0.2 0 0-0.1-0.1-0.2-0.2-0.6-0.5-0.8 0.4-0.9 0.9 0 0.3-0.1 1.4-0.2 2 0 0.2-0.2 0.2-0.2 0-0.4-1.3-1.2-1.9-1.3-2-0.1-0.2-0.2 0-0.3 0.1 0 0.1-0.1 0.1-0.1 0.1-0.1-0.1-0.5-0.4-0.7-0.5-0.1-0.1-0.1-0.6 0-0.8 0-0.4 0.2-0.5 0.3-0.4 1.5 0.8 2 2.3 2.1 2.5 0.1-1.1 0.1-2.1 0.7-2.8 0.5-0.7 1.2 0.2 1.3 0.3z"/>
		<path id="&lt;Compound Path&gt;" fill-rule="evenodd" class="s0" d="m40.9 7.3c0 0.2-0.1 0.1-0.2-0.1-0.1 0-0.5-0.4-0.5-0.4 0 0-0.4 1.1-1.2 1.7-1.5 1.1-2.8 1.3-2.8 1.3-0.2 0-0.2-0.1 0-0.2 0.9-0.6 2-1 3.6-2.9 0 0-0.5-0.2-0.8-0.5-0.3-0.2-0.2-1.1 0.1-1.5 0.6-0.9 1.1-0.5 1.2-0.3 0.6 0.9 0.3 1.8 0.3 1.8 0.3 0.2 0.5 0.5 0.3 1.1zm-1-2.3c-0.1-0.1-0.3-0.1-0.6 0.3-0.1 0.2 0 0.3 0.2 0.4 0.2 0.1 0.7 0.3 0.7 0.3 0-0.1 0.1-0.7-0.3-1z"/>
		<path id="&lt;Path&gt;" class="s0" d="m29.7 4.2c0.1 0.1 1.5 3.5 1.5 3.7 0.1 0.2-0.1 0.2-0.2 0.1-0.1-0.1-0.8-0.7-0.8-0.7 0 0 0.9 5.4 1.1 6.6 0.2 1.2 0.5 3.1 0.2 4.5-0.2 0.9-0.7 1.5-1.3 1.9-1 0.6-2.2 0.9-2.8 1-2.2 0.6-4.5 2.4-5 2.8-2.2 2.1-3.2 2.4-3.9 2-2.7-1.4-0.7-4.8-0.5-5.3q0 0 0 0c-3.9 0.7-4.5-3.6-4.7-4 0 0-0.5 1.5-2.3 3-3.5 2.8-4.9 1.8-5.3 1.5-1.7-1.8 0.1-5.3 0.3-6q0.1 0 0.1-0.1c-0.5-0.2-0.7-1-0.7-1.4-0.1-2.2 0.8-4 1-4.5 0.2-0.5 0.4-0.3 0.2 0.2 0 0-0.2 0.5-0.3 0.9-0.7 1.9-0.4 2.9-0.3 3.1 0.4 1 1.1 0.5 1.4-0.3 0.1-0.3 0.2-0.1 0.1 0q0 0.2-0.1 0.6c-0.3 1.1-0.7 1.4-1.1 1.5-0.8 1.5-0.8 3.4-0.8 3.7 0.6 2.5 3 1 3.4 0.8 0.4-0.2 2.2-1.3 3.3-2.6 1-1 0.8-1.5 0.7-1.9 0-0.1-0.1-0.8-0.2-1.2-0.5-1.6-1.5-4.2-1.8-4.8 0 0 0.1-1.5 0.3-1.2 1.7 2.3 2.4 6.1 2.6 7 0.7 3.2 1.6 3.5 1.8 3.7-0.3-1-0.6-2.1-0.5-2.6 0.1-2.3 1.9-2.8 2.7-3.1 2.1-0.3 3 0.6 3.4 0.8 0.3 0.3 0.1 0.4-0.2 0.3-1.6-0.6-4.3 0.6-4.6 0.7-0.4 0.1-0.7 0.5-0.7 0.8 0.4 2.1 1.7 3.3 2.2 3.5 2 0.4 4.5-2 4.9-2.4 0.4-0.4 0.3-0.1 0.2 0.2 0 0.3-0.1 0.5-0.4 1-0.5 1.2-3 2.3-3.8 2.5q-0.2 0.1-0.4 0.2 0 0 0 0c-0.3 0.5-1 2.4-1 2.8 0 2.1 1.9 1.5 2.6 1.1 0.6-0.3 1.7-1.3 2.6-2 1.5-1.3 2.8-1.9 3.5-2.2 0.8-0.3 3.2-0.8 4.6-1.7 0.5-0.3 0.3-0.5 0.3-0.9-0.1-0.4-1.8-12.4-1.8-12.6 0 0 0.3-0.9 0.4-1.1 0-0.1 0.1 0 0.1 0.1z"/>
		<path id="&lt;Path&gt;" class="s0" d="m33.8 4.1c0 0.2 1.4 3.5 1.5 3.7 0 0.2-0.1 0.2-0.2 0.1-0.1-0.1-0.8-0.7-0.8-0.7 0 0 1.1 8.2 1.2 8.6 0.8 4.8 0.1 6.2 0 6.4-0.1 0.2-0.2 0.1-0.1-0.1-0.1-2-1.2-9.2-1.2-9.6-0.1-0.5-0.9-6.8-1-7.4 0 0 0.4-0.9 0.4-1 0.1-0.2 0.1-0.1 0.2 0z"/>
	</g>
</svg>