<svg version="1.2" xmlns="http://www.w3.org/2000/svg" viewBox="0 0 70 30" width="70" height="30">
	<title>New Project</title>
	<style>
		.s0 { fill: #191c4f } 
	</style>
	<g id="الإسراء">
		<path id="&lt;Path&gt;" class="s0" d="m35.1 25c-0.1 0.1-0.1 0.1-0.2 0.2-0.1 0.2-0.2 0.2-0.4 0.3-0.2 0.1-2.8 1.1-2.9 1.1-0.4 0.1-0.3 0-0.3-0.1q0 0 0.1-0.2c0.1-0.2 0.2-0.2 0.4-0.3 0.2-0.1 2.8-1 3.1-1.1 0.3-0.2 0.2 0 0.2 0.1z"/>
		<path id="&lt;Path&gt;" class="s0" d="m33.6 22.8c0.1 0.1 0 0.2 0 0.2 0 0.1-0.2 0.3-0.3 0.4q-0.1 0.1-0.1 0c-0.2-0.3-0.4-0.2-0.6-0.1-0.3 0.2-0.3 0.3-0.2 0.4 0.1 0.1 0.4 0.4 0.7 0.4 0.3 0.1 0.9-0.1 1.1-0.3 0.3-0.1 0.1 0.2 0.1 0.3 0 0-0.2 0.3-0.4 0.3-1.2 0.3-1.6 0.7-1.8 0.8-0.2 0.1-0.2 0-0.1-0.1 0 0 0-0.1 0.1-0.2q0.1-0.2 0.3-0.3 0 0-0.4-0.3c-0.4-0.4 0.5-1.3 0.9-1.6 0.4-0.3 0.6 0.1 0.7 0.1z"/>
		<path id="&lt;Path&gt;" class="s0" d="m15.4 22.6c0.4 0.1 0.4 0.6 0.3 0.8-0.3 1-1 1.6-1.2 1.8-0.2 0.2-0.3 0.1-0.1-0.1 0 0 0.2-0.2 0.3-0.3 0.7-0.8 0.6-1.2 0.6-1.4-0.1-0.5-0.6-0.4-0.8-0.1-0.2 0.1-0.2 0-0.1-0.1q0 0 0.1-0.2c0.4-0.5 0.7-0.5 0.9-0.4z"/>
		<path id="&lt;Path&gt;" class="s0" d="m25 21.3c0 0 0.1 0.3 0.1 0.6 0 0.2-0.2 0.5-0.3 0.9-0.1 0.3-0.8 0.5-1.3 0.1-0.8 1.3-1.5 0.7-1.9 0.5-0.7-0.3-0.9 0.2-1.1 0.4-0.9 1-2.6 1-3 1-0.4 0.1-0.1-0.2 0.1-0.3 1.3-0.4 2.1-0.5 3.3-1.6 0.5-0.5 0.8-0.3 1-0.2 1.1 0.5 1.3 0 1.4-0.1 0.2-0.1 0.3-0.7 0.4-0.9 0.1-0.2 0.2 0 0.2 0.1-0.1 0.1-0.1 0.3-0.1 0.4 0.4 0.4 0.9 0.1 1 0 0 0-0.1-0.4-0.1-0.5q0-0.1 0.2-0.6c0.1-0.2 0.1 0 0.1 0.2z"/>
		<path id="&lt;Path&gt;" class="s0" d="m64 20.1c0 0 0 0.3 0 0.5 0 0.2-0.1 0.6-0.3 0.9-0.1 0.4-0.8 0.5-1.3 0.2-0.8 1.2-1.5 0.6-1.9 0.4-0.7-0.2-0.9 0.3-1.1 0.4-0.9 1.1-2.6 1-3 1.1-0.4 0 0-0.2 0.1-0.3 1.3-0.5 2.1-0.6 3.3-1.6 0.5-0.6 0.9-0.3 1-0.2 1.1 0.4 1.3 0 1.4-0.2 0.2-0.1 0.4-0.7 0.4-0.9 0.1-0.1 0.2 0 0.2 0.2 0 0.1-0.1 0.3-0.1 0.4 0.4 0.3 0.9 0 1-0.1 0 0 0-0.3-0.1-0.4q0-0.2 0.2-0.6c0.1-0.3 0.1 0 0.2 0.2z"/>
		<path id="&lt;Path&gt;" class="s0" d="m8.9 18.3c0 0.2-0.1 0.2-0.1 0.4-0.1 0.2-0.2 0.3-0.4 0.4-0.2 0.1-2.7 1.5-2.9 1.6-0.4 0.3-0.3 0.2-0.3 0q0 0 0-0.3c0.1-0.2 0.1-0.2 0.4-0.4 0.2-0.1 2.8-1.6 3-1.7 0.4-0.2 0.3-0.1 0.3 0z"/>
		<path id="&lt;Path&gt;" class="s0" d="m29 17.6c0 0 0 0.3-0.1 0.5-0.3 0.9 0 1.3 0 1.4 0.4 0.5 0.7 0.2 0.9-0.2 0-0.2 0.1-0.1 0.1 0q0 0.1-0.1 0.3c-0.1 0.6-0.4 0.7-0.6 0.7-0.4 0.1-0.6-0.4-0.6-0.6-0.2-1 0.2-1.9 0.3-2.1 0.1-0.3 0.2-0.2 0.1 0z"/>
		<path id="&lt;Path&gt;" class="s0" d="m26.4 16.3c0.7 1.2 0.2 2.5 0.1 2.8-0.4 0.7-1.3 0.8-1.6 0.7-0.9-0.2-1.1-0.9-1.1-1 0 0-0.5 0.8-0.8 1.1-1.3 1.3-2.3 0.4-2.8 0.1-1.5-1.2-2.4-0.6-3-0.4-1.7 0.8-3.8 3.2-4.2 3.7-2 2-3.1 1.4-3.5 1.1-2.4-1.7 0.1-5.1 0.6-5.8 0.5-0.6 0.7-0.4 0.6-0.2-2.3 2.9-1.7 4.6-1.5 4.9 0.9 1.3 2.8-0.5 3.3-0.9 0.4-0.5 3.1-3.1 3.3-3.2 2.3-1.9 3.9-1.2 4.3-0.9 1 0.8 1.5 0.8 1.9 0.8 1.4-0.2 2-1.9 2.2-2.1 0.2-0.3 0.3 0 0.2 0.1 0 0.2-0.2 0.5-0.2 0.6 0.4 1 1.5 0.9 1.9 0.7 0.3-0.1-0.2-0.9-0.3-1.3 0 0 0.3-0.8 0.4-0.8 0-0.1 0.1-0.2 0.2 0z"/>
		<path id="&lt;Path&gt;" class="s0" d="m7.7 14.3c0.1 0.1 0 0.2 0 0.3-0.1 0.1-0.3 0.4-0.4 0.6q-0.2 0.1-0.2 0c-0.3-0.4-0.7-0.3-1.1-0.1-0.3 0.2-0.3 0.4-0.2 0.6 0.1 0.2 0.6 0.5 1.1 0.6 0.4 0.1 1.4-0.2 1.8-0.4 0.4-0.2 0.1 0.2 0 0.4 0 0-0.2 0.4-0.5 0.5-1.9 0.4-2.6 1.1-2.9 1.3-0.3 0.1-0.3 0-0.2-0.1 0.1-0.2 0.1-0.2 0.2-0.4q0.1-0.4 0.4-0.5 0 0-0.5-0.4c-0.7-0.7 0.8-2.1 1.4-2.6 0.6-0.5 1 0.1 1.1 0.2z"/>
		<path id="&lt;Path&gt;" class="s0" d="m17.3 14c0 0-0.1 0.2-0.2 0.4-0.3 1 0 1.4 0 1.5 0.4 0.4 0.7 0.1 0.9-0.2 0-0.2 0.1-0.1 0.1 0q0 0-0.1 0.2c-0.1 0.6-0.4 0.8-0.6 0.8-0.4 0-0.6-0.4-0.6-0.6-0.2-1 0.2-1.9 0.3-2.2 0.1-0.2 0.2-0.1 0.2 0.1z"/>
		<path id="&lt;Path&gt;" class="s0" d="m23.1 12.8c0.7 0.1 0.5 0.4 0.4 0.6-0.5 0.7-1.2 1.1-1.7 1.3-0.5 0.2-0.2-0.2 0.1-0.4 0 0 0.2-0.2 0.7-0.5 0.4-0.3-0.7-0.3-1.2-0.3-0.5 0-0.6 0.2-0.8 0.4-0.1 0.1-0.3 0-0.2-0.2 0.1-0.2 0.3-0.4 0.6-0.8 0.3-0.4 1.4-0.2 2.1-0.1z"/>
		<path id="&lt;Compound Path&gt;" fill-rule="evenodd" class="s0" d="m43.7 18.5c-0.3 1.1-1.9 1.7-2.2 1.8-1.4 0.5-1.5-0.9-1.4-1.9 0.1-1 0.8-2.3 0.8-2.3-0.1 0-1.5-1.2-1.6-1.3-0.1-0.1-0.3-0.2-0.4-0.3-0.1-0.1-0.1-0.2-0.1-0.2 0 0 0-1 0-1.1 0-0.2 0.1-0.1 0.2-0.1 0.1 0.1 1.7 0.7 1.8 0.8 0.2 0.1 0.1 0.2 0 0.2 0 0.1-0.6 0.2-0.6 0.2l1.3 0.9c0 0 1.8-2.3 2-2.5 0.1-0.3 0.1-0.1 0.1 0.1 0 0.2-0.4 1.2-0.5 1.4-0.1 0.1-1 1.4-1 1.4 0 0 1.2 0.7 1.5 1.1 0.5 0.7 0.2 1.4 0.1 1.8zm-2.2-2c0 0-0.8 1.3-1 1.6-0.3 0.8 0.5 1 0.8 0.9 0.3 0 1.4-0.5 1.9-1 0.5-0.4-1.4-1.4-1.7-1.5z"/>
		<path id="&lt;Compound Path&gt;" fill-rule="evenodd" class="s0" d="m65.6 17.3c-0.1 0.2-0.4 1.2-1.8 0.9-0.4 0-1.1-0.2-1.4-1-0.4 0.5-1.2 1.9-2.9 1.6-0.3-0.1-1.5-0.5-1.5-2 0 0-1.4 1.1-2 1.5 0 0.5 0 1.1-0.2 1.8-0.3 0.6-3.2 3.9-5.6 4.5-0.8 0.1-3.9 0.7-4-2.7q0-1.1 0.1-1.6c-1.9 1.4-4.2 2.5-4.8 2.9-1 0.4-4.5 1-5.1 1.1-0.4 0.1-0.5 0-0.2-0.2 0.2-0.1 7.9-2.7 12-6.9q0.1-0.2-0.1-0.6c-0.1-0.2-1.3-2.6-1.5-2.9-0.1-0.3-0.2-0.7-0.3-0.8q-0.1-0.2 0-0.4c0-0.1 0.1-0.8 0.1-0.9 0.1-0.2 0.1-0.1 0.2 0 0.1 0.1 1.4 1.4 1.5 1.5 0.2 0.2 0 0.3 0 0.3-0.1 0-0.7 0-0.7 0 0 0 0.8 1.4 1.1 1.9 0.5 1.2 0.2 2.1 0.1 2.5-0.4 0.7-1.1 1.4-1.9 2.1-0.1 0.6-0.4 3.4 2.2 3.5 0.4 0 1.8 0.2 4.4-2 0.6-0.5 1.3-1.1 1.9-1.9 0.3-0.4 0.4-0.9 0-0.9-0.5 0.1-3.2 1.1-3.6-0.6-0.1-0.4 0.1-4.3 2.8-2.4 0.3 0.2 0.8 0.7 1.2 1.4 0.5-0.2 1.3-0.7 2.3-1.5 0.3-0.3 0.6-0.4 0.6 0 0 0.3-0.2 2.6 2.2 1.9 0.3 0 1.4-0.3 2.1-2.2 0.2-0.4 0.5-0.4 0.4 0-0.2 0.5-0.5 0.9-0.3 1.1 0.3 0.3 1 0.8 1.9 0.7 0.3-0.1 0.4-0.2 0.3-0.5-0.1-0.2-0.4-0.7-0.4-0.7 0.1-0.3 0.2-0.8 0.2-1 0.1-0.1 0.1-0.2 0.2-0.1 0.1 0.1 0.9 1.2 0.5 2.6zm-11.2 0.1c-0.8-1.2-1.9-0.5-2-0.4-0.1 0.1-0.2 0.5 0.7 0.5 1 0.1 1.3-0.1 1.3-0.1z"/>
		<path id="&lt;Path&gt;" class="s0" d="m42.2 10.2l1.1 0.8q0 0 0 0.1l-0.6 0.9q-0.1 0-0.1 0l-1.1-0.8-0.5 0.8q-0.1 0-0.1 0l-1.1-0.8q-0.1-0.1 0-0.1l0.6-0.9q0 0 0.1 0l1.1 0.8 0.5-0.8q0.1 0 0.1 0z"/>
		<path id="&lt;Path&gt;" class="s0" d="m62.8 10.2c0 0-0.1 0.3-0.2 0.5-0.3 1-0.1 1.4-0.1 1.5 0.3 0.5 0.6 0.2 0.8-0.1 0-0.2 0.1-0.1 0.1 0q0 0.1-0.1 0.3c-0.2 0.6-0.4 0.7-0.6 0.7-0.4 0-0.5-0.5-0.5-0.7-0.1-1.1 0.3-2 0.5-2.2 0.1-0.3 0.1-0.2 0.1 0z"/>
		<path id="&lt;Path&gt;" class="s0" d="m51.8 9.7c0 0 0 0.3-0.1 0.5-0.4 1-0.2 1.5-0.1 1.6 0.3 0.5 0.6 0.3 0.8-0.1 0.1-0.2 0.1-0.1 0.1 0q0 0-0.1 0.3c-0.2 0.6-0.4 0.8-0.6 0.8-0.4-0.1-0.6-0.6-0.6-0.8-0.1-1.2 0.4-2.1 0.5-2.4 0.1-0.3 0.2-0.2 0.1 0.1z"/>
		<path id="&lt;Path&gt;" class="s0" d="m21.6 9.2c0 0.2 0 0.2-0.1 0.4-0.1 0.3-0.3 0.3-0.5 0.5-0.2 0.1-6.1 2.6-6.9 3-0.8 0.5-0.7 0.8-0.5 0.9 0.5 0.2 0.8 0.6 0.4 1.2 0 0 0 0.1-0.1 0 0-0.1-0.2-0.3-0.5-0.3-0.4-0.1-0.5-0.7-0.3-1.4 0.1-0.4 0.4-0.8 0.7-1 0.7-0.5 7.3-3.3 7.5-3.4 0.5-0.2 0.4 0 0.3 0.1z"/>
		<path id="&lt;Path&gt;" class="s0" d="m6.3 7.2c0 0-0.1 0.5-0.1 0.8-0.4 1.5-0.1 2.2-0.1 2.3 0.4 0.8 0.9 0.4 1.1-0.2 0-0.3 0.1-0.2 0.1 0q0 0.1 0 0.4c-0.2 1-0.5 1.2-0.8 1.2-0.5 0-0.8-0.7-0.8-1.1-0.2-1.6 0.3-3.1 0.4-3.5 0.2-0.4 0.3-0.2 0.2 0.1z"/>
		<path id="&lt;Path&gt;" class="s0" d="m29.7 9.2c0 0-0.1 0.2-0.1 0.4-0.3 1-0.1 1.4 0 1.5 0.3 0.4 0.7 0.1 0.8-0.2 0.1-0.2 0.1-0.1 0.1 0q0 0 0 0.2c-0.2 0.6-0.4 0.8-0.6 0.8-0.4 0-0.6-0.4-0.7-0.6-0.1-1 0.3-1.9 0.4-2.2 0.1-0.2 0.2-0.1 0.1 0.1z"/>
		<path id="&lt;Path&gt;" class="s0" d="m50.9 5.2c-0.1 0.1-0.1 0.2-0.2 0.3 0 0.2-0.2 0.3-0.3 0.4-0.2 0.1-6 3.4-6.1 3.5-0.3 0.2-0.3 0.1-0.2 0q0-0.1 0-0.4c0.1-0.1 0.1-0.2 0.4-0.3 0.2-0.2 5.9-3.5 6.1-3.6 0.4-0.2 0.3 0 0.3 0.1z"/>
		<path id="&lt;Path&gt;" class="s0" d="m57.8 5.5c0.2 0.3 0.1 0.7 0 1-0.1 0.2-0.3 0-0.4-0.1 0 0-0.1-0.2-0.3-0.3-0.5-0.5-0.8 0.4-0.8 0.9-0.1 0.3-0.1 1.4-0.2 2-0.1 0.3-0.2 0.3-0.3 0.1-0.4-1.4-1.2-2-1.3-2.1-0.1-0.2-0.2 0-0.2 0.1-0.1 0.1-0.1 0.1-0.2 0.1-0.1-0.1-0.5-0.3-0.7-0.5-0.1-0.1 0-0.6 0-0.8 0-0.4 0.2-0.5 0.3-0.5 1.6 0.9 2.1 2.4 2.1 2.7 0.1-1.2 0.2-2.2 0.8-2.9 0.5-0.7 1.2 0.2 1.2 0.3z"/>
		<path id="&lt;Path&gt;" class="s0" d="m18.6 5.1c0 0 0 0.3-0.1 0.5-0.3 0.9-0.1 1.3 0 1.4 0.3 0.5 0.7 0.2 0.8-0.2 0.1-0.1 0.2-0.1 0.1 0q0 0.1 0 0.3c-0.1 0.6-0.4 0.7-0.6 0.8-0.4 0-0.6-0.5-0.7-0.7-0.1-1 0.3-1.9 0.4-2.1 0.1-0.3 0.2-0.2 0.1 0z"/>
		<path id="&lt;Compound Path&gt;" fill-rule="evenodd" class="s0" d="m63.5 8c-0.1 0.1-0.1 0-0.3-0.1 0-0.1-0.2-0.3-0.4-0.4-0.2 0.5-0.2 0.5-1.2 1.4-2.1 1.8-4.4 2.4-4.5 2.5-0.1 0-0.2-0.1 0-0.3 0.8-0.5 3.8-1.9 5.3-3.8 0 0-0.5-0.2-0.8-0.4-0.3-0.2-0.1-1.1 0.1-1.4 0.6-1 1.1-0.5 1.2-0.3 0.5 0.8 0.2 1.7 0.2 1.7 0.3 0.2 0.6 0.5 0.4 1.1zm-1-2.3c-0.1-0.1-0.3-0.1-0.6 0.3-0.1 0.2 0 0.3 0.2 0.4 0.2 0.1 0.7 0.3 0.7 0.3 0-0.1 0-0.7-0.3-1z"/>
		<path id="&lt;Compound Path&gt;" fill-rule="evenodd" class="s0" d="m41.9 7.7c-0.1 0.1-0.1 0-0.2-0.1-0.1-0.1-0.5-0.4-0.5-0.4 0 0-0.4 1-1.2 1.5-1.4 1.1-2.6 1.3-2.7 1.3-0.1 0.1-0.2-0.1 0-0.2 1-0.5 2-0.9 3.5-2.8 0 0-0.4-0.2-0.8-0.4-0.3-0.3-0.1-1.1 0.1-1.5 0.6-0.9 1.1-0.4 1.2-0.3 0.5 0.9 0.2 1.8 0.2 1.8 0.3 0.2 0.6 0.5 0.4 1.1zm-1-2.3c-0.1-0.1-0.3-0.1-0.6 0.3-0.1 0.2 0.1 0.3 0.2 0.4 0.2 0.1 0.7 0.3 0.7 0.3 0-0.2 0.1-0.7-0.3-1z"/>
		<path id="&lt;Path&gt;" class="s0" d="m16.4 5.1c0.1 0.3 0.1 0.7 0 1-0.1 0.2-0.2 0-0.3-0.1 0 0-0.2-0.2-0.3-0.3-0.5-0.5-0.7 0.5-0.7 0.9 0 0.4 0 1.4-0.1 2.1 0 0.2-0.1 0.2-0.2 0-0.4-1.3-1.1-1.9-1.2-2-0.2-0.1-0.2 0.1-0.2 0.1-0.1 0.1-0.1 0.1-0.2 0.1-0.1 0-0.4-0.3-0.6-0.4-0.1-0.2-0.1-0.7-0.1-0.9 0-0.4 0.2-0.5 0.3-0.4 1.4 0.8 1.9 2.3 2 2.5 0-1.1 0-2.1 0.5-2.9 0.4-0.7 1 0.2 1.1 0.3z"/>
		<path id="&lt;Path&gt;" class="s0" d="m10.4 4.7c0 0.1 1.4 3.3 1.4 3.5 0.1 0.2 0 0.2-0.1 0.1-0.1-0.1-0.8-0.7-0.8-0.7 0 0 1.1 7.9 1.2 8.3 0.7 4.6 0 5.3-0.1 5.4-0.1 0.1-0.2 0.1-0.2-0.1 0-1.9-1-8.1-1-8.5-0.1-0.4-0.8-6.5-0.9-7.1 0 0 0.3-0.9 0.4-1 0-0.1 0.1 0 0.1 0.1z"/>
		<path id="&lt;Path&gt;" class="s0" d="m31.3 4.5c0.1 0.1 1.4 3.3 1.4 3.5 0.1 0.2 0 0.2-0.2 0.1-0.1-0.1-0.7-0.7-0.7-0.7 0 0 1.2 7.6 1.3 8.4 0.4 2.4 0.3 3.7-0.5 5.1-1.9 3.1-6.4 3.3-6.8 3.4-0.3 0-0.5-0.1 0-0.4 4.2-1.4 5.9-3 6.5-4q0-0.1 0-0.1c-0.4-2.2-3.3-4.9-3.6-5.2-0.3-0.3-3.1-3.1-5.3-5.7-0.4-0.5-0.9-1-1-1.1-0.2-0.1-0.2-0.2-0.2-0.3 0-0.1 0-1 0-1.2 0-0.2 0.1 0 0.3 0.1 0.2 0.2 2.3 1.6 2.5 1.7 0.1 0.2-0.1 0.2-0.2 0.1-0.1 0-0.7-0.1-0.7-0.1q0 0 0 0c1.4 2.3 6 6 7.3 8.2 0.9 1.3 1.1 2.2 1.2 2.9q0.1-0.2 0.1-0.3c0.1-0.7-1.9-13.1-1.9-13.4 0 0 0.3-0.9 0.4-1 0.1-0.2 0.1-0.1 0.1 0z"/>
		<path id="&lt;Path&gt;" class="s0" d="m35.2 4.5c0.1 0.1 1.4 3.3 1.5 3.5 0 0.2-0.1 0.2-0.2 0.1-0.1-0.1-0.8-0.7-0.8-0.7 0 0 1.1 7.9 1.2 8.3 0.8 4.9 0.2 6.4 0.1 6.6-0.1 0.2-0.2 0.1-0.1-0.1-0.1-1.9-1.2-9.3-1.3-9.7 0-0.4-0.8-6.5-0.9-7.1 0 0 0.3-0.9 0.4-1 0-0.1 0.1 0 0.1 0.1z"/>
		<path id="&lt;Path&gt;" class="s0" d="m29.2 4.6c0.2 0.2 0.1 0.7 0 0.9-0.1 0.2-0.2 0-0.4-0.1 0 0-0.1-0.1-0.2-0.2-0.6-0.5-0.8 0.4-0.9 0.9 0 0.3 0 1.4-0.1 2 0 0.3-0.2 0.3-0.2 0.1-0.5-1.3-1.3-1.9-1.4-2-0.2-0.2-0.2 0-0.3 0.1 0 0.1-0.1 0.1-0.1 0.1-0.1-0.1-0.5-0.3-0.7-0.5-0.2-0.1-0.1-0.6-0.1-0.8 0-0.4 0.2-0.5 0.3-0.4 1.6 0.7 2.2 2.2 2.3 2.5 0-1.2 0-2.2 0.6-3 0.4-0.6 1.2 0.3 1.2 0.4z"/>
	</g>
</svg>