<svg version="1.2" xmlns="http://www.w3.org/2000/svg" viewBox="0 0 70 30" width="70" height="30">
	<title>New Project</title>
	<style>
		.s0 { fill: #191c4f } 
	</style>
	<g id="الكهف">
		<path id="&lt;Path&gt;" class="s0" d="m16.4 21.7c0 0.1 0 0.2-0.1 0.3-0.1 0.2-0.2 0.2-0.4 0.3-0.1 0.1-4.8 2-4.9 2-0.3 0.2-0.3 0.1-0.2 0q0-0.1 0-0.3c0.1-0.2 0.2-0.2 0.4-0.3 0.2-0.1 4.8-2 5-2.1 0.3-0.1 0.3 0 0.2 0.1z"/>
		<path id="&lt;Path&gt;" class="s0" d="m64.1 20c0 0 0 0.2 0 0.5 0.1 0.2-0.1 0.5-0.2 0.8-0.1 0.3-0.7 0.4-1.1 0.1-0.8 1.2-1.4 0.6-1.8 0.5-0.6-0.3-0.8 0.1-1 0.3-0.8 0.9-2.3 0.9-2.7 0.9-0.3 0.1 0-0.2 0.1-0.2 1.2-0.4 1.9-0.5 3-1.5 0.4-0.5 0.7-0.2 0.9-0.2 1 0.5 1.1 0 1.3-0.1 0.1-0.1 0.3-0.6 0.3-0.8 0.1-0.1 0.2 0 0.2 0.1 0 0.1-0.1 0.3-0.1 0.4 0.4 0.3 0.8 0 0.9-0.1 0 0 0-0.3-0.1-0.4q0-0.1 0.2-0.5c0.1-0.3 0.1 0 0.1 0.2z"/>
		<path id="&lt;Path&gt;" class="s0" d="m29.1 19.9c0 0-0.1 0.3-0.1 0.5-0.4 1.1-0.1 1.6-0.1 1.7 0.4 0.5 0.8 0.2 1-0.2 0-0.2 0.1-0.1 0.1 0q0 0.1-0.1 0.3c-0.1 0.7-0.4 0.9-0.7 0.9-0.4 0-0.7-0.5-0.7-0.8-0.1-1.2 0.4-2.2 0.5-2.5 0.1-0.3 0.2-0.2 0.1 0.1z"/>
		<path id="&lt;Compound Path&gt;" fill-rule="evenodd" class="s0" d="m45.8 18.6c-0.3 0.9-1.7 1.5-2 1.6-1.3 0.4-1.4-0.9-1.3-1.8 0.1-0.9 0.8-2 0.8-2-0.1 0-1.4-1.1-1.5-1.2-0.1-0.1-0.2-0.2-0.4-0.3-0.1-0.1-0.1-0.1-0.1-0.1 0 0 0.1-1 0.1-1.1 0-0.1 0 0 0.1 0 0.1 0 1.5 0.6 1.7 0.7 0.1 0.1 0.1 0.2 0 0.2-0.1 0-0.5 0.1-0.5 0.1l1.1 0.9c0 0 1.6-2.1 1.8-2.3 0.1-0.2 0.1-0.1 0.1 0.1 0 0.2-0.3 1.1-0.4 1.2-0.1 0.2-0.9 1.3-0.9 1.3 0 0 1.1 0.7 1.3 1 0.5 0.7 0.2 1.3 0.1 1.7zm-2-1.9c0 0-0.8 1.2-0.9 1.5-0.3 0.7 0.4 0.8 0.7 0.8 0.3 0 1.2-0.5 1.7-0.9 0.5-0.4-1.3-1.2-1.5-1.4z"/>
		<path id="&lt;Compound Path&gt;" fill-rule="evenodd" class="s0" d="m65.6 17.4c-0.1 0.2-0.3 1.2-1.6 0.9-0.4-0.1-1-0.2-1.3-0.9-0.3 0.4-1.1 1.6-2.6 1.4-0.3 0-1.3-0.4-1.4-1.8 0 0-1.2 1-1.8 1.3 0.1 0.5 0 1.1-0.2 1.7-0.2 0.6-2.9 3.6-5 4-0.8 0.2-3.5 0.7-3.6-2.4-0.1-0.6 0-1.1 0-1.5-1.7 1.4-3.7 2.4-4.3 2.7-0.9 0.4-4.1 0.9-4.6 1-0.4 0.1-0.5 0-0.2-0.1 0.2-0.2 7.2-2.5 10.8-6.4q0.2-0.1 0-0.4c-0.1-0.2-1.2-2.4-1.3-2.7-0.2-0.3-0.3-0.6-0.4-0.7q0-0.2 0-0.4c0-0.1 0.1-0.7 0.2-0.8 0-0.2 0.1-0.1 0.1 0 0.1 0.1 1.2 1.2 1.4 1.4 0.1 0.1 0 0.2 0 0.2-0.1 0-0.6 0-0.6 0 0 0 0.7 1.3 0.9 1.7 0.5 1.1 0.2 1.9 0.1 2.3-0.4 0.7-1 1.3-1.7 1.9-0.1 0.6-0.3 3.1 2 3.2 0.4 0 1.6 0.1 4-1.8 0.6-0.5 1.2-1 1.7-1.8 0.2-0.3 0.4-0.8 0-0.7-0.4 0-2.9 0.9-3.3-0.6 0-0.4 0.2-3.9 2.6-2.2 0.2 0.2 0.7 0.6 1.1 1.3 0.4-0.2 1.1-0.6 2.1-1.4 0.2-0.2 0.5-0.3 0.5 0 0 0.3-0.2 2.4 2 1.8 0.3-0.1 1.2-0.3 1.9-2 0.2-0.4 0.4-0.4 0.3 0-0.2 0.4-0.4 0.8-0.2 1 0.2 0.2 0.9 0.6 1.6 0.5 0.3 0 0.5-0.1 0.4-0.3-0.1-0.3-0.4-0.7-0.4-0.7 0.1-0.3 0.2-0.8 0.2-0.9 0-0.1 0.1-0.2 0.2-0.1 0.1 0.1 0.8 1.1 0.4 2.3zm-10.1 0.1c-0.8-1-1.7-0.4-1.8-0.3-0.1 0.1-0.2 0.4 0.6 0.5 0.9 0 1.2-0.2 1.2-0.2z"/>
		<path id="&lt;Path&gt;" class="s0" d="m10.4 14.5c0 0-0.1 0.5-0.2 0.7-0.4 1.4-0.1 2.1 0 2.2 0.4 0.7 0.9 0.3 1.1-0.2 0.1-0.3 0.2-0.2 0.2-0.1q-0.1 0.2-0.1 0.5c-0.2 0.8-0.6 1.1-0.8 1.1-0.6 0-0.9-0.7-0.9-1-0.2-1.5 0.4-2.9 0.5-3.2 0.2-0.4 0.3-0.3 0.2 0z"/>
		<path id="&lt;Path&gt;" class="s0" d="m14.5 12.4l1 0.7q0 0.1 0 0.1l-0.6 0.8q0 0.1 0 0l-1-0.7q-0.1 0 0-0.1l0.5-0.8q0.1 0 0.1 0z"/>
		<path id="&lt;Path&gt;" class="s0" d="m19.9 12.4c0.6 0.1 0.4 0.3 0.3 0.5-0.4 0.7-1 1-1.4 1.1-0.4 0.2-0.2-0.1 0-0.3 0 0 0.3-0.1 0.6-0.4 0.4-0.3-0.6-0.2-1-0.3-0.4 0-0.5 0.2-0.7 0.3-0.1 0.2-0.3 0.1-0.1-0.1 0.1-0.1 0.2-0.4 0.5-0.7 0.3-0.3 1.2-0.2 1.8-0.1z"/>
		<path id="&lt;Path&gt;" class="s0" d="m44.4 11l1 0.7q0.1 0.1 0 0.1l-0.5 0.8q-0.1 0.1-0.1 0l-1-0.7-0.5 0.7q0 0.1-0.1 0l-1-0.7q0 0 0-0.1l0.6-0.8q0 0 0.1 0l1 0.7 0.5-0.7q0 0 0 0z"/>
		<path id="&lt;Path&gt;" class="s0" d="m63.1 11.1c0 0-0.1 0.2-0.2 0.4-0.3 0.9-0.1 1.3-0.1 1.4 0.3 0.4 0.6 0.2 0.7-0.2 0.1-0.1 0.1 0 0.1 0q0 0.1 0 0.3c-0.2 0.5-0.4 0.7-0.6 0.7-0.3-0.1-0.5-0.5-0.5-0.7 0-1 0.4-1.8 0.4-2 0.1-0.2 0.2-0.1 0.2 0.1z"/>
		<path id="&lt;Path&gt;" class="s0" d="m53.2 10.6c0 0-0.1 0.2-0.2 0.4-0.3 1-0.1 1.4-0.1 1.5 0.3 0.5 0.6 0.2 0.8-0.1 0-0.2 0.1-0.1 0.1-0.1q-0.1 0.1-0.1 0.3c-0.2 0.6-0.4 0.8-0.6 0.8-0.4-0.1-0.5-0.5-0.5-0.8-0.1-1 0.3-1.9 0.4-2.1 0.1-0.3 0.2-0.1 0.2 0.1z"/>
		<path id="&lt;Path&gt;" class="s0" d="m14.1 7.1c0 0-0.1 0.4-0.1 0.7-0.4 1.4-0.1 2.1-0.1 2.2 0.5 0.7 0.9 0.3 1.1-0.3 0.1-0.2 0.2-0.1 0.1 0q0 0.1 0 0.5c-0.2 0.8-0.5 1-0.8 1.1-0.5 0-0.8-0.7-0.8-1.1-0.2-1.5 0.3-2.8 0.5-3.2 0.1-0.3 0.2-0.2 0.1 0.1z"/>
		<path id="&lt;Path&gt;" class="s0" d="m11.3 6.9c0.1 0.2 0 0.6-0.1 0.9-0.1 0.1-0.2 0-0.3-0.2 0 0-0.2-0.1-0.3-0.2-0.5-0.4-0.7 0.4-0.7 0.8-0.1 0.3-0.1 1.3-0.2 1.8q0 0.1 0 0.1c-0.1 0.5-0.3 1.1-1 1.6-1 0.6-1.1 0.7-1.2 0.7-0.1 0-0.1 0 0.1-0.2 0.1 0 1.9-1.6 1.8-2.4-0.3-0.9-1-1.5-1.1-1.6-0.1-0.1-0.2 0.1-0.2 0.1 0 0.1-0.1 0.1-0.2 0.1 0-0.1-0.4-0.3-0.6-0.4-0.1-0.2 0-0.6 0-0.8 0-0.3 0.2-0.4 0.3-0.4 1.4 0.8 1.8 2.2 1.9 2.4 0.1-1 0.1-2 0.6-2.7 0.5-0.5 1.1 0.3 1.2 0.4z"/>
		<path id="&lt;Path&gt;" class="s0" d="m52.3 6.5c-0.1 0.1-0.1 0.2-0.1 0.3-0.1 0.2-0.2 0.2-0.4 0.3-0.2 0.2-5.3 3.1-5.4 3.2-0.3 0.2-0.3 0.1-0.3 0q0-0.1 0.1-0.3c0-0.2 0.1-0.2 0.3-0.3 0.2-0.2 5.4-3.1 5.6-3.3 0.3-0.2 0.2 0 0.2 0.1z"/>
		<path id="&lt;Path&gt;" class="s0" d="m58.6 6.8c0.1 0.2 0 0.6-0.1 0.9-0.1 0.2-0.2 0-0.3-0.1 0 0-0.1-0.2-0.2-0.3-0.6-0.4-0.8 0.4-0.8 0.8-0.1 0.3-0.1 1.3-0.2 1.9 0 0.2-0.2 0.2-0.3 0-0.3-1.2-1-1.8-1.1-1.9-0.1-0.1-0.2 0.1-0.2 0.2-0.1 0-0.1 0-0.2 0-0.1 0-0.5-0.3-0.6-0.4-0.1-0.1-0.1-0.6-0.1-0.8 0.1-0.3 0.3-0.4 0.4-0.4 1.4 0.8 1.8 2.2 1.9 2.4 0.1-1 0.1-1.9 0.6-2.6 0.5-0.6 1.1 0.2 1.2 0.3z"/>
		<path id="&lt;Compound Path&gt;" fill-rule="evenodd" class="s0" d="m63.7 9c-0.1 0.1-0.1 0.1-0.2-0.1-0.1-0.1-0.2-0.2-0.4-0.3-0.2 0.4-0.2 0.5-1.1 1.2-1.9 1.7-4 2.3-4.1 2.3-0.1 0-0.1-0.1 0.1-0.2 0.6-0.5 3.3-1.7 4.7-3.5 0 0-0.4-0.1-0.7-0.4-0.3-0.2-0.1-0.9 0.1-1.3 0.5-0.8 1-0.4 1.1-0.2 0.4 0.8 0.2 1.5 0.2 1.5 0.2 0.2 0.5 0.5 0.3 1zm-0.9-2c-0.1-0.1-0.2-0.1-0.5 0.3-0.1 0.1 0 0.2 0.2 0.3 0.2 0.1 0.6 0.2 0.6 0.2 0-0.1 0-0.5-0.3-0.8z"/>
		<path id="&lt;Path&gt;" class="s0" d="m38.1 6.2c0.1 0.1 1.2 3 1.3 3.2 0 0.1-0.1 0.2-0.2 0.1-0.1-0.1-0.7-0.7-0.7-0.7 0 0 0.9 7.2 0.9 7.5 0.6 4.3 0 5.4-0.1 5.6-0.1 0.1-0.1 0.1-0.1-0.1 0-1.7-0.8-8-0.9-8.4 0-0.3-0.6-5.9-0.6-6.4 0 0 0.3-0.8 0.3-0.9 0.1-0.1 0.1 0 0.1 0.1z"/>
		<path id="&lt;Path&gt;" class="s0" d="m33.6 13c0.2 0.2 0.1 0.6 0 0.9 0 0.1-0.2 0-0.3-0.2 0 0-0.1-0.1-0.2-0.2-0.5-0.4-0.7 0.4-0.7 0.8-0.1 0.3-0.1 1.3-0.1 1.9-0.1 0.2-0.2 0.2-0.3 0-0.3-1.2-1-1.7-1.1-1.8-0.1-0.1-0.2 0-0.2 0.1 0 0.1-0.1 0.1-0.2 0.1 0-0.1-0.4-0.3-0.5-0.4-0.2-0.2-0.1-0.6-0.1-0.8 0-0.3 0.2-0.4 0.3-0.4 1.3 0.8 1.8 2.1 1.9 2.3 0-1 0-1.9 0.5-2.6 0.4-0.6 1 0.2 1 0.3z"/>
		<path id="&lt;Path&gt;" class="s0" d="m27.5 9.3c0 0-0.1 0.3-0.2 0.5-0.3 0.9-0.1 1.3-0.1 1.4 0.3 0.5 0.6 0.2 0.7-0.1 0.1-0.2 0.2-0.1 0.1 0q0 0 0 0.2c-0.2 0.6-0.4 0.7-0.6 0.7-0.3 0-0.5-0.4-0.5-0.7-0.1-1 0.3-1.8 0.4-2.1 0.1-0.2 0.2-0.1 0.2 0.1z"/>
		<path id="&lt;Compound Path&gt;" fill-rule="evenodd" class="s0" d="m44.2 8.7c-0.1 0.2-0.1 0.1-0.2-0.1-0.1 0-0.4-0.3-0.4-0.3 0 0-0.5 0.9-1.2 1.4-1.2 1-2.3 1.2-2.4 1.2-0.1 0-0.2-0.1 0-0.2 0.9-0.5 1.8-0.8 3.2-2.5 0 0-0.4-0.2-0.7-0.4-0.3-0.3-0.2-1 0-1.3 0.6-0.9 1.1-0.5 1.1-0.3 0.5 0.8 0.2 1.6 0.2 1.6 0.3 0.1 0.5 0.4 0.4 0.9zm-0.9-2c-0.1-0.1-0.3-0.1-0.6 0.3 0 0.1 0.1 0.2 0.2 0.3 0.2 0.1 0.6 0.3 0.6 0.3 0-0.2 0.1-0.6-0.2-0.9z"/>
		<path id="&lt;Path&gt;" class="s0" d="m22.7 5.6c-0.1 0.1-0.1 0.2-0.2 0.3 0 0.2-0.1 0.3-0.3 0.4-0.2 0.1-5.8 2.6-5.9 2.6-0.3 0.2-0.2 0.1-0.2 0q0 0 0-0.3c0.1-0.1 0.1-0.2 0.4-0.3 0.2-0.1 5.7-2.6 5.9-2.7 0.3-0.2 0.3-0.1 0.3 0z"/>
		<path id="&lt;Compound Path&gt;" fill-rule="evenodd" class="s0" d="m36.3 19c-0.2 1.7-1.7 2-2.2 2.1-2.4 0-3.4-1.9-3.9-2.5-1.4-1.5-2.9-2.7-3.3-3 0.6 0.9 0.7 1.7 0.7 2.1 0.1 1.4-0.5 1.8-0.8 2-0.9 0.7-3.5 1.5-3.6 1.5 0.5 0.8 0.4 1.8 0.3 2.1-0.3 1.1-1.3 0.9-1.5 0.9-1.8-0.5-2.2-2.2-2.3-2.5 0 0-0.6 0.1-0.8 0.1-0.1 0-0.1-0.1-0.2-0.4-2.4 0.2-3.1-1-3.4-1.4-1.7 0.9-3.4 1.5-3.8 1.7-2.9 1-4.8-0.1-5.1-0.3-2.3-1.6-0.9-4.1-0.7-4.5q0-0.1 0-0.2c-0.4-0.1-0.6-0.8-0.7-1.2-0.2-1.8 0.4-3.4 0.6-3.9 0.1-0.5 0.3-0.3 0.2 0.1 0 0-0.1 0.5-0.2 0.9-0.4 1.7-0.1 2.5 0 2.6 0.4 0.9 0.9 0.4 1.1-0.3 0.1-0.3 0.2-0.1 0.2 0 0 0.1-0.1 0.3-0.1 0.5-0.2 1.1-0.6 1.4-0.9 1.4q0 0 0 0 0 0.1 0 0.2c-0.8 1.6 0 2.4 0.3 2.7 1.1 1.2 2.6 1.1 3.1 1.2 2.4 0 5.4-1.8 5.5-1.9-0.6-1.5-0.4-2.7 0.4-3.6 0.7-0.9 1.5 0.2 1.7 0.5 0.9 2-0.6 3.3-0.8 3.5 1 1.2 3.6 0.7 3.6 0.7 0-0.1 1.4-4.4 1.5-4.6 0-0.1 0.1-0.2 0.2 0 1.3 3 0.3 4.4 0.1 4.7 2.1-0.1 4.3-1.1 4.8-1.3 1.2-0.6 0.7-1.4 0.5-1.8-0.8-1.4-3.1-3.6-3.9-4.2-0.8-0.7-1.3-1.2-1.5-2-0.1-1.4 0.6-1.8 1-2.1 3.3-2.4 8.4-3.6 9.2-3.8 0.5-0.1 2.7 0 1 2.8-0.2 0.4-1.9 2.6-2.2 3-0.2 0.3-0.4 0.2-0.2-0.3 0.3-0.5 1.7-2.3 2.3-3.4 0.6-1.1-1.2-0.8-1.6-0.7-3.8 0.7-8.8 3.7-8.9 3.9-0.2 0.2-0.1 0.3 0.1 0.5 0.6 0.4 3.9 2.7 4.6 3.3 1.9 1.3 4.4 4.2 5 4.8 1.2 1.2 2.6 1 3.4 0.7 0.7-0.3 0.6-0.7 0.6-1 0-0.4-1.4-11.2-1.4-11.5 0 0 0.3-0.9 0.4-1 0-0.1 0.1 0 0.1 0.1 0.1 0.1 1.2 3 1.2 3.2 0.1 0.1 0 0.2-0.1 0.1-0.1-0.1-0.7-0.7-0.7-0.7 0 0 1 7.2 1.1 7.6 0 0.4 0.1 2 0 2.6zm-19.8-1.2c0.1-0.1 0.2-0.2 0.1-0.5-0.1-0.3-0.7-1.3-1.2-0.9-0.6 0.5-0.5 0.8-0.4 1.1 0.1 0.3 0.5 1.1 0.5 1.1 0.2-0.1 0.7-0.4 1-0.8zm3.8 2.1c0.2-0.1 1.3-0.7 1.3-1.2-0.1-0.4-0.3-1.7-0.4-1.4-0.5 0.7-0.9 2.6-0.9 2.6zm2.6 2.4c-1-0.7-2.4-0.6-2.4-0.6 0.1 0.3 1.1 1.4 2.2 1.2 0.2 0 0.5-0.4 0.2-0.6z"/>
	</g>
</svg>