<svg version="1.2" xmlns="http://www.w3.org/2000/svg" viewBox="0 0 70 30" width="70" height="30">
	<title>New Project</title>
	<style>
		.s0 { fill: #191c4f } 
	</style>
	<g id="مريم">
		<path id="&lt;Path&gt;" class="s0" d="m21 22.5l1.1 0.7q0 0.1 0 0.1l-0.6 0.9q-0.1 0-0.1 0l-1-0.8-0.6 0.8q0 0-0.1 0l-1-0.8q0 0 0-0.1l0.6-0.8q0-0.1 0.1 0l1 0.7 0.5-0.7q0.1-0.1 0.1 0z"/>
		<path id="&lt;Path&gt;" class="s0" d="m13.6 21.2c0 0-0.1 0.3-0.1 0.5-0.4 1-0.2 1.4-0.1 1.5 0.2 0.5 0.6 0.3 0.7-0.1 0.1-0.2 0.1-0.1 0.1 0q0 0.1 0 0.3c-0.2 0.6-0.5 0.7-0.6 0.7-0.4 0-0.6-0.5-0.6-0.7-0.1-1.1 0.4-2 0.5-2.2 0.1-0.3 0.2-0.2 0.1 0z"/>
		<path id="&lt;Path&gt;" class="s0" d="m64 20.6c0 0 0.1 0.3 0.1 0.5 0 0.2-0.2 0.6-0.3 0.9-0.1 0.3-0.8 0.4-1.2 0.1-0.8 1.2-1.5 0.6-1.9 0.5-0.7-0.3-0.9 0.2-1.1 0.4-0.8 1-2.4 0.9-2.8 1-0.4 0-0.1-0.2 0.1-0.3 1.3-0.5 2-0.5 3.1-1.6 0.5-0.5 0.9-0.2 1-0.2 1.1 0.5 1.2 0 1.4-0.1 0.1-0.1 0.3-0.7 0.4-0.8 0.1-0.2 0.1-0.1 0.1 0.1 0 0.1-0.1 0.3-0.1 0.4 0.4 0.3 0.9 0 1-0.1 0 0-0.1-0.3-0.1-0.4q0-0.2 0.2-0.6c0.1-0.3 0.1 0 0.1 0.2z"/>
		<path id="&lt;Path&gt;" class="s0" d="m35.3 20.5c0 0-0.2 0.3-0.3 0.6-0.6 1-0.4 1.6-0.4 1.7 0.3 0.6 0.8 0.4 1 0 0.2-0.2 0.2-0.1 0.2 0q-0.1 0.1-0.2 0.4c-0.3 0.6-0.6 0.7-0.9 0.7-0.4-0.1-0.6-0.7-0.5-0.9 0-1.3 0.8-2.3 0.9-2.6 0.2-0.3 0.3-0.1 0.2 0.1z"/>
		<path id="&lt;Path&gt;" class="s0" d="m31.4 14.8c0.6 0.1 0.5 0.4 0.4 0.6-0.5 0.6-1.1 0.9-1.5 1.1-0.5 0.2-0.2-0.1 0-0.3 0 0 0.3-0.2 0.7-0.5 0.3-0.3-0.7-0.2-1.1-0.2-0.4 0-0.5 0.1-0.7 0.3-0.1 0.1-0.3 0.1-0.2-0.2 0.1-0.1 0.2-0.3 0.5-0.7 0.4-0.3 1.3-0.2 1.9-0.1z"/>
		<path id="&lt;Path&gt;" class="s0" d="m12.5 13.8c0 0-0.1 0.3-0.1 0.5-0.4 1.2-0.1 1.7-0.1 1.8 0.4 0.6 0.8 0.3 0.9-0.2 0.1-0.2 0.2-0.1 0.1 0q0 0.1 0 0.4c-0.2 0.7-0.4 0.9-0.7 0.9-0.4 0-0.6-0.6-0.6-0.8-0.2-1.3 0.3-2.4 0.4-2.7 0.1-0.3 0.2-0.2 0.1 0.1z"/>
		<path id="&lt;Compound Path&gt;" fill-rule="evenodd" class="s0" d="m44.6 19.1c-0.3 1-1.8 1.6-2.1 1.7-1.4 0.5-1.5-0.9-1.4-1.8 0.1-1 0.8-2.2 0.8-2.2-0.1 0-1.4-1.1-1.6-1.2-0.1-0.1-0.2-0.3-0.3-0.4-0.1-0.1-0.1-0.1-0.1-0.1 0 0 0-1 0-1.1 0-0.1 0.1-0.1 0.2 0 0.1 0 1.6 0.6 1.7 0.7 0.2 0.1 0.1 0.2 0.1 0.2-0.1 0-0.6 0.1-0.6 0.1l1.2 0.9c0 0 1.7-2.2 1.9-2.4 0.1-0.2 0.1-0.1 0.1 0.1 0 0.2-0.4 1.2-0.5 1.3 0 0.2-0.9 1.4-0.9 1.4 0 0 1.1 0.7 1.4 1.1 0.5 0.7 0.2 1.3 0.1 1.7zm-2.2-1.9c0 0-0.7 1.3-0.8 1.5-0.4 0.8 0.4 0.9 0.7 0.9 0.3 0 1.3-0.6 1.8-1 0.5-0.4-1.4-1.3-1.7-1.4z"/>
		<path id="&lt;Path&gt;" class="s0" d="m23.2 13.3c0 0-0.2 0.4-0.2 0.7-0.5 1.3-0.2 2-0.2 2.1 0.4 0.7 0.9 0.3 1-0.2 0.1-0.2 0.2-0.1 0.2 0q0 0.1-0.1 0.4c-0.2 0.9-0.6 1.1-0.8 1.1-0.5 0-0.7-0.7-0.7-1.1-0.1-1.5 0.5-2.7 0.6-3.1 0.1-0.4 0.3-0.2 0.2 0.1z"/>
		<path id="&lt;Compound Path&gt;" fill-rule="evenodd" class="s0" d="m37.9 18.2c0 0-0.9 0.4-1.5 0.6q-0.2 0.1-0.6 0.2c0 0.3-0.1 0.5-0.1 0.6 0 0.1-0.1 0.1-0.2-0.1 0 0-0.1-0.2-0.2-0.3-1 0.3-2.1 0.6-2.6 0.8-2.7 0.8-4.7 3.4-5 3.7-2.1 2.4-3.7 1.5-4 1.3-1.9-1.4-0.4-4.4-0.1-4.9q0-0.1 0-0.1c-2.7 0.7-5.2 0.1-5.4 0.1 0 0.3 0 1 0 1.5-0.1 0.5-0.5 0.3-0.8 0.2-1.8-0.6-1.5-2.3-1.4-2.4 0 0-0.8-0.2-2.4 0.6-1.1 0.5-3.2 2.6-3.4 2.9-1.7 2.2-3 2.2-3.4 2.2-1.9-0.1-1.9-2.4-1.8-3 0.2-1.6 1.3-3.3 1.7-3.7q0 0 0-0.1c-0.3-0.2-0.5-0.8-0.5-1.1-0.2-2 0.4-3.7 0.6-4.2 0.1-0.5 0.3-0.3 0.2 0.1 0 0-0.2 0.6-0.2 0.9-0.5 1.9-0.1 2.7-0.1 2.8 0.5 0.9 1.1 0.4 1.3-0.3 0.1-0.3 0.2-0.1 0.1 0 0 0.1 0 0.3 0 0.6-0.2 1.1-0.6 1.4-0.9 1.4q-0.1 0-0.2 0 0 0 0 0c-1.5 1.7-1.6 3.7-1.6 4 0 2 1.5 1.5 2.1 1.3 1.1-0.5 3-2.8 3.3-3.1 2.7-2.8 4.7-2.7 5.3-2.7 0 0 0.1-0.4 0.1-0.5q0.1-0.2 0.2 0c0.8 1.3 3.6 1.5 4 1.6 3.5 0.1 5.8-1.3 6.3-1.6 0.5-0.3 0.5-0.6 0.3-0.9-0.1-0.3-0.6-1.1-0.8-1.3 0 0 0.2-0.8 0.3-0.9 0-0.2 0-0.3 0.2-0.1 1.2 1.4 1 2.4 1 2.8-0.4 1.7-2.3 2.3-2.7 2.5q-0.5 0.2-1 0.3 0 0.1 0 0.2c-0.2 0.4-0.6 1.4-0.7 1.8-0.5 2.6 0.9 2.4 1.2 2.4 1.3 0.1 3-1.8 3.3-2.1 1.1-1.4 2.6-2.4 3.1-2.7 1-0.5 2.6-1 3.2-1.2q0.2-0.1 0.5-0.1c-0.2-0.4-0.4-0.7-0.5-1.3-0.2-0.6 0.4-1.6 1-1.9 0.6-0.3 1.5 0.4 1.7 0.5 0.2 0.2 1.4 1.3 1.5 1.4 0.1 0.1-0.4 1.3-0.4 1.3zm-0.9-0.8c0-0.1-0.3-0.3-0.7-0.7-0.4-0.3-0.8-0.4-1.2-0.3-0.3 0-0.4 0.3-0.3 0.4 0 0.2 0.3 0.6 0.6 1.1 0.7-0.2 1.3-0.4 1.6-0.5z"/>
		<path id="&lt;Compound Path&gt;" fill-rule="evenodd" class="s0" d="m65.6 17.9c-0.1 0.2-0.3 1.2-1.7 0.9-0.4 0-1.1-0.2-1.4-1-0.3 0.5-1.1 1.8-2.7 1.6-0.4-0.1-1.5-0.5-1.5-1.9 0 0-1.3 1-1.9 1.4 0 0.5 0 1.1-0.2 1.7-0.3 0.6-3.1 3.8-5.4 4.3-0.8 0.2-3.7 0.7-3.8-2.6 0-0.6 0-1.2 0.1-1.5-1.8 1.4-4 2.5-4.6 2.8-1 0.4-4.3 1-4.9 1.1-0.4 0-0.5-0.1-0.2-0.2 0.2-0.1 7.6-2.6 11.5-6.7 0.1-0.1 0.1-0.3-0.1-0.5-0.1-0.2-1.3-2.5-1.4-2.8-0.1-0.3-0.3-0.7-0.3-0.8q-0.1-0.2-0.1-0.4c0.1-0.1 0.2-0.7 0.2-0.9 0.1-0.1 0.1 0 0.2 0.1 0.1 0.1 1.3 1.3 1.4 1.4 0.2 0.2 0.1 0.3 0 0.3-0.1 0-0.6-0.1-0.6-0.1 0 0 0.8 1.4 1 1.9 0.5 1.1 0.2 2 0.1 2.4-0.4 0.7-1.1 1.4-1.8 2-0.1 0.6-0.4 3.3 2.1 3.4 0.4 0 1.7 0.1 4.2-1.9 0.6-0.5 1.3-1.1 1.8-1.9 0.3-0.3 0.4-0.8 0-0.8-0.4 0.1-3 1-3.4-0.6-0.1-0.4 0.1-4.2 2.7-2.3 0.2 0.2 0.7 0.6 1.1 1.4 0.4-0.2 1.2-0.7 2.2-1.5 0.3-0.2 0.6-0.4 0.6 0 0 0.3-0.2 2.5 2.1 1.9 0.3-0.1 1.3-0.3 2-2.2 0.2-0.4 0.5-0.4 0.4 0-0.2 0.5-0.5 0.9-0.2 1.1 0.2 0.2 0.9 0.7 1.7 0.6 0.3 0 0.4-0.2 0.3-0.4-0.1-0.2-0.4-0.7-0.4-0.7 0.1-0.3 0.2-0.8 0.3-0.9 0-0.2 0-0.3 0.1-0.2 0.1 0.2 0.9 1.2 0.5 2.5zm-10.7 0.1c-0.8-1.1-1.8-0.5-2-0.3-0.1 0.1-0.1 0.4 0.7 0.4 1 0.1 1.3-0.1 1.3-0.1z"/>
		<path id="&lt;Path&gt;" class="s0" d="m43.2 11.1l1 0.8q0.1 0 0 0.1l-0.6 0.8q0 0.1-0.1 0l-1-0.7-0.5 0.7q-0.1 0.1-0.1 0l-1.1-0.7q0-0.1 0-0.1l0.6-0.9q0.1 0 0.1 0l1 0.8 0.6-0.8q0 0 0.1 0z"/>
		<path id="&lt;Path&gt;" class="s0" d="m62.9 11.2c0 0-0.1 0.2-0.2 0.4-0.3 0.9-0.1 1.4-0.1 1.5 0.3 0.4 0.6 0.2 0.8-0.2 0-0.1 0.1-0.1 0.1 0q0 0.1-0.1 0.3c-0.1 0.6-0.4 0.7-0.6 0.7-0.3 0-0.5-0.5-0.5-0.7 0-1 0.4-1.9 0.5-2.1 0.1-0.2 0.2-0.1 0.1 0.1z"/>
		<path id="&lt;Path&gt;" class="s0" d="m52.4 10.6c0 0-0.1 0.3-0.2 0.5-0.3 1-0.1 1.5-0.1 1.6 0.3 0.5 0.7 0.2 0.8-0.2 0.1-0.2 0.2-0.1 0.1 0q0 0.1 0 0.3c-0.2 0.6-0.5 0.8-0.7 0.8-0.3 0-0.5-0.5-0.5-0.8-0.1-1.1 0.4-2 0.5-2.3 0.1-0.2 0.2-0.1 0.1 0.1z"/>
		<path id="&lt;Path&gt;" class="s0" d="m37.5 9.4c-0.1 0.2-0.1 0.2-0.2 0.4-0.1 0.2-0.2 0.2-0.4 0.4-0.2 0.1-5.6 2.4-5.7 2.5-0.3 0.2-0.3 0.1-0.3 0q0.1-0.1 0.1-0.4c0.1-0.2 0.2-0.2 0.4-0.3 0.2-0.2 5.6-2.5 5.8-2.7 0.4-0.2 0.3 0 0.3 0.1z"/>
		<path id="&lt;Path&gt;" class="s0" d="m28.9 8.5c0 0.1-0.1 0.2-0.2 0.4-0.1 0.2-0.3 0.2-0.5 0.4-0.3 0.1-11.6 4.7-11.8 4.7-0.5 0.2-0.4 0.1-0.3-0.1q0 0 0.1-0.4c0.1-0.2 0.2-0.2 0.5-0.4 0.3-0.1 11.6-4.7 11.9-4.8 0.5-0.2 0.4 0 0.3 0.2z"/>
		<path id="&lt;Path&gt;" class="s0" d="m22.1 6.6c0 0.1-0.2 0.6-0.2 0.6q0 0.1-0.1 0.1c-0.1 0.1-6 2.4-10 4-1.4 0.6-3.2 1.5-2.9 1.8 0.4 0.6 1.3 0.4 0.6 1.7-0.1-0.3-0.3-0.5-0.6-0.7-0.3-0.2-0.6-0.8 0.1-1.7 0.6-0.9 2.3-1.6 2.5-1.7 1.8-0.7 10.3-4.1 10.4-4.1 0.1-0.1 0.2-0.1 0.2 0z"/>
		<path id="&lt;Path&gt;" class="s0" d="m51.5 6.3c-0.1 0.1-0.1 0.2-0.2 0.4 0 0.1-0.1 0.2-0.3 0.3-0.2 0.1-5.7 3.3-5.8 3.4-0.3 0.2-0.3 0-0.3-0.1q0 0 0.1-0.3c0-0.2 0.1-0.2 0.3-0.3 0.3-0.2 5.7-3.3 5.9-3.5 0.4-0.1 0.3 0 0.3 0.1z"/>
		<path id="&lt;Path&gt;" class="s0" d="m58.2 6.7c0.1 0.2 0 0.6-0.1 0.9-0.1 0.2-0.2 0-0.4-0.2 0 0-0.1-0.1-0.2-0.2-0.6-0.5-0.8 0.4-0.9 0.9 0 0.3 0 1.3-0.1 1.9-0.1 0.2-0.2 0.2-0.3 0.1-0.4-1.3-1.1-1.9-1.2-2.1-0.2-0.1-0.2 0.1-0.3 0.2 0 0.1-0.1 0.1-0.1 0-0.1 0-0.5-0.3-0.7-0.4-0.1-0.2 0-0.6 0-0.8 0-0.4 0.2-0.5 0.3-0.4 1.5 0.8 2 2.2 2 2.5 0.1-1.1 0.2-2.1 0.7-2.8 0.5-0.6 1.2 0.3 1.3 0.4z"/>
		<path id="&lt;Compound Path&gt;" fill-rule="evenodd" class="s0" d="m63.6 9c-0.1 0.1-0.1 0-0.3-0.1 0-0.1-0.2-0.3-0.4-0.4-0.2 0.5-0.2 0.6-1.1 1.4-2 1.7-4.2 2.3-4.4 2.3-0.1 0.1-0.1 0 0.1-0.2 0.7-0.5 3.6-1.8 5.1-3.6 0 0-0.5-0.2-0.8-0.4-0.3-0.3-0.2-1.1 0-1.4 0.6-0.9 1.1-0.5 1.2-0.3 0.5 0.8 0.2 1.7 0.2 1.7 0.3 0.1 0.6 0.4 0.4 1zm-1-2.2c-0.1-0.1-0.2-0.1-0.5 0.3-0.1 0.2 0 0.3 0.2 0.4 0.2 0 0.6 0.2 0.6 0.2 0-0.1 0.1-0.6-0.3-0.9z"/>
		<path id="&lt;Path&gt;" class="s0" d="m11.7 6.4c0.2 0.2 0.1 0.6 0 0.8 0 0.2-0.2 0.1-0.3-0.1 0 0-0.1-0.1-0.3-0.2-0.5-0.4-0.7 0.5-0.7 0.9 0 0.3 0 1.3 0 1.8-0.1 0.3-0.2 0.3-0.3 0.1-0.4-1.2-1.2-1.7-1.3-1.8-0.1-0.1-0.2 0.1-0.2 0.1 0 0.1-0.1 0.1-0.2 0.1 0 0-0.4-0.3-0.6-0.4-0.1-0.1-0.1-0.6-0.1-0.8 0-0.3 0.2-0.4 0.3-0.4 1.5 0.7 2 2.1 2.1 2.3 0-1.1 0-2 0.5-2.7 0.4-0.6 1.1 0.2 1.1 0.3z"/>
		<path id="&lt;Compound Path&gt;" fill-rule="evenodd" class="s0" d="m42.9 8.7c-0.1 0.1-0.2 0-0.3-0.1 0-0.1-0.4-0.4-0.4-0.4 0 0-0.4 1-1.2 1.5-1.3 1.1-2.5 1.2-2.6 1.3-0.1 0-0.1-0.1 0.1-0.3 0.9-0.5 1.9-0.8 3.4-2.6 0 0-0.5-0.2-0.8-0.4-0.3-0.3-0.2-1.1 0-1.4 0.6-0.9 1.1-0.5 1.2-0.3 0.5 0.8 0.2 1.6 0.2 1.6 0.3 0.2 0.6 0.5 0.4 1.1zm-1-2.2c-0.1-0.1-0.2-0.1-0.5 0.3-0.1 0.2 0 0.3 0.2 0.4 0.2 0 0.6 0.2 0.6 0.2 0-0.1 0-0.6-0.3-0.9z"/>
		<path id="&lt;Path&gt;" class="s0" d="m32.2 5.3c0 0-0.1 0.4-0.2 0.6-0.4 1.4-0.2 2-0.1 2.1 0.4 0.7 0.8 0.3 1-0.2 0.1-0.2 0.1-0.1 0.1 0q0 0.1-0.1 0.4c-0.2 0.8-0.5 1-0.7 1-0.5 0-0.7-0.7-0.7-1-0.1-1.4 0.4-2.6 0.6-3 0.1-0.4 0.2-0.2 0.1 0.1z"/>
	</g>
</svg>