<svg version="1.2" xmlns="http://www.w3.org/2000/svg" viewBox="0 0 70 30" width="70" height="30">
	<title>New Project</title>
	<style>
		.s0 { fill: #191c4f } 
	</style>
	<g id="الأنبياء">
		<path id="&lt;Path&gt;" class="s0" d="m26.3 24.3c-0.1 0.1-0.1 0.2-0.1 0.4-0.1 0.1-0.2 0.2-0.4 0.3-0.1 0.2-3.5 1.5-3.6 1.5-0.3 0.3-0.3 0.1-0.2 0q0 0 0-0.3c0-0.1 0.1-0.2 0.3-0.3 0.2-0.2 3.5-1.5 3.7-1.6 0.3-0.2 0.3-0.1 0.3 0z"/>
		<path id="&lt;Path&gt;" class="s0" d="m18.5 22.8l1.1 0.7q0 0.1 0 0.1l-0.6 0.8q-0.1 0.1-0.1 0.1l-1-0.8-0.5 0.7q-0.1 0.1-0.1 0.1l-1-0.8q-0.1 0-0.1-0.1l0.6-0.8q0.1 0 0.1 0l1 0.7 0.5-0.7q0.1-0.1 0.1 0z"/>
		<path id="&lt;Path&gt;" class="s0" d="m23.5 22.6l1.1 0.7q0 0.1 0 0.1l-0.6 0.8q0 0.1-0.1 0.1l-1-0.8q-0.1 0 0-0.1l0.6-0.8q0-0.1 0 0z"/>
		<path id="&lt;Path&gt;" class="s0" d="m10.7 22.4c0.3 0.2 0.3 0.7 0.2 0.9-0.3 0.9-1 1.4-1.2 1.6-0.2 0.2-0.2 0.1-0.1-0.1 0 0 0.2-0.2 0.3-0.3 0.7-0.7 0.6-1.1 0.6-1.2 0-0.5-0.4-0.5-0.7-0.2-0.1 0.1-0.1 0-0.1-0.1q0.1 0 0.2-0.2c0.3-0.4 0.6-0.4 0.8-0.4z"/>
		<path id="&lt;Path&gt;" class="s0" d="m9.6 20.7c0 0.1 0 0.1-0.1 0.3 0 0.2-0.1 0.2-0.3 0.4-0.2 0.1-3.5 1.4-3.6 1.5-0.3 0.2-0.3 0.1-0.3 0q0-0.1 0.1-0.3c0-0.2 0.1-0.3 0.3-0.4 0.2-0.2 3.5-1.5 3.7-1.6 0.3-0.2 0.3-0.1 0.2 0.1z"/>
		<path id="&lt;Path&gt;" class="s0" d="m64.1 20.3c0 0 0 0.3 0 0.5 0 0.2-0.1 0.6-0.2 0.9-0.1 0.3-0.8 0.4-1.3 0.1-0.7 1.2-1.4 0.6-1.8 0.5-0.6-0.3-0.8 0.2-1 0.3-0.9 1-2.4 1-2.8 1-0.4 0-0.1-0.2 0.1-0.3 1.2-0.4 2-0.5 3.1-1.5 0.5-0.5 0.8-0.3 0.9-0.2 1.1 0.5 1.2 0 1.3-0.1 0.2-0.1 0.4-0.7 0.4-0.8 0.1-0.2 0.2-0.1 0.2 0.1 0 0.1-0.1 0.3-0.1 0.3 0.4 0.4 0.8 0.1 0.9 0 0 0 0-0.3 0-0.4q0-0.2 0.1-0.6c0.1-0.2 0.2 0 0.2 0.2z"/>
		<path id="&lt;Path&gt;" class="s0" d="m31.1 17.8c0 0-0.1 0.3-0.2 0.5-0.3 1-0.1 1.5-0.1 1.6 0.3 0.5 0.7 0.2 0.9-0.2 0-0.2 0.1-0.1 0.1 0q0 0.1-0.1 0.3c-0.2 0.6-0.4 0.8-0.6 0.8-0.4 0-0.6-0.5-0.6-0.8-0.1-1.1 0.4-2 0.5-2.2 0.1-0.3 0.2-0.2 0.1 0z"/>
		<path id="&lt;Path&gt;" class="s0" d="m7.7 16.9c0.1 0.1 0.1 0.3 0 0.3-0.1 0.1-0.3 0.5-0.4 0.6q-0.2 0.1-0.2 0c-0.3-0.4-0.7-0.3-1-0.1-0.4 0.2-0.4 0.4-0.3 0.6 0.1 0.2 0.6 0.6 1.1 0.7 0.4 0.1 1.5-0.2 1.8-0.5 0.4-0.2 0.2 0.3 0.1 0.4 0 0-0.3 0.5-0.5 0.5-2 0.5-2.7 1.1-3 1.3-0.3 0.2-0.3 0-0.2-0.1 0.1-0.1 0.1-0.2 0.2-0.4q0.1-0.3 0.4-0.4 0 0-0.5-0.5c-0.7-0.7 0.8-2.1 1.4-2.6 0.6-0.5 1 0.1 1.1 0.2z"/>
		<path id="&lt;Path&gt;" class="s0" d="m15.9 15.8c0.1 0.3 0 0.7 0 0.9-0.1 0.2-0.2 0-0.3-0.1 0 0-0.2-0.1-0.3-0.2-0.5-0.4-0.6 0.4-0.6 0.8-0.1 0.3 0 1.3-0.1 1.8 0 0.2-0.1 0.2-0.2 0.1-0.4-1.2-1.1-1.7-1.2-1.8-0.1-0.1-0.2 0.1-0.2 0.2 0 0-0.1 0-0.1 0-0.1 0-0.5-0.2-0.6-0.4-0.1-0.1-0.1-0.5-0.1-0.7 0-0.3 0.2-0.4 0.3-0.4 1.3 0.7 1.8 2 1.9 2.2 0-1-0.1-1.9 0.4-2.6 0.4-0.6 1 0.2 1.1 0.2z"/>
		<path id="&lt;Path&gt;" class="s0" d="m26.5 15l1 0.8q0 0 0 0l-0.6 0.9q0 0-0.1 0l-1-0.8q0 0 0 0l0.6-0.9q0 0 0.1 0z"/>
		<path id="&lt;Compound Path&gt;" fill-rule="evenodd" class="s0" d="m45.1 18.9c-0.4 1-1.8 1.5-2.1 1.6-1.3 0.4-1.4-0.8-1.3-1.8 0.1-0.9 0.7-2.1 0.7-2.1 0 0-1.4-1.1-1.5-1.2-0.1-0.1-0.2-0.3-0.3-0.3-0.2-0.1-0.1-0.2-0.1-0.2 0 0 0-0.9 0-1.1 0-0.1 0 0 0.1 0 0.2 0.1 1.6 0.6 1.8 0.7 0.1 0.1 0.1 0.2 0 0.2-0.1 0.1-0.6 0.2-0.6 0.2l1.2 0.8c0 0 1.7-2.1 1.8-2.3 0.2-0.2 0.2-0.1 0.2 0.1-0.1 0.2-0.4 1.1-0.5 1.3-0.1 0.1-0.9 1.3-0.9 1.3 0 0 1.1 0.7 1.4 1.1 0.5 0.6 0.2 1.3 0.1 1.7zm-2.1-2c0 0-0.8 1.3-0.9 1.6-0.3 0.7 0.4 0.9 0.7 0.8 0.3 0 1.3-0.5 1.8-0.9 0.4-0.4-1.4-1.3-1.6-1.5z"/>
		<path id="&lt;Path&gt;" class="s0" d="m19.1 12.9c0 0-0.1 0.5-0.2 0.8-0.3 1.5 0 2.2 0 2.3 0.4 0.8 0.8 0.3 1-0.2 0-0.3 0.1-0.2 0.1-0.1q0 0.2-0.1 0.5c-0.1 0.9-0.4 1.2-0.7 1.2-0.4 0-0.7-0.7-0.7-1.1-0.2-1.6 0.3-3 0.4-3.5 0.1-0.4 0.2-0.2 0.2 0.1z"/>
		<path id="&lt;Compound Path&gt;" fill-rule="evenodd" class="s0" d="m65.6 17.7c-0.1 0.2-0.3 1.1-1.7 0.9-0.3-0.1-1-0.2-1.3-1-0.3 0.4-1.1 1.7-2.7 1.5-0.3 0-1.4-0.5-1.5-1.8 0 0-1.2 1-1.8 1.3 0 0.5 0 1.1-0.2 1.7-0.3 0.6-3 3.7-5.3 4.2-0.7 0.2-3.6 0.7-3.7-2.5 0-0.6 0-1.2 0.1-1.5-1.8 1.4-3.9 2.4-4.5 2.7-0.9 0.4-4.2 1-4.8 1.1-0.4 0.1-0.4 0-0.2-0.2 0.2-0.1 7.5-2.6 11.2-6.5q0.2-0.2 0-0.5c-0.1-0.2-1.3-2.5-1.4-2.8-0.1-0.3-0.2-0.6-0.3-0.7q-0.1-0.2 0-0.4c0-0.1 0.1-0.7 0.1-0.9 0.1-0.1 0.1 0 0.2 0.1 0.1 0.1 1.3 1.2 1.4 1.4 0.1 0.2 0 0.2 0 0.2-0.1 0-0.6 0-0.6 0 0 0 0.7 1.3 1 1.8 0.4 1.1 0.2 2 0 2.4-0.3 0.6-1 1.3-1.7 1.9-0.1 0.6-0.4 3.2 2.1 3.3 0.4 0 1.6 0.2 4.1-1.8 0.6-0.5 1.2-1.1 1.8-1.9 0.2-0.3 0.3-0.8-0.1-0.8-0.4 0.1-2.9 1-3.3-0.5-0.1-0.4 0.1-4.1 2.6-2.3 0.2 0.2 0.8 0.6 1.1 1.3 0.5-0.2 1.2-0.6 2.2-1.4 0.3-0.2 0.6-0.3 0.5 0 0 0.3-0.2 2.5 2.2 1.8 0.2 0 1.2-0.2 1.9-2.1 0.2-0.4 0.5-0.3 0.3 0-0.2 0.5-0.4 0.9-0.2 1.1 0.2 0.2 0.9 0.7 1.7 0.6 0.3-0.1 0.5-0.2 0.4-0.4-0.2-0.3-0.4-0.7-0.4-0.7 0-0.3 0.1-0.8 0.2-0.9 0-0.1 0.1-0.2 0.2-0.1 0.1 0.1 0.8 1.1 0.4 2.4zm-10.5 0.1c-0.8-1.1-1.8-0.5-1.9-0.4-0.1 0.1-0.2 0.5 0.6 0.5 1 0.1 1.3-0.1 1.3-0.1z"/>
		<path id="&lt;Path&gt;" class="s0" d="m6.1 12c0 0-0.1 0.3-0.2 0.5-0.3 0.9-0.1 1.4-0.1 1.5 0.3 0.4 0.6 0.2 0.8-0.2 0-0.2 0.1-0.1 0.1 0q0 0.1-0.1 0.3c-0.2 0.6-0.4 0.7-0.6 0.7-0.3 0-0.5-0.5-0.5-0.7-0.1-1 0.3-1.9 0.4-2.2 0.1-0.2 0.2-0.1 0.2 0.1z"/>
		<path id="&lt;Path&gt;" class="s0" d="m43.7 11l1 0.8q0 0 0 0.1l-0.6 0.8q0 0-0.1 0l-1-0.7-0.5 0.7q0 0-0.1 0l-1-0.7q-0.1-0.1 0-0.1l0.6-0.9q0 0 0.1 0l1 0.8 0.5-0.8q0 0 0.1 0z"/>
		<path id="&lt;Path&gt;" class="s0" d="m63 11.1c0 0-0.1 0.2-0.2 0.4-0.3 0.9-0.1 1.3-0.1 1.4 0.3 0.5 0.6 0.3 0.7-0.1 0.1-0.2 0.1-0.1 0.1 0q0 0.1 0 0.3c-0.2 0.5-0.4 0.7-0.6 0.7-0.3 0-0.5-0.5-0.5-0.7-0.1-1 0.3-1.8 0.4-2.1 0.1-0.2 0.2-0.1 0.2 0.1z"/>
		<path id="&lt;Path&gt;" class="s0" d="m23.5 10.7c0 0 0 0.3-0.1 0.5-0.3 0.9-0.2 1.4-0.1 1.4 0.3 0.5 0.6 0.3 0.7-0.1 0.1-0.2 0.2-0.1 0.1 0q0 0.1 0 0.3c-0.2 0.6-0.4 0.7-0.6 0.7-0.4 0-0.5-0.5-0.5-0.7-0.1-1 0.3-1.9 0.4-2.2 0.1-0.2 0.2-0.1 0.1 0.1z"/>
		<path id="&lt;Path&gt;" class="s0" d="m52.7 10.6c0 0-0.1 0.2-0.2 0.4-0.3 1-0.1 1.5-0.1 1.6 0.3 0.4 0.7 0.2 0.8-0.2 0.1-0.2 0.1-0.1 0.1 0q0 0.1 0 0.3c-0.2 0.6-0.5 0.7-0.7 0.7-0.3 0-0.5-0.4-0.5-0.7-0.1-1.1 0.4-2 0.5-2.2 0.1-0.3 0.2-0.2 0.1 0.1z"/>
		<path id="&lt;Path&gt;" class="s0" d="m23.3 8.1c-0.1 0.2-0.1 0.2-0.2 0.4-0.1 0.2-0.2 0.3-0.5 0.4-0.2 0.2-11.1 5.2-11.2 5.2-0.5 0.3-0.4 0.1-0.4 0q0.1-0.1 0.1-0.4c0.1-0.2 0.2-0.3 0.4-0.4 0.3-0.2 11.2-5.2 11.5-5.3 0.4-0.2 0.3-0.1 0.3 0.1z"/>
		<path id="&lt;Path&gt;" class="s0" d="m30.8 8c0 0-0.1 0.3-0.1 0.5-0.3 0.9-0.1 1.3 0 1.4 0.3 0.5 0.6 0.2 0.7-0.2 0.1-0.1 0.1-0.1 0.1 0q0 0.1 0 0.3c-0.2 0.6-0.4 0.7-0.6 0.7-0.3 0.1-0.5-0.4-0.5-0.6-0.2-1 0.2-1.9 0.3-2.1 0.1-0.3 0.2-0.2 0.1 0z"/>
		<path id="&lt;Path&gt;" class="s0" d="m5.8 7.7c0 0-0.1 0.3-0.2 0.4-0.3 1-0.1 1.4-0.1 1.5 0.3 0.5 0.6 0.2 0.8-0.1 0-0.2 0.1-0.1 0.1 0q-0.1 0.1-0.1 0.3c-0.2 0.6-0.4 0.7-0.6 0.7-0.4 0-0.5-0.5-0.5-0.7-0.1-1.1 0.3-1.9 0.4-2.2 0.1-0.2 0.2-0.1 0.2 0.1z"/>
		<path id="&lt;Path&gt;" class="s0" d="m8.8 7.1c0.4 0.9 0.6 3.4 0.7 4.2 0.1 0.9 0.5 5.7 0.6 6.3 0.4 3.3 2.9 3.5 3.5 3.6 3.1 0.4 6.7-2 6.9-2.1 0.2-0.1 0.2 0.1 0.2 0.2 0 0.2-0.1 0.6-0.1 0.7 0.5 1.8 2.1 0.5 2.3 0.4 0.2-0.2 0.2-0.2 0.2-0.3 0-0.8-0.7-3.3-0.8-3.7 0 0 0.3-1 0.4-0.9 0.4 0.6 0.8 2.7 0.9 3.2 0.2 0.9 0.6 1.3 0.7 1.5 1.1 1 3 0.3 3.2 0.2 0.3-0.2 0.3-0.4 0.3-0.5 0-0.3-0.6-1-0.7-1.1-0.1-0.1 0.2-0.8 0.2-0.9 0-0.1 0.1-0.2 0.3 0 0.4 0.5 0.7 1.2 0.8 1.5 0.2 0.8-0.3 1.6-0.4 1.8-0.5 0.6-1.7 0.7-2.7 0.6-1.1 0-1.7-1-1.8-1.2 0 0-0.3 1.1-1.4 1.4-1.8 0.3-1.9-1.3-2-1.6-2.1 1.5-5.1 2-5.8 2-4.7 0.1-4.7-3.7-4.7-4.2-0.1-0.5-0.4-3.9-0.5-4.8-0.1-2.5-0.6-4.9-0.8-5.4 0 0 0.3-0.8 0.3-0.9 0.1-0.1 0.2-0.2 0.2 0z"/>
		<path id="&lt;Path&gt;" class="s0" d="m15.3 6.9c0.1 0.2 0.1 0.6 0 0.9-0.1 0.1-0.2 0-0.3-0.1 0 0-0.1-0.2-0.3-0.2-0.5-0.4-0.6 0.4-0.6 0.8 0 0.3 0 1.2-0.1 1.8 0 0.2-0.1 0.2-0.2 0.1-0.4-1.2-1.1-1.7-1.2-1.8-0.1-0.1-0.2 0.1-0.2 0.1 0 0.1-0.1 0.1-0.1 0.1-0.1 0-0.5-0.3-0.6-0.4-0.1-0.1-0.1-0.5-0.1-0.7 0-0.3 0.2-0.5 0.3-0.4 1.3 0.7 1.8 2 1.9 2.2 0-1 0-1.9 0.4-2.6 0.4-0.6 1 0.1 1.1 0.2z"/>
		<path id="&lt;Path&gt;" class="s0" d="m33.8 6.6c0.1 0.1 1.3 3 1.3 3.2 0.1 0.2-0.1 0.2-0.2 0.1-0.1-0.1-0.7-0.7-0.7-0.7 0 0 0.9 7.1 1 7.8 0.2 2.3-0.1 3.4-0.7 4.4-1.8 2.8-5.9 3.2-6.2 3.2-0.3 0.1-0.5 0-0.1-0.3 3.4-1.2 5.1-2.6 5.9-3.6q0-0.1 0-0.3c0-2-2.7-4.1-3.1-4.4-0.3-0.3-1.9-1.7-4-4.1-0.4-0.5-0.7-1-0.9-1.1-0.1-0.1-0.1-0.2-0.1-0.3 0-0.1-0.1-0.9 0-1.1 0-0.2 0 0 0.2 0.1 0.2 0.2 2.2 1.5 2.3 1.6 0.2 0.2 0 0.2-0.2 0.1-0.1 0-0.6-0.1-0.6-0.1 0 0-0.1 0-0.1 0 1.5 2.1 5.6 5.2 6.3 6.8 0.5 1.1 0.6 1.9 0.5 2.4q0.3-0.5 0.3-0.7c0.1-0.6-0.4-3.5-0.4-4-0.4-3.4-1.1-7.7-1.1-8 0 0 0.5-1 0.5-1.1 0.1-0.1 0.1 0 0.1 0.1z"/>
		<path id="&lt;Path&gt;" class="s0" d="m36.9 6.5c0.1 0.1 1.2 3.1 1.3 3.3 0 0.2-0.1 0.2-0.2 0.1-0.1-0.1-0.7-0.7-0.7-0.7 0 0 0.9 6.8 0.9 7.1 0.8 4.9-0.2 6.7-0.3 6.8-0.1 0.2-0.2 0.1-0.1 0 0.4-2.7-0.7-9.4-0.7-9.8 0-0.4-0.6-5.4-0.7-6 0 0 0.3-0.8 0.4-0.9 0-0.1 0.1 0 0.1 0.1z"/>
		<path id="&lt;Path&gt;" class="s0" d="m27.4 6.6c0 0.1-0.2 0.4-0.2 0.5q-0.1 0.2-0.3-0.1c-0.2-0.3-0.6 0-0.7 0-0.2 0.1-0.1 0.2 0.2 0.6 0.4 0.3 1.2 0.1 1.5 0.1 0.2 0 0.3-0.1 0.3 0.1-0.1 0.1-0.1 0.4-0.1 0.4-0.8 0.1-1.9 0.6-2.2 0.7q0 0-0.2 0.1c-0.1 0-0.1 0-0.1-0.1q0-0.1 0.1-0.3c0.1-0.2 0.3-0.3 0.4-0.3 0 0-0.3-0.3-0.4-0.6-0.2-0.3 0.3-1.1 0.9-1.3 0.5-0.3 0.7 0.1 0.8 0.2z"/>
		<path id="&lt;Path&gt;" class="s0" d="m51.8 6.4c0 0.1-0.1 0.1-0.1 0.3-0.1 0.2-0.2 0.2-0.4 0.3-0.2 0.1-5.6 3.2-5.7 3.3-0.3 0.2-0.2 0.1-0.2 0q0-0.1 0.1-0.3c0-0.2 0.1-0.2 0.3-0.4 0.2-0.1 5.5-3.2 5.8-3.3 0.3-0.2 0.2-0.1 0.2 0.1z"/>
		<path id="&lt;Path&gt;" class="s0" d="m58.3 6.7c0.1 0.2 0.1 0.6-0.1 0.9 0 0.2-0.2 0-0.3-0.2 0 0-0.1-0.1-0.2-0.2-0.6-0.5-0.8 0.4-0.8 0.9-0.1 0.3-0.1 1.3-0.2 1.8-0.1 0.3-0.2 0.3-0.3 0.1-0.4-1.3-1.1-1.8-1.2-2-0.1-0.1-0.2 0.1-0.2 0.2 0 0.1-0.1 0.1-0.2 0-0.1 0-0.5-0.3-0.6-0.4-0.1-0.2-0.1-0.6-0.1-0.8 0.1-0.4 0.3-0.5 0.4-0.4 1.4 0.8 1.9 2.2 2 2.4 0-1 0.1-2 0.6-2.7 0.5-0.6 1.2 0.3 1.2 0.4z"/>
		<path id="&lt;Compound Path&gt;" fill-rule="evenodd" class="s0" d="m63.6 8.9c0 0.2-0.1 0.1-0.2 0-0.1-0.1-0.2-0.3-0.4-0.4-0.2 0.5-0.2 0.5-1.1 1.3-2 1.7-4.2 2.3-4.3 2.3-0.1 0.1-0.1 0 0.1-0.2 0.6-0.5 3.5-1.8 4.9-3.5 0 0-0.4-0.2-0.7-0.4-0.3-0.3-0.2-1.1 0-1.4 0.6-0.9 1.1-0.4 1.2-0.3 0.4 0.8 0.2 1.6 0.2 1.6 0.2 0.2 0.5 0.5 0.3 1zm-0.9-2.1c-0.1 0-0.3-0.1-0.5 0.3-0.1 0.2 0 0.3 0.2 0.4 0.1 0 0.6 0.2 0.6 0.2 0-0.1 0-0.6-0.3-0.9z"/>
		<path id="&lt;Compound Path&gt;" fill-rule="evenodd" class="s0" d="m43.4 8.7c-0.1 0.1-0.1 0-0.2-0.1-0.1-0.1-0.5-0.4-0.5-0.4 0 0-0.4 0.9-1.1 1.5-1.3 1-2.5 1.2-2.5 1.2-0.2 0-0.2-0.1 0-0.2 0.8-0.5 1.8-0.9 3.3-2.6 0 0-0.5-0.2-0.8-0.4-0.3-0.3-0.1-1.1 0.1-1.4 0.6-0.9 1-0.4 1.1-0.3 0.5 0.8 0.2 1.6 0.2 1.6 0.3 0.2 0.6 0.5 0.4 1.1zm-1-2.2c-0.1 0-0.2-0.1-0.5 0.4-0.1 0.1 0 0.2 0.2 0.3 0.2 0 0.6 0.2 0.6 0.2 0-0.1 0.1-0.6-0.3-0.9z"/>
		<path id="&lt;Path&gt;" class="s0" d="m20.1 5.4c0 0-0.1 0.2-0.2 0.4-0.2 1 0 1.4 0.1 1.5 0.2 0.4 0.6 0.1 0.7-0.2 0-0.2 0.1-0.1 0.1 0q0 0-0.1 0.2c-0.1 0.6-0.3 0.8-0.5 0.8-0.3 0-0.5-0.4-0.6-0.7-0.1-1 0.3-1.8 0.3-2.1 0.1-0.2 0.2-0.1 0.2 0.1z"/>
		<path id="&lt;Path&gt;" class="s0" d="m29.2 4.2c-0.1 0.1-0.1 0.1-0.2 0.3-0.1 0.2-0.3 0.2-0.5 0.3-0.2 0.1-4.1 1.5-4.2 1.5-0.4 0.2-0.4 0-0.3-0.1q0 0 0.1-0.3c0.1-0.2 0.2-0.2 0.4-0.3 0.3-0.1 4.2-1.4 4.4-1.5 0.4-0.2 0.3 0 0.3 0.1z"/>
	</g>
</svg>