<svg version="1.2" xmlns="http://www.w3.org/2000/svg" viewBox="0 0 70 30" width="70" height="30">
	<title>New Project</title>
	<style>
		.s0 { fill: #191c4f } 
	</style>
	<g id="الحج">
		<path id="&lt;Path&gt;" class="s0" d="m16.8 21.4c0 0-0.1 0.4-0.2 0.6-0.4 1.2-0.2 1.7-0.2 1.9 0.4 0.6 0.8 0.2 1-0.2 0-0.2 0.1-0.1 0.1 0q0 0.1-0.1 0.3c-0.2 0.8-0.5 0.9-0.7 0.9-0.5 0-0.7-0.5-0.7-0.8-0.1-1.3 0.5-2.4 0.6-2.7 0.1-0.4 0.2-0.2 0.2 0z"/>
		<path id="&lt;Path&gt;" class="s0" d="m23.4 21.2c0.3 0 0.2 0.2 0.2 0.4 0 0-0.2 0.3-0.3 0.6-0.2 0.2-1.1 1.1-1.3 1.4-0.2 0.4-0.1 1.2 0.8 1.2 1.2 0 2.2-1 2.5-1.3 0.2-0.3 0.2 0 0 0.2-0.8 1.2-1.8 1.7-2 1.8-0.3 0.1-2 0.4-1.7-1.3 0.3-1.2 1.3-2 1.4-2.1q0.1-0.2-0.2-0.2c-1.1 0-1.1 0.4-1.2 0.5 0 0-0.1-0.1 0-0.2 0 0 0.3-0.5 0.3-0.6 0.4-0.6 1.3-0.4 1.5-0.4z"/>
		<path id="&lt;Path&gt;" class="s0" d="m63.1 21.2c0 0 0 0.4 0 0.7 0 0.3-0.2 0.7-0.3 1.2-0.2 0.4-1.1 0.6-1.7 0.2-1 1.6-1.9 0.7-2.5 0.6-0.9-0.4-1.1 0.2-1.4 0.4-1.1 1.4-3.3 1.3-3.8 1.4-0.5 0 0-0.3 0.2-0.4 1.6-0.6 2.7-0.7 4.2-2.1 0.6-0.6 1-0.3 1.3-0.2 1.4 0.6 1.6 0 1.7-0.2 0.2-0.2 0.5-0.9 0.6-1.1 0.1-0.2 0.2-0.1 0.2 0.1-0.1 0.2-0.1 0.4-0.2 0.5 0.6 0.5 1.2 0.1 1.3 0 0 0 0-0.5 0-0.6q-0.1-0.2 0.1-0.7c0.2-0.4 0.2-0.1 0.3 0.2z"/>
		<path id="&lt;Path&gt;" class="s0" d="m13.9 21c-0.1 0.2-0.1 0.2-0.2 0.4-0.2 0.3-0.3 0.3-0.6 0.5-0.2 0.1-4.8 2.1-4.9 2.2-0.5 0.3-0.4 0.1-0.4-0.1q0 0 0.1-0.4c0.1-0.2 0.2-0.2 0.5-0.4 0.3-0.2 4.8-2.2 5.1-2.3 0.5-0.3 0.4-0.1 0.4 0.1z"/>
		<path id="&lt;Path&gt;" class="s0" d="m9.8 18.2l1.4 1q0 0.1 0 0.1l-0.8 1.2q-0.1 0-0.1 0l-1.4-1q-0.1-0.1 0-0.2l0.8-1.1q0 0 0.1 0z"/>
		<path id="&lt;Compound Path&gt;" fill-rule="evenodd" class="s0" d="m37.2 19.2c-0.5 1.4-2.4 2.2-2.9 2.3-1.7 0.6-1.9-1.2-1.7-2.5 0.1-1.2 1-2.9 1-2.9-0.1 0-1.9-1.5-2.1-1.6-0.1-0.1-0.3-0.4-0.5-0.5-0.1-0.1-0.1-0.1-0.1-0.1 0 0 0-1.4 0-1.5 0-0.2 0.1-0.1 0.2 0 0.2 0 2.2 0.8 2.4 0.9 0.2 0.1 0.1 0.3 0 0.3-0.1 0-0.8 0.2-0.8 0.2l1.7 1.2c0 0 2.2-3 2.5-3.3 0.2-0.2 0.2-0.1 0.1 0.2 0 0.3-0.4 1.6-0.6 1.8-0.1 0.2-1.2 1.8-1.2 1.8 0 0 1.5 0.9 1.9 1.4 0.6 0.9 0.2 1.8 0.1 2.3zm-2.9-2.6c0 0-1 1.7-1.2 2.1-0.4 1 0.6 1.2 1 1.2 0.4-0.1 1.7-0.8 2.4-1.3 0.6-0.5-1.8-1.8-2.2-2z"/>
		<path id="&lt;Compound Path&gt;" fill-rule="evenodd" class="s0" d="m65.1 17.6c-0.1 0.3-0.4 1.6-2.2 1.2-0.5 0-1.5-0.2-1.8-1.3-0.5 0.6-1.6 2.4-3.7 2.1-0.5-0.1-1.9-0.7-2-2.5 0 0-1.7 1.4-2.5 1.8 0 0.7 0 1.4-0.3 2.3-0.3 0.8-4.1 5.1-7.1 5.7-1.1 0.3-5 1-5.1-3.4-0.1-0.9 0-1.6 0.1-2.1-2.4 1.9-5.3 3.3-6.2 3.7-1.2 0.7-5.7 1.4-6.5 1.5-0.5 0.1-0.6 0-0.3-0.2 0.3-0.2 10.2-3.5 15.4-8.9 0.1-0.2 0.1-0.4-0.1-0.7-0.1-0.3-1.7-3.3-1.9-3.7-0.1-0.4-0.3-0.9-0.4-1.1q-0.1-0.2-0.1-0.5c0.1-0.1 0.2-1 0.3-1.2 0-0.1 0.1-0.1 0.2 0.1 0.1 0.1 1.7 1.7 1.9 1.9 0.2 0.3 0 0.3 0 0.3-0.1 0-0.9 0-0.9 0 0 0 1.1 1.8 1.4 2.5 0.6 1.5 0.3 2.6 0.1 3.2-0.5 0.9-1.4 1.8-2.4 2.7-0.2 0.7-0.5 4.3 2.9 4.4 0.5 0 2.2 0.3 5.6-2.5 0.8-0.7 1.6-1.4 2.4-2.5 0.3-0.4 0.5-1.1-0.1-1.1-0.5 0.1-4 1.4-4.5-0.7-0.1-0.6 0.1-5.6 3.6-3.1 0.3 0.2 1 0.8 1.5 1.8 0.6-0.3 1.6-0.9 3-2 0.3-0.3 0.7-0.4 0.7 0 0 0.5-0.3 3.4 2.8 2.5 0.4-0.1 1.7-0.3 2.7-2.8 0.3-0.6 0.6-0.5 0.4 0-0.2 0.6-0.6 1.1-0.2 1.4 0.3 0.3 1.2 1 2.3 0.8 0.4 0 0.6-0.2 0.4-0.5-0.1-0.3-0.5-1-0.5-1 0.1-0.4 0.3-1 0.3-1.2 0-0.2 0.1-0.3 0.2-0.2 0.2 0.2 1.2 1.5 0.6 3.3zm-14.2 0.2c-1.1-1.5-2.5-0.7-2.6-0.5-0.2 0.1-0.3 0.6 0.8 0.6 1.3 0.1 1.8-0.1 1.8-0.1z"/>
		<path id="&lt;Path&gt;" class="s0" d="m20.2 11c-0.1 0.1-0.1 0.2-0.2 0.4-0.1 0.2-0.3 0.3-0.5 0.4-0.3 0.2-4.9 2.2-5 2.3-0.5 0.2-0.4 0-0.3-0.1q0-0.1 0.1-0.4c0-0.2 0.1-0.3 0.4-0.4 0.4-0.2 4.9-2.2 5.2-2.4 0.4-0.2 0.4 0 0.3 0.2z"/>
		<path id="&lt;Path&gt;" class="s0" d="m33.1 8.6l1.3 1 0.8-1q0-0.1 0.1 0l1.4 1q0 0 0 0.1l-0.8 1.1q-0.1 0.1-0.2 0.1l-1.3-1-0.7 0.9q-0.1 0.1-0.1 0.1l-1.4-1.1q-0.1 0-0.1-0.1l0.9-1.1q0-0.1 0.1 0z"/>
		<path id="&lt;Path&gt;" class="s0" d="m61.5 8.6c0 0-0.1 0.4-0.1 0.6-0.5 1.3-0.2 1.8-0.2 2 0.4 0.6 0.8 0.3 1-0.2 0.1-0.2 0.1-0.1 0.1 0q0 0.1-0.1 0.4c-0.2 0.7-0.5 0.9-0.7 0.9-0.5 0-0.7-0.6-0.7-0.9-0.1-1.4 0.5-2.5 0.6-2.9 0.1-0.3 0.2-0.1 0.1 0.1z"/>
		<path id="&lt;Path&gt;" class="s0" d="m47.6 7.9c0 0-0.1 0.4-0.2 0.7-0.5 1.3-0.2 1.9-0.2 2 0.4 0.7 0.9 0.4 1.1-0.2 0.1-0.2 0.1-0.1 0.1 0q0 0.2-0.1 0.4c-0.2 0.9-0.5 1.1-0.8 1.1-0.5-0.1-0.7-0.7-0.8-1.1 0-1.4 0.6-2.6 0.7-3 0.2-0.3 0.3-0.2 0.2 0.1z"/>
		<path id="&lt;Path&gt;" class="s0" d="m9.1 3.2c0 0 0.2 0.7 0.4 1.1 0.2 0.3 0.4 0.7 0.3 1.3-0.1 0.6-0.4 1-0.7 1.1-0.4 0.2-1 0.2-1.4-0.4-0.5 1-1.2 1.2-1.7 0.9-0.4-0.2-0.5-1-0.4-1.2 0-0.3-0.1-1.1-0.1-1.3 0-0.1 0.1-0.3 0.2-0.5 0.1-0.2 0.2-0.1 0.2 0.1 0 0.3-0.1 1.4 0.1 1.8 0.4 0.6 1.3 0 1.5-0.3 0.2-0.3-0.2-1.5-0.2-1.6q-0.1 0-0.1-0.1c0-0.1 0.1-0.4 0.1-0.6q0.2-0.3 0.3 0c0.1 0.2 0.1 0.5 0.3 1.5 0.2 1.1 1.2 0.9 1.4 0.8 0.2-0.1 0.2-0.2 0.1-0.4-0.1-0.1-0.4-1-0.6-1.3-0.1-0.4-0.1-0.7 0.1-1 0.1-0.4 0.1-0.1 0.2 0.1z"/>
		<path id="&lt;Path&gt;" class="s0" d="m46.3 2.2c0 0.2 0 0.2-0.1 0.4-0.1 0.3-0.3 0.3-0.5 0.5-0.3 0.1-7.6 4.4-7.7 4.5-0.5 0.2-0.4 0.1-0.4-0.1q0-0.1 0.1-0.4c0.1-0.2 0.2-0.3 0.5-0.5 0.3-0.1 7.5-4.3 7.8-4.5 0.5-0.3 0.4-0.1 0.3 0.1z"/>
		<path id="&lt;Path&gt;" class="s0" d="m17.9 2.7c0.2 0.3 0 0.9-0.1 1.2-0.1 0.3-0.3 0-0.5-0.2 0 0-0.1-0.1-0.3-0.3-0.7-0.6-1 0.6-1.1 1.2-0.1 0.4-0.1 1.8-0.3 2.6 0 0.3-0.2 0.2-0.3 0-0.5-1.7-1.5-2.5-1.6-2.6-0.2-0.2-0.3 0-0.4 0.1 0 0.2-0.1 0.1-0.2 0.1-0.1-0.1-0.6-0.4-0.8-0.6-0.2-0.2-0.1-0.8-0.1-1.1 0-0.4 0.3-0.6 0.4-0.5 2 1.1 2.6 3 2.8 3.3 0.1-1.4 0.1-2.7 0.9-3.7 0.6-0.8 1.5 0.4 1.6 0.5z"/>
		<path id="&lt;Path&gt;" class="s0" d="m55.2 2.6c0.2 0.3 0.1 0.9-0.1 1.3-0.1 0.2-0.3 0-0.4-0.2 0 0-0.2-0.2-0.4-0.4-0.7-0.6-1 0.6-1.1 1.2 0 0.4-0.1 1.8-0.2 2.6-0.1 0.3-0.3 0.3-0.4 0.1-0.5-1.8-1.4-2.6-1.6-2.7-0.2-0.2-0.3 0.1-0.3 0.2-0.1 0.1-0.1 0.1-0.2 0-0.1 0-0.7-0.4-0.9-0.6-0.2-0.2-0.1-0.8-0.1-1.1 0.1-0.4 0.4-0.6 0.5-0.5 2 1.1 2.6 3.1 2.7 3.4 0.1-1.5 0.2-2.8 0.9-3.8 0.7-0.8 1.6 0.4 1.6 0.5z"/>
		<path id="&lt;Compound Path&gt;" fill-rule="evenodd" class="s0" d="m62.4 5.7c0 0.2-0.1 0.1-0.3-0.1-0.1-0.1-0.2-0.4-0.5-0.5-0.3 0.7-0.3 0.7-1.5 1.8-2.7 2.3-5.7 3.1-5.8 3.2-0.2 0-0.2-0.1 0-0.3 1-0.7 4.8-2.5 6.8-4.9 0 0-0.6-0.2-1-0.5-0.5-0.3-0.2-1.4 0.1-1.9 0.7-1.2 1.4-0.6 1.5-0.4 0.7 1.1 0.3 2.3 0.3 2.3 0.3 0.2 0.7 0.6 0.4 1.3zm-1.2-2.9c-0.2-0.1-0.4-0.1-0.7 0.5-0.2 0.1 0 0.3 0.2 0.4 0.3 0.1 0.8 0.4 0.8 0.4 0.1-0.2 0.1-0.9-0.3-1.3z"/>
		<path id="&lt;Compound Path&gt;" fill-rule="evenodd" class="s0" d="m34.9 5.3c-0.1 0.2-0.2 0.1-0.3-0.1-0.1-0.1-0.6-0.5-0.6-0.5 0 0-0.6 1.3-1.6 2-1.8 1.4-3.3 1.6-3.4 1.7-0.2 0-0.2-0.1 0.1-0.3 1.1-0.7 2.5-1.2 4.4-3.6 0 0-0.6-0.2-1-0.5-0.4-0.3-0.2-1.4 0.1-1.9 0.7-1.2 1.4-0.6 1.5-0.4 0.7 1.1 0.3 2.3 0.3 2.3 0.4 0.2 0.7 0.6 0.5 1.3zm-1.3-2.9c-0.1-0.1-0.3-0.1-0.7 0.5-0.1 0.1 0 0.3 0.2 0.4 0.3 0.1 0.9 0.4 0.9 0.4 0-0.2 0-0.9-0.4-1.3z"/>
		<path id="&lt;Compound Path&gt;" fill-rule="evenodd" class="s0" d="m31.2 16.5l-0.7 1.5q-1.4 0-2.5 0.1c0.1 2.5-0.3 3.3-0.4 3.5-0.1 0.2-0.2 0.1-0.2-0.1 0-0.7-0.2-2-0.3-3.4-2.3 0.2-3.2 0.7-3.8 1-4.4 2.5-7.8 1.6-8.5 1.3-3.6-1.5-2.3-6.5-2-7.7-0.6 0.2-1.1 0.5-1.3 0.6q-1.8 0.8-2.9 1.8c0.1 0.4 0.1 0.8 0.1 1 0 0.4-0.1 0.4-0.2 0.2q-0.3-0.4-0.6-0.7c-2.1 2-2.5 4.2-2.5 4.8-0.6 3.1 1.7 5 2.4 5.4 3.6 1.5 9.9 0.7 11.1 0.6 1.2-0.1 1 0 0.3 0.4-3 1.3-5.4 1.5-6.1 1.5-4.6 0.3-6-1.1-6.6-1.6-1.8-1.6-2.1-3.7-1.9-5.7 0.4-3.2 1.4-4.6 1.6-4.9q0.5-0.6 1-1.2c-1-1-2.2-1.6-2.5-1.8-0.5-0.4-0.8-1.1-0.7-1.8 0.3-1.8 2.4-1.9 2.8-1.9 4.6-0.4 9 0.4 9.1 0.5 0.2 0.1-0.3 1.4-0.3 1.4 0 0-1.1 0.5-2.1 1-1.5 4.7 0.9 6 1.4 6.3 3.2 1.6 7.6-0.7 8.2-1-4.1-1.5-6-0.8-6.1-0.8-0.1 0.1-0.3 0-0.2-0.2 0-0.1 0.4-1 0.5-1.1 0.5-0.6 3.7-0.5 4.3-0.9 0.1 0-0.5-3-0.5-3.3-0.7-4.2-1.3-8.5-1.3-8.8 0 0 0.4-1.2 0.4-1.3 0.1-0.2 0.2-0.1 0.2 0.1 0.1 0.1 1.8 4.2 1.9 4.5 0 0.2-0.1 0.3-0.3 0.1-0.1-0.1-0.9-0.9-0.9-0.9 0 0 1.2 7.3 1.3 8.2 0.1 0.9-0.2 2-0.2 2.3 1.6 0.5 3.2 0.7 4.6 0.9-0.4-3.1-0.9-6.4-0.9-6.7-0.1-0.5-0.8-6.6-0.9-7.3 0 0 0.4-1.1 0.5-1.3 0-0.2 0.1-0.1 0.1 0.1 0.1 0.1 1.8 4.2 1.9 4.5 0.1 0.2-0.1 0.3-0.2 0.1-0.2-0.1-1-0.9-1-0.9 0 0 1.2 8.4 1.2 8.9q0.3 1.5 0.4 2.6c1.6 0.2 2.8 0.1 3.3 0.1zm-18.3-5.4c-5.1-0.9-7.7 0.1-7.9 0.3-0.2 0.2-0.1 0.3 0 0.3 0.1 0.1 1.9 1.2 2.6 1.9q0.3 0.3 0.4 0.5c2-1.6 4.5-2.9 4.9-3z"/>
	</g>
</svg>