<svg version="1.2" xmlns="http://www.w3.org/2000/svg" viewBox="0 0 70 30" width="70" height="30">
	<title>New Project</title>
	<style>
		.s0 { fill: #191c4f } 
	</style>
	<g id="النور">
		<path id="&lt;Path&gt;" class="s0" d="m15 23.4c-0.1 0.1-0.1 0.2-0.2 0.4-0.1 0.1-0.2 0.2-0.4 0.3-0.2 0.1-4.3 1.9-4.4 1.9-0.4 0.2-0.3 0.1-0.3 0q0-0.1 0.1-0.4c0.1-0.1 0.1-0.2 0.4-0.3 0.3-0.2 4.3-1.9 4.5-2 0.4-0.2 0.3 0 0.3 0.1z"/>
		<path id="&lt;Path&gt;" class="s0" d="m26.8 21.2c0 0-0.1 0.3-0.2 0.5-0.3 1.2-0.1 1.7 0 1.8 0.4 0.5 0.8 0.2 0.9-0.2 0.1-0.2 0.2-0.1 0.2 0q0 0.1-0.1 0.3c-0.2 0.7-0.5 0.9-0.7 0.9-0.5 0-0.7-0.5-0.7-0.8-0.2-1.2 0.3-2.3 0.4-2.6 0.1-0.3 0.3-0.2 0.2 0.1z"/>
		<path id="&lt;Path&gt;" class="s0" d="m63.9 21c0 0 0 0.3 0 0.6 0 0.2-0.2 0.6-0.3 0.9-0.1 0.4-0.9 0.5-1.4 0.2-0.8 1.3-1.6 0.7-2 0.5-0.8-0.3-1 0.2-1.2 0.4-0.9 1.1-2.7 1.1-3.1 1.1-0.4 0-0.1-0.2 0.1-0.3 1.4-0.5 2.2-0.6 3.5-1.7 0.5-0.6 0.9-0.3 1.1-0.2 1.1 0.5 1.3 0 1.4-0.2 0.2-0.1 0.4-0.7 0.5-0.9 0.1-0.2 0.2-0.1 0.1 0.1 0 0.1-0.1 0.3-0.1 0.4 0.5 0.4 1 0.1 1.1 0 0 0-0.1-0.4-0.1-0.5q0-0.1 0.2-0.6c0.1-0.3 0.1 0 0.2 0.2z"/>
		<path id="&lt;Path&gt;" class="s0" d="m33.1 20.6c0 0-0.1 0.3-0.2 0.5-0.3 1.2-0.1 1.7 0 1.8 0.4 0.5 0.8 0.2 1-0.2 0-0.3 0.1-0.2 0.1-0.1q0 0.1-0.1 0.4c-0.2 0.7-0.5 0.9-0.7 0.9-0.5 0-0.7-0.6-0.7-0.8-0.2-1.2 0.3-2.3 0.4-2.6 0.2-0.3 0.3-0.2 0.2 0.1z"/>
		<path id="&lt;Compound Path&gt;" fill-rule="evenodd" class="s0" d="m42.5 19.4c-0.4 1.1-2 1.7-2.4 1.8-1.4 0.5-1.6-0.9-1.5-2 0.1-1 0.9-2.4 0.9-2.4-0.1 0-1.6-1.2-1.7-1.3-0.1-0.2-0.3-0.3-0.4-0.4-0.2-0.1-0.1-0.2-0.1-0.2 0 0 0-1.1 0-1.2 0-0.1 0-0.1 0.2 0 0.1 0 1.7 0.7 1.9 0.8 0.2 0.1 0.1 0.2 0 0.2-0.1 0-0.6 0.2-0.6 0.2l1.4 1c0 0 1.8-2.5 2-2.7 0.2-0.3 0.2-0.1 0.1 0.1 0 0.3-0.4 1.3-0.4 1.5-0.1 0.1-1.1 1.5-1.1 1.5 0 0 1.3 0.7 1.6 1.2 0.5 0.7 0.2 1.5 0.1 1.9zm-2.4-2.2c0 0-0.9 1.4-1 1.7-0.3 0.9 0.5 1 0.8 1 0.3 0 1.4-0.6 2-1.1 0.5-0.4-1.5-1.4-1.8-1.6z"/>
		<path id="&lt;Path&gt;" class="s0" d="m7.4 14.5c0 0-0.1 0.5-0.2 0.9-0.5 2.1-0.1 3-0.1 3.2 0.6 0.9 1.2 0.4 1.4-0.4 0.1-0.4 0.2-0.2 0.2 0q0 0.2-0.1 0.6c-0.2 1.2-0.6 1.6-1 1.6-0.6 0-1-1-1-1.5-0.3-2.1 0.4-4 0.6-4.6 0.1-0.5 0.3-0.3 0.2 0.2z"/>
		<path id="&lt;Compound Path&gt;" fill-rule="evenodd" class="s0" d="m65.6 18c-0.1 0.3-0.4 1.4-1.9 1-0.4 0-1.2-0.2-1.5-1-0.4 0.4-1.3 1.9-3 1.6-0.4 0-1.6-0.5-1.7-2 0 0-1.4 1.1-2.1 1.5 0.1 0.6 0.1 1.2-0.2 1.9-0.3 0.7-3.4 4.2-5.9 4.7-0.8 0.2-4.1 0.8-4.2-2.8 0-0.7 0-1.3 0.1-1.7-2 1.5-4.4 2.7-5.1 3.1-1 0.5-4.7 1.1-5.4 1.2-0.4 0.1-0.5-0.1-0.2-0.2 0.2-0.2 8.4-2.9 12.7-7.4 0.1-0.1 0.1-0.3-0.1-0.5-0.1-0.2-1.4-2.8-1.5-3.1-0.2-0.4-0.3-0.8-0.4-0.9q-0.1-0.2 0-0.4c0-0.1 0.1-0.8 0.1-1 0.1-0.1 0.2-0.1 0.2 0 0.1 0.2 1.5 1.5 1.6 1.7 0.2 0.1 0 0.2 0 0.2-0.1 0-0.7 0-0.7 0 0 0 0.9 1.5 1.1 2 0.6 1.3 0.3 2.2 0.1 2.7-0.4 0.8-1.1 1.5-2 2.2-0.1 0.6-0.4 3.6 2.4 3.7 0.4 0 1.8 0.2 4.6-2.1 0.7-0.5 1.4-1.2 2-2 0.3-0.4 0.4-1 0-0.9-0.5 0-3.4 1.1-3.8-0.7-0.1-0.4 0.2-4.6 3-2.5 0.2 0.2 0.8 0.7 1.2 1.5 0.5-0.2 1.4-0.8 2.5-1.6 0.3-0.3 0.6-0.5 0.6-0.1 0 0.4-0.2 2.8 2.4 2.1 0.2-0.1 1.3-0.3 2.1-2.4 0.3-0.4 0.6-0.4 0.4 0-0.2 0.6-0.5 1-0.2 1.2 0.2 0.3 1 0.8 1.9 0.7 0.3 0 0.5-0.2 0.4-0.4-0.1-0.3-0.5-0.8-0.5-0.8 0.1-0.4 0.2-0.9 0.3-1 0-0.2 0.1-0.3 0.2-0.2 0.1 0.1 1 1.3 0.5 2.7zm-11.8 0.1c-0.9-1.2-2-0.5-2.2-0.3-0.1 0.1-0.2 0.4 0.7 0.5 1.1 0.1 1.5-0.2 1.5-0.2z"/>
		<path id="&lt;Path&gt;" class="s0" d="m25.7 13.4l1.2 0.8q0 0 0 0.1l-0.7 0.9q0 0.1-0.1 0.1l-1.1-0.9q-0.1 0 0-0.1l0.6-0.9q0.1-0.1 0.1 0z"/>
		<path id="&lt;Path&gt;" class="s0" d="m40.9 10.6l1.1 0.8q0.1 0 0 0.1l-0.6 0.9q-0.1 0.1-0.1 0l-1.2-0.8-0.5 0.8q-0.1 0.1-0.1 0l-1.2-0.8q0 0 0-0.1l0.7-0.9q0-0.1 0.1 0l1.1 0.8 0.6-0.8q0-0.1 0.1 0z"/>
		<path id="&lt;Path&gt;" class="s0" d="m62.6 10.6c0 0-0.1 0.3-0.2 0.5-0.3 1-0.1 1.5-0.1 1.6 0.3 0.5 0.7 0.2 0.8-0.1 0.1-0.2 0.2-0.1 0.1-0.1q0 0.1 0 0.4c-0.2 0.6-0.5 0.7-0.7 0.7-0.3 0-0.5-0.5-0.5-0.7-0.1-1.1 0.4-2.1 0.5-2.4 0.1-0.2 0.2-0.1 0.1 0.1z"/>
		<path id="&lt;Path&gt;" class="s0" d="m51.1 10c0 0-0.1 0.3-0.2 0.5-0.4 1.1-0.2 1.6-0.1 1.8 0.3 0.5 0.7 0.2 0.8-0.2 0.1-0.2 0.2-0.1 0.1 0q0 0.1 0 0.3c-0.2 0.7-0.5 0.9-0.7 0.9-0.4 0-0.6-0.6-0.6-0.9-0.1-1.2 0.4-2.2 0.5-2.5 0.1-0.3 0.2-0.1 0.2 0.1z"/>
		<path id="&lt;Path&gt;" class="s0" d="m26.2 9.4c0 0 0.2 0.5 0.4 0.9 0.1 0.2 0.3 0.6 0.2 1.1-0.1 0.4-0.4 0.8-0.6 0.9-0.3 0.1-0.8 0.1-1.1-0.4-0.4 0.8-1 1-1.4 0.8-0.4-0.2-0.4-0.9-0.4-1.1 0-0.2 0-0.8 0-1 0-0.1 0-0.3 0.1-0.4 0.1-0.2 0.2-0.1 0.2 0.1 0 0.2-0.1 1.1 0.1 1.4 0.3 0.6 1.1 0.1 1.2-0.2 0.2-0.3-0.2-1.2-0.2-1.3q0-0.1 0-0.1c0-0.1 0-0.4 0.1-0.5q0.1-0.2 0.2 0c0.1 0.1 0.1 0.4 0.2 1.3 0.2 0.8 1 0.7 1.2 0.6 0.2-0.1 0.1-0.2 0.1-0.3-0.1-0.1-0.4-0.8-0.5-1.2-0.1-0.3-0.1-0.5 0-0.8 0.1-0.2 0.2 0 0.2 0.2z"/>
		<path id="&lt;Path&gt;" class="s0" d="m11.3 5.8c0.1 0.2 0 0.7-0.1 1 0 0.1-0.2 0-0.3-0.2 0 0-0.2-0.1-0.3-0.3-0.6-0.4-0.8 0.5-0.9 1 0 0.3-0.1 1.4-0.2 2 0 0.2-0.2 0.2-0.2 0-0.4-1.3-1.2-1.9-1.3-2q-0.1-0.1-0.1-0.1 0.1 0.2 0.1 0.5c-0.3 1.7-2 2.4-2.3 2.5-0.3 0.2-0.3 0.1 0-0.2 0.3-0.3 1.6-1.6 1.8-1.9 0.6-0.6-0.5-1-0.6-1.1-0.1-0.2-0.1-0.7-0.1-0.9 0-0.3 0.3-0.5 0.4-0.4 1.5 0.9 2 2.4 2.1 2.6 0.1-1.1 0.1-2.1 0.7-2.9 0.5-0.6 1.3 0.3 1.3 0.4z"/>
		<path id="&lt;Path&gt;" class="s0" d="m15.8 5.2c0 0-0.1 0.4-0.2 0.6-0.4 1.3-0.1 1.9-0.1 2 0.5 0.6 1 0.3 1.1-0.2 0.1-0.3 0.2-0.1 0.2 0q0 0.1-0.1 0.4c-0.2 0.7-0.5 0.9-0.8 1-0.5 0-0.8-0.6-0.8-0.9-0.2-1.4 0.4-2.6 0.5-3 0.1-0.3 0.3-0.2 0.2 0.1z"/>
		<path id="&lt;Path&gt;" class="s0" d="m12.2 12.3c0 0-0.1 0.3-0.2 0.6-0.4 1.3-0.1 1.9 0 2 0.4 0.6 0.9 0.2 1.1-0.2 0.1-0.3 0.2-0.2 0.1-0.1q0 0.1 0 0.4c-0.2 0.8-0.6 1-0.9 1-0.5 0.1-0.7-0.6-0.8-0.9-0.2-1.4 0.4-2.6 0.5-2.9 0.2-0.4 0.3-0.2 0.2 0.1z"/>
		<path id="&lt;Path&gt;" class="s0" d="m50 5.3c0 0.1 0 0.1-0.1 0.3-0.1 0.2-0.2 0.3-0.4 0.4-0.2 0.2-6.3 3.6-6.4 3.7-0.3 0.3-0.3 0.1-0.3 0q0-0.1 0.1-0.4c0-0.1 0.1-0.2 0.4-0.3 0.2-0.2 6.2-3.7 6.5-3.8 0.3-0.2 0.3-0.1 0.2 0.1z"/>
		<path id="&lt;Path&gt;" class="s0" d="m57.4 5.7c0.1 0.2 0 0.7-0.1 1-0.1 0.2-0.2 0-0.4-0.2 0 0-0.1-0.2-0.3-0.3-0.6-0.5-0.8 0.5-0.9 1 0 0.3-0.1 1.5-0.2 2.1 0 0.3-0.2 0.3-0.3 0.1-0.4-1.4-1.2-2.1-1.3-2.2-0.2-0.2-0.3 0-0.3 0.1 0 0.1-0.1 0.1-0.2 0.1 0-0.1-0.5-0.4-0.7-0.5-0.1-0.2 0-0.7 0-0.9 0-0.4 0.2-0.5 0.4-0.5 1.6 1 2.1 2.6 2.2 2.8 0.1-1.2 0.1-2.3 0.8-3.1 0.5-0.6 1.2 0.3 1.3 0.5z"/>
		<path id="&lt;Compound Path&gt;" fill-rule="evenodd" class="s0" d="m63.4 8.2c-0.1 0.2-0.2 0.1-0.3-0.1-0.1-0.1-0.2-0.3-0.5-0.4-0.2 0.5-0.2 0.6-1.2 1.5-2.2 1.9-4.7 2.6-4.8 2.6-0.1 0-0.2-0.1 0.1-0.2 0.7-0.6 3.9-2.1 5.5-4.1 0 0-0.5-0.2-0.8-0.4-0.4-0.3-0.2-1.2 0.1-1.5 0.6-1 1.1-0.5 1.2-0.4 0.6 1 0.3 1.9 0.3 1.9 0.3 0.2 0.6 0.5 0.4 1.1zm-1.1-2.4c-0.1-0.1-0.3-0.1-0.6 0.4-0.1 0.1 0 0.2 0.2 0.3 0.2 0.1 0.7 0.3 0.7 0.3 0-0.1 0.1-0.6-0.3-1z"/>
		<path id="&lt;Compound Path&gt;" fill-rule="evenodd" class="s0" d="m40.5 7.9c0 0.1-0.1 0-0.2-0.1-0.1-0.1-0.5-0.4-0.5-0.4 0 0-0.4 1-1.3 1.6-1.5 1.2-2.7 1.4-2.8 1.4-0.2 0-0.2-0.1 0-0.3 1-0.5 2.1-0.9 3.7-2.9 0 0-0.5-0.2-0.8-0.5-0.4-0.2-0.2-1.1 0.1-1.5 0.6-1 1.1-0.5 1.2-0.3 0.6 0.9 0.3 1.8 0.3 1.8 0.3 0.2 0.6 0.6 0.3 1.2zm-1-2.4c-0.1-0.1-0.3-0.1-0.6 0.3-0.1 0.2 0 0.3 0.2 0.4 0.2 0.1 0.7 0.3 0.7 0.3 0-0.1 0.1-0.7-0.3-1z"/>
		<path id="&lt;Compound Path&gt;" fill-rule="evenodd" class="s0" d="m31.3 20.5c-1.2 1.3-2.7 0.9-3 0.8-1.3-0.4-1.4-2.3-1.5-2.5 0-0.1-0.1-0.1-0.2 0-0.6 0.6-1.2 1-1.6 1.2q0.1 0.4 0 0.5c0 0-0.1 1.4-0.9 2.2-4.1 4.2-6.8 3.1-7.1 3-2-1-0.9-4.6-0.6-5.8-2.2 1.8-5.7 3.3-6.6 3.6-0.8 0.3-3.7 0.6-4.4 0.7-0.4 0.1-0.5 0-0.2-0.2 0.2-0.1 8-2.6 12.1-6.3 0.1-0.1 0.2-0.3 0.1-0.5-0.1-0.2-1.5-2.7-1.6-3-0.1-0.4-0.3-0.8-0.4-0.9q-0.1-0.2 0-0.4c0-0.2 0.1-0.8 0.2-1 0-0.2 0.1-0.1 0.2 0 0.1 0.1 1.4 1.5 1.6 1.7 0.1 0.1 0 0.2-0.1 0.2 0 0-0.7-0.1-0.7-0.1v0.1c0 0 0.9 1.5 1.2 2 0.5 1.3 0.1 2.2-0.1 2.7q-0.3 0.5-0.9 1c0 0.5-0.4 2-0.4 2.3-0.3 2.7 2 2.8 2.4 2.7 2.6-0.2 5.3-3.3 5.6-3.8 0.3-0.5-0.2-0.4-0.4-0.4q-1.5 0.4-2.1 0.2c-1.2-0.4-1.3-2.2-0.4-3.2 0.9-1 1.7-0.5 2.6 0.4q0.5 0.5 0.7 1c0.9-0.3 2-1.4 2.2-1.5 0.3-0.2 0.3 0 0.3 0.2 0 0.7 0.2 1.8 0.5 2.1 0.9 1 2.3 0.4 2.9 0.1 0.6-0.3 0.4-1 0.4-1.5-0.1-0.5-1.3-7.7-1.4-8.3-0.3-2.2-0.5-3.9-0.6-4.1 0 0 0.4-0.9 0.4-1.1 0.1-0.1 0.1 0 0.2 0.1 0 0.1 1.4 3.5 1.5 3.7 0 0.2-0.1 0.3-0.2 0.2-0.1-0.2-0.7-0.8-0.7-0.8 0 0.1 1.3 8.8 1.4 9.2 0.3 2.5-0.3 3.3-0.4 3.5zm-1-12.7q0 0 0 0 0 0 0 0zm-6.6 11.3c-0.6-1.2-1.6-0.9-1.8-0.8-0.1 0.2-0.5 0.7 0.5 0.8 0.7 0.2 1.3 0 1.3 0z"/>
		<path id="&lt;Path&gt;" class="s0" d="m33.4 4.6c0 0.2 1.5 3.6 1.5 3.8 0.1 0.1-0.1 0.2-0.2 0.1-0.1-0.1-0.8-0.8-0.8-0.8 0 0 1.3 7.5 1.4 8 0.8 4.9 0.1 6.2 0 6.4-0.1 0.2-0.2 0.2-0.1-0.1 0.1-2.3-1.2-9.3-1.3-9.7 0-0.4-1-6.1-1-6.7 0 0 0.3-0.9 0.4-1 0-0.2 0.1-0.1 0.1 0z"/>
		<path id="&lt;Compound Path&gt;" fill-rule="evenodd" class="s0" d="m24.4 7.5c-0.1 0.2-0.1 0-0.2-0.1-0.1-0.1-0.5-0.5-0.5-0.5 0 0-1.4 2.1-2.8 3-1.7 1.1-3 1.6-3.1 1.6-0.2 0-0.2-0.1 0.1-0.3 1-0.5 3.5-2.4 5.4-4.5 0 0-0.6-0.2-0.9-0.5-0.4-0.3-0.2-1.2 0.1-1.6 0.7-1 1.3-0.5 1.4-0.3 0.5 1 0.2 2 0.2 2 0.3 0.2 0.6 0.6 0.3 1.2zm-1-2.6c-0.1-0.1-0.3-0.1-0.6 0.4-0.2 0.1 0 0.2 0.2 0.4 0.2 0.1 0.7 0.3 0.7 0.3 0-0.1 0.1-0.7-0.3-1.1z"/>
	</g>
</svg>