<svg version="1.2" xmlns="http://www.w3.org/2000/svg" viewBox="0 0 70 30" width="70" height="30">
	<title>New Project</title>
	<style>
		.s0 { fill: #191c4f } 
	</style>
	<g id="الفرقان">
		<path id="&lt;Path&gt;" class="s0" d="m19 21.6c0 0-0.1 0.2-0.1 0.4-0.3 1-0.1 1.4-0.1 1.5 0.3 0.5 0.7 0.2 0.8-0.1 0-0.2 0.1-0.1 0.1-0.1q0 0.1-0.1 0.3c-0.1 0.6-0.3 0.8-0.5 0.8-0.4 0-0.6-0.5-0.6-0.7-0.1-1 0.3-1.9 0.4-2.2 0-0.3 0.1-0.1 0.1 0.1z"/>
		<path id="&lt;Path&gt;" class="s0" d="m17.5 21.4c0 0.1 0 0.2-0.1 0.3-0.1 0.2-0.2 0.3-0.3 0.4-0.2 0.1-4.7 2.3-4.8 2.4-0.3 0.2-0.3 0.1-0.2 0q0-0.1 0-0.3c0-0.2 0.1-0.2 0.3-0.4 0.2-0.1 4.7-2.3 4.9-2.4 0.3-0.2 0.3-0.1 0.2 0z"/>
		<path id="&lt;Path&gt;" class="s0" d="m30.6 20.6c0 0 0 0.2-0.1 0.4-0.3 0.9-0.1 1.3-0.1 1.4 0.3 0.5 0.6 0.2 0.7-0.1 0.1-0.2 0.1-0.1 0.1 0q0 0.1 0 0.3c-0.2 0.5-0.4 0.6-0.6 0.6-0.3 0-0.5-0.4-0.5-0.6-0.1-1 0.3-1.8 0.4-2.1 0.1-0.2 0.2-0.1 0.1 0.1z"/>
		<path id="&lt;Path&gt;" class="s0" d="m37.9 20.2c0 0-0.1 0.2-0.1 0.4-0.3 0.9-0.2 1.3-0.1 1.4 0.2 0.5 0.5 0.2 0.7-0.1 0-0.2 0.1-0.1 0.1 0q0 0.1-0.1 0.3c-0.1 0.5-0.4 0.6-0.5 0.6-0.4 0-0.5-0.4-0.6-0.6 0-1 0.4-1.8 0.5-2.1 0.1-0.2 0.2-0.1 0.1 0.1z"/>
		<path id="&lt;Path&gt;" class="s0" d="m64.1 20.1c0 0 0 0.3 0 0.5 0 0.2-0.1 0.5-0.2 0.8-0.1 0.3-0.7 0.5-1.2 0.2-0.7 1.1-1.4 0.5-1.7 0.4-0.7-0.3-0.9 0.2-1.1 0.3-0.8 1-2.3 1-2.6 1-0.4 0-0.1-0.2 0-0.3 1.2-0.4 2-0.5 3-1.5 0.5-0.4 0.8-0.2 1-0.1 1 0.4 1.1 0 1.2-0.2 0.2-0.1 0.3-0.6 0.4-0.8 0.1-0.1 0.2 0 0.1 0.2 0 0.1 0 0.2-0.1 0.3 0.5 0.3 0.9 0.1 1 0 0 0-0.1-0.3-0.1-0.4q0-0.2 0.1-0.6c0.1-0.2 0.2 0 0.2 0.2z"/>
		<path id="&lt;Path&gt;" class="s0" d="m8.6 17.6c0 0-0.1 0.3-0.1 0.4-0.3 1-0.1 1.4 0 1.5 0.2 0.5 0.6 0.2 0.7-0.1 0.1-0.2 0.1-0.1 0.1 0q0 0 0 0.3c-0.2 0.5-0.4 0.7-0.6 0.7-0.4 0-0.5-0.4-0.6-0.7-0.1-1 0.3-1.9 0.4-2.2 0.1-0.2 0.2-0.1 0.1 0.1z"/>
		<path id="&lt;Path&gt;" class="s0" d="m10.2 16.5l1 0.7q0 0.1 0 0.1l-0.6 0.8q0 0.1-0.1 0l-1-0.7q0 0 0-0.1l0.6-0.8q0 0 0.1 0z"/>
		<path id="&lt;Compound Path&gt;" fill-rule="evenodd" class="s0" d="m45.7 18.7c-0.3 1-1.7 1.5-2.1 1.6-1.2 0.4-1.3-0.8-1.2-1.7 0.1-0.9 0.7-2.1 0.7-2.1 0 0-1.4-1.1-1.5-1.2-0.1-0.1-0.2-0.2-0.3-0.3-0.1-0.1-0.1-0.1-0.1-0.1 0 0 0-1 0-1.1 0-0.1 0.1 0 0.2 0 0.1 0 1.5 0.6 1.7 0.7 0.1 0.1 0.1 0.2 0 0.2-0.1 0-0.6 0.1-0.6 0.1l1.2 0.9c0 0 1.6-2.1 1.8-2.3 0.1-0.2 0.1-0.1 0.1 0.1-0.1 0.2-0.4 1.1-0.4 1.2-0.1 0.2-1 1.3-1 1.3 0 0 1.1 0.7 1.4 1.1 0.5 0.6 0.2 1.2 0.1 1.6zm-2.1-1.9c0 0-0.7 1.3-0.8 1.5-0.3 0.7 0.4 0.9 0.7 0.9 0.3-0.1 1.2-0.6 1.7-1 0.4-0.3-1.3-1.2-1.6-1.4z"/>
		<path id="&lt;Compound Path&gt;" fill-rule="evenodd" class="s0" d="m65.6 17.5c-0.1 0.3-0.3 1.2-1.6 0.9-0.4 0-1-0.2-1.3-0.9-0.3 0.4-1.1 1.7-2.6 1.4-0.3 0-1.4-0.4-1.4-1.7 0 0-1.3 1-1.8 1.3 0 0.4 0 1-0.3 1.6-0.2 0.6-2.8 3.6-5 4.1-0.8 0.1-3.5 0.7-3.6-2.4-0.1-0.7 0-1.2 0-1.5-1.7 1.3-3.8 2.3-4.3 2.6-1 0.4-4.1 1-4.7 1.1-0.4 0-0.4-0.1-0.2-0.2 0.2-0.1 7.3-2.5 10.9-6.3q0.2-0.2 0-0.5c-0.1-0.2-1.2-2.4-1.3-2.7-0.2-0.3-0.3-0.6-0.4-0.7q0-0.2 0-0.4c0-0.1 0.1-0.7 0.2-0.8 0-0.2 0.1-0.1 0.1 0 0.1 0.1 1.3 1.2 1.4 1.4 0.1 0.1 0 0.2 0 0.2-0.1 0-0.6 0-0.6 0 0 0 0.7 1.3 0.9 1.7 0.5 1.1 0.2 1.9 0.1 2.3-0.4 0.7-1 1.3-1.7 1.9-0.1 0.6-0.3 3.1 2 3.2 0.4 0 1.6 0.2 4-1.8 0.6-0.4 1.2-1 1.8-1.7 0.2-0.4 0.3-0.9-0.1-0.8-0.4 0-2.9 0.9-3.2-0.6-0.1-0.4 0.1-3.9 2.5-2.2 0.2 0.2 0.8 0.6 1.1 1.3 0.4-0.2 1.2-0.6 2.1-1.4 0.3-0.2 0.5-0.3 0.5 0 0 0.4-0.2 2.4 2.1 1.8 0.2-0.1 1.2-0.3 1.9-2 0.2-0.4 0.4-0.4 0.3 0-0.2 0.4-0.4 0.8-0.2 1 0.2 0.2 0.8 0.7 1.6 0.6 0.3-0.1 0.5-0.2 0.4-0.4-0.1-0.3-0.4-0.7-0.4-0.7 0.1-0.3 0.2-0.7 0.2-0.9 0-0.1 0.1-0.2 0.2-0.1 0.1 0.1 0.8 1.1 0.4 2.3zm-10.1 0.1c-0.8-1-1.8-0.4-1.9-0.3-0.1 0.1-0.2 0.4 0.6 0.5 0.9 0 1.3-0.2 1.3-0.2z"/>
		<path id="&lt;Path&gt;" class="s0" d="m11.2 12.1c0 0-0.1 0.3-0.1 0.5-0.3 0.9-0.1 1.4-0.1 1.5 0.3 0.4 0.7 0.2 0.8-0.2 0-0.2 0.1-0.1 0.1 0q0 0.1 0 0.3c-0.2 0.6-0.4 0.7-0.6 0.7-0.4 0-0.6-0.4-0.6-0.7-0.1-1 0.3-1.9 0.4-2.2 0.1-0.2 0.2-0.1 0.1 0.1z"/>
		<path id="&lt;Path&gt;" class="s0" d="m5.8 11.8c0 0-0.1 0.5-0.2 0.8-0.4 1.8-0.1 2.5 0 2.7 0.4 0.9 1 0.4 1.1-0.3 0.1-0.3 0.2-0.2 0.2 0q0 0.1-0.1 0.5c-0.2 1.1-0.6 1.4-0.8 1.4q-0.1 0-0.1 0 0 0 0 0c-0.9 2.3-0.1 3.5 0.1 3.8 1 1.5 3 1.1 3.5 1 3-0.7 4.8-2.5 5-2.8 0.2-0.3 0.1-0.6 0-0.8-0.1-0.2-0.7-1.4-1-2.3-0.1-0.3-0.3-0.9-0.2-1 0 0 0.2-0.8 0.2-0.8 0.1-0.1 0.1-0.1 0.1 0q0.1 0.1 0.1 0.2c0 0 0.9 1.1 1 1.2 0.1 0.2 0 0.3-0.1 0.2q-0.1 0-0.5-0.1c0 0 1 2.2 1 2.4 0.4 1.7-1.3 2.8-1.6 3-3.6 2.6-5.6 2.1-6.4 1.9-3.4-1.1-1.6-5.6-1.4-6q0 0 0 0c-0.4-0.2-0.6-0.8-0.7-1.2-0.2-1.8 0.4-3.5 0.6-3.9 0.1-0.5 0.3-0.3 0.2 0.1z"/>
		<path id="&lt;Path&gt;" class="s0" d="m44.3 11.1l1 0.7q0 0.1 0 0.1l-0.6 0.8q0 0.1 0 0l-1-0.7-0.5 0.7q-0.1 0.1-0.1 0l-1-0.7q0 0 0-0.1l0.6-0.8q0 0 0 0l1 0.7 0.5-0.7q0.1 0 0.1 0z"/>
		<path id="&lt;Path&gt;" class="s0" d="m63 11.2c0 0 0 0.2-0.1 0.4-0.3 0.9-0.1 1.3-0.1 1.3 0.2 0.5 0.6 0.3 0.7-0.1 0.1-0.1 0.1-0.1 0.1 0q0 0.1-0.1 0.3c-0.1 0.5-0.3 0.7-0.5 0.7-0.4-0.1-0.5-0.5-0.5-0.7-0.1-1 0.3-1.8 0.4-2 0.1-0.2 0.2-0.1 0.1 0.1z"/>
		<path id="&lt;Path&gt;" class="s0" d="m53.1 10.6c0 0-0.1 0.3-0.2 0.5-0.3 0.9-0.1 1.4-0.1 1.5 0.3 0.5 0.6 0.2 0.8-0.2 0-0.1 0.1 0 0.1 0q0 0.1-0.1 0.3c-0.2 0.6-0.4 0.7-0.6 0.7-0.3 0-0.5-0.4-0.5-0.7-0.1-1 0.4-1.9 0.5-2.1 0.1-0.3 0.2-0.2 0.1 0z"/>
		<path id="&lt;Path&gt;" class="s0" d="m13 8.7c0 0-0.1 0.3-0.2 0.5-0.2 1 0 1.4 0 1.5 0.3 0.5 0.6 0.2 0.8-0.2 0-0.2 0.1-0.1 0.1 0q0 0.1-0.1 0.3c-0.1 0.6-0.4 0.7-0.5 0.8-0.4 0-0.6-0.5-0.6-0.7-0.1-1.1 0.3-2 0.4-2.2 0-0.3 0.1-0.2 0.1 0z"/>
		<path id="&lt;Path&gt;" class="s0" d="m11.1 7.8c0.1 0.2 0.1 0.6 0 0.9-0.1 0.2-0.2 0-0.3-0.1 0 0-0.2-0.1-0.3-0.2-0.5-0.4-0.7 0.4-0.7 0.9 0 0.3 0 1.2 0 1.8q0 0 0 0.1c-0.1 0.4-0.2 1.1-0.9 1.6-0.9 0.8-1 0.8-1.1 0.8-0.1 0.1-0.1 0 0-0.1 0.1-0.1 1.9-1.8 1.6-2.6-0.3-0.9-1-1.4-1.1-1.5-0.2-0.1-0.3 0-0.3 0.1 0 0.1-0.1 0.1-0.1 0.1-0.1-0.1-0.5-0.3-0.6-0.4-0.2-0.1-0.2-0.6-0.2-0.8 0-0.3 0.2-0.4 0.3-0.4 1.5 0.7 2 2 2.1 2.2 0-1 0-1.9 0.4-2.6 0.4-0.7 1.1 0.1 1.2 0.2z"/>
		<path id="&lt;Path&gt;" class="s0" d="m52.2 6.6c0 0.1-0.1 0.1-0.1 0.3-0.1 0.1-0.2 0.2-0.4 0.3-0.2 0.1-5.4 3.1-5.5 3.2-0.3 0.2-0.2 0.1-0.2-0.1q0 0 0.1-0.2c0-0.2 0.1-0.2 0.3-0.4 0.2-0.1 5.4-3.1 5.6-3.2 0.3-0.2 0.2-0.1 0.2 0.1z"/>
		<path id="&lt;Path&gt;" class="s0" d="m58.5 6.9c0.2 0.2 0.1 0.6 0 0.9-0.1 0.1-0.2 0-0.4-0.2 0 0-0.1-0.1-0.2-0.2-0.5-0.5-0.7 0.4-0.8 0.8 0 0.3-0.1 1.3-0.2 1.8 0 0.3-0.1 0.3-0.2 0.1-0.4-1.2-1.1-1.8-1.2-1.9-0.1-0.1-0.2 0-0.2 0.1 0 0.1-0.1 0.1-0.2 0.1 0-0.1-0.4-0.3-0.6-0.5-0.1-0.1 0-0.5 0-0.7 0-0.4 0.2-0.5 0.3-0.4 1.4 0.8 1.9 2.2 1.9 2.4 0.1-1.1 0.1-2 0.7-2.7 0.4-0.5 1.1 0.3 1.1 0.4z"/>
		<path id="&lt;Compound Path&gt;" fill-rule="evenodd" class="s0" d="m63.7 9.1c-0.1 0.1-0.1 0-0.2-0.1-0.1-0.1-0.2-0.3-0.4-0.4-0.3 0.5-0.2 0.6-1.1 1.3-1.9 1.7-4 2.2-4.1 2.3-0.2 0-0.2-0.1 0-0.2 0.7-0.5 3.4-1.8 4.8-3.5 0 0-0.4-0.2-0.7-0.4-0.3-0.2-0.2-1 0-1.3 0.6-0.8 1.1-0.4 1.1-0.3 0.5 0.8 0.3 1.6 0.3 1.6 0.2 0.2 0.5 0.5 0.3 1zm-0.9-2.1c-0.1 0-0.3-0.1-0.5 0.3-0.1 0.1 0 0.3 0.2 0.3 0.1 0.1 0.5 0.3 0.5 0.3 0-0.1 0.1-0.6-0.2-0.9z"/>
		<path id="&lt;Path&gt;" class="s0" d="m19.7 14.9c0 0-0.1 0.2-0.1 0.4-0.3 0.9-0.2 1.3-0.1 1.4 0.2 0.4 0.5 0.2 0.7-0.1 0-0.2 0.1-0.1 0.1 0q0 0-0.1 0.2c-0.1 0.6-0.4 0.7-0.6 0.7-0.3 0-0.4-0.4-0.5-0.7 0-0.9 0.4-1.8 0.5-2 0.1-0.2 0.2-0.1 0.1 0.1z"/>
		<path id="&lt;Path&gt;" class="s0" d="m29.2 15.1c0.5 0.1 0.4 0.3 0.3 0.5-0.5 0.6-1 0.9-1.4 1.1-0.4 0.2-0.2-0.1 0-0.3 0 0 0.2-0.2 0.6-0.4 0.4-0.3-0.6-0.3-1-0.3-0.4 0-0.5 0.2-0.7 0.3-0.1 0.2-0.3 0.1-0.1-0.1 0.1-0.2 0.2-0.4 0.5-0.7 0.3-0.3 1.2-0.2 1.8-0.1z"/>
		<path id="&lt;Path&gt;" class="s0" d="m23.4 11.7l1 0.8q0.1 0 0 0l-0.6 0.8q0 0.1 0 0.1l-1-0.8-0.5 0.7q-0.1 0.1-0.1 0.1l-1-0.8q0 0 0-0.1l0.6-0.8q0 0 0.1 0l0.9 0.7 0.5-0.7q0.1 0 0.1 0z"/>
		<path id="&lt;Path&gt;" class="s0" d="m31.7 11.7l1 0.7q0 0 0 0.1l-0.6 0.8q0 0-0.1 0l-1-0.7q0 0 0-0.1l0.6-0.8q0.1 0 0.1 0z"/>
		<path id="&lt;Path&gt;" class="s0" d="m26.7 9.1c0 0 0 0.2-0.1 0.4-0.3 0.9-0.1 1.3-0.1 1.4 0.2 0.4 0.6 0.2 0.7-0.1 0.1-0.2 0.1-0.1 0.1 0q0 0-0.1 0.2c-0.1 0.6-0.3 0.7-0.5 0.7-0.4 0-0.5-0.4-0.5-0.7-0.1-0.9 0.3-1.8 0.4-2 0.1-0.2 0.2-0.1 0.1 0.1z"/>
		<path id="&lt;Path&gt;" class="s0" d="m28.1 6.6c0 0.1 0 0.1-0.1 0.4-0.1 0.2-0.2 0.2-0.4 0.3-0.2 0.1-8.4 3.9-9.1 4.3-0.7 0.4-0.7 0.7-0.5 0.8 0.5 0.2 0.8 0.5 0.5 1.1 0 0-0.1 0.1-0.1 0-0.1-0.1-0.2-0.2-0.5-0.3-0.3 0-0.5-0.6-0.3-1.2 0.1-0.4 0.3-0.7 0.6-1 0.6-0.4 9.5-4.4 9.7-4.5 0.3-0.2 0.3-0.1 0.2 0.1z"/>
		<path id="&lt;Path&gt;" class="s0" d="m19.5 6.5c0 0-0.1 0.2-0.1 0.4-0.3 0.8-0.2 1.2-0.1 1.3 0.2 0.4 0.5 0.2 0.6-0.1 0.1-0.2 0.1-0.1 0.1 0q0 0.1 0 0.3c-0.2 0.5-0.4 0.6-0.6 0.6-0.3 0-0.4-0.4-0.4-0.6-0.1-1 0.3-1.7 0.4-2 0.1-0.2 0.2-0.1 0.1 0.1z"/>
		<path id="&lt;Compound Path&gt;" fill-rule="evenodd" class="s0" d="m33 9.4c-0.1 0.1-0.1 0-0.2-0.1-0.1-0.1-0.4-0.4-0.4-0.4 0 0-1.3 1.8-2.5 2.6-1.5 0.9-2.7 1.3-2.7 1.3-0.2 0-0.2-0.1 0-0.2 0.9-0.5 3.2-2.1 4.8-3.9 0 0-0.5-0.2-0.8-0.5-0.3-0.2-0.1-1 0.2-1.4 0.6-0.9 1.1-0.4 1.2-0.2 0.4 0.9 0.1 1.7 0.1 1.7 0.3 0.2 0.5 0.6 0.3 1.1zm-0.9-2.3c-0.1-0.1-0.2-0.1-0.5 0.3-0.1 0.1 0 0.3 0.1 0.4 0.2 0.1 0.7 0.3 0.7 0.3 0-0.1 0.1-0.7-0.3-1z"/>
		<path id="&lt;Compound Path&gt;" fill-rule="evenodd" class="s0" d="m37.1 18.7c-0.1 1.6-1.6 1.9-1.9 1.9-2.4 0.4-3-1.3-3.2-1.6-0.3 0.1-2 0.9-2.7 1.2-2.1 0.8-3.3 2.7-3.7 3.2-0.8 1.2-2 1.3-2.5 1.1-1.9-0.6-1.3-2.9-0.9-3.8-1.8 0.5-3 0.2-3.4 0.1-2.3-0.8-2.4-3.7-2.5-4.2-0.2-1.2-0.7-7.7-1.4-9.1-0.1-0.2 0.2-0.8 0.3-1.1 0.1-0.2 0.1-0.2 0.2 0 0.9 1.9 1.3 8.1 1.4 8.9 0.3 3.1 1.2 3.9 1.5 4.1 2.8 1.4 6.2-0.9 6.4-1.1 0.2-0.2 0.2-0.2 0.1-0.5-0.2-0.3-0.9-0.3-1.2-0.2-0.5 0.2-1.5 0.1-1.8-0.6-0.4-0.7 0-1.5 0.5-2.2 0.5-0.5 1.2-0.4 1.6-0.1 1.2 0.8 1.4 2.3 1.5 2.8 0 0 0 0.5 0 0.9-0.2 0.9-0.8 1.2-1.3 1.5q-0.8 0.4-1.5 0.6c0 0.3-0.1 0.6-0.3 1.1-0.7 2.7 1.3 2.6 2.4 1.5 0.4-0.4 1.4-1.9 2.3-2.6 1.3-1.1 3.7-1.9 4.6-2.5-0.6-2 0.1-3.1 0.4-3.4 0.4-0.4 1.4-0.7 1.9 1.3 0.3 2.1-0.9 2.6-1.2 2.8 0.9 1.6 3.6 0.5 3.9 0.1 0.2-0.2 0-0.7 0-0.9-0.1-0.5-1.9-10.4-1.9-10.6 0 0 0.3-0.9 0.4-1 0-0.1 0.1-0.1 0.1 0 0 0.2 1.3 3.1 1.3 3.3 0.1 0.1 0 0.2-0.1 0.1-0.1-0.1-0.7-0.7-0.7-0.7 0 0 0.9 4.8 1 5.3 0.6 2.5 0.5 4.1 0.4 4.4zm-13.1-2.3c-0.5-0.8-1.1-0.7-1.3-0.7-0.2 0.1-0.6 0.5-0.2 0.7 0.7 0.2 1.5 0 1.5 0zm8.2 1.3c0.2-0.1 1.5-0.6 1.2-1.3-0.1-0.2-0.7-1.2-1.1-0.8-0.4 0.3-0.6 0.6-0.5 1 0.2 0.7 0.4 1.1 0.4 1.1z"/>
		<path id="&lt;Path&gt;" class="s0" d="m38.5 6.3c0.1 0.1 1.3 3 1.4 3.2 0 0.2-0.1 0.2-0.2 0.1-0.1-0.1-0.7-0.7-0.7-0.7 0 0 1 7.2 1.1 7.6 0.6 4.2 0.1 5.4 0 5.6-0.1 0.1-0.2 0.1-0.2-0.1 0-1.8-1-8-1-8.4-0.1-0.4-0.7-5.9-0.8-6.5 0 0 0.3-0.8 0.3-0.9 0.1-0.1 0.1 0 0.1 0.1z"/>
		<path id="&lt;Compound Path&gt;" fill-rule="evenodd" class="s0" d="m44 8.8c0 0.1-0.1 0-0.2-0.1 0-0.1-0.4-0.3-0.4-0.3 0 0-0.4 0.9-1.1 1.4-1.3 1-2.4 1.1-2.5 1.2-0.1 0-0.1-0.1 0.1-0.2 0.8-0.5 1.8-0.9 3.2-2.6 0 0-0.5-0.2-0.8-0.4-0.3-0.2-0.1-1 0.1-1.3 0.5-0.8 1-0.4 1.1-0.3 0.5 0.8 0.2 1.6 0.2 1.6 0.3 0.2 0.5 0.5 0.3 1zm-0.9-2.1c-0.1 0-0.2 0-0.5 0.3-0.1 0.2 0 0.3 0.2 0.4 0.2 0 0.6 0.2 0.6 0.2 0-0.1 0-0.6-0.3-0.9z"/>
	</g>
</svg>