<svg version="1.2" xmlns="http://www.w3.org/2000/svg" viewBox="0 0 70 30" width="70" height="30">
	<title>New Project</title>
	<style>
		.s0 { fill: #191c4f } 
	</style>
	<g id="الشعراء">
		<path id="&lt;Path&gt;" class="s0" d="m30.7 21c0 0 0 0.3 0 0.5 0 0.2-0.1 0.6-0.2 0.9-0.1 0.3-0.8 0.5-1.3 0.2-0.7 1.2-1.4 0.5-1.8 0.4-0.7-0.3-0.9 0.2-1.1 0.4-0.9 1-2.5 0.9-2.9 1-0.3 0 0-0.2 0.1-0.3 1.3-0.4 2.1-0.5 3.2-1.6 0.5-0.5 0.8-0.2 1-0.2 1 0.5 1.2 0 1.3-0.1 0.2-0.1 0.4-0.7 0.4-0.8 0.1-0.2 0.2-0.1 0.2 0.1 0 0.1-0.1 0.3-0.1 0.4 0.4 0.3 0.8 0 0.9-0.1 0 0 0-0.3 0-0.4q0-0.2 0.1-0.6c0.1-0.3 0.2 0 0.2 0.2z"/>
		<path id="&lt;Path&gt;" class="s0" d="m18.5 20.8c0 0-0.1 0.4-0.2 0.6-0.3 1.3 0 1.8 0 1.9 0.4 0.6 0.8 0.3 0.9-0.2 0-0.2 0.1-0.1 0.1 0q0 0.1 0 0.4c-0.2 0.7-0.5 0.9-0.7 0.9-0.4 0.1-0.6-0.5-0.7-0.8-0.1-1.4 0.3-2.5 0.4-2.8 0.1-0.4 0.2-0.2 0.2 0z"/>
		<path id="&lt;Path&gt;" class="s0" d="m64 20.2c0 0 0 0.3 0 0.5 0 0.3-0.1 0.6-0.2 0.9-0.1 0.4-0.8 0.5-1.3 0.2-0.7 1.2-1.4 0.6-1.8 0.4-0.7-0.3-0.9 0.2-1.1 0.4-0.9 1-2.5 1-2.8 1-0.4 0-0.1-0.2 0-0.3 1.3-0.4 2.1-0.5 3.2-1.6 0.5-0.5 0.8-0.2 1-0.2 1.1 0.5 1.2 0.1 1.3-0.1 0.2-0.1 0.4-0.7 0.5-0.8 0-0.2 0.1-0.1 0.1 0.1 0 0.1-0.1 0.3-0.1 0.4 0.4 0.3 0.9 0 1-0.1 0 0-0.1-0.3-0.1-0.4q0-0.2 0.1-0.6c0.1-0.2 0.2 0 0.2 0.2z"/>
		<path id="&lt;Path&gt;" class="s0" d="m35.9 20.1c0 0-0.1 0.2-0.2 0.4-0.3 0.9-0.1 1.3-0.1 1.4 0.3 0.5 0.6 0.2 0.7-0.1 0.1-0.2 0.1-0.1 0.1 0q0 0.1 0 0.3c-0.2 0.5-0.4 0.6-0.6 0.6-0.3 0-0.5-0.4-0.5-0.6-0.1-1 0.3-1.8 0.4-2.1 0.1-0.2 0.2-0.1 0.2 0.1z"/>
		<path id="&lt;Path&gt;" class="s0" d="m8.9 19c0 0.2-0.1 0.2-0.1 0.4-0.1 0.1-0.2 0.2-0.4 0.3-0.2 0.1-2.9 1.3-3 1.3-0.3 0.2-0.3 0.1-0.2 0q0-0.1 0-0.3c0.1-0.2 0.2-0.2 0.4-0.4 0.2-0.1 2.9-1.2 3.1-1.3 0.3-0.2 0.3-0.1 0.2 0z"/>
		<path id="&lt;Path&gt;" class="s0" d="m8.1 15c0.1 0.1 0 0.3 0 0.4-0.1 0.1-0.3 0.4-0.4 0.5q-0.2 0.1-0.2 0c-0.3-0.4-0.6-0.3-1-0.1-0.3 0.2-0.3 0.4-0.2 0.6 0.1 0.1 0.6 0.5 1 0.6 0.4 0.1 1.4-0.2 1.7-0.4 0.4-0.2 0.2 0.2 0.1 0.3 0 0-0.3 0.5-0.5 0.5-1.8 0.4-2.5 1-2.8 1.2-0.2 0.2-0.2 0-0.2-0.1 0.1-0.1 0.1-0.2 0.2-0.4q0.2-0.3 0.4-0.4 0 0-0.5-0.4c-0.6-0.6 0.8-2 1.3-2.4 0.6-0.5 1 0 1.1 0.1z"/>
		<path id="&lt;Path&gt;" class="s0" d="m14.3 14.4c0 0-0.1 0.3-0.2 0.5-0.2 1.1 0 1.5 0 1.7 0.3 0.5 0.7 0.2 0.8-0.2 0-0.2 0.1-0.1 0.1 0q0 0-0.1 0.3c-0.1 0.6-0.3 0.8-0.5 0.8-0.4 0-0.6-0.5-0.6-0.8-0.1-1.1 0.3-2.1 0.3-2.4 0.1-0.3 0.2-0.2 0.2 0.1z"/>
		<path id="&lt;Path&gt;" class="s0" d="m29.9 13.6l1 0.8q0.1 0 0 0.1l-0.6 0.8q0 0.1-0.1 0.1l-1-0.8-0.5 0.7q-0.1 0.1-0.1 0.1l-1.1-0.8q0 0 0-0.1l0.6-0.8q0.1-0.1 0.1-0.1l1 0.8 0.6-0.7q0-0.1 0.1-0.1z"/>
		<path id="&lt;Compound Path&gt;" fill-rule="evenodd" class="s0" d="m44.5 18.7c-0.4 1.1-1.8 1.6-2.2 1.7-1.3 0.5-1.4-0.9-1.3-1.8 0.1-1 0.8-2.2 0.8-2.2-0.1 0-1.5-1.1-1.6-1.3-0.1-0.1-0.2-0.2-0.4-0.3-0.1-0.1-0.1-0.1-0.1-0.1 0 0 0-1 0-1.1 0.1-0.2 0.1-0.1 0.2-0.1 0.1 0.1 1.6 0.7 1.8 0.8 0.1 0 0.1 0.2 0 0.2-0.1 0-0.6 0.1-0.6 0.1l1.3 0.9c0 0 1.7-2.2 1.8-2.4 0.2-0.3 0.2-0.1 0.2 0.1-0.1 0.2-0.4 1.2-0.5 1.3-0.1 0.2-1 1.4-1 1.4 0 0 1.2 0.7 1.5 1.1 0.5 0.7 0.2 1.4 0.1 1.7zm-2.2-2c0 0-0.8 1.4-0.9 1.6-0.3 0.8 0.4 0.9 0.7 0.9 0.3 0 1.3-0.6 1.8-1 0.5-0.4-1.3-1.3-1.6-1.5z"/>
		<path id="&lt;Path&gt;" class="s0" d="m28.9 12l1.1 0.7q0 0.1 0 0.1l-0.6 0.9q-0.1 0-0.1 0l-1.1-0.8q0 0 0-0.1l0.6-0.8q0.1-0.1 0.1 0z"/>
		<path id="&lt;Compound Path&gt;" fill-rule="evenodd" class="s0" d="m65.6 17.5c-0.1 0.2-0.3 1.2-1.7 0.9-0.4 0-1.1-0.2-1.4-1-0.3 0.5-1.1 1.8-2.8 1.6-0.3-0.1-1.4-0.5-1.5-1.9 0 0-1.3 1.1-1.9 1.4 0.1 0.5 0 1.1-0.2 1.7-0.2 0.6-3.1 3.8-5.4 4.3-0.8 0.2-3.7 0.8-3.8-2.5 0-0.7 0-1.2 0.1-1.6-1.8 1.4-4 2.5-4.7 2.8-0.9 0.5-4.3 1-4.9 1.1-0.4 0.1-0.5 0-0.2-0.2 0.2-0.1 7.7-2.6 11.6-6.7 0.1-0.1 0.1-0.3-0.1-0.5-0.1-0.2-1.3-2.5-1.4-2.8-0.1-0.3-0.3-0.7-0.3-0.8q-0.1-0.2-0.1-0.4c0.1-0.1 0.2-0.7 0.2-0.9 0-0.1 0.1-0.1 0.2 0 0.1 0.1 1.3 1.4 1.4 1.5 0.2 0.2 0 0.2 0 0.2-0.1 0-0.6 0-0.6 0 0 0 0.7 1.4 1 1.9 0.5 1.1 0.2 2 0.1 2.4-0.4 0.7-1.1 1.4-1.8 2-0.2 0.6-0.4 3.3 2.1 3.4 0.4 0 1.7 0.2 4.2-1.9 0.6-0.5 1.3-1.1 1.9-1.9 0.2-0.3 0.3-0.8-0.1-0.8-0.4 0.1-3 1-3.4-0.6-0.1-0.4 0.1-4.2 2.7-2.3 0.2 0.2 0.8 0.6 1.2 1.4 0.4-0.2 1.2-0.7 2.2-1.5 0.3-0.2 0.6-0.4 0.5 0 0 0.3-0.2 2.5 2.2 1.9 0.3-0.1 1.3-0.3 2-2.2 0.2-0.4 0.5-0.4 0.3 0-0.1 0.5-0.4 0.9-0.2 1.1 0.3 0.2 0.9 0.7 1.8 0.6 0.3 0 0.4-0.2 0.3-0.4-0.1-0.2-0.4-0.7-0.4-0.7 0.1-0.3 0.2-0.8 0.3-0.9 0-0.2 0-0.3 0.1-0.2 0.1 0.1 0.9 1.2 0.5 2.5zm-10.8 0.1c-0.8-1.1-1.8-0.5-1.9-0.3-0.2 0.1-0.2 0.4 0.6 0.4 1 0.1 1.3-0.1 1.3-0.1z"/>
		<path id="&lt;Path&gt;" class="s0" d="m23.4 11c0 0-0.1 0.3-0.2 0.6-0.3 1.2 0 1.7 0 1.8 0.3 0.6 0.7 0.2 0.8-0.2 0.1-0.2 0.2-0.1 0.1 0q0 0.1 0 0.3c-0.1 0.7-0.4 0.9-0.6 0.9-0.4 0-0.6-0.5-0.6-0.8-0.2-1.3 0.2-2.4 0.3-2.7 0.1-0.3 0.2-0.2 0.2 0.1z"/>
		<path id="&lt;Path&gt;" class="s0" d="m41.4 10.7l1 0.7 0.5-0.7q0.1-0.1 0.1 0l1.1 0.7q0 0.1 0 0.1l-0.6 0.9q-0.1 0-0.1 0l-1-0.8-0.6 0.8q0 0-0.1 0l-1-0.8q-0.1 0 0-0.1l0.6-0.8q0-0.1 0.1 0z"/>
		<path id="&lt;Path&gt;" class="s0" d="m62.9 10.7c0 0-0.1 0.3-0.2 0.5-0.3 0.9-0.1 1.3-0.1 1.4 0.3 0.5 0.6 0.2 0.8-0.1 0-0.2 0.1-0.1 0.1 0q-0.1 0.1-0.1 0.3c-0.2 0.5-0.4 0.7-0.6 0.7-0.3 0-0.5-0.5-0.5-0.7-0.1-1 0.4-1.9 0.5-2.1 0.1-0.3 0.1-0.2 0.1 0z"/>
		<path id="&lt;Path&gt;" class="s0" d="m52.3 10.2c0 0-0.1 0.3-0.1 0.5-0.4 1-0.2 1.4-0.2 1.5 0.3 0.5 0.7 0.3 0.8-0.1 0.1-0.2 0.2-0.1 0.2 0q-0.1 0.1-0.1 0.3c-0.2 0.6-0.4 0.7-0.6 0.8-0.4-0.1-0.6-0.6-0.6-0.8-0.1-1.1 0.4-2 0.5-2.3 0.1-0.3 0.2-0.1 0.1 0.1z"/>
		<path id="&lt;Path&gt;" class="s0" d="m29.6 8.6c0 0 0.1 0.6 0.3 0.9 0.1 0.2 0.3 0.5 0.2 1-0.1 0.4-0.3 0.7-0.5 0.8-0.3 0.1-0.7 0.1-1-0.4-0.4 0.8-1 0.9-1.3 0.8-0.4-0.2-0.4-0.8-0.4-1 0-0.2 0-0.8 0-0.9 0-0.2 0-0.3 0.1-0.4 0.1-0.2 0.2-0.1 0.2 0.1 0 0.2-0.1 1 0 1.3 0.4 0.5 1.1 0 1.2-0.2 0.1-0.2-0.2-1.1-0.2-1.2q0-0.1 0-0.1c0-0.1 0-0.3 0.1-0.5q0.1-0.2 0.2 0c0 0.2 0 0.4 0.2 1.2 0.1 0.8 0.9 0.6 1 0.6 0.2-0.1 0.2-0.2 0.1-0.3 0-0.1-0.3-0.7-0.4-1-0.1-0.3-0.1-0.5 0-0.8 0.1-0.2 0.1 0 0.2 0.1z"/>
		<path id="&lt;Path&gt;" class="s0" d="m8.8 8.3c0.1 0.2 0 0.6 0 0.9-0.1 0.1-0.2 0-0.3-0.1 0 0-0.2-0.1-0.3-0.2-0.5-0.4-0.6 0.4-0.7 0.8 0 0.3 0.1 1.2 0 1.8q0 0 0 0c0 0.5-0.1 1.1-0.8 1.6-0.9 0.7-1 0.7-1 0.8-0.1 0-0.2 0 0-0.2 0.1-0.1 1.7-1.7 1.5-2.4-0.3-0.8-1-1.4-1.1-1.5-0.2-0.1-0.2 0.1-0.2 0.2-0.1 0.1-0.1 0.1-0.2 0-0.1 0-0.4-0.2-0.6-0.3-0.1-0.1-0.1-0.6-0.1-0.8 0-0.3 0.2-0.4 0.3-0.3 1.4 0.6 1.9 1.9 2 2.1-0.1-1-0.1-1.9 0.4-2.6 0.3-0.6 1 0.2 1.1 0.2z"/>
		<path id="&lt;Path&gt;" class="s0" d="m25.1 6.9c-0.1 0.1-0.1 0.1-0.2 0.4-0.1 0.2-0.2 0.2-0.4 0.4-0.3 0.2-10.4 5.6-10.5 5.7-0.4 0.2-0.4 0.1-0.3-0.1q0 0 0.1-0.3c0-0.2 0.1-0.3 0.4-0.5 0.3-0.1 10.3-5.6 10.6-5.7 0.4-0.3 0.3-0.1 0.3 0.1z"/>
		<path id="&lt;Path&gt;" class="s0" d="m10.2 6.3c0 0.1 1.3 3.2 1.4 3.3 0 0.2-0.1 0.3-0.2 0.2-0.1-0.1-0.7-0.7-0.7-0.7 0 0 1.1 5 1.1 5.4 0.7 4.4 0.1 5.6 0.1 5.8-0.1 0.1-0.2 0.1-0.2-0.1 0.2-2.3-1.1-8.3-1.2-8.7 0-0.4-0.8-3.7-0.8-4.2 0 0 0.3-0.9 0.4-1 0-0.2 0.1-0.1 0.1 0z"/>
		<path id="&lt;Path&gt;" class="s0" d="m18.6 6.3c0 0.2-0.1 0.2-0.1 0.4-0.1 0.3-0.2 0.3-0.4 0.5-0.3 0.1-5.7 3.1-5.8 3.1-0.4 0.3-0.4 0.1-0.3 0q0-0.1 0-0.4c0.1-0.2 0.1-0.2 0.4-0.4 0.3-0.1 5.6-3.1 5.9-3.2 0.4-0.2 0.3-0.1 0.3 0z"/>
		<path id="&lt;Path&gt;" class="s0" d="m51.4 5.8c-0.1 0.2-0.1 0.2-0.1 0.4-0.1 0.2-0.2 0.2-0.4 0.3-0.2 0.1-5.7 3.3-5.8 3.4-0.4 0.2-0.3 0.1-0.3 0q0-0.1 0.1-0.3c0-0.2 0.1-0.2 0.3-0.4 0.2-0.1 5.7-3.3 5.9-3.4 0.4-0.2 0.3-0.1 0.3 0z"/>
		<path id="&lt;Path&gt;" class="s0" d="m58.1 6.2c0.1 0.2 0 0.7-0.1 0.9 0 0.2-0.2 0-0.3-0.1 0 0-0.1-0.2-0.3-0.3-0.5-0.5-0.7 0.5-0.8 0.9-0.1 0.3-0.1 1.3-0.2 1.9 0 0.3-0.2 0.3-0.3 0.1-0.3-1.3-1.1-1.9-1.2-2-0.1-0.2-0.2 0-0.2 0.1-0.1 0.1-0.1 0.1-0.2 0.1-0.1-0.1-0.5-0.3-0.6-0.5-0.2-0.1-0.1-0.6-0.1-0.8 0-0.4 0.2-0.5 0.3-0.4 1.5 0.8 2 2.3 2.1 2.5 0.1-1.1 0.1-2 0.7-2.8 0.5-0.6 1.2 0.3 1.2 0.4z"/>
		<path id="&lt;Compound Path&gt;" fill-rule="evenodd" class="s0" d="m63.6 8.5c-0.1 0.2-0.2 0.1-0.3-0.1 0-0.1-0.2-0.2-0.4-0.3-0.2 0.4-0.2 0.5-1.1 1.3-2.1 1.7-4.3 2.4-4.4 2.4-0.1 0-0.2-0.1 0-0.2 0.7-0.6 3.7-1.9 5.1-3.7 0 0-0.4-0.2-0.7-0.4-0.4-0.2-0.2-1.1 0-1.4 0.6-0.9 1.1-0.4 1.2-0.3 0.5 0.9 0.2 1.7 0.2 1.7 0.3 0.2 0.6 0.5 0.4 1zm-1-2.2c-0.1 0-0.3 0-0.6 0.4 0 0.1 0.1 0.2 0.3 0.3 0.1 0.1 0.6 0.3 0.6 0.3 0-0.1 0-0.6-0.3-1z"/>
		<path id="&lt;Compound Path&gt;" fill-rule="evenodd" class="s0" d="m42.7 8.2c0 0.2-0.1 0.1-0.2-0.1-0.1 0-0.4-0.3-0.4-0.3 0 0-0.5 0.9-1.2 1.5-1.4 1-2.6 1.2-2.6 1.2-0.2 0-0.2-0.1 0-0.2 0.9-0.5 1.9-0.9 3.4-2.7 0 0-0.5-0.2-0.8-0.4-0.3-0.2-0.1-1.1 0.1-1.4 0.6-0.9 1.1-0.4 1.1-0.3 0.5 0.8 0.3 1.7 0.3 1.7 0.2 0.2 0.5 0.5 0.3 1zm-0.9-2.2c-0.1 0-0.3 0-0.6 0.4-0.1 0.1 0 0.2 0.2 0.3 0.2 0.1 0.6 0.3 0.6 0.3 0.1-0.1 0.1-0.7-0.2-1z"/>
		<path id="&lt;Compound Path&gt;" fill-rule="evenodd" class="s0" d="m34.4 19.8c-1.5 0.6-2.1-0.3-2.4-0.6-0.6 1.2-1.2 1.2-1.4 1.2-1 0-1.2-0.6-1.3-0.8-0.3 0.3-0.9 0.8-1.2 0.9-0.4 0.1-1.7 0.5-2.3-1-1.1 1.3-2.1 1.3-2.5 1.3-1.9 0-2.9-1.4-3.4-1.9-5.2 1.7-6.7 4-7.4 4.7-1.5 1.7-2.7 1.4-3.3 0.8-1.9-2 0.3-5 0.8-5.6 0.4-0.6 0.6-0.2 0.3 0.2-0.3 0.4-1.2 2.1-1.3 2.6-0.5 2.4 1.1 2.3 1.7 2.1 0.5-0.2 3.1-3 4.2-3.8 1.7-1.2 3.8-1.8 4.1-1.9-1.5-1.5-2.6-0.6-2.7-0.5-0.2 0.1-0.3 0.1-0.3-0.1 0.1-0.7 0.4-1.1 0.6-1.2 3.5-2 6.8 0.1 6.9 0.2 0 0.1-0.4 0.9-0.4 1-1.1 0.4-1.9 0.8-2.1 1 2.7 2.9 5.1-0.3 5.3-0.5 0.1-0.1 0.2 0.1 0.2 0.2q-0.1 0.2-0.2 0.5c0.6 1 1.4 1 2.1 0.7 0.6-0.3 1.1-1.1 1.3-1.4 0.2-0.3 0.3 0 0.3 0.1-0.1 0.1-0.1 0.3-0.2 0.6-0.1 0.2 0.5 0.6 0.9 0.6 0.9 0.1 1.2-1.4 1.4-1.6 0.1-0.3 0.2-0.1 0.2 0 0 0.1 0 0.2 0 0.3 0.6 1.1 1.6 0.9 1.9 0.8 0.3 0 0.2-0.4 0.1-0.8 0-0.3-1.1-8.3-1.5-10.8-0.1-0.4-0.3-0.5-0.3-0.7 0 0 0.5-1.1 0.5-1.3 0.1-0.1 0.1 0 0.1 0.1 0.1 0.1 1.4 3.2 1.4 3.4 0.1 0.2 0 0.2-0.1 0.1-0.1-0.1-0.8-0.7-0.8-0.7 0 0 1.3 8.8 1.4 9.3 0.1 2-0.4 2.5-0.6 2.5zm-12.8-2.9c-0.3-0.2-1.4-0.7-2.7-0.3 0.4 0.3 1.2 1 1.2 1 0.5-0.3 1.5-0.7 1.5-0.7z"/>
		<path id="&lt;Path&gt;" class="s0" d="m36.3 5.2c0 0.1 1.3 3.1 1.3 3.3 0.1 0.2 0 0.2-0.1 0.1-0.1-0.1-0.8-0.7-0.8-0.7 0 0 1.1 7.5 1.2 7.8 0.7 4.5 0.1 5.7 0 5.8-0.1 0.2-0.2 0.1-0.2 0 0-1.8-1-8.4-1.1-8.7 0-0.4-0.8-6.2-0.8-6.7 0 0 0.3-0.9 0.3-1 0.1-0.1 0.1 0 0.2 0.1z"/>
		<path id="&lt;Compound Path&gt;" fill-rule="evenodd" class="s0" d="m29.1 7.8c0 0.1-0.1 0-0.2-0.1 0-0.1-0.3-0.4-0.3-0.4 0 0-1.1 1.6-2.2 2.3-1.4 0.8-2.4 1.2-2.5 1.2-0.1 0-0.2-0.1 0.1-0.2 0.8-0.4 2.8-1.9 4.3-3.4 0 0-0.5-0.2-0.7-0.5-0.3-0.2-0.1-0.9 0.1-1.2 0.6-0.8 1-0.4 1.1-0.2 0.4 0.8 0.1 1.5 0.1 1.5 0.2 0.2 0.5 0.5 0.2 1zm-0.7-2.1c-0.1-0.1-0.2-0.1-0.5 0.3-0.1 0.1 0 0.2 0.2 0.3 0.1 0.1 0.5 0.3 0.5 0.3 0-0.1 0.1-0.6-0.2-0.9z"/>
	</g>
</svg>