<svg version="1.2" xmlns="http://www.w3.org/2000/svg" viewBox="0 0 70 30" width="70" height="30">
	<title>New Project</title>
	<style>
		.s0 { fill: #191c4f } 
	</style>
	<g id="النمل">
		<path id="&lt;Path&gt;" class="s0" d="m15.1 23c-0.1 0.1-0.1 0.2-0.2 0.4 0 0.2-0.1 0.2-0.3 0.4-0.3 0.1-4 2-4.2 2.1-0.3 0.2-0.3 0.1-0.3-0.1q0 0 0.1-0.3c0-0.2 0.1-0.2 0.3-0.4 0.3-0.1 4.1-2 4.3-2.1 0.3-0.2 0.3-0.1 0.3 0z"/>
		<path id="&lt;Path&gt;" class="s0" d="m29.4 22.5c0.3 0.1 0.3 0.6 0.2 0.8-0.3 1-1 1.7-1.2 1.9-0.1 0.2-0.2 0 0-0.1 0 0 0.1-0.3 0.3-0.4 0.6-0.8 0.6-1.2 0.6-1.3-0.1-0.6-0.5-0.4-0.8-0.2-0.1 0.2-0.1 0.1-0.1 0q0.1-0.1 0.2-0.2c0.3-0.5 0.6-0.5 0.8-0.5z"/>
		<path id="&lt;Path&gt;" class="s0" d="m35.7 21.6c0.3 0.1 0.3 0.6 0.3 0.8-0.3 1-1 1.6-1.2 1.8-0.2 0.2-0.2 0.1-0.1-0.1 0 0 0.2-0.2 0.3-0.4 0.6-0.7 0.6-1.2 0.6-1.3-0.1-0.5-0.5-0.4-0.7-0.1-0.2 0.1-0.2 0-0.1 0q0-0.1 0.1-0.3c0.4-0.5 0.6-0.5 0.8-0.4z"/>
		<path id="&lt;Path&gt;" class="s0" d="m64 20.9c0 0 0 0.3 0 0.5 0 0.3-0.1 0.6-0.3 1-0.1 0.3-0.8 0.4-1.3 0.1-0.8 1.3-1.5 0.6-1.9 0.5-0.7-0.3-0.9 0.2-1.1 0.4-0.9 1-2.6 1-3 1-0.4 0 0-0.2 0.1-0.3 1.3-0.4 2.1-0.5 3.3-1.6 0.5-0.5 0.9-0.3 1-0.2 1.1 0.5 1.3 0 1.4-0.1 0.2-0.2 0.4-0.7 0.4-0.9 0.1-0.2 0.2-0.1 0.2 0.1 0 0.1-0.1 0.3-0.1 0.4 0.4 0.3 0.9 0.1 1 0 0 0 0-0.4-0.1-0.5q0-0.2 0.2-0.6c0.1-0.3 0.1 0 0.2 0.2z"/>
		<path id="&lt;Compound Path&gt;" fill-rule="evenodd" class="s0" d="m43.7 19.4c-0.3 1-1.9 1.6-2.2 1.7-1.4 0.5-1.5-0.9-1.4-1.9 0.1-1 0.8-2.2 0.8-2.2-0.1-0.1-1.5-1.2-1.6-1.3-0.1-0.2-0.3-0.3-0.4-0.4-0.1-0.1-0.1-0.1-0.1-0.1 0 0 0-1.1 0-1.2 0-0.1 0.1-0.1 0.2 0 0.1 0 1.7 0.7 1.8 0.7 0.2 0.1 0.1 0.2 0.1 0.3-0.1 0-0.7 0.1-0.7 0.1l1.3 0.9c0 0 1.8-2.3 2-2.5 0.1-0.2 0.1-0.1 0.1 0.1 0 0.3-0.4 1.3-0.5 1.4-0.1 0.2-1 1.4-1 1.4 0 0 1.2 0.7 1.5 1.2 0.5 0.7 0.2 1.4 0.1 1.8zm-2.2-2.1c0 0-0.8 1.4-1 1.6-0.3 0.8 0.5 1 0.8 1 0.3-0.1 1.4-0.6 1.9-1 0.5-0.5-1.4-1.4-1.7-1.6z"/>
		<path id="&lt;Compound Path&gt;" fill-rule="evenodd" class="s0" d="m65.6 18.1c-0.1 0.2-0.4 1.2-1.8 1-0.4-0.1-1.1-0.3-1.4-1.1-0.4 0.5-1.2 1.9-2.9 1.6-0.3 0-1.5-0.5-1.5-1.9 0 0-1.4 1.1-2 1.4 0 0.5 0 1.1-0.2 1.8-0.3 0.7-3.2 4-5.6 4.5-0.8 0.2-3.9 0.7-4-2.7q0-1 0.1-1.6c-1.9 1.5-4.2 2.6-4.8 2.9-1 0.5-4.5 1-5.1 1.2-0.4 0-0.5-0.1-0.2-0.2 0.2-0.2 7.9-2.8 12-7q0.1-0.2-0.1-0.5c-0.1-0.2-1.3-2.6-1.4-3-0.2-0.3-0.3-0.7-0.4-0.8q-0.1-0.2 0-0.4c0-0.1 0.1-0.7 0.1-0.9 0.1-0.1 0.1-0.1 0.2 0 0.1 0.1 1.4 1.4 1.5 1.6 0.2 0.1 0 0.2 0 0.2-0.1 0-0.7 0-0.7 0 0 0 0.8 1.4 1.1 1.9 0.5 1.2 0.2 2.1 0.1 2.5-0.4 0.8-1.1 1.5-1.9 2.1-0.1 0.6-0.4 3.4 2.2 3.5 0.4 0 1.8 0.2 4.4-2 0.6-0.5 1.3-1.1 1.9-1.9 0.3-0.3 0.4-0.9 0-0.8-0.5 0-3.2 1-3.6-0.7-0.1-0.4 0.1-4.3 2.8-2.4 0.3 0.2 0.8 0.7 1.2 1.4 0.5-0.2 1.3-0.6 2.3-1.5 0.3-0.2 0.6-0.4 0.6 0 0 0.4-0.2 2.6 2.2 2 0.3-0.1 1.4-0.3 2.1-2.3 0.2-0.4 0.5-0.4 0.4 0-0.2 0.5-0.5 0.9-0.3 1.2 0.3 0.2 1 0.7 1.9 0.6 0.3-0.1 0.4-0.2 0.3-0.4-0.1-0.3-0.4-0.8-0.4-0.8 0.1-0.3 0.2-0.8 0.2-0.9 0.1-0.2 0.1-0.3 0.2-0.2 0.1 0.2 0.9 1.2 0.5 2.6zm-11.2 0.1c-0.8-1.2-1.9-0.5-2-0.4-0.1 0.2-0.2 0.5 0.7 0.6 1 0 1.3-0.2 1.3-0.2z"/>
		<path id="&lt;Path&gt;" class="s0" d="m42.2 11l1.1 0.8q0 0.1 0 0.1l-0.6 0.9q-0.1 0-0.1 0l-1.1-0.8-0.5 0.8q-0.1 0-0.1 0l-1.1-0.8q-0.1 0 0-0.1l0.6-0.9q0 0 0.1 0l1.1 0.8 0.5-0.8q0.1 0 0.1 0z"/>
		<path id="&lt;Path&gt;" class="s0" d="m10.8 13.9c0 0-0.2 0.6-0.3 1-0.6 1.8-0.3 2.7-0.2 2.9 0.4 1 1 0.5 1.3-0.2 0.1-0.4 0.2-0.2 0.1 0q0 0.1-0.1 0.5c-0.3 1.2-0.7 1.4-1 1.4-0.7 0-0.9-0.9-0.9-1.4-0.1-2.1 0.7-3.8 0.9-4.3 0.2-0.5 0.3-0.3 0.2 0.1z"/>
		<path id="&lt;Path&gt;" class="s0" d="m62.8 11.1c0 0-0.1 0.3-0.2 0.4-0.3 1-0.1 1.5-0.1 1.5 0.3 0.5 0.6 0.3 0.8-0.1 0-0.2 0.1-0.1 0.1 0q0 0.1-0.1 0.3c-0.2 0.6-0.4 0.7-0.6 0.7-0.3 0-0.5-0.5-0.5-0.7-0.1-1 0.3-1.9 0.5-2.2 0.1-0.2 0.1-0.1 0.1 0.1z"/>
		<path id="&lt;Path&gt;" class="s0" d="m51.8 10.5c0 0 0 0.3-0.1 0.5-0.4 1.1-0.2 1.5-0.1 1.6 0.3 0.6 0.6 0.3 0.8-0.1 0.1-0.2 0.1-0.1 0.1 0q0 0.1-0.1 0.3c-0.2 0.6-0.4 0.8-0.6 0.8-0.4 0-0.6-0.5-0.6-0.8-0.1-1.1 0.4-2.1 0.5-2.4 0.1-0.2 0.2-0.1 0.1 0.1z"/>
		<path id="&lt;Path&gt;" class="s0" d="m11.1 6.9c0.1 0.2 0.1 0.7 0 1-0.1 0.1-0.2 0-0.4-0.2 0 0-0.1-0.1-0.3-0.2-0.6-0.5-0.7 0.5-0.7 0.9-0.1 0.4 0 1.5-0.1 2.1q0 0 0 0.1c-0.1 0.5-0.2 1.1-1 1.8-1 0.8-1.1 0.8-1.2 0.8-0.1 0.1-0.2 0 0-0.2 0.1 0 2.1-1.9 1.8-2.7-0.3-1-1.1-1.7-1.3-1.7-0.1-0.2-0.2 0-0.2 0.1 0 0.1-0.1 0.1-0.2 0.1 0-0.1-0.5-0.3-0.6-0.5-0.2-0.1-0.2-0.6-0.2-0.8 0-0.4 0.2-0.5 0.4-0.4 1.5 0.7 2.1 2.2 2.2 2.4 0-1.1 0-2.1 0.5-2.9 0.5-0.7 1.2 0.2 1.3 0.3z"/>
		<path id="&lt;Path&gt;" class="s0" d="m25.5 15.3c0 0-0.1 0.3-0.2 0.6-0.4 1.2-0.1 1.7-0.1 1.9 0.4 0.5 0.9 0.2 1.1-0.3 0-0.2 0.1-0.1 0.1 0q0 0.1 0 0.4c-0.2 0.7-0.6 0.9-0.8 0.9-0.5 0.1-0.8-0.5-0.8-0.8-0.2-1.3 0.4-2.5 0.5-2.8 0.1-0.3 0.2-0.2 0.2 0.1z"/>
		<path id="&lt;Path&gt;" class="s0" d="m28.8 14.6l1.1 0.8q0 0.1 0 0.1l-0.7 0.9q0 0.1 0 0l-1.1-0.8q-0.1 0 0-0.1l0.6-0.8q0-0.1 0.1-0.1z"/>
		<path id="&lt;Path&gt;" class="s0" d="m22.5 14.7c0.8 0.1 0.6 0.4 0.4 0.6-0.5 0.8-1.2 1.2-1.7 1.4-0.6 0.2-0.3-0.2 0-0.4 0 0 0.3-0.2 0.8-0.5 0.4-0.4-0.8-0.3-1.3-0.3-0.5 0-0.7 0.1-0.8 0.3-0.2 0.2-0.4 0.1-0.2-0.1 0.1-0.2 0.2-0.5 0.6-0.9 0.3-0.4 1.5-0.2 2.2-0.1z"/>
		<path id="&lt;Path&gt;" class="s0" d="m29.1 10.3c0 0 0.2 0.6 0.4 0.9 0.1 0.2 0.2 0.5 0.1 1 0 0.5-0.3 0.8-0.5 0.9-0.3 0.1-0.7 0.1-1.1-0.4-0.4 0.8-0.9 0.9-1.3 0.8-0.3-0.2-0.4-0.8-0.3-1 0-0.2-0.1-0.8-0.1-1 0-0.1 0.1-0.2 0.2-0.4 0.1-0.2 0.1-0.1 0.1 0.1 0 0.2-0.1 1 0.1 1.4 0.3 0.5 1 0 1.2-0.2 0.1-0.3-0.2-1.2-0.2-1.3q-0.1 0 0-0.1c0-0.1 0-0.3 0.1-0.5q0-0.2 0.2 0c0 0.2 0 0.4 0.2 1.2 0.1 0.9 0.9 0.7 1.1 0.6 0.1 0 0.1-0.2 0.1-0.2-0.1-0.1-0.4-0.8-0.5-1.1-0.1-0.3-0.1-0.5 0-0.8 0.1-0.3 0.2-0.1 0.2 0.1z"/>
		<path id="&lt;Path&gt;" class="s0" d="m20.5 6.6c0.1 0.2 0 0.7-0.1 0.9-0.1 0.2-0.2 0-0.3-0.1 0 0-0.2-0.2-0.3-0.3-0.5-0.4-0.7 0.4-0.8 0.9 0 0.3-0.1 1.2-0.1 1.8-0.1 0.2-0.2 0.2-0.3 0.1-0.4-1.3-1.1-1.8-1.2-2-0.1-0.1-0.2 0.1-0.2 0.2 0 0.1-0.1 0.1-0.2 0 0 0-0.4-0.3-0.5-0.4-0.2-0.1-0.1-0.6-0.1-0.8 0-0.3 0.2-0.4 0.3-0.4 1.4 0.8 1.9 2.2 1.9 2.4 0.1-1 0.2-1.9 0.7-2.6 0.5-0.6 1.1 0.2 1.2 0.3z"/>
		<path id="&lt;Path&gt;" class="s0" d="m30.5 6.2c-0.1 0.2-0.1 0.2-0.2 0.4 0 0.3-0.2 0.3-0.4 0.5-0.2 0.1-12.1 6.7-12.8 7.2-0.8 0.5-0.7 0.8-0.5 0.9 0.6 0.1 0.9 0.5 0.6 1.2-0.1 0-0.1 0-0.1 0-0.1-0.1-0.3-0.3-0.6-0.3-0.4-0.1-0.6-0.7-0.5-1.3 0.1-0.4 0.4-0.9 0.7-1.1 0.6-0.6 13.3-7.4 13.5-7.6 0.4-0.2 0.3-0.1 0.3 0.1z"/>
		<path id="&lt;Path&gt;" class="s0" d="m50.9 6c-0.1 0.2-0.1 0.2-0.2 0.4 0 0.2-0.2 0.2-0.3 0.3-0.2 0.2-6 3.5-6.1 3.5-0.3 0.3-0.3 0.1-0.2 0q0 0 0-0.3c0.1-0.2 0.1-0.2 0.4-0.4 0.2-0.1 5.9-3.4 6.1-3.5 0.4-0.2 0.3-0.1 0.3 0z"/>
		<path id="&lt;Path&gt;" class="s0" d="m57.8 6.4c0.2 0.2 0.1 0.7 0 0.9-0.1 0.2-0.3 0-0.4-0.1 0 0-0.1-0.2-0.3-0.3-0.5-0.5-0.8 0.5-0.8 0.9-0.1 0.4-0.1 1.4-0.2 2.1-0.1 0.2-0.2 0.2-0.3 0-0.4-1.3-1.2-1.9-1.3-2.1-0.1-0.1-0.2 0.1-0.2 0.2-0.1 0.1-0.1 0.1-0.2 0-0.1 0-0.5-0.3-0.7-0.4-0.1-0.2 0-0.7 0-0.9 0-0.4 0.2-0.5 0.3-0.4 1.6 0.9 2.1 2.4 2.2 2.6 0-1.1 0.1-2.1 0.7-2.9 0.5-0.6 1.2 0.3 1.2 0.4z"/>
		<path id="&lt;Compound Path&gt;" fill-rule="evenodd" class="s0" d="m63.5 8.8c-0.1 0.2-0.1 0-0.3-0.1 0-0.1-0.2-0.3-0.4-0.4-0.2 0.5-0.2 0.6-1.2 1.4-2.1 1.8-4.4 2.5-4.5 2.5-0.1 0-0.2-0.1 0-0.2 0.8-0.6 3.8-1.9 5.3-3.8 0 0-0.5-0.2-0.8-0.5-0.3-0.2-0.1-1 0.1-1.4 0.6-0.9 1.1-0.5 1.2-0.3 0.5 0.9 0.2 1.7 0.2 1.7 0.3 0.2 0.6 0.5 0.4 1.1zm-1-2.3c-0.1 0-0.3 0-0.6 0.4-0.1 0.1 0 0.2 0.2 0.3 0.2 0.1 0.7 0.3 0.7 0.3 0-0.1 0-0.6-0.3-1z"/>
		<path id="&lt;Compound Path&gt;" fill-rule="evenodd" class="s0" d="m41.9 8.5c-0.1 0.1-0.1 0-0.2-0.1-0.1-0.1-0.5-0.4-0.5-0.4 0 0-0.4 1-1.2 1.6-1.4 1.1-2.6 1.2-2.7 1.3-0.1 0-0.2-0.1 0.1-0.3 0.9-0.5 1.9-0.9 3.4-2.7 0 0-0.4-0.2-0.8-0.5-0.3-0.2-0.1-1.1 0.1-1.4 0.6-0.9 1.1-0.5 1.2-0.3 0.5 0.8 0.2 1.7 0.2 1.7 0.3 0.2 0.6 0.5 0.4 1.1zm-1-2.3c-0.1 0-0.3-0.1-0.6 0.4 0 0.1 0.1 0.2 0.3 0.3 0.2 0.1 0.6 0.3 0.6 0.3 0-0.1 0.1-0.7-0.3-1z"/>
		<path id="&lt;Path&gt;" class="s0" d="m32.2 5.1c0 0.1 1.4 3.4 1.4 3.6 0.1 0.1 0 0.2-0.1 0.1-0.1-0.1-0.8-0.7-0.8-0.7l1.2 6.7c0 0 0.5 3.7 0.6 4.2 0.1 2.8-1.8 3-2.2 3-2.3 0-2.2-2.1-2.2-2.1-3.2 3.1-6.5 2.5-7.1 2.3 0 0-0.1 1.3-0.1 1.6-0.1 0.3-0.4 0.3-0.7 0.2-2.1-0.5-1.9-2.5-1.9-2.9-0.9 1.6-2.1 1.8-2.7 1.8-1.3 0-2.1-1.1-2.5-1.9-0.3-0.7-0.7-1.4-0.7-1.4 0 0.7-0.6 1.4-0.9 1.6-3.1 3.3-5.8 3-6.1 2.8-3.8-1.1-1.9-6.6-1.7-7.1q0 0 0 0c-0.5-0.2-0.7-1-0.7-1.4-0.1-2.1 0.7-3.8 0.9-4.3 0.2-0.5 0.4-0.3 0.2 0.1 0 0-0.1 0.6-0.3 0.9-0.6 1.9-0.3 2.8-0.2 3 0.4 0.9 1 0.5 1.3-0.2 0.1-0.4 0.2-0.2 0.2-0.1q-0.1 0.2-0.1 0.6c-0.3 0.9-0.6 1.3-0.9 1.4-1.9 5 1.1 5.7 1.5 5.7 3 0.7 5.8-2.4 6.1-2.9 0.4-0.5 0.4-0.7 0.4-1.1 0.1-1.6-1.5-10.7-1.6-11.3 0 0 0.2-0.6 0.4-1 0.1-0.3 0.2-0.2 0.2 0 0.6 1.7 1.4 8.2 1.4 8.2 0 0 0.6 4.1 0.7 4.6 1 3 2.9 2.5 3.6 2.3 0.7-0.3 1.4-1.7 1.5-1.8q0.2-0.3 0.4-0.2c1.7 1.9 3.8 1.7 4.4 1.7 2.8-0.2 4.8-2.2 5.2-2.5 0.4-0.3 0.4 0.1 0.4 0.3 0 0.1-0.1 0.1-0.1 0.4 0.2 1.6 1.6 1.4 1.9 1.4 1.6-0.4 1.3-1 1.3-1.6-0.1-0.5-1.6-10.2-2-12.4-0.1-0.3-0.2-0.5-0.2-0.5 0 0 0.4-1 0.5-1.1 0-0.2 0-0.1 0.1 0z"/>
		<path id="&lt;Path&gt;" class="s0" d="m35.4 5.1c0.1 0.1 1.4 3.4 1.5 3.6 0 0.1-0.1 0.2-0.2 0.1-0.1-0.1-0.8-0.7-0.8-0.7 0 0 1.1 7.8 1.2 8.2 0.7 4.7 0.1 6 0 6.1-0.1 0.2-0.2 0.2-0.1 0-0.1-1.9-1.2-8.8-1.2-9.3-0.1-0.4-0.8-6.5-0.9-7 0 0 0.3-0.9 0.4-1 0-0.2 0.1-0.1 0.1 0z"/>
	</g>
</svg>