<svg version="1.2" xmlns="http://www.w3.org/2000/svg" viewBox="0 0 70 30" width="70" height="30">
	<title>New Project</title>
	<style>
		.s0 { fill: #191c4f } 
	</style>
	<g id="العنكبوت">
		<path id="&lt;Path&gt;" class="s0" d="m19.9 21l0.9 0.7q0 0 0 0.1l-0.5 0.7q-0.1 0.1-0.1 0.1l-0.9-0.7q-0.1-0.1 0-0.1l0.5-0.7q0-0.1 0.1-0.1z"/>
		<path id="&lt;Path&gt;" class="s0" d="m24.5 20.5c0.2 0.1 0.2 0.5 0.1 0.7-0.3 0.8-0.9 1.3-1.1 1.4-0.2 0.2-0.2 0.1-0.1-0.1 0 0 0.2-0.1 0.3-0.2 0.6-0.6 0.6-1 0.6-1.1 0-0.5-0.4-0.4-0.6-0.2-0.1 0.1-0.1 0-0.1 0q0.1-0.1 0.2-0.2c0.3-0.4 0.5-0.4 0.7-0.3z"/>
		<path id="&lt;Path&gt;" class="s0" d="m10.5 20.6c0 0.1 0 0.1-0.1 0.3-0.1 0.2-0.2 0.2-0.4 0.3-0.1 0.1-2.8 1.5-3 1.5-0.3 0.2-0.2 0.1-0.2 0q0 0 0.1-0.3c0-0.2 0.1-0.2 0.3-0.3 0.2-0.1 2.8-1.5 3.1-1.6 0.3-0.1 0.3 0 0.2 0.1z"/>
		<path id="&lt;Path&gt;" class="s0" d="m34.5 20.4c0.3 0.2 0.2 0.6 0.2 0.7-0.4 0.8-1 1.3-1.2 1.5-0.1 0.1-0.1 0 0-0.1 0 0 0.1-0.2 0.3-0.3 0.5-0.6 0.6-1 0.6-1.1-0.1-0.4-0.4-0.3-0.6-0.1-0.2 0.1-0.2 0-0.1-0.1q0 0 0.1-0.1c0.4-0.4 0.6-0.4 0.7-0.4z"/>
		<path id="&lt;Path&gt;" class="s0" d="m39.9 19.8c0.2 0.1 0.2 0.5 0.1 0.7-0.3 0.8-0.9 1.3-1.1 1.4-0.2 0.2-0.2 0.1-0.1-0.1 0 0 0.2-0.2 0.3-0.3 0.6-0.6 0.6-0.9 0.6-1 0-0.5-0.4-0.4-0.6-0.2-0.1 0.1-0.1 0-0.1 0q0.1-0.1 0.2-0.2c0.3-0.4 0.5-0.4 0.7-0.3z"/>
		<path id="&lt;Path&gt;" class="s0" d="m64.2 19.3c0 0 0.1 0.3 0.1 0.5 0 0.2-0.2 0.5-0.3 0.8 0 0.3-0.7 0.4-1.1 0.1-0.6 1-1.2 0.5-1.6 0.4-0.6-0.3-0.8 0.2-0.9 0.3-0.8 0.9-2.2 0.9-2.5 0.9-0.4 0-0.1-0.2 0.1-0.3 1.1-0.3 1.7-0.4 2.7-1.3 0.5-0.5 0.7-0.3 0.9-0.2 0.9 0.4 1.1 0 1.2-0.1 0.1-0.1 0.3-0.6 0.3-0.8 0.1-0.1 0.2 0 0.1 0.1 0 0.1 0 0.3 0 0.4 0.3 0.3 0.7 0 0.8 0 0 0 0-0.3 0-0.4q-0.1-0.2 0.1-0.5c0.1-0.3 0.1 0 0.1 0.1z"/>
		<path id="&lt;Compound Path&gt;" fill-rule="evenodd" class="s0" d="m47.1 18c-0.3 0.9-1.6 1.4-1.9 1.5-1.1 0.4-1.2-0.8-1.1-1.6 0.1-0.8 0.7-1.9 0.7-1.9-0.1 0-1.3-1-1.4-1.1-0.1-0.1-0.2-0.2-0.3-0.3-0.1-0.1-0.1-0.1-0.1-0.1 0 0 0-0.9 0-1 0-0.1 0-0.1 0.1 0 0.1 0 1.5 0.5 1.6 0.6 0.1 0.1 0.1 0.2 0 0.2-0.1 0-0.5 0.1-0.5 0.1l1.1 0.8c0 0 1.5-1.9 1.6-2.1 0.2-0.2 0.2-0.1 0.1 0.1 0 0.2-0.3 1-0.4 1.1 0 0.2-0.8 1.2-0.8 1.2 0 0 1 0.6 1.3 1 0.4 0.6 0.1 1.2 0 1.5zm-1.9-1.7c0 0-0.6 1.1-0.7 1.4-0.3 0.6 0.3 0.8 0.6 0.7 0.2 0 1.1-0.4 1.6-0.8 0.4-0.3-1.2-1.2-1.5-1.3z"/>
		<path id="&lt;Compound Path&gt;" fill-rule="evenodd" class="s0" d="m65.6 17c-0.1 0.2-0.3 1-1.5 0.8-0.3-0.1-0.9-0.2-1.2-0.9-0.3 0.4-1 1.6-2.4 1.4-0.3-0.1-1.3-0.5-1.3-1.7 0 0-1.2 0.9-1.7 1.2 0 0.5 0 1-0.2 1.5-0.2 0.6-2.7 3.4-4.7 3.8-0.7 0.2-3.2 0.6-3.3-2.2-0.1-0.6 0-1.1 0-1.4-1.6 1.2-3.5 2.2-4 2.4-0.9 0.4-3.8 0.9-4.3 1-0.4 0.1-0.5 0-0.2-0.1 0.2-0.2 6.7-2.4 10.1-5.9 0.1-0.2 0.1-0.3 0-0.5-0.1-0.1-1.2-2.2-1.3-2.4-0.1-0.3-0.2-0.6-0.3-0.7q-0.1-0.2 0-0.4c0-0.1 0.1-0.6 0.1-0.7 0.1-0.2 0.1-0.1 0.2 0 0.1 0.1 1.1 1.1 1.3 1.3 0.1 0.1 0 0.2-0.1 0.2 0 0-0.5-0.1-0.5-0.1 0 0 0.7 1.3 0.9 1.7 0.4 1 0.2 1.8 0 2.1-0.3 0.6-0.9 1.2-1.5 1.8-0.1 0.5-0.3 2.8 1.9 2.9 0.3 0 1.4 0.2 3.6-1.6 0.6-0.5 1.2-1 1.7-1.7 0.2-0.3 0.3-0.7-0.1-0.7-0.4 0-2.7 0.9-3-0.5-0.1-0.4 0.1-3.7 2.4-2 0.2 0.1 0.7 0.5 1 1.1 0.4-0.1 1.1-0.5 1.9-1.2 0.3-0.3 0.5-0.4 0.5-0.1 0 0.4-0.2 2.3 1.9 1.7 0.3-0.1 1.1-0.2 1.8-1.9 0.1-0.4 0.4-0.3 0.3 0-0.2 0.4-0.4 0.8-0.2 1 0.2 0.2 0.8 0.6 1.5 0.5 0.3 0 0.4-0.2 0.3-0.4-0.1-0.2-0.3-0.6-0.3-0.6 0-0.3 0.1-0.7 0.2-0.8 0-0.1 0-0.2 0.1-0.1 0.1 0.1 0.8 1 0.4 2.2zm-9.4 0.1c-0.7-1-1.6-0.5-1.7-0.4-0.1 0.1-0.2 0.4 0.5 0.5 0.9 0 1.2-0.1 1.2-0.1z"/>
		<path id="&lt;Path&gt;" class="s0" d="m8.6 14.7l0.9 0.7 0.5-0.7q0 0 0.1 0l0.9 0.7q0 0 0 0l-0.5 0.8q-0.1 0-0.1 0l-0.9-0.7-0.5 0.7q0 0 0 0l-1-0.7q0 0 0 0l0.6-0.8q0 0 0 0z"/>
		<path id="&lt;Path&gt;" class="s0" d="m44.4 11l0.9 0.6 0.5-0.6q0 0 0.1 0l0.9 0.7q0 0 0 0l-0.5 0.8q-0.1 0-0.1 0l-0.9-0.7-0.5 0.7q0 0-0.1 0l-0.9-0.7q0 0 0-0.1l0.5-0.7q0.1 0 0.1 0z"/>
		<path id="&lt;Path&gt;" class="s0" d="m63.2 11c0 0 0 0.3-0.1 0.4-0.3 0.8-0.1 1.2-0.1 1.3 0.2 0.4 0.5 0.2 0.7-0.1 0-0.2 0.1-0.1 0 0q0 0 0 0.2c-0.2 0.5-0.4 0.6-0.5 0.6-0.3 0-0.5-0.4-0.5-0.6 0-0.9 0.3-1.6 0.4-1.8 0.1-0.2 0.2-0.2 0.1 0z"/>
		<path id="&lt;Path&gt;" class="s0" d="m54 10.5c0 0-0.1 0.3-0.1 0.5-0.3 0.9-0.2 1.3-0.1 1.3 0.2 0.5 0.5 0.3 0.7-0.1 0-0.1 0.1-0.1 0.1 0q-0.1 0.1-0.1 0.3c-0.2 0.5-0.4 0.7-0.6 0.7-0.3-0.1-0.4-0.5-0.4-0.7-0.1-1 0.3-1.8 0.4-2 0.1-0.3 0.2-0.1 0.1 0z"/>
		<path id="&lt;Path&gt;" class="s0" d="m12.1 10.5c0 0-0.1 0.2-0.1 0.4-0.3 0.9-0.1 1.3 0 1.4 0.3 0.5 0.6 0.2 0.7-0.1 0.1-0.2 0.2-0.1 0.1-0.1q0 0.1 0 0.3c-0.2 0.6-0.4 0.7-0.6 0.7-0.4 0.1-0.6-0.4-0.6-0.6-0.1-1 0.3-1.9 0.4-2.1 0.1-0.2 0.2-0.1 0.1 0.1z"/>
		<path id="&lt;Compound Path&gt;" fill-rule="evenodd" class="s0" d="m17.3 12.6c-0.1 0.1-0.1 0-0.2-0.1 0 0-0.3-0.3-0.3-0.3 0 0-0.4 0.8-1 1.3-1.1 0.8-2.1 1-2.2 1-0.1 0-0.1-0.1 0.1-0.2 0.7-0.4 1.5-0.7 2.8-2.2 0 0-0.4-0.1-0.7-0.3-0.2-0.2-0.1-0.9 0.1-1.2 0.5-0.7 0.9-0.3 0.9-0.2 0.4 0.7 0.2 1.4 0.2 1.4 0.2 0.1 0.5 0.4 0.3 0.8zm-0.8-1.8c-0.1 0-0.2 0-0.4 0.3-0.1 0.1 0 0.2 0.1 0.3 0.2 0 0.5 0.2 0.5 0.2 0-0.1 0.1-0.5-0.2-0.8z"/>
		<path id="&lt;Path&gt;" class="s0" d="m11.7 7.1c0.1 0.2 0 0.6 0 0.8-0.1 0.2-0.2 0.1-0.3-0.1 0 0-0.2-0.1-0.3-0.2-0.5-0.4-0.6 0.4-0.7 0.8 0 0.3 0 1.2-0.1 1.7q0 0.1 0 0.1c0 0.4-0.1 1-0.8 1.5-0.9 0.6-1 0.7-1.1 0.7-0.1 0.1-0.1 0 0-0.1 0.1-0.1 1.8-1.6 1.6-2.4-0.2-0.8-0.9-1.3-1-1.4-0.1-0.1-0.2 0-0.2 0.1 0 0.1-0.1 0.1-0.2 0 0 0-0.4-0.2-0.5-0.3-0.2-0.1-0.1-0.6-0.1-0.7 0-0.3 0.2-0.5 0.3-0.4 1.3 0.7 1.7 1.9 1.8 2.1 0-0.9 0-1.8 0.5-2.5 0.4-0.5 1 0.2 1.1 0.3z"/>
		<path id="&lt;Path&gt;" class="s0" d="m53.2 6.8c-0.1 0.1-0.1 0.1-0.1 0.3-0.1 0.1-0.2 0.2-0.4 0.3-0.1 0.1-5 2.9-5 2.9-0.3 0.2-0.3 0.1-0.3 0q0-0.1 0.1-0.3c0-0.1 0.1-0.2 0.3-0.3 0.2-0.1 5-2.9 5.2-3 0.3-0.2 0.2 0 0.2 0.1z"/>
		<path id="&lt;Path&gt;" class="s0" d="m59.1 7.1c0.1 0.2 0 0.5-0.1 0.8-0.1 0.1-0.2 0-0.3-0.2 0 0-0.1-0.1-0.2-0.2-0.5-0.4-0.7 0.4-0.8 0.8 0 0.3 0 1.2-0.1 1.7-0.1 0.2-0.2 0.2-0.3 0-0.3-1.1-0.9-1.6-1-1.7-0.1-0.1-0.2 0-0.3 0.1 0 0.1 0 0.1-0.1 0-0.1 0-0.4-0.2-0.5-0.4-0.2-0.1-0.1-0.5-0.1-0.7 0-0.3 0.2-0.4 0.3-0.3 1.3 0.7 1.7 2 1.8 2.2 0.1-1 0.1-1.8 0.6-2.5 0.4-0.5 1 0.3 1.1 0.4z"/>
		<path id="&lt;Path&gt;" class="s0" d="m14.3 6.8c0 0 0 0.2-0.1 0.4-0.3 0.9-0.1 1.3 0 1.4 0.3 0.5 0.6 0.2 0.8-0.1 0-0.2 0.1-0.1 0.1-0.1q-0.1 0.1-0.1 0.3c-0.1 0.6-0.4 0.7-0.6 0.7-0.3 0-0.5-0.4-0.6-0.6-0.1-1 0.3-1.9 0.4-2.1 0.1-0.3 0.2-0.2 0.1 0.1z"/>
		<path id="&lt;Compound Path&gt;" fill-rule="evenodd" class="s0" d="m63.8 9.1c0 0.1-0.1 0-0.2-0.1 0-0.1-0.2-0.2-0.3-0.3-0.2 0.4-0.2 0.5-1 1.2-1.8 1.5-3.8 2-3.9 2.1-0.1 0-0.1-0.1 0.1-0.2 0.6-0.5 3.1-1.6 4.4-3.2 0 0-0.4-0.2-0.6-0.4-0.3-0.2-0.2-0.9 0-1.2 0.5-0.8 1-0.4 1-0.3 0.5 0.8 0.2 1.5 0.2 1.5 0.3 0.1 0.5 0.4 0.3 0.9zm-0.8-1.9c-0.1-0.1-0.2-0.1-0.5 0.3-0.1 0.1 0 0.2 0.2 0.3 0.2 0 0.5 0.2 0.5 0.2 0-0.1 0.1-0.5-0.2-0.8z"/>
		<path id="&lt;Compound Path&gt;" fill-rule="evenodd" class="s0" d="m45.6 8.8c0 0.2-0.1 0.1-0.2 0 0-0.1-0.4-0.4-0.4-0.4 0 0-0.3 0.9-1 1.4-1.2 0.9-2.2 1-2.3 1-0.1 0.1-0.1 0 0.1-0.1 0.7-0.5 1.6-0.8 2.9-2.4 0 0-0.4-0.2-0.7-0.4-0.2-0.2-0.1-0.9 0.1-1.2 0.5-0.8 0.9-0.4 1-0.2 0.4 0.7 0.2 1.4 0.2 1.4 0.2 0.2 0.5 0.5 0.3 0.9zm-0.8-1.9c-0.1 0-0.3 0-0.5 0.3-0.1 0.1 0 0.2 0.2 0.3 0.1 0.1 0.5 0.2 0.5 0.2 0-0.1 0.1-0.5-0.2-0.8z"/>
		<path id="&lt;Path&gt;" class="s0" d="m22.2 6.3c-0.1 0.1-0.1 0.2-0.1 0.3-0.1 0.2-0.2 0.3-0.4 0.4-0.2 0.1-4.7 2.2-4.8 2.3-0.3 0.1-0.3 0-0.3-0.1q0 0 0.1-0.2c0-0.2 0.1-0.3 0.3-0.4 0.3-0.1 4.7-2.2 4.9-2.3 0.4-0.2 0.3-0.1 0.3 0z"/>
		<path id="&lt;Path&gt;" class="s0" d="m29.2 14.5l0.9 0.7q0.1 0 0 0l-0.5 0.8q0 0-0.1 0l-0.9-0.7q0 0 0-0.1l0.5-0.7q0.1 0 0.1 0z"/>
		<path id="&lt;Path&gt;" class="s0" d="m35.2 11.7c0 0-0.1 0.3-0.2 0.5-0.3 1-0.1 1.4 0 1.5 0.3 0.5 0.7 0.2 0.9-0.1 0-0.2 0.1-0.1 0.1-0.1q0 0.1-0.1 0.4c-0.1 0.6-0.4 0.8-0.6 0.8-0.5 0-0.7-0.5-0.7-0.8-0.1-1.1 0.3-2 0.4-2.3 0.1-0.3 0.2-0.2 0.2 0.1z"/>
		<path id="&lt;Path&gt;" class="s0" d="m24 10.7c0 0-0.1 0.2-0.1 0.4-0.3 0.7-0.1 1.1-0.1 1.2 0.2 0.4 0.5 0.2 0.6-0.1 0.1-0.2 0.1-0.1 0.1 0q0 0-0.1 0.2c-0.1 0.5-0.3 0.6-0.4 0.6-0.3 0-0.5-0.4-0.5-0.6 0-0.9 0.3-1.6 0.4-1.8 0.1-0.2 0.2-0.1 0.1 0.1z"/>
		<path id="&lt;Path&gt;" class="s0" d="m36.4 9.4c-0.1 0.2-0.1 0.2-0.2 0.4-0.1 0.2-0.2 0.2-0.4 0.3-0.2 0.1-9.1 3.9-9.2 3.9-0.4 0.2-0.3 0.1-0.3-0.1q0 0 0.1-0.3c0.1-0.1 0.1-0.2 0.4-0.3 0.3-0.1 9.1-3.9 9.3-4 0.4-0.1 0.3 0 0.3 0.1z"/>
		<path id="&lt;Path&gt;" class="s0" d="m40.1 6.2c0 0.1 1.2 2.8 1.2 3 0.1 0.1 0 0.2-0.1 0.1-0.1-0.1-0.7-0.6-0.7-0.6 0 0 1 6.6 1 7 0.6 3.9 0.1 5 0 5.1 0 0.2-0.1 0.1-0.1 0-0.1-1.6-0.9-7.5-1-7.8 0-0.4-0.7-5.5-0.7-6 0 0 0.2-0.7 0.3-0.8 0-0.2 0.1-0.1 0.1 0z"/>
		<path id="&lt;Compound Path&gt;" fill-rule="evenodd" class="s0" d="m38.8 18.6c-0.5 1-1.4 1.1-1.8 1.2-1.3 0.1-1.5-0.3-2.2-0.9q-0.1 0-0.1-0.1-0.3 0.2-0.3 0.2c-0.8 0.6-1.6 0.9-1.9 1-1.7 0.4-2.1-0.7-2.3-1-0.8 1.6-2 1.5-2.3 1.4-1.2 0-2.6-1.9-2.8-2.2-0.9-1.1-1.8-1.8-1.9-1.9 0.3 0.7 0.3 1.3 0.3 1.5 0.2 1.3-1.4 1.7-1.6 1.7-2.1 0.3-2.1-1.5-2.3-1.8-0.6 0.5-1.2 0.8-1.6 0.9q0 0.2 0 0.4c0 0-0.1 1-0.6 1.5-2.8 3-4.8 2.4-5 2.3-1.4-0.7-0.8-2.9-0.7-3.5q0-0.1 0.1-0.1-0.6 0.2-1.2 0.4c-3.9 1.2-4.9 0.1-5 0-1.2-1.3-0.2-3.1 0-3.5-0.3-0.2-0.5-0.7-0.5-1.1-0.2-1.7 0.3-3.2 0.5-3.6 0.1-0.5 0.2-0.3 0.2 0.1 0 0-0.1 0.4-0.2 0.7-0.4 1.7-0.1 2.4 0 2.5 0.4 0.8 0.9 0.4 1.1-0.2 0-0.3 0.1-0.2 0.1-0.1q0 0.2-0.1 0.5c-0.2 1-0.5 1.3-0.8 1.3q0 0-0.1 0c-0.2 0.4-0.4 1.1-0.4 1.3-0.1 1.6 1.9 1.6 2.3 1.6 3.8-0.2 5.4-1.6 5.6-1.7 0.2-0.2-0.5-1.1-0.7-1.3 0 0 0.2-0.7 0.2-0.9q0.1-0.2 0.2 0c0.1 0.2 0.6 0.9 0.7 1.2 0.3 0.7-0.1 1.4-0.2 1.6-0.3 0.4-0.9 0.8-1.5 1.1 0 0.3-0.1 0.7-0.1 1-0.4 1.9 1.5 1.9 1.7 1.8 2.1-0.2 3.8-2.4 4-2.8 0.2-0.3-0.3-0.2-0.4-0.2-0.7 0.2-1.2 0.2-1.5 0.1-0.9-0.3-0.9-1.5-0.3-2.2 0.6-0.7 1.1-0.4 1.8 0.2q0.4 0.4 0.5 0.8c0.6-0.2 1.8-0.9 2.1-1.1 0.3-0.2 0.2 0.1 0.2 0.3 0.1 0.9 0.5 1.3 0.7 1.4 1.2 0.5 2.3-0.5 2.4-0.6 0.1-0.1 0.1-0.2-0.1-0.4-1.1-1.8-4.5-4.7-4.7-4.9-0.2-0.2-0.2-0.8-0.2-1.1 0.2-0.8 0.4-1 0.6-1.1 3.1-2.2 8.3-3.8 9.4-4.1 1.2-0.3 1.1 0.6 0.9 1.2-0.1 0.5-0.8 1.6-1 1.8-0.2 0.2-1.8 2.1-2 2.3-0.2 0.3-0.2 0.1-0.1-0.1 0-0.3 0.3-0.7 0.4-0.9 0.1-0.2 1.8-2.1 2.3-2.7 0.4-0.7-0.6-0.6-1.1-0.5-0.5 0.1-2.2 0.7-2.9 1-0.6 0.3-4.8 2.1-6 3-0.3 0.2 0 0.3 0.1 0.4 0.1 0.1 2.3 1.8 2.6 2 1.2 0.7 3.5 2.9 3.8 3.3 1.6 1.9 2.2 2.2 2.6 2.3 1.7 0.5 2.5-1.3 2.7-1.5 0.2-0.2 0.2 0 0.3 0.3 0.5 1.8 2.7 0.5 3.1 0.3q0.1-0.1 0.3-0.1c-0.5-0.5-0.8-0.7-1.1-0.8-0.4-0.1-0.8 0.2-0.9 0.2-0.1 0.1-0.1 0-0.1-0.1 0-0.1 0.1-0.5 0.1-0.5 0-0.1 0.1-0.3 0.1-0.3 2.3-1.5 5.1-0.4 5.2-0.3 0.1 0.1-0.2 0.7-0.3 0.9 0 0.1-0.9 0.6-1.6 1q0.1 0.1 0.3 0.2c1.2 0.6 2.3-0.1 2.6-0.3 0.2-0.2 0.2-0.4 0.2-0.6 0-0.3-1.2-8.1-1.5-10.1-0.1-0.2-0.2-0.5-0.2-0.5 0 0 0.3-0.8 0.4-0.9 0-0.1 0 0 0.1 0.1 0 0.1 1.1 2.8 1.2 2.9 0 0.2-0.1 0.3-0.2 0.2 0-0.1-0.6-0.7-0.6-0.7 0 0 1.3 7.2 1.3 7.7 0.1 1.1-0.2 1.9-0.3 2.2zm-21.9-0.6c-0.4-0.9-1.1-0.6-1.2-0.5-0.1 0.1-0.4 0.5 0.3 0.6 0.7 0.1 0.9-0.1 0.9-0.1zm17.9-0.2c0.5-0.3 1-0.6 1-0.6-0.5-0.3-1.5-0.2-1.8-0.1q0 0 0 0c0.4 0.3 0.6 0.5 0.8 0.7z"/>
		<path id="&lt;Path&gt;" class="s0" d="m34.9 6.4c0.1 0.2 0.1 0.6 0 0.8-0.1 0.2-0.2 0-0.3-0.1 0 0-0.1-0.1-0.2-0.2-0.5-0.4-0.6 0.4-0.7 0.8 0 0.2 0 1.1 0 1.6-0.1 0.2-0.2 0.2-0.3 0-0.3-1-0.9-1.5-1-1.6-0.2-0.1-0.2 0.1-0.2 0.1-0.1 0.1-0.1 0.1-0.2 0.1 0 0-0.4-0.3-0.5-0.4-0.1-0.1-0.1-0.5-0.1-0.6 0-0.3 0.2-0.4 0.3-0.4 1.2 0.7 1.7 1.8 1.7 2 0.1-0.9 0-1.7 0.5-2.3 0.4-0.5 1 0.2 1 0.2z"/>
	</g>
</svg>