<svg version="1.2" xmlns="http://www.w3.org/2000/svg" viewBox="0 0 70 30" width="70" height="30">
	<title>New Project</title>
	<style>
		.s0 { fill: #191c4f } 
	</style>
	<g id="الروم 00000041260198624849298690000000925471914649001659 ">
		<path id="&lt;Path&gt;" class="s0" d="m33.3 21.4c0 0 0 0.3-0.1 0.5-0.3 0.9-0.2 1.3-0.1 1.4 0.2 0.5 0.6 0.2 0.7-0.1 0.1-0.2 0.1-0.1 0.1 0q0 0.1 0 0.3c-0.2 0.5-0.4 0.7-0.6 0.7-0.4-0.1-0.5-0.5-0.5-0.7-0.1-1 0.3-1.9 0.4-2.1 0.1-0.3 0.2-0.2 0.1 0z"/>
		<path id="&lt;Path&gt;" class="s0" d="m18.7 20.5c-0.1 0.1-0.1 0.1-0.1 0.3-0.1 0.2-0.2 0.2-0.4 0.4-0.2 0.1-5 2.8-5.1 2.8-0.3 0.3-0.3 0.1-0.3 0q0 0 0.1-0.3c0-0.2 0.1-0.2 0.3-0.4 0.2-0.2 5-2.8 5.2-2.9 0.4-0.2 0.3-0.1 0.3 0.1z"/>
		<path id="&lt;Path&gt;" class="s0" d="m64 20.4c0 0 0 0.3 0 0.6 0 0.2-0.1 0.5-0.3 0.9-0.1 0.3-0.8 0.5-1.3 0.1-0.8 1.3-1.5 0.7-1.9 0.5-0.7-0.3-0.9 0.2-1.1 0.4-0.9 1-2.5 1-2.9 1-0.4 0.1-0.1-0.2 0.1-0.3 1.3-0.4 2.1-0.5 3.2-1.6 0.5-0.5 0.9-0.3 1.1-0.2 1 0.5 1.2 0 1.3-0.1 0.2-0.1 0.4-0.7 0.5-0.9 0-0.2 0.1 0 0.1 0.1 0 0.1-0.1 0.3-0.1 0.4 0.4 0.4 0.9 0.1 1 0 0 0 0-0.4-0.1-0.5q0-0.1 0.2-0.5c0.1-0.3 0.1-0.1 0.2 0.1z"/>
		<path id="&lt;Compound Path&gt;" fill-rule="evenodd" class="s0" d="m18.8 18.5c-0.1 0.1 0 0.1-0.2 0.2-1.3 0.3-2.7-0.4-3.1-0.6-0.2 1.8-2 2.9-2.2 3.1-1.8 1.4-3.9 2.2-4.3 2.4-0.4 0.2-3.6 1-3.8 1-0.2 0.1-0.2 0-0.1-0.1 0 0 5.1-2.5 5.7-2.8 2.4-1.4 3.6-2.5 4-3.1 0.4-0.5 0.5-1.1 0.5-1.4 0.2-0.9 0.6-1.6 1.1-2.1 0.5-0.5 1.1-0.1 1.4 0.2 0.6 0.6 1 1.7 1.1 2 0.1 0.3-0.1 1-0.1 1.2zm-0.9-1.2c-0.8-1.3-1.3-1.1-1.5-1.1-0.4 0.2-0.5 0.7-0.5 0.7 0.1 0.1 0.9 0.5 1.9 0.6 0.1 0 0.2 0 0.1-0.2z"/>
		<path id="&lt;Compound Path&gt;" fill-rule="evenodd" class="s0" d="m43.8 18.9c-0.4 1.1-1.9 1.7-2.2 1.8-1.4 0.4-1.5-1-1.4-1.9 0.1-1 0.8-2.3 0.8-2.3-0.1 0-1.5-1.2-1.6-1.3-0.1-0.1-0.3-0.3-0.4-0.3-0.1-0.1-0.1-0.2-0.1-0.2 0 0 0-1 0-1.1 0-0.2 0.1-0.1 0.2-0.1 0.1 0.1 1.6 0.7 1.8 0.8 0.2 0.1 0.1 0.2 0 0.2-0.1 0-0.6 0.2-0.6 0.2l1.3 0.9c0 0 1.8-2.3 1.9-2.5 0.2-0.3 0.2-0.1 0.2 0.1-0.1 0.2-0.4 1.2-0.5 1.4-0.1 0.1-1 1.4-1 1.4 0 0 1.2 0.7 1.5 1.1 0.5 0.7 0.2 1.4 0.1 1.8zm-2.3-2c0 0-0.8 1.3-0.9 1.6-0.3 0.8 0.5 0.9 0.8 0.9 0.3 0 1.3-0.6 1.8-1 0.5-0.4-1.4-1.4-1.7-1.5z"/>
		<path id="&lt;Path&gt;" class="s0" d="m30.6 12.9c0 0 0.1 0.6 0.3 0.9 0.1 0.2 0.2 0.5 0.2 1-0.1 0.5-0.3 0.8-0.6 0.9-0.2 0.1-0.7 0.1-1-0.4-0.4 0.8-1 0.9-1.3 0.8-0.4-0.2-0.4-0.8-0.4-1 0-0.2 0-0.8 0-1 0-0.1 0-0.2 0.1-0.4 0.1-0.2 0.1-0.1 0.1 0.1 0 0.2-0.1 1 0.1 1.4 0.4 0.5 1.1 0 1.2-0.3 0.1-0.2-0.2-1.1-0.2-1.2q0 0 0-0.1c0-0.1 0-0.3 0.1-0.5q0.1-0.2 0.2 0c0.1 0.2 0.1 0.4 0.2 1.2 0.2 0.9 0.9 0.7 1.1 0.6 0.2 0 0.1-0.2 0.1-0.3-0.1 0-0.4-0.7-0.5-1-0.1-0.3 0-0.5 0.1-0.8 0-0.3 0.1-0.1 0.2 0.1z"/>
		<path id="&lt;Path&gt;" class="s0" d="m6.8 14.6c0 0-0.1 0.6-0.3 1-0.6 1.9-0.3 2.8-0.2 3 0.5 1 1.1 0.5 1.4-0.3 0.1-0.3 0.2-0.1 0.1 0q0 0.2-0.1 0.6c-0.3 1.2-0.7 1.5-1 1.5-0.7 0-1-1-1-1.5-0.1-2.1 0.7-3.9 0.9-4.4 0.2-0.6 0.3-0.3 0.2 0.1z"/>
		<path id="&lt;Compound Path&gt;" fill-rule="evenodd" class="s0" d="m65.6 17.6c-0.1 0.3-0.4 1.3-1.8 1-0.4-0.1-1.1-0.2-1.4-1-0.4 0.4-1.2 1.8-2.8 1.6-0.4-0.1-1.6-0.5-1.6-2 0 0-1.4 1.1-2 1.5 0.1 0.5 0 1.1-0.2 1.7-0.3 0.7-3.2 4-5.6 4.5-0.8 0.2-3.8 0.7-3.9-2.6 0-0.8 0-1.3 0.1-1.7-1.9 1.5-4.2 2.6-4.8 2.9-1 0.5-4.5 1.1-5.1 1.2-0.4 0-0.5-0.1-0.2-0.2 0.2-0.2 7.9-2.7 11.9-7 0.1-0.1 0.1-0.3 0-0.5-0.1-0.2-1.4-2.6-1.5-2.9-0.1-0.3-0.3-0.7-0.3-0.8q-0.1-0.2-0.1-0.4c0-0.1 0.2-0.8 0.2-0.9 0-0.2 0.1-0.1 0.2 0 0.1 0.1 1.3 1.4 1.5 1.5 0.1 0.2 0 0.3-0.1 0.3 0 0-0.6-0.1-0.6-0.1 0 0 0.8 1.5 1.1 2 0.5 1.1 0.2 2 0 2.5-0.4 0.7-1 1.4-1.8 2.1-0.2 0.6-0.4 3.4 2.2 3.4 0.4 0 1.7 0.2 4.4-1.9 0.6-0.5 1.3-1.1 1.9-2 0.2-0.3 0.3-0.9-0.1-0.8-0.4 0-3.1 1-3.5-0.6-0.1-0.4 0.1-4.4 2.8-2.4 0.2 0.2 0.8 0.6 1.1 1.4 0.5-0.2 1.3-0.7 2.4-1.5 0.3-0.3 0.5-0.4 0.5 0 0 0.3-0.2 2.6 2.3 1.9 0.2-0.1 1.3-0.3 2-2.2 0.2-0.5 0.5-0.4 0.4 0-0.2 0.5-0.5 0.9-0.3 1.1 0.3 0.2 1 0.7 1.9 0.6 0.3 0 0.4-0.1 0.3-0.4-0.1-0.2-0.4-0.7-0.4-0.7 0.1-0.3 0.2-0.8 0.2-1 0.1-0.1 0.1-0.2 0.2-0.1 0.1 0.1 0.9 1.1 0.5 2.5zm-11.1 0.2c-0.9-1.2-1.9-0.6-2.1-0.4-0.1 0.1-0.1 0.4 0.7 0.5 1 0.1 1.4-0.1 1.4-0.1z"/>
		<path id="&lt;Path&gt;" class="s0" d="m42.3 10.6l1.1 0.8q0 0 0 0.1l-0.7 0.8q0 0.1 0 0.1l-1.1-0.8-0.6 0.7q0 0.1 0 0.1l-1.1-0.8q-0.1-0.1-0.1-0.1l0.7-0.9q0 0 0.1 0l1 0.8 0.6-0.8q0 0 0.1 0z"/>
		<path id="&lt;Path&gt;" class="s0" d="m62.8 10.6c0 0-0.1 0.3-0.2 0.5-0.3 1-0.1 1.4-0.1 1.5 0.3 0.5 0.7 0.2 0.8-0.1 0-0.2 0.1-0.1 0.1 0q0 0-0.1 0.3c-0.1 0.5-0.4 0.7-0.6 0.7-0.3 0-0.5-0.5-0.5-0.7-0.1-1.1 0.4-2 0.5-2.2 0.1-0.3 0.2-0.2 0.1 0z"/>
		<path id="&lt;Path&gt;" class="s0" d="m12.2 12.1c0 0-0.1 0.3-0.2 0.5-0.3 1-0.1 1.5-0.1 1.6 0.3 0.5 0.7 0.2 0.8-0.2 0.1-0.2 0.1-0.1 0.1 0q0 0.1-0.1 0.3c-0.1 0.7-0.4 0.8-0.6 0.8-0.4 0-0.5-0.5-0.6-0.8 0-1.1 0.4-2 0.5-2.3 0.2-0.3 0.3-0.1 0.2 0.1z"/>
		<path id="&lt;Path&gt;" class="s0" d="m51.9 10.1c0 0-0.1 0.3-0.2 0.5-0.3 1-0.1 1.5-0.1 1.6 0.3 0.5 0.7 0.2 0.8-0.1 0.1-0.2 0.2-0.1 0.1-0.1q0 0.1 0 0.4c-0.2 0.6-0.5 0.7-0.7 0.7-0.4 0-0.5-0.5-0.6-0.7 0-1.2 0.4-2.1 0.6-2.4 0.1-0.3 0.2-0.2 0.1 0.1z"/>
		<path id="&lt;Path&gt;" class="s0" d="m22.5 7.2c0 0 0 0.3-0.1 0.5-0.2 1.1 0 1.6 0.1 1.7 0.3 0.5 0.7 0.1 0.8-0.3 0-0.2 0.1-0.1 0.1 0q0 0.1-0.1 0.3c-0.1 0.7-0.3 0.9-0.5 0.9-0.4 0-0.7-0.5-0.7-0.7-0.2-1.2 0.2-2.2 0.3-2.5 0.1-0.2 0.2-0.1 0.1 0.1z"/>
		<path id="&lt;Path&gt;" class="s0" d="m19.8 6.6c0.1 0.2 0.1 0.7 0 1 0 0.1-0.2 0-0.3-0.2 0 0-0.2-0.1-0.3-0.2-0.7-0.4-0.8 0.5-0.8 1 0 0.3 0.1 1.4 0 2q0 0.1 0 0.1c0 0.5-0.1 1.2-0.9 1.9-1 0.8-1.1 0.8-1.2 0.9 0 0-0.1-0.1 0.1-0.2 0.1-0.1 2-2 1.7-2.9-0.4-0.9-1.3-1.5-1.4-1.6-0.1-0.1-0.2 0.1-0.2 0.1 0 0.1-0.1 0.1-0.2 0.1-0.1 0-0.5-0.3-0.7-0.4-0.1-0.1-0.1-0.6-0.1-0.8-0.1-0.4 0.2-0.5 0.3-0.5 1.6 0.7 2.2 2.2 2.3 2.4 0-1.1-0.1-2.1 0.4-3 0.4-0.6 1.2 0.2 1.3 0.3z"/>
		<path id="&lt;Path&gt;" class="s0" d="m11.4 7.2c0.2 0.2 0.1 0.7 0.1 0.9-0.1 0.2-0.3 0.1-0.4-0.1 0 0-0.2-0.1-0.3-0.2-0.6-0.4-0.7 0.5-0.7 1-0.1 0.3 0 1.4 0 2q0 0.1 0 0.1c0 0.5-0.2 1.2-1 1.8-0.9 0.9-1 0.9-1.1 0.9-0.1 0.1-0.2 0 0-0.1 0.1-0.1 2-2.1 1.7-2.9-0.3-0.9-1.2-1.5-1.3-1.6-0.2-0.2-0.3 0-0.3 0.1 0 0.1-0.1 0.1-0.1 0.1-0.1 0-0.6-0.3-0.7-0.4-0.2-0.1-0.2-0.6-0.2-0.8 0-0.4 0.2-0.5 0.3-0.5 1.6 0.7 2.3 2.2 2.4 2.4-0.1-1.1-0.1-2.2 0.4-3 0.4-0.6 1.2 0.2 1.2 0.3z"/>
		<path id="&lt;Path&gt;" class="s0" d="m50.9 5.6c0 0.1 0 0.2-0.1 0.4-0.1 0.1-0.2 0.2-0.4 0.3-0.2 0.1-5.9 3.4-6 3.5-0.3 0.2-0.3 0.1-0.3 0q0-0.1 0.1-0.4c0-0.1 0.1-0.2 0.3-0.3 0.3-0.2 5.9-3.4 6.2-3.6 0.3-0.2 0.3 0 0.2 0.1z"/>
		<path id="&lt;Path&gt;" class="s0" d="m57.9 6c0.1 0.2 0 0.6-0.1 0.9-0.1 0.2-0.2 0-0.4-0.1 0 0-0.1-0.2-0.2-0.3-0.6-0.5-0.8 0.5-0.9 0.9-0.1 0.3-0.1 1.4-0.2 2 0 0.3-0.2 0.3-0.3 0.1-0.4-1.4-1.1-2-1.2-2.1-0.2-0.1-0.3 0.1-0.3 0.1 0 0.1-0.1 0.1-0.2 0.1 0-0.1-0.5-0.3-0.6-0.5-0.2-0.1-0.1-0.6-0.1-0.8 0-0.4 0.3-0.5 0.4-0.4 1.5 0.8 2 2.3 2.1 2.6 0.1-1.2 0.1-2.2 0.7-2.9 0.5-0.7 1.2 0.3 1.3 0.4z"/>
		<path id="&lt;Compound Path&gt;" fill-rule="evenodd" class="s0" d="m30.4 8.3c0 0.1-0.1 0-0.2-0.1-0.1-0.1-0.5-0.4-0.5-0.4 0 0-1.1 2-2.3 2.9-1.5 1.2-2.7 1.7-2.7 1.7-0.2 0-0.2-0.1 0-0.2 0.9-0.6 3.1-2.5 4.6-4.5 0 0-0.5-0.2-0.9-0.4-0.3-0.3-0.2-1.2 0.1-1.5 0.6-1 1.1-0.6 1.2-0.4 0.6 0.9 0.3 1.8 0.3 1.8 0.3 0.2 0.6 0.5 0.4 1.1zm-1.1-2.3c-0.1-0.1-0.3-0.1-0.6 0.4-0.1 0.1 0.1 0.2 0.3 0.3 0.2 0.1 0.6 0.3 0.6 0.3 0.1-0.2 0.1-0.7-0.3-1z"/>
		<path id="&lt;Compound Path&gt;" fill-rule="evenodd" class="s0" d="m63.5 8.4c-0.1 0.1-0.1 0-0.2-0.1-0.1-0.1-0.3-0.3-0.5-0.4-0.2 0.5-0.2 0.6-1.2 1.4-2.1 1.8-4.4 2.4-4.5 2.5-0.1 0-0.1-0.1 0.1-0.3 0.7-0.5 3.7-1.9 5.2-3.8 0 0-0.4-0.1-0.8-0.4-0.3-0.2-0.1-1.1 0.1-1.4 0.6-0.9 1.1-0.5 1.2-0.3 0.5 0.8 0.2 1.7 0.2 1.7 0.3 0.2 0.6 0.5 0.4 1.1zm-1-2.3c-0.1-0.1-0.3-0.1-0.6 0.4-0.1 0.1 0 0.2 0.2 0.3 0.2 0.1 0.7 0.3 0.7 0.3 0-0.1 0-0.7-0.3-1z"/>
		<path id="&lt;Compound Path&gt;" fill-rule="evenodd" class="s0" d="m34.7 17.9c-0.3 1.8-1.1 2-1.6 2.2-0.5 0.3-2.6 0.9-3.4 1.2-1.1 0.6-2.7 2.5-3.2 3.2-1 1.3-2 1.4-2.3 1.4-2.3 0-1.7-2.9-1.4-4.2-1.8 1.4-3.8 2.5-3.9 2.6-0.2 0.1-4.1 1.4-4.3 1.4-0.2 0.1-0.3 0.1-0.3 0 0-0.1 0.2-0.3 0.4-0.4 0 0 9-4.6 10.7-7.4 0.2-0.4-0.4-0.5-0.8-0.6-0.3 0-1.1 0.1-1.4 0.2-1.2 0-1.3-0.7-1.4-1.1 0-1.1 0.7-1.9 1-2.2 0.5-0.3 2.1-0.8 3 2.1 0.5 1.9-0.3 2.9-0.5 3.1-0.5 0.7-1.1 1.3-1.9 1.9-0.6 1.3-0.5 2.5-0.4 2.8 0.2 1 1 0.9 1.5 0.7 0.9-0.3 1.7-1.5 2-1.9 1.8-2.3 3.3-2.9 3.6-3 0.3-0.1 2.8-0.8 3.7-1.4 0.5-0.3 0.4-0.7 0.3-1.1 0-0.5-1.5-8.4-1.5-8.4-0.1-0.7-0.2-1.4-0.3-1.9-0.1-0.5-0.2-0.7-0.2-0.8 0 0 0.4-0.9 0.5-1.1 0-0.1 0.1 0 0.1 0.1 0 0.1 1.4 3.3 1.4 3.5 0.1 0.2 0 0.2-0.1 0.1-0.1-0.1-0.8-0.7-0.8-0.7 0 0 1.3 6.4 1.4 6.9 0.3 1.4 0.1 2.4 0.1 2.8zm-10.1-1.9c-0.7-0.7-1.3-0.6-1.5-0.5-0.3 0-0.8 0.5-0.4 0.6 1 0.2 1.9-0.1 1.9-0.1z"/>
		<path id="&lt;Path&gt;" class="s0" d="m35.8 5.3c0.1 0.1 1.4 3.3 1.5 3.5 0 0.2-0.1 0.2-0.2 0.1-0.1-0.1-0.8-0.7-0.8-0.7 0 0 1.2 7 1.2 7.4 0.7 4.6 0.1 5.9 0 6.1 0 0.2-0.1 0.1-0.1-0.1-0.1-1.9-1.1-8.8-1.2-9.2 0-0.4-0.8-5.6-0.9-6.2 0 0 0.3-0.8 0.4-1 0.1-0.1 0.1 0 0.1 0.1z"/>
		<path id="&lt;Compound Path&gt;" fill-rule="evenodd" class="s0" d="m42 8.1c-0.1 0.1-0.1 0-0.3-0.1 0-0.1-0.4-0.4-0.4-0.4 0 0-0.5 1-1.2 1.5-1.4 1.1-2.6 1.3-2.7 1.3-0.1 0.1-0.2-0.1 0-0.2 0.9-0.5 2-0.9 3.5-2.8 0 0-0.5-0.2-0.8-0.4-0.3-0.2-0.1-1.1 0.1-1.4 0.6-1 1.1-0.5 1.2-0.3 0.5 0.8 0.2 1.7 0.2 1.7 0.3 0.2 0.6 0.5 0.4 1.1zm-1-2.3c-0.1-0.1-0.3-0.1-0.6 0.3-0.1 0.2 0 0.3 0.2 0.4 0.2 0.1 0.7 0.3 0.7 0.3 0-0.1 0-0.7-0.3-1z"/>
	</g>
</svg>