<svg version="1.2" xmlns="http://www.w3.org/2000/svg" viewBox="0 0 70 30" width="70" height="30">
	<title>New Project</title>
	<style>
		.s0 { fill: #191c4f } 
	</style>
	<g id="لقمان">
		<path id="&lt;Path&gt;" class="s0" d="m31.7 23.3c0.4 0.2 0.3 0.7 0.2 1-0.5 1-1.4 1.7-1.7 1.9-0.2 0.2-0.2 0 0-0.2 0 0 0.2-0.2 0.4-0.3 0.8-0.8 0.8-1.3 0.8-1.4 0-0.7-0.5-0.6-0.8-0.3-0.1 0.1-0.1 0-0.1-0.1q0.1 0 0.2-0.2c0.5-0.5 0.8-0.5 1-0.4z"/>
		<path id="&lt;Path&gt;" class="s0" d="m16.7 22.2c0.3 0.2 0.3 0.7 0.1 1-0.4 1.1-1.3 1.7-1.6 1.9-0.2 0.2-0.2 0 0-0.1 0 0 0.2-0.3 0.3-0.4 0.9-0.8 0.9-1.3 0.9-1.4 0-0.6-0.5-0.6-0.8-0.3-0.1 0.1-0.1 0-0.1 0q0.1-0.1 0.2-0.3c0.5-0.5 0.8-0.5 1-0.4z"/>
		<path id="&lt;Path&gt;" class="s0" d="m63.9 20.5c0 0 0 0.3 0 0.5 0 0.3-0.1 0.6-0.2 1-0.2 0.4-0.9 0.5-1.4 0.2-0.8 1.3-1.6 0.6-2 0.5-0.8-0.3-1 0.2-1.2 0.4-0.9 1-2.7 1-3.1 1-0.4 0.1 0-0.2 0.1-0.3 1.4-0.4 2.2-0.5 3.4-1.7 0.6-0.5 0.9-0.2 1.1-0.2 1.2 0.5 1.3 0 1.5-0.1 0.1-0.1 0.3-0.7 0.4-0.9 0.1-0.2 0.2-0.1 0.2 0.1-0.1 0.1-0.1 0.3-0.2 0.4 0.5 0.4 1 0.1 1.1 0 0 0 0-0.4-0.1-0.5q0-0.2 0.2-0.6c0.1-0.3 0.2 0 0.2 0.2z"/>
		<path id="&lt;Path&gt;" class="s0" d="m11.2 17.4l1.2 0.8q0 0 0 0.1l-0.7 0.9q0 0.1-0.1 0l-1.1-0.8q-0.1 0 0-0.1l0.6-0.9q0.1-0.1 0.1 0z"/>
		<path id="&lt;Path&gt;" class="s0" d="m8.4 17.2c0 0 0 0.3-0.1 0.6-0.3 1.1-0.1 1.6 0 1.7 0.3 0.5 0.7 0.2 0.8-0.2 0-0.2 0.1-0.1 0.1 0q0 0.1-0.1 0.3c-0.1 0.7-0.4 0.9-0.6 0.9-0.3 0-0.5-0.5-0.6-0.8-0.1-1.2 0.3-2.3 0.4-2.6 0.1-0.3 0.2-0.1 0.1 0.1z"/>
		<path id="&lt;Compound Path&gt;" fill-rule="evenodd" class="s0" d="m42.7 18.9c-0.3 1.1-1.9 1.7-2.3 1.8-1.4 0.5-1.5-0.9-1.4-2 0.1-1 0.8-2.3 0.8-2.3-0.1-0.1-1.6-1.3-1.7-1.4-0.1-0.1-0.2-0.3-0.4-0.4-0.1 0-0.1-0.1-0.1-0.1 0 0 0-1.1 0-1.2 0-0.2 0.1-0.1 0.2 0 0.1 0 1.8 0.6 1.9 0.7 0.2 0.1 0.2 0.2 0.1 0.3-0.1 0-0.7 0.1-0.7 0.1l1.4 1c0 0 1.8-2.4 2-2.7 0.2-0.2 0.2-0.1 0.1 0.2 0 0.2-0.4 1.3-0.5 1.4-0.1 0.2-1 1.5-1 1.5 0 0 1.2 0.7 1.5 1.2 0.6 0.7 0.3 1.5 0.1 1.9zm-2.3-2.2c0 0-0.8 1.4-1 1.7-0.3 0.9 0.5 1 0.8 1 0.3 0 1.4-0.6 2-1.1 0.5-0.4-1.5-1.4-1.8-1.6z"/>
		<path id="&lt;Path&gt;" class="s0" d="m6.6 11.9c0 0-0.2 0.5-0.3 0.8-0.6 1.7-0.4 2.5-0.4 2.6 0.4 0.9 1 0.5 1.2-0.1 0.1-0.3 0.2-0.1 0.2 0q-0.1 0.2-0.2 0.5c-0.3 1-0.7 1.2-1 1.2q0 0-0.1 0 0 0.1 0 0.1c-1.1 2.7-0.1 4.1 0.1 4.4 1.2 1.7 3.4 1.3 4 1.1 3.4-0.8 5.5-2.8 5.8-3.2 0.2-0.3 0-0.7-0.1-0.9-0.1-0.2-0.8-1.6-1.1-2.6-0.1-0.3-0.3-1.1-0.3-1.1 0-0.1 0.3-0.9 0.3-1 0.1-0.1 0.1-0.1 0.2 0 0 0.1 0 0.1 0 0.2 0.1 0.1 1 1.2 1.1 1.4 0.2 0.2 0 0.3-0.1 0.3q-0.1-0.1-0.5-0.2c0 0 1.1 2.5 1.1 2.8 0.5 2-1.4 3.1-1.8 3.4-4.2 3-6.5 2.5-7.3 2.2-3.9-1.3-1.9-6.4-1.7-6.8q0.1-0.1 0.2-0.2c-0.4-0.2-0.5-0.9-0.5-1.2 0-1.9 0.8-3.4 1-3.8 0.2-0.5 0.4-0.3 0.2 0.1z"/>
		<path id="&lt;Compound Path&gt;" fill-rule="evenodd" class="s0" d="m65.6 17.6c-0.1 0.2-0.4 1.3-1.9 1-0.4-0.1-1.1-0.3-1.5-1.1-0.3 0.5-1.2 1.9-2.9 1.6-0.4 0-1.6-0.5-1.7-2 0 0-1.4 1.2-2 1.5 0 0.6 0 1.2-0.3 1.9-0.2 0.7-3.3 4.1-5.8 4.7-0.8 0.1-4 0.7-4.1-2.8-0.1-0.8 0-1.3 0-1.7-1.9 1.5-4.3 2.7-5 3-1 0.5-4.6 1.1-5.3 1.2-0.4 0.1-0.5 0-0.2-0.2 0.2-0.1 8.3-2.8 12.5-7.3q0.2-0.2 0-0.5c-0.2-0.2-1.5-2.7-1.6-3.1-0.1-0.3-0.3-0.7-0.4-0.8q0-0.2 0-0.4c0-0.2 0.1-0.8 0.2-1 0-0.1 0.1-0.1 0.2 0 0.1 0.1 1.4 1.5 1.5 1.6 0.2 0.2 0.1 0.3 0 0.3 0 0-0.7 0-0.7 0 0 0 0.9 1.5 1.2 2 0.5 1.2 0.2 2.2 0 2.6-0.4 0.8-1.1 1.5-1.9 2.2-0.2 0.6-0.4 3.5 2.3 3.6 0.4 0 1.8 0.2 4.6-2 0.6-0.6 1.3-1.2 2-2 0.2-0.4 0.4-1-0.1-0.9-0.4 0-3.3 1.1-3.7-0.7-0.1-0.4 0.1-4.5 2.9-2.5 0.3 0.2 0.9 0.7 1.3 1.5 0.4-0.2 1.3-0.7 2.4-1.6 0.3-0.3 0.6-0.4 0.6 0 0 0.4-0.3 2.7 2.3 2 0.3-0.1 1.4-0.3 2.2-2.3 0.2-0.5 0.5-0.4 0.3 0-0.2 0.5-0.4 0.9-0.2 1.2 0.3 0.2 1 0.7 1.9 0.6 0.3 0 0.5-0.2 0.4-0.4-0.1-0.3-0.4-0.8-0.4-0.8 0-0.3 0.2-0.8 0.2-1 0-0.1 0.1-0.2 0.2-0.1 0.1 0.1 1 1.2 0.5 2.7zm-11.7 0.1c-0.9-1.3-2-0.6-2.1-0.4-0.1 0.1-0.2 0.5 0.7 0.5 1.1 0.1 1.4-0.1 1.4-0.1z"/>
		<path id="&lt;Path&gt;" class="s0" d="m16.4 10.7c-0.1 0.1-0.1 0.1-0.2 0.3-0.1 0.2-0.2 0.2-0.4 0.4-0.2 0.1-6.7 2.6-6.8 2.7-0.3 0.2-0.3 0-0.2-0.1q0 0 0-0.3c0.1-0.2 0.2-0.2 0.4-0.4 0.3-0.1 6.7-2.6 6.9-2.7 0.4-0.2 0.3-0.1 0.3 0.1z"/>
		<path id="&lt;Path&gt;" class="s0" d="m39.4 10.2l1.1 0.8 0.6-0.8q0-0.1 0.1 0l1.1 0.8q0.1 0 0 0.1l-0.6 0.9q-0.1 0.1-0.1 0l-1.1-0.8-0.6 0.8q-0.1 0.1-0.1 0l-1.2-0.8q0 0 0-0.1l0.7-0.9q0-0.1 0.1 0z"/>
		<path id="&lt;Path&gt;" class="s0" d="m62.6 10.2c0 0 0 0.3-0.1 0.5-0.4 1-0.2 1.5-0.1 1.6 0.3 0.5 0.6 0.2 0.8-0.2 0-0.1 0.1 0 0.1 0q0 0.1-0.1 0.3c-0.2 0.7-0.4 0.8-0.6 0.8-0.4 0-0.6-0.5-0.6-0.8-0.1-1 0.4-2 0.5-2.2 0.1-0.3 0.2-0.2 0.1 0z"/>
		<path id="&lt;Path&gt;" class="s0" d="m51.2 9.6c0 0-0.1 0.3-0.1 0.6-0.4 1-0.2 1.5-0.2 1.7 0.3 0.5 0.7 0.2 0.9-0.2 0.1-0.2 0.1-0.1 0.1 0q0 0.1-0.1 0.3c-0.1 0.7-0.4 0.9-0.6 0.9-0.4-0.1-0.6-0.6-0.6-0.9-0.1-1.2 0.4-2.2 0.5-2.4 0.1-0.3 0.2-0.2 0.1 0z"/>
		<path id="&lt;Path&gt;" class="s0" d="m26.1 15.3c0 0-0.1 0.4-0.2 0.7-0.3 1.2-0.1 1.8 0 1.9 0.4 0.6 0.8 0.3 1-0.2 0.1-0.3 0.1-0.1 0.1 0q0 0.1 0 0.4c-0.2 0.7-0.5 0.9-0.8 1-0.5 0-0.7-0.6-0.7-0.9-0.2-1.4 0.3-2.6 0.4-2.9 0.1-0.4 0.3-0.2 0.2 0z"/>
		<path id="&lt;Path&gt;" class="s0" d="m31.9 14.5l1.1 0.9q0.1 0 0 0.1l-0.6 0.9q-0.1 0-0.1 0l-1.2-0.8-0.5 0.8q-0.1 0-0.1 0l-1.2-0.8q0-0.1 0-0.1l0.7-1q0 0 0.1 0l1.1 0.8 0.6-0.8q0 0 0.1 0z"/>
		<path id="&lt;Path&gt;" class="s0" d="m28.6 11.1c0 0.1 0 0.1-0.1 0.4-0.1 0.2-0.2 0.2-0.5 0.4-0.2 0.1-8.1 4-8.3 4-0.4 0.3-0.3 0.1-0.3 0q0-0.1 0.1-0.4c0-0.2 0.1-0.2 0.4-0.4 0.3-0.2 8.2-4 8.4-4.1 0.5-0.3 0.4-0.1 0.3 0.1z"/>
		<path id="&lt;Path&gt;" class="s0" d="m22 8.9c0 0-0.1 0.4-0.2 0.6-0.3 1.1 0 1.6 0 1.7 0.3 0.6 0.7 0.2 0.8-0.2 0.1-0.2 0.1-0.1 0.1 0q0 0.1 0 0.3c-0.2 0.7-0.4 0.9-0.6 0.9-0.4 0-0.6-0.5-0.6-0.8-0.2-1.2 0.2-2.2 0.3-2.5 0.1-0.3 0.2-0.2 0.2 0z"/>
		<path id="&lt;Path&gt;" class="s0" d="m32 9.6c0.7 0.1 0.5 0.4 0.3 0.6-0.4 0.8-1.1 1.1-1.6 1.3-0.4 0.2-0.2-0.2 0.1-0.4 0 0 0.3-0.1 0.7-0.5 0.4-0.3-0.7-0.2-1.2-0.2-0.5 0-0.6 0.1-0.7 0.3-0.2 0.2-0.4 0.1-0.2-0.1 0.1-0.2 0.2-0.5 0.5-0.8 0.4-0.4 1.4-0.3 2.1-0.2z"/>
		<path id="&lt;Path&gt;" class="s0" d="m11.8 5.8c0.2 0.2 0.1 0.6 0 0.9-0.1 0.2-0.3 0-0.4-0.1 0 0-0.1-0.2-0.3-0.3-0.5-0.5-0.8 0.5-0.8 0.9-0.1 0.3-0.1 1.4-0.2 2-0.1 0.3-0.2 0.2-0.3 0.1-0.4-1.4-1.1-2-1.3-2.1-0.1-0.1-0.2 0.1-0.2 0.1 0 0.1-0.1 0.1-0.2 0.1-0.1-0.1-0.5-0.3-0.6-0.5-0.2-0.1-0.1-0.6-0.1-0.8 0-0.4 0.2-0.5 0.4-0.4 1.5 0.8 2 2.3 2.1 2.6 0-1.2 0.1-2.2 0.7-2.9 0.5-0.6 1.2 0.3 1.2 0.4z"/>
		<path id="&lt;Compound Path&gt;" fill-rule="evenodd" class="s0" d="m35.8 20.3c-0.1 1.5-0.6 1.8-0.8 1.9-1.9 0.7-3.2 0.1-3.4 0-3.5 1.4-6.3 0.7-6.4 0.7 0.1 0.7-0.2 1.4-0.3 1.6 0 0.3-0.2 0.3-0.5 0.2-1.9-0.6-1.7-2.4-1.7-2.7-1.1 1.4-1.8 1.3-2.4 1.3-2.5-0.1-2.3-4.6-2.4-5.3 0-0.8-0.3-9.2-0.8-11.5-0.1-0.5 0.2-1.2 0.3-1.4 0.1-0.2 0.2-0.2 0.3 0.1 0.3 0.9 0.5 3.1 0.5 3.7 0.3 1.5 0.3 10.1 0.7 11.4 0.7 2 2.1 1.6 2.3 1.6 1.4-0.4 1.7-1.5 1.8-1.7 0.1-0.2 0.1-0.2 0.3 0 2.1 2.7 7.3 1.1 7.3 1.1-0.5-1.3 0.3-2.6 1.2-3.4 0.9-0.8 1.3 0.3 1.4 0.7 0.4 1.2-0.2 2.5-0.2 2.6 0.4 0.2 1.7 0 2-0.2 0.3-0.1 0.2-0.7 0.2-0.9 0-0.1-1.2-11.9-1.2-12.4-0.1-0.5-0.3-0.8-0.3-0.9 0 0 0.5-1 0.6-1.1 0-0.1 0.1-0.1 0.1 0.1 0 0.1 1.3 3.5 1.3 3.7 0.1 0.2 0 0.2-0.1 0.1-0.1-0.1-0.8-0.8-0.8-0.8 0 0 0.7 6.9 0.8 7.5 0.3 1.8 0.2 3.6 0.2 4zm-3.1-0.7c-0.2-0.4-0.6-0.8-1-0.5-0.4 0.3-0.9 0.8-0.6 1.2 0.3 0.4 0.7 0.5 0.7 0.5 0.2-0.1 1.4-0.4 0.9-1.2z"/>
		<path id="&lt;Path&gt;" class="s0" d="m50.2 5c0 0.1 0 0.1-0.1 0.3-0.1 0.2-0.2 0.3-0.4 0.4-0.2 0.1-6.2 3.6-6.3 3.6-0.4 0.3-0.3 0.1-0.3 0q0 0 0.1-0.3c0-0.2 0.1-0.2 0.3-0.4 0.3-0.2 6.2-3.6 6.5-3.7 0.3-0.2 0.3-0.1 0.2 0.1z"/>
		<path id="&lt;Path&gt;" class="s0" d="m57.5 5.3c0.1 0.3 0 0.7-0.1 1-0.1 0.2-0.2 0-0.4-0.1 0 0-0.1-0.2-0.2-0.3-0.6-0.5-0.9 0.5-0.9 0.9-0.1 0.4-0.2 1.5-0.2 2.2-0.1 0.2-0.3 0.2-0.3 0-0.4-1.4-1.2-2-1.4-2.2-0.1-0.1-0.2 0.1-0.2 0.2-0.1 0.1-0.1 0.1-0.2 0-0.1 0-0.5-0.3-0.7-0.5-0.1-0.1-0.1-0.6-0.1-0.8 0.1-0.4 0.3-0.5 0.4-0.5 1.6 0.9 2.1 2.5 2.2 2.8 0.1-1.2 0.1-2.3 0.8-3.1 0.5-0.6 1.2 0.3 1.3 0.4z"/>
		<path id="&lt;Compound Path&gt;" fill-rule="evenodd" class="s0" d="m63.4 7.8c-0.1 0.2-0.1 0.1-0.3-0.1-0.1-0.1-0.2-0.2-0.4-0.4-0.3 0.6-0.2 0.6-1.3 1.5-2.2 1.9-4.6 2.5-4.7 2.6-0.1 0-0.2-0.1 0.1-0.2 0.7-0.6 3.9-2 5.5-4 0 0-0.5-0.2-0.9-0.5-0.3-0.2-0.1-1.1 0.1-1.5 0.6-0.9 1.2-0.4 1.3-0.3 0.5 0.9 0.2 1.8 0.2 1.8 0.3 0.2 0.6 0.6 0.4 1.1zm-1.1-2.3c-0.1-0.1-0.2-0.1-0.5 0.3-0.1 0.2 0 0.3 0.2 0.4 0.2 0.1 0.6 0.3 0.6 0.3 0.1-0.1 0.1-0.7-0.3-1z"/>
		<path id="&lt;Compound Path&gt;" fill-rule="evenodd" class="s0" d="m41.8 7.4c0 0.1-0.1 0-0.2-0.1-0.1-0.1-0.5-0.4-0.5-0.4 0 0-0.4 1-1.2 1.6-1.5 1.2-2.8 1.3-2.9 1.4-0.1 0-0.1-0.1 0.1-0.3 0.9-0.5 2-0.9 3.6-2.9 0 0-0.5-0.2-0.8-0.4-0.3-0.3-0.2-1.2 0.1-1.5 0.6-1 1.1-0.5 1.2-0.3 0.6 0.9 0.3 1.8 0.3 1.8 0.3 0.2 0.6 0.5 0.3 1.1zm-1-2.4c-0.1 0-0.3-0.1-0.6 0.4-0.1 0.1 0 0.3 0.2 0.3 0.2 0.1 0.7 0.3 0.7 0.3 0-0.1 0.1-0.6-0.3-1z"/>
		<path id="&lt;Path&gt;" class="s0" d="m26.7 4.9c0 0-0.1 0.5-0.3 0.9-0.6 1.9-0.4 2.8-0.4 3 0.4 1 0.9 0.5 1.2-0.2 0.1-0.4 0.2-0.2 0.2 0q-0.1 0.2-0.2 0.6c-0.3 1.1-0.7 1.4-1 1.3-0.6 0-0.7-1-0.7-1.5 0.1-2.1 0.9-3.8 1.1-4.3 0.2-0.4 0.3-0.2 0.1 0.2z"/>
		<path id="&lt;Path&gt;" class="s0" d="m15.1 4.8c0 0-0.2 0.5-0.3 0.8-0.6 1.6-0.4 2.3-0.4 2.5 0.3 0.9 0.9 0.5 1.2-0.1 0.1-0.3 0.2-0.2 0.1 0q0 0.1-0.1 0.5c-0.4 0.9-0.7 1.2-1 1.1-0.5 0-0.7-0.9-0.7-1.3 0-1.8 0.8-3.2 1-3.6 0.2-0.5 0.3-0.2 0.2 0.1z"/>
		<path id="&lt;Path&gt;" class="s0" d="m23.4 3.8c0.1 0.2 0.1 0.6 0 0.9-0.1 0.2-0.2 0-0.4-0.1 0 0-0.1-0.1-0.2-0.2-0.6-0.4-0.7 0.4-0.7 0.8-0.1 0.3 0 1.3-0.1 1.9 0 0.2-0.2 0.2-0.2 0.1-0.5-1.2-1.2-1.8-1.3-1.9-0.2-0.1-0.2 0.1-0.2 0.2-0.1 0.1-0.1 0.1-0.2 0-0.1 0-0.5-0.2-0.6-0.3-0.2-0.2-0.1-0.6-0.1-0.8 0-0.3 0.2-0.4 0.3-0.4 1.4 0.7 2 2 2 2.2 0-1 0-1.9 0.5-2.7 0.4-0.5 1.1 0.2 1.2 0.3z"/>
		<path id="&lt;Compound Path&gt;" fill-rule="evenodd" class="s0" d="m33.6 5.7c0 0.1-0.1 0-0.2-0.1 0-0.1-0.4-0.4-0.4-0.4 0 0-0.4 0.9-1 1.4-1.3 0.9-2.3 1.1-2.4 1.1-0.1 0.1-0.1-0.1 0.1-0.2 0.8-0.4 1.7-0.7 3-2.4 0 0-0.4-0.2-0.7-0.4-0.3-0.2-0.1-0.9 0.1-1.2 0.5-0.8 0.9-0.4 1-0.3 0.5 0.8 0.2 1.5 0.2 1.5 0.3 0.2 0.5 0.5 0.3 1zm-0.8-2c-0.1-0.1-0.3-0.1-0.5 0.3-0.1 0.1 0 0.2 0.2 0.3 0.1 0.1 0.5 0.2 0.5 0.2 0-0.1 0.1-0.5-0.2-0.8z"/>
	</g>
</svg>