<svg version="1.2" xmlns="http://www.w3.org/2000/svg" viewBox="0 0 70 30" width="70" height="30">
	<title>New Project</title>
	<style>
		.s0 { fill: #191c4f } 
	</style>
	<g id="السجدة">
		<path id="&lt;Path&gt;" class="s0" d="m24.3 23.7l1.1 0.8q0 0 0 0.1l-0.7 0.9q0 0-0.1 0l-1.1-0.8q0-0.1 0-0.1l0.7-0.9q0-0.1 0.1 0z"/>
		<path id="&lt;Path&gt;" class="s0" d="m15.7 23.4c0.3 0.1 0.3 0.5 0.3 0.7-0.2 0.8-0.8 1.4-0.9 1.5-0.2 0.2-0.2 0.1-0.1 0 0 0 0.1-0.2 0.2-0.4 0.5-0.6 0.5-1 0.5-1.1-0.1-0.4-0.5-0.3-0.7-0.1 0 0.2-0.1 0.1 0 0q0-0.1 0.1-0.2c0.3-0.4 0.5-0.5 0.6-0.4z"/>
		<path id="&lt;Path&gt;" class="s0" d="m64 21c0 0 0 0.3 0 0.5 0 0.2-0.1 0.5-0.2 0.8-0.1 0.3-0.8 0.4-1.3 0.1-0.8 1.1-1.5 0.5-1.9 0.4-0.7-0.2-0.9 0.2-1.1 0.3-0.9 0.9-2.5 0.9-2.9 0.9-0.4 0-0.1-0.2 0.1-0.2 1.3-0.4 2.1-0.5 3.2-1.4 0.5-0.4 0.9-0.2 1-0.2 1.1 0.4 1.3 0 1.4-0.1 0.1-0.1 0.3-0.6 0.4-0.7 0.1-0.2 0.2-0.1 0.1 0.1 0 0.1 0 0.2-0.1 0.3 0.5 0.3 0.9 0.1 1 0 0 0 0-0.3 0-0.4q0-0.1 0.1-0.5c0.1-0.2 0.2 0 0.2 0.1z"/>
		<path id="&lt;Path&gt;" class="s0" d="m7.7 21.1c0 0.1 0 0.1 0 0.2-0.1 0.2-0.1 0.2-0.3 0.3-0.2 0.1-2.1 1.1-2.2 1.2-0.2 0.1-0.2 0.1-0.2 0q0-0.1 0-0.3c0.1-0.1 0.1-0.1 0.3-0.2 0.2-0.2 2.1-1.2 2.3-1.3 0.2-0.1 0.2 0 0.1 0.1z"/>
		<path id="&lt;Path&gt;" class="s0" d="m33.7 20.8c0 0 0 0.3 0 0.5 0 0.3-0.1 0.6-0.2 0.9-0.1 0.3-0.8 0.4-1.2 0.1-0.7 1.2-1.4 0.6-1.7 0.5-0.7-0.3-0.9 0.1-1.1 0.3-0.8 1-2.3 0.9-2.7 1-0.3 0 0-0.2 0.1-0.3 1.2-0.4 1.9-0.5 3-1.5 0.5-0.5 0.8-0.2 1-0.2 0.9 0.5 1.1 0 1.2-0.1 0.2-0.1 0.3-0.6 0.4-0.8 0.1-0.2 0.2 0 0.1 0.1 0 0.1 0 0.3-0.1 0.4 0.4 0.3 0.9 0 1-0.1 0 0-0.1-0.3-0.1-0.4q0-0.1 0.1-0.5c0.1-0.3 0.2 0 0.2 0.1z"/>
		<path id="&lt;Compound Path&gt;" fill-rule="evenodd" class="s0" d="m43.3 19.5c-0.3 1.1-1.9 1.7-2.3 1.9-1.3 0.4-1.5-1-1.4-2 0.1-1 0.9-2.3 0.9-2.3-0.1-0.1-1.6-1.2-1.7-1.4-0.1-0.1-0.2-0.2-0.4-0.3-0.1-0.1-0.1-0.2-0.1-0.2 0 0 0-1 0-1.1 0-0.2 0.1-0.1 0.2-0.1 0.1 0.1 1.7 0.7 1.9 0.8 0.2 0.1 0.1 0.2 0 0.2-0.1 0.1-0.6 0.2-0.6 0.2l1.3 0.9c0 0 1.8-2.3 2-2.6 0.2-0.2 0.1-0.1 0.1 0.2 0 0.2-0.4 1.2-0.5 1.4 0 0.1-1 1.4-1 1.4 0 0 1.2 0.8 1.5 1.2 0.6 0.7 0.2 1.4 0.1 1.8zm-2.3-2.1c0 0-0.8 1.4-0.9 1.7-0.4 0.8 0.5 1 0.8 0.9 0.3 0 1.4-0.6 1.9-1 0.5-0.4-1.5-1.4-1.8-1.6z"/>
		<path id="&lt;Compound Path&gt;" fill-rule="evenodd" class="s0" d="m65.7 18.2c-0.1 0.3-0.4 1.3-1.9 1-0.3-0.1-1.1-0.2-1.4-1-0.4 0.4-1.2 1.9-2.9 1.6-0.4-0.1-1.6-0.5-1.6-2 0 0-1.4 1.1-2 1.5 0 0.5 0 1.1-0.3 1.8-0.2 0.7-3.2 4-5.7 4.6-0.8 0.2-3.9 0.7-4-2.7q0-1.1 0.1-1.7c-1.9 1.5-4.3 2.6-4.9 3-1.1 0.4-4.6 1-5.2 1.1-0.5 0.1-0.5 0-0.3-0.1 0.3-0.2 8.2-2.8 12.3-7.2q0.1-0.2-0.1-0.5c-0.1-0.2-1.3-2.7-1.5-3-0.1-0.3-0.3-0.7-0.3-0.8q-0.1-0.2-0.1-0.4c0.1-0.2 0.2-0.8 0.2-1 0.1-0.1 0.1 0 0.2 0.1 0.1 0.1 1.4 1.4 1.5 1.5 0.2 0.2 0.1 0.3 0 0.3-0.1 0-0.7-0.1-0.7-0.1 0 0 0.9 1.5 1.1 2 0.5 1.2 0.3 2.1 0.1 2.6-0.4 0.7-1.1 1.5-1.9 2.1-0.1 0.6-0.4 3.5 2.3 3.6 0.4 0 1.7 0.2 4.4-2 0.7-0.6 1.4-1.2 2-2 0.2-0.4 0.4-0.9-0.1-0.9-0.4 0.1-3.2 1.1-3.6-0.6-0.1-0.4 0.1-4.4 2.9-2.5 0.2 0.2 0.8 0.7 1.2 1.5 0.4-0.2 1.3-0.7 2.3-1.6 0.4-0.2 0.6-0.4 0.6 0 0 0.4-0.2 2.7 2.3 2 0.3-0.1 1.4-0.3 2.1-2.3 0.2-0.4 0.5-0.4 0.4 0-0.2 0.5-0.5 0.9-0.2 1.2 0.2 0.2 0.9 0.7 1.8 0.6 0.3 0 0.5-0.2 0.4-0.4-0.1-0.3-0.4-0.8-0.4-0.8 0-0.3 0.2-0.8 0.2-0.9 0-0.2 0.1-0.3 0.2-0.2 0.1 0.1 0.9 1.2 0.5 2.6zm-11.4 0.2c-0.9-1.2-2-0.6-2.1-0.4-0.1 0.1-0.2 0.4 0.7 0.5 1 0.1 1.4-0.1 1.4-0.1z"/>
		<path id="&lt;Path&gt;" class="s0" d="m12.6 15.3c0 0 0 0.4-0.1 0.6-0.4 1.2-0.1 1.8 0 1.9 0.3 0.6 0.8 0.3 0.9-0.2 0.1-0.2 0.2-0.1 0.1 0q0 0.1 0 0.4c-0.2 0.7-0.5 0.9-0.7 0.9-0.5 0-0.7-0.5-0.7-0.9-0.2-1.3 0.3-2.4 0.4-2.8 0.1-0.3 0.2-0.2 0.1 0.1z"/>
		<path id="&lt;Path&gt;" class="s0" d="m18.5 14.5c0 0 0 0.3-0.1 0.5-0.3 1.1-0.1 1.6 0 1.7 0.3 0.5 0.7 0.2 0.8-0.2 0.1-0.2 0.2-0.1 0.1 0q0 0.1 0 0.3c-0.2 0.7-0.4 0.8-0.6 0.8-0.4 0.1-0.6-0.4-0.7-0.7-0.1-1.2 0.3-2.2 0.4-2.5 0.1-0.3 0.2-0.2 0.1 0.1z"/>
		<path id="&lt;Path&gt;" class="s0" d="m28.9 11.5c0 0 0.1 0.6 0.3 0.9 0.1 0.3 0.2 0.6 0.2 1-0.1 0.5-0.4 0.8-0.6 0.9-0.2 0.1-0.7 0.1-1.1-0.4-0.4 0.8-0.9 1-1.3 0.8-0.4-0.2-0.4-0.8-0.4-1 0-0.2 0-0.8 0-1 0-0.1 0-0.2 0.1-0.4 0.1-0.2 0.2-0.1 0.2 0.1 0 0.2-0.1 1.1 0 1.4 0.4 0.5 1.1 0 1.3-0.2 0.1-0.3-0.2-1.2-0.2-1.3q-0.1 0-0.1-0.1c0.1-0.1 0.1-0.3 0.1-0.5q0.1-0.2 0.2 0c0.1 0.2 0.1 0.4 0.3 1.3 0.1 0.8 0.9 0.6 1.1 0.6 0.2-0.1 0.1-0.2 0.1-0.3-0.1-0.1-0.4-0.8-0.5-1.1-0.1-0.3 0-0.5 0-0.8 0.1-0.3 0.2-0.1 0.3 0.1z"/>
		<path id="&lt;Path&gt;" class="s0" d="m21.1 11.3c0.7 0.1 0.5 0.4 0.4 0.7-0.6 0.8-1.2 1.1-1.8 1.3-0.5 0.3-0.2-0.1 0.1-0.4 0 0 0.3-0.2 0.7-0.5 0.5-0.3-0.7-0.3-1.3-0.3-0.5 0-0.6 0.2-0.8 0.4-0.1 0.2-0.3 0.1-0.2-0.2 0.1-0.2 0.3-0.4 0.6-0.9 0.4-0.4 1.6-0.2 2.3-0.1z"/>
		<path id="&lt;Path&gt;" class="s0" d="m41.8 11l1.1 0.8q0.1 0.1 0 0.1l-0.6 0.9q-0.1 0.1-0.1 0l-1.1-0.8-0.6 0.8q0 0.1-0.1 0l-1.1-0.8q0 0 0-0.1l0.7-0.9q0 0 0 0l1.1 0.8 0.6-0.8q0 0 0.1 0z"/>
		<path id="&lt;Path&gt;" class="s0" d="m62.8 11.1c0 0-0.1 0.3-0.2 0.4-0.3 1-0.1 1.5-0.1 1.6 0.3 0.5 0.7 0.2 0.8-0.2 0.1-0.1 0.1 0 0.1 0q0 0.1 0 0.3c-0.2 0.6-0.5 0.8-0.7 0.8-0.3 0-0.5-0.5-0.5-0.8-0.1-1 0.4-1.9 0.5-2.2 0.1-0.3 0.2-0.1 0.1 0.1z"/>
		<path id="&lt;Path&gt;" class="s0" d="m51.6 10.5c0 0-0.1 0.3-0.1 0.5-0.4 1.1-0.2 1.6-0.2 1.7 0.3 0.5 0.7 0.2 0.9-0.2 0.1-0.2 0.1-0.1 0.1 0q0 0.1-0.1 0.3c-0.2 0.7-0.4 0.8-0.6 0.8-0.4 0-0.6-0.5-0.6-0.8-0.1-1.1 0.4-2.1 0.5-2.4 0.1-0.3 0.2-0.1 0.1 0.1z"/>
		<path id="&lt;Path&gt;" class="s0" d="m8.2 8.8l1.2 0.9q0 0 0 0l-0.7 0.9q0 0.1-0.1 0.1l-1.1-0.8-0.5 0.7q-0.1 0.1-0.1 0.1l-1.2-0.9q0 0 0 0l0.7-0.9q0-0.1 0.1-0.1l1.1 0.8 0.5-0.7q0.1-0.1 0.1-0.1z"/>
		<path id="&lt;Path&gt;" class="s0" d="m29.9 8.2c0 0.2 0 0.2-0.1 0.4-0.1 0.2-0.3 0.3-0.5 0.4-0.2 0.1-6 2.4-6.1 2.4-0.4 0.3-0.3 0.1-0.3 0q0-0.1 0.1-0.4c0.1-0.2 0.2-0.2 0.4-0.3 0.3-0.2 6-2.4 6.3-2.6 0.4-0.2 0.3 0 0.2 0.1z"/>
		<path id="&lt;Path&gt;" class="s0" d="m19.7 7c0 0 0 0.3-0.1 0.5-0.3 1.1-0.1 1.6 0 1.7 0.3 0.5 0.7 0.2 0.8-0.2 0.1-0.2 0.1-0.1 0.1 0q0 0.1 0 0.3c-0.2 0.7-0.4 0.8-0.6 0.9-0.4 0-0.7-0.5-0.7-0.8-0.1-1.2 0.3-2.2 0.4-2.5 0.1-0.3 0.2-0.1 0.1 0.1z"/>
		<path id="&lt;Path&gt;" class="s0" d="m50.6 5.9c0 0.2 0 0.2-0.1 0.4-0.1 0.2-0.2 0.2-0.4 0.3-0.2 0.2-6 3.5-6.1 3.6-0.4 0.2-0.4 0.1-0.3 0q0-0.1 0.1-0.3c0-0.2 0.1-0.3 0.3-0.4 0.2-0.2 6.1-3.5 6.3-3.7 0.3-0.2 0.3 0 0.2 0.1z"/>
		<path id="&lt;Path&gt;" class="s0" d="m57.8 6.3c0.1 0.2 0 0.7-0.1 1-0.1 0.1-0.3 0-0.4-0.2 0 0-0.1-0.1-0.3-0.3-0.6-0.5-0.8 0.5-0.8 1-0.1 0.3-0.2 1.4-0.2 2-0.1 0.3-0.3 0.3-0.3 0.1-0.4-1.4-1.2-2-1.3-2.1-0.2-0.2-0.3 0-0.3 0.1 0 0.1-0.1 0.1-0.2 0 0 0-0.5-0.3-0.6-0.4-0.2-0.2-0.1-0.7-0.1-0.9 0-0.4 0.2-0.5 0.4-0.4 1.5 0.9 2 2.4 2.1 2.6 0.1-1.1 0.1-2.1 0.8-2.9 0.5-0.7 1.2 0.3 1.3 0.4z"/>
		<path id="&lt;Compound Path&gt;" fill-rule="evenodd" class="s0" d="m63.5 8.7c0 0.2-0.1 0.1-0.2-0.1-0.1-0.1-0.3-0.2-0.5-0.3-0.2 0.5-0.2 0.5-1.2 1.4-2.1 1.8-4.5 2.5-4.6 2.5-0.2 0-0.2-0.1 0-0.2 0.8-0.6 3.9-2 5.4-3.9 0 0-0.5-0.2-0.8-0.4-0.3-0.3-0.2-1.1 0.1-1.5 0.6-1 1.1-0.5 1.2-0.3 0.5 0.9 0.2 1.8 0.2 1.8 0.3 0.1 0.6 0.5 0.4 1zm-1-2.3c-0.1 0-0.3-0.1-0.6 0.4-0.1 0.1 0 0.2 0.2 0.3 0.2 0.1 0.7 0.3 0.7 0.3 0-0.1 0.1-0.6-0.3-1z"/>
		<path id="&lt;Compound Path&gt;" fill-rule="evenodd" class="s0" d="m32.4 14.2c0.1 0.5 0.3 2.4 0.1 2.9-0.5 2-1.6 1.9-1.9 1.8-1-0.1-1.4-0.9-1.4-0.9-0.2 1-1.6 2.1-2.5 0.4-0.6 0.8-1.6 0.8-1.9 0.8-1.5-0.3-1.6-2-1.7-2.3-0.1-0.4-0.2-0.2-0.5-0.1-0.3 0.2-0.7 0.9-1 1.3-0.2 0.4-1.1 1.4-1.3 1.6 2.4 0.8 7.6 0.7 7.8 0.8 0 0-0.5 0.9-0.6 1.1-1.3-0.2-3.2 0.3-3.7 0.6-2.5 1.4-4.1 1.8-4.7 1.8-1.9 0.2-2.4-1.3-2.6-1.8 0-0.2-0.3-1.2-0.6-2.2-0.2 1-1.5 2.1-1.9 2.5-2.8 2.6-4.6 2.5-4.9 2.4-2.2-0.6-1.1-4.4-0.7-5.5q-0.4 0.1-0.6 0.2c-1.3 0.4-1.5-1-1.4-2 0.1-1 0.9-2.3 0.9-2.3-0.1 0-1.6-1.2-1.7-1.3-0.1-0.1-0.2-0.3-0.4-0.4-0.1-0.1-0.1-0.1-0.1-0.1 0 0 0-1.1 0-1.2 0-0.1 0.1-0.1 0.2 0 0.1 0 1.7 0.7 1.9 0.7 0.2 0.1 0.1 0.3 0 0.3-0.1 0-0.6 0.1-0.6 0.1l1.3 1c0 0 1.8-2.4 2-2.6 0.2-0.2 0.1-0.1 0.1 0.1 0 0.3-0.4 1.3-0.5 1.4-0.1 0.2-1 1.5-1 1.5 0 0 1.2 0.7 1.5 1.1 0.6 0.8 0.2 1.5 0.1 1.9-0.2 0.6-0.8 1.1-1.3 1.4-0.1 0.5-0.4 2-0.5 2.4-0.3 2.5 1.7 2 2.1 1.8 4.1-1.7 5.1-4.3 5.2-4.7q0 0 0 0c-0.2-0.6-0.3-1.2-0.4-1.5-0.2-1.1-1.3-4.1-1.4-4.4-0.2-0.3 0-1.2 0-1.5 0.1-0.2 0.2-0.1 0.3 0.1 0.2 0.2 0.9 1.8 1.1 2.3 0.9 2.2 1.3 5.5 1.4 6.1 0.4 2.1 1.2 2.6 1.7 2.8 1.4 0.6 4.3-0.9 4.5-1-3.3-0.9-5-0.9-5.1-0.9-0.1 0-0.2-0.1-0.1-0.2 0-0.2 0.3-0.7 0.5-0.9 3-1.5 3.3-2.2 3.5-2.6 0.2-0.3 0.5-0.8 1.2-1.4 0.7-0.6 0.8 0.5 0.9 0.8 0.4 1.3 1.2 1.5 1.5 1.6 0.9 0.1 1.8-1.1 1.9-1.3 0.2-0.2 0.3 0 0.2 0.1 0 0.1 0 0.2-0.1 0.4 0.1 0.5 0.5 0.7 0.8 0.7 0.9 0.1 1.3-1.2 1.5-1.5 0.1-0.3 0.2 0 0.2 0.1 0 0.2 0 0.1-0.1 0.4 0.6 1.2 2.1 0.7 2.2 0.6 0.2 0 0.1-0.2 0.1-0.3 0-0.1-0.4-3.8-0.4-3.8-0.3-2.2-0.8-5.6-0.8-6.2-0.1-0.4-0.2-0.7-0.2-0.8 0 0 0.4-0.9 0.5-1.1 0-0.1 0.1 0 0.1 0.1 0.1 0.1 1.4 3.4 1.5 3.6 0.1 0.2-0.1 0.3-0.2 0.1-0.1-0.1-0.8-0.7-0.8-0.7 0 0 0.8 5.3 0.8 5.8zm-22.8 3.1c0.5-0.5-1.5-1.5-1.8-1.6 0 0-0.8 1.4-0.9 1.6-0.4 0.9 0.5 1 0.8 1 0.3-0.1 1.3-0.6 1.9-1z"/>
		<path id="&lt;Path&gt;" class="s0" d="m34.4 5.4c0 0.1 1.4 3.4 1.5 3.6 0 0.2-0.1 0.3-0.2 0.1-0.1-0.1-0.8-0.7-0.8-0.7 0 0 1.1 8 1.2 8.4 0.7 4.8 0.1 6.1 0 6.3-0.1 0.2-0.2 0.1-0.1-0.1-0.1-1.9-1.2-9-1.2-9.4-0.1-0.4-0.9-6.6-0.9-7.2 0 0 0.3-0.9 0.3-1.1 0.1-0.1 0.1 0 0.2 0.1z"/>
		<path id="&lt;Compound Path&gt;" fill-rule="evenodd" class="s0" d="m41.5 8.4c-0.1 0.2-0.1 0.1-0.3-0.1 0 0-0.4-0.4-0.4-0.4 0 0-0.5 1-1.3 1.6-1.4 1.1-2.6 1.3-2.7 1.3-0.2 0.1-0.2 0 0-0.2 1-0.5 2-0.9 3.6-2.8 0 0-0.5-0.2-0.8-0.5-0.4-0.2-0.2-1.1 0-1.4 0.7-1 1.2-0.5 1.3-0.4 0.5 0.9 0.2 1.8 0.2 1.8 0.3 0.2 0.6 0.6 0.4 1.1zm-1-2.3c-0.1-0.1-0.3-0.1-0.6 0.4-0.1 0.1 0 0.2 0.2 0.3 0.2 0.1 0.7 0.3 0.7 0.3 0-0.1 0-0.7-0.3-1z"/>
		<path id="&lt;Path&gt;" class="s0" d="m27 5.6c0.2 0.2 0.1 0.6 0.1 0.9-0.1 0.2-0.2 0-0.4-0.1 0 0-0.1-0.1-0.2-0.2-0.6-0.4-0.7 0.5-0.7 0.9 0 0.3 0.1 1.2 0 1.8 0 0.2-0.1 0.2-0.2 0.1-0.5-1.2-1.2-1.6-1.3-1.7-0.2-0.2-0.2 0-0.2 0.1 0 0.1-0.1 0.1-0.2 0.1 0-0.1-0.5-0.3-0.6-0.4-0.1-0.1-0.1-0.5-0.1-0.7-0.1-0.3 0.1-0.5 0.2-0.4 1.5 0.6 2 1.9 2.1 2.1 0-1-0.1-1.9 0.4-2.7 0.3-0.6 1.1 0.2 1.1 0.2z"/>
		<path id="&lt;Path&gt;" class="s0" d="m10.7 5.4c0 0 0 0.3-0.1 0.6-0.3 1 0 1.5 0 1.6 0.3 0.5 0.7 0.2 0.8-0.2 0.1-0.2 0.2-0.1 0.2 0q-0.1 0.1-0.1 0.3c-0.1 0.7-0.4 0.9-0.6 0.9-0.4 0-0.6-0.5-0.7-0.8-0.1-1.1 0.3-2.1 0.4-2.4 0.1-0.3 0.2-0.2 0.1 0z"/>
		<path id="&lt;Path&gt;" class="s0" d="m20.6 5.2c-0.1 0.2-0.1 0.2-0.2 0.5-0.1 0.2-0.2 0.3-0.5 0.5-0.2 0.1-7.9 3.9-8.1 4-0.4 0.3-0.4 0.1-0.3 0q0-0.1 0.1-0.4c0-0.3 0.1-0.3 0.4-0.5 0.3-0.2 8-4 8.2-4.2 0.5-0.2 0.4 0 0.4 0.1z"/>
	</g>
</svg>