<svg version="1.2" xmlns="http://www.w3.org/2000/svg" viewBox="0 0 70 30" width="70" height="30">
	<title>New Project</title>
	<style>
		.s0 { fill: #191c4f } 
	</style>
	<g id="الأحزاب">
		<path id="&lt;Path&gt;" class="s0" d="m13.6 24.2c-0.1 0.1-0.1 0.1-0.2 0.3-0.1 0.1-0.2 0.2-0.4 0.3-0.2 0.1-5.1 1.5-5.2 1.6-0.3 0.1-0.3 0-0.2-0.1q0 0 0.1-0.3c0-0.1 0.1-0.2 0.3-0.3 0.3-0.1 5.1-1.5 5.3-1.6 0.4-0.2 0.3-0.1 0.3 0.1z"/>
		<path id="&lt;Path&gt;" class="s0" d="m22.1 22.8c0.3 0 0.4 0.5 0.3 0.7-0.1 0.9-0.7 1.5-0.8 1.7-0.1 0.2-0.2 0.1-0.1-0.1 0 0 0.1-0.2 0.2-0.3 0.5-0.8 0.4-1.2 0.4-1.3-0.1-0.4-0.5-0.3-0.6 0-0.1 0.1-0.2 0-0.1 0q0-0.1 0.1-0.2c0.2-0.5 0.5-0.6 0.6-0.5z"/>
		<path id="&lt;Path&gt;" class="s0" d="m10.6 22.4l1 0.7q0 0.1 0 0.1l-0.6 0.8q0 0.1-0.1 0.1l-1-0.8q0 0 0-0.1l0.6-0.8q0 0 0.1 0z"/>
		<path id="&lt;Path&gt;" class="s0" d="m26.7 21.3c0.2 0 0.1 0.1 0.1 0.3 0 0-0.1 0.3-0.2 0.4-0.2 0.2-0.8 0.8-1 1.1-0.1 0.2 0 0.8 0.6 0.8 0.8 0 1.6-0.7 1.8-0.9 0.2-0.2 0.1 0 0 0.1-0.5 0.9-1.3 1.2-1.4 1.3-0.3 0.1-1.5 0.3-1.2-0.9 0.2-0.9 0.9-1.5 0.9-1.5q0.1-0.1-0.1-0.1c-0.8-0.1-0.8 0.2-0.8 0.3-0.1 0-0.1-0.1-0.1-0.1 0.1-0.1 0.2-0.4 0.3-0.5 0.3-0.4 0.9-0.3 1.1-0.3z"/>
		<path id="&lt;Path&gt;" class="s0" d="m64.2 21.1c0 0 0 0.3 0 0.5 0 0.2-0.1 0.5-0.2 0.9-0.1 0.3-0.8 0.4-1.2 0.1-0.8 1.1-1.4 0.6-1.8 0.4-0.7-0.2-0.9 0.2-1 0.4-0.9 0.9-2.4 0.9-2.8 0.9-0.3 0.1 0-0.2 0.1-0.2 1.2-0.5 2-0.5 3.1-1.5 0.4-0.5 0.7-0.3 0.9-0.2 1 0.4 1.2 0 1.3-0.1 0.1-0.1 0.3-0.7 0.4-0.8 0-0.2 0.1-0.1 0.1 0.1 0 0.1-0.1 0.2-0.1 0.3 0.4 0.3 0.8 0.1 0.9 0 0 0 0-0.3 0-0.4q0-0.2 0.1-0.6c0.1-0.2 0.2 0 0.2 0.2z"/>
		<path id="&lt;Path&gt;" class="s0" d="m31.4 18c0 0 0 0.5-0.1 0.7-0.4 1.5-0.1 2.2 0 2.3 0.4 0.8 0.8 0.3 1-0.2 0.1-0.3 0.2-0.2 0.1 0q0 0.1 0 0.4c-0.2 0.9-0.5 1.2-0.8 1.2-0.5 0-0.8-0.7-0.8-1.1-0.2-1.6 0.3-3 0.5-3.4 0.1-0.4 0.2-0.2 0.1 0.1z"/>
		<path id="&lt;Path&gt;" class="s0" d="m19.2 17.6l1 0.8q0.1 0 0 0l-0.5 0.9q-0.1 0-0.1 0l-1-0.8q-0.1 0 0 0l0.5-0.9q0.1 0 0.1 0z"/>
		<path id="&lt;Path&gt;" class="s0" d="m10.5 16.3c0 0-0.1 0.3-0.2 0.5-0.3 1-0.1 1.5 0 1.6 0.3 0.5 0.7 0.2 0.9-0.2 0-0.2 0.1-0.1 0.1 0q0 0.1-0.1 0.3c-0.1 0.6-0.4 0.8-0.6 0.8-0.5 0-0.7-0.5-0.7-0.7-0.1-1.1 0.3-2.1 0.4-2.3 0.1-0.3 0.2-0.2 0.2 0z"/>
		<path id="&lt;Compound Path&gt;" fill-rule="evenodd" class="s0" d="m30.8 16.2l-0.7 1.4c0 0-0.4 0.2-0.9 0.6-0.4 0.2-3.1 1.4-4.8 2.2 0.1 0.3 0.1 0.5 0.1 0.6-0.1 0.3-0.2 0.2-0.3 0.1q-0.1-0.2-0.4-0.4-0.5 0.2-0.6 0.2c-2 0.8-3.8 2.6-4.2 3.1-1.6 2-2.6 1.8-3.1 1.8-3.4-0.9-0.5-5.5-0.2-5.9 0.3-0.3 0.4-0.1 0.2 0.2-1.3 1.8-1.3 3.6-1.2 3.9 0.4 1.2 1.3 0.9 1.8 0.7 0.7-0.3 2-1.7 2.4-2.1 1.1-1.3 3.5-2.5 4-2.7q0.1 0 0.1-0.1c-0.7-0.7-1.4-1.3-1.5-1.4-0.3-0.3-0.5-0.9-0.4-1.4 0.2-0.6 1-1.2 1.5-1.2 3.3-0.7 7.7 0.3 8.2 0.4zm-1.9 0.9c-3.5-0.9-6.4-0.2-6.8-0.1-0.4 0.1-0.3 0.3-0.2 0.5 0.1 0.1 1.4 1.2 1.6 1.3q0.3 0.4 0.5 0.7c2.1-1 4.6-2.1 4.9-2.4z"/>
		<path id="&lt;Compound Path&gt;" fill-rule="evenodd" class="s0" d="m45.5 19.7c-0.3 1-1.7 1.5-2 1.6-1.3 0.4-1.4-0.8-1.3-1.7 0.1-1 0.7-2.1 0.7-2.1 0-0.1-1.4-1.1-1.5-1.2-0.1-0.1-0.2-0.3-0.3-0.4-0.1 0-0.1-0.1-0.1-0.1 0 0 0-0.9 0-1.1 0-0.1 0.1 0 0.2 0 0.1 0.1 1.5 0.6 1.7 0.7 0.1 0.1 0.1 0.2 0 0.2-0.1 0.1-0.6 0.2-0.6 0.2l1.2 0.8c0 0 1.6-2.1 1.8-2.3 0.2-0.2 0.1-0.1 0.1 0.1 0 0.2-0.3 1.1-0.4 1.3-0.1 0.1-0.9 1.3-0.9 1.3 0 0 1.1 0.6 1.3 1 0.5 0.7 0.2 1.3 0.1 1.7zm-2.1-1.9c0 0-0.7 1.2-0.8 1.5-0.3 0.7 0.4 0.9 0.7 0.8 0.3 0 1.3-0.5 1.7-0.9 0.5-0.4-1.3-1.3-1.6-1.4z"/>
		<path id="&lt;Compound Path&gt;" fill-rule="evenodd" class="s0" d="m65.7 18.5c-0.1 0.2-0.3 1.2-1.7 0.9-0.3-0.1-1-0.2-1.3-0.9-0.3 0.4-1.1 1.7-2.6 1.4-0.3 0-1.4-0.4-1.4-1.8 0 0-1.3 1-1.9 1.4 0.1 0.4 0 1-0.2 1.6-0.2 0.6-2.9 3.7-5.1 4.1-0.7 0.2-3.6 0.7-3.7-2.4 0-0.7 0.1-1.2 0.1-1.5-1.7 1.3-3.8 2.4-4.4 2.6-0.9 0.5-4.1 1-4.7 1.1-0.4 0.1-0.5 0-0.2-0.1 0.2-0.2 7.3-2.6 11-6.5q0.2-0.2 0-0.4c-0.1-0.2-1.3-2.5-1.4-2.8-0.1-0.3-0.2-0.6-0.3-0.7q-0.1-0.2 0-0.4c0-0.1 0.1-0.7 0.1-0.8 0.1-0.2 0.1-0.1 0.2 0 0.1 0.1 1.2 1.3 1.4 1.4 0.1 0.2 0 0.2 0 0.2-0.1 0-0.7 0-0.7 0 0 0 0.8 1.3 1 1.8 0.5 1.1 0.2 1.9 0.1 2.3-0.4 0.7-1 1.3-1.7 1.9-0.1 0.6-0.4 3.2 2 3.2 0.4 0.1 1.6 0.2 4.1-1.8 0.5-0.4 1.2-1 1.7-1.7 0.2-0.4 0.4-0.9 0-0.8-0.4 0-2.9 0.9-3.3-0.6-0.1-0.4 0.1-4 2.6-2.2 0.2 0.2 0.7 0.6 1.1 1.3 0.4-0.2 1.2-0.6 2.1-1.4 0.3-0.2 0.6-0.4 0.5 0 0 0.3-0.2 2.4 2.1 1.8 0.3-0.1 1.2-0.3 1.9-2.1 0.2-0.4 0.5-0.3 0.3 0-0.1 0.5-0.4 0.8-0.2 1.1 0.3 0.2 0.9 0.6 1.7 0.5 0.3 0 0.4-0.1 0.3-0.4-0.1-0.2-0.3-0.6-0.3-0.6 0-0.3 0.1-0.8 0.2-0.9 0-0.1 0.1-0.2 0.2-0.1 0 0.1 0.8 1 0.4 2.3zm-10.3 0.1c-0.8-1.1-1.8-0.4-1.9-0.3-0.1 0.1-0.1 0.4 0.6 0.5 1 0 1.3-0.2 1.3-0.2z"/>
		<path id="&lt;Path&gt;" class="s0" d="m21 13c0 0-0.1 0.2-0.2 0.4-0.3 1-0.2 1.4-0.1 1.5 0.3 0.5 0.7 0.3 0.8-0.1 0.1-0.2 0.1-0.1 0.1 0q0 0.1-0.1 0.3c-0.1 0.6-0.4 0.7-0.6 0.7-0.4 0-0.6-0.5-0.6-0.7 0-1.1 0.4-1.9 0.5-2.2 0.2-0.3 0.2-0.2 0.2 0.1z"/>
		<path id="&lt;Path&gt;" class="s0" d="m6 12.8c0 0-0.1 0.4-0.2 0.7-0.3 1.6-0.1 2.3 0 2.4 0.4 0.8 0.9 0.3 1.1-0.3 0-0.3 0.1-0.1 0.1 0q0 0.2-0.1 0.5c-0.2 0.9-0.5 1.2-0.7 1.2q-0.1 0-0.2 0 0 0 0 0c-0.3 0.5-0.5 1.4-0.5 1.7-0.1 1.8 2.3 1.9 2.8 1.9 4.5-0.3 6.4-1.9 6.6-2.1 0.2-0.2-0.7-1.3-0.8-1.5 0 0 0.1-0.9 0.2-1.1q0.1-0.3 0.2 0c0.1 0.2 0.7 1 0.8 1.4 0.3 0.8-0.1 1.7-0.2 1.9-0.7 0.9-2.3 1.6-3.4 1.9-4.7 1.4-5.9 0.1-6-0.1-1.5-1.6-0.1-3.9 0-4.1q0.1 0 0.1-0.1c-0.3-0.2-0.4-0.6-0.4-0.9-0.2-1.7 0.3-3.1 0.4-3.5 0.1-0.5 0.3-0.3 0.2 0.1z"/>
		<path id="&lt;Path&gt;" class="s0" d="m44.1 12l1.1 0.7q0 0.1 0 0.1l-0.6 0.8q-0.1 0.1-0.1 0.1l-1-0.8-0.5 0.7q0 0.1-0.1 0.1l-1-0.8q0 0 0-0.1l0.6-0.8q0 0 0.1 0l0.9 0.7 0.6-0.7q0 0 0 0z"/>
		<path id="&lt;Path&gt;" class="s0" d="m63.1 12.1c0 0-0.1 0.2-0.2 0.4-0.3 0.9-0.1 1.3-0.1 1.4 0.3 0.4 0.6 0.2 0.8-0.1 0-0.2 0.1-0.1 0-0.1q0 0.1 0 0.3c-0.2 0.6-0.4 0.7-0.6 0.7-0.3 0-0.4-0.5-0.5-0.7 0-0.9 0.4-1.8 0.5-2 0.1-0.2 0.2-0.1 0.1 0.1z"/>
		<path id="&lt;Path&gt;" class="s0" d="m25.9 11.8c0.6 0.1 0.4 0.4 0.3 0.6-0.4 0.6-1 0.9-1.4 1-0.4 0.2-0.2-0.1 0-0.3 0 0 0.3-0.1 0.7-0.4 0.3-0.3-0.7-0.2-1.1-0.2-0.4 0-0.5 0.1-0.6 0.3-0.1 0.1-0.3 0-0.2-0.2 0.1-0.1 0.2-0.3 0.5-0.7 0.3-0.3 1.2-0.2 1.8-0.1z"/>
		<path id="&lt;Path&gt;" class="s0" d="m9.4 11.7c0 0-0.1 0.3-0.2 0.5-0.3 1.1 0 1.5 0 1.6 0.4 0.6 0.8 0.3 0.9-0.1 0.1-0.3 0.2-0.2 0.2-0.1q-0.1 0.1-0.1 0.4c-0.2 0.6-0.5 0.8-0.7 0.8-0.4 0-0.7-0.5-0.7-0.8-0.1-1.1 0.3-2.1 0.5-2.4 0.1-0.3 0.2-0.2 0.1 0.1z"/>
		<path id="&lt;Path&gt;" class="s0" d="m53 11.5c0 0-0.1 0.3-0.1 0.5-0.4 1-0.2 1.4-0.1 1.5 0.2 0.5 0.6 0.2 0.7-0.1 0.1-0.2 0.1-0.1 0.1 0q0 0 0 0.2c-0.2 0.6-0.5 0.8-0.6 0.8-0.4 0-0.6-0.5-0.6-0.7 0-1.1 0.4-2 0.5-2.2 0.1-0.3 0.2-0.2 0.1 0z"/>
		<path id="&lt;Path&gt;" class="s0" d="m25.4 8.8c0 0.1-0.1 0.1-0.1 0.3-0.1 0.2-0.2 0.2-0.4 0.3-0.1 0.1-5.9 2.8-6.5 3.2-0.6 0.4-0.6 0.6-0.4 0.6 0.4 0.2 0.6 0.5 0.4 1 0 0-0.1 0-0.1 0-0.1-0.1-0.2-0.2-0.4-0.3-0.3 0-0.4-0.5-0.3-1 0.1-0.3 0.3-0.6 0.5-0.8 0.5-0.4 6.9-3.3 7.1-3.4 0.3-0.2 0.2-0.1 0.2 0.1z"/>
		<path id="&lt;Path&gt;" class="s0" d="m12.8 7.8c0 0-0.1 0.4-0.2 0.7-0.4 1.5-0.1 2.2 0 2.3 0.4 0.7 0.9 0.3 1.1-0.3 0.1-0.2 0.2-0.1 0.2 0q-0.1 0.2-0.1 0.5c-0.2 0.9-0.6 1.1-0.8 1.2-0.6 0-0.9-0.7-0.9-1.1-0.2-1.6 0.4-3 0.5-3.4 0.1-0.4 0.3-0.3 0.2 0.1z"/>
		<path id="&lt;Path&gt;" class="s0" d="m52.1 7.4c0 0.1 0 0.2-0.1 0.3-0.1 0.2-0.2 0.2-0.4 0.4-0.1 0.1-5.4 3.1-5.5 3.2-0.3 0.2-0.3 0-0.3-0.1q0.1 0 0.1-0.2c0-0.2 0.1-0.2 0.3-0.4 0.2-0.1 5.5-3.1 5.7-3.3 0.3-0.2 0.3 0 0.2 0.1z"/>
		<path id="&lt;Path&gt;" class="s0" d="m58.5 7.7c0.2 0.3 0.1 0.7 0 0.9-0.1 0.2-0.2 0-0.4-0.1 0 0-0.1-0.2-0.2-0.3-0.5-0.4-0.7 0.5-0.8 0.9-0.1 0.3-0.1 1.3-0.2 1.8 0 0.3-0.2 0.2-0.2 0.1-0.4-1.2-1.1-1.8-1.2-1.9-0.1-0.2-0.2 0-0.2 0.1-0.1 0.1-0.1 0.1-0.2 0-0.1 0-0.5-0.3-0.6-0.4-0.1-0.1-0.1-0.6-0.1-0.8 0-0.3 0.3-0.4 0.4-0.4 1.4 0.8 1.8 2.2 1.9 2.5 0.1-1.1 0.1-2 0.7-2.7 0.4-0.6 1.1 0.2 1.1 0.3z"/>
		<path id="&lt;Compound Path&gt;" fill-rule="evenodd" class="s0" d="m63.7 10c0 0.1-0.1 0-0.2-0.1-0.1-0.1-0.2-0.3-0.4-0.4-0.2 0.5-0.2 0.5-1.1 1.3-1.9 1.7-4 2.2-4.2 2.3-0.1 0-0.1-0.1 0.1-0.2 0.7-0.5 3.4-1.8 4.9-3.5 0 0-0.5-0.2-0.8-0.4-0.3-0.2-0.1-1 0.1-1.4 0.5-0.8 1-0.4 1.1-0.2 0.5 0.8 0.2 1.6 0.2 1.6 0.3 0.1 0.5 0.4 0.3 1zm-0.9-2.1c-0.1-0.1-0.2-0.1-0.5 0.3-0.1 0.1 0 0.2 0.2 0.3 0.2 0.1 0.6 0.3 0.6 0.3 0-0.1 0-0.6-0.3-0.9z"/>
		<path id="&lt;Path&gt;" class="s0" d="m10.5 7.4c0.1 0.2 0.1 0.6 0 0.8-0.1 0.2-0.2 0-0.4-0.1 0 0-0.1-0.1-0.2-0.2-0.5-0.5-0.7 0.4-0.8 0.8 0 0.2 0 1.2-0.1 1.7-0.1 0.3-0.2 0.2-0.3 0.1-0.3-1.2-1-1.7-1.1-1.8-0.1-0.2-0.2 0-0.2 0.1 0 0.1-0.1 0-0.2 0 0 0-0.4-0.3-0.5-0.4-0.2-0.1-0.1-0.6-0.1-0.7 0-0.4 0.2-0.5 0.3-0.4 1.4 0.8 1.8 2.1 1.9 2.3 0.1-1 0.1-1.9 0.6-2.6 0.4-0.5 1.1 0.3 1.1 0.4z"/>
		<path id="&lt;Compound Path&gt;" fill-rule="evenodd" class="s0" d="m43.9 9.7c-0.1 0.1-0.2 0-0.3-0.1 0-0.1-0.4-0.4-0.4-0.4 0 0-0.4 0.9-1.1 1.5-1.3 1-2.4 1.1-2.5 1.2-0.1 0-0.1-0.1 0.1-0.3 0.8-0.4 1.8-0.8 3.2-2.5 0 0-0.5-0.2-0.8-0.4-0.3-0.2-0.1-1 0.1-1.3 0.6-0.9 1-0.5 1.1-0.3 0.5 0.8 0.2 1.6 0.2 1.6 0.3 0.1 0.5 0.4 0.4 1zm-1-2.1c-0.1-0.1-0.2-0.1-0.5 0.3-0.1 0.1 0 0.2 0.2 0.3 0.2 0.1 0.6 0.3 0.6 0.3 0-0.1 0.1-0.6-0.3-0.9z"/>
		<path id="&lt;Path&gt;" class="s0" d="m32.2 6.5c0 0 0 0.3-0.1 0.5-0.3 1.1-0.1 1.6 0 1.7 0.3 0.6 0.7 0.3 0.8-0.2 0-0.2 0.1-0.1 0.1 0q0 0.1-0.1 0.4c-0.1 0.7-0.4 0.8-0.6 0.8-0.3 0-0.5-0.5-0.6-0.8-0.1-1.2 0.3-2.2 0.4-2.5 0.1-0.3 0.2-0.2 0.1 0.1z"/>
		<path id="&lt;Path&gt;" class="s0" d="m35 6.1c0.1 0.1 1.3 3.1 1.4 3.3 0 0.2-0.1 0.2-0.2 0.1-0.1-0.1-0.7-0.7-0.7-0.7 0 0 1.2 7.1 1.3 7.9 0.3 2.2-0.1 3.5-0.6 4.6-1.6 2.7-5.9 3.2-6.2 3.2-0.3 0.1-0.4-0.1 0-0.3 3.4-1.4 5.1-2.7 5.8-3.7q0-0.1 0-0.3c-0.1-2-2.6-4-3.1-4.5-0.1-0.2-0.9-1-1.9-2.1 0 0-0.5-0.5-0.7-0.8-0.4-0.5-0.7-0.8-1.2-1.3-0.4-0.5-0.7-1-0.8-1.1-0.1-0.1-0.2-0.1-0.2-0.2-0.1-0.1-0.2-1.2-0.2-1.3 0-0.2 0.1-0.1 0.3 0.1 0.2 0.1 2 1.4 2.2 1.5 0.1 0.2-0.1 0.1-0.2 0.1-0.2 0-0.8 0-0.8 0 0 0 0.8 0.8 0.9 1 0.4 0.5 1.6 1.8 1.8 2 1.5 1.5 2.9 2.8 3.4 3.7 0.7 1.2 0.8 2.1 0.8 2.7q0.1-0.4 0.1-0.7c0.1-0.6-0.4-3.6-0.4-4.1-0.4-2.7-1-5.9-1.2-7.3-0.1-0.4-0.2-0.6-0.3-0.6 0 0 0.6-1.1 0.6-1.2 0.1-0.1 0.1-0.1 0.1 0z"/>
		<path id="&lt;Path&gt;" class="s0" d="m15.5 6.1c0 0.1 1.2 3.1 1.3 3.2 0.1 0.2-0.1 0.2-0.2 0.1-0.1-0.1-0.7-0.6-0.7-0.6 0 0 1.1 6.4 1.1 6.7 1 4.8 0 6.5-0.1 6.7-0.1 0.2-0.2 0.1-0.1-0.1 0.5-2.6-0.9-9-1-9.5 0-0.4-0.8-5-0.8-5.5 0 0 0.3-1 0.3-1.1 0.1-0.1 0.1 0 0.2 0.1z"/>
		<path id="&lt;Path&gt;" class="s0" d="m28 6.2c0.1 0.2-0.1 0.4-0.2 0.5q0 0.2-0.2 0c-0.2-0.3-0.6-0.1-0.7 0-0.1 0-0.1 0.2 0.3 0.5 0.4 0.3 1.1 0.1 1.3 0 0.2 0 0.3 0 0.3 0.1 0 0.1-0.1 0.4-0.1 0.4-0.7 0.1-1.7 0.7-2 0.8q0 0-0.2 0c0 0.1 0 0 0 0q0-0.1 0-0.4c0.1-0.1 0.3-0.2 0.4-0.3 0 0-0.3-0.2-0.5-0.5-0.2-0.3 0.3-1 0.8-1.3 0.5-0.2 0.8 0.1 0.8 0.2z"/>
		<path id="&lt;Path&gt;" class="s0" d="m37.8 6c0 0.1 1.3 3 1.3 3.2 0.1 0.2 0 0.2-0.1 0.1-0.1-0.1-0.7-0.6-0.7-0.6 0 0 1.1 8 1.1 8.2q0.3 2.4 0.2 3.5c0 1-0.2 1.4-0.3 1.5 0 0.2-0.1 0.1-0.1-0.1 0-0.5-0.1-1.6-0.3-2.8-0.3-2.5-1.4-10.2-1.5-11.5-0.1-0.1-0.2-0.5-0.2-0.6 0 0 0.4-0.9 0.5-1 0-0.1 0 0 0.1 0.1z"/>
		<path id="&lt;Path&gt;" class="s0" d="m21.8 5.9c0.1 0.2 0 0.6-0.1 0.8 0 0.2-0.2 0-0.3-0.1 0 0-0.1-0.1-0.2-0.2-0.5-0.4-0.7 0.4-0.8 0.8 0 0.3-0.1 1.2-0.1 1.8-0.1 0.2-0.2 0.2-0.3 0-0.3-1.2-1-1.7-1.1-1.8-0.1-0.2-0.2 0-0.2 0.1 0 0.1-0.1 0.1-0.2 0 0 0-0.4-0.2-0.5-0.4-0.2-0.1-0.1-0.5-0.1-0.7 0-0.3 0.2-0.4 0.3-0.4 1.4 0.8 1.8 2.1 1.9 2.3 0-1 0.1-1.9 0.6-2.5 0.4-0.6 1.1 0.2 1.1 0.3z"/>
		<path id="&lt;Path&gt;" class="s0" d="m29.4 4.2c0 0.1 0 0.1-0.1 0.3-0.1 0.2-0.3 0.3-0.5 0.4-0.2 0.1-4.6 2-4.7 2-0.4 0.2-0.3 0.1-0.3-0.1q0.1 0 0.1-0.3c0.1-0.1 0.2-0.2 0.4-0.3 0.3-0.1 4.6-2 4.9-2.1 0.4-0.2 0.3 0 0.2 0.1z"/>
	</g>
</svg>