<svg version="1.2" xmlns="http://www.w3.org/2000/svg" viewBox="0 0 70 30" width="70" height="30">
	<title>New Project</title>
	<style>
		.s0 { fill: #191c4f } 
	</style>
	<g id="سبأ">
		<path id="&lt;Path&gt;" class="s0" d="m8.6 26.6c-0.1 0.1-0.1 0.1-0.1 0.2-0.1 0.2-0.2 0.2-0.4 0.3-0.1 0.1-3.2 1.4-3.3 1.4-0.3 0.2-0.3 0-0.2 0q0-0.1 0-0.3c0.1-0.1 0.1-0.2 0.3-0.3 0.2-0.1 3.3-1.3 3.5-1.4 0.3-0.2 0.2 0 0.2 0.1z"/>
		<path id="&lt;Path&gt;" class="s0" d="m8.8 25.3c0 0.1-0.1 0.1-0.1 0.3-0.1 0.1-0.2 0.1-0.3 0.2-0.2 0.1-3.3 1.4-3.4 1.4-0.3 0.2-0.3 0.1-0.2 0q0 0 0-0.3c0.1-0.1 0.2-0.1 0.3-0.2 0.2-0.1 3.3-1.4 3.5-1.5 0.3-0.1 0.2 0 0.2 0.1z"/>
		<path id="&lt;Path&gt;" class="s0" d="m13.3 23.7l1.3 1q0.1 0 0.1 0.1l-0.8 1.1q-0.1 0-0.1 0l-1.4-1q0 0 0-0.1l0.8-1.1q0 0 0.1 0z"/>
		<path id="&lt;Path&gt;" class="s0" d="m7.7 22.6c0 0.1 0 0.2 0 0.3-0.1 0.1-0.3 0.3-0.4 0.4q-0.1 0.1-0.1 0c-0.3-0.3-0.6-0.2-0.8-0.1-0.3 0.2-0.3 0.4-0.2 0.5 0.1 0.2 0.5 0.5 0.8 0.5 0.4 0.1 1.2-0.1 1.5-0.3 0.3-0.2 0.1 0.2 0 0.3 0 0-0.2 0.4-0.4 0.4-1.5 0.3-2.1 0.9-2.3 1-0.3 0.1-0.2 0-0.2-0.1 0.1-0.1 0.1-0.1 0.2-0.3q0.1-0.3 0.3-0.4 0 0-0.4-0.3c-0.5-0.5 0.6-1.6 1.1-2 0.5-0.4 0.8 0 0.9 0.1z"/>
		<path id="&lt;Path&gt;" class="s0" d="m28.3 22.1c0 0 0.1 0.4 0.1 0.7 0 0.3-0.2 0.7-0.3 1.1-0.2 0.4-1.1 0.6-1.6 0.2-1 1.5-1.9 0.8-2.4 0.6-0.9-0.4-1.1 0.2-1.3 0.5-1.2 1.2-3.2 1.2-3.7 1.2-0.4 0.1 0-0.2 0.2-0.3 1.6-0.6 2.5-0.7 4-2 0.6-0.7 1-0.4 1.2-0.3 1.3 0.6 1.5 0 1.7-0.1 0.2-0.2 0.4-0.9 0.5-1.1 0.1-0.2 0.3-0.1 0.2 0.2 0 0.1-0.1 0.3-0.1 0.4 0.5 0.4 1.1 0.1 1.2 0 0 0 0-0.4-0.1-0.6q0-0.2 0.2-0.7c0.1-0.3 0.2 0 0.2 0.2z"/>
		<path id="&lt;Path&gt;" class="s0" d="m63.1 20.9c0 0 0 0.4 0 0.6 0 0.3-0.1 0.8-0.3 1.2-0.1 0.4-1 0.6-1.5 0.2-1 1.5-1.9 0.7-2.4 0.5-0.9-0.3-1.1 0.3-1.4 0.5-1.1 1.3-3.1 1.2-3.6 1.3-0.5 0 0-0.3 0.1-0.4 1.6-0.5 2.6-0.6 4-2 0.7-0.6 1.1-0.3 1.3-0.2 1.3 0.6 1.5 0 1.7-0.2 0.2-0.1 0.4-0.8 0.5-1 0.1-0.3 0.2-0.1 0.2 0.1 0 0.1-0.1 0.4-0.1 0.5 0.5 0.4 1.1 0.1 1.2-0.1 0 0-0.1-0.4-0.1-0.5q0-0.2 0.2-0.7c0.1-0.4 0.2 0 0.2 0.2z"/>
		<path id="&lt;Path&gt;" class="s0" d="m20.9 13.2c0 0-0.1 0.4-0.2 0.7-0.4 1.4-0.1 2.1 0 2.2 0.4 0.7 1 0.3 1.2-0.2 0.1-0.3 0.2-0.2 0.1-0.1q0 0.2 0 0.5c-0.3 0.9-0.6 1.1-0.9 1.1-0.6 0-0.9-0.7-1-1-0.2-1.6 0.5-2.9 0.6-3.3 0.2-0.4 0.3-0.2 0.2 0.1z"/>
		<path id="&lt;Compound Path&gt;" fill-rule="evenodd" class="s0" d="m38.4 19c-0.4 1.3-2.3 2.1-2.7 2.2-1.7 0.5-1.8-1.1-1.7-2.4 0.1-1.2 1-2.7 1-2.7-0.1-0.1-1.9-1.5-2-1.6-0.1-0.1-0.3-0.3-0.5-0.4-0.1-0.1-0.1-0.2-0.1-0.2 0 0 0-1.3 0-1.4 0-0.2 0.1-0.1 0.2-0.1 0.2 0.1 2.1 0.9 2.3 1 0.2 0.1 0.1 0.2 0 0.2-0.1 0.1-0.7 0.2-0.7 0.2l1.5 1.2c0 0 2.2-2.9 2.4-3.1 0.2-0.3 0.2-0.2 0.2 0.1-0.1 0.3-0.5 1.5-0.6 1.7-0.1 0.2-1.2 1.7-1.2 1.7 0 0 1.4 0.9 1.8 1.4 0.6 0.9 0.2 1.7 0.1 2.2zm-2.7-2.5c0 0-1 1.7-1.2 2-0.4 1 0.6 1.2 1 1.1 0.3 0 1.6-0.7 2.2-1.2 0.6-0.5-1.7-1.7-2-1.9z"/>
		<path id="&lt;Path&gt;" class="s0" d="m4.8 11.3c0 0-0.1 0.4-0.2 0.8-0.4 1.6-0.1 2.3 0 2.5 0.5 0.8 1 0.3 1.2-0.3 0.1-0.3 0.2-0.2 0.2 0q0 0.1-0.1 0.5c-0.2 1-0.6 1.3-0.9 1.3-0.6 0-0.9-0.8-1-1.2-0.2-1.8 0.5-3.3 0.6-3.8 0.2-0.4 0.3-0.2 0.2 0.2z"/>
		<path id="&lt;Compound Path&gt;" fill-rule="evenodd" class="s0" d="m65.1 17.5c-0.1 0.3-0.4 1.5-2.2 1.2-0.4-0.1-1.3-0.3-1.7-1.3-0.4 0.6-1.5 2.2-3.5 1.9-0.4 0-1.8-0.6-1.9-2.3 0 0-1.7 1.3-2.4 1.7 0 0.6 0 1.4-0.3 2.2-0.3 0.8-3.9 4.8-6.8 5.5-1 0.2-4.7 0.9-4.8-3.3-0.1-0.8 0-1.5 0-2-2.2 1.8-5 3.2-5.8 3.6-1.2 0.5-5.5 1.3-6.2 1.4-0.5 0.1-0.6-0.1-0.3-0.2 0.3-0.2 9.7-3.4 14.6-8.6 0.2-0.1 0.1-0.3 0-0.6-0.1-0.2-1.7-3.2-1.8-3.6-0.2-0.4-0.4-0.8-0.4-1q-0.1-0.2-0.1-0.4c0-0.2 0.2-1 0.2-1.2 0.1-0.1 0.2-0.1 0.3 0.1 0 0.1 1.6 1.6 1.8 1.8 0.2 0.2 0 0.3-0.1 0.3 0 0-0.8 0-0.8 0 0 0 1 1.7 1.4 2.4 0.6 1.4 0.2 2.5 0 3-0.4 0.9-1.3 1.8-2.2 2.6-0.2 0.7-0.5 4.1 2.7 4.2 0.5 0 2.1 0.2 5.3-2.4 0.8-0.6 1.6-1.3 2.3-2.3 0.3-0.4 0.5-1.1 0-1.1-0.5 0.1-3.9 1.3-4.4-0.7-0.1-0.5 0.2-5.3 3.5-2.9 0.3 0.2 0.9 0.7 1.4 1.7 0.6-0.3 1.6-0.9 2.9-1.9 0.3-0.3 0.7-0.5 0.6 0 0 0.4-0.2 3.2 2.8 2.4 0.3-0.1 1.6-0.4 2.5-2.8 0.3-0.5 0.6-0.4 0.4 0.1-0.2 0.5-0.5 1-0.2 1.3 0.3 0.3 1.1 0.9 2.2 0.8 0.4-0.1 0.5-0.2 0.4-0.5-0.1-0.3-0.5-0.9-0.5-0.9 0.1-0.4 0.3-1 0.3-1.2 0-0.2 0.1-0.3 0.2-0.2 0.2 0.2 1.1 1.5 0.6 3.2zm-13.6 0.1c-1.1-1.4-2.3-0.6-2.5-0.4-0.1 0.1-0.2 0.5 0.8 0.6 1.3 0.1 1.7-0.2 1.7-0.2z"/>
		<path id="&lt;Path&gt;" class="s0" d="m28.5 10.2c0 0-0.2 0.5-0.3 0.8-0.5 1.7-0.1 2.4 0 2.6 0.5 0.8 1.2 0.3 1.4-0.3 0.1-0.3 0.2-0.2 0.2 0q0 0.1-0.1 0.5c-0.2 1-0.7 1.3-1.1 1.3-0.6 0-1-0.8-1.1-1.2-0.2-1.8 0.6-3.4 0.7-3.8 0.2-0.5 0.4-0.3 0.3 0.1z"/>
		<path id="&lt;Path&gt;" class="s0" d="m36.6 8.8l1.3 1q0.1 0.1 0 0.1l-0.8 1.1q0 0.1-0.1 0l-1.3-0.9-0.6 0.9q-0.1 0.1-0.2 0l-1.3-1q0 0 0-0.1l0.8-1q0-0.1 0.1-0.1l1.3 1 0.7-0.9q0-0.1 0.1-0.1z"/>
		<path id="&lt;Path&gt;" class="s0" d="m61.7 8.9c0 0-0.1 0.3-0.2 0.6-0.4 1.1-0.2 1.7-0.1 1.8 0.3 0.6 0.7 0.3 0.9-0.2 0.1-0.2 0.1-0.1 0.1 0q0 0.1-0.1 0.4c-0.2 0.7-0.5 0.9-0.7 0.9-0.4 0-0.6-0.6-0.7-0.9 0-1.3 0.5-2.4 0.6-2.7 0.2-0.3 0.3-0.2 0.2 0.1z"/>
		<path id="&lt;Path&gt;" class="s0" d="m48.3 8.2c0 0-0.1 0.4-0.2 0.6-0.4 1.3-0.2 1.9-0.1 2 0.3 0.6 0.8 0.3 1-0.2 0.1-0.2 0.2-0.1 0.1 0q0 0.1-0.1 0.4c-0.2 0.8-0.5 1-0.7 1-0.5 0-0.7-0.7-0.8-1-0.1-1.4 0.5-2.5 0.7-2.9 0.1-0.3 0.2-0.2 0.1 0.1z"/>
		<path id="&lt;Path&gt;" class="s0" d="m30.6 6.8c-0.1 0.2-0.2 0.2-0.3 0.5-0.1 0.3-0.3 0.3-0.6 0.5-0.3 0.2-14 6.5-14.2 6.6-0.6 0.3-0.5 0.1-0.4-0.1q0 0 0.1-0.5c0.1-0.2 0.2-0.3 0.6-0.5 0.4-0.2 14-6.5 14.4-6.7 0.5-0.2 0.4 0 0.4 0.2z"/>
		<path id="&lt;Path&gt;" class="s0" d="m7.2 4.9c0.3 1 0.9 11.7 0.9 12.3 0.4 3.3 1.6 3.7 2.1 3.7 2.1 0.3 2.8-1.6 3.2-2.1 0.4-0.6 0.5 0 0.4 0.2 0.4 1.6 2.8 1.8 3.6 1.8 3 0.2 5.9-1.9 6.4-2.3 0.6-0.3 0.4 0.3 0.2 0.7 0.7 2.4 3.4 0.8 4.1-1.3 0.2-0.4 0.4-0.1 0.2 0.2-0.1 0.3-0.2 0.7-0.3 0.9 0.6 1 1.8 0.9 2.1 0.8 0.3-0.1-0.2-1-0.3-1.4 0 0 0.3-1 0.4-1.1 0.1-0.1 0.1-0.3 0.2 0 1.2 2.3 0 3.4-0.4 3.7-1.2 0.9-2.1-0.1-2.6-0.6-0.6 1.2-1.8 1.5-2.2 1.5-1.6 0-1.9-1.5-2-1.7-2.7 1.7-4.7 2-5.8 2.1-0.8 0-1.7 0-2-0.1-1.7-0.4-2.2-1.7-2.2-1.7 0 0-0.9 1.7-2.2 1.9-2.5 0.4-3-1.6-3.3-2.5-0.2-0.9-0.5-5.8-0.6-6.7-0.1-2.5-0.6-7.1-0.6-7.3 0-0.2 0.7-1.2 0.7-1z"/>
		<path id="&lt;Path&gt;" class="s0" d="m28.4 3.2c-0.1 0.2-0.1 0.2-0.2 0.5-0.1 0.2-0.3 0.3-0.5 0.5-0.2 0.1-16.4 7.4-17.3 7.9-0.9 0.5-0.8 0.9-0.6 1 0.7 0.2 1 0.6 0.6 1.3 0 0.1-0.1 0.1-0.1 0-0.1-0.1-0.3-0.3-0.6-0.3-0.5-0.1-0.6-0.8-0.4-1.5 0.1-0.5 0.4-0.9 0.8-1.2 0.7-0.5 17.7-8.1 17.9-8.3 0.5-0.3 0.4-0.1 0.4 0.1z"/>
		<path id="&lt;Path&gt;" class="s0" d="m47.2 2.7c-0.1 0.2-0.1 0.2-0.2 0.5-0.1 0.2-0.2 0.3-0.5 0.4-0.2 0.2-7.2 4.2-7.3 4.3-0.5 0.2-0.4 0.1-0.4-0.1q0 0 0.1-0.4c0.1-0.2 0.2-0.2 0.4-0.4 0.3-0.2 7.3-4.2 7.5-4.3 0.5-0.3 0.4-0.1 0.4 0z"/>
		<path id="&lt;Path&gt;" class="s0" d="m55.6 3.2c0.2 0.3 0.1 0.8-0.1 1.1 0 0.3-0.2 0-0.4-0.1 0 0-0.2-0.2-0.3-0.4-0.7-0.6-1 0.6-1.1 1.2 0 0.4-0.1 1.7-0.2 2.4-0.1 0.3-0.3 0.3-0.3 0.1-0.5-1.6-1.4-2.4-1.6-2.6-0.2-0.1-0.3 0.1-0.3 0.2 0 0.1-0.1 0.1-0.2 0.1-0.1-0.1-0.6-0.4-0.8-0.6-0.2-0.2-0.1-0.8-0.1-1 0-0.5 0.3-0.6 0.4-0.5 1.9 1 2.5 2.9 2.6 3.1 0.1-1.3 0.2-2.6 0.9-3.5 0.6-0.8 1.5 0.3 1.5 0.5z"/>
		<path id="&lt;Compound Path&gt;" fill-rule="evenodd" class="s0" d="m62.5 6.1c0 0.2-0.1 0.1-0.3-0.1-0.1-0.1-0.2-0.3-0.5-0.5-0.3 0.6-0.3 0.7-1.4 1.7-2.6 2.2-5.4 3-5.6 3.1-0.1 0-0.2-0.1 0.1-0.3 0.9-0.7 4.6-2.3 6.4-4.6 0 0-0.5-0.3-1-0.6-0.4-0.3-0.1-1.3 0.1-1.7 0.8-1.2 1.4-0.6 1.5-0.4 0.6 1.1 0.3 2.1 0.3 2.1 0.3 0.2 0.7 0.6 0.4 1.3zm-1.2-2.7c-0.1-0.1-0.3-0.1-0.7 0.4-0.1 0.1 0 0.3 0.3 0.4 0.2 0.1 0.8 0.4 0.8 0.4 0-0.2 0-0.8-0.4-1.2z"/>
		<path id="&lt;Path&gt;" class="s0" d="m15.8 3.1c0.1 0.3 0 0.8-0.1 1.2-0.1 0.2-0.3 0-0.4-0.2 0 0-0.2-0.2-0.3-0.4-0.7-0.5-1 0.6-1.1 1.2 0 0.4-0.1 1.7-0.2 2.4 0 0.3-0.2 0.3-0.3 0.1-0.5-1.6-1.4-2.4-1.5-2.6-0.2-0.1-0.3 0.1-0.3 0.2-0.1 0.1-0.1 0.1-0.2 0.1-0.1-0.1-0.6-0.4-0.8-0.6-0.2-0.2-0.1-0.8-0.1-1 0-0.5 0.3-0.6 0.4-0.5 1.9 1 2.4 2.9 2.5 3.2 0.1-1.4 0.2-2.7 0.9-3.6 0.6-0.8 1.4 0.4 1.5 0.5z"/>
		<path id="&lt;Compound Path&gt;" fill-rule="evenodd" class="s0" d="m36.2 5.7c-0.1 0.2-0.2 0.1-0.3-0.1-0.1-0.1-0.5-0.5-0.5-0.5 0 0-0.6 1.3-1.5 2-1.8 1.3-3.2 1.5-3.3 1.5-0.2 0.1-0.2-0.1 0-0.2 1.1-0.7 2.4-1.1 4.3-3.4 0 0-0.6-0.3-1-0.6-0.4-0.3-0.2-1.3 0.1-1.7 0.7-1.1 1.4-0.6 1.5-0.4 0.6 1.1 0.3 2.1 0.3 2.1 0.3 0.2 0.6 0.7 0.4 1.3zm-1.2-2.7c-0.2-0.1-0.3-0.1-0.7 0.4-0.1 0.2 0 0.3 0.2 0.4 0.3 0.1 0.8 0.4 0.8 0.4 0-0.2 0.1-0.8-0.3-1.2z"/>
	</g>
</svg>