<svg version="1.2" xmlns="http://www.w3.org/2000/svg" viewBox="0 0 70 30" width="70" height="30">
	<title>New Project</title>
	<style>
		.s0 { fill: #191c4f } 
	</style>
	<g id="ุต">
		<path id="&lt;Path&gt;" class="s0" d="m63.2 20.7c0 0 0 0.3 0 0.6 0 0.2-0.1 0.6-0.2 1-0.1 0.4-0.9 0.5-1.4 0.2-0.9 1.3-1.7 0.6-2.1 0.5-0.8-0.3-1 0.2-1.2 0.4-1 1.1-2.8 1-3.2 1.1-0.4 0-0.1-0.2 0.1-0.3 1.4-0.5 2.3-0.6 3.5-1.8 0.6-0.5 0.9-0.3 1.1-0.2 1.2 0.5 1.4 0 1.5-0.1 0.2-0.2 0.4-0.8 0.5-1 0.1-0.2 0.2 0 0.1 0.1 0 0.2 0 0.4-0.1 0.5 0.5 0.3 1 0 1.1-0.1 0 0 0-0.3 0-0.5q0-0.1 0.1-0.6c0.1-0.3 0.2 0 0.2 0.2z"/>
		<path id="&lt;Path&gt;" class="s0" d="m30.3 20.5c0 0-0.1 0.4-0.2 0.7-0.4 1.3-0.1 1.9-0.1 2 0.5 0.6 1 0.3 1.2-0.2 0-0.3 0.1-0.2 0.1-0.1q0 0.2 0 0.4c-0.3 0.8-0.6 1.1-0.9 1.1-0.5 0-0.8-0.6-0.8-1-0.2-1.4 0.4-2.6 0.5-3 0.1-0.3 0.3-0.2 0.2 0.1z"/>
		<path id="&lt;Path&gt;" class="s0" d="m9.6 18.2c0 0-0.1 0.3-0.2 0.6-0.3 1.2-0.1 1.8 0 1.9 0.4 0.6 0.8 0.3 1-0.2 0-0.3 0.1-0.1 0.1 0q0 0.1-0.1 0.3c-0.2 0.8-0.5 1-0.7 1-0.5 0-0.7-0.6-0.7-0.9-0.2-1.3 0.3-2.5 0.4-2.8 0.1-0.3 0.3-0.2 0.2 0.1z"/>
		<path id="&lt;Path&gt;" class="s0" d="m20.6 17.8c0 0-0.1 0.3-0.1 0.6-0.4 1.2-0.1 1.8-0.1 1.9 0.4 0.6 0.8 0.3 1-0.2 0.1-0.3 0.1-0.1 0.1 0q0 0.1 0 0.3c-0.2 0.8-0.5 1-0.8 1-0.4 0-0.7-0.6-0.7-0.9-0.2-1.3 0.3-2.5 0.5-2.8 0.1-0.3 0.2-0.2 0.1 0.1z"/>
		<path id="&lt;Path&gt;" class="s0" d="m15.2 15.8c0 0-0.1 0.6-0.2 1-0.5 2.1-0.1 3 0 3.2 0.5 1 1.1 0.4 1.4-0.4 0-0.4 0.2-0.2 0.1 0q0 0.2 0 0.6c-0.3 1.3-0.7 1.6-1.1 1.6-0.6 0.1-1-0.9-1-1.4-0.3-2.2 0.4-4.2 0.6-4.7 0.1-0.6 0.3-0.4 0.2 0.1z"/>
		<path id="&lt;Compound Path&gt;" fill-rule="evenodd" class="s0" d="m35 16c-0.1 0.6-0.2 2.4-4.1 3.7-0.4 0.1-2.9 0.8-5.2 0.2q-0.1 0.4-0.1 0.6c0 0-0.3 3.5-7.3 5.5-9.1 2.6-13.8-3-14.2-3.5-0.3-0.5 0-0.5 0.3-0.2 5.1 3.8 12.1 2.7 12.5 2.6 6.2-1.1 8.1-4.3 8.2-4.6 0.1-0.3-0.8-2.1-1-2.4 0 0 0.1-0.8 0.2-1 0-0.2 0-0.3 0.2 0q0.6 0.8 0.8 1.4 0.2 0 0.8 0.2c0 0 1.4-2.8 2.8-4.2 0.3-0.3 2.2-2.2 4.7-0.7 0.4 0.3 1.6 1.4 1.4 2.4zm-1 0c-1.1-1.5-2.5-1.5-2.8-1.5-2.3-0.2-4.4 3.9-4.5 4.1 0 0 3.9 0.9 7-1.9 0.4-0.4 0.4-0.5 0.3-0.7z"/>
		<path id="&lt;Path&gt;" class="s0" d="m9.6 13.5c0.1 0.2 0 0.7-0.1 1 0 0.2-0.2 0.1-0.3-0.1 0 0-0.2-0.1-0.4-0.2-0.6-0.5-0.8 0.5-0.8 1 0 0.4 0 1.5 0 2.2-0.1 0.3-0.2 0.3-0.3 0.1-0.6-1.4-1.4-2-1.6-2.2-0.1-0.1-0.2 0.1-0.3 0.2 0 0.1-0.1 0.1-0.1 0.1-0.1-0.1-0.6-0.3-0.8-0.5-0.1-0.1-0.1-0.7-0.1-0.9 0-0.4 0.2-0.5 0.3-0.5 1.8 0.8 2.4 2.4 2.5 2.7 0-1.2 0-2.3 0.6-3.2 0.4-0.7 1.3 0.2 1.4 0.3z"/>
		<path id="&lt;Compound Path&gt;" fill-rule="evenodd" class="s0" d="m41.4 19.1c-0.4 1.1-2.1 1.8-2.5 1.9-1.4 0.5-1.5-1-1.4-2.1 0.1-1.1 0.8-2.5 0.8-2.5 0 0-1.6-1.2-1.7-1.3-0.1-0.2-0.3-0.3-0.4-0.4-0.2-0.1-0.2-0.2-0.2-0.2 0 0 0.1-1.1 0.1-1.2 0-0.2 0-0.1 0.2-0.1 0.1 0.1 1.8 0.8 1.9 0.9 0.2 0 0.2 0.2 0.1 0.2-0.1 0-0.7 0.2-0.7 0.2l1.4 1c0 0 1.9-2.5 2.1-2.8 0.2-0.2 0.2-0.1 0.1 0.2 0 0.2-0.4 1.3-0.5 1.4-0.1 0.2-1 1.6-1 1.6 0 0 1.2 0.7 1.6 1.2 0.5 0.8 0.2 1.5 0.1 2zm-2.5-2.3c0 0-0.8 1.5-1 1.8-0.3 0.9 0.5 1 0.8 1 0.4 0 1.5-0.6 2.1-1.1 0.5-0.4-1.6-1.5-1.9-1.7z"/>
		<path id="&lt;Compound Path&gt;" fill-rule="evenodd" class="s0" d="m65 17.7c-0.1 0.2-0.4 1.3-2 1-0.4-0.1-1.2-0.2-1.5-1.1-0.4 0.5-1.3 2-3.1 1.7-0.4 0-1.6-0.5-1.7-2.1 0 0-1.4 1.2-2.1 1.6 0.1 0.5 0 1.2-0.2 1.9-0.3 0.7-3.5 4.3-6.1 4.9-0.8 0.1-4.1 0.8-4.2-2.9-0.1-0.8 0-1.4 0-1.8-2 1.6-4.4 2.8-5.1 3.1-1.1 0.6-4.9 1.2-5.5 1.3-0.5 0.1-0.6 0-0.3-0.2 0.3-0.1 8.6-3 13-7.5 0.1-0.2 0.1-0.4-0.1-0.6-0.1-0.2-1.4-2.8-1.6-3.2-0.1-0.3-0.3-0.7-0.4-0.8q0-0.2 0-0.5c0-0.1 0.1-0.8 0.2-0.9 0-0.2 0.1-0.1 0.2 0 0.1 0.1 1.4 1.5 1.6 1.6 0.2 0.2 0 0.3 0 0.3-0.1 0-0.7 0-0.7 0 0 0 0.9 1.5 1.1 2.1 0.6 1.2 0.3 2.2 0.1 2.6-0.4 0.8-1.1 1.6-2 2.3-0.1 0.7-0.4 3.7 2.4 3.8 0.4 0 1.9 0.2 4.7-2.2 0.7-0.5 1.4-1.1 2.1-2 0.2-0.4 0.4-1-0.1-1-0.4 0.1-3.4 1.2-3.8-0.6-0.1-0.5 0.1-4.7 3-2.6 0.3 0.2 0.9 0.7 1.3 1.5 0.5-0.2 1.4-0.7 2.5-1.6 0.3-0.3 0.6-0.4 0.6 0 0 0.4-0.2 2.8 2.4 2.1 0.3-0.1 1.5-0.3 2.3-2.4 0.2-0.5 0.5-0.5 0.3 0-0.2 0.5-0.5 0.9-0.2 1.2 0.3 0.2 1 0.8 2 0.7 0.3-0.1 0.5-0.2 0.4-0.5-0.2-0.3-0.5-0.8-0.5-0.8 0.1-0.3 0.2-0.9 0.3-1 0-0.2 0.1-0.3 0.2-0.2 0.1 0.1 1 1.3 0.5 2.8zm-12.1 0.1c-0.9-1.3-2-0.5-2.2-0.4-0.1 0.1-0.2 0.5 0.8 0.6 1 0 1.4-0.2 1.4-0.2z"/>
		<path id="&lt;Path&gt;" class="s0" d="m20.7 10.7c0 0-0.1 0.3-0.2 0.6-0.3 1.2-0.1 1.8 0 1.9 0.4 0.6 0.8 0.3 0.9-0.2 0.1-0.3 0.2-0.1 0.2 0q0 0.1-0.1 0.4c-0.2 0.7-0.5 0.9-0.7 0.9-0.5 0-0.7-0.6-0.7-0.9-0.2-1.3 0.3-2.5 0.4-2.8 0.1-0.3 0.2-0.2 0.2 0.1z"/>
		<path id="&lt;Path&gt;" class="s0" d="m39.7 10l1.2 0.9q0.1 0.1 0 0.1l-0.7 1q0 0-0.1 0l-1.1-0.9-0.6 0.9q0 0-0.1 0l-1.2-0.9q0 0 0-0.1l0.7-0.9q0-0.1 0.1-0.1l1.1 0.9 0.6-0.8q0.1-0.1 0.1-0.1z"/>
		<path id="&lt;Path&gt;" class="s0" d="m61.9 10.1c0 0-0.1 0.3-0.1 0.5-0.4 1.1-0.2 1.5-0.1 1.6 0.2 0.6 0.6 0.3 0.8-0.1 0-0.2 0.1-0.1 0.1 0q0 0.1-0.1 0.3c-0.2 0.6-0.4 0.8-0.6 0.8-0.4 0-0.6-0.5-0.6-0.8-0.1-1.1 0.4-2.1 0.5-2.4 0.1-0.2 0.2-0.1 0.1 0.1z"/>
		<path id="&lt;Path&gt;" class="s0" d="m50.1 9.5c0 0-0.1 0.3-0.1 0.5-0.4 1.2-0.2 1.7-0.2 1.8 0.3 0.6 0.8 0.3 0.9-0.2 0.1-0.2 0.2-0.1 0.1 0q0 0.1 0 0.4c-0.2 0.7-0.5 0.8-0.7 0.8-0.5 0-0.6-0.5-0.7-0.8 0-1.2 0.5-2.3 0.6-2.6 0.1-0.3 0.2-0.2 0.1 0.1z"/>
		<path id="&lt;Path&gt;" class="s0" d="m6.7 7.4c0 0-0.1 0.4-0.1 0.6-0.5 1.3-0.2 1.9-0.1 2.1 0.4 0.6 1 0.2 1.1-0.3 0.1-0.2 0.2-0.1 0.2 0q0 0.1-0.1 0.4c-0.2 0.8-0.5 1-0.8 1-0.6 0-0.8-0.6-0.9-0.9-0.2-1.4 0.4-2.6 0.6-3 0.1-0.4 0.2-0.2 0.1 0.1z"/>
		<path id="&lt;Path&gt;" class="s0" d="m33.5 7c-0.1 0.9-0.3 1.7-0.4 1.9 0 0.2-0.1 0.3-0.1 0.1 0-0.2 0.1-0.8 0.1-1.1 0.1-0.4 0.2-0.7-0.1-0.5-0.2 0.1-3.2 2.3-7.3 2.1 0 0.4-0.1 0.8-0.1 0.9-0.1 0.1-0.2 0.1-0.2 0 0-0.2-0.1-0.8-0.5-1.1-0.1-0.1-0.1-0.7-0.1-0.9-0.1-0.3 0.1-0.2 0.3-0.1 0.1 0.1 3.3 1 7.6-1.6 0.3-0.2 0.9-0.6 0.8 0.3z"/>
		<path id="&lt;Path&gt;" class="s0" d="m17.1 6.1c0.2 0.2 0.1 0.7 0 1 0 0.2-0.2 0-0.3-0.1 0 0-0.2-0.2-0.4-0.3-0.6-0.4-0.8 0.6-0.8 1.1 0 0.3 0 1.5 0 2.2q0 0 0 0.1c-0.1 0.5-0.2 1.3-1.1 1.9-1.1 0.9-1.2 0.9-1.3 1 0 0.1-0.1 0 0.1-0.2 0.1-0.1 2.2-2.1 1.9-3-0.4-1.1-1.3-1.8-1.4-1.9-0.2-0.1-0.3 0.1-0.3 0.2 0 0.1-0.1 0.1-0.2 0.1-0.1-0.1-0.5-0.3-0.7-0.5-0.2-0.1-0.2-0.7-0.2-0.9 0-0.4 0.3-0.5 0.4-0.5 1.7 0.8 2.4 2.4 2.5 2.7-0.1-1.3-0.1-2.3 0.5-3.2 0.4-0.7 1.3 0.2 1.3 0.3z"/>
		<path id="&lt;Path&gt;" class="s0" d="m49.1 4.7c-0.1 0.1-0.1 0.1-0.2 0.3 0 0.2-0.2 0.3-0.4 0.4-0.2 0.2-6.4 3.7-6.5 3.8-0.3 0.2-0.3 0.1-0.3 0q0.1-0.1 0.1-0.4c0-0.2 0.1-0.2 0.4-0.4 0.2-0.1 6.4-3.7 6.6-3.8 0.4-0.2 0.3-0.1 0.3 0.1z"/>
		<path id="&lt;Path&gt;" class="s0" d="m56.6 5c0.1 0.3 0 0.8-0.1 1.1-0.1 0.2-0.2 0-0.4-0.2 0 0-0.1-0.1-0.3-0.3-0.6-0.5-0.8 0.5-0.9 1 0 0.4-0.1 1.5-0.2 2.2 0 0.3-0.2 0.2-0.3 0.1-0.4-1.5-1.2-2.2-1.4-2.3-0.1-0.2-0.2 0.1-0.2 0.2-0.1 0-0.2 0-0.2 0-0.1 0-0.6-0.3-0.7-0.5-0.2-0.2-0.1-0.7-0.1-0.9 0-0.4 0.3-0.5 0.4-0.5 1.6 1 2.2 2.6 2.3 2.9 0-1.3 0.1-2.4 0.7-3.2 0.6-0.7 1.3 0.3 1.4 0.4z"/>
		<path id="&lt;Compound Path&gt;" fill-rule="evenodd" class="s0" d="m62.7 7.7c-0.1 0.1-0.1 0-0.3-0.2 0-0.1-0.2-0.3-0.4-0.4-0.3 0.6-0.3 0.6-1.3 1.5-2.3 2-4.8 2.7-4.9 2.7-0.2 0.1-0.2-0.1 0.1-0.2 0.7-0.6 4-2.1 5.7-4.1 0 0-0.6-0.2-0.9-0.5-0.4-0.3-0.2-1.2 0.1-1.5 0.6-1 1.2-0.5 1.3-0.4 0.5 1 0.2 1.9 0.2 1.9 0.3 0.2 0.6 0.5 0.4 1.2zm-1.1-2.5c-0.1-0.1-0.3-0.1-0.6 0.4-0.1 0.1 0 0.3 0.2 0.3 0.3 0.1 0.7 0.4 0.7 0.4 0-0.2 0.1-0.7-0.3-1.1z"/>
		<path id="&lt;Path&gt;" class="s0" d="m22.5 4.5c0 0-0.1 0.3-0.1 0.6-0.4 1.2-0.1 1.8-0.1 1.9 0.4 0.6 0.8 0.3 1-0.2 0.1-0.2 0.1-0.1 0.1 0q0 0.1 0 0.4c-0.2 0.7-0.5 0.9-0.8 0.9-0.4 0-0.7-0.6-0.7-0.9-0.2-1.3 0.3-2.5 0.5-2.8 0.1-0.3 0.2-0.2 0.1 0.1z"/>
		<path id="&lt;Compound Path&gt;" fill-rule="evenodd" class="s0" d="m39.4 7.3c-0.1 0.2-0.1 0.1-0.2-0.1-0.1-0.1-0.5-0.4-0.5-0.4 0 0-0.5 1.1-1.3 1.7-1.6 1.1-2.9 1.4-3 1.4-0.1 0-0.2-0.1 0.1-0.3 1-0.5 2.1-0.9 3.8-3 0 0-0.6-0.2-0.9-0.4-0.4-0.3-0.2-1.2 0.1-1.6 0.6-1 1.2-0.5 1.3-0.3 0.5 0.9 0.2 1.9 0.2 1.9 0.3 0.1 0.6 0.5 0.4 1.1zm-1.1-2.4c-0.1-0.1-0.3-0.1-0.6 0.3-0.1 0.2 0 0.3 0.2 0.4 0.3 0.1 0.7 0.3 0.7 0.3 0.1-0.1 0.1-0.7-0.3-1z"/>
	</g>
</svg>