<svg version="1.2" xmlns="http://www.w3.org/2000/svg" viewBox="0 0 70 30" width="70" height="30">
	<title>New Project</title>
	<style>
		.s0 { fill: #191c4f } 
	</style>
	<g id="الروم">
		<path id="&lt;Path&gt;" class="s0" d="m13.3 23.8c0 0.1 0 0.2-0.1 0.4-0.1 0.2-0.2 0.2-0.5 0.3-0.2 0.1-3.1 1.1-3.3 1.2-0.4 0.2-0.4 0.1-0.3 0q0-0.1 0.1-0.4c0-0.2 0.1-0.2 0.4-0.3 0.3-0.1 3.2-1.2 3.5-1.3 0.4-0.1 0.3 0 0.2 0.1z"/>
		<path id="&lt;Path&gt;" class="s0" d="m25.3 21.6c0 0-0.1 0.2-0.2 0.4-0.3 1-0.1 1.5-0.1 1.6 0.3 0.5 0.7 0.2 0.8-0.2 0.1-0.2 0.1-0.1 0.1 0q0 0.1 0 0.3c-0.2 0.6-0.5 0.8-0.7 0.8-0.3-0.1-0.5-0.5-0.5-0.8-0.1-1 0.4-1.9 0.5-2.2 0.1-0.3 0.2-0.2 0.1 0.1z"/>
		<path id="&lt;Path&gt;" class="s0" d="m31.3 20.3c0 0-0.1 0.3-0.2 0.5-0.3 1-0.1 1.4-0.1 1.5 0.3 0.5 0.7 0.3 0.8-0.1 0.1-0.2 0.1-0.1 0.1 0q0 0.1-0.1 0.3c-0.1 0.6-0.4 0.7-0.6 0.7-0.3 0-0.5-0.5-0.5-0.7-0.1-1.1 0.4-2 0.5-2.2 0.1-0.3 0.2-0.2 0.1 0z"/>
		<path id="&lt;Path&gt;" class="s0" d="m63.3 20.4c0 0 0 0.3 0 0.6 0 0.2-0.2 0.6-0.3 1-0.1 0.3-0.9 0.5-1.4 0.1-0.8 1.4-1.6 0.7-2 0.5-0.8-0.3-1 0.2-1.2 0.4-0.9 1.1-2.7 1.1-3.1 1.1-0.4 0.1-0.1-0.2 0.1-0.3 1.4-0.5 2.2-0.6 3.5-1.7 0.5-0.5 0.8-0.3 1-0.2 1.2 0.5 1.4 0 1.5-0.1 0.2-0.2 0.4-0.8 0.5-1 0-0.2 0.2 0 0.1 0.1 0 0.2-0.1 0.4-0.1 0.5 0.5 0.3 1 0 1.1-0.1 0 0-0.1-0.3-0.1-0.5q0-0.1 0.2-0.6c0.1-0.3 0.1 0 0.2 0.2z"/>
		<path id="&lt;Path&gt;" class="s0" d="m23.7 14.6l1.1 0.8q0.1 0.1 0 0.1l-0.6 0.9q-0.1 0.1-0.1 0.1l-1.2-0.9q0 0 0-0.1l0.7-0.9q0-0.1 0.1 0z"/>
		<path id="&lt;Compound Path&gt;" fill-rule="evenodd" class="s0" d="m41.8 18.8c-0.3 1.1-2 1.8-2.3 1.9-1.5 0.5-1.6-1-1.5-2.1 0.1-1 0.9-2.4 0.9-2.4-0.1 0-1.6-1.2-1.8-1.3-0.1-0.1-0.2-0.3-0.4-0.4-0.1-0.1-0.1-0.2-0.1-0.2 0 0 0-1 0-1.2 0.1-0.1 0.1 0 0.2 0 0.2 0.1 1.8 0.7 2 0.8 0.1 0.1 0.1 0.2 0 0.2-0.1 0.1-0.7 0.2-0.7 0.2l1.4 1c0 0 1.9-2.5 2.1-2.7 0.2-0.2 0.1-0.1 0.1 0.1 0 0.3-0.4 1.3-0.5 1.5-0.1 0.1-1 1.5-1 1.5 0 0 1.2 0.7 1.5 1.2 0.6 0.7 0.2 1.5 0.1 1.9zm-2.4-2.2c0 0-0.8 1.5-0.9 1.7-0.4 0.9 0.4 1.1 0.8 1 0.3 0 1.4-0.6 1.9-1 0.6-0.5-1.4-1.5-1.8-1.7z"/>
		<path id="&lt;Compound Path&gt;" fill-rule="evenodd" class="s0" d="m65 17.5c-0.1 0.2-0.4 1.3-1.9 1-0.4-0.1-1.2-0.3-1.5-1.1-0.4 0.5-1.3 1.9-3 1.7-0.4-0.1-1.6-0.5-1.7-2.1 0 0-1.4 1.2-2.1 1.5 0.1 0.6 0 1.2-0.2 1.9-0.3 0.7-3.4 4.2-5.9 4.8-0.9 0.2-4.1 0.8-4.2-2.8-0.1-0.8 0-1.4 0.1-1.8-2 1.6-4.4 2.8-5.1 3.1-1.1 0.5-4.8 1.1-5.4 1.2-0.5 0.1-0.5 0-0.3-0.2 0.3-0.1 8.5-2.9 12.7-7.4 0.2-0.1 0.1-0.3 0-0.5-0.1-0.2-1.4-2.8-1.6-3.1-0.1-0.3-0.3-0.8-0.3-0.9q-0.1-0.2-0.1-0.4c0-0.1 0.2-0.8 0.2-1 0-0.1 0.1 0 0.2 0.1 0.1 0.1 1.4 1.4 1.6 1.6 0.1 0.2 0 0.2 0 0.2-0.1 0-0.7 0-0.7 0 0 0 0.8 1.5 1.1 2.1 0.5 1.2 0.2 2.2 0.1 2.6-0.5 0.8-1.2 1.5-2 2.2-0.1 0.7-0.4 3.6 2.4 3.7 0.4 0 1.8 0.2 4.6-2.1 0.6-0.5 1.4-1.1 2-2 0.3-0.4 0.4-1-0.1-0.9-0.4 0-3.3 1.1-3.7-0.7-0.1-0.4 0.1-4.6 3-2.5 0.2 0.2 0.8 0.7 1.2 1.5 0.5-0.2 1.4-0.7 2.5-1.6 0.3-0.3 0.6-0.4 0.6 0 0 0.4-0.3 2.7 2.3 2 0.3 0 1.4-0.3 2.2-2.3 0.3-0.5 0.6-0.4 0.4 0-0.2 0.5-0.5 0.9-0.2 1.2 0.2 0.2 1 0.7 1.9 0.6 0.3 0 0.5-0.2 0.4-0.4-0.1-0.3-0.5-0.8-0.5-0.8 0.1-0.3 0.2-0.9 0.3-1 0-0.2 0.1-0.3 0.2-0.1 0.1 0.1 0.9 1.2 0.5 2.7zm-11.8 0.1c-0.9-1.3-2-0.6-2.2-0.4-0.1 0.1-0.2 0.5 0.7 0.5 1.1 0.1 1.5-0.1 1.5-0.1z"/>
		<path id="&lt;Path&gt;" class="s0" d="m40.2 10l1.2 0.8q0 0.1 0 0.1l-0.7 0.9q0 0.1-0.1 0.1l-1.1-0.9-0.6 0.8q0 0.1-0.1 0.1l-1.1-0.9q-0.1 0-0.1-0.1l0.7-0.9q0.1-0.1 0.1 0l1.2 0.8 0.5-0.8q0.1-0.1 0.1 0z"/>
		<path id="&lt;Path&gt;" class="s0" d="m62 10c0 0-0.1 0.3-0.2 0.5-0.3 1-0.1 1.5-0.1 1.6 0.3 0.5 0.7 0.3 0.8-0.1 0.1-0.2 0.2-0.1 0.1 0q0 0.1 0 0.3c-0.2 0.6-0.5 0.7-0.7 0.7-0.4 0-0.5-0.5-0.5-0.7-0.1-1.1 0.4-2.1 0.5-2.3 0.1-0.3 0.2-0.2 0.1 0z"/>
		<path id="&lt;Path&gt;" class="s0" d="m25.9 9.7c0 0 0.1 0.5 0.3 0.9 0.1 0.2 0.2 0.5 0.2 1-0.1 0.5-0.3 0.8-0.6 0.9-0.2 0.1-0.7 0.1-1-0.4-0.4 0.8-1 0.9-1.4 0.8-0.3-0.2-0.3-0.8-0.3-1 0-0.2 0-0.9 0-1-0.1-0.1 0-0.3 0.1-0.4 0.1-0.2 0.1-0.1 0.1 0.1 0 0.2-0.1 1 0.1 1.4 0.4 0.5 1.1 0 1.2-0.3 0.1-0.2-0.2-1.1-0.2-1.2q0-0.1 0-0.1c0-0.1 0-0.4 0.1-0.5q0.1-0.2 0.2 0c0 0.2 0.1 0.4 0.2 1.2 0.1 0.9 0.9 0.7 1.1 0.6 0.2 0 0.2-0.2 0.1-0.3 0-0.1-0.4-0.7-0.5-1-0.1-0.3 0-0.5 0.1-0.8 0-0.3 0.1-0.1 0.2 0.1z"/>
		<path id="&lt;Path&gt;" class="s0" d="m50.4 9.4c0 0-0.1 0.3-0.1 0.6-0.4 1.1-0.2 1.6-0.2 1.7 0.3 0.5 0.7 0.2 0.9-0.2 0.1-0.2 0.1-0.1 0.1 0q0 0.1 0 0.4c-0.2 0.6-0.5 0.8-0.7 0.8-0.5 0-0.6-0.6-0.7-0.8 0-1.2 0.5-2.3 0.6-2.6 0.1-0.2 0.2-0.1 0.1 0.1z"/>
		<path id="&lt;Path&gt;" class="s0" d="m20.4 7.3c0 0.2 0 0.2-0.1 0.5-0.1 0.2-0.3 0.3-0.5 0.5-0.2 0.1-8.1 4.1-8.8 4.6-0.9 0.5-0.8 0.8-0.6 0.9 0.6 0.2 0.9 0.6 0.6 1.3 0 0-0.1 0-0.1 0-0.1-0.1-0.3-0.3-0.6-0.3-0.4-0.1-0.6-0.8-0.4-1.4 0.1-0.5 0.3-0.9 0.7-1.2 0.6-0.5 9.3-4.8 9.5-5 0.4-0.2 0.4 0 0.3 0.1z"/>
		<path id="&lt;Path&gt;" class="s0" d="m10.4 5.4c0.1 0.3 0 0.7-0.1 1-0.1 0.2-0.3 0-0.4-0.2 0 0-0.1-0.1-0.3-0.2-0.5-0.5-0.8 0.4-0.8 0.9-0.1 0.3-0.1 1.4-0.2 2-0.1 0.3-0.2 0.3-0.3 0.1-0.4-1.4-1.2-2-1.3-2.1q0-0.1 0-0.1c0 0.1 0 0.3 0 0.5-0.3 1.7-2 2.4-2.3 2.6-0.3 0.1-0.2 0.1 0-0.3 0.3-0.3 1.6-1.6 1.9-1.9 0.5-0.6-0.5-1-0.7-1.1-0.1-0.1-0.1-0.7 0-0.9 0-0.3 0.2-0.4 0.3-0.4 1.6 0.9 2.1 2.4 2.2 2.7 0-1.2 0.1-2.2 0.7-3 0.5-0.6 1.2 0.3 1.3 0.4z"/>
		<path id="&lt;Path&gt;" class="s0" d="m14.8 4.9c0 0-0.1 0.3-0.2 0.5-0.3 0.9-0.1 1.4-0.1 1.5 0.3 0.5 0.7 0.2 0.8-0.1 0.1-0.2 0.1-0.1 0.1 0q0 0 0 0.3c-0.2 0.6-0.5 0.7-0.7 0.7-0.3 0-0.5-0.5-0.5-0.7-0.1-1.1 0.4-2 0.5-2.3 0.1-0.2 0.2-0.1 0.1 0.1z"/>
		<path id="&lt;Path&gt;" class="s0" d="m49.4 4.7c0 0.1-0.1 0.2-0.1 0.4-0.1 0.1-0.2 0.2-0.4 0.3-0.3 0.2-6.3 3.7-6.4 3.7-0.4 0.3-0.4 0.1-0.3 0q0-0.1 0.1-0.3c0-0.2 0.1-0.3 0.3-0.4 0.3-0.2 6.3-3.7 6.5-3.8 0.4-0.2 0.4-0.1 0.3 0.1z"/>
		<path id="&lt;Path&gt;" class="s0" d="m56.8 5.1c0.1 0.2 0 0.7-0.1 1-0.1 0.2-0.3 0-0.4-0.2 0 0-0.1-0.1-0.3-0.3-0.6-0.5-0.8 0.5-0.9 1 0 0.3-0.1 1.5-0.2 2.1 0 0.3-0.2 0.3-0.3 0.1-0.4-1.4-1.2-2.1-1.3-2.2-0.2-0.2-0.3 0.1-0.3 0.1 0 0.1-0.1 0.1-0.2 0.1-0.1-0.1-0.5-0.4-0.7-0.5-0.1-0.2-0.1-0.7-0.1-0.9 0.1-0.4 0.3-0.5 0.4-0.4 1.7 0.9 2.2 2.5 2.3 2.7 0.1-1.2 0.1-2.2 0.7-3.1 0.6-0.6 1.3 0.3 1.4 0.5z"/>
		<path id="&lt;Compound Path&gt;" fill-rule="evenodd" class="s0" d="m62.7 7.6c0 0.2-0.1 0.1-0.2-0.1-0.1-0.1-0.2-0.3-0.5-0.4-0.2 0.5-0.2 0.6-1.2 1.5-2.3 1.9-4.7 2.6-4.8 2.6-0.2 0-0.2-0.1 0-0.2 0.8-0.6 4-2 5.6-4 0 0-0.5-0.2-0.8-0.5-0.4-0.3-0.2-1.2 0-1.5 0.7-1 1.2-0.5 1.3-0.4 0.6 1 0.3 1.9 0.3 1.9 0.3 0.2 0.6 0.5 0.3 1.1zm-1-2.4c-0.1 0-0.3-0.1-0.6 0.4-0.1 0.1 0 0.3 0.2 0.3 0.2 0.1 0.7 0.4 0.7 0.4 0-0.2 0.1-0.7-0.3-1.1z"/>
		<path id="&lt;Compound Path&gt;" fill-rule="evenodd" class="s0" d="m25.8 7.4c-0.1 0.2-0.1 0.1-0.2-0.1-0.1-0.1-0.5-0.4-0.5-0.4 0 0-1.3 1.8-2.7 2.6-1.6 1-2.8 1.3-2.9 1.4-0.2 0-0.2-0.2 0-0.3 1-0.4 3.5-2.1 5.3-3.9 0 0-0.5-0.3-0.9-0.6-0.3-0.3 0-1.1 0.3-1.5 0.7-0.9 1.2-0.3 1.3-0.2 0.4 1 0 1.9 0 1.9 0.3 0.2 0.6 0.6 0.3 1.1zm-0.8-2.4c-0.1-0.1-0.3-0.2-0.6 0.3-0.2 0.1-0.1 0.2 0.1 0.3 0.2 0.1 0.7 0.4 0.7 0.4 0-0.1 0.1-0.7-0.2-1z"/>
		<path id="&lt;Path&gt;" class="s0" d="m32.9 4.2c0.1 0.2 1.5 3.6 1.6 3.8 0 0.2-0.1 0.2-0.2 0.1-0.1-0.1-0.8-0.8-0.8-0.8 0 0 1.3 9.3 1.3 9.6 0.2 1.8 0.3 3.1 0.3 4-0.1 1.1-0.3 1.6-0.4 1.7-0.1 0.2-0.2 0.1-0.1-0.1-0.1-0.7-0.2-1.9-0.4-3.3-0.3-2.8-1.5-11.7-1.7-13.2-0.1-0.1-0.2-0.6-0.2-0.7 0 0 0.4-1 0.5-1.1 0-0.2 0.1-0.1 0.1 0z"/>
		<path id="&lt;Compound Path&gt;" fill-rule="evenodd" class="s0" d="m39.9 7.3c-0.1 0.1-0.1 0-0.2-0.1-0.1-0.1-0.5-0.4-0.5-0.4 0 0-0.5 1-1.3 1.6-1.5 1.2-2.8 1.4-2.9 1.4-0.1 0-0.2-0.1 0.1-0.2 0.9-0.6 2.1-1 3.7-3 0 0-0.5-0.2-0.9-0.4-0.3-0.3-0.1-1.2 0.1-1.6 0.6-0.9 1.2-0.4 1.3-0.3 0.5 0.9 0.2 1.9 0.2 1.9 0.3 0.1 0.6 0.5 0.4 1.1zm-1-2.4c-0.2-0.1-0.3-0.1-0.6 0.4-0.1 0.1 0 0.2 0.2 0.3 0.2 0.1 0.7 0.3 0.7 0.3 0-0.1 0-0.7-0.3-1z"/>
		<path id="&lt;Compound Path&gt;" fill-rule="evenodd" class="s0" d="m29.3 19.4c-1.3 0.8-4.2 1.3-5.2 1.7-2 0.7-4.2 2.9-4.7 3.4-1.7 1.9-3.3 1.5-3.9 1.1-2.6-1.4 0.3-6 0.9-7-0.5 0.2-1.1 0.3-1.3 0.4-3 1-5.3 3.9-5.6 4.3-2.3 2.7-4.1 1.7-4.5 1.5-2.1-1.6-0.4-5.1-0.1-5.7q0.1-0.2 0.2-0.3c-0.3-0.3-0.5-0.9-0.5-1.3-0.2-2.1 0.6-4 0.7-4.6 0.2-0.5 0.4-0.3 0.3 0.2 0 0-0.2 0.6-0.3 1-0.5 2-0.2 2.9-0.1 3.1 0.5 1 1.1 0.4 1.4-0.3 0.1-0.4 0.2-0.2 0.2 0q-0.1 0.1-0.1 0.6c-0.3 1.2-0.8 1.5-1.1 1.5q-0.1 0-0.2 0 0 0 0 0.1c-0.2 0.5-0.7 1.7-0.8 2.1-0.6 2.9 1 2.7 1.3 2.8 1.5 0 3.4-2.1 3.7-2.5 1.2-1.5 2.8-2.7 3.4-3 1.1-0.7 2.9-1.2 3.6-1.4q0.2-0.1 0.5-0.1c-0.2-0.4-0.4-0.8-0.5-1.5-0.2-0.7 0.5-1.8 1-2.1 0.7-0.4 1.7 0.4 1.9 0.5 0.2 0.2 1.5 1.5 1.7 1.7 0.1 0.1-0.4 1.4-0.4 1.4 0 0-1 0.4-1.7 0.7q-0.3 0-0.7 0.2c0 0.3 0 0.6-0.1 0.6 0 0.2-0.1 0.2-0.1 0-0.1-0.1-0.2-0.2-0.3-0.4q-0.4 0.1-0.8 0.2c-1.4 1.8-2.2 4.2-2.2 4.9-0.2 2.2 2.4 1.5 3.1 0.9 0.7-0.6 2.7-2.5 4-3.3 1.8-1.1 5.7-2 7.3-2.8 0.7-0.4 0.5-0.8 0.5-1.3 0-0.4-1.1-8.3-1.1-8.3-0.1-0.9-0.3-1.6-0.4-2.1 0-0.6-0.2-1-0.3-1.1 0 0 0.5-1 0.6-1.1 0-0.2 0.1-0.1 0.1 0 0 0.2 1.5 3.3 1.5 3.5 0.1 0.2 0 0.3-0.1 0.1-0.2-0.1-0.8-0.7-0.8-0.7 0 0 1.2 8.1 1.2 8.8 0.2 2.3-0.8 3.3-1.2 3.6zm-12-4c0.1 0.2 0.4 0.7 0.7 1.2q0 0.1 0 0.1c0.7-0.2 1.4-0.5 1.7-0.7 0.1 0-0.3-0.3-0.8-0.7-0.4-0.3-0.8-0.4-1.2-0.4-0.4 0-0.5 0.3-0.4 0.5z"/>
	</g>
</svg>