<svg version="1.2" xmlns="http://www.w3.org/2000/svg" viewBox="0 0 70 30" width="70" height="30">
	<title>New Project</title>
	<style>
		.s0 { fill: #191c4f } 
	</style>
	<g id="غافر">
		<path id="&lt;Path&gt;" class="s0" d="m14.8 24.2c0 0.1 0 0.2-0.1 0.3-0.1 0.2-0.2 0.2-0.4 0.3-0.2 0.1-2.3 0.8-2.4 0.9-0.4 0.1-0.3 0-0.3-0.1q0.1 0 0.1-0.3c0.1-0.1 0.1-0.2 0.4-0.3 0.2-0.1 2.3-0.8 2.5-0.9 0.3-0.1 0.3 0 0.2 0.1z"/>
		<path id="&lt;Path&gt;" class="s0" d="m14.8 22.9c0 0.1 0 0.2-0.1 0.3-0.1 0.2-0.2 0.2-0.4 0.3-0.2 0.1-2.3 0.8-2.4 0.9-0.4 0.1-0.3 0-0.3-0.1q0.1 0 0.1-0.3c0.1-0.1 0.1-0.2 0.4-0.3 0.2-0.1 2.3-0.8 2.5-0.9 0.3-0.1 0.3 0 0.2 0.1z"/>
		<path id="&lt;Path&gt;" class="s0" d="m34.3 22.4c0.4 0.2 0.3 0.8 0.2 1-0.4 1.1-1.2 1.8-1.4 2-0.2 0.2-0.3 0.1-0.1-0.1 0 0 0.2-0.3 0.4-0.4 0.7-0.8 0.7-1.4 0.7-1.5 0-0.6-0.5-0.5-0.8-0.2-0.1 0.2-0.2 0.1-0.1 0q0.1-0.1 0.2-0.3c0.4-0.5 0.7-0.5 0.9-0.5z"/>
		<path id="&lt;Path&gt;" class="s0" d="m21.4 20.9c-0.1 0.1-0.1 0.1-0.2 0.3-0.1 0.2-0.2 0.2-0.4 0.4-0.2 0.1-3.9 1.5-4 1.6-0.3 0.2-0.3 0-0.2-0.1q0 0 0-0.3c0.1-0.2 0.2-0.2 0.4-0.3 0.3-0.2 3.9-1.6 4.1-1.7 0.4-0.2 0.3-0.1 0.3 0.1z"/>
		<path id="&lt;Path&gt;" class="s0" d="m63.9 20.9c0 0 0.1 0.3 0.1 0.5 0 0.3-0.2 0.6-0.3 1-0.1 0.3-0.8 0.4-1.3 0.1-0.8 1.3-1.6 0.6-2 0.5-0.7-0.3-0.9 0.2-1.1 0.4-0.9 1-2.6 1-3 1-0.4 0.1-0.1-0.2 0.1-0.3 1.3-0.4 2.1-0.5 3.3-1.6 0.5-0.5 0.9-0.3 1.1-0.2 1.1 0.5 1.2 0 1.4-0.1 0.1-0.2 0.3-0.8 0.4-0.9 0.1-0.2 0.2-0.1 0.1 0.1 0 0.1 0 0.3-0.1 0.4 0.5 0.3 0.9 0 1.1-0.1 0 0-0.1-0.3-0.1-0.4q0-0.2 0.1-0.6c0.1-0.3 0.2 0 0.2 0.2z"/>
		<path id="&lt;Path&gt;" class="s0" d="m26.5 15.5c0 0-0.1 0.4-0.2 0.6-0.5 1.4-0.3 2.1-0.2 2.2 0.4 0.8 0.9 0.4 1.1-0.1 0.1-0.3 0.2-0.2 0.2 0q0 0.1-0.1 0.4c-0.3 0.9-0.7 1.1-0.9 1.1-0.6-0.1-0.8-0.8-0.8-1.1-0.1-1.6 0.6-2.9 0.8-3.2 0.1-0.4 0.3-0.3 0.1 0.1z"/>
		<path id="&lt;Compound Path&gt;" fill-rule="evenodd" class="s0" d="m43.3 19.3c-0.3 1.1-1.9 1.7-2.3 1.8-1.4 0.5-1.5-0.9-1.4-1.9 0.1-1.1 0.9-2.4 0.9-2.4-0.1 0-1.6-1.2-1.7-1.3-0.1-0.1-0.3-0.3-0.4-0.3-0.1-0.1-0.1-0.2-0.1-0.2 0 0 0-1 0-1.2 0-0.1 0.1 0 0.2 0 0.1 0.1 1.7 0.7 1.9 0.8 0.1 0.1 0.1 0.2 0 0.2-0.1 0.1-0.6 0.2-0.6 0.2l1.3 0.9c0 0 1.8-2.3 2-2.6 0.1-0.2 0.1-0.1 0.1 0.2-0.1 0.2-0.4 1.2-0.5 1.4-0.1 0.1-1 1.4-1 1.4 0 0 1.2 0.7 1.5 1.2 0.5 0.7 0.2 1.4 0.1 1.8zm-2.3-2.1c0 0-0.8 1.4-0.9 1.7-0.4 0.8 0.4 0.9 0.7 0.9 0.3 0 1.4-0.6 1.9-1 0.6-0.4-1.4-1.4-1.7-1.6z"/>
		<path id="&lt;Path&gt;" class="s0" d="m12.3 12.8c0 0-0.2 0.5-0.3 0.8-0.6 1.8-0.3 2.6-0.3 2.8 0.4 0.9 0.9 0.4 1.2-0.2 0.1-0.3 0.2-0.2 0.1 0q0 0.1-0.1 0.5c-0.3 1.1-0.7 1.3-1 1.3-0.5-0.1-0.7-0.9-0.7-1.4 0-1.9 0.7-3.5 0.9-3.9 0.2-0.5 0.3-0.3 0.2 0.1z"/>
		<path id="&lt;Compound Path&gt;" fill-rule="evenodd" class="s0" d="m65.6 18c-0.1 0.3-0.4 1.3-1.8 1-0.4-0.1-1.2-0.2-1.5-1-0.3 0.4-1.2 1.8-2.9 1.6-0.3-0.1-1.5-0.5-1.6-2 0 0-1.4 1.1-2 1.4 0.1 0.6 0 1.2-0.2 1.9-0.3 0.6-3.3 4-5.7 4.5-0.8 0.2-3.9 0.8-4-2.7q-0.1-1.1 0-1.6c-1.9 1.5-4.2 2.6-4.9 2.9-1 0.5-4.5 1.1-5.1 1.2-0.5 0.1-0.5 0-0.3-0.2 0.3-0.1 8.2-2.8 12.2-7.1q0.2-0.2 0-0.5c-0.1-0.2-1.4-2.7-1.5-3-0.1-0.3-0.3-0.7-0.4-0.8q0-0.2 0-0.4c0-0.2 0.1-0.8 0.2-1 0-0.1 0.1-0.1 0.2 0.1 0 0.1 1.3 1.3 1.5 1.5 0.1 0.2 0 0.2 0 0.2-0.1 0-0.7 0-0.7 0 0 0 0.8 1.5 1.1 2 0.5 1.2 0.2 2.1 0.1 2.5-0.4 0.8-1.1 1.5-1.9 2.2-0.2 0.6-0.4 3.5 2.2 3.5 0.4 0 1.8 0.2 4.5-2 0.6-0.5 1.3-1.1 1.9-1.9 0.3-0.4 0.4-1 0-0.9-0.5 0-3.2 1.1-3.7-0.6 0-0.5 0.2-4.5 2.9-2.5 0.3 0.2 0.8 0.7 1.2 1.5 0.5-0.2 1.3-0.7 2.4-1.6 0.3-0.2 0.6-0.4 0.6 0 0 0.4-0.3 2.7 2.3 2 0.2-0.1 1.3-0.3 2-2.3 0.3-0.4 0.6-0.4 0.4 0-0.2 0.5-0.5 0.9-0.2 1.2 0.2 0.2 0.9 0.7 1.8 0.6 0.3 0 0.5-0.2 0.4-0.4-0.1-0.3-0.4-0.8-0.4-0.8 0.1-0.3 0.2-0.8 0.2-1 0.1-0.1 0.1-0.2 0.2-0.1 0.1 0.1 0.9 1.2 0.5 2.6zm-11.4 0.1c-0.9-1.2-1.9-0.5-2-0.4-0.2 0.2-0.2 0.5 0.6 0.6 1.1 0 1.4-0.2 1.4-0.2z"/>
		<path id="&lt;Compound Path&gt;" fill-rule="evenodd" class="s0" d="m18.9 19c-0.5 0.4-3.1 1.2-3.8 1.4-2.6 0.6-4.6 2.7-5 3.1-1.7 2.1-2.9 2.1-3.2 2-1.9-0.3-1.9-2.1-1.9-2.5 0.2-2 1.2-3.4 1.6-4-0.6-0.2-0.7-1.2-0.7-1.8 0.2-2.3 1.2-4.2 1.4-4.8 0.3-0.5 0.4-0.2 0.2 0.2 0 0-0.2 0.6-0.4 1-0.8 2.1-0.6 3.1-0.6 3.4 0.4 1.1 1.1 0.6 1.4-0.2 0.1-0.4 0.2-0.1 0.2 0-0.1 0.1-0.1 0.4-0.2 0.7-0.3 0.7-0.5 1.1-0.8 1.3q0 0 0 0c-1.4 1.9-1.7 4-1.6 4.4 0.4 1.9 1.8 1.2 2.4 0.9 0.6-0.3 2.7-2.6 3.1-3 1.5-1.4 4.4-2.1 4.8-2.2 0.3 0 2.3-0.4 2.9-1.1 0.6-0.7-0.7-0.9-1.1-0.9-1.2 0-1.5 0-2-0.4-0.9-0.7-0.4-2.2 0.6-2.9 0.8-0.6 1.4-0.2 1.7 0 1.6 1.3 2.5 3.9 1 5.4zm-0.8-3.4c-0.2-0.3-0.8-1.1-1.5-0.9-0.6 0.2-0.7 1.1 0.5 0.9 0.4-0.1 1 0 1 0z"/>
		<path id="&lt;Path&gt;" class="s0" d="m41.8 10.8l1.1 0.8q0 0.1 0 0.1l-0.6 0.9q-0.1 0.1-0.1 0l-1.1-0.8-0.6 0.8q0 0.1-0.1 0l-1.1-0.8q0 0 0-0.1l0.6-0.9q0.1 0 0.1 0l1.1 0.8 0.6-0.8q0 0 0.1 0z"/>
		<path id="&lt;Path&gt;" class="s0" d="m31.1 10.8l1.1 0.8q0.1 0 0 0.1l-0.6 0.9q0 0-0.1 0l-1.1-0.8q-0.1-0.1 0-0.1l0.6-0.9q0.1-0.1 0.1 0z"/>
		<path id="&lt;Path&gt;" class="s0" d="m62.7 10.9c0 0-0.1 0.2-0.1 0.4-0.4 1-0.2 1.5-0.1 1.6 0.2 0.5 0.6 0.2 0.7-0.2 0.1-0.2 0.2-0.1 0.1 0q0 0.1 0 0.3c-0.2 0.6-0.4 0.8-0.6 0.8-0.4 0-0.6-0.5-0.6-0.8-0.1-1 0.4-1.9 0.5-2.2 0.1-0.3 0.2-0.2 0.1 0.1z"/>
		<path id="&lt;Path&gt;" class="s0" d="m16.4 10.5l1.1 0.9q0.1 0 0 0l-0.6 0.9q-0.1 0.1-0.1 0.1l-1.1-0.9q-0.1 0 0 0l0.6-1q0 0 0.1 0z"/>
		<path id="&lt;Path&gt;" class="s0" d="m51.6 10.3c0 0-0.1 0.3-0.2 0.5-0.3 1.1-0.1 1.5-0.1 1.7 0.3 0.5 0.7 0.2 0.8-0.2 0.1-0.2 0.2-0.1 0.2 0q-0.1 0.1-0.1 0.3c-0.2 0.7-0.5 0.8-0.7 0.8-0.4 0-0.6-0.5-0.6-0.8 0-1.1 0.4-2.1 0.6-2.4 0.1-0.3 0.2-0.1 0.1 0.1z"/>
		<path id="&lt;Path&gt;" class="s0" d="m14 6.7c0.1 0.2 0 0.6-0.1 0.9-0.1 0.2-0.2 0-0.4-0.2 0 0-0.1-0.1-0.2-0.2-0.6-0.5-0.8 0.4-0.9 0.9 0 0.3-0.1 1.3-0.1 1.9-0.1 0.3-0.2 0.2-0.3 0.1-0.4-1.3-1.1-1.9-1.2-2q-0.1-0.1-0.1-0.1 0.1 0.2 0.1 0.5c-0.3 1.6-2 2.3-2.2 2.4-0.3 0.2-0.3 0.1 0-0.2 0.2-0.3 1.5-1.6 1.7-1.8 0.6-0.6-0.5-1-0.6-1.1-0.1-0.2-0.1-0.6-0.1-0.8 0.1-0.4 0.3-0.5 0.4-0.4 1.5 0.8 2 2.3 2 2.5 0.1-1.1 0.1-2.1 0.7-2.8 0.5-0.6 1.2 0.2 1.3 0.4z"/>
		<path id="&lt;Path&gt;" class="s0" d="m18 6.1c0 0-0.1 0.3-0.2 0.5-0.3 1-0.1 1.4-0.1 1.5 0.3 0.5 0.7 0.3 0.8-0.1 0.1-0.2 0.1-0.1 0.1 0q0 0.1 0 0.3c-0.2 0.6-0.5 0.7-0.7 0.7-0.4 0-0.5-0.5-0.5-0.7-0.1-1.1 0.4-2 0.5-2.3 0.1-0.3 0.2-0.1 0.1 0.1z"/>
		<path id="&lt;Path&gt;" class="s0" d="m21.6 5.8c0.8 2 0.7 9.2 0.8 10.8 0.1 3.5 1.4 4.2 2.1 4.6 2.3 1.1 5.8-0.1 6.5-0.3 0 0-1.2-1.1-1.4-1.3-0.8-1.1-0.7-2.4-0.5-2.9 0.9-2.3 2.6-2.6 3.7-2.7 1.1-0.1 2.5 0.7 2.9 1.1 0.3 0.3 0.2 0.3-0.2 0.2-2.9-0.9-5.3 1-5.5 1.1-0.2 0.1-0.4 0.3-0.3 0.6 0 0.4 0.4 1.1 0.7 1.4 1.1 1.6 2.9 1.5 3.4 1.4 0.5-0.1 3.8-1.7 4.1-1.9 0.3-0.1 0.3 0 0.2 0.2-0.1 0.2-0.6 1.3-0.6 1.3 0 0-6.3 2.7-7.1 2.9-5.2 1.7-6.9 0.1-7.2-0.2-1.8-1.4-1.6-7.6-1.6-8.6 0-2-0.3-5.1-0.7-6.4 0 0 0.3-0.8 0.4-1.1q0.1-0.6 0.3-0.2z"/>
		<path id="&lt;Path&gt;" class="s0" d="m50.6 5.7c0 0.2-0.1 0.2-0.1 0.4-0.1 0.2-0.2 0.2-0.4 0.3-0.2 0.2-6.1 3.5-6.2 3.6-0.3 0.2-0.3 0.1-0.2 0q0-0.1 0-0.4c0.1-0.1 0.1-0.2 0.4-0.3 0.2-0.2 6-3.5 6.2-3.7 0.4-0.2 0.3 0 0.3 0.1z"/>
		<path id="&lt;Path&gt;" class="s0" d="m57.7 6.1c0.1 0.2 0 0.7-0.1 1-0.1 0.1-0.2 0-0.3-0.2 0 0-0.2-0.1-0.3-0.3-0.6-0.5-0.8 0.5-0.9 1-0.1 0.3-0.1 1.4-0.2 2 0 0.3-0.2 0.3-0.3 0.1-0.4-1.4-1.2-2-1.3-2.1-0.1-0.2-0.2 0-0.2 0.1-0.1 0.1-0.1 0.1-0.2 0-0.1 0-0.5-0.3-0.7-0.4-0.1-0.2-0.1-0.7-0.1-0.9 0.1-0.4 0.3-0.5 0.4-0.4 1.6 0.9 2.1 2.4 2.2 2.6 0.1-1.1 0.1-2.1 0.7-2.9 0.5-0.7 1.2 0.3 1.3 0.4z"/>
		<path id="&lt;Compound Path&gt;" fill-rule="evenodd" class="s0" d="m63.4 8.5c0 0.2-0.1 0.1-0.2-0.1-0.1-0.1-0.2-0.2-0.4-0.3-0.3 0.5-0.3 0.5-1.3 1.4-2.1 1.8-4.4 2.5-4.6 2.5-0.1 0-0.1-0.1 0.1-0.2 0.7-0.6 3.8-2 5.4-3.9 0 0-0.5-0.2-0.9-0.4-0.3-0.3-0.1-1.1 0.1-1.5 0.6-0.9 1.1-0.5 1.2-0.3 0.6 0.9 0.3 1.8 0.3 1.8 0.3 0.1 0.5 0.5 0.3 1zm-1-2.3c-0.1 0-0.2 0-0.6 0.4 0 0.1 0.1 0.2 0.3 0.3 0.2 0.1 0.6 0.3 0.6 0.3 0-0.1 0.1-0.6-0.3-1z"/>
		<path id="&lt;Compound Path&gt;" fill-rule="evenodd" class="s0" d="m41.5 8.2c-0.1 0.2-0.2 0.1-0.3-0.1 0 0-0.4-0.4-0.4-0.4 0 0-0.5 1-1.3 1.6-1.4 1.1-2.7 1.3-2.7 1.3-0.2 0.1-0.2 0 0-0.2 0.9-0.5 2-0.9 3.6-2.8 0 0-0.5-0.2-0.8-0.5-0.4-0.2-0.2-1.1 0-1.4 0.6-1 1.2-0.5 1.3-0.3 0.5 0.8 0.2 1.7 0.2 1.7 0.3 0.2 0.6 0.6 0.4 1.1zm-1-2.3c-0.2-0.1-0.3-0.1-0.6 0.4-0.1 0.1 0 0.2 0.2 0.3 0.2 0.1 0.6 0.3 0.6 0.3 0.1-0.1 0.1-0.7-0.2-1z"/>
		<path id="&lt;Path&gt;" class="s0" d="m26.4 5.3c0 0-0.1 0.3-0.2 0.5-0.3 1-0.1 1.4-0.1 1.5 0.3 0.5 0.7 0.3 0.8-0.1 0.1-0.2 0.1-0.1 0.1 0q0 0.1-0.1 0.3c-0.1 0.6-0.4 0.8-0.6 0.8-0.4-0.1-0.5-0.5-0.5-0.8-0.1-1.1 0.3-2 0.5-2.3 0.1-0.2 0.2-0.1 0.1 0.1z"/>
		<path id="&lt;Path&gt;" class="s0" d="m36 5.2c0 0.2-0.1 0.2-0.1 0.5-0.1 0.2-0.3 0.3-0.5 0.4-0.2 0.2-9.6 4.7-10.4 5.2-0.9 0.6-0.8 0.9-0.5 1 0.5 0.1 0.9 0.6 0.5 1.2 0 0.1 0 0.1-0.1 0-0.1-0.1-0.2-0.2-0.5-0.3-0.5 0-0.6-0.7-0.5-1.4 0.1-0.4 0.4-0.8 0.7-1.1 0.7-0.5 10.9-5.4 11.1-5.6 0.4-0.2 0.4 0 0.3 0.1z"/>
	</g>
</svg>