<svg version="1.2" xmlns="http://www.w3.org/2000/svg" viewBox="0 0 70 30" width="70" height="30">
	<title>New Project</title>
	<style>
		.s0 { fill: #191c4f } 
	</style>
	<g id="فصلت">
		<path id="&lt;Path&gt;" class="s0" d="m32.2 22.9c0 0.1-0.1 0.1-0.1 0.3-0.1 0.2-0.2 0.2-0.4 0.3-0.2 0.1-4.9 1.6-5 1.6-0.3 0.2-0.3 0.1-0.3 0q0.1-0.1 0.1-0.3c0.1-0.2 0.1-0.2 0.4-0.3 0.2-0.2 4.8-1.6 5.1-1.7 0.3-0.2 0.3 0 0.2 0.1z"/>
		<path id="&lt;Path&gt;" class="s0" d="m15.5 22c0 0-0.1 0.2-0.2 0.3-0.2 0.8-0.1 1.2 0 1.3 0.2 0.4 0.5 0.2 0.6-0.1 0-0.2 0.1-0.1 0.1 0q0 0-0.1 0.2c-0.1 0.5-0.3 0.6-0.5 0.6-0.3 0-0.4-0.4-0.4-0.6-0.1-0.8 0.3-1.6 0.4-1.8 0.1-0.2 0.1-0.1 0.1 0.1z"/>
		<path id="&lt;Path&gt;" class="s0" d="m64.1 20.2c0 0 0 0.3 0 0.5 0 0.2-0.1 0.5-0.2 0.8-0.1 0.4-0.8 0.5-1.3 0.2-0.7 1.2-1.4 0.6-1.8 0.4-0.6-0.2-0.8 0.2-1 0.4-0.8 1-2.4 0.9-2.8 1-0.3 0 0-0.2 0.1-0.3 1.2-0.4 2-0.5 3.1-1.5 0.5-0.5 0.8-0.3 1-0.2 1 0.4 1.1 0 1.3-0.1 0.1-0.2 0.3-0.7 0.3-0.9 0.1-0.1 0.2 0 0.2 0.1 0 0.1-0.1 0.3-0.1 0.4 0.4 0.3 0.8 0.1 0.9 0 0 0 0-0.3 0-0.4q0-0.2 0.1-0.6c0.1-0.3 0.2 0 0.2 0.2z"/>
		<path id="&lt;Path&gt;" class="s0" d="m24.1 14c0 0-0.1 0.4-0.2 0.6-0.4 1.1-0.1 1.6 0 1.7 0.3 0.6 0.8 0.3 0.9-0.2 0.1-0.2 0.2-0.1 0.2 0q-0.1 0.1-0.1 0.4c-0.2 0.7-0.5 0.8-0.7 0.9-0.5 0-0.7-0.6-0.8-0.8-0.1-1.3 0.4-2.3 0.5-2.6 0.1-0.4 0.2-0.2 0.2 0z"/>
		<path id="&lt;Compound Path&gt;" fill-rule="evenodd" class="s0" d="m45.1 18.7c-0.3 1-1.7 1.6-2 1.7-1.3 0.4-1.4-0.9-1.3-1.8 0.1-0.9 0.7-2.1 0.7-2.1 0-0.1-1.4-1.1-1.5-1.2-0.1-0.1-0.2-0.3-0.3-0.4-0.2 0-0.2-0.1-0.2-0.1 0 0 0.1-1 0.1-1.1 0-0.1 0 0 0.1 0 0.1 0.1 1.6 0.6 1.8 0.7 0.1 0.1 0.1 0.2 0 0.2-0.1 0.1-0.6 0.2-0.6 0.2l1.2 0.8c0 0 1.7-2.1 1.8-2.3 0.2-0.3 0.2-0.1 0.1 0.1 0 0.2-0.3 1.1-0.4 1.3-0.1 0.1-0.9 1.3-0.9 1.3 0 0 1.1 0.7 1.4 1 0.4 0.7 0.1 1.4 0 1.7zm-2.1-1.9c0 0-0.7 1.3-0.8 1.5-0.3 0.8 0.4 0.9 0.7 0.9 0.3 0 1.3-0.5 1.7-0.9 0.5-0.4-1.3-1.3-1.6-1.5z"/>
		<path id="&lt;Path&gt;" class="s0" d="m36.7 12.5l1 0.7q0.1 0.1 0 0.1l-0.6 0.8q0 0.1-0.1 0.1l-1-0.8q0 0 0-0.1l0.6-0.8q0 0 0.1 0z"/>
		<path id="&lt;Path&gt;" class="s0" d="m30.3 12.6c0 0 0.1 0.5 0.3 0.8 0.2 0.3 0.3 0.6 0.2 1-0.1 0.4-0.3 0.7-0.5 0.8-0.2 0.1-0.7 0.1-1-0.4-0.4 0.8-0.9 0.9-1.2 0.8-0.4-0.2-0.4-0.8-0.4-1 0-0.2 0-0.7 0-0.9 0-0.1 0.1-0.2 0.1-0.4 0.1-0.1 0.2 0 0.2 0.1 0 0.2-0.1 1 0 1.3 0.4 0.5 1 0.1 1.2-0.2 0.1-0.2-0.2-1.1-0.2-1.1q-0.1-0.1-0.1-0.2c0.1 0 0.1-0.3 0.1-0.4q0.1-0.2 0.2 0c0.1 0.1 0.1 0.4 0.2 1.1 0.2 0.8 0.9 0.7 1.1 0.6 0.1-0.1 0.1-0.2 0-0.3 0-0.1-0.3-0.7-0.4-1-0.1-0.3 0-0.4 0-0.7 0.1-0.2 0.2-0.1 0.2 0.1z"/>
		<path id="&lt;Compound Path&gt;" fill-rule="evenodd" class="s0" d="m65.6 17.6c-0.1 0.2-0.3 1.1-1.7 0.9-0.3-0.1-1-0.3-1.3-1-0.3 0.4-1.1 1.7-2.7 1.5-0.3-0.1-1.4-0.5-1.4-1.8 0 0-1.3 1-1.9 1.3 0.1 0.5 0 1.1-0.2 1.7-0.2 0.6-3 3.7-5.2 4.2-0.7 0.1-3.6 0.7-3.7-2.5q0-1 0.1-1.6c-1.8 1.4-3.9 2.5-4.5 2.8-1 0.4-4.2 0.9-4.8 1.1-0.4 0-0.4-0.1-0.2-0.2 0.2-0.2 7.5-2.6 11.2-6.5q0.2-0.2 0-0.5c-0.1-0.2-1.3-2.5-1.4-2.8-0.1-0.3-0.3-0.6-0.3-0.7q-0.1-0.2-0.1-0.4c0-0.1 0.2-0.7 0.2-0.9 0-0.1 0.1 0 0.2 0.1 0 0.1 1.2 1.2 1.4 1.4 0.1 0.2 0 0.2-0.1 0.2 0 0-0.6 0-0.6 0 0 0 0.8 1.3 1 1.8 0.5 1.1 0.2 2 0.1 2.3-0.4 0.7-1 1.4-1.7 2-0.2 0.6-0.4 3.2 2 3.3 0.4 0 1.7 0.1 4.1-1.9 0.6-0.5 1.2-1 1.8-1.8 0.2-0.3 0.4-0.8 0-0.8-0.4 0.1-3 1-3.4-0.5 0-0.4 0.2-4.1 2.7-2.3 0.2 0.2 0.7 0.6 1.1 1.3 0.4-0.2 1.2-0.6 2.1-1.4 0.3-0.2 0.6-0.4 0.6 0 0 0.3-0.2 2.4 2.1 1.8 0.2-0.1 1.2-0.3 1.9-2.1 0.2-0.4 0.5-0.3 0.3 0-0.2 0.5-0.4 0.9-0.2 1.1 0.2 0.2 0.9 0.7 1.7 0.6 0.3-0.1 0.5-0.2 0.4-0.4-0.1-0.3-0.4-0.7-0.4-0.7 0-0.3 0.1-0.8 0.2-0.9 0-0.1 0.1-0.2 0.2-0.1 0.1 0.1 0.8 1 0.4 2.4zm-10.4 0.1c-0.8-1.1-1.8-0.5-1.9-0.4-0.1 0.1-0.2 0.4 0.6 0.5 0.9 0.1 1.3-0.1 1.3-0.1z"/>
		<path id="&lt;Path&gt;" class="s0" d="m12.1 16.4l1 0.7q0.1 0 0 0.1l-0.6 0.8q0 0.1 0 0l-1-0.7-0.6 0.7q0 0.1 0 0l-1.1-0.7q0 0 0-0.1l0.6-0.8q0.1-0.1 0.1 0l1 0.7 0.5-0.7q0.1-0.1 0.1 0z"/>
		<path id="&lt;Path&gt;" class="s0" d="m16.8 12.8c0 0 0 0.3-0.1 0.5-0.4 1.2-0.1 1.7 0 1.8 0.3 0.5 0.7 0.2 0.9-0.2 0-0.2 0.1-0.1 0.1 0q0 0.1-0.1 0.3c-0.1 0.7-0.4 0.9-0.6 0.9-0.5 0-0.7-0.5-0.7-0.8-0.2-1.2 0.3-2.3 0.4-2.6 0.1-0.3 0.2-0.2 0.1 0.1z"/>
		<path id="&lt;Path&gt;" class="s0" d="m12.2 11.7c0.7 0.1 0.5 0.4 0.4 0.6-0.5 0.8-1.2 1.1-1.7 1.3-0.5 0.2-0.2-0.2 0.1-0.4 0 0 0.2-0.2 0.7-0.5 0.4-0.3-0.7-0.3-1.2-0.3-0.5 0-0.6 0.2-0.8 0.4-0.1 0.2-0.3 0.1-0.2-0.2 0.1-0.1 0.2-0.4 0.6-0.8 0.3-0.4 1.4-0.2 2.1-0.1z"/>
		<path id="&lt;Path&gt;" class="s0" d="m43.7 10.9l1.1 0.8q0 0 0 0.1l-0.6 0.8q-0.1 0-0.1 0l-1-0.7-0.5 0.7q-0.1 0-0.1 0l-1-0.7q-0.1-0.1 0-0.1l0.6-0.8q0-0.1 0-0.1l1 0.8 0.6-0.7q0-0.1 0-0.1z"/>
		<path id="&lt;Path&gt;" class="s0" d="m63 11c0 0-0.1 0.3-0.2 0.4-0.3 0.9-0.1 1.3-0.1 1.4 0.3 0.5 0.6 0.3 0.7-0.1 0.1-0.2 0.2-0.1 0.1 0q0 0.1 0 0.3c-0.2 0.5-0.4 0.7-0.6 0.7-0.3 0-0.5-0.5-0.5-0.7-0.1-1 0.4-1.8 0.5-2.1 0.1-0.2 0.1-0.1 0.1 0.1z"/>
		<path id="&lt;Path&gt;" class="s0" d="m52.7 10.5c0 0 0 0.2-0.1 0.4-0.3 1-0.2 1.5-0.1 1.6 0.3 0.4 0.6 0.2 0.8-0.2 0-0.2 0.1-0.1 0.1 0q-0.1 0.1-0.1 0.3c-0.2 0.6-0.4 0.7-0.6 0.7-0.4 0-0.5-0.4-0.6-0.7 0-1 0.4-1.9 0.5-2.2 0.1-0.3 0.2-0.2 0.1 0.1z"/>
		<path id="&lt;Compound Path&gt;" fill-rule="evenodd" class="s0" d="m39.5 19.9c-1.1 1-3.8 1.7-4.5 1.9-3.6 0.9-6.5 0.7-6.8 0.6q-0.5-0.1-0.9-0.2c-0.1 0.2-0.4 0.6-0.5 0.7-0.2 0.2-0.3 0-0.2-0.1 0-0.2 0.2-0.5 0.3-0.8-1-0.5-1.3-1.4-1.3-1.4-1 1.8-2.2 1.7-2.5 1.7-2.1 0-2.4-2-2.5-2.2 0 0-0.2 1.9-2.6 1.9-1.5 0.1-1.6-1.8-1.6-1.8-0.2 0.1-2.4 1.2-3 1.5-4.1 1.9-6.8 0.8-7.4 0.2-2-1.8-0.4-4.5-0.2-4.9q0-0.1 0.1-0.1c-0.3-0.3-0.5-0.8-0.5-1.1-0.2-1.9 0.4-3.5 0.5-4 0.2-0.5 0.3-0.3 0.2 0.1 0 0-0.1 0.5-0.2 0.9-0.4 1.8-0.1 2.6 0 2.7 0.5 0.9 1 0.4 1.2-0.3 0.1-0.3 0.2-0.2 0.2 0q0 0.2-0.1 0.5c-0.2 1.1-0.6 1.4-0.9 1.4q-0.1 0-0.2 0c-0.5 0.8-0.6 1.7-0.5 2.1 0.5 2.8 4.2 2.3 4.7 2.2 3.3-0.6 6.2-2.4 6.5-2.5 0.3-0.1 0.3 0 0.2 0.2 0 0.1 0 0.6 0 0.8 0.1 0.9 1.1 0.9 1.3 0.9 1.6 0 1.9-0.9 2-1.3 0.1-1-0.4-4.8-0.4-5.2-0.1-0.4-0.6-4.8-0.7-5.5 0-0.6 0.2-0.9 0.3-1.1 0.1-0.2 0.2-0.2 0.2 0.1 0.4 1.3 1 7.3 1 7.3 0 0 0.3 3.4 0.5 4.2 0.4 1.6 1.5 1.9 1.7 1.9 1.8 0.2 2.8-1.8 3-2.1 0.2-0.2 0.4 0 0.2 0.3 0.2 1.3 1.4 1.6 1.4 1.6 1.8-3.4 3.7-4.1 4.1-4.2 0.4-0.1 2.7-0.6 3.7 1.5 0.4 1.1-0.7 2.4-0.9 2.6 1.3-0.1 4.7-1.6 4.9-1.7 0.2-0.1 0-0.2-0.1-0.4-0.2-0.2-0.6-0.2-0.8-0.2-0.3 0-1.7 0-2.3-0.4-0.9-0.8 0.3-2.3 0.6-2.7 0.5-0.4 2.3-0.9 3.1 2 0.4 1.5-0.1 2.2-0.3 2.4zm-0.9-2.6c-0.5-0.9-1.3-0.9-1.6-0.8-0.3 0.1-0.7 0.4-0.2 0.6 1.1 0.3 1.8 0.2 1.8 0.2zm-3.9 2.3c0.1-0.2-0.4-1.6-2.5-1.8-2.1-0.2-4.2 3.3-4.2 3.3 0.1 0.1 4.3 0.6 6.7-1.5z"/>
		<path id="&lt;Path&gt;" class="s0" d="m31.7 7.1c0 0-0.1 0.3-0.1 0.5-0.4 1-0.2 1.4-0.1 1.5 0.2 0.5 0.6 0.2 0.7-0.1 0.1-0.2 0.2-0.1 0.1 0q0 0 0 0.3c-0.2 0.5-0.4 0.7-0.6 0.7-0.4 0-0.6-0.5-0.6-0.7 0-1.1 0.4-2 0.5-2.2 0.1-0.3 0.2-0.2 0.1 0z"/>
		<path id="&lt;Path&gt;" class="s0" d="m28.3 7.5c0.1 0.2 0.1 0.6-0.1 0.8 0 0.2-0.2 0-0.3-0.1 0 0-0.1-0.2-0.2-0.3-0.5-0.4-0.7 0.4-0.8 0.8-0.1 0.3-0.1 1.3-0.2 1.8-0.1 0.2-0.2 0.2-0.3 0-0.3-1.2-0.9-1.7-1-1.9q-0.1 0-0.1 0 0.1 0.1 0 0.4c-0.3 1.5-1.8 2.1-2.1 2.2-0.2 0.1-0.2 0.1 0.1-0.2 0.2-0.3 1.4-1.4 1.6-1.6 0.5-0.6-0.4-0.9-0.5-1-0.1-0.2-0.1-0.6 0-0.8 0-0.3 0.2-0.4 0.3-0.4 1.3 0.9 1.7 2.2 1.8 2.4 0.1-1 0.2-1.9 0.7-2.5 0.5-0.6 1.1 0.3 1.1 0.4z"/>
		<path id="&lt;Compound Path&gt;" fill-rule="evenodd" class="s0" d="m37.7 9.4c-0.1 0.1-0.1 0-0.2-0.1-0.1-0.1-0.4-0.4-0.4-0.4 0 0-1.1 1.6-2.3 2.3-1.3 0.8-2.4 1.1-2.4 1.1-0.2 0-0.2-0.1 0-0.2 0.9-0.4 2.9-1.8 4.4-3.4 0 0-0.4-0.2-0.7-0.4-0.3-0.2-0.1-1 0.2-1.3 0.6-0.8 1-0.3 1-0.2 0.4 0.8 0.1 1.6 0.1 1.6 0.3 0.2 0.5 0.5 0.3 1zm-0.7-2.1c-0.1-0.1-0.3-0.1-0.6 0.3-0.1 0.1 0 0.2 0.2 0.3 0.2 0.1 0.5 0.3 0.5 0.3 0.1-0.1 0.1-0.6-0.1-0.9z"/>
		<path id="&lt;Path&gt;" class="s0" d="m12 6.8c0.1 0.2 0.1 0.6 0 0.8-0.1 0.2-0.2 0-0.4-0.1 0 0-0.1-0.1-0.2-0.2-0.5-0.5-0.7 0.4-0.8 0.8 0 0.3 0 1.2-0.1 1.8-0.1 0.2-0.2 0.2-0.3 0-0.3-1.2-1-1.7-1.1-1.8-0.1-0.2-0.2 0-0.2 0.1-0.1 0.1-0.1 0.1-0.2 0-0.1 0-0.4-0.3-0.6-0.4-0.1-0.1 0-0.6 0-0.8 0-0.3 0.2-0.4 0.3-0.3 1.4 0.8 1.8 2.1 1.9 2.3 0-1 0.1-1.9 0.6-2.6 0.4-0.5 1.1 0.3 1.1 0.4z"/>
		<path id="&lt;Path&gt;" class="s0" d="m51.8 6.3c0 0.1 0 0.1-0.1 0.3-0.1 0.2-0.2 0.2-0.3 0.3-0.2 0.1-5.6 3.2-5.7 3.3-0.3 0.2-0.3 0.1-0.2 0q0-0.1 0-0.3c0.1-0.2 0.1-0.2 0.4-0.4 0.2-0.1 5.5-3.2 5.7-3.3 0.3-0.2 0.3-0.1 0.2 0.1z"/>
		<path id="&lt;Path&gt;" class="s0" d="m58.3 6.6c0.2 0.2 0.1 0.6 0 0.9-0.1 0.2-0.2 0-0.4-0.1 0 0-0.1-0.2-0.2-0.3-0.6-0.4-0.8 0.4-0.8 0.9-0.1 0.3-0.1 1.3-0.2 1.9 0 0.2-0.2 0.2-0.2 0-0.4-1.2-1.1-1.8-1.2-1.9-0.2-0.2-0.3 0-0.3 0.1 0 0.1-0.1 0.1-0.1 0-0.1 0-0.5-0.3-0.7-0.4-0.1-0.1 0-0.6 0-0.8 0-0.3 0.2-0.4 0.3-0.4 1.5 0.8 1.9 2.2 2 2.5 0.1-1.1 0.1-2 0.7-2.8 0.4-0.5 1.1 0.3 1.1 0.4z"/>
		<path id="&lt;Compound Path&gt;" fill-rule="evenodd" class="s0" d="m63.6 8.9c0 0.1-0.1 0-0.2-0.1-0.1-0.1-0.2-0.3-0.4-0.4-0.2 0.5-0.2 0.5-1.1 1.3-2 1.7-4.1 2.3-4.2 2.3-0.2 0.1-0.2 0 0-0.2 0.7-0.5 3.5-1.8 4.9-3.5 0 0-0.4-0.2-0.7-0.4-0.3-0.3-0.2-1 0-1.4 0.6-0.8 1.1-0.4 1.2-0.3 0.5 0.8 0.2 1.7 0.2 1.7 0.2 0.1 0.5 0.4 0.3 1zm-0.9-2.2c-0.1 0-0.2 0-0.5 0.4-0.1 0.1 0 0.2 0.2 0.3 0.2 0.1 0.6 0.3 0.6 0.3 0-0.2 0-0.7-0.3-1z"/>
		<path id="&lt;Compound Path&gt;" fill-rule="evenodd" class="s0" d="m43.5 8.6c-0.1 0.1-0.2 0-0.3-0.1 0-0.1-0.4-0.4-0.4-0.4 0 0-0.4 0.9-1.1 1.5-1.3 1-2.5 1.2-2.5 1.2-0.2 0-0.2-0.1 0-0.2 0.8-0.5 1.8-0.9 3.3-2.6 0 0-0.5-0.2-0.8-0.4-0.3-0.3-0.1-1 0.1-1.4 0.5-0.8 1-0.4 1.1-0.3 0.5 0.9 0.2 1.7 0.2 1.7 0.3 0.1 0.5 0.4 0.4 1zm-1-2.1c-0.1-0.1-0.2-0.1-0.5 0.3-0.1 0.1 0 0.2 0.2 0.3 0.2 0.1 0.6 0.3 0.6 0.3 0-0.2 0.1-0.6-0.3-0.9z"/>
		<path id="&lt;Path&gt;" class="s0" d="m22.9 5.2c-0.1 0.1-0.1 0.1-0.2 0.3-0.1 0.2-0.2 0.3-0.4 0.4-0.2 0.1-6.8 2.6-7.4 3-0.8 0.3-0.7 0.6-0.5 0.7 0.4 0.2 0.6 0.5 0.3 1.1 0 0 0 0-0.1 0 0-0.1-0.1-0.3-0.4-0.3-0.3-0.1-0.4-0.7-0.3-1.2 0.2-0.4 0.4-0.7 0.7-0.9 0.6-0.3 7.8-3.1 8-3.2 0.4-0.2 0.3-0.1 0.3 0.1z"/>
	</g>
</svg>