<svg version="1.2" xmlns="http://www.w3.org/2000/svg" viewBox="0 0 70 30" width="70" height="30">
	<title>New Project</title>
	<style>
		.s0 { fill: #191c4f } 
	</style>
	<g id="الشورى">
		<path id="&lt;Path&gt;" class="s0" d="m32.3 21.4c0 0 0.1 0.3 0.1 0.5 0 0.2-0.2 0.5-0.3 0.8-0.1 0.3-0.7 0.4-1.2 0.2-0.7 1.1-1.4 0.5-1.7 0.4-0.7-0.3-0.9 0.2-1 0.3-0.9 1-2.4 0.9-2.7 1-0.4 0-0.1-0.2 0-0.3 1.2-0.4 2-0.5 3-1.5 0.5-0.4 0.8-0.2 1-0.2 1 0.5 1.1 0.1 1.3-0.1 0.1-0.1 0.3-0.6 0.3-0.8 0.1-0.1 0.2 0 0.2 0.1 0 0.1-0.1 0.3-0.1 0.4 0.4 0.3 0.8 0 0.9 0 0 0 0-0.4 0-0.5q-0.1-0.1 0.1-0.5c0.1-0.2 0.1 0 0.1 0.2z"/>
		<path id="&lt;Path&gt;" class="s0" d="m64.1 20.4c0 0 0 0.3 0 0.5 0 0.2-0.1 0.5-0.2 0.9-0.1 0.3-0.8 0.4-1.2 0.1-0.7 1.1-1.4 0.6-1.7 0.4-0.7-0.2-0.9 0.2-1.1 0.4-0.8 0.9-2.3 0.9-2.7 0.9-0.3 0.1 0-0.2 0.1-0.2 1.2-0.5 1.9-0.5 3-1.5 0.5-0.5 0.8-0.3 1-0.2 0.9 0.4 1.1 0 1.2-0.1 0.2-0.1 0.3-0.7 0.4-0.8 0.1-0.2 0.2-0.1 0.1 0.1 0 0.1 0 0.2-0.1 0.3 0.5 0.3 0.9 0.1 1 0 0 0-0.1-0.3-0.1-0.4q0-0.2 0.1-0.5c0.1-0.3 0.2-0.1 0.2 0.1z"/>
		<path id="&lt;Path&gt;" class="s0" d="m36.7 19.8c0 0-0.1 0.3-0.2 0.5-0.4 1.1-0.2 1.6-0.1 1.7 0.2 0.6 0.6 0.3 0.8-0.1 0.1-0.2 0.1-0.1 0.1 0q0 0.1-0.1 0.3c-0.2 0.7-0.5 0.9-0.7 0.9-0.4-0.1-0.5-0.6-0.5-0.9-0.1-1.2 0.5-2.2 0.6-2.5 0.1-0.3 0.2-0.1 0.1 0.1z"/>
		<path id="&lt;Path&gt;" class="s0" d="m8.1 14.3c1.8 2 1.2 4.8 1.2 4.9-0.1 0.1-0.1 0-0.1-0.2 0.2-2.5-1.4-4-1.5-4.2 0 0 0.1-0.4 0.1-0.5 0.1-0.1 0.1-0.2 0.3 0z"/>
		<path id="&lt;Compound Path&gt;" fill-rule="evenodd" class="s0" d="m45.6 19c-0.3 1-1.7 1.5-2.1 1.6-1.2 0.4-1.3-0.8-1.2-1.7 0.1-0.9 0.7-2.1 0.7-2.1 0 0-1.4-1.1-1.5-1.2-0.1-0.1-0.2-0.2-0.3-0.3-0.1-0.1-0.1-0.1-0.1-0.1 0 0 0-1 0-1.1 0-0.1 0.1-0.1 0.2 0 0.1 0 1.5 0.6 1.7 0.7 0.1 0.1 0.1 0.2 0 0.2-0.1 0-0.6 0.1-0.6 0.1l1.2 0.9c0 0 1.6-2.2 1.8-2.4 0.1-0.2 0.1 0 0.1 0.2 0 0.2-0.4 1.1-0.4 1.2-0.1 0.2-1 1.3-1 1.3 0 0 1.1 0.7 1.4 1.1 0.5 0.6 0.2 1.3 0.1 1.6zm-2.1-1.9c0 0-0.7 1.3-0.8 1.5-0.3 0.8 0.4 0.9 0.7 0.9 0.3-0.1 1.2-0.6 1.7-0.9 0.5-0.4-1.3-1.3-1.6-1.5z"/>
		<path id="&lt;Path&gt;" class="s0" d="m31.6 14.4l1.1 0.8q0 0 0 0l-0.6 0.8q-0.1 0.1-0.1 0.1l-1-0.7-0.5 0.6q0 0.1-0.1 0.1l-1-0.8q0 0 0 0l0.6-0.9q0 0 0.1 0l1 0.7 0.5-0.7q0 0 0 0z"/>
		<path id="&lt;Path&gt;" class="s0" d="m30.6 12.7l1 0.7q0 0.1 0 0.1l-0.6 0.8q0 0.1-0.1 0l-1-0.7q0 0 0-0.1l0.6-0.8q0 0 0.1 0z"/>
		<path id="&lt;Compound Path&gt;" fill-rule="evenodd" class="s0" d="m65.6 17.9c-0.1 0.2-0.3 1.1-1.6 0.8-0.4 0-1-0.2-1.3-0.9-0.3 0.4-1.1 1.7-2.6 1.5-0.4-0.1-1.4-0.5-1.5-1.8 0 0-1.2 1-1.8 1.3 0.1 0.5 0 1-0.2 1.6-0.2 0.6-2.9 3.6-5.1 4.1-0.7 0.2-3.5 0.7-3.6-2.4q0-1 0.1-1.5c-1.8 1.3-3.8 2.4-4.4 2.6-0.9 0.5-4.1 1-4.7 1.1-0.4 0.1-0.4 0-0.2-0.2 0.2-0.1 7.3-2.5 11-6.3 0.1-0.2 0-0.3-0.1-0.5-0.1-0.2-1.2-2.4-1.3-2.7-0.1-0.3-0.3-0.7-0.3-0.8q-0.1-0.1-0.1-0.3c0-0.1 0.1-0.7 0.2-0.8 0-0.2 0.1-0.1 0.2 0 0 0.1 1.2 1.2 1.3 1.4 0.2 0.1 0 0.2 0 0.2-0.1 0-0.6 0-0.6 0 0 0 0.7 1.3 1 1.7 0.4 1.1 0.2 1.9 0 2.3-0.3 0.7-0.9 1.4-1.7 2-0.1 0.5-0.3 3.1 2.1 3.1 0.3 0.1 1.6 0.2 4-1.8 0.5-0.4 1.2-1 1.7-1.7 0.2-0.3 0.4-0.9 0-0.8-0.4 0-2.9 1-3.3-0.6-0.1-0.3 0.1-3.9 2.6-2.2 0.2 0.2 0.7 0.6 1.1 1.3 0.4-0.2 1.1-0.6 2.1-1.4 0.3-0.2 0.5-0.3 0.5 0 0 0.4-0.2 2.4 2.1 1.8 0.2-0.1 1.2-0.3 1.8-2 0.3-0.4 0.5-0.4 0.4 0-0.2 0.4-0.4 0.8-0.2 1 0.2 0.2 0.8 0.7 1.6 0.6 0.3-0.1 0.5-0.2 0.4-0.4-0.1-0.2-0.4-0.7-0.4-0.7 0.1-0.3 0.2-0.7 0.2-0.9 0-0.1 0.1-0.2 0.2-0.1 0.1 0.1 0.8 1.1 0.4 2.4zm-10.2 0.1c-0.8-1.1-1.7-0.5-1.9-0.4-0.1 0.1-0.1 0.4 0.6 0.5 1 0 1.3-0.1 1.3-0.1z"/>
		<path id="&lt;Path&gt;" class="s0" d="m24.6 12.4c0.2 0.1 0.1 0.5 0 0.7 0 0.2-0.2 0-0.3-0.1 0 0-0.1-0.1-0.2-0.2-0.5-0.3-0.6 0.4-0.6 0.8-0.1 0.3 0 1.1-0.1 1.6 0 0.2-0.1 0.2-0.2 0.1-0.4-1.1-1-1.5-1.1-1.6-0.1-0.1-0.2 0-0.2 0.1 0 0.1-0.1 0.1-0.2 0.1 0-0.1-0.4-0.3-0.5-0.4-0.1-0.1-0.1-0.5-0.1-0.7 0-0.2 0.2-0.3 0.3-0.3 1.2 0.6 1.7 1.8 1.8 2 0-0.9 0-1.7 0.4-2.4 0.4-0.5 1 0.2 1 0.3z"/>
		<path id="&lt;Path&gt;" class="s0" d="m44.2 11.4l1 0.7q0.1 0 0 0.1l-0.6 0.8q0 0 0 0l-1-0.7-0.5 0.7q-0.1 0-0.1 0l-1-0.7q0-0.1 0-0.1l0.6-0.8q0 0 0.1 0l0.9 0.7 0.5-0.7q0.1 0 0.1 0z"/>
		<path id="&lt;Path&gt;" class="s0" d="m15.5 12.1c0.1 0.4-0.3 1-0.3 1q-0.1 0.1-0.1 0c-0.1-0.1-0.3-0.4-0.7-0.6-0.7-0.3-2.4 1.3-2.7 1.8-0.6 0.9-0.2 1.3 0.2 1.6 0.5 0.2 1.9 0.1 2.3 0.1 1.2 0.1 1.3 0.8 1.3 1.2 0 1.6-2.3 2.9-2.6 3.2-4 2.7-6.5 1-6.9 0.6-2.1-1.9-0.3-6 0-6.3 0.3-0.4 0.3-0.1 0.2 0.1-1 2.5-0.5 4-0.4 4.3 1 2.3 4.2 1.4 4.9 1.1 2-0.8 3.8-2.3 4-2.4 0.2-0.2 0.2-0.2 0.1-0.3-0.3-0.3-1.7-0.2-2-0.2-2.3 0-2-1.6-1.9-1.9 0.6-2.9 2.7-3.8 3.1-4 0.4-0.1 1.1-0.2 1.5 0.7z"/>
		<path id="&lt;Path&gt;" class="s0" d="m63 11.4c0 0-0.1 0.3-0.1 0.5-0.3 0.8-0.1 1.2-0.1 1.3 0.2 0.5 0.6 0.2 0.7-0.1 0-0.2 0.1-0.1 0.1 0q0 0.1-0.1 0.3c-0.1 0.5-0.4 0.6-0.5 0.6-0.4 0-0.5-0.4-0.5-0.6-0.1-1 0.3-1.8 0.4-2 0.1-0.3 0.2-0.2 0.1 0z"/>
		<path id="&lt;Path&gt;" class="s0" d="m53 10.9c0 0-0.1 0.3-0.1 0.5-0.3 0.9-0.2 1.4-0.1 1.5 0.2 0.4 0.6 0.2 0.7-0.2 0.1-0.2 0.1-0.1 0.1 0q0 0.1 0 0.3c-0.2 0.6-0.4 0.7-0.6 0.7-0.4 0-0.5-0.4-0.6-0.7 0-1 0.4-1.9 0.5-2.2 0.1-0.2 0.2-0.1 0.1 0.1z"/>
		<path id="&lt;Path&gt;" class="s0" d="m30.9 9.6c0 0 0.1 0.4 0.2 0.7 0.1 0.2 0.2 0.4 0.2 0.8-0.1 0.4-0.3 0.6-0.5 0.7-0.2 0.1-0.5 0.1-0.8-0.3-0.3 0.6-0.8 0.7-1 0.6-0.3-0.2-0.4-0.7-0.3-0.8 0-0.2-0.1-0.7-0.1-0.8 0-0.1 0.1-0.2 0.1-0.3 0.1-0.1 0.2-0.1 0.2 0.1 0 0.1-0.1 0.8 0 1.1 0.3 0.4 0.9 0 1-0.2 0.1-0.2-0.2-0.9-0.2-1q0 0 0-0.1c0 0 0-0.2 0.1-0.4q0-0.1 0.1 0.1c0.1 0.1 0.1 0.3 0.2 0.9 0.1 0.7 0.7 0.5 0.9 0.5 0.1-0.1 0.1-0.2 0.1-0.2-0.1-0.1-0.3-0.7-0.4-0.9-0.1-0.2-0.1-0.4 0-0.6 0.1-0.2 0.1-0.1 0.2 0.1z"/>
		<path id="&lt;Path&gt;" class="s0" d="m23.5 7.5c0 0.2 0 0.2-0.1 0.4-0.1 0.1-0.2 0.2-0.4 0.3-0.2 0.1-6.2 3.1-6.3 3.1-0.3 0.2-0.3 0.1-0.3 0q0-0.1 0.1-0.3c0-0.2 0.1-0.2 0.3-0.3 0.2-0.2 6.2-3.1 6.5-3.2 0.3-0.2 0.3-0.1 0.2 0z"/>
		<path id="&lt;Path&gt;" class="s0" d="m10.5 7.9c0.1 0.2 0 0.6-0.1 0.8-0.1 0.2-0.2 0-0.3-0.1 0 0-0.1-0.1-0.2-0.2-0.6-0.4-0.7 0.4-0.8 0.8 0 0.3-0.1 1.2-0.2 1.7 0 0.2-0.1 0.2-0.2 0.1-0.3-1.2-1-1.7-1.1-1.8q0-0.1-0.1-0.1 0.1 0.2 0.1 0.5c-0.3 1.4-1.7 2-2 2.1-0.2 0.2-0.2 0.1 0-0.2 0.3-0.2 1.4-1.4 1.6-1.6 0.5-0.5-0.4-0.9-0.6-1-0.1-0.1 0-0.5 0-0.7 0-0.3 0.2-0.4 0.3-0.4 1.3 0.8 1.8 2.1 1.8 2.3 0.1-1 0.1-1.9 0.7-2.5 0.4-0.6 1 0.2 1.1 0.3z"/>
		<path id="&lt;Path&gt;" class="s0" d="m15.1 7.3c0 0 0 0.3-0.1 0.5-0.3 0.9-0.1 1.3 0 1.4 0.3 0.5 0.6 0.2 0.8-0.1 0-0.2 0.1-0.1 0.1-0.1q0 0.1-0.1 0.3c-0.1 0.6-0.4 0.8-0.6 0.8-0.4 0-0.6-0.5-0.6-0.7-0.1-1 0.3-1.9 0.4-2.1 0.1-0.3 0.2-0.2 0.1 0z"/>
		<path id="&lt;Path&gt;" class="s0" d="m52.1 6.8c0 0.1 0 0.2-0.1 0.3-0.1 0.2-0.2 0.2-0.3 0.4-0.2 0.1-5.4 3.1-5.5 3.2-0.4 0.2-0.3 0-0.3-0.1q0 0 0.1-0.3c0-0.1 0.1-0.2 0.3-0.3 0.2-0.1 5.4-3.1 5.6-3.3 0.3-0.1 0.3 0 0.2 0.1z"/>
		<path id="&lt;Path&gt;" class="s0" d="m58.5 7.1c0.1 0.3 0 0.7-0.1 0.9 0 0.2-0.2 0-0.3-0.1 0 0-0.1-0.2-0.2-0.3-0.6-0.4-0.8 0.5-0.8 0.9-0.1 0.3-0.1 1.3-0.2 1.8 0 0.2-0.2 0.2-0.2 0.1-0.4-1.3-1.1-1.8-1.2-1.9-0.1-0.2-0.2 0-0.3 0.1 0 0.1 0 0.1-0.1 0-0.1 0-0.5-0.3-0.6-0.4-0.1-0.1-0.1-0.6-0.1-0.8 0-0.3 0.3-0.4 0.4-0.4 1.4 0.8 1.8 2.2 1.9 2.4 0.1-1 0.1-1.9 0.7-2.6 0.4-0.6 1.1 0.2 1.1 0.3z"/>
		<path id="&lt;Compound Path&gt;" fill-rule="evenodd" class="s0" d="m63.7 9.3c-0.1 0.2-0.1 0.1-0.2 0-0.1-0.1-0.3-0.3-0.4-0.4-0.3 0.5-0.2 0.5-1.1 1.3-2 1.6-4.1 2.2-4.2 2.3-0.1 0-0.1-0.1 0.1-0.3 0.6-0.5 3.4-1.7 4.8-3.4 0 0-0.4-0.2-0.7-0.4-0.3-0.2-0.2-1 0-1.3 0.6-0.9 1-0.5 1.1-0.3 0.5 0.8 0.2 1.6 0.2 1.6 0.3 0.1 0.6 0.4 0.4 0.9zm-0.9-2c-0.1-0.1-0.3-0.1-0.6 0.3 0 0.1 0.1 0.2 0.2 0.3 0.2 0.1 0.6 0.3 0.6 0.3 0-0.1 0.1-0.6-0.2-0.9z"/>
		<path id="&lt;Compound Path&gt;" fill-rule="evenodd" class="s0" d="m43.9 9.1c0 0.1-0.1 0-0.2-0.1 0-0.1-0.4-0.4-0.4-0.4 0 0-0.4 0.9-1.1 1.5-1.3 0.9-2.4 1.1-2.5 1.1-0.1 0.1-0.1 0 0.1-0.2 0.8-0.5 1.8-0.8 3.2-2.5 0 0-0.5-0.2-0.8-0.4-0.3-0.2-0.1-1 0.1-1.3 0.5-0.9 1-0.4 1.1-0.3 0.5 0.8 0.2 1.6 0.2 1.6 0.3 0.1 0.5 0.4 0.3 1zm-0.9-2.1c-0.1-0.1-0.2-0.1-0.5 0.3-0.1 0.1 0 0.2 0.2 0.3 0.2 0.1 0.6 0.3 0.6 0.3 0-0.1 0.1-0.6-0.3-0.9z"/>
		<path id="&lt;Compound Path&gt;" fill-rule="evenodd" class="s0" d="m35.7 17.7c0 2.1-0.9 2.3-1.2 2.4-1 0.2-1.7-0.5-1.8-0.7-1.1 2-2.4 0.9-2.4 0.3-0.8 0.9-1.3 1-1.6 1.1-2 0.4-2-1.9-2-1.9 0 0-1.2 0.7-1.9 1q0.1 0.4 0 0.5c0 0-0.1 1.1-1 1.9-3.4 3.3-5.4 2.4-5.7 2.2-1-0.6-0.9-2.1-0.7-3.2-1.6 1.1-3.4 1.8-4 2-0.9 0.5-4.1 1-4.6 1.1-0.4 0.1-0.5 0-0.3-0.2 0.3-0.1 7.4-2.2 11.1-5.9 0.1-0.2 0.3-0.3 0.2-0.4-0.2-0.2-1.3-2.4-1.4-2.7-0.1-0.3-0.3-0.7-0.3-0.8q-0.1-0.2-0.1-0.3c0.1-0.2 0.2-0.7 0.2-0.9 0-0.1 0.1-0.1 0.2 0 0 0.1 1.2 1.3 1.3 1.4 0.2 0.2 0.1 0.3 0 0.3 0 0-0.6-0.1-0.6-0.1 0 0 0.8 1.3 1 1.8 0.4 1.1 0.1 1.9-0.1 2.2-0.4 0.9-1.3 1.6-2.2 2.3-0.6 2.2 1.4 2.5 1.7 2.5 2.4-0.1 4.6-2.6 4.9-3 0.2-0.4-0.3-0.4-0.5-0.3-1.4 0.2-2.2-0.2-2.4-0.4-0.4-0.4-0.5-1.2 0.4-2.2 0.8-0.9 1.6-0.5 2.2 0.3q0.4 0.5 0.5 0.9c0.6-0.3 2.1-1.1 2.5-1.4 0.4-0.3 0.1 0.5 0.1 0.7-0.1 1.5 1.2 1.4 1.5 1.4 1.2-0.1 1.8-1.2 2-1.5 0.3-0.3 0.3 0 0.2 0.2 0 0.1-0.1 0.3-0.1 0.3 0 0.9 0.8 0.8 0.9 0.7 0.7-0.2 1.2-1.3 1.4-1.6 0.2-0.3 0.3 0 0.2 0.1 0 0.1-0.1 0.4-0.1 0.4 0.6 1.1 1.8 0.7 1.9 0.5 0.1-0.2-0.6-5.3-0.6-5.3-0.2-1.9-0.5-3.6-0.5-3.6-0.1-0.7-0.2-1.4-0.2-1.8-0.1-0.5-0.2-0.7-0.2-0.8 0 0 0.4-0.8 0.5-1 0-0.1 0 0 0.1 0.1 0 0.1 1.1 2.9 1.2 3.1 0 0.2-0.1 0.2-0.2 0.1-0.1-0.1-0.6-0.5-0.6-0.5 0 0 1.1 8.4 1.1 8.7zm-12 1.5c-0.4-0.8-1-0.9-1.3-0.7-0.4 0.2-0.6 0.5 0.2 0.7 0.7 0.1 1.1 0 1.1 0z"/>
		<path id="&lt;Path&gt;" class="s0" d="m37.4 6.3c0 0.1 1.2 3.1 1.3 3.2 0 0.2-0.1 0.2-0.2 0.1-0.1-0.1-0.7-0.6-0.7-0.6 0 0 1.1 7.2 1.1 7.5 0.7 4.3 0.1 5.5 0 5.6-0.1 0.2-0.1 0.1-0.1 0-0.1-1.8-1-8.1-1.1-8.5 0-0.3-0.7-5.9-0.8-6.4 0 0 0.3-0.8 0.3-1 0.1-0.1 0.1 0 0.2 0.1z"/>
		<path id="&lt;Compound Path&gt;" fill-rule="evenodd" class="s0" d="m30.3 8.8c-0.1 0.1-0.1 0-0.2-0.1 0-0.1-0.3-0.4-0.3-0.4 0 0-1.2 1.5-2.3 2.2-1.4 0.7-2.5 1-2.5 1-0.1 0-0.2-0.1 0-0.2 0.9-0.4 2.9-1.7 4.4-3.2 0 0-0.4-0.2-0.6-0.4-0.3-0.3 0-1 0.2-1.3 0.6-0.7 1-0.3 1.1-0.1 0.3 0.8 0 1.5 0 1.5 0.2 0.2 0.4 0.5 0.2 1zm-0.6-2.1c-0.1-0.1-0.3-0.1-0.6 0.2-0.1 0.1 0 0.3 0.2 0.4 0.1 0.1 0.5 0.3 0.5 0.3 0-0.1 0.1-0.6-0.1-0.9z"/>
	</g>
</svg>