<svg version="1.2" xmlns="http://www.w3.org/2000/svg" viewBox="0 0 70 30" width="70" height="30">
	<title>New Project</title>
	<style>
		.s0 { fill: #191c4f } 
	</style>
	<g id="الزخرف">
		<path id="&lt;Path&gt;" class="s0" d="m11.2 21.4c-0.1 0.1-0.1 0.1-0.2 0.3 0 0.2-0.1 0.2-0.3 0.3-0.3 0.1-2.7 1-2.9 1-0.3 0.2-0.3 0.1-0.2 0q0-0.1 0-0.3c0.1-0.2 0.1-0.2 0.4-0.3 0.2-0.1 2.7-1 2.9-1.1 0.4-0.1 0.3 0 0.3 0.1z"/>
		<path id="&lt;Path&gt;" class="s0" d="m21.8 20.5c0 0-0.1 0.2-0.2 0.4-0.3 0.9-0.2 1.3-0.2 1.4 0.3 0.5 0.6 0.3 0.8 0 0-0.2 0.1-0.1 0.1 0q-0.1 0-0.1 0.2c-0.2 0.6-0.5 0.7-0.6 0.7-0.4 0-0.5-0.5-0.5-0.7 0-1 0.5-1.9 0.6-2.1 0.1-0.3 0.2-0.1 0.1 0.1z"/>
		<path id="&lt;Path&gt;" class="s0" d="m35.9 20c0 0-0.1 0.3-0.2 0.5-0.4 0.9-0.3 1.3-0.2 1.4 0.2 0.5 0.6 0.3 0.7-0.1 0.1-0.1 0.2 0 0.1 0q0 0.1-0.1 0.3c-0.2 0.6-0.4 0.7-0.6 0.7-0.4-0.1-0.5-0.5-0.5-0.8 0.1-1 0.6-1.8 0.7-2 0.1-0.3 0.2-0.2 0.1 0z"/>
		<path id="&lt;Path&gt;" class="s0" d="m64.1 19.1c0 0 0.1 0.3 0.1 0.5 0 0.2-0.2 0.5-0.3 0.8-0.1 0.3-0.7 0.4-1.1 0.1-0.8 1.2-1.4 0.6-1.8 0.5-0.6-0.3-0.8 0.1-1 0.3-0.8 0.9-2.3 0.9-2.7 0.9-0.3 0.1 0-0.1 0.1-0.2 1.2-0.4 1.9-0.5 3-1.5 0.5-0.4 0.7-0.2 0.9-0.2 1 0.5 1.1 0 1.3-0.1 0.1-0.1 0.3-0.6 0.3-0.8 0.1-0.1 0.2 0 0.2 0.1 0 0.1-0.1 0.3-0.1 0.4 0.4 0.3 0.8 0 0.9 0 0 0 0-0.3-0.1-0.4q0-0.2 0.2-0.6c0.1-0.2 0.1 0 0.1 0.2z"/>
		<path id="&lt;Compound Path&gt;" fill-rule="evenodd" class="s0" d="m45.9 17.7c-0.3 1-1.7 1.5-2 1.6-1.3 0.4-1.4-0.8-1.3-1.7 0.1-0.9 0.8-2.1 0.8-2.1-0.1 0-1.4-1-1.5-1.1-0.1-0.1-0.2-0.3-0.4-0.4-0.1 0-0.1-0.1-0.1-0.1 0 0 0.1-0.9 0.1-1 0-0.1 0-0.1 0.1 0 0.1 0 1.5 0.6 1.7 0.6 0.1 0.1 0.1 0.2 0 0.2-0.1 0.1-0.6 0.2-0.6 0.2l1.2 0.8c0 0 1.6-2.1 1.8-2.3 0.1-0.2 0.1-0.1 0.1 0.1-0.1 0.3-0.4 1.1-0.4 1.3-0.1 0.1-0.9 1.3-0.9 1.3 0 0 1 0.6 1.3 1 0.5 0.6 0.2 1.3 0.1 1.6zm-2.1-1.8c0 0-0.7 1.2-0.8 1.4-0.3 0.7 0.4 0.9 0.7 0.9 0.3-0.1 1.2-0.6 1.7-0.9 0.4-0.4-1.3-1.3-1.6-1.4z"/>
		<path id="&lt;Compound Path&gt;" fill-rule="evenodd" class="s0" d="m65.6 16.6c-0.1 0.2-0.3 1.1-1.6 0.8-0.4 0-1-0.2-1.3-0.9-0.3 0.4-1.1 1.7-2.6 1.4-0.3 0-1.3-0.4-1.4-1.7 0 0-1.2 1-1.8 1.3 0.1 0.4 0.1 1-0.2 1.6-0.2 0.6-2.8 3.6-5 4-0.7 0.2-3.4 0.7-3.6-2.4 0-0.6 0.1-1.1 0.1-1.4-1.7 1.3-3.7 2.3-4.3 2.6-0.9 0.4-4.1 0.9-4.6 1-0.4 0.1-0.5 0-0.2-0.1 0.2-0.2 7.2-2.5 10.8-6.3q0.1-0.2 0-0.5c-0.1-0.2-1.3-2.4-1.4-2.6-0.1-0.3-0.2-0.7-0.3-0.8q-0.1-0.2 0-0.3c0-0.1 0.1-0.7 0.1-0.9 0.1-0.1 0.1 0 0.2 0.1 0.1 0.1 1.2 1.2 1.3 1.3 0.2 0.2 0.1 0.3 0 0.3 0 0-0.6-0.1-0.6-0.1 0 0 0.8 1.3 1 1.8 0.4 1 0.2 1.9 0.1 2.2-0.4 0.7-1 1.3-1.7 1.9-0.1 0.6-0.3 3.1 2 3.2 0.4 0 1.6 0.1 3.9-1.8 0.6-0.5 1.2-1 1.8-1.7 0.2-0.4 0.3-0.9-0.1-0.8-0.4 0-2.8 0.9-3.2-0.6-0.1-0.3 0.1-3.9 2.5-2.1 0.2 0.1 0.8 0.6 1.1 1.2 0.4-0.1 1.2-0.6 2.1-1.3 0.3-0.3 0.5-0.4 0.5 0 0 0.3-0.2 2.3 2 1.7 0.3-0.1 1.2-0.2 1.9-2 0.2-0.4 0.4-0.4 0.3 0-0.2 0.4-0.4 0.8-0.2 1 0.2 0.2 0.9 0.7 1.6 0.6 0.3-0.1 0.5-0.2 0.4-0.4-0.1-0.2-0.4-0.7-0.4-0.7 0.1-0.3 0.2-0.7 0.2-0.8 0-0.1 0.1-0.2 0.2-0.1 0.1 0.1 0.8 1 0.4 2.3zm-10 0.1c-0.8-1.1-1.8-0.5-1.9-0.4-0.1 0.1-0.2 0.4 0.6 0.5 0.9 0.1 1.3-0.1 1.3-0.1z"/>
		<path id="&lt;Path&gt;" class="s0" d="m44.5 10.2l1 0.7q0 0 0 0.1l-0.6 0.8q0 0 0 0l-1-0.7-0.5 0.7q0 0-0.1 0l-1-0.7q0-0.1 0-0.1l0.6-0.8q0 0 0.1 0l0.9 0.7 0.5-0.7q0.1 0 0.1 0z"/>
		<path id="&lt;Path&gt;" class="s0" d="m63.1 10.2c0 0-0.1 0.3-0.2 0.5-0.3 0.8-0.1 1.2-0.1 1.3 0.3 0.4 0.6 0.2 0.7-0.1 0.1-0.2 0.1-0.1 0.1 0q0 0.1 0 0.2c-0.2 0.6-0.4 0.7-0.6 0.7-0.3 0-0.5-0.4-0.5-0.7 0-0.9 0.4-1.7 0.5-1.9 0-0.3 0.1-0.2 0.1 0z"/>
		<path id="&lt;Path&gt;" class="s0" d="m32.4 13.4l1 0.7q0 0.1 0 0.1l-0.6 0.8q0 0.1-0.1 0l-0.9-0.7q-0.1 0-0.1-0.1l0.6-0.8q0.1 0 0.1 0z"/>
		<path id="&lt;Path&gt;" class="s0" d="m10.5 13.2c0 0-0.1 0.4-0.2 0.7-0.4 1.6-0.1 2.3 0 2.4 0.4 0.8 0.9 0.3 1-0.2 0.1-0.3 0.2-0.2 0.2-0.1q0 0.2-0.1 0.5c-0.2 1-0.5 1.2-0.7 1.2-0.6 0-0.8-0.7-0.9-1.1-0.1-1.7 0.4-3.1 0.5-3.5 0.1-0.5 0.3-0.3 0.2 0.1z"/>
		<path id="&lt;Path&gt;" class="s0" d="m19.2 12.9c0 0-0.1 0.3-0.1 0.5-0.3 1-0.1 1.4 0 1.5 0.3 0.5 0.6 0.2 0.7-0.1 0-0.2 0.1-0.1 0.1-0.1q0 0.1-0.1 0.3c-0.1 0.7-0.3 0.8-0.5 0.8-0.3 0-0.5-0.4-0.5-0.7-0.2-1.1 0.2-2 0.3-2.3 0.1-0.3 0.2-0.1 0.1 0.1z"/>
		<path id="&lt;Path&gt;" class="s0" d="m13.5 10.4l0.9 0.7q0.1 0.1 0.1 0.1l-0.6 0.8q-0.1 0-0.1 0l-1-0.7q0 0 0-0.1l0.6-0.8q0 0 0.1 0z"/>
		<path id="&lt;Path&gt;" class="s0" d="m23.8 10l1 0.7q0 0.1 0 0.1l-0.6 0.8q-0.1 0-0.1 0l-1-0.7q0 0 0-0.1l0.6-0.8q0 0 0.1 0z"/>
		<path id="&lt;Path&gt;" class="s0" d="m53.2 9.7c0 0-0.1 0.3-0.1 0.5-0.4 0.9-0.2 1.3-0.1 1.4 0.2 0.5 0.6 0.3 0.7-0.1 0.1-0.2 0.1-0.1 0.1 0q0 0.1-0.1 0.3c-0.1 0.6-0.4 0.7-0.6 0.7-0.3 0-0.5-0.5-0.5-0.7 0-1 0.4-1.9 0.5-2.1 0.1-0.3 0.2-0.2 0.1 0z"/>
		<path id="&lt;Path&gt;" class="s0" d="m33 9.3c0 0 0.1 0.4 0.2 0.7 0.2 0.3 0.3 0.5 0.2 1-0.1 0.4-0.3 0.7-0.5 0.7-0.2 0.1-0.6 0.1-0.9-0.3-0.4 0.7-0.9 0.9-1.2 0.7-0.4-0.2-0.4-0.7-0.4-0.9 0.1-0.2 0-0.7 0-0.9 0-0.1 0.1-0.2 0.1-0.3 0.1-0.2 0.2-0.1 0.2 0.1 0 0.1-0.1 0.9 0 1.2 0.4 0.4 1 0 1.1-0.2 0.1-0.2-0.1-1.1-0.2-1.1q0-0.1 0-0.1c0-0.1 0.1-0.3 0.1-0.5q0.1-0.1 0.2 0.1c0 0.1 0.1 0.3 0.2 1 0.1 0.8 0.8 0.6 1 0.6 0.1-0.1 0.1-0.2 0.1-0.3-0.1-0.1-0.4-0.7-0.5-1-0.1-0.2 0-0.4 0.1-0.6 0-0.3 0.1-0.1 0.2 0.1z"/>
		<path id="&lt;Path&gt;" class="s0" d="m26.9 6c0.7 0.1 0.5 0.4 0.4 0.6-0.5 0.8-1.1 1.2-1.6 1.4-0.4 0.3-0.2-0.1 0-0.3 0 0 0.3-0.2 0.7-0.6 0.4-0.3-0.7-0.2-1.2-0.2-0.5 0-0.6 0.2-0.7 0.4-0.2 0.2-0.4 0.1-0.2-0.1 0-0.2 0.1-0.5 0.5-0.9 0.3-0.4 1.4-0.3 2.1-0.3z"/>
		<path id="&lt;Path&gt;" class="s0" d="m11.4 6.1c0.1 0.2 0.1 0.6 0 0.9-0.1 0.1-0.2 0-0.3-0.1 0 0-0.2-0.2-0.3-0.3-0.5-0.4-0.6 0.5-0.7 0.9 0 0.3 0 1.2-0.1 1.7q0 0.1 0 0.1c0 0.5-0.1 1-0.9 1.6-0.9 0.6-0.9 0.7-1 0.7-0.1 0.1-0.2 0 0-0.2 0.1 0 1.8-1.6 1.6-2.3-0.2-0.9-1-1.5-1.1-1.6-0.1-0.1-0.2 0.1-0.2 0.2 0 0.1-0.1 0.1-0.1 0-0.1 0-0.5-0.2-0.6-0.4-0.1-0.1-0.1-0.5-0.1-0.7 0-0.3 0.2-0.4 0.3-0.4 1.3 0.7 1.8 2 1.9 2.2 0-1 0-1.9 0.5-2.5 0.4-0.6 1.1 0.2 1.1 0.2z"/>
		<path id="&lt;Path&gt;" class="s0" d="m52.3 5.7c0 0.1 0 0.1-0.1 0.3-0.1 0.2-0.2 0.2-0.3 0.3-0.2 0.1-5.4 3.1-5.5 3.2-0.3 0.2-0.2 0-0.2-0.1q0 0 0-0.2c0.1-0.2 0.2-0.2 0.4-0.4 0.2-0.1 5.3-3.1 5.5-3.2 0.3-0.2 0.3 0 0.2 0.1z"/>
		<path id="&lt;Path&gt;" class="s0" d="m58.6 6c0.1 0.2 0 0.6-0.1 0.9 0 0.1-0.2 0-0.3-0.2 0 0-0.1-0.1-0.2-0.2-0.5-0.4-0.7 0.4-0.8 0.8 0 0.3-0.1 1.3-0.2 1.8 0 0.3-0.2 0.2-0.2 0.1-0.4-1.2-1.1-1.8-1.2-1.9-0.1-0.1-0.2 0.1-0.2 0.1 0 0.1-0.1 0.1-0.2 0.1 0-0.1-0.4-0.3-0.5-0.4-0.2-0.2-0.1-0.6-0.1-0.8 0-0.3 0.2-0.4 0.3-0.4 1.4 0.8 1.8 2.2 1.9 2.4 0.1-1.1 0.1-2 0.7-2.7 0.4-0.5 1.1 0.3 1.1 0.4z"/>
		<path id="&lt;Compound Path&gt;" fill-rule="evenodd" class="s0" d="m63.7 8.2c0 0.1-0.1 0-0.2-0.1-0.1-0.1-0.2-0.3-0.4-0.4-0.2 0.5-0.2 0.6-1.1 1.3-1.9 1.6-4 2.2-4.1 2.2-0.1 0.1-0.1 0 0.1-0.2 0.6-0.5 3.4-1.7 4.8-3.4 0 0-0.5-0.2-0.8-0.4-0.3-0.2-0.1-1 0.1-1.3 0.5-0.8 1-0.4 1.1-0.3 0.4 0.8 0.2 1.6 0.2 1.6 0.2 0.2 0.5 0.5 0.3 1zm-0.9-2.1c-0.1 0-0.2 0-0.5 0.4-0.1 0.1 0 0.2 0.2 0.3 0.2 0 0.6 0.2 0.6 0.2 0-0.1 0-0.6-0.3-0.9z"/>
		<path id="&lt;Compound Path&gt;" fill-rule="evenodd" class="s0" d="m21.9 8.2c0 0.1-0.1 0-0.2-0.1 0-0.1-0.4-0.3-0.4-0.3 0 0-1 1.7-2.1 2.6-1.3 1-2.4 1.4-2.4 1.5-0.1 0-0.2-0.1 0-0.2 0.8-0.6 2.8-2.3 4.1-4.1 0 0-0.4-0.1-0.7-0.3-0.3-0.3-0.2-1 0-1.4 0.5-0.8 1-0.4 1.1-0.3 0.5 0.8 0.3 1.6 0.3 1.6 0.2 0.2 0.5 0.5 0.3 1zm-1-2.1c-0.1 0-0.2 0-0.5 0.4-0.1 0.1 0 0.2 0.2 0.3 0.2 0 0.6 0.2 0.6 0.2 0-0.1 0.1-0.6-0.3-0.9z"/>
		<path id="&lt;Path&gt;" class="s0" d="m15.3 5.5c0 0-0.1 0.4-0.2 0.7-0.4 1.5-0.2 2.1-0.1 2.3 0.4 0.7 0.8 0.3 1-0.2 0.1-0.3 0.2-0.2 0.2 0q-0.1 0.1-0.1 0.4c-0.2 0.9-0.6 1.1-0.8 1.1-0.5 0-0.7-0.7-0.7-1.1-0.1-1.6 0.4-2.9 0.6-3.3 0.1-0.4 0.2-0.3 0.1 0.1z"/>
		<path id="&lt;Compound Path&gt;" fill-rule="evenodd" class="s0" d="m44.2 7.9c0 0.1-0.1 0-0.2-0.1 0-0.1-0.4-0.3-0.4-0.3 0 0-0.4 0.9-1.1 1.4-1.2 0.9-2.3 1.1-2.4 1.1-0.1 0.1-0.2 0 0-0.2 0.9-0.4 1.8-0.8 3.2-2.5 0 0-0.4-0.1-0.7-0.4-0.3-0.2-0.2-0.9 0-1.3 0.6-0.8 1-0.4 1.1-0.2 0.5 0.7 0.2 1.5 0.2 1.5 0.3 0.2 0.5 0.5 0.3 1zm-0.8-2c-0.1-0.1-0.3-0.1-0.6 0.3 0 0.1 0.1 0.2 0.2 0.3 0.2 0 0.6 0.2 0.6 0.2 0-0.1 0.1-0.6-0.2-0.8z"/>
		<path id="&lt;Path&gt;" class="s0" d="m38.3 5.2c0 0.1 1.2 3.1 1.2 3.2 0.1 0.2-0.1 0.2-0.1 0.1-0.1-0.1-0.7-0.6-0.7-0.6 0 0 0.8 7.1 0.9 7.4 0.6 4.3 0 5.4-0.1 5.6-0.1 0.1-0.2 0.1-0.1-0.1-0.1-1.7-0.9-8-0.9-8.3-0.1-0.4-0.6-5.9-0.7-6.4 0 0 0.3-0.8 0.4-0.9 0-0.2 0-0.1 0.1 0z"/>
		<path id="&lt;Compound Path&gt;" fill-rule="evenodd" class="s0" d="m36.2 17.3c-0.3 1.5-1.3 1.6-1.8 1.8-0.7 0.2-2.5 0.7-3.3 1.1-1.2 0.4-2.8 2.1-3.4 2.7-1 1.2-2 1.1-2.3 1.1-3.2-0.4-0.5-5.6 0.1-6.6q-0.4 0.2-0.7 0.3c0 0.2 0 0.6 0 0.7 0 0.2-0.2 0.2-0.3 0-0.1-0.1-0.2-0.2-0.3-0.4-0.4 0.2-3.6 1.2-5.8 4-1.6 2.2-2.6 2.3-3.1 2.2-2.2-0.4-1.6-3-1-4.6q-0.9 0.4-2.3 0.9c-3.7 1.1-5.3 0-5.7-0.3-2-1.4-1.2-3.8-0.8-4.7-0.2-0.3-0.3-0.8-0.3-1.1-0.1-2 0.6-3.6 0.7-4.1 0.2-0.5 0.3-0.3 0.2 0.1 0 0-0.1 0.5-0.2 0.9-0.5 1.8-0.2 2.6-0.2 2.8 0.4 0.9 1 0.5 1.2-0.2 0.1-0.4 0.2-0.2 0.1 0q0 0.1-0.1 0.5c-0.2 1.1-0.6 1.4-0.9 1.4q-0.1 0-0.2-0.1c-0.1 0.4-0.2 0.9-0.2 1.1-0.1 2.2 1.7 2.6 2.2 2.8 3 0.8 7.8-1.8 8.3-2.1q0.6-0.3 0.5-0.6c-0.2-0.6-0.7-0.6-1.1-0.5-0.2 0-1.3 0.2-1.9-0.3-0.8-0.8-0.3-1.9 0.1-2.4 0.1-0.1 0.4-0.4 0.6-0.4 0.6-0.3 2-0.3 2.7 2.6 0.2 0.8 0.1 1.3-0.1 1.8-0.2 0.5-0.7 1-2.2 1.7-0.6 1.4-0.7 2.5-0.6 2.8 0.2 1.4 1.3 1 1.8 0.8 0.8-0.3 2.1-1.9 2.5-2.3 1.6-1.8 4.3-3.2 4.8-3.4 0-0.1-1.5-1.2-1.6-1.3-0.5-0.4-0.6-1-0.5-1.6 0.2-0.7 1-1.1 1.5-1.2 3.4-0.4 7.8 0.7 8.2 0.9l-0.4 1.2c0 0-2.5 1-4.4 1.9q0 0 0 0c-0.8 1.3-1.7 2.9-1.7 4.3 0.1 1.3 0.8 1.6 1.3 1.5 1-0.2 2-1.3 2.3-1.6 2.1-2.3 3.4-2.5 3.6-2.6 0.4-0.1 2.9-0.7 3.8-1.2 0.5-0.2 0.5-0.4 0.4-0.9 0-0.4-0.9-7.9-0.9-7.9 0-0.8-0.1-1.4-0.1-1.9-0.1-0.4-0.2-0.7-0.2-0.8 0 0 0.5-0.8 0.6-0.9 0-0.2 0.1-0.1 0.1 0 0.1 0.1 1.1 3.1 1.1 3.3 0 0.2-0.1 0.2-0.2 0.1-0.1-0.1-0.6-0.6-0.6-0.6 0 0 0.8 6.2 0.8 6.7 0.2 1.3 0 2.2-0.1 2.6zm-20.5-2.2c-0.8-1-1.3-0.7-1.5-0.7-0.3 0.1-0.5 0.6 0 0.8 0.5 0.1 0.8 0 1 0 0.2-0.1 0.5-0.1 0.5-0.1zm13.2-0.2c-3.7-0.9-6.4-0.6-6.8-0.5-0.4 0.1-0.3 0.3-0.2 0.5 0.1 0.1 2.4 1.8 2.6 2 2.2-1 3.9-1.8 4.4-2z"/>
		<path id="&lt;Compound Path&gt;" fill-rule="evenodd" class="s0" d="m31.9 7.9c0 0.2-0.1 0-0.2-0.1 0-0.1-0.3-0.4-0.3-0.4 0 0-1.3 1.6-2.4 2.3-1.5 0.9-2.6 1.2-2.7 1.2-0.1 0-0.1-0.1 0.1-0.2 0.9-0.4 3-1.9 4.6-3.5 0 0-0.4-0.2-0.7-0.4-0.3-0.3 0-1 0.2-1.4 0.6-0.7 1.1-0.3 1.1-0.1 0.4 0.8 0.1 1.6 0.1 1.6 0.2 0.2 0.5 0.5 0.2 1zm-0.7-2.2c-0.1 0-0.2-0.1-0.5 0.3-0.1 0.1 0 0.2 0.1 0.3 0.2 0.1 0.6 0.4 0.6 0.4 0-0.1 0.1-0.6-0.2-1z"/>
	</g>
</svg>