<svg version="1.2" xmlns="http://www.w3.org/2000/svg" viewBox="0 0 70 30" width="70" height="30">
	<title>New Project</title>
	<style>
		.s0 { fill: #191c4f } 
	</style>
	<g id="الدخان">
		<path id="&lt;Path&gt;" class="s0" d="m17.1 22c0 0.1 0 0.2-0.1 0.3-0.1 0.2-0.2 0.2-0.3 0.3-0.2 0.1-3.4 1.7-3.5 1.7-0.3 0.2-0.3 0.1-0.3 0q0 0 0.1-0.3c0-0.1 0.1-0.2 0.3-0.3 0.2-0.1 3.4-1.6 3.6-1.7 0.3-0.2 0.3-0.1 0.2 0z"/>
		<path id="&lt;Path&gt;" class="s0" d="m33.7 21c0 0 0 0.2-0.1 0.4-0.3 0.8-0.1 1.2-0.1 1.2 0.3 0.4 0.6 0.2 0.7-0.1 0-0.1 0.1 0 0.1 0q-0.1 0.1-0.1 0.3c-0.1 0.5-0.3 0.6-0.5 0.6-0.3 0-0.4-0.4-0.5-0.6 0-0.9 0.4-1.6 0.4-1.9 0.1-0.2 0.2-0.1 0.1 0.1z"/>
		<path id="&lt;Path&gt;" class="s0" d="m64.2 19.7c0 0 0 0.3 0 0.5 0 0.2-0.1 0.5-0.2 0.8-0.1 0.3-0.7 0.4-1.1 0.1-0.7 1.1-1.4 0.6-1.7 0.4-0.6-0.2-0.8 0.2-1 0.4-0.8 0.9-2.2 0.8-2.5 0.9-0.4 0-0.1-0.2 0-0.3 1.2-0.4 1.9-0.4 2.9-1.4 0.4-0.4 0.7-0.2 0.9-0.2 0.9 0.5 1.1 0 1.2-0.1 0.1-0.1 0.3-0.6 0.4-0.7 0-0.2 0.1-0.1 0.1 0.1 0 0.1-0.1 0.2-0.1 0.3 0.4 0.3 0.8 0.1 0.9 0 0 0-0.1-0.3-0.1-0.4q0-0.1 0.1-0.5c0.1-0.3 0.2 0 0.2 0.1z"/>
		<path id="&lt;Path&gt;" class="s0" d="m10.7 17.7l1 0.7q0 0 0 0l-0.6 0.8q0 0-0.1 0l-0.9-0.7q-0.1 0 0 0l0.5-0.8q0.1-0.1 0.1 0z"/>
		<path id="&lt;Compound Path&gt;" fill-rule="evenodd" class="s0" d="m46.6 18.4c-0.3 0.9-1.6 1.5-1.9 1.6-1.2 0.3-1.3-0.9-1.2-1.7 0.1-0.9 0.7-2 0.7-2-0.1 0-1.3-1-1.4-1.1-0.1-0.1-0.2-0.2-0.3-0.3-0.2-0.1-0.1-0.1-0.1-0.1 0 0 0-0.9 0-1 0-0.1 0-0.1 0.1-0.1 0.1 0.1 1.5 0.6 1.6 0.7 0.2 0.1 0.1 0.2 0.1 0.2-0.1 0-0.6 0.1-0.6 0.1l1.1 0.8c0 0 1.6-2 1.7-2.2 0.2-0.2 0.2-0.1 0.1 0.1 0 0.2-0.3 1.1-0.4 1.2 0 0.2-0.8 1.3-0.8 1.3 0 0 1 0.6 1.3 0.9 0.4 0.7 0.1 1.3 0 1.6zm-1.9-1.8c0 0-0.7 1.2-0.8 1.4-0.3 0.7 0.4 0.9 0.6 0.8 0.3 0 1.2-0.5 1.7-0.8 0.4-0.4-1.3-1.2-1.5-1.4z"/>
		<path id="&lt;Path&gt;" class="s0" d="m10 13.2c0 0-0.1 0.3-0.1 0.5-0.3 0.9-0.1 1.3-0.1 1.4 0.3 0.4 0.6 0.1 0.7-0.2 0-0.2 0.1-0.1 0.1 0q0 0.1 0 0.3c-0.2 0.5-0.4 0.7-0.5 0.7-0.4 0-0.5-0.5-0.6-0.7-0.1-0.9 0.3-1.8 0.4-2 0-0.3 0.1-0.2 0.1 0z"/>
		<path id="&lt;Path&gt;" class="s0" d="m5.8 13.3c0 0-0.1 0.4-0.2 0.7-0.3 1.6 0 2.3 0 2.4 0.4 0.8 0.9 0.3 1-0.3 0.1-0.3 0.2-0.1 0.2 0q0 0.2-0.1 0.5c-0.2 0.9-0.5 1.2-0.7 1.2q-0.2 0-0.3-0.1c-0.6 2 0.1 3.1 0.3 3.4 1.1 1.5 3.2 1.1 3.7 1 3.1-0.8 5-2.7 5.2-3 0.2-0.3 0.1-0.6 0-0.8-0.1-0.3-0.8-1.5-1.1-2.4-0.1-0.3-0.3-1-0.3-1 0-0.1 0.3-0.9 0.3-0.9 0-0.1 0.1-0.1 0.1 0q0.1 0.1 0.1 0.2c0 0 0.9 1.1 1 1.3 0.2 0.1 0 0.2-0.1 0.2q-0.1-0.1-0.4-0.2c0 0 1 2.3 1 2.6 0.5 1.7-1.3 2.8-1.6 3.1-3.8 2.8-5.9 2.3-6.7 2.1-3.1-1-2.2-4.6-1.7-5.8-0.2-0.3-0.3-0.6-0.3-0.8-0.2-1.7 0.3-3.1 0.4-3.5 0.1-0.4 0.3-0.3 0.2 0.1z"/>
		<path id="&lt;Compound Path&gt;" fill-rule="evenodd" class="s0" d="m65.6 17.3c-0.1 0.2-0.3 1.1-1.5 0.8-0.4 0-1-0.2-1.3-0.8-0.3 0.4-1 1.6-2.4 1.3-0.4 0-1.4-0.4-1.4-1.7 0 0-1.2 1-1.7 1.3 0 0.4 0 1-0.2 1.5-0.2 0.6-2.8 3.5-4.9 3.9-0.6 0.2-3.3 0.7-3.4-2.3q0-0.9 0.1-1.4c-1.6 1.3-3.6 2.2-4.2 2.5-0.9 0.4-3.9 0.9-4.4 1-0.4 0.1-0.4 0-0.2-0.1 0.2-0.2 6.9-2.4 10.4-6.1q0.1-0.2 0-0.4c-0.1-0.2-1.2-2.3-1.3-2.6-0.1-0.3-0.3-0.6-0.3-0.7q-0.1-0.1-0.1-0.3c0.1-0.1 0.2-0.7 0.2-0.8 0-0.1 0.1-0.1 0.2 0 0 0.1 1.1 1.2 1.3 1.3 0.1 0.2 0 0.2-0.1 0.2 0 0-0.5 0-0.5 0 0 0 0.7 1.3 0.9 1.7 0.4 1 0.2 1.8 0 2.2-0.3 0.6-0.9 1.2-1.6 1.8-0.1 0.5-0.3 2.9 2 3 0.3 0 1.5 0.2 3.8-1.7 0.5-0.4 1.1-1 1.6-1.7 0.2-0.3 0.3-0.8 0-0.7-0.4 0-2.8 0.9-3.1-0.5-0.1-0.4 0.1-3.8 2.4-2.1 0.2 0.1 0.7 0.5 1 1.2 0.4-0.2 1.2-0.6 2.1-1.3 0.2-0.2 0.5-0.4 0.5 0-0.1 0.3-0.2 2.2 1.9 1.7 0.2-0.1 1.1-0.3 1.8-2 0.2-0.4 0.4-0.3 0.3 0-0.2 0.4-0.4 0.8-0.2 1 0.2 0.2 0.8 0.6 1.6 0.5 0.2 0 0.4-0.1 0.3-0.3-0.1-0.2-0.4-0.7-0.4-0.7 0.1-0.2 0.2-0.7 0.2-0.8 0.1-0.1 0.1-0.2 0.2-0.1 0.1 0.1 0.8 1 0.4 2.2zm-9.7 0.1c-0.7-1-1.6-0.4-1.7-0.3-0.1 0.1-0.2 0.4 0.5 0.4 0.9 0.1 1.2-0.1 1.2-0.1z"/>
		<path id="&lt;Path&gt;" class="s0" d="m45.3 11.2l1 0.7q0 0 0 0l-0.6 0.8q0 0 0 0l-1-0.7-0.5 0.7q0 0 0 0l-1-0.7q0 0 0-0.1l0.6-0.7q0-0.1 0 0l1 0.6 0.5-0.6q0-0.1 0 0z"/>
		<path id="&lt;Path&gt;" class="s0" d="m63.2 11.2c0 0-0.1 0.3-0.2 0.4-0.3 0.9-0.1 1.2-0.1 1.3 0.3 0.4 0.6 0.2 0.7-0.1 0.1-0.1 0.1-0.1 0.1 0q0 0.1-0.1 0.3c-0.1 0.5-0.3 0.6-0.5 0.6-0.3 0-0.4-0.4-0.5-0.6 0-0.9 0.4-1.7 0.5-1.9 0.1-0.3 0.1-0.2 0.1 0z"/>
		<path id="&lt;Path&gt;" class="s0" d="m53.7 10.7c0 0-0.1 0.3-0.2 0.5-0.3 0.9-0.1 1.3-0.1 1.4 0.3 0.4 0.6 0.2 0.8-0.2 0-0.1 0.1 0 0.1 0q-0.1 0.1-0.1 0.3c-0.2 0.6-0.4 0.7-0.6 0.7-0.3 0-0.5-0.5-0.5-0.7 0-1 0.4-1.8 0.5-2 0.1-0.3 0.2-0.2 0.1 0z"/>
		<path id="&lt;Path&gt;" class="s0" d="m10.3 8.1c0.1 0.2 0 0.6-0.1 0.8 0 0.1-0.2 0-0.3-0.1 0 0-0.1-0.2-0.2-0.3-0.5-0.4-0.6 0.4-0.7 0.8 0 0.3-0.1 1.2-0.2 1.7 0 0.2-0.1 0.2-0.2 0-0.3-1.1-0.9-1.6-1-1.7q-0.1 0-0.1-0.1 0.1 0.2 0.1 0.5c-0.3 1.3-1.7 1.9-1.9 2-0.2 0.2-0.2 0.1 0-0.2 0.2-0.2 1.3-1.3 1.5-1.5 0.4-0.5-0.4-0.8-0.5-0.9-0.1-0.2-0.1-0.6-0.1-0.7 0-0.3 0.2-0.4 0.3-0.4 1.3 0.7 1.7 2 1.8 2.2 0-1 0.1-1.8 0.6-2.4 0.4-0.5 0.9 0.2 1 0.3z"/>
		<path id="&lt;Path&gt;" class="s0" d="m13.2 7.7c0 0-0.1 0.5-0.2 0.7-0.5 1.6-0.2 2.3-0.2 2.4 0.4 0.8 0.8 0.4 1-0.2 0.1-0.3 0.2-0.1 0.2 0q-0.1 0.2-0.1 0.5c-0.3 0.9-0.6 1.1-0.8 1.1-0.5 0-0.7-0.8-0.7-1.1-0.1-1.7 0.5-3.1 0.7-3.5 0.1-0.4 0.2-0.2 0.1 0.1z"/>
		<path id="&lt;Path&gt;" class="s0" d="m19.9 14.4c0 0 0 0.2-0.1 0.4-0.2 0.9 0 1.3 0 1.4 0.3 0.4 0.6 0.2 0.7-0.2 0-0.1 0.1 0 0.1 0q0 0.1-0.1 0.3c-0.1 0.6-0.3 0.7-0.5 0.7-0.3 0-0.5-0.4-0.5-0.6-0.1-1 0.3-1.8 0.3-2.1 0.1-0.2 0.2-0.1 0.1 0.1z"/>
		<path id="&lt;Path&gt;" class="s0" d="m25 13.4l1 0.6q0 0.1 0 0.1l-0.6 0.8q0 0 0 0l-1-0.7q0 0 0-0.1l0.5-0.7q0.1-0.1 0.1 0z"/>
		<path id="&lt;Path&gt;" class="s0" d="m29.1 13.2c0 0-0.1 0.3-0.1 0.5-0.3 1-0.1 1.5-0.1 1.5 0.4 0.5 0.8 0.2 0.9-0.1 0.1-0.2 0.1-0.1 0.1 0q0 0 0 0.3c-0.2 0.6-0.5 0.7-0.7 0.7-0.4 0-0.6-0.4-0.6-0.7-0.2-1 0.3-2 0.4-2.2 0.1-0.3 0.2-0.2 0.1 0z"/>
		<path id="&lt;Path&gt;" class="s0" d="m32.3 8.9c0 0 0.1 0.5 0.3 0.7 0.1 0.2 0.2 0.5 0.2 0.9-0.1 0.3-0.3 0.6-0.5 0.7-0.2 0.1-0.6 0.1-0.9-0.3-0.3 0.6-0.8 0.8-1.1 0.6-0.3-0.1-0.3-0.7-0.3-0.8 0-0.2 0-0.7 0-0.8 0-0.1 0-0.2 0.1-0.4 0.1-0.1 0.1 0 0.1 0.1 0 0.2 0 0.9 0.1 1.2 0.3 0.4 0.9 0 1-0.2 0.1-0.2-0.1-1-0.2-1q0-0.1 0-0.1c0-0.1 0-0.3 0.1-0.4q0.1-0.2 0.2 0c0 0.1 0 0.3 0.1 1 0.2 0.7 0.8 0.5 0.9 0.5 0.2-0.1 0.2-0.2 0.1-0.3 0 0-0.3-0.6-0.4-0.9-0.1-0.2 0-0.4 0.1-0.6 0-0.2 0.1 0 0.1 0.1z"/>
		<path id="&lt;Path&gt;" class="s0" d="m28.5 7.6c-0.1 0.1-0.1 0.1-0.2 0.3-0.1 0.2-0.2 0.3-0.4 0.4-0.2 0.2-9 5-9.1 5-0.4 0.2-0.4 0.1-0.3 0q0-0.1 0-0.4c0.1-0.1 0.2-0.2 0.4-0.3 0.3-0.2 9.1-5 9.3-5.1 0.4-0.2 0.3-0.1 0.3 0.1z"/>
		<path id="&lt;Path&gt;" class="s0" d="m22.1 7.3c0.1 0.2 0 0.6-0.1 0.8 0 0.1-0.2 0-0.3-0.1 0 0-0.1-0.1-0.2-0.2-0.4-0.4-0.6 0.3-0.7 0.7 0 0.3 0 1.1-0.1 1.6-0.1 0.2-0.2 0.2-0.2 0-0.4-1-1-1.5-1.1-1.6-0.1-0.1-0.1 0-0.2 0.1 0 0.1 0 0.1-0.1 0-0.1 0-0.4-0.2-0.5-0.3-0.1-0.2-0.1-0.6-0.1-0.7 0-0.3 0.2-0.4 0.3-0.4 1.2 0.7 1.6 1.9 1.7 2.1 0.1-0.9 0.1-1.7 0.6-2.3 0.4-0.5 0.9 0.2 1 0.3z"/>
		<path id="&lt;Path&gt;" class="s0" d="m52.8 6.8c0 0.2 0 0.2-0.1 0.3 0 0.2-0.1 0.2-0.3 0.4-0.2 0.1-5.1 2.9-5.2 3-0.3 0.2-0.3 0.1-0.3-0.1q0 0 0.1-0.2c0-0.2 0.1-0.2 0.3-0.3 0.2-0.2 5.1-3 5.3-3.1 0.3-0.2 0.3-0.1 0.2 0z"/>
		<path id="&lt;Path&gt;" class="s0" d="m58.9 7.1c0.1 0.3 0 0.6-0.1 0.9 0 0.1-0.2 0-0.3-0.2 0 0-0.1-0.1-0.2-0.2-0.5-0.4-0.7 0.4-0.8 0.8 0 0.3-0.1 1.2-0.1 1.8-0.1 0.2-0.2 0.2-0.3 0-0.3-1.1-1-1.7-1.1-1.8-0.1-0.1-0.2 0.1-0.2 0.1 0 0.1-0.1 0.1-0.2 0.1 0-0.1-0.4-0.3-0.5-0.4-0.2-0.2-0.1-0.6-0.1-0.8 0-0.3 0.2-0.4 0.3-0.3 1.4 0.7 1.8 2 1.9 2.2 0-0.9 0.1-1.8 0.6-2.5 0.4-0.5 1 0.3 1.1 0.3z"/>
		<path id="&lt;Path&gt;" class="s0" d="m36.1 6.7c0 0.1 1.2 2.9 1.3 3.1 0 0.1-0.1 0.2-0.2 0.1-0.1-0.1-0.6-0.6-0.6-0.6 0 0 1.4 8.6 1.4 9 0.2 1.6-0.3 2.5-0.5 2.6-1.5 1.7-2.9 0.1-3 0-0.3-0.4-0.7-1.8-0.7-1.8-0.1 0.4-0.2 0.6-0.4 0.9-0.6 0.9-2.4 2.2-2.7 2.5-1.7 1.3-2.8 0.8-3.1 0.6-0.8-0.6-0.6-2.3-0.4-3.1q0-0.1 0-0.2c-1 0.5-2.1 1.1-2.9 1.5-1.2 0.5-2.8 1.1-4.6 0.8-1.9-0.3-2.4-2.1-2.7-3.8-0.2-1.5-0.5-7.4-1.3-10.6 0 0 0.2-0.6 0.3-0.8 0.1-0.2 0.1-0.1 0.2 0 0.6 1.5 1 6 1 7 0.1 0.6 0.2 2.3 0.4 3.5 0 0.6 0.2 1.9 0.9 2.7 1 1.2 2.6 0.9 3.2 0.8 2.3-0.2 5.8-2.2 5.7-2.2-0.1 0-2.8-0.7-3.8-0.8 0 0 0 0.1 0 0.2q-0.1 0.1-0.4 0.1c-0.1 0-1.8 0.1-1.9 0.2q-0.1 0-0.1-0.2c0.1-0.1 0.1-0.5 0.2-0.6 0-0.1 0.1-0.2 0.2-0.3 0.1-0.1 1.3-0.5 1.6-0.6 0.4-0.2 3 0.6 4.7 0.9 1.8 0.3 4 0.2 4 0.2l-0.4 1c0 0-0.9-0.1-2.6 0.3-0.3 0.1-0.7 0.3-1.2 0.5q-0.1 0.1-0.1 0.1c-0.4 1.4-0.1 2 0.2 2.3 0.8 0.4 1.4 0.1 1.6 0 1.8-0.7 3.5-2.6 3.9-3 0.4-0.5 0.3-0.7 0.3-0.9-0.3-1.7-1.6-4.9-1.7-5.2 0 0 0.1-0.7 0.1-0.8 0-0.1 0-0.2 0.1-0.1 0.8 0.8 1.5 3.2 1.6 3.7 0.2 0.6 0.7 3.2 0.8 3.5 0.5 1.5 1.6 1.3 1.9 1.3 1.3-0.1 1.2-0.9 1.1-1.2 0-0.3-1.5-9.3-1.5-9.3-0.1-0.7-0.2-1.3-0.3-1.7-0.1-0.4-0.1-0.6-0.2-0.7 0 0 0.4-0.8 0.4-0.9 0.1-0.1 0.1-0.1 0.2 0z"/>
		<path id="&lt;Compound Path&gt;" fill-rule="evenodd" class="s0" d="m63.8 9.2c-0.1 0.2-0.1 0.1-0.2 0-0.1-0.1-0.2-0.3-0.4-0.4-0.2 0.5-0.2 0.5-1 1.2-1.9 1.6-3.9 2.2-4 2.2-0.1 0-0.1-0.1 0.1-0.2 0.6-0.5 3.2-1.7 4.6-3.3 0 0-0.5-0.2-0.7-0.4-0.3-0.2-0.2-0.9 0-1.2 0.5-0.8 1-0.4 1.1-0.3 0.4 0.8 0.2 1.5 0.2 1.5 0.2 0.2 0.5 0.5 0.3 0.9zm-0.9-1.9c-0.1-0.1-0.2-0.1-0.5 0.3-0.1 0.1 0 0.2 0.2 0.3 0.2 0 0.6 0.2 0.6 0.2 0-0.1 0-0.5-0.3-0.8z"/>
		<path id="&lt;Path&gt;" class="s0" d="m39.1 6.5c0 0.1 1.2 2.9 1.3 3 0 0.2-0.1 0.2-0.2 0.1-0.1-0.1-0.6-0.6-0.6-0.6 0 0 1.1 6.8 1.2 7.2 0.7 4 0.2 5.1 0.1 5.3-0.1 0.1-0.1 0.1-0.1-0.1-0.1-1.7-1.2-7.6-1.2-8-0.1-0.3-0.9-5.6-1-6.1 0 0 0.3-0.7 0.3-0.9 0.1-0.1 0.1 0 0.2 0.1z"/>
		<path id="&lt;Compound Path&gt;" fill-rule="evenodd" class="s0" d="m45.1 9c-0.1 0.1-0.1 0-0.2-0.1-0.1-0.1-0.4-0.3-0.4-0.3 0 0-0.4 0.8-1.1 1.3-1.2 1-2.3 1.1-2.3 1.1-0.1 0.1-0.2 0 0-0.2 0.8-0.4 1.7-0.7 3.1-2.4 0 0-0.5-0.1-0.8-0.3-0.2-0.3-0.1-1 0.1-1.3 0.5-0.8 1-0.4 1.1-0.3 0.4 0.8 0.2 1.5 0.2 1.5 0.2 0.2 0.4 0.5 0.3 1zm-0.9-2c-0.1-0.1-0.2-0.1-0.5 0.3-0.1 0.1 0 0.2 0.2 0.3 0.2 0.1 0.6 0.3 0.6 0.3 0-0.2 0-0.6-0.3-0.9z"/>
		<path id="&lt;Compound Path&gt;" fill-rule="evenodd" class="s0" d="m31.2 8.3c0 0.1-0.1 0-0.2-0.1 0-0.1-0.3-0.3-0.3-0.3 0 0-0.8 1.3-1.7 2-1.1 0.7-2 1-2 1-0.1 0-0.1-0.1 0-0.1 0.7-0.4 2.3-1.7 3.5-3 0 0-0.4-0.2-0.6-0.4-0.3-0.1-0.1-0.8 0.1-1 0.4-0.7 0.8-0.3 0.8-0.2 0.4 0.6 0.2 1.3 0.2 1.3 0.2 0.1 0.4 0.4 0.2 0.8zm-0.7-1.7c0-0.1-0.2-0.1-0.4 0.2-0.1 0.1 0 0.2 0.2 0.3 0.1 0 0.4 0.2 0.4 0.2 0-0.1 0.1-0.5-0.2-0.7z"/>
	</g>
</svg>