<svg version="1.2" xmlns="http://www.w3.org/2000/svg" viewBox="0 0 70 30" width="70" height="30">
	<title>New Project</title>
	<style>
		.s0 { fill: #191c4f } 
	</style>
	<g id="الجاثية">
		<path id="&lt;Path&gt;" class="s0" d="m33.7 22l1 0.7q0.1 0.1 0 0.1l-0.6 0.8q0 0.1-0.1 0.1l-1-0.8q0 0 0-0.1l0.6-0.8q0 0 0.1 0z"/>
		<path id="&lt;Path&gt;" class="s0" d="m17.4 21.9l1 0.7q0.1 0.1 0 0.1l-0.6 0.8q0 0.1-0.1 0l-0.9-0.7-0.6 0.7q0 0.1 0 0l-1.1-0.7q0 0 0-0.1l0.6-0.8q0.1-0.1 0.1 0l1 0.7 0.5-0.7q0-0.1 0.1 0z"/>
		<path id="&lt;Path&gt;" class="s0" d="m23.2 21.4c0 0.1-0.1 0.1-0.1 0.3-0.1 0.2-0.2 0.2-0.4 0.3-0.2 0.1-2.6 1.2-2.7 1.3-0.3 0.2-0.3 0.1-0.2-0.1q0 0 0-0.2c0.1-0.2 0.1-0.3 0.4-0.4 0.2-0.1 2.5-1.2 2.8-1.3 0.3-0.1 0.2 0 0.2 0.1z"/>
		<path id="&lt;Path&gt;" class="s0" d="m13.4 21.4c-0.1 0.1-0.1 0.1-0.2 0.3-0.1 0.1-0.2 0.2-0.3 0.3-0.3 0.1-3.4 1.5-3.6 1.6-0.3 0.1-0.2 0-0.2-0.1q0 0 0.1-0.3c0-0.1 0.1-0.2 0.3-0.3 0.3-0.1 3.4-1.6 3.6-1.6 0.4-0.1 0.3-0.1 0.3 0.1z"/>
		<path id="&lt;Path&gt;" class="s0" d="m64.1 19.7c0 0 0 0.3 0 0.5 0 0.3-0.1 0.6-0.2 0.9-0.1 0.3-0.8 0.4-1.2 0.2-0.8 1.1-1.5 0.5-1.8 0.4-0.7-0.3-0.9 0.2-1.1 0.3-0.8 1-2.4 1-2.8 1-0.3 0 0-0.2 0.1-0.3 1.3-0.4 2-0.5 3.1-1.5 0.5-0.5 0.8-0.2 1-0.2 1 0.5 1.1 0 1.3-0.1 0.1-0.1 0.3-0.6 0.3-0.8 0.1-0.2 0.2-0.1 0.2 0.1 0 0.1-0.1 0.3-0.1 0.4 0.4 0.3 0.8 0 0.9-0.1 0 0 0-0.3 0-0.4q0-0.1 0.1-0.5c0.1-0.3 0.2 0 0.2 0.1z"/>
		<path id="&lt;Path&gt;" class="s0" d="m21.3 16.3c0.6 0.9 0.5 1.8 0.5 2.1-0.4 1.7-1.5 1.8-1.7 1.8-1.8 0.2-2.1-1.3-2.1-1.5 0 0-1.1 1.8-3.3 1.9-2.1 0-2.9-1.8-3.2-2.3-0.2-0.4-0.6-0.2-0.8 0-0.5 0.4-1.3 1.2-1.5 1.8-0.3 0.5-0.8 2-1 2.3-0.4 0.8-1.1 0.5-1.5 0.3-1.8-1-1.6-4.4-1.5-4.9 0.1-0.5 0.2-0.2 0.2 0 0.1 2.2 0.3 2.8 1.3 3.6 0.9 0.8 1.5-0.3 1.6-0.5 0.1-0.2 0.5-1.3 0.8-2 0.2-0.3 0.6-0.9 0.7-1.1 0.3-0.3 0.7-0.6 1-0.8 0.6-0.3 0.9 0 1 0.2 0.1 0.1 0.5 0.7 0.7 1 1.5 2 3.8 0.8 4.1 0.6 0.9-0.4 1.6-1.5 1.7-1.7 0.2-0.1 0.3 0.1 0.2 0.2 0 0.2 0 0.1-0.1 0.3 0.1 0.8 0.7 1.2 0.8 1.3 1 0.4 1.9-0.2 2.1-0.4 0.1-0.1-0.2-0.9-0.4-1.3 0 0 0.2-0.7 0.3-0.8 0-0.1 0-0.2 0.1-0.1z"/>
		<path id="&lt;Path&gt;" class="s0" d="m17.2 13.9c-0.1 0.1-0.1 0.1-0.2 0.3 0 0.1-0.1 0.2-0.3 0.3-0.3 0.1-3.4 1.5-3.5 1.6-0.4 0.1-0.3 0-0.3-0.1q0 0 0.1-0.3c0-0.1 0.1-0.2 0.3-0.3 0.3-0.1 3.4-1.6 3.6-1.6 0.4-0.1 0.3-0.1 0.3 0.1z"/>
		<path id="&lt;Path&gt;" class="s0" d="m10.6 12.8l1 0.8q0.1 0 0.1 0l-0.6 0.9q-0.1 0-0.1 0l-1-0.8-0.5 0.8q-0.1 0-0.1 0l-1.1-0.8q0 0 0-0.1l0.6-0.8q0.1 0 0.1 0l1 0.7 0.5-0.7q0.1 0 0.1 0z"/>
		<path id="&lt;Compound Path&gt;" fill-rule="evenodd" class="s0" d="m45.2 18.3c-0.4 1-1.8 1.6-2.1 1.7-1.3 0.4-1.4-0.9-1.3-1.8 0.1-1 0.7-2.2 0.7-2.2 0 0-1.4-1.1-1.5-1.2-0.1-0.1-0.2-0.2-0.3-0.3-0.2-0.1-0.1-0.1-0.1-0.1 0 0 0-1 0-1.1 0-0.1 0-0.1 0.2 0 0.1 0 1.5 0.6 1.7 0.7 0.1 0.1 0.1 0.2 0 0.2-0.1 0-0.6 0.1-0.6 0.1l1.2 0.9c0 0 1.7-2.2 1.8-2.4 0.2-0.2 0.2-0.1 0.2 0.1-0.1 0.3-0.4 1.2-0.5 1.3-0.1 0.2-0.9 1.4-0.9 1.4 0 0 1.1 0.6 1.4 1 0.5 0.7 0.2 1.3 0.1 1.7zm-2.1-1.9c0 0-0.8 1.3-0.9 1.5-0.3 0.8 0.4 0.9 0.7 0.9 0.3-0.1 1.3-0.6 1.8-1 0.4-0.4-1.4-1.3-1.6-1.4z"/>
		<path id="&lt;Path&gt;" class="s0" d="m20.6 12.6l1.1 0.8q0 0 0 0.1l-0.6 0.8q-0.1 0-0.1 0l-1-0.7-0.5 0.7q-0.1 0-0.1 0l-1-0.7q-0.1-0.1 0-0.1l0.6-0.9q0 0 0 0l1 0.8 0.6-0.8q0 0 0 0z"/>
		<path id="&lt;Compound Path&gt;" fill-rule="evenodd" class="s0" d="m65.6 17.1c-0.1 0.2-0.3 1.2-1.7 0.9-0.3-0.1-1-0.2-1.3-0.9-0.3 0.4-1.1 1.7-2.7 1.4-0.3 0-1.4-0.4-1.4-1.8 0 0-1.3 1-1.9 1.4 0.1 0.5 0 1-0.2 1.6-0.2 0.6-3 3.7-5.2 4.2-0.7 0.2-3.6 0.7-3.7-2.5q0-0.9 0.1-1.5c-1.8 1.4-3.9 2.4-4.5 2.7-0.9 0.5-4.2 1-4.8 1.1-0.4 0.1-0.4 0-0.2-0.2 0.2-0.1 7.5-2.5 11.2-6.5q0.2-0.2 0-0.5c-0.1-0.2-1.3-2.4-1.4-2.7-0.1-0.3-0.3-0.7-0.3-0.8q-0.1-0.1-0.1-0.3c0.1-0.2 0.2-0.8 0.2-0.9 0-0.1 0.1-0.1 0.2 0 0.1 0.1 1.2 1.3 1.4 1.5 0.1 0.1 0 0.2 0 0.2-0.1 0-0.7 0-0.7 0 0 0 0.8 1.3 1 1.8 0.5 1.1 0.2 1.9 0.1 2.3-0.4 0.7-1 1.4-1.7 2-0.2 0.5-0.4 3.2 2 3.2 0.4 0 1.7 0.2 4.1-1.8 0.6-0.5 1.3-1 1.8-1.8 0.2-0.3 0.4-0.9 0-0.8-0.4 0-3 1-3.4-0.6 0-0.4 0.2-4 2.7-2.2 0.2 0.1 0.7 0.6 1.1 1.3 0.4-0.2 1.2-0.7 2.1-1.4 0.3-0.3 0.6-0.4 0.6-0.1 0 0.4-0.2 2.5 2.1 1.9 0.2-0.1 1.2-0.3 1.9-2.1 0.2-0.4 0.5-0.4 0.3 0-0.2 0.4-0.4 0.8-0.2 1 0.2 0.3 0.9 0.7 1.7 0.6 0.3 0 0.5-0.1 0.4-0.4-0.1-0.2-0.4-0.7-0.4-0.7 0-0.3 0.1-0.7 0.2-0.9 0-0.1 0.1-0.2 0.2-0.1 0.1 0.1 0.8 1.1 0.4 2.4zm-10.4 0.1c-0.8-1.1-1.8-0.5-1.9-0.3-0.1 0.1-0.2 0.4 0.6 0.5 1 0 1.3-0.2 1.3-0.2z"/>
		<path id="&lt;Path&gt;" class="s0" d="m5.6 11.1c0 0 0 0.4-0.1 0.7-0.4 1.3-0.1 1.9 0 2 0.3 0.6 0.8 0.2 0.9-0.2 0.1-0.3 0.2-0.2 0.2-0.1q-0.1 0.1-0.1 0.4c-0.2 0.8-0.5 1-0.7 1-0.5 0.1-0.7-0.6-0.8-0.9-0.1-1.4 0.4-2.6 0.5-2.9 0.1-0.4 0.2-0.2 0.1 0z"/>
		<path id="&lt;Path&gt;" class="s0" d="m19.5 10.8l1 0.7q0 0 0 0.1l-0.6 0.8q0 0.1-0.1 0l-1-0.7q0-0.1 0-0.1l0.6-0.8q0-0.1 0.1 0z"/>
		<path id="&lt;Path&gt;" class="s0" d="m43.8 10.5l1 0.8q0 0 0 0l-0.6 0.9q0 0-0.1 0l-1-0.7-0.5 0.7q0 0-0.1 0l-1-0.8q0 0 0 0l0.6-0.9q0 0 0.1 0l1 0.7 0.5-0.7q0 0 0.1 0z"/>
		<path id="&lt;Path&gt;" class="s0" d="m63 10.6c0 0-0.1 0.2-0.2 0.4-0.3 0.9-0.1 1.3-0.1 1.4 0.3 0.5 0.6 0.2 0.7-0.1 0.1-0.2 0.2-0.1 0.1 0q0 0.1 0 0.2c-0.2 0.6-0.4 0.7-0.6 0.7-0.3 0-0.5-0.4-0.5-0.6-0.1-1 0.4-1.9 0.5-2.1 0.1-0.2 0.1-0.1 0.1 0.1z"/>
		<path id="&lt;Path&gt;" class="s0" d="m52.8 10c0 0-0.1 0.3-0.2 0.5-0.3 1-0.1 1.4-0.1 1.5 0.3 0.5 0.6 0.3 0.8-0.1 0-0.2 0.1-0.1 0.1 0q0 0.1-0.1 0.3c-0.2 0.6-0.4 0.7-0.6 0.7-0.4 0-0.5-0.5-0.5-0.7-0.1-1.1 0.3-2 0.4-2.2 0.1-0.3 0.2-0.2 0.2 0z"/>
		<path id="&lt;Path&gt;" class="s0" d="m14 9.9c0 0-0.1 0.3-0.2 0.5-0.4 1-0.2 1.5-0.1 1.6 0.3 0.6 0.7 0.3 0.8-0.1 0.1-0.2 0.2-0.1 0.1 0q0 0.1 0 0.3c-0.2 0.6-0.5 0.8-0.7 0.8-0.4 0-0.6-0.5-0.6-0.8-0.1-1.1 0.4-2.1 0.5-2.4 0.2-0.3 0.3-0.1 0.2 0.1z"/>
		<path id="&lt;Path&gt;" class="s0" d="m9.3 7.2c0 0-0.1 0.5-0.2 0.7-0.4 1.5-0.1 2.1 0 2.2 0.4 0.7 0.9 0.3 1-0.2 0.1-0.3 0.2-0.1 0.2 0q0 0.1-0.1 0.4c-0.2 0.9-0.5 1.1-0.8 1.1-0.5 0-0.8-0.6-0.8-1-0.2-1.5 0.4-2.9 0.5-3.2 0.1-0.4 0.3-0.3 0.2 0z"/>
		<path id="&lt;Path&gt;" class="s0" d="m19.4 5.9c0 0-0.1 0.3-0.2 0.5-0.4 1.1-0.2 1.6-0.1 1.7 0.3 0.5 0.7 0.2 0.8-0.2 0.1-0.2 0.1-0.1 0.1 0q0 0.1 0 0.3c-0.2 0.7-0.5 0.8-0.7 0.8-0.4 0-0.6-0.5-0.6-0.8-0.1-1.1 0.4-2.1 0.5-2.3 0.1-0.3 0.2-0.2 0.2 0z"/>
		<path id="&lt;Path&gt;" class="s0" d="m51.9 5.9c-0.1 0.1-0.1 0.1-0.2 0.3 0 0.1-0.1 0.2-0.3 0.3-0.2 0.1-5.6 3.2-5.7 3.3-0.3 0.2-0.3 0-0.2-0.1q0 0 0.1-0.3c0-0.1 0.1-0.2 0.3-0.3 0.2-0.1 5.5-3.2 5.7-3.3 0.3-0.2 0.3-0.1 0.3 0.1z"/>
		<path id="&lt;Path&gt;" class="s0" d="m58.4 6.2c0.1 0.2 0 0.6-0.1 0.9-0.1 0.1-0.2 0-0.3-0.2 0 0-0.2-0.1-0.3-0.2-0.5-0.5-0.7 0.4-0.8 0.8-0.1 0.3-0.1 1.3-0.2 1.9 0 0.3-0.2 0.2-0.2 0.1-0.4-1.3-1.1-1.9-1.2-2-0.2-0.1-0.3 0.1-0.3 0.2 0 0-0.1 0-0.1 0-0.1 0-0.5-0.3-0.6-0.4-0.2-0.2-0.1-0.6-0.1-0.8 0-0.4 0.2-0.5 0.3-0.4 1.5 0.8 1.9 2.2 2 2.4 0.1-1 0.1-2 0.7-2.7 0.4-0.6 1.1 0.3 1.2 0.4z"/>
		<path id="&lt;Compound Path&gt;" fill-rule="evenodd" class="s0" d="m63.6 8.4c0 0.2-0.1 0.1-0.2-0.1-0.1-0.1-0.2-0.2-0.4-0.3-0.2 0.4-0.2 0.5-1.1 1.3-2 1.7-4.1 2.3-4.2 2.3-0.2 0-0.2-0.1 0-0.2 0.7-0.5 3.5-1.8 4.9-3.6 0 0-0.4-0.1-0.7-0.4-0.3-0.2-0.2-1 0.1-1.3 0.5-0.9 1-0.4 1.1-0.3 0.5 0.8 0.2 1.6 0.2 1.6 0.3 0.2 0.5 0.5 0.3 1zm-0.9-2.1c-0.1 0-0.2-0.1-0.5 0.3-0.1 0.2 0 0.3 0.2 0.4 0.2 0 0.6 0.2 0.6 0.2 0-0.1 0-0.6-0.3-0.9z"/>
		<path id="&lt;Path&gt;" class="s0" d="m16.7 6c0.1 0.1 0 0.5-0.1 0.7-0.1 0.2-0.2 0-0.3-0.1 0 0-0.1-0.1-0.2-0.2-0.5-0.4-0.6 0.4-0.7 0.7 0 0.3-0.1 1.2-0.1 1.7-0.1 0.2-0.2 0.2-0.3 0-0.3-1-0.9-1.6-1-1.7-0.1-0.1-0.2 0.1-0.2 0.2 0 0-0.1 0-0.1 0-0.1 0-0.4-0.3-0.5-0.4-0.2-0.1-0.1-0.5-0.1-0.7 0-0.3 0.2-0.4 0.3-0.3 1.2 0.7 1.6 1.9 1.7 2.1 0-0.9 0.1-1.7 0.6-2.4 0.4-0.5 0.9 0.3 1 0.4z"/>
		<path id="&lt;Compound Path&gt;" fill-rule="evenodd" class="s0" d="m43.5 8.1c-0.1 0.2-0.1 0.1-0.2-0.1-0.1 0-0.5-0.3-0.5-0.3 0 0-0.4 0.9-1.1 1.5-1.3 1-2.5 1.1-2.5 1.2-0.1 0-0.2-0.1 0-0.3 0.9-0.4 1.9-0.8 3.3-2.5 0 0-0.5-0.2-0.8-0.5-0.3-0.2-0.1-1 0.1-1.3 0.6-0.9 1-0.4 1.1-0.3 0.5 0.8 0.2 1.6 0.2 1.6 0.3 0.2 0.6 0.5 0.4 1zm-0.9-2.1c-0.2 0-0.3-0.1-0.6 0.3-0.1 0.2 0 0.3 0.2 0.4 0.2 0 0.6 0.2 0.6 0.2 0-0.1 0.1-0.6-0.2-0.9z"/>
		<path id="&lt;Path&gt;" class="s0" d="m27.7 16.3c0 0-0.1 0.3-0.2 0.5-0.3 1-0.2 1.4-0.1 1.5 0.3 0.5 0.6 0.3 0.8-0.1 0-0.2 0.1-0.1 0.1 0q0 0.1-0.1 0.3c-0.2 0.6-0.4 0.7-0.6 0.7-0.4 0-0.5-0.5-0.6-0.7 0-1.1 0.4-2 0.5-2.2 0.1-0.3 0.2-0.2 0.2 0z"/>
		<path id="&lt;Path&gt;" class="s0" d="m32.2 11c-0.1 0.1-0.1 0.2-0.1 0.3-0.1 0.2-0.2 0.3-0.4 0.4-0.1 0.1-5.4 2.8-6 3.2-0.6 0.4-0.6 0.6-0.4 0.7 0.4 0.1 0.7 0.4 0.4 0.9 0 0 0 0-0.1 0 0-0.1-0.1-0.2-0.4-0.2-0.3-0.1-0.4-0.6-0.3-1.1 0.1-0.3 0.3-0.6 0.5-0.8 0.5-0.4 6.4-3.4 6.5-3.5 0.4-0.2 0.3 0 0.3 0.1z"/>
		<path id="&lt;Path&gt;" class="s0" d="m30 7.7c0 0-0.1 0.3-0.2 0.5-0.3 1-0.1 1.4-0.1 1.5 0.3 0.5 0.6 0.3 0.8-0.1 0-0.2 0.1-0.1 0.1 0q0 0.1-0.1 0.3c-0.2 0.6-0.4 0.7-0.6 0.7-0.4 0-0.5-0.5-0.5-0.7-0.1-1.1 0.3-2 0.4-2.2 0.2-0.3 0.2-0.2 0.2 0z"/>
		<path id="&lt;Path&gt;" class="s0" d="m28.7 5.7c0.1 0.2 0 0.6-0.1 0.9-0.1 0.1-0.2 0-0.3-0.2 0 0-0.2-0.1-0.3-0.2-0.5-0.5-0.7 0.4-0.8 0.8 0 0.3-0.1 1.3-0.2 1.9q0 0 0 0.1c0 0.5-0.2 1.1-1 1.6-1 0.7-1.1 0.7-1.2 0.7-0.1 0.1-0.1 0 0-0.1 0.1-0.1 2.1-1.7 1.9-2.5-0.2-0.9-1-1.6-1.1-1.7-0.1-0.1-0.2 0.1-0.2 0.1 0 0.1-0.1 0.1-0.2 0.1 0-0.1-0.4-0.3-0.6-0.5-0.1-0.1-0.1-0.6 0-0.8 0-0.3 0.2-0.4 0.3-0.3 1.4 0.8 1.9 2.2 1.9 2.4 0.1-1 0.1-2 0.7-2.7 0.5-0.6 1.1 0.3 1.2 0.4z"/>
		<path id="&lt;Path&gt;" class="s0" d="m22.5 5.3c1 2.9 1.2 12.5 1.8 13.9 1 2.2 3.5 1.8 4.2 1.7 3-0.4 5.9-1.7 6.3-2 0 0-4.1-0.9-5.1-0.6-0.4 0.1-0.3-0.5-0.1-0.8 0.5-0.6 3.1-0.7 3.7-0.9 0.1 0 0.2-0.1 0.2-0.3 0-0.2-1.1-7.5-1.1-7.5-0.1-0.8-0.2-1.4-0.2-1.9-0.1-0.4-0.2-0.7-0.2-0.7 0 0 0.4-0.9 0.4-1 0.1-0.1 0.1-0.1 0.2 0 0 0.1 1.1 2.8 1.2 3 0 0.2-0.1 0.2-0.2 0.1-0.1-0.1-0.7-0.7-0.7-0.7 0 0 1 6.1 1.1 7.1 0.3 1.5-0.2 2.5-0.3 2.7 1.1 0.3 2.8 0.5 4.3 0.6-0.3-2.4-0.7-5-0.7-5.3-0.1-0.4-0.8-6.1-0.9-6.6 0 0 0.3-0.8 0.4-0.9 0-0.1 0.1-0.1 0.1 0 0.1 0.1 1.3 3.2 1.4 3.3 0 0.2-0.1 0.2-0.2 0.1-0.1-0.1-0.7-0.6-0.7-0.6 0 0 1 7.3 1.1 7.7q0.2 1.4 0.3 2.4c1.1 0 2 0 2.2 0 0 0-0.3 0.8-0.5 1.2q-0.9-0.1-1.7-0.1c0 1.6-0.2 2.1-0.3 2.2-0.1 0.2-0.2 0.1-0.1-0.1-0.1-0.4-0.1-1.2-0.2-2.1-1.9 0.2-3.1 0.8-3.8 1.1-4.6 2.2-6.7 2.1-7.2 2.1-3.9-0.1-3.9-3.9-3.9-4.5-0.2-1.7-0.7-9.5-1.4-11.8 0 0 0.2-0.7 0.3-0.9 0.1-0.3 0.2-0.3 0.3 0.1z"/>
	</g>
</svg>