<svg version="1.2" xmlns="http://www.w3.org/2000/svg" viewBox="0 0 70 30" width="70" height="30">
	<title>New Project</title>
	<style>
		.s0 { fill: #191c4f } 
	</style>
	<g id="الأحقاف">
		<path id="&lt;Path&gt;" class="s0" d="m15.3 21.9c0 0.1 0 0.1-0.1 0.3 0 0.2-0.1 0.2-0.3 0.3-0.2 0.1-4 1.9-4.1 2-0.3 0.1-0.3 0-0.2-0.1q0 0 0-0.2c0-0.2 0.1-0.3 0.3-0.4 0.2-0.1 4-1.9 4.2-2 0.3-0.1 0.3 0 0.2 0.1z"/>
		<path id="&lt;Path&gt;" class="s0" d="m64.2 20.5c0 0 0 0.3 0 0.5 0 0.2-0.1 0.5-0.2 0.7-0.1 0.3-0.7 0.5-1.1 0.2-0.7 1-1.3 0.5-1.7 0.4-0.6-0.3-0.8 0.2-0.9 0.3-0.8 0.9-2.2 0.9-2.5 0.9-0.4 0-0.1-0.2 0-0.2 1.2-0.4 1.8-0.5 2.8-1.4 0.5-0.5 0.8-0.3 0.9-0.2 1 0.4 1.1 0 1.2-0.1 0.1-0.1 0.3-0.6 0.4-0.8 0.1-0.1 0.1 0 0.1 0.1 0 0.1-0.1 0.3-0.1 0.4 0.4 0.3 0.8 0 0.9-0.1 0 0-0.1-0.3-0.1-0.4q0-0.1 0.1-0.5c0.1-0.2 0.2 0 0.2 0.2z"/>
		<path id="&lt;Path&gt;" class="s0" d="m20.9 16.7c0.1 0.1 0 0.5 0 0.7-0.1 0.1-0.2 0-0.3-0.1 0 0-0.1-0.1-0.2-0.2-0.5-0.3-0.6 0.4-0.6 0.8 0 0.2 0.1 1 0 1.5 0 0.2-0.1 0.2-0.2 0-0.4-0.9-1-1.3-1.1-1.4-0.1-0.1-0.1 0.1-0.2 0.1q0 0.1-0.1 0.1c0-0.1-0.4-0.2-0.5-0.3-0.1-0.1-0.1-0.5-0.1-0.7 0-0.2 0.1-0.3 0.2-0.3 1.2 0.5 1.7 1.6 1.8 1.8 0-0.9-0.1-1.6 0.3-2.2 0.3-0.5 0.9 0.1 1 0.2z"/>
		<path id="&lt;Compound Path&gt;" fill-rule="evenodd" class="s0" d="m14.4 20.2c-0.2 0.6-1 1.4-4.3 2.5-3.2 1.1-4.6 0.1-5-0.2-2.1-1.6-0.6-4.3-0.5-4.7 0.2-0.4 0.3-0.1 0.2 0.2-0.1 0.3-0.3 1-0.3 1.4-0.1 2 1.5 2.4 2 2.5 2.6 0.8 6.8-1.6 7.1-1.9q0.6-0.3 0.5-0.5c-0.2-0.6-0.6-0.5-0.9-0.5-0.2 0-1.2 0.2-1.7-0.3-0.7-0.7-0.2-1.7 0.1-2.2 0.1-0.1 0.4-0.3 0.5-0.4 0.6-0.2 1.7-0.2 2.4 2.4 0.1 0.8 0.1 1.3-0.1 1.7zm-1.1-2.4c-0.6-0.9-1.1-0.7-1.3-0.6-0.2 0.1-0.4 0.5 0 0.7 0.4 0.1 0.7 0 0.9 0 0.2-0.1 0.4-0.1 0.4-0.1z"/>
		<path id="&lt;Path&gt;" class="s0" d="m31 15.5c0.6 0.1 0.4 0.3 0.3 0.5-0.4 0.6-0.9 0.9-1.3 1-0.4 0.2-0.2-0.1 0-0.3 0 0 0.3-0.1 0.6-0.4 0.4-0.2-0.6-0.2-0.9-0.2-0.4 0-0.5 0.1-0.7 0.3-0.1 0.1-0.2 0-0.1-0.1 0.1-0.2 0.2-0.4 0.4-0.7 0.3-0.3 1.2-0.2 1.7-0.1z"/>
		<path id="&lt;Path&gt;" class="s0" d="m24.3 14.8l1 0.7q0 0.1 0 0.1l-0.6 0.8q0 0 0 0l-0.9-0.7-0.5 0.7q-0.1 0-0.1 0l-0.9-0.7q-0.1 0 0-0.1l0.5-0.7q0-0.1 0.1-0.1l0.9 0.7 0.5-0.6q0-0.1 0-0.1z"/>
		<path id="&lt;Compound Path&gt;" fill-rule="evenodd" class="s0" d="m46.8 19.2c-0.2 0.9-1.6 1.4-1.9 1.5-1.1 0.4-1.2-0.8-1.1-1.6 0-0.9 0.7-2 0.7-2-0.1 0-1.3-1-1.4-1.1-0.1-0.1-0.3-0.2-0.4-0.3-0.1-0.1-0.1-0.1-0.1-0.1 0 0 0.1-0.9 0.1-1 0-0.1 0-0.1 0.1 0 0.1 0 1.4 0.5 1.6 0.6 0.1 0.1 0.1 0.2 0 0.2-0.1 0-0.5 0.1-0.5 0.1l1.1 0.8c0 0 1.5-2 1.6-2.1 0.2-0.2 0.2-0.1 0.2 0.1-0.1 0.2-0.4 1-0.4 1.1-0.1 0.2-0.9 1.3-0.9 1.3 0 0 1 0.6 1.3 0.9 0.4 0.6 0.1 1.3 0 1.6zm-1.9-1.8c0 0-0.7 1.2-0.8 1.4-0.3 0.7 0.4 0.8 0.7 0.8 0.2 0 1.1-0.5 1.6-0.8 0.4-0.4-1.2-1.2-1.5-1.4z"/>
		<path id="&lt;Path&gt;" class="s0" d="m5.2 14.2c0 0 0 0.3-0.1 0.5-0.2 0.9-0.1 1.4 0 1.5 0.3 0.4 0.6 0.2 0.7-0.2 0-0.2 0.1-0.1 0.1 0q0 0.1-0.1 0.3c-0.1 0.6-0.3 0.7-0.5 0.7-0.3 0-0.5-0.4-0.5-0.7-0.1-1 0.2-1.9 0.3-2.1 0.1-0.3 0.2-0.2 0.1 0z"/>
		<path id="&lt;Path&gt;" class="s0" d="m8.3 14.1c0 0-0.1 0.4-0.2 0.7-0.3 1.5-0.1 2.2 0 2.4 0.4 0.7 0.9 0.3 1-0.3 0.1-0.3 0.2-0.1 0.2 0q0 0.1-0.1 0.5c-0.2 0.9-0.5 1.1-0.7 1.1-0.5 0-0.8-0.7-0.8-1.1-0.2-1.6 0.3-3 0.4-3.4 0.1-0.4 0.3-0.3 0.2 0.1z"/>
		<path id="&lt;Compound Path&gt;" fill-rule="evenodd" class="s0" d="m65.6 18.1c-0.1 0.2-0.3 1.1-1.5 0.8-0.4 0-1-0.2-1.2-0.9-0.3 0.4-1.1 1.6-2.5 1.4-0.3 0-1.3-0.4-1.3-1.7 0 0-1.2 1-1.7 1.3 0 0.4 0 0.9-0.2 1.5-0.2 0.6-2.7 3.4-4.8 3.8-0.7 0.2-3.3 0.7-3.4-2.2q0-1 0.1-1.4c-1.6 1.2-3.6 2.2-4.2 2.4-0.8 0.5-3.8 0.9-4.3 1-0.4 0.1-0.4 0-0.2-0.1 0.2-0.1 6.8-2.4 10.3-6q0.1-0.2-0.1-0.4c-0.1-0.2-1.1-2.3-1.2-2.6-0.1-0.2-0.3-0.6-0.3-0.7q-0.1-0.1-0.1-0.3c0.1-0.1 0.1-0.6 0.2-0.8 0-0.1 0.1 0 0.1 0 0.1 0.1 1.2 1.2 1.3 1.4 0.2 0.1 0.1 0.2 0 0.2 0 0-0.6-0.1-0.6-0.1 0 0 0.7 1.3 1 1.7 0.4 1 0.2 1.8 0 2.1-0.3 0.7-0.9 1.3-1.6 1.9-0.1 0.5-0.3 2.9 1.9 2.9 0.4 0 1.5 0.2 3.8-1.7 0.5-0.4 1.1-0.9 1.6-1.6 0.2-0.3 0.3-0.8 0-0.7-0.4 0-2.7 0.9-3.1-0.6-0.1-0.3 0.1-3.7 2.4-2 0.2 0.1 0.7 0.5 1 1.2 0.4-0.2 1.1-0.6 2-1.3 0.3-0.2 0.5-0.4 0.5 0 0 0.3-0.2 2.2 1.9 1.6 0.3 0 1.2-0.2 1.8-1.9 0.2-0.3 0.4-0.3 0.3 0-0.2 0.4-0.4 0.8-0.2 1 0.2 0.2 0.8 0.6 1.6 0.5 0.2 0 0.4-0.1 0.3-0.3-0.1-0.2-0.4-0.7-0.4-0.7 0.1-0.2 0.2-0.7 0.2-0.8 0.1-0.1 0.1-0.2 0.2-0.1 0.1 0.1 0.8 1 0.4 2.2zm-9.5 0.1c-0.8-1-1.7-0.4-1.8-0.3-0.1 0.1-0.2 0.4 0.6 0.4 0.8 0.1 1.2-0.1 1.2-0.1z"/>
		<path id="&lt;Path&gt;" class="s0" d="m11.8 12.9l0.9 0.7q0 0 0 0.1l-0.5 0.7q-0.1 0.1-0.1 0.1l-0.9-0.7q-0.1-0.1-0.1-0.1l0.6-0.8q0 0 0.1 0z"/>
		<path id="&lt;Path&gt;" class="s0" d="m45.6 12l0.9 0.7q0 0 0 0.1l-0.5 0.7q-0.1 0.1-0.1 0.1l-0.9-0.7-0.5 0.6q0 0.1-0.1 0.1l-0.9-0.7q-0.1-0.1 0-0.1l0.5-0.8q0.1 0 0.1 0l0.9 0.7 0.5-0.7q0 0 0.1 0z"/>
		<path id="&lt;Path&gt;" class="s0" d="m63.2 12.1c0 0-0.1 0.2-0.1 0.4-0.3 0.8-0.2 1.2-0.1 1.3 0.2 0.4 0.5 0.2 0.6-0.1 0.1-0.2 0.1-0.1 0.1-0.1q0 0.1 0 0.3c-0.2 0.5-0.4 0.6-0.6 0.6-0.3 0-0.4-0.4-0.4-0.6-0.1-0.9 0.3-1.7 0.4-1.9 0.1-0.2 0.2-0.1 0.1 0.1z"/>
		<path id="&lt;Path&gt;" class="s0" d="m53.8 11.6c0 0-0.1 0.2-0.1 0.4-0.3 0.9-0.2 1.3-0.1 1.4 0.2 0.5 0.6 0.2 0.7-0.1 0-0.2 0.1-0.1 0.1 0q0 0.1-0.1 0.3c-0.1 0.5-0.4 0.6-0.5 0.6-0.4 0-0.5-0.4-0.5-0.6-0.1-1 0.3-1.8 0.4-2.1 0.1-0.2 0.2-0.1 0.1 0.1z"/>
		<path id="&lt;Path&gt;" class="s0" d="m27.5 11.1c0 0-0.1 0.3-0.1 0.5-0.3 0.9-0.2 1.3-0.1 1.4 0.2 0.4 0.6 0.2 0.7-0.2 0-0.1 0.1 0 0.1 0q0 0.1-0.1 0.3c-0.1 0.6-0.4 0.7-0.5 0.7-0.4 0-0.5-0.5-0.5-0.7-0.1-1 0.3-1.8 0.4-2 0.1-0.3 0.2-0.1 0.1 0z"/>
		<path id="&lt;Path&gt;" class="s0" d="m21.9 11.1c0 0-0.1 0.2-0.1 0.4-0.4 0.9-0.2 1.3-0.1 1.4 0.2 0.4 0.5 0.2 0.7-0.1 0-0.2 0.1-0.1 0.1-0.1q-0.1 0.1-0.1 0.3c-0.2 0.6-0.4 0.7-0.6 0.7-0.3 0-0.4-0.5-0.5-0.7 0-1 0.4-1.8 0.5-2 0.1-0.3 0.2-0.1 0.1 0.1z"/>
		<path id="&lt;Path&gt;" class="s0" d="m11.4 9c0 0 0 0.3-0.1 0.4-0.3 1-0.1 1.4 0 1.5 0.3 0.5 0.7 0.2 0.8-0.2 0-0.1 0.1-0.1 0.1 0q0 0.1-0.1 0.3c-0.1 0.6-0.4 0.8-0.6 0.8-0.4 0-0.6-0.5-0.6-0.7-0.1-1 0.3-1.9 0.4-2.2 0.1-0.2 0.2-0.1 0.1 0.1z"/>
		<path id="&lt;Path&gt;" class="s0" d="m34.6 9c0 0 0 0.3-0.1 0.5-0.3 1 0 1.5 0 1.6 0.3 0.5 0.7 0.2 0.8-0.2 0-0.2 0.1-0.1 0.1 0q0 0.1-0.1 0.3c-0.1 0.7-0.3 0.8-0.5 0.8-0.4 0.1-0.6-0.4-0.6-0.7-0.2-1.1 0.2-2.1 0.3-2.4 0.1-0.3 0.2-0.1 0.1 0.1z"/>
		<path id="&lt;Path&gt;" class="s0" d="m9.4 9.1c0.1 0.2 0 0.6-0.1 0.8 0 0.1-0.1 0-0.2-0.1 0 0-0.1-0.2-0.2-0.2-0.5-0.4-0.7 0.3-0.7 0.7-0.1 0.3-0.1 1.1-0.2 1.6 0 0.2-0.1 0.2-0.2 0.1-0.3-1.1-0.9-1.6-1-1.7q0 0 0-0.1 0 0.2 0 0.5c-0.2 1.3-1.5 1.9-1.8 2-0.2 0.1-0.2 0.1 0-0.2 0.3-0.2 1.3-1.3 1.5-1.5 0.4-0.5-0.4-0.8-0.5-0.9-0.1-0.2-0.1-0.6-0.1-0.7 0-0.3 0.2-0.4 0.3-0.4 1.2 0.7 1.6 2 1.6 2.2 0.1-1 0.1-1.8 0.6-2.4 0.4-0.5 1 0.2 1 0.3z"/>
		<path id="&lt;Compound Path&gt;" fill-rule="evenodd" class="s0" d="m35.6 19.5l-0.5 1.1c0 0-1.2-0.1-2.7 0.2-0.8 0.2-2.5 1.2-3 1.5-4.2 2.1-5.3 0.1-5.7-0.3-3.3 2.1-5.6 1.5-6.3 1-1.3-0.8-1.4-2.2-1.6-3.8-0.2-1.7-0.3-6.3-1.4-10.3 0 0 0.2-0.7 0.3-0.8 0.1-0.2 0.1-0.2 0.3 0 0.9 2.7 1.3 9.5 1.3 10 0.2 3.3 1.6 3.9 1.8 4 1.9 0.7 4.7-0.8 5.1-1-0.6-1.4-0.6-2.6 0.3-3.6 0.9-0.9 1.6 1 1.7 1.3 0.5 1.6-0.6 2.5-0.8 2.7 1.9 1.8 6.6-1.1 6.9-1.3 0 0-2.1-0.5-2.3-0.6-0.2 0-0.3 0-0.3 0.1-0.1 0.1-0.2 0.1-0.2 0.1 0 0-2.1 0.3-2.2 0.3q-0.1 0-0.1-0.1c0-0.1 0.1-0.5 0.2-0.8 0.1-0.2 1-0.6 1.1-0.7 1.3-0.4 1.6 0 2.3 0.2 2.1 0.7 5.1 0.8 5.4 0.8 0.3 0 0.4 0 0.4 0zm-10.7 0.1c-0.2-0.5-0.8-1.5-1.3-1.1-0.5 0.4-0.6 0.7-0.2 1.3 0.3 0.7 0.5 0.8 0.5 0.8 0.1 0 1.2-0.6 1-1z"/>
		<path id="&lt;Path&gt;" class="s0" d="m36.8 7.7c0.1 0.1 1.2 2.9 1.3 3.1 0 0.1-0.1 0.2-0.2 0.1-0.1-0.1-0.6-0.7-0.6-0.7 0 0 0.8 5 0.9 6.2 0.5 2.9 0 4-0.3 4.7-1.2 2.6-4.6 3.1-5.1 3.3-0.6 0.2-0.6 0-0.4-0.1 3.2-1.3 4.5-2.8 5.1-3.8q0-0.6-0.3-1.1c-1-2-3.6-3.9-3.8-4.1-1.5-1.3-3.2-3.7-3.3-3.9-0.1-0.1-0.2-0.2-0.3-0.3-0.1-0.1-0.1-0.1-0.1-0.3-0.1-0.2-0.1-0.9-0.1-1 0.1-0.1 0.1-0.1 0.2 0 0.2 0.2 1.9 1.5 2.2 1.7 0.2 0.2 0 0.3-0.1 0.2-0.2 0-0.5-0.1-0.7-0.2 0 0 0.4 0.6 0.7 1 0.8 1 2.2 2.2 2.4 2.5 0.4 0.3 2 1.6 2.8 2.7 0.6 0.8 0.7 1.7 0.7 2.3q0.1-0.2 0.1-0.3c0.2-0.8-1.2-8.7-1.2-8.7-0.1-0.7-0.2-1.3-0.3-1.7 0-0.4-0.1-0.6-0.1-0.7 0 0 0.4-0.8 0.4-0.9 0-0.1 0.1-0.1 0.1 0z"/>
		<path id="&lt;Path&gt;" class="s0" d="m39.7 7.7c0 0.1 1.1 2.9 1.2 3.1 0 0.1-0.1 0.2-0.2 0.1 0-0.1-0.6-0.7-0.6-0.7 0 0 0.9 6.8 1 7.1 0.6 4 0.1 5.1 0 5.3-0.1 0.1-0.1 0.1-0.1-0.1-0.1-1.6-1-7.5-1-7.9-0.1-0.3-0.7-5.6-0.8-6.1 0 0 0.3-0.7 0.3-0.8 0.1-0.1 0.1-0.1 0.2 0z"/>
		<path id="&lt;Path&gt;" class="s0" d="m53 7.8c0 0.1-0.1 0.1-0.1 0.3-0.1 0.1-0.2 0.2-0.3 0.3-0.2 0.1-5.1 2.9-5.2 3-0.3 0.1-0.3 0-0.2-0.1q0 0 0-0.2c0-0.2 0.1-0.2 0.3-0.4 0.2-0.1 5.1-2.9 5.3-3 0.3-0.2 0.2-0.1 0.2 0.1z"/>
		<path id="&lt;Path&gt;" class="s0" d="m24.3 7.8c0 0.1 0 0.1-0.1 0.3-0.1 0.2-0.2 0.3-0.4 0.4-0.1 0.1-5.8 3-6.5 3.4-0.6 0.4-0.6 0.7-0.4 0.7 0.5 0.2 0.7 0.5 0.5 1 0 0-0.1 0.1-0.1 0-0.1 0-0.2-0.2-0.4-0.2-0.4-0.1-0.5-0.6-0.4-1.1 0.1-0.4 0.3-0.7 0.5-0.9 0.6-0.4 6.9-3.6 7.1-3.7 0.3-0.2 0.3-0.1 0.2 0.1z"/>
		<path id="&lt;Path&gt;" class="s0" d="m59 8.1c0.1 0.2 0 0.5-0.1 0.8-0.1 0.1-0.2 0-0.3-0.2 0 0-0.1-0.1-0.2-0.2-0.5-0.4-0.7 0.4-0.8 0.8 0 0.3-0.1 1.2-0.1 1.7-0.1 0.2-0.2 0.2-0.3 0.1-0.3-1.2-1-1.7-1.1-1.8-0.1-0.1-0.2 0-0.2 0.1 0 0.1-0.1 0.1-0.1 0.1-0.1-0.1-0.5-0.3-0.6-0.4-0.1-0.2-0.1-0.6-0.1-0.8 0.1-0.3 0.2-0.4 0.3-0.3 1.4 0.7 1.8 2 1.9 2.2 0-1 0.1-1.8 0.6-2.5 0.4-0.5 1 0.3 1.1 0.4z"/>
		<path id="&lt;Path&gt;" class="s0" d="m30.3 7.7c0 0.1 0 0.2 0 0.2 0 0.1-0.2 0.2-0.2 0.3q-0.1 0.1-0.2 0c-0.1-0.2-0.3-0.1-0.5 0-0.2 0.1-0.2 0.2-0.1 0.3 0 0.1 0.3 0.3 0.6 0.3 0.2 0.1 0.7-0.1 0.9-0.2 0.2-0.1 0.1 0.1 0.1 0.2 0 0-0.2 0.3-0.3 0.3-1 0.2-1.4 0.6-1.6 0.7-0.2 0.1-0.1 0-0.1-0.1 0-0.1 0-0.1 0.1-0.2q0.1-0.2 0.2-0.2 0 0-0.3-0.3c-0.3-0.3 0.5-1.1 0.8-1.4 0.3-0.2 0.5 0.1 0.6 0.1z"/>
		<path id="&lt;Compound Path&gt;" fill-rule="evenodd" class="s0" d="m63.8 10.1c-0.1 0.2-0.1 0.1-0.2-0.1-0.1 0-0.2-0.2-0.4-0.3-0.2 0.4-0.2 0.5-1 1.2-1.8 1.6-3.8 2.1-3.9 2.1-0.1 0.1-0.1 0 0.1-0.2 0.6-0.4 3.2-1.6 4.5-3.2 0 0-0.4-0.2-0.7-0.4-0.3-0.2-0.1-0.9 0.1-1.2 0.5-0.8 0.9-0.4 1-0.3 0.4 0.8 0.2 1.5 0.2 1.5 0.2 0.2 0.5 0.5 0.3 0.9zm-0.9-1.9c-0.1-0.1-0.2-0.1-0.4 0.3-0.1 0.1 0 0.2 0.1 0.3 0.2 0 0.6 0.2 0.6 0.2 0-0.1 0-0.5-0.3-0.8z"/>
		<path id="&lt;Compound Path&gt;" fill-rule="evenodd" class="s0" d="m45.3 9.9c0 0.1-0.1 0-0.2-0.1 0-0.1-0.4-0.4-0.4-0.4 0 0-0.4 0.9-1 1.4-1.2 0.9-2.3 1.1-2.3 1.1-0.2 0-0.2-0.1 0-0.2 0.8-0.4 1.7-0.8 3-2.4 0 0-0.4-0.1-0.7-0.4-0.3-0.2-0.1-0.9 0.1-1.2 0.5-0.8 0.9-0.4 1-0.3 0.4 0.8 0.2 1.5 0.2 1.5 0.2 0.2 0.5 0.5 0.3 1zm-0.8-2c-0.1 0-0.3-0.1-0.5 0.3-0.1 0.1 0 0.2 0.1 0.3 0.2 0.1 0.6 0.3 0.6 0.3 0-0.2 0.1-0.6-0.2-0.9z"/>
		<path id="&lt;Path&gt;" class="s0" d="m31 6.2c-0.1 0.1-0.1 0.1-0.1 0.3-0.1 0.1-0.2 0.2-0.4 0.3-0.1 0.1-4.5 2.2-5 2.6-0.6 0.3-0.6 0.6-0.4 0.6 0.4 0.1 0.6 0.4 0.4 0.9 0 0-0.1 0-0.1 0 0-0.1-0.2-0.2-0.4-0.2-0.3-0.1-0.4-0.5-0.3-1 0.1-0.3 0.3-0.6 0.5-0.8 0.5-0.4 5.4-2.7 5.5-2.8 0.3-0.2 0.3-0.1 0.3 0.1z"/>
	</g>
</svg>