<svg version="1.2" xmlns="http://www.w3.org/2000/svg" viewBox="0 0 70 30" width="70" height="30">
	<title>New Project</title>
	<style>
		.s0 { fill: #191c4f } 
	</style>
	<g id="محمد">
		<path id="&lt;Path&gt;" class="s0" d="m14.5 23.6c0 0.1 0 0.2-0.1 0.3-0.1 0.2-0.2 0.3-0.4 0.4-0.3 0.1-3 1-3.2 1.1-0.4 0.1-0.3 0-0.3-0.1q0 0 0.1-0.3c0.1-0.1 0.1-0.2 0.4-0.3 0.3-0.1 3-1.1 3.3-1.2 0.3-0.1 0.3 0 0.2 0.1z"/>
		<path id="&lt;Path&gt;" class="s0" d="m14.5 22.2c0 0.1 0 0.2-0.1 0.3-0.1 0.2-0.2 0.3-0.4 0.4-0.3 0.1-3 1-3.2 1.1-0.4 0.2-0.3 0.1-0.3-0.1q0 0 0.1-0.3c0.1-0.1 0.1-0.2 0.4-0.3 0.3-0.1 3-1.1 3.3-1.2 0.3-0.1 0.3 0 0.2 0.1z"/>
		<path id="&lt;Path&gt;" class="s0" d="m34.6 20.4c0.2 0 0.1 0.1 0.1 0.3 0 0-0.1 0.3-0.3 0.5-0.1 0.1-0.8 0.8-0.9 1.1-0.2 0.3-0.1 0.9 0.6 0.9 0.9 0 1.7-0.8 1.9-1 0.2-0.2 0.1 0 0.1 0.1-0.7 1-1.5 1.4-1.6 1.4-0.3 0.1-1.6 0.4-1.3-1 0.2-0.9 1-1.5 1-1.6q0.1-0.1-0.1-0.1c-0.9 0-0.9 0.3-0.9 0.3-0.1 0.1-0.1 0-0.1-0.1 0.1-0.1 0.2-0.4 0.3-0.5 0.3-0.4 1-0.3 1.2-0.3z"/>
		<path id="&lt;Path&gt;" class="s0" d="m64 19.7c0 0 0 0.3 0 0.5 0 0.2-0.1 0.6-0.3 0.9-0.1 0.4-0.8 0.5-1.3 0.2-0.7 1.2-1.5 0.6-1.9 0.5-0.7-0.3-0.9 0.2-1.1 0.3-0.9 1.1-2.5 1-2.9 1.1-0.4 0-0.1-0.2 0.1-0.3 1.3-0.5 2.1-0.6 3.2-1.6 0.5-0.6 0.9-0.3 1.1-0.2 1 0.4 1.2 0 1.3-0.2 0.2-0.1 0.4-0.7 0.5-0.8 0-0.2 0.1-0.1 0.1 0.1 0 0.1-0.1 0.3-0.1 0.4 0.4 0.3 0.9 0 1-0.1 0 0 0-0.3-0.1-0.4q0-0.2 0.2-0.6c0.1-0.3 0.1 0 0.2 0.2z"/>
		<path id="&lt;Compound Path&gt;" fill-rule="evenodd" class="s0" d="m43.8 18.2c-0.3 1-1.9 1.6-2.2 1.7-1.4 0.5-1.5-0.9-1.4-1.9 0.1-1 0.8-2.3 0.8-2.3-0.1 0-1.5-1.1-1.6-1.2-0.1-0.2-0.2-0.3-0.4-0.4-0.1-0.1-0.1-0.1-0.1-0.1 0 0 0-1.1 0-1.2 0-0.1 0.1-0.1 0.2 0 0.1 0 1.7 0.7 1.8 0.7 0.2 0.1 0.1 0.2 0.1 0.3-0.1 0-0.7 0.1-0.7 0.1l1.3 0.9c0 0 1.8-2.3 2-2.5 0.1-0.2 0.1-0.1 0.1 0.1 0 0.3-0.4 1.3-0.5 1.4-0.1 0.2-1 1.4-1 1.4 0 0 1.2 0.7 1.5 1.1 0.5 0.8 0.2 1.5 0.1 1.9zm-2.2-2.1c0 0-0.8 1.4-0.9 1.6-0.4 0.8 0.4 1 0.7 0.9 0.3 0 1.4-0.5 1.9-1 0.5-0.4-1.4-1.3-1.7-1.5z"/>
		<path id="&lt;Path&gt;" class="s0" d="m10.3 13.6c0 0-0.1 0.3-0.2 0.5-0.4 1.2-0.1 1.7 0 1.8 0.3 0.5 0.8 0.2 0.9-0.2 0.1-0.2 0.2-0.1 0.2 0q-0.1 0.1-0.1 0.3c-0.2 0.7-0.5 0.9-0.7 0.9-0.5 0-0.7-0.5-0.8-0.8-0.1-1.2 0.4-2.3 0.5-2.6 0.1-0.3 0.2-0.2 0.2 0.1z"/>
		<path id="&lt;Compound Path&gt;" fill-rule="evenodd" class="s0" d="m65.6 16.9c-0.1 0.2-0.4 1.2-1.8 0.9-0.4 0-1.1-0.2-1.4-1-0.3 0.5-1.2 1.9-2.8 1.6-0.4-0.1-1.5-0.5-1.6-1.9 0 0-1.3 1.1-2 1.4 0.1 0.5 0 1.1-0.2 1.8-0.2 0.6-3.2 3.9-5.5 4.4-0.8 0.2-3.9 0.8-4-2.6 0-0.7 0-1.3 0.1-1.6-1.9 1.4-4.2 2.5-4.8 2.8-1 0.5-4.5 1.1-5.1 1.2-0.4 0.1-0.5 0-0.2-0.2 0.2-0.1 7.9-2.7 11.9-6.9 0.2-0.2 0.1-0.3 0-0.5-0.1-0.2-1.3-2.6-1.5-3-0.1-0.3-0.3-0.7-0.3-0.8q-0.1-0.2-0.1-0.4c0.1-0.1 0.2-0.7 0.2-0.9 0.1-0.1 0.1-0.1 0.2 0 0.1 0.2 1.3 1.4 1.5 1.6 0.1 0.1 0 0.2 0 0.2-0.1 0-0.7 0-0.7 0 0 0 0.8 1.4 1.1 1.9 0.5 1.2 0.2 2.1 0 2.5-0.3 0.7-1 1.4-1.8 2.1-0.1 0.6-0.4 3.4 2.2 3.5 0.4 0 1.7 0.1 4.4-2 0.6-0.5 1.3-1.1 1.9-1.9 0.2-0.4 0.3-0.9-0.1-0.9-0.4 0.1-3.1 1.1-3.5-0.6-0.1-0.4 0.1-4.3 2.8-2.4 0.2 0.2 0.8 0.7 1.1 1.4 0.5-0.2 1.3-0.7 2.4-1.5 0.3-0.2 0.5-0.4 0.5 0 0 0.4-0.2 2.6 2.3 2 0.2-0.1 1.3-0.3 2-2.3 0.2-0.4 0.5-0.4 0.4 0-0.2 0.5-0.5 0.9-0.3 1.2 0.3 0.2 1 0.7 1.9 0.6 0.3-0.1 0.4-0.2 0.3-0.4-0.1-0.3-0.4-0.8-0.4-0.8 0.1-0.3 0.2-0.8 0.2-0.9 0.1-0.2 0.1-0.3 0.2-0.2 0.1 0.2 0.9 1.2 0.5 2.6zm-11.1 0.1c-0.9-1.2-1.9-0.5-2-0.4-0.2 0.1-0.2 0.5 0.6 0.5 1 0.1 1.4-0.1 1.4-0.1z"/>
		<path id="&lt;Path&gt;" class="s0" d="m23.2 14.6c0 0 0 0.2-0.1 0.4-0.3 1-0.2 1.5-0.1 1.6 0.3 0.5 0.6 0.2 0.8-0.2 0-0.1 0.1 0 0.1 0q0 0.1-0.1 0.3c-0.2 0.7-0.4 0.8-0.6 0.8-0.4 0-0.6-0.5-0.6-0.8 0-1 0.4-1.9 0.5-2.2 0.1-0.3 0.2-0.2 0.1 0.1z"/>
		<path id="&lt;Path&gt;" class="s0" d="m19.4 12.5c0 0 0.1 0.4 0.3 0.7 0.1 0.3 0.2 0.6 0.1 1 0 0.4-0.3 0.7-0.5 0.8-0.2 0.1-0.6 0.1-0.9-0.3-0.4 0.7-0.9 0.8-1.3 0.7-0.3-0.2-0.3-0.8-0.3-1 0-0.1 0-0.7 0-0.9 0-0.1 0-0.2 0.1-0.3 0.1-0.2 0.1-0.1 0.1 0.1 0 0.1-0.1 0.9 0.1 1.2 0.3 0.5 1 0.1 1.1-0.2 0.1-0.2-0.2-1.1-0.2-1.1q0-0.1 0-0.1c0-0.1 0-0.3 0.1-0.5q0.1-0.2 0.2 0c0 0.2 0 0.4 0.2 1.2 0.1 0.7 0.8 0.6 1 0.5 0.1-0.1 0.1-0.2 0.1-0.2-0.1-0.1-0.3-0.8-0.5-1.1-0.1-0.2 0-0.4 0.1-0.7 0.1-0.2 0.1 0 0.2 0.2z"/>
		<path id="&lt;Path&gt;" class="s0" d="m42.3 9.8l1.1 0.8q0 0.1 0 0.1l-0.6 0.9q-0.1 0.1-0.1 0l-1.1-0.8-0.5 0.8q-0.1 0.1-0.1 0l-1.1-0.8q-0.1 0 0-0.1l0.6-0.8q0.1-0.1 0.1-0.1l1.1 0.8 0.5-0.7q0.1-0.1 0.1-0.1z"/>
		<path id="&lt;Compound Path&gt;" fill-rule="evenodd" class="s0" d="m39 17.6c-0.1 0.1-0.8 1.4-0.8 1.4-0.5-0.1-2.7-0.3-5.8 1.2-0.7 0.4-6.4 3.1-11 1.4 0 0.4 0 0.7-0.1 1.1-0.1 0.7-0.6 0.6-0.8 0.5-1.7-0.3-1.6-2.9-1.7-3.2 0 0-0.8 1.9-2.5 1.8-2.3-0.2-2.4-2.9-2.5-3.6-0.6 1.7-2.4 3-3.3 3.6-2 1.3-3.2 1.6-3.9 1.4-3-0.8-0.8-6-0.7-6.3q0-0.1 0.1-0.2c-0.3-0.2-0.5-0.7-0.5-1-0.2-2 0.4-3.7 0.5-4.2 0.2-0.5 0.3-0.3 0.2 0.1 0 0-0.1 0.6-0.2 0.9-0.4 1.8 0 2.6 0 2.8 0.5 0.9 1.1 0.4 1.3-0.3 0-0.3 0.1-0.2 0.1 0q0 0.1-0.1 0.5c-0.2 1.2-0.5 1.4-0.9 1.5q-0.1 0-0.1-0.1-0.1 0.1-0.1 0.2c-1 1.9-0.8 3.4-0.5 3.8 0.9 1.5 2.2 0.8 2.8 0.6 2.5-1 4.1-2.8 4.6-3.3 0.5-0.6 0.4-1 0.3-1.3-0.5-2.4-2-5.7-2.2-6.1 0 0 0.1-0.9 0.1-1 0-0.1 0.1-0.2 0.3 0 2.2 2.9 2.7 7.3 2.8 7.9 0.4 3 1.6 2.8 2 2.8 1.8 0 2.7-2.3 2.9-2.5 0.3-0.3 0.3 0.1 0.3 0.3q0 0.1 0.1 0.3c0.7 0.9 4.1 4.6 13.2 0 0-0.1-6-0.5-6.1-0.5-0.1 0-0.2 0-0.1-0.3 0.1-0.3 0.4-1.1 0.9-1.4 0.5-0.3 2.3-1.5 4.6-2.4-0.1-0.2-0.3-0.4-0.3-0.5-0.1-0.2-0.2-0.9 0-1.3 0.2-0.4 0.7-1.4 1.6-1.1 1.2 0.4 2.3 1.6 2.4 1.9 0 0.1-0.2 0.9-0.3 1-0.1 0-0.3 0.1-0.7 0.2-0.4 0.2-1 0.4-1.6 0.6 0 0.5-0.1 0.8-0.2 0.7-0.1-0.1-0.2-0.3-0.3-0.5-1.6 0.6-3.4 1.4-3.9 1.9 0.2 0.1 5.2 0.7 10.1 0.7zm-6.6-4.9c0 0.1 0.3 0.6 0.5 1.1q0.6-0.2 1.3-0.4c0.2-0.1 0.3-0.2 0.1-0.3-0.2-0.1-1.2-0.9-1.7-0.7-0.2 0.1-0.3 0.2-0.2 0.3z"/>
		<path id="&lt;Path&gt;" class="s0" d="m62.8 9.9c0 0-0.1 0.3-0.2 0.5-0.3 0.9-0.1 1.4-0.1 1.5 0.3 0.4 0.7 0.2 0.8-0.2 0.1-0.2 0.1-0.1 0.1 0q0 0.1-0.1 0.3c-0.1 0.6-0.4 0.7-0.6 0.7-0.3 0-0.5-0.4-0.5-0.7-0.1-1 0.4-1.9 0.5-2.2 0.1-0.2 0.2-0.1 0.1 0.1z"/>
		<path id="&lt;Path&gt;" class="s0" d="m26.7 9.9c0 0-0.1 0.5-0.2 0.7-0.5 1.5-0.2 2.2-0.1 2.3 0.3 0.7 0.8 0.3 1-0.2 0.1-0.3 0.2-0.1 0.2 0q0 0.1-0.1 0.4c-0.3 0.9-0.6 1.1-0.9 1.1-0.5 0-0.7-0.7-0.7-1.1-0.1-1.5 0.5-2.9 0.7-3.3 0.1-0.4 0.2-0.2 0.1 0.1z"/>
		<path id="&lt;Path&gt;" class="s0" d="m51.9 9.3c0 0-0.1 0.3-0.2 0.5-0.3 1.1-0.1 1.5-0.1 1.7 0.3 0.5 0.7 0.2 0.8-0.2 0.1-0.2 0.2-0.1 0.2 0q-0.1 0.1-0.1 0.3c-0.2 0.7-0.5 0.8-0.7 0.8-0.4 0-0.5-0.5-0.5-0.8-0.1-1.1 0.4-2.1 0.5-2.3 0.1-0.3 0.2-0.2 0.1 0z"/>
		<path id="&lt;Path&gt;" class="s0" d="m50.9 4.9c0 0.1 0 0.1-0.1 0.3-0.1 0.2-0.2 0.3-0.4 0.4-0.2 0.1-5.9 3.4-6 3.5-0.3 0.2-0.3 0-0.2-0.1q0 0 0-0.3c0.1-0.2 0.1-0.2 0.4-0.4 0.2-0.1 5.9-3.4 6.1-3.5 0.3-0.2 0.3-0.1 0.2 0.1z"/>
		<path id="&lt;Path&gt;" class="s0" d="m57.9 5.2c0.1 0.3 0 0.7-0.1 1-0.1 0.2-0.2 0-0.4-0.2 0 0-0.1-0.1-0.2-0.2-0.6-0.5-0.8 0.4-0.9 0.9 0 0.3-0.1 1.4-0.2 2 0 0.2-0.2 0.2-0.3 0-0.3-1.3-1.1-1.9-1.2-2-0.2-0.2-0.3 0-0.3 0.1 0 0.1-0.1 0.1-0.2 0 0 0-0.5-0.3-0.6-0.4-0.1-0.2-0.1-0.7-0.1-0.9 0-0.3 0.3-0.4 0.4-0.4 1.5 0.9 2 2.4 2.1 2.6 0.1-1.1 0.1-2.1 0.7-2.9 0.5-0.6 1.2 0.3 1.3 0.4z"/>
		<path id="&lt;Compound Path&gt;" fill-rule="evenodd" class="s0" d="m63.5 7.6c-0.1 0.2-0.1 0.1-0.2-0.1-0.1-0.1-0.3-0.2-0.5-0.4-0.2 0.5-0.2 0.6-1.2 1.4-2.1 1.8-4.4 2.5-4.5 2.5-0.1 0-0.1-0.1 0.1-0.2 0.7-0.6 3.7-1.9 5.2-3.8 0 0-0.4-0.2-0.8-0.4-0.3-0.3-0.1-1.1 0.1-1.5 0.6-0.9 1.1-0.4 1.2-0.3 0.5 0.9 0.2 1.8 0.2 1.8 0.3 0.1 0.6 0.5 0.4 1zm-1-2.2c-0.1-0.1-0.3-0.1-0.6 0.3-0.1 0.1 0 0.3 0.2 0.4 0.2 0 0.7 0.2 0.7 0.2 0-0.1 0.1-0.6-0.3-0.9z"/>
		<path id="&lt;Path&gt;" class="s0" d="m30.9 4.8c-0.1 0.1-0.1 0.1-0.2 0.3-0.1 0.3-0.2 0.3-0.4 0.4-0.2 0.2-9.7 5.1-9.8 5.2-0.4 0.2-0.3 0-0.3-0.1q0-0.1 0.1-0.3c0-0.2 0.1-0.3 0.4-0.4 0.2-0.2 9.6-5.1 9.9-5.2 0.4-0.2 0.3-0.1 0.3 0.1z"/>
		<path id="&lt;Compound Path&gt;" fill-rule="evenodd" class="s0" d="m34.5 7.7c0 0.2-0.1 0.1-0.2-0.1 0-0.1-0.4-0.4-0.4-0.4 0 0-0.6 1.1-1.7 1.9-1.1 0.7-2.3 1.2-2.9 1.3-0.2 0-0.2-0.1 0.1-0.3 0.9-0.4 2.4-1.3 4.1-3.1 0 0-0.5-0.2-0.8-0.5-0.3-0.3 0-1.2 0.2-1.5 0.7-0.9 1.2-0.4 1.3-0.2 0.5 0.9 0.1 1.8 0.1 1.8 0.2 0.2 0.5 0.6 0.2 1.1zm-0.8-2.4c-0.1-0.1-0.2-0.1-0.6 0.3-0.1 0.1 0 0.3 0.2 0.4 0.2 0.1 0.6 0.4 0.6 0.4 0.1-0.2 0.2-0.7-0.2-1.1z"/>
		<path id="&lt;Path&gt;" class="s0" d="m13.8 4.9c0.1 0.2 0 0.6-0.1 0.9-0.1 0.2-0.2 0-0.3-0.2 0 0-0.2-0.1-0.3-0.2-0.5-0.5-0.7 0.4-0.8 0.9-0.1 0.3-0.1 1.3-0.2 1.9 0 0.2-0.2 0.2-0.2 0-0.4-1.2-1.1-1.8-1.3-2q0 0 0 0 0.1 0.2 0 0.5c-0.2 1.6-1.8 2.2-2.1 2.3-0.3 0.2-0.3 0.1 0-0.2 0.3-0.3 1.5-1.5 1.7-1.8 0.5-0.5-0.4-0.9-0.6-1-0.1-0.2-0.1-0.6-0.1-0.8 0.1-0.4 0.3-0.5 0.4-0.4 1.5 0.8 1.9 2.2 2 2.5 0.1-1.1 0.1-2.1 0.7-2.8 0.4-0.6 1.1 0.3 1.2 0.4z"/>
		<path id="&lt;Compound Path&gt;" fill-rule="evenodd" class="s0" d="m42 7.3c0 0.2-0.1 0.1-0.2-0.1-0.1-0.1-0.5-0.4-0.5-0.4 0 0-0.4 1-1.2 1.6-1.4 1.1-2.6 1.3-2.7 1.3-0.1 0-0.2-0.1 0.1-0.2 0.9-0.6 1.9-0.9 3.5-2.8 0 0-0.5-0.2-0.9-0.4-0.3-0.3-0.1-1.1 0.1-1.5 0.6-0.9 1.1-0.4 1.2-0.3 0.5 0.9 0.3 1.7 0.3 1.7 0.2 0.2 0.5 0.6 0.3 1.1zm-1-2.2c-0.1-0.1-0.2-0.1-0.5 0.3-0.1 0.1 0 0.3 0.2 0.3 0.2 0.1 0.6 0.3 0.6 0.3 0-0.1 0.1-0.6-0.3-0.9z"/>
		<path id="&lt;Path&gt;" class="s0" d="m23.2 4.2c0 0.2 0 0.2-0.1 0.4-0.1 0.3-0.3 0.3-0.5 0.5-0.1 0.1-7.5 3.8-8.3 4.3-0.8 0.5-0.7 0.8-0.5 0.9 0.6 0.2 0.9 0.6 0.5 1.2 0 0 0 0.1-0.1 0 0-0.1-0.2-0.2-0.5-0.3-0.4-0.1-0.5-0.7-0.4-1.3 0.1-0.4 0.3-0.8 0.7-1.1 0.6-0.5 8.7-4.5 8.9-4.7 0.4-0.2 0.4-0.1 0.3 0.1z"/>
	</g>
</svg>