<svg version="1.2" xmlns="http://www.w3.org/2000/svg" viewBox="0 0 70 30" width="70" height="30">
	<title>New Project</title>
	<style>
		.s0 { fill: #191c4f } 
	</style>
	<g id="الفتح">
		<path id="&lt;Path&gt;" class="s0" d="m20.2 20.6c0 0-0.1 0.3-0.1 0.5-0.4 1-0.2 1.5-0.2 1.6 0.3 0.5 0.7 0.3 0.9-0.1 0-0.2 0.1-0.1 0.1 0q0 0-0.1 0.3c-0.2 0.6-0.4 0.8-0.6 0.8-0.4 0-0.6-0.6-0.6-0.8-0.1-1.2 0.4-2.1 0.5-2.4 0.1-0.3 0.2-0.2 0.1 0.1z"/>
		<path id="&lt;Path&gt;" class="s0" d="m32 20.4c0 0-0.1 0.3-0.2 0.5-0.3 1-0.1 1.5-0.1 1.6 0.3 0.5 0.7 0.3 0.9-0.1 0-0.2 0.1-0.1 0.1 0q0 0-0.1 0.3c-0.2 0.6-0.4 0.8-0.7 0.8-0.3 0-0.5-0.6-0.5-0.8-0.1-1.2 0.4-2.1 0.5-2.4 0.1-0.3 0.2-0.2 0.1 0.1z"/>
		<path id="&lt;Path&gt;" class="s0" d="m11.5 20c-0.1 0.2-0.1 0.2-0.2 0.4-0.1 0.2-0.2 0.3-0.4 0.3-0.3 0.2-3.3 1.2-3.5 1.3-0.4 0.1-0.3 0-0.3-0.1q0 0 0.1-0.3c0.1-0.2 0.2-0.3 0.4-0.4 0.3-0.1 3.3-1.2 3.6-1.3 0.4-0.1 0.3 0 0.3 0.1z"/>
		<path id="&lt;Path&gt;" class="s0" d="m63.8 19.7c0 0 0 0.3 0 0.6 0 0.2-0.1 0.6-0.2 1-0.1 0.4-0.9 0.5-1.4 0.2-0.9 1.3-1.7 0.6-2.1 0.5-0.8-0.3-1 0.2-1.2 0.4-1 1.1-2.8 1-3.2 1.1-0.4 0-0.1-0.2 0.1-0.3 1.4-0.5 2.3-0.6 3.5-1.8 0.6-0.5 0.9-0.3 1.1-0.2 1.2 0.5 1.4 0 1.5-0.1 0.2-0.2 0.4-0.8 0.5-1 0.1-0.2 0.2 0 0.1 0.1 0 0.2 0 0.4-0.1 0.5 0.5 0.3 1 0 1.1-0.1 0 0 0-0.3 0-0.5q0-0.1 0.1-0.6c0.1-0.3 0.2 0 0.2 0.2z"/>
		<path id="&lt;Compound Path&gt;" fill-rule="evenodd" class="s0" d="m42 18.1c-0.4 1.1-2.1 1.8-2.4 1.9-1.5 0.4-1.6-1-1.5-2.1 0.1-1.1 0.8-2.5 0.8-2.5 0 0-1.6-1.2-1.7-1.4-0.1-0.1-0.3-0.2-0.4-0.3-0.2-0.1-0.1-0.2-0.1-0.2 0 0 0-1.1 0-1.2 0-0.2 0-0.1 0.2-0.1 0.1 0.1 1.8 0.8 2 0.9 0.1 0 0.1 0.2 0 0.2-0.1 0-0.7 0.2-0.7 0.2l1.4 1c0 0 1.9-2.5 2.1-2.8 0.2-0.2 0.2-0.1 0.1 0.2 0 0.2-0.4 1.3-0.5 1.4 0 0.2-1 1.6-1 1.6 0 0 1.3 0.7 1.6 1.2 0.5 0.8 0.2 1.5 0.1 2zm-2.5-2.3c0 0-0.8 1.5-0.9 1.8-0.4 0.9 0.4 1 0.8 1 0.3 0 1.4-0.6 2-1.1 0.5-0.4-1.5-1.5-1.9-1.7z"/>
		<path id="&lt;Compound Path&gt;" fill-rule="evenodd" class="s0" d="m65.6 16.7c-0.1 0.2-0.4 1.3-2 1-0.4-0.1-1.1-0.2-1.5-1.1-0.4 0.5-1.3 2-3.1 1.7-0.3 0-1.6-0.5-1.6-2.1 0 0-1.5 1.2-2.2 1.6 0.1 0.5 0 1.2-0.2 1.9-0.3 0.7-3.5 4.3-6 4.9-0.9 0.1-4.2 0.8-4.3-2.9-0.1-0.8 0-1.4 0.1-1.8-2.1 1.6-4.5 2.8-5.2 3.1-1.1 0.6-4.9 1.2-5.5 1.3-0.5 0.1-0.5 0-0.3-0.2 0.3-0.2 8.6-3 13-7.5 0.1-0.2 0.1-0.4-0.1-0.6-0.1-0.2-1.4-2.8-1.6-3.2-0.1-0.3-0.3-0.7-0.3-0.8q-0.1-0.2-0.1-0.5c0-0.1 0.2-0.8 0.2-1 0.1-0.1 0.1 0 0.2 0.1 0.1 0.1 1.5 1.4 1.6 1.6 0.2 0.2 0.1 0.3 0 0.3-0.1 0-0.7 0-0.7 0 0 0 0.9 1.5 1.1 2.1 0.6 1.2 0.3 2.2 0.1 2.6-0.4 0.8-1.1 1.6-2 2.3-0.1 0.7-0.4 3.7 2.4 3.8 0.5 0 1.9 0.2 4.7-2.2 0.7-0.5 1.4-1.1 2.1-2 0.2-0.4 0.4-1-0.1-1-0.4 0.1-3.4 1.2-3.8-0.6-0.1-0.5 0.1-4.7 3-2.6 0.3 0.2 0.9 0.7 1.3 1.5 0.5-0.2 1.4-0.7 2.5-1.6 0.3-0.3 0.6-0.4 0.6 0 0 0.4-0.2 2.8 2.4 2.1 0.3-0.1 1.5-0.3 2.3-2.4 0.2-0.5 0.5-0.5 0.3 0-0.2 0.5-0.4 0.9-0.2 1.2 0.3 0.2 1 0.8 2 0.6 0.3 0 0.5-0.1 0.4-0.4-0.2-0.3-0.5-0.8-0.5-0.8 0.1-0.3 0.2-0.9 0.3-1 0-0.2 0.1-0.3 0.2-0.2 0.1 0.1 1 1.3 0.5 2.8zm-12 0.1c-1-1.3-2.1-0.6-2.3-0.4-0.1 0.1-0.2 0.5 0.8 0.6 1.1 0 1.5-0.2 1.5-0.2z"/>
		<path id="&lt;Path&gt;" class="s0" d="m15.2 14.2c0 0-0.1 0.3-0.1 0.5-0.4 1-0.2 1.5-0.2 1.6 0.3 0.5 0.7 0.3 0.9-0.1 0-0.2 0.1-0.1 0.1 0q0 0.1-0.1 0.3c-0.2 0.6-0.4 0.8-0.6 0.8-0.4 0-0.6-0.6-0.6-0.8-0.1-1.2 0.4-2.1 0.5-2.4 0.1-0.3 0.2-0.2 0.1 0.1z"/>
		<path id="&lt;Path&gt;" class="s0" d="m19.9 11.3l1.2 0.8q0 0.1 0 0.1l-0.7 1q0 0-0.1 0l-1.1-0.8-0.6 0.8q-0.1 0-0.1 0l-1.2-0.9q-0.1 0 0 0l0.7-1q0 0 0.1 0l1.1 0.8 0.6-0.8q0.1 0 0.1 0z"/>
		<path id="&lt;Path&gt;" class="s0" d="m26.4 10.9l1.2 0.8q0 0.1 0 0.1l-0.7 1q0 0-0.1 0l-1.2-0.9q0 0 0-0.1l0.7-0.9q0-0.1 0.1 0z"/>
		<path id="&lt;Path&gt;" class="s0" d="m40.3 9l1.2 0.9q0.1 0 0 0.1l-0.7 1q0 0 0 0l-1.2-0.9-0.6 0.9q0 0-0.1 0l-1.2-0.9q0 0 0-0.1l0.7-0.9q0-0.1 0.1-0.1l1.1 0.9 0.6-0.8q0.1-0.1 0.1-0.1z"/>
		<path id="&lt;Path&gt;" class="s0" d="m62.5 9.1c0 0-0.1 0.3-0.1 0.5-0.4 1-0.2 1.5-0.1 1.6 0.2 0.6 0.6 0.3 0.8-0.1 0-0.2 0.1-0.1 0.1 0q0 0.1-0.1 0.3c-0.2 0.6-0.4 0.8-0.6 0.8-0.4 0-0.6-0.5-0.6-0.8-0.1-1.1 0.4-2.1 0.5-2.4 0.1-0.2 0.2-0.1 0.1 0.1z"/>
		<path id="&lt;Path&gt;" class="s0" d="m50.7 8.5c0 0-0.1 0.3-0.1 0.5-0.4 1.2-0.2 1.7-0.2 1.8 0.3 0.6 0.8 0.3 0.9-0.2 0.1-0.2 0.2-0.1 0.1 0q0 0.1 0 0.4c-0.2 0.7-0.5 0.8-0.7 0.8-0.5 0-0.6-0.5-0.7-0.8 0-1.3 0.5-2.3 0.6-2.6 0.1-0.3 0.2-0.2 0.1 0.1z"/>
		<path id="&lt;Path&gt;" class="s0" d="m28.3 5.1c0 0.1 0 0.1-0.1 0.3-0.1 0.2-0.2 0.3-0.5 0.4-0.2 0.1-5.7 2.4-5.9 2.5-0.4 0.2-0.3 0.1-0.3-0.1q0 0 0.1-0.3c0.1-0.2 0.1-0.3 0.4-0.4 0.3-0.1 5.8-2.4 6.1-2.5 0.4-0.2 0.3-0.1 0.2 0.1z"/>
		<path id="&lt;Path&gt;" class="s0" d="m6.9 5.1c0 0-0.1 0.3-0.2 0.5-0.3 1-0.1 1.4-0.1 1.5 0.3 0.5 0.7 0.3 0.8-0.1 0.1-0.2 0.1-0.1 0.1 0q0 0.1-0.1 0.3c-0.1 0.6-0.4 0.8-0.6 0.8-0.4-0.1-0.5-0.6-0.5-0.8-0.1-1.1 0.3-2 0.5-2.3 0.1-0.2 0.2-0.1 0.1 0.1z"/>
		<path id="&lt;Path&gt;" class="s0" d="m20.1 4.9c0.7 0.1 0.5 0.4 0.4 0.6-0.6 0.8-1.2 1.2-1.8 1.4-0.5 0.2-0.2-0.2 0.1-0.4 0 0 0.3-0.2 0.7-0.5 0.5-0.4-0.7-0.3-1.2-0.3-0.6 0-0.7 0.2-0.9 0.3-0.1 0.2-0.3 0.1-0.2-0.1 0.1-0.2 0.3-0.5 0.6-0.9 0.4-0.4 1.6-0.2 2.3-0.1z"/>
		<path id="&lt;Path&gt;" class="s0" d="m14.6 4.4c0.1 0.2 0 0.7-0.1 1-0.1 0.2-0.2 0-0.4-0.1 0 0-0.1-0.2-0.2-0.3-0.6-0.6-0.9 0.5-0.9 1-0.1 0.3-0.1 1.5-0.2 2.1-0.1 0.3-0.2 0.3-0.3 0.1-0.4-1.4-1.2-2.1-1.3-2.3-0.2-0.1-0.3 0.1-0.3 0.2 0 0.1-0.1 0.1-0.2 0 0 0-0.5-0.3-0.6-0.5-0.2-0.1-0.1-0.7-0.1-0.9 0-0.4 0.2-0.5 0.4-0.4 1.6 0.9 2 2.5 2.1 2.8 0.1-1.2 0.2-2.3 0.8-3.1 0.5-0.7 1.2 0.3 1.3 0.4z"/>
		<path id="&lt;Path&gt;" class="s0" d="m49.7 3.7c0 0.1-0.1 0.1-0.2 0.3 0 0.2-0.2 0.3-0.4 0.4-0.2 0.2-6.4 3.7-6.5 3.8-0.3 0.2-0.3 0.1-0.3-0.1q0.1 0 0.1-0.3c0.1-0.2 0.1-0.2 0.4-0.4 0.2-0.1 6.4-3.7 6.6-3.8 0.4-0.2 0.3-0.1 0.3 0.1z"/>
		<path id="&lt;Path&gt;" class="s0" d="m57.2 4c0.1 0.3 0 0.8-0.1 1.1-0.1 0.2-0.2 0-0.4-0.2 0 0-0.1-0.2-0.3-0.3-0.6-0.5-0.8 0.5-0.9 1 0 0.4-0.1 1.5-0.2 2.2 0 0.3-0.2 0.2-0.3 0.1-0.4-1.5-1.2-2.2-1.4-2.3-0.1-0.2-0.2 0.1-0.2 0.2-0.1 0-0.1 0-0.2 0-0.1 0-0.6-0.3-0.7-0.5-0.2-0.2-0.1-0.7-0.1-0.9 0-0.4 0.3-0.5 0.4-0.5 1.7 1 2.2 2.6 2.3 2.9 0.1-1.3 0.1-2.4 0.7-3.2 0.6-0.7 1.3 0.3 1.4 0.4z"/>
		<path id="&lt;Compound Path&gt;" fill-rule="evenodd" class="s0" d="m63.3 6.6c-0.1 0.2-0.1 0.1-0.3-0.1 0-0.1-0.2-0.3-0.4-0.4-0.3 0.6-0.3 0.6-1.3 1.5-2.3 2-4.8 2.7-4.9 2.7-0.1 0-0.2-0.1 0.1-0.2 0.7-0.6 4-2.1 5.7-4.1 0 0-0.6-0.2-0.9-0.5-0.4-0.3-0.2-1.2 0.1-1.6 0.6-1 1.2-0.4 1.3-0.3 0.5 1 0.2 1.9 0.2 1.9 0.3 0.2 0.6 0.5 0.4 1.1zm-1.1-2.4c-0.1-0.1-0.3-0.1-0.6 0.4-0.1 0.1 0 0.3 0.2 0.3 0.3 0.1 0.7 0.4 0.7 0.4 0.1-0.2 0.1-0.7-0.3-1.1z"/>
		<path id="&lt;Compound Path&gt;" fill-rule="evenodd" class="s0" d="m31.2 17c-0.2 2.4-1.5 2.7-2.1 2.8-1.3 0-2.6-0.5-2.6-0.5-1.4 0.8-2.6 0.9-3.2 0.9-2.5-0.1-2.9-2.2-2.9-2.2-0.8 1-2 1.7-2.7 2-3.4 1.4-5.1 0.2-5.5-0.1-2.3-1.7-1.1-5.6-0.9-6.4q-1.2 0.6-2 1.3c0.1 0.4 0 0.7 0 0.8 0 0.3-0.1 0.2-0.3 0q0-0.1-0.3-0.4c-2.6 2.2-2.7 4.1-2.8 4.7-0.5 5.1 3.9 5.6 4.8 5.8 2.3 0.6 7.3-0.1 8.1-0.1 0.8 0 0.9 0.1 0.2 0.4-0.6 0.3-3.9 1.3-5.2 1.3-8.4 0.4-8.4-4.4-8.5-5.1-0.3-4.1 1.4-6.5 2.7-7.7-0.7-0.6-1.5-1.3-2.4-1.8-0.4-0.2-0.6-0.5-0.6-1.2 0-0.9 0.7-1.6 1.6-1.8 3.5-0.8 8.9-0.2 9.9 0l-0.5 1.3c0 0-2.1 1.2-3 1.6q-0.6 0.3-1.2 0.6c-1.6 4.9 1.6 5.9 2.1 6 3.9 0.6 6.2-2.2 6.6-2.6 0.5-0.4 0.5-0.2 0.5 0 0 0.2 0 0.9 0.1 1 1.5 2.3 4.6 0.8 4.6 0.8-0.5-0.8 0.1-2.9 1.3-3.7 1.2-0.8 1.5 1.1 1.6 1.4 0.1 1-0.5 2.2-0.5 2.2 0.7 0.1 1.3 0 1.9-0.1 0.7-0.2 0.5-1.1 0.4-1.5 0-0.5-1.2-11-1.3-11.5-0.1-0.5-0.2-0.8-0.2-0.9 0 0 0.5-1 0.5-1.1 0.1-0.2 0.1-0.1 0.2 0 0 0.2 1.3 3.3 1.4 3.5 0 0.2-0.1 0.2-0.2 0.1-0.1-0.1-0.8-0.8-0.8-0.8 0 0 0.9 6.6 0.9 7.2 0.1 0.6 0.3 3.4 0.3 3.8zm-17.5-6.1c-5.7-0.5-7.3 0.1-7.8 0.2-0.4 0.2-0.2 0.3-0.1 0.4 0.1 0.1 2.2 1.5 2.6 1.8q0.2 0.2 0.4 0.5c0.3-0.3 0.6-0.4 0.6-0.5 0.4-0.2 3.8-2.2 4.3-2.4zm14.2 5.9c-0.3-0.8-0.5-1.1-1-0.8-0.4 0.2-1 0.9-0.7 1.3 0.2 0.5 0.7 0.6 0.7 0.6 0.3-0.1 1.2-0.3 1-1.1z"/>
		<path id="&lt;Path&gt;" class="s0" d="m33.5 3.2c0.1 0.2 1.5 3.6 1.6 3.8 0.1 0.2-0.1 0.3-0.2 0.2-0.1-0.2-0.8-0.8-0.8-0.8 0 0 1.1 7.9 1.2 8.4 0.3 3.2-0.1 5.3-0.3 5.6-0.2 0.2-0.2 0.1-0.2-0.1-0.1-2-0.8-8-0.9-8.4 0-0.5-0.8-7-0.9-7.7 0 0 0.3-0.9 0.4-1 0-0.2 0.1-0.1 0.1 0z"/>
		<path id="&lt;Compound Path&gt;" fill-rule="evenodd" class="s0" d="m40 6.3c0 0.2-0.1 0.1-0.2-0.1-0.1-0.1-0.5-0.4-0.5-0.4 0 0-0.5 1.1-1.3 1.7-1.6 1.1-2.9 1.3-2.9 1.4-0.2 0-0.2-0.1 0-0.3 1-0.5 2.1-0.9 3.8-3 0 0-0.5-0.2-0.9-0.4-0.4-0.3-0.2-1.2 0.1-1.6 0.6-1 1.2-0.5 1.3-0.3 0.5 0.9 0.2 1.9 0.2 1.9 0.3 0.1 0.6 0.5 0.4 1.1zm-1-2.4c-0.2-0.1-0.3-0.1-0.7 0.3-0.1 0.2 0 0.3 0.3 0.4 0.2 0.1 0.7 0.3 0.7 0.3 0-0.1 0-0.7-0.3-1z"/>
	</g>
</svg>