<svg version="1.2" xmlns="http://www.w3.org/2000/svg" viewBox="0 0 70 30" width="70" height="30">
	<title>New Project</title>
	<style>
		.s0 { fill: #191c4f } 
	</style>
	<g id="ق">
		<path id="&lt;Path&gt;" class="s0" d="m63.6 21.7c0 0 0 0.4 0 0.7 0 0.3-0.1 0.7-0.3 1.1-0.1 0.4-1 0.6-1.6 0.2-0.9 1.5-1.8 0.7-2.3 0.5-0.9-0.3-1.1 0.3-1.3 0.5-1.1 1.3-3.1 1.2-3.6 1.3-0.5 0-0.1-0.3 0.1-0.4 1.6-0.5 2.6-0.6 4-2 0.6-0.6 1-0.3 1.2-0.2 1.3 0.6 1.5 0 1.7-0.2 0.2-0.1 0.4-0.8 0.5-1 0.1-0.2 0.2-0.1 0.2 0.1-0.1 0.2-0.1 0.4-0.2 0.5 0.6 0.4 1.1 0.1 1.3 0 0 0-0.1-0.5-0.1-0.6q0-0.2 0.2-0.7c0.1-0.3 0.2 0 0.2 0.2z"/>
		<path id="&lt;Path&gt;" class="s0" d="m31.1 21.5c0 0-0.1 0.4-0.2 0.6-0.4 1.3-0.2 1.9-0.1 2 0.3 0.6 0.8 0.3 1-0.2 0.1-0.2 0.1-0.1 0.1 0q0 0.1-0.1 0.4c-0.2 0.8-0.5 1-0.8 1-0.4 0-0.7-0.7-0.7-1-0.1-1.4 0.5-2.6 0.7-2.9 0.1-0.3 0.2-0.2 0.1 0.1z"/>
		<path id="&lt;Path&gt;" class="s0" d="m13 15.9c0 0-0.1 0.4-0.2 0.7-0.5 1.3-0.2 1.9-0.1 2.1 0.5 0.6 1 0.2 1.2-0.3 0-0.2 0.1-0.1 0.1 0q0 0.1-0.1 0.4c-0.2 0.8-0.5 1-0.8 1-0.6 0.1-0.8-0.6-0.9-0.9-0.2-1.4 0.4-2.7 0.6-3 0.1-0.4 0.3-0.3 0.2 0z"/>
		<path id="&lt;Path&gt;" class="s0" d="m23 14.4c0 0-0.1 0.4-0.2 0.7-0.5 1.2-0.2 1.8-0.2 1.9 0.4 0.7 0.9 0.3 1.1-0.1 0-0.3 0.1-0.2 0.1 0q0 0.1-0.1 0.3c-0.2 0.8-0.5 1-0.8 1-0.5 0-0.7-0.6-0.7-1-0.1-1.3 0.5-2.5 0.6-2.9 0.2-0.3 0.3-0.1 0.2 0.1z"/>
		<path id="&lt;Path&gt;" class="s0" d="m18 14.5c0 0-0.1 0.6-0.2 1.1-0.6 2.2-0.2 3.1-0.1 3.3 0.6 1.1 1.3 0.5 1.6-0.3 0.1-0.5 0.2-0.2 0.2-0.1q0 0.2-0.1 0.7c-0.3 1.3-0.8 1.7-1.1 1.7-0.8 0-1.2-1-1.2-1.6-0.3-2.3 0.5-4.3 0.7-4.9 0.1-0.6 0.3-0.4 0.2 0.1z"/>
		<path id="&lt;Compound Path&gt;" fill-rule="evenodd" class="s0" d="m30.8 20.2c0 0-0.6 1.2-2.6 2.6-6.2 4.2-12.3 3.8-13.6 3.8-2-0.2-3.6-0.6-3.9-0.7-2.4-0.9-5.1-3.1-5.5-3.5-0.4-0.4-0.2-0.4 0.2-0.2 3.5 2.1 7.8 2.7 8.3 2.8 0.4 0.1 1.4 0.1 2.3 0.1 8.3-0.2 13.3-4.5 14-5.3 0.7-0.7 0.6-1 0.4-1.2-0.3-0.5-1.4-0.4-1.8-0.4-1.1 0.1-1.8-0.3-2.1-0.9-0.3-0.8 0.3-2.2 0.9-2.7 1.3-1.2 2.3-0.1 2.4 0.1 2 2.1 1.2 5 1 5.5zm-1.1-3.5c-0.7-1.3-1.6-1-1.9-0.9-0.3 0.2-0.6 0.5-0.1 0.8 0.5 0.2 2 0.1 2 0.1z"/>
		<path id="&lt;Compound Path&gt;" fill-rule="evenodd" class="s0" d="m39.1 19.9c-0.4 1.3-2.3 2-2.7 2.1-1.7 0.5-1.8-1.1-1.7-2.3 0.1-1.2 1-2.8 1-2.8-0.1 0-1.8-1.4-2-1.5-0.1-0.2-0.3-0.4-0.4-0.5-0.2 0-0.2-0.1-0.2-0.1 0 0 0.1-1.3 0.1-1.4 0-0.2 0-0.1 0.2-0.1 0.1 0.1 2 0.9 2.2 1 0.2 0.1 0.1 0.2 0 0.2-0.1 0.1-0.7 0.2-0.7 0.2l1.5 1.1c0 0 2.2-2.8 2.4-3 0.2-0.3 0.2-0.2 0.2 0.1-0.1 0.3-0.5 1.5-0.6 1.7-0.1 0.2-1.2 1.7-1.2 1.7 0 0 1.4 0.9 1.8 1.4 0.6 0.8 0.2 1.7 0.1 2.2zm-2.7-2.5c0 0-1 1.6-1.1 1.9-0.4 1 0.5 1.2 0.9 1.2 0.3-0.1 1.6-0.7 2.2-1.2 0.6-0.5-1.7-1.7-2-1.9z"/>
		<path id="&lt;Path&gt;" class="s0" d="m10.7 13c0.1 0.3 0 0.8-0.1 1.1-0.1 0.2-0.2 0-0.4-0.2 0 0-0.1-0.1-0.3-0.3-0.6-0.5-0.8 0.6-0.9 1.1-0.1 0.3-0.1 1.5-0.2 2.2q0 0.1-0.1 0.1c0 0.6-0.2 1.3-1.2 2-1.2 0.8-1.3 0.8-1.4 0.8-0.1 0.1-0.2 0 0-0.2 0.2-0.1 2.5-2 2.3-2.9-0.3-1.1-1.2-1.9-1.3-2-0.2-0.2-0.3 0-0.3 0.1-0.1 0.1-0.1 0.1-0.2 0.1-0.1-0.1-0.6-0.4-0.7-0.6-0.2-0.1-0.1-0.7-0.1-0.9 0-0.4 0.3-0.6 0.4-0.5 1.7 1 2.2 2.7 2.3 2.9 0.1-1.2 0.1-2.3 0.8-3.2 0.6-0.7 1.3 0.3 1.4 0.4z"/>
		<path id="&lt;Compound Path&gt;" fill-rule="evenodd" class="s0" d="m65.6 18.3c-0.1 0.3-0.5 1.5-2.2 1.2-0.5-0.1-1.4-0.3-1.7-1.2-0.4 0.5-1.5 2.2-3.5 1.9-0.4-0.1-1.8-0.6-1.9-2.4 0 0-1.6 1.3-2.4 1.8 0.1 0.6 0.1 1.3-0.2 2.1-0.3 0.8-3.9 4.8-6.8 5.4-0.9 0.3-4.6 0.9-4.8-3.2 0-0.8 0.1-1.5 0.1-2-2.2 1.8-5 3.2-5.8 3.5-1.2 0.6-5.4 1.3-6.2 1.5-0.5 0-0.5-0.1-0.2-0.3 0.3-0.1 9.6-3.3 14.5-8.4 0.1-0.2 0.1-0.4-0.1-0.6-0.1-0.3-1.6-3.2-1.7-3.6-0.2-0.4-0.4-0.8-0.5-1q-0.1-0.2 0-0.4c0-0.2 0.1-1 0.2-1.2 0-0.1 0.1 0 0.2 0.1 0.1 0.1 1.6 1.6 1.8 1.8 0.2 0.2 0.1 0.3 0 0.3-0.1 0-0.8 0-0.8 0 0 0 1 1.7 1.3 2.3 0.6 1.4 0.3 2.6 0.1 3-0.5 0.9-1.3 1.8-2.3 2.6-0.1 0.7-0.4 4.1 2.7 4.2 0.5 0 2.1 0.2 5.3-2.4 0.8-0.6 1.6-1.3 2.3-2.3 0.3-0.4 0.5-1.1 0-1-0.6 0-3.9 1.3-4.4-0.8-0.1-0.5 0.2-5.2 3.4-2.9 0.3 0.2 1 0.8 1.5 1.7 0.5-0.2 1.5-0.8 2.8-1.8 0.4-0.3 0.7-0.5 0.7 0 0 0.4-0.3 3.1 2.7 2.3 0.3-0.1 1.6-0.3 2.5-2.7 0.2-0.5 0.6-0.4 0.4 0-0.2 0.6-0.5 1.1-0.3 1.4 0.3 0.3 1.2 0.9 2.2 0.7 0.4 0 0.6-0.2 0.5-0.5-0.2-0.3-0.5-0.9-0.5-0.9 0.1-0.3 0.2-1 0.3-1.1 0-0.2 0.1-0.3 0.2-0.2 0.1 0.2 1.1 1.4 0.6 3.1zm-13.5 0.2c-1.1-1.5-2.3-0.7-2.5-0.5-0.1 0.2-0.2 0.6 0.8 0.6 1.2 0.1 1.7-0.1 1.7-0.1z"/>
		<path id="&lt;Path&gt;" class="s0" d="m28.6 10.8l1.3 0.9q0 0.1 0 0.1l-0.8 1.1q0 0.1-0.1 0l-1.3-0.9-0.6 0.9q-0.1 0.1-0.1 0l-1.4-1q0 0 0-0.1l0.8-1q0-0.1 0.1 0l1.3 0.9 0.7-0.9q0-0.1 0.1 0z"/>
		<path id="&lt;Path&gt;" class="s0" d="m37.3 9.8l1.3 0.9q0.1 0.1 0 0.1l-0.8 1.1q0 0.1-0.1 0l-1.3-0.9-0.6 0.9q-0.1 0.1-0.1 0l-1.4-0.9q0-0.1 0-0.1l0.8-1.1q0.1-0.1 0.1 0l1.3 0.9 0.7-0.9q0-0.1 0.1 0z"/>
		<path id="&lt;Path&gt;" class="s0" d="m62.2 9.8c0 0-0.2 0.4-0.2 0.6-0.4 1.2-0.2 1.7-0.2 1.8 0.4 0.6 0.8 0.3 1-0.1 0-0.3 0.1-0.1 0.1 0q0 0.1-0.1 0.3c-0.2 0.7-0.5 0.9-0.7 0.9-0.5 0-0.7-0.6-0.7-0.9-0.1-1.3 0.5-2.3 0.6-2.6 0.1-0.4 0.2-0.2 0.2 0z"/>
		<path id="&lt;Path&gt;" class="s0" d="m48.9 9.2c0 0-0.1 0.3-0.2 0.6-0.4 1.2-0.2 1.8-0.1 1.9 0.3 0.7 0.8 0.3 1-0.1 0.1-0.3 0.2-0.2 0.1-0.1q0 0.2-0.1 0.4c-0.2 0.8-0.5 1-0.7 1-0.5 0-0.7-0.7-0.8-1 0-1.3 0.5-2.5 0.7-2.8 0.1-0.4 0.2-0.2 0.1 0.1z"/>
		<path id="&lt;Path&gt;" class="s0" d="m7.3 6.4c0 0-0.1 0.4-0.2 0.6-0.4 1.4-0.1 2-0.1 2.1 0.5 0.6 1 0.3 1.2-0.3 0.1-0.2 0.2-0.1 0.1 0q0 0.1 0 0.4c-0.2 0.9-0.6 1.1-0.9 1.1-0.5 0-0.8-0.6-0.9-1-0.1-1.4 0.5-2.6 0.6-3 0.1-0.4 0.3-0.2 0.2 0.1z"/>
		<path id="&lt;Path&gt;" class="s0" d="m19.1 6.7c0.1 0.2 0 0.8-0.2 1.1-0.1 0.2-0.2 0-0.4-0.2 0 0-0.1-0.2-0.3-0.3-0.6-0.6-0.9 0.5-1 1-0.1 0.4-0.1 1.6-0.3 2.3 0 0.3-0.2 0.3-0.3 0.1-0.4-1.6-1.3-2.3-1.4-2.5q0 0-0.1 0c0.1 0.1 0.1 0.3 0.1 0.5-0.4 2-2.3 2.7-2.7 2.9-0.3 0.1-0.3 0.1 0-0.3 0.4-0.3 1.9-1.8 2.2-2.1 0.6-0.7-0.6-1.2-0.7-1.3-0.2-0.2-0.1-0.8-0.1-1 0.1-0.4 0.3-0.5 0.4-0.5 1.8 1.1 2.3 2.8 2.4 3.1 0.1-1.3 0.2-2.5 0.9-3.3 0.6-0.7 1.4 0.3 1.5 0.5z"/>
		<path id="&lt;Path&gt;" class="s0" d="m30.6 5.3c-0.1 0.9-0.4 1.8-0.4 2-0.1 0.3-0.2 0.4-0.2 0.2 0-0.3 0.1-0.9 0.2-1.3 0-0.3 0.1-0.7-0.2-0.5-0.2 0.2-3.2 2.5-7.2 2.3 0 0.5-0.1 0.9-0.1 1-0.1 0.1-0.2 0.1-0.2-0.1 0-0.2-0.1-0.8-0.5-1.1-0.1-0.2-0.1-0.8-0.2-1 0-0.3 0.2-0.2 0.4-0.1 0.1 0.1 3.3 1.1 7.5-1.7 0.3-0.2 1-0.6 0.9 0.3z"/>
		<path id="&lt;Path&gt;" class="s0" d="m47.8 3.7c-0.1 0.2-0.1 0.2-0.2 0.5-0.1 0.2-0.2 0.2-0.5 0.4-0.2 0.1-7.1 4.1-7.3 4.2-0.4 0.3-0.3 0.1-0.3 0q0-0.1 0.1-0.4c0-0.2 0.1-0.3 0.4-0.4 0.3-0.2 7.2-4.2 7.5-4.4 0.4-0.2 0.3 0 0.3 0.1z"/>
		<path id="&lt;Path&gt;" class="s0" d="m56.2 4.2c0.1 0.3 0 0.8-0.1 1.1-0.1 0.2-0.3 0-0.4-0.2 0 0-0.2-0.1-0.4-0.3-0.7-0.6-0.9 0.6-1 1.1-0.1 0.4-0.1 1.7-0.2 2.5-0.1 0.3-0.3 0.2-0.4 0-0.5-1.6-1.4-2.3-1.5-2.5-0.2-0.2-0.3 0.1-0.3 0.2-0.1 0.1-0.2 0.1-0.2 0-0.1 0-0.7-0.4-0.8-0.5-0.2-0.2-0.1-0.8-0.1-1.1 0-0.4 0.3-0.5 0.4-0.5 1.9 1.1 2.5 2.9 2.6 3.2 0.1-1.4 0.1-2.6 0.9-3.5 0.5-0.8 1.4 0.3 1.5 0.5z"/>
		<path id="&lt;Compound Path&gt;" fill-rule="evenodd" class="s0" d="m63 7.1c-0.1 0.2-0.1 0-0.3-0.1-0.1-0.2-0.3-0.4-0.5-0.5-0.3 0.6-0.3 0.7-1.4 1.7-2.6 2.2-5.4 2.9-5.5 3-0.2 0-0.2-0.1 0-0.3 0.9-0.7 4.6-2.3 6.4-4.6 0 0-0.6-0.2-1-0.5-0.4-0.3-0.1-1.3 0.1-1.7 0.8-1.2 1.4-0.6 1.5-0.4 0.6 1 0.3 2.1 0.3 2.1 0.3 0.2 0.6 0.6 0.4 1.3zm-1.2-2.8c-0.1 0-0.3-0.1-0.7 0.5-0.1 0.1 0 0.3 0.3 0.4 0.2 0.1 0.7 0.3 0.7 0.3 0.1-0.1 0.1-0.8-0.3-1.2z"/>
		<path id="&lt;Compound Path&gt;" fill-rule="evenodd" class="s0" d="m36.9 6.7c-0.1 0.2-0.1 0.1-0.3-0.1 0-0.1-0.5-0.5-0.5-0.5 0 0-0.6 1.2-1.5 1.9-1.7 1.3-3.2 1.5-3.3 1.6-0.1 0-0.2-0.1 0.1-0.3 1.1-0.6 2.4-1.1 4.2-3.4 0 0-0.6-0.2-1-0.5-0.4-0.3-0.1-1.3 0.1-1.7 0.8-1.1 1.4-0.6 1.5-0.4 0.6 1.1 0.3 2.1 0.3 2.1 0.3 0.2 0.6 0.6 0.4 1.3zm-1.2-2.7c-0.1-0.1-0.3-0.1-0.7 0.4-0.1 0.1 0 0.3 0.3 0.4 0.2 0.1 0.8 0.3 0.8 0.3 0-0.1 0-0.7-0.4-1.1z"/>
	</g>
</svg>