<svg version="1.2" xmlns="http://www.w3.org/2000/svg" viewBox="0 0 70 30" width="70" height="30">
	<title>New Project</title>
	<style>
		.s0 { fill: #191c4f } 
	</style>
	<g id="الذاريات">
		<path id="&lt;Path&gt;" class="s0" d="m27.8 22.9c0 0.1 0 0.1-0.1 0.2-0.1 0.2-0.2 0.2-0.3 0.3-0.2 0.1-2.5 1-2.6 1-0.3 0.2-0.3 0.1-0.2 0q0 0 0.1-0.3c0-0.1 0.1-0.1 0.3-0.2 0.2-0.2 2.4-1 2.6-1.1 0.3-0.2 0.3 0 0.2 0.1z"/>
		<path id="&lt;Path&gt;" class="s0" d="m19.2 21.9l0.9 0.7q0 0 0 0l-0.5 0.8q-0.1 0-0.1 0l-0.9-0.7-0.5 0.7q0 0 0 0l-1-0.7q0 0 0 0l0.6-0.8q0 0 0 0l0.9 0.7 0.5-0.7q0 0 0.1 0z"/>
		<path id="&lt;Path&gt;" class="s0" d="m14 21.9c0 0.1 0 0.2-0.1 0.3 0 0.2-0.1 0.2-0.3 0.3-0.2 0.1-4.3 2.1-4.4 2.1-0.3 0.2-0.3 0.1-0.2 0q0-0.1 0-0.3c0.1-0.1 0.1-0.2 0.3-0.3 0.2-0.1 4.3-2 4.5-2.1 0.3-0.2 0.3-0.1 0.2 0z"/>
		<path id="&lt;Path&gt;" class="s0" d="m64.2 20c0 0 0.1 0.2 0.1 0.4 0 0.2-0.1 0.5-0.2 0.8-0.1 0.3-0.7 0.4-1.1 0.1-0.7 1.1-1.3 0.5-1.6 0.4-0.6-0.2-0.8 0.2-1 0.3-0.7 0.9-2.1 0.9-2.4 0.9-0.4 0-0.1-0.2 0-0.2 1.1-0.4 1.8-0.5 2.8-1.4 0.4-0.4 0.7-0.2 0.8-0.2 0.9 0.4 1.1 0 1.2-0.1 0.1-0.1 0.3-0.6 0.3-0.7 0.1-0.1 0.2 0 0.2 0.1 0 0.1-0.1 0.3-0.1 0.3 0.4 0.3 0.7 0.1 0.8 0 0 0 0-0.3 0-0.4q0-0.1 0.1-0.5c0.1-0.2 0.1 0 0.1 0.2z"/>
		<path id="&lt;Path&gt;" class="s0" d="m14.5 16.5c0.1 0.2 0.7 1 0.8 1.3 0.3 0.9-0.1 1.7-0.2 1.9-0.7 0.9-2.3 1.5-3.4 1.8-4.7 1.4-5.9 0.2-6 0-1.5-1.5 0-3.8 0.1-4 0.1-0.2 0.3-0.1 0.2 0.1-0.3 0.5-0.5 1.3-0.5 1.6-0.1 1.8 2.2 1.8 2.7 1.8 4.5-0.3 6.4-1.8 6.6-2 0.2-0.2-0.6-1.2-0.8-1.5 0 0 0.2-0.8 0.2-1q0.1-0.2 0.3 0z"/>
		<path id="&lt;Path&gt;" class="s0" d="m11.1 16.1l0.9 0.7q0 0 0 0l-0.5 0.8q0 0-0.1 0l-0.9-0.7-0.4 0.7q-0.1 0-0.1 0l-0.9-0.7q-0.1 0 0-0.1l0.5-0.7q0 0 0.1 0l0.9 0.6 0.4-0.6q0.1 0 0.1 0z"/>
		<path id="&lt;Path&gt;" class="s0" d="m20.4 15.3c0 0-0.1 0.2-0.1 0.4-0.3 0.9-0.2 1.3-0.1 1.4 0.2 0.4 0.6 0.2 0.7-0.1 0-0.2 0.1-0.1 0.1 0q0 0-0.1 0.2c-0.1 0.6-0.4 0.7-0.5 0.7-0.4 0-0.5-0.4-0.5-0.7-0.1-0.9 0.3-1.8 0.4-2 0.1-0.2 0.2-0.1 0.1 0.1z"/>
		<path id="&lt;Compound Path&gt;" fill-rule="evenodd" class="s0" d="m47.3 18.7c-0.2 0.9-1.5 1.4-1.8 1.5-1.1 0.4-1.2-0.8-1.2-1.6 0.1-0.8 0.7-1.9 0.7-1.9 0 0-1.2-1-1.3-1.1-0.1-0.1-0.2-0.2-0.4-0.3-0.1-0.1 0-0.1 0-0.1 0 0 0-0.9 0-1 0-0.1 0 0 0.1 0 0.1 0.1 1.4 0.6 1.6 0.6 0.1 0.1 0 0.2 0 0.2-0.1 0.1-0.5 0.2-0.5 0.2l1 0.7c0 0 1.5-1.9 1.7-2.1 0.1-0.2 0.1-0.1 0.1 0.1-0.1 0.2-0.3 1-0.4 1.2-0.1 0.1-0.9 1.2-0.9 1.2 0 0 1 0.5 1.3 0.9 0.4 0.6 0.1 1.2 0 1.5zm-1.8-1.7c0 0-0.7 1.1-0.8 1.3-0.3 0.7 0.4 0.8 0.6 0.8 0.3 0 1.2-0.5 1.6-0.8 0.4-0.4-1.2-1.2-1.4-1.3z"/>
		<path id="&lt;Compound Path&gt;" fill-rule="evenodd" class="s0" d="m65.6 17.7c-0.1 0.1-0.3 1-1.5 0.8-0.3-0.1-0.9-0.2-1.2-0.9-0.3 0.4-1 1.5-2.3 1.3-0.3 0-1.3-0.4-1.4-1.6 0 0-1.1 0.9-1.6 1.2 0 0.4 0 0.9-0.2 1.5-0.2 0.5-2.6 3.3-4.6 3.7-0.7 0.2-3.3 0.7-3.3-2.2q-0.1-0.9 0-1.4c-1.5 1.3-3.5 2.2-4 2.5-0.8 0.4-3.7 0.8-4.2 0.9-0.4 0.1-0.4 0-0.2-0.1 0.2-0.1 6.6-2.3 10-5.8q0.1-0.2-0.1-0.5c0-0.1-1.1-2.2-1.2-2.4-0.1-0.3-0.2-0.6-0.3-0.7q-0.1-0.2 0-0.3c0-0.1 0.1-0.7 0.1-0.8 0.1-0.1 0.1-0.1 0.2 0 0.1 0.1 1.1 1.2 1.2 1.3 0.1 0.1 0.1 0.2 0 0.2 0 0-0.5 0-0.5 0 0 0 0.6 1.2 0.9 1.6 0.4 1 0.1 1.7 0 2.1-0.3 0.6-0.9 1.2-1.5 1.7-0.1 0.5-0.4 2.9 1.8 2.9 0.4 0.1 1.5 0.2 3.7-1.6 0.5-0.4 1.1-0.9 1.6-1.6 0.2-0.3 0.3-0.8-0.1-0.7-0.3 0-2.6 0.9-3-0.5 0-0.4 0.2-3.7 2.4-2 0.2 0.1 0.7 0.5 1 1.1 0.3-0.1 1-0.5 1.9-1.2 0.3-0.2 0.5-0.3 0.5 0 0 0.3-0.2 2.1 1.9 1.6 0.2-0.1 1.1-0.3 1.7-1.9 0.2-0.3 0.4-0.3 0.3 0-0.2 0.4-0.4 0.8-0.2 1 0.2 0.2 0.8 0.6 1.5 0.5 0.3 0 0.4-0.2 0.3-0.4-0.1-0.2-0.3-0.6-0.3-0.6 0-0.2 0.1-0.7 0.2-0.8 0-0.1 0-0.2 0.1-0.1 0.1 0.1 0.8 1 0.4 2.2zm-9.3 0c-0.7-0.9-1.6-0.4-1.7-0.3-0.1 0.1-0.2 0.4 0.6 0.5 0.8 0 1.1-0.2 1.1-0.2z"/>
		<path id="&lt;Path&gt;" class="s0" d="m24.9 12.5c0 0 0 0.4-0.1 0.6-0.2 1.2 0.1 1.7 0.1 1.8 0.4 0.6 0.8 0.2 0.9-0.3 0-0.2 0.1-0.1 0.1 0q0 0.1 0 0.4c-0.1 0.7-0.4 0.9-0.6 0.9-0.4 0.1-0.7-0.5-0.7-0.7-0.3-1.3 0.1-2.4 0.2-2.8 0-0.3 0.2-0.2 0.1 0.1z"/>
		<path id="&lt;Path&gt;" class="s0" d="m10.3 12.2c0 0 0 0.3-0.1 0.5-0.2 0.9 0 1.3 0 1.4 0.3 0.4 0.6 0.1 0.7-0.2 0-0.2 0.1-0.1 0.1 0q0 0.1-0.1 0.3c-0.1 0.5-0.3 0.7-0.5 0.7-0.3 0-0.5-0.5-0.5-0.7-0.1-1 0.2-1.8 0.3-2 0.1-0.3 0.2-0.2 0.1 0z"/>
		<path id="&lt;Path&gt;" class="s0" d="m46.1 11.7l0.9 0.7q0.1 0 0 0.1l-0.5 0.7q0 0.1-0.1 0l-0.9-0.6-0.4 0.6q-0.1 0.1-0.1 0l-0.9-0.6q-0.1-0.1 0-0.1l0.5-0.7q0-0.1 0.1-0.1l0.9 0.7 0.4-0.6q0.1-0.1 0.1-0.1z"/>
		<path id="&lt;Path&gt;" class="s0" d="m63.3 11.8c0 0-0.1 0.2-0.2 0.4-0.2 0.8-0.1 1.2-0.1 1.2 0.3 0.4 0.6 0.2 0.7-0.1 0-0.1 0.1 0 0.1 0q-0.1 0.1-0.1 0.3c-0.1 0.5-0.3 0.6-0.5 0.6-0.3 0-0.4-0.4-0.4-0.6-0.1-0.9 0.3-1.7 0.4-1.9 0-0.2 0.1-0.1 0.1 0.1z"/>
		<path id="&lt;Path&gt;" class="s0" d="m6 11.5c0 0-0.1 0.5-0.2 0.8-0.5 1.6-0.2 2.3-0.2 2.4 0.4 0.8 0.9 0.4 1.1-0.2 0.1-0.3 0.2-0.1 0.2 0q-0.1 0.2-0.1 0.5c-0.3 1-0.6 1.2-0.9 1.2-0.5 0-0.7-0.8-0.7-1.2-0.1-1.7 0.5-3.2 0.6-3.6 0.2-0.4 0.3-0.2 0.2 0.1z"/>
		<path id="&lt;Path&gt;" class="s0" d="m54.1 11.3c0 0 0 0.3-0.1 0.4-0.3 0.9-0.1 1.3-0.1 1.4 0.2 0.4 0.6 0.2 0.7-0.1 0.1-0.2 0.1-0.1 0.1 0q0 0-0.1 0.2c-0.1 0.6-0.3 0.7-0.5 0.7-0.3 0-0.5-0.4-0.5-0.7-0.1-0.9 0.3-1.7 0.4-1.9 0.1-0.3 0.2-0.2 0.1 0z"/>
		<path id="&lt;Path&gt;" class="s0" d="m14.4 10.8c0 0-0.1 0.4-0.2 0.7-0.4 1.3-0.1 1.9-0.1 2 0.3 0.7 0.8 0.3 0.9-0.2 0.1-0.2 0.2-0.1 0.1 0q0 0.1 0 0.4c-0.2 0.8-0.5 1-0.7 1-0.5 0-0.7-0.6-0.7-1-0.1-1.4 0.4-2.6 0.6-3 0.1-0.3 0.2-0.2 0.1 0.1z"/>
		<path id="&lt;Path&gt;" class="s0" d="m33.2 10.5l0.9 0.7q0 0 0 0l-0.5 0.8q0 0-0.1 0l-0.9-0.7q0 0 0 0l0.5-0.8q0.1 0 0.1 0z"/>
		<path id="&lt;Path&gt;" class="s0" d="m26.9 8.6c-0.1 0.1-0.1 0.1-0.1 0.3-0.1 0.2-0.2 0.2-0.4 0.3-0.2 0.1-8 4.4-8.1 4.5-0.4 0.1-0.3 0-0.3-0.1q0 0 0.1-0.3c0-0.1 0.1-0.2 0.3-0.3 0.2-0.1 8-4.4 8.2-4.5 0.4-0.2 0.3-0.1 0.3 0.1z"/>
		<path id="&lt;Path&gt;" class="s0" d="m28.1 8.5c0 0-0.1 0.2-0.2 0.4-0.3 0.9-0.1 1.3-0.1 1.4 0.3 0.4 0.6 0.2 0.7-0.1 0.1-0.2 0.1-0.1 0.1 0q0 0 0 0.2c-0.2 0.6-0.4 0.7-0.6 0.7-0.3 0-0.5-0.4-0.5-0.7-0.1-0.9 0.3-1.8 0.4-2 0.1-0.2 0.2-0.1 0.2 0.1z"/>
		<path id="&lt;Path&gt;" class="s0" d="m11.2 8.7c0.1 0.2 0.1 0.5 0 0.7-0.1 0.1-0.2 0-0.3-0.2 0 0-0.1-0.1-0.2-0.1-0.4-0.4-0.5 0.3-0.6 0.6 0 0.2 0 1-0.1 1.4 0 0.2-0.1 0.2-0.2 0-0.3-0.9-0.8-1.3-0.9-1.4-0.1-0.1-0.1 0-0.2 0.1q0 0.1-0.1 0c0 0-0.3-0.2-0.4-0.3-0.1-0.1-0.1-0.4-0.1-0.6 0-0.2 0.2-0.3 0.3-0.3 1.1 0.6 1.4 1.7 1.4 1.8 0.1-0.7 0.1-1.5 0.6-2 0.3-0.4 0.8 0.2 0.8 0.3z"/>
		<path id="&lt;Path&gt;" class="s0" d="m16.1 8.4c0.5 1.7 0.9 7.7 1 8.4 0.1 2.8 1 3.1 1.3 3.3 1.6 0.9 4.4-0.2 4.9-0.5 0.6-0.3 0.5-0.5 0.4-0.8-0.1-0.2-0.8-1-0.9-1.1 0 0 0-0.6 0.1-0.8q0-0.3 0.2-0.1c1.5 1.1 1.1 2.9 1 3.1-0.5 1.2-4.8 2.4-6.5 0.9-1.1-0.9-1.1-4-1.2-5.3-0.1-2.1-0.7-5.8-0.8-6.2-0.1-0.4 0.2-0.9 0.2-1 0.1-0.2 0.2-0.2 0.3 0.1z"/>
		<path id="&lt;Path&gt;" class="s0" d="m34.2 8.3c0 0 0.1 0.5-0.1 0.8-0.3 0.7-0.8 0.6-0.9 0.5-0.6 0.7-1 0.3-1.1 0 0-0.2 0.1-0.5 0.1-0.6 0.1-0.2 0.2-0.1 0.1 0 0 0.1 0 0.3 0 0.3 0.2 0.4 0.7 0.1 0.8 0 0.1-0.1 0.1-0.3 0.1-0.4 0-0.1-0.1-0.2 0-0.4 0.1-0.1 0.2 0 0.2 0.1 0 0.2-0.1 0.4 0 0.5 0.1 0.2 0.5-0.1 0.6-0.1 0-0.1 0-0.4-0.1-0.5 0-0.1 0.1-0.1 0.1-0.3 0.1-0.2 0.2-0.1 0.2 0.1z"/>
		<path id="&lt;Path&gt;" class="s0" d="m30.1 7.8c0 0.1 1.2 2.8 1.2 2.9 0.1 0.2-0.1 0.2-0.1 0.1-0.1-0.1-0.7-0.6-0.7-0.6 0 0 0.8 4.7 0.8 5 0.6 3.9 0.1 5 0 5.2 0 0.1-0.1 0.1-0.1-0.1 0-1.6-0.9-7.4-1-7.7 0-0.3-0.5-3.6-0.5-4 0 0 0.2-0.8 0.3-0.9 0-0.1 0.1 0 0.1 0.1z"/>
		<path id="&lt;Path&gt;" class="s0" d="m37.4 7.7c0 0.1 1.1 2.6 1.1 2.8 0.1 0.1 0 0.2-0.1 0.1-0.1-0.1-0.5-0.4-0.5-0.4 0 0 1.2 9.1 1.3 9.5 0.1 1.3-0.4 1.8-0.7 2.1-0.8 0.7-1.6 0.8-2.4 0.4-0.8-0.4-1.2-2.5-1.2-2.5 0 0-0.1 0.3-0.2 0.5-0.1 0.5-1.2 1.4-1.6 1.7-2 1.6-3.2 1.5-3.4 1.5-1.5-0.2-1.3-2.1-1.3-2.9-1.6 1.4-4 2.5-4.7 2.8-0.8 0.3-3.7 0.8-4.2 0.9-0.3 0-0.4-0.1-0.2-0.2 0.2-0.1 6.7-2.1 10-5.3q0.1-0.1 0-0.4c-0.1-0.1-1.1-2-1.2-2.2-0.1-0.2-0.3-0.5-0.3-0.6q-0.1-0.2-0.1-0.3c0-0.1 0.1-0.6 0.2-0.7 0-0.1 0.1-0.1 0.1 0 0.1 0.1 1.2 1 1.3 1.2 0.1 0.1 0 0.1 0 0.1-0.1 0-0.6 0-0.6 0 0 0 0.7 1.1 0.9 1.5 0.4 0.9 0.2 1.6 0.1 1.9q-0.4 0.5-0.9 1 0 0.1 0 0.3c0 0.3 0 0.7 0.1 1 0.1 1.5 1.9 0.7 2.2 0.6 1.2-0.5 3.1-2.1 3.4-2.4 0.3-0.4 0.2-0.6 0.2-0.9 0-1.4-1.2-4.4-1.4-4.9-0.2-0.5-0.1-0.9 0-1 0-0.1 0.1-0.3 0.2-0.1 1.5 2 2 6.6 2 7.1 0.1 0.4 0.3 0.9 0.9 1.3 0.8 0.5 2.1-0.4 2.2-0.6 0.2-0.2-1.3-9.8-1.3-9.8-0.1-0.6-0.2-1.2-0.3-1.6 0-0.4-0.1-0.6-0.1-0.7 0 0 0.3-0.8 0.4-0.9 0-0.1 0.1 0 0.1 0.1z"/>
		<path id="&lt;Path&gt;" class="s0" d="m40.4 7.7c0 0.1 1.1 2.8 1.2 2.9 0 0.2-0.1 0.2-0.2 0.1-0.1-0.1-0.6-0.6-0.6-0.6 0 0 0.9 6.6 0.9 6.9 0.7 3.9 0.1 5 0.1 5.1-0.1 0.2-0.2 0.1-0.2 0 0-1.6-0.9-7.4-0.9-7.7-0.1-0.4-0.7-5.5-0.8-5.9 0 0 0.3-0.8 0.3-0.9 0.1-0.1 0.1 0 0.2 0.1z"/>
		<path id="&lt;Path&gt;" class="s0" d="m53.3 7.6c0 0.1 0 0.1-0.1 0.3 0 0.1-0.1 0.2-0.3 0.3-0.2 0.1-4.9 2.8-5 2.9-0.3 0.2-0.3 0.1-0.3 0q0.1-0.1 0.1-0.3c0-0.2 0.1-0.2 0.3-0.3 0.2-0.1 4.9-2.9 5.1-3 0.3-0.2 0.3 0 0.2 0.1z"/>
		<path id="&lt;Path&gt;" class="s0" d="m59.1 7.9c0.1 0.2 0.1 0.5 0 0.8-0.1 0.1-0.2 0-0.3-0.2 0 0-0.1-0.1-0.2-0.2-0.5-0.4-0.7 0.4-0.8 0.8 0 0.3-0.1 1.2-0.1 1.7-0.1 0.2-0.2 0.2-0.3 0-0.3-1.1-0.9-1.6-1-1.7-0.1-0.1-0.2 0-0.2 0.1-0.1 0.1-0.1 0.1-0.2 0 0 0-0.4-0.2-0.5-0.3-0.1-0.2-0.1-0.6-0.1-0.8 0-0.3 0.2-0.4 0.3-0.3 1.3 0.7 1.7 2 1.8 2.2 0-1 0.1-1.8 0.6-2.5 0.4-0.5 1 0.3 1 0.4z"/>
		<path id="&lt;Compound Path&gt;" fill-rule="evenodd" class="s0" d="m63.8 9.9c0 0.1-0.1 0-0.2-0.1 0-0.1-0.1-0.2-0.3-0.3-0.2 0.4-0.2 0.5-1 1.1-1.8 1.6-3.7 2.1-3.8 2.1-0.1 0-0.1 0 0.1-0.2 0.6-0.4 3.1-1.6 4.4-3.1 0 0-0.4-0.2-0.7-0.4-0.3-0.2-0.1-0.9 0.1-1.2 0.4-0.8 0.9-0.4 1-0.3 0.4 0.8 0.1 1.5 0.1 1.5 0.3 0.1 0.5 0.4 0.3 0.9zm-0.8-1.9c-0.1-0.1-0.2-0.1-0.5 0.3 0 0.1 0.1 0.2 0.2 0.3 0.2 0 0.6 0.2 0.6 0.2 0-0.1 0-0.5-0.3-0.8z"/>
		<path id="&lt;Path&gt;" class="s0" d="m21.1 7.7c0.2 0.2 0.1 0.6 0.1 0.8-0.1 0.1-0.2 0-0.3-0.1 0 0-0.1-0.1-0.2-0.2-0.5-0.4-0.6 0.4-0.6 0.8 0 0.2 0 1.1 0 1.6 0 0.2-0.1 0.2-0.2 0.1-0.3-1.1-0.9-1.6-1-1.7-0.1-0.1-0.2 0.1-0.2 0.2q0 0.1-0.1 0c-0.1 0-0.4-0.2-0.5-0.3-0.1-0.1-0.1-0.5-0.1-0.7 0-0.3 0.1-0.4 0.2-0.3 1.2 0.6 1.6 1.7 1.7 1.9 0-0.9-0.1-1.7 0.3-2.3 0.3-0.6 0.9 0.1 0.9 0.2z"/>
		<path id="&lt;Compound Path&gt;" fill-rule="evenodd" class="s0" d="m45.9 9.6c-0.1 0.2-0.1 0.1-0.2-0.1-0.1 0-0.4-0.3-0.4-0.3 0 0-0.4 0.9-1 1.3-1.2 0.9-2.2 1.1-2.3 1.1-0.1 0-0.1-0.1 0.1-0.2 0.7-0.4 1.6-0.7 2.9-2.3 0 0-0.4-0.2-0.7-0.4-0.3-0.2-0.1-0.9 0.1-1.2 0.4-0.7 0.9-0.3 1-0.2 0.4 0.7 0.1 1.4 0.1 1.4 0.3 0.2 0.5 0.5 0.4 0.9zm-0.9-1.9c-0.1 0-0.2 0-0.5 0.3 0 0.1 0.1 0.2 0.2 0.3 0.2 0.1 0.6 0.3 0.6 0.3 0-0.1 0-0.6-0.3-0.9z"/>
		<path id="&lt;Path&gt;" class="s0" d="m35.3 6.2c-0.1 0.1-0.1 0.1-0.2 0.2-0.1 0.2-0.2 0.2-0.3 0.3-0.2 0.1-3.2 1.2-3.3 1.3-0.3 0.2-0.3 0-0.3 0q0.1-0.1 0.1-0.3c0.1-0.1 0.1-0.2 0.3-0.3 0.2-0.1 3.3-1.2 3.4-1.3 0.3-0.2 0.3-0.1 0.3 0.1z"/>
	</g>
</svg>