<svg version="1.2" xmlns="http://www.w3.org/2000/svg" viewBox="0 0 70 30" width="70" height="30">
	<title>New Project</title>
	<style>
		.s0 { fill: #191c4f } 
	</style>
	<g id="الطور">
		<path id="&lt;Path&gt;" class="s0" d="m12.4 22.4c0 0.2-0.1 0.2-0.1 0.4-0.1 0.2-0.2 0.2-0.4 0.3-0.2 0.1-4.1 1.6-4.2 1.7-0.3 0.2-0.3 0-0.3-0.1q0.1 0 0.1-0.3c0.1-0.2 0.2-0.2 0.4-0.3 0.2-0.2 4-1.6 4.3-1.7 0.3-0.2 0.3-0.1 0.2 0z"/>
		<path id="&lt;Path&gt;" class="s0" d="m29.2 20.9c0.1 0.2 0 0.6-0.1 0.8-0.1 0.2-0.2 0-0.3-0.1 0 0-0.1-0.1-0.2-0.2-0.5-0.5-0.7 0.4-0.7 0.8-0.1 0.3-0.1 1.2-0.2 1.8 0 0.2-0.2 0.2-0.2 0-0.3-1.2-1-1.7-1.1-1.8-0.1-0.2-0.2 0-0.2 0.1 0 0.1-0.1 0.1-0.1 0-0.1 0-0.4-0.3-0.6-0.4-0.1-0.1 0-0.6 0-0.8 0-0.3 0.2-0.4 0.3-0.3 1.3 0.8 1.7 2.1 1.7 2.3 0.1-1 0.1-1.9 0.6-2.6 0.4-0.5 1 0.3 1.1 0.4z"/>
		<path id="&lt;Path&gt;" class="s0" d="m64 20.5c0 0 0 0.3 0 0.5 0 0.2-0.1 0.6-0.2 0.9-0.1 0.4-0.8 0.5-1.3 0.2-0.8 1.2-1.5 0.6-1.9 0.4-0.7-0.3-0.9 0.2-1.1 0.4-0.9 1-2.5 1-2.9 1-0.4 0.1-0.1-0.2 0.1-0.3 1.3-0.4 2.1-0.5 3.2-1.6 0.5-0.5 0.8-0.2 1-0.2 1.1 0.5 1.2 0 1.4-0.1 0.1-0.1 0.3-0.7 0.4-0.9 0.1-0.1 0.2 0 0.1 0.2 0 0.1 0 0.3-0.1 0.4 0.5 0.3 0.9 0 1-0.1 0 0 0-0.3 0-0.4q0-0.2 0.1-0.6c0.1-0.3 0.2 0 0.2 0.2z"/>
		<path id="&lt;Path&gt;" class="s0" d="m34.3 19.7c0 0 0 0.3-0.1 0.5-0.4 1.1-0.2 1.5-0.1 1.7 0.3 0.5 0.6 0.2 0.8-0.2 0.1-0.2 0.1-0.1 0.1 0q0 0.1-0.1 0.3c-0.2 0.7-0.4 0.8-0.6 0.8-0.4 0-0.6-0.5-0.6-0.8-0.1-1.1 0.4-2.1 0.5-2.3 0.1-0.3 0.2-0.2 0.1 0z"/>
		<path id="&lt;Compound Path&gt;" fill-rule="evenodd" class="s0" d="m44.1 19c-0.4 1-1.9 1.6-2.2 1.7-1.4 0.4-1.5-0.9-1.4-1.9 0.1-1 0.8-2.2 0.8-2.2-0.1-0.1-1.5-1.2-1.6-1.3-0.1-0.1-0.2-0.3-0.4-0.3-0.1-0.1-0.1-0.2-0.1-0.2 0 0 0-1 0.1-1.1 0-0.1 0-0.1 0.1 0 0.1 0 1.7 0.6 1.8 0.7 0.2 0.1 0.1 0.2 0.1 0.2-0.1 0.1-0.7 0.2-0.7 0.2l1.3 0.9c0 0 1.8-2.3 1.9-2.5 0.2-0.2 0.2-0.1 0.2 0.1-0.1 0.3-0.4 1.2-0.5 1.4-0.1 0.1-1 1.4-1 1.4 0 0 1.2 0.7 1.5 1.1 0.5 0.7 0.2 1.4 0.1 1.8zm-2.2-2.1c0 0-0.8 1.4-0.9 1.6-0.4 0.8 0.4 1 0.7 0.9 0.3 0 1.3-0.5 1.8-0.9 0.5-0.4-1.4-1.4-1.6-1.6z"/>
		<path id="&lt;Compound Path&gt;" fill-rule="evenodd" class="s0" d="m65.6 17.7c-0.1 0.2-0.4 1.2-1.8 1-0.3-0.1-1.1-0.3-1.4-1-0.3 0.4-1.1 1.8-2.8 1.5-0.3 0-1.5-0.5-1.5-1.9 0 0-1.3 1.1-2 1.4 0.1 0.5 0.1 1.1-0.2 1.8-0.2 0.6-3.1 3.9-5.5 4.4-0.7 0.2-3.7 0.7-3.9-2.6 0-0.7 0.1-1.3 0.1-1.6-1.8 1.4-4.1 2.5-4.7 2.8-1 0.5-4.4 1-5 1.2-0.4 0-0.5-0.1-0.3-0.2 0.3-0.2 7.9-2.7 11.8-6.9 0.2-0.1 0.1-0.3 0-0.5-0.1-0.2-1.3-2.6-1.4-2.9-0.2-0.3-0.3-0.7-0.4-0.8q-0.1-0.2 0-0.4c0-0.1 0.1-0.7 0.1-0.9 0.1-0.1 0.2-0.1 0.2 0 0.1 0.1 1.4 1.4 1.5 1.6 0.1 0.1 0 0.2 0 0.2-0.1 0-0.7 0-0.7 0 0 0 0.8 1.4 1.1 1.9 0.5 1.1 0.2 2 0 2.4-0.3 0.7-1 1.5-1.8 2.1-0.1 0.6-0.3 3.3 2.2 3.4 0.4 0 1.7 0.2 4.3-1.9 0.6-0.5 1.3-1.1 1.9-1.9 0.2-0.3 0.4-0.9-0.1-0.9-0.4 0.1-3.1 1.1-3.5-0.6 0-0.4 0.2-4.2 2.8-2.3 0.2 0.2 0.8 0.6 1.2 1.4 0.4-0.2 1.2-0.7 2.3-1.5 0.3-0.3 0.5-0.4 0.5 0 0 0.3-0.2 2.5 2.2 1.9 0.3-0.1 1.3-0.3 2-2.2 0.3-0.5 0.5-0.4 0.4 0-0.2 0.5-0.5 0.9-0.2 1.1 0.2 0.2 0.9 0.7 1.8 0.6 0.3 0 0.4-0.2 0.3-0.4-0.1-0.3-0.4-0.7-0.4-0.7 0.1-0.4 0.2-0.8 0.2-1 0.1-0.1 0.1-0.2 0.2-0.1 0.1 0.1 0.9 1.1 0.5 2.5zm-11 0.1c-0.8-1.1-1.9-0.5-2-0.3-0.1 0.1-0.2 0.4 0.7 0.5 1 0 1.3-0.2 1.3-0.2z"/>
		<path id="&lt;Path&gt;" class="s0" d="m21 11.9c0 0-0.1 0.3-0.2 0.5-0.3 1-0.1 1.5-0.1 1.6 0.3 0.6 0.7 0.3 0.9-0.1 0-0.2 0.1-0.1 0.1 0q-0.1 0.1-0.1 0.3c-0.2 0.6-0.5 0.8-0.7 0.8-0.3 0-0.5-0.5-0.5-0.8-0.1-1.1 0.4-2.1 0.5-2.4 0.1-0.2 0.2-0.1 0.1 0.1z"/>
		<path id="&lt;Path&gt;" class="s0" d="m14.7 5.9c0 0-0.1 0.3-0.1 0.5-0.4 1-0.2 1.5-0.1 1.6 0.2 0.5 0.6 0.3 0.8-0.1 0-0.2 0.1-0.1 0.1 0q0 0.1-0.1 0.3c-0.2 0.6-0.4 0.8-0.6 0.8-0.4 0-0.6-0.6-0.6-0.8-0.1-1.1 0.4-2.1 0.5-2.4 0.1-0.3 0.2-0.1 0.1 0.1z"/>
		<path id="&lt;Path&gt;" class="s0" d="m11.8 11.3c0 0-0.1 0.5-0.2 0.9-0.5 1.9-0.1 2.7 0 2.9 0.5 0.9 1 0.4 1.2-0.3 0.1-0.4 0.2-0.2 0.2-0.1q0 0.2-0.1 0.6c-0.2 1.2-0.6 1.5-0.9 1.5-0.6 0-0.9-0.9-1-1.4-0.2-2 0.4-3.7 0.6-4.2 0.1-0.5 0.3-0.3 0.2 0.1z"/>
		<path id="&lt;Path&gt;" class="s0" d="m6.5 14.1c0 0-0.1 0.5-0.2 0.9-0.5 1.9-0.1 2.7-0.1 2.9 0.5 0.9 1.1 0.4 1.3-0.3 0.1-0.4 0.2-0.2 0.2 0q0 0.1-0.1 0.5c-0.2 1.2-0.6 1.5-0.9 1.5-0.6 0-1-0.9-1-1.3-0.2-2.1 0.4-3.8 0.6-4.3 0.1-0.5 0.3-0.3 0.2 0.1z"/>
		<path id="&lt;Path&gt;" class="s0" d="m42.6 10.8l1.1 0.7q0 0.1 0 0.1l-0.7 0.9q0 0 0 0l-1.1-0.8-0.5 0.8q-0.1 0-0.1 0l-1.1-0.8q0 0 0-0.1l0.6-0.8q0.1-0.1 0.1 0l1.1 0.7 0.5-0.7q0-0.1 0.1 0z"/>
		<path id="&lt;Path&gt;" class="s0" d="m62.8 10.8c0 0-0.1 0.3-0.1 0.5-0.4 0.9-0.2 1.3-0.1 1.4 0.2 0.5 0.6 0.3 0.7-0.1 0.1-0.2 0.1-0.1 0.1 0q0 0.1 0 0.3c-0.2 0.6-0.4 0.7-0.6 0.7-0.4 0-0.6-0.5-0.6-0.7 0-1 0.4-1.9 0.5-2.2 0.1-0.2 0.2-0.1 0.1 0.1z"/>
		<path id="&lt;Path&gt;" class="s0" d="m15.3 10.7c0.1 0.1 1.3 1.3 1.5 1.5 0.1 0.2 0 0.2 0 0.2-0.1 0-0.7 0-0.7 0 0 0 0.8 1.4 1.1 1.9 0.5 1.1 0.2 2.1 0 2.5-1.3 2.5-5.2 4.1-6.2 4.6-0.9 0.5-5 1.2-5.6 1.3-0.4 0.1-0.5 0-0.3-0.2 0.3-0.1 7.8-2.2 11.7-6.4q0.2-0.2 0-0.5c-0.1-0.2-1.3-2.5-1.5-2.8-0.1-0.4-0.2-0.7-0.3-0.9q-0.1-0.1-0.1-0.3c0.1-0.2 0.2-0.8 0.2-0.9 0.1-0.2 0.1-0.1 0.2 0z"/>
		<path id="&lt;Path&gt;" class="s0" d="m52.1 10.2c0 0-0.1 0.3-0.2 0.5-0.3 1.1-0.2 1.5-0.1 1.6 0.3 0.6 0.7 0.3 0.8-0.1 0.1-0.2 0.1-0.1 0.1 0q0 0.1-0.1 0.3c-0.1 0.6-0.4 0.8-0.6 0.8-0.4 0-0.6-0.5-0.6-0.8 0-1.1 0.4-2 0.5-2.3 0.2-0.3 0.2-0.2 0.2 0z"/>
		<path id="&lt;Path&gt;" class="s0" d="m57.4 6.6c0.1 0.3 0.1 0.7-0.1 1 0 0.2-0.2 0-0.3-0.2 0 0-0.1-0.1-0.3-0.2-0.5-0.5-0.8 0.4-0.8 0.9-0.1 0.3-0.1 1.3-0.2 2-0.1 0.2-0.2 0.2-0.3 0-0.4-1.3-1.1-1.9-1.2-2-0.2-0.2-0.3 0-0.3 0.1 0 0.1-0.1 0.1-0.2 0 0 0-0.5-0.3-0.6-0.4-0.1-0.2-0.1-0.7-0.1-0.9 0-0.3 0.3-0.4 0.4-0.4 1.5 0.9 2 2.4 2.1 2.6 0-1.1 0.1-2.1 0.7-2.9 0.5-0.6 1.2 0.3 1.2 0.4z"/>
		<path id="&lt;Path&gt;" class="s0" d="m51.1 5.8c0 0.2 0 0.2-0.1 0.4-0.1 0.2-0.2 0.2-0.4 0.3-0.2 0.2-5.8 3.4-5.9 3.5-0.4 0.2-0.3 0.1-0.3-0.1q0 0 0.1-0.3c0-0.1 0.1-0.2 0.3-0.3 0.2-0.2 5.8-3.4 6.1-3.5 0.3-0.2 0.3-0.1 0.2 0z"/>
		<path id="&lt;Path&gt;" class="s0" d="m20.3 5.9c0 0-0.1 0.5-0.3 0.8-0.6 1.6-0.4 2.4-0.3 2.6 0.3 0.8 0.9 0.5 1.1-0.2 0.1-0.3 0.2-0.1 0.2 0q-0.1 0.2-0.2 0.5c-0.3 1-0.7 1.2-1 1.2-0.5 0-0.7-0.9-0.7-1.3 0.1-1.8 0.9-3.3 1.1-3.7 0.2-0.4 0.3-0.2 0.1 0.1z"/>
		<path id="&lt;Compound Path&gt;" fill-rule="evenodd" class="s0" d="m63.5 8.6c0 0.1-0.1 0-0.2-0.1-0.1-0.1-0.2-0.3-0.4-0.4-0.3 0.5-0.3 0.5-1.2 1.4-2.1 1.7-4.4 2.4-4.5 2.4-0.1 0-0.1-0.1 0.1-0.2 0.7-0.6 3.7-1.9 5.2-3.8 0 0-0.5-0.1-0.8-0.4-0.3-0.2-0.2-1.1 0.1-1.4 0.5-0.9 1-0.5 1.1-0.3 0.5 0.9 0.3 1.7 0.3 1.7 0.2 0.2 0.5 0.5 0.3 1.1zm-1-2.3c-0.1 0-0.2 0-0.5 0.4-0.1 0.1 0 0.2 0.2 0.3 0.2 0.1 0.6 0.3 0.6 0.3 0-0.1 0.1-0.6-0.3-1z"/>
		<path id="&lt;Path&gt;" class="s0" d="m30.4 9.3c0 0 0.1 0.4 0.3 0.7 0.2 0.3 0.3 0.6 0.2 1-0.1 0.4-0.3 0.7-0.5 0.8-0.2 0-0.7 0-1-0.4-0.3 0.7-0.8 0.9-1.2 0.7-0.3-0.1-0.3-0.7-0.3-0.9 0-0.2 0-0.7 0-0.9 0-0.1 0-0.2 0.1-0.3 0.1-0.2 0.1-0.1 0.1 0.1 0 0.1-0.1 0.9 0.1 1.2 0.3 0.4 1 0 1.1-0.2 0.1-0.2-0.2-1.1-0.2-1.1q0-0.1 0-0.1c0-0.1 0-0.3 0.1-0.5q0.1-0.2 0.2 0c0 0.2 0 0.4 0.2 1.1 0.1 0.8 0.8 0.6 1 0.6 0.1-0.1 0.1-0.2 0-0.3 0-0.1-0.3-0.7-0.4-1-0.1-0.2 0-0.4 0-0.7 0.1-0.2 0.2 0 0.2 0.2z"/>
		<path id="&lt;Path&gt;" class="s0" d="m10.9 7.1c0.1 0.2 0 0.7-0.1 0.9-0.1 0.2-0.2 0-0.3-0.1 0 0-0.1-0.2-0.3-0.3-0.5-0.4-0.7 0.5-0.8 0.9 0 0.3-0.1 1.3-0.2 1.9 0 0.2-0.1 0.2-0.2 0-0.4-1.2-1.1-1.8-1.2-1.9q0-0.1-0.1-0.1 0.1 0.2 0.1 0.5c-0.3 1.6-1.9 2.2-2.1 2.3-0.3 0.2-0.3 0.1 0-0.2 0.2-0.3 1.4-1.5 1.7-1.8 0.5-0.5-0.5-0.9-0.6-1-0.2-0.1-0.1-0.6-0.1-0.8 0-0.3 0.2-0.4 0.4-0.4 1.4 0.8 1.9 2.3 1.9 2.5 0.1-1.1 0.1-2 0.7-2.7 0.5-0.6 1.1 0.2 1.2 0.3z"/>
		<path id="&lt;Compound Path&gt;" fill-rule="evenodd" class="s0" d="m42.3 8.3c-0.1 0.1-0.1 0-0.2-0.1-0.1-0.1-0.5-0.4-0.5-0.4 0 0-0.4 1-1.2 1.5-1.4 1.1-2.6 1.3-2.6 1.3-0.2 0-0.2-0.1 0-0.2 0.9-0.5 1.9-0.9 3.5-2.8 0 0-0.5-0.2-0.9-0.4-0.3-0.2-0.1-1.1 0.1-1.4 0.6-0.9 1.1-0.5 1.2-0.3 0.5 0.8 0.2 1.7 0.2 1.7 0.3 0.2 0.6 0.5 0.4 1.1zm-1-2.3c-0.1 0-0.2-0.1-0.5 0.4-0.1 0.1 0 0.2 0.2 0.3 0.2 0.1 0.6 0.3 0.6 0.3 0-0.1 0.1-0.7-0.3-1z"/>
		<path id="&lt;Compound Path&gt;" fill-rule="evenodd" class="s0" d="m34.2 15.4c-0.1 1.9-1.4 2.6-1.9 2.9-1.6 0.9-8.1 1.6-9.5 1.8q0 0.2 0 0.4c0 0-0.3 1.3-1.1 2-4.3 3.7-6.9 2.6-7.2 2.4-1.9-1-0.8-4-0.5-4.7 0.2-0.8 0.5-0.5 0.4-0.2-0.1 0.3-0.3 0.9-0.3 1.2-0.8 2.5 1.8 2.7 2.2 2.7 2.9 0 5.6-2.8 5.9-3.3 0.3-0.4-0.3-0.3-0.5-0.3-1 0.2-1.7 0.1-2.1 0-1.2-0.5-1.2-2.1-0.2-3.1 1-0.9 1.8-0.4 2.5 0.5q0.5 0.6 0.7 1.2l0.8-0.1c0 0 0.5-0.7 1.4-1.6 0.2-2.7-0.3-4.2-0.4-5.3-0.2-1-1-4.9-1-5.1-0.1-0.3-0.2-0.5-0.2-0.5 0.1-0.1 0.3-0.8 0.4-1q0 0 0.1 0c0.1 0.4 0.9 1.9 1.3 2.5 0.4 0.8 0.1 0.7 0 0.6-0.1-0.1-0.5-0.4-0.6-0.5q-0.1-0.1-0.1 0c1.5 6.6 1.1 8 1 8.8 1-1 2.3-2.1 3.4-2.7 0.5-0.2 2.4-0.6 3.4 1 0.4 0.9-0.4 2.4-0.5 2.5 0.2 0 1.3-0.4 1.9-0.8 0.5-0.4-1-5.9-1.2-9.7 0-0.5-0.1-0.7-0.1-0.8 0 0 0.4-0.9 0.4-1.1 0.1-0.1 0.1 0 0.2 0.1 0 0.1 1.1 3.1 1.2 3.3 0 0.1-0.1 0.2-0.2 0.1-0.1-0.1-0.6-0.6-0.6-0.6 0 0 1 6.5 1 7.4zm-12.7 3.6c-0.5-1.2-1.6-0.8-1.7-0.7-0.2 0.2-0.6 0.5 0.3 0.7 0.9 0.2 1.4 0 1.4 0zm9.5-3.3c-0.7-0.6-1.9-0.7-2.9-0.2-1.6 0.9-3.9 3.2-3.9 3.2 0.5-0.1 5.8-0.7 6.9-1.9 0.3-0.3 0.5-0.5-0.1-1.1z"/>
		<path id="&lt;Path&gt;" class="s0" d="m36 5.2c0.1 0.1 1.4 3.3 1.4 3.5 0.1 0.1 0 0.2-0.1 0.1-0.1-0.1-0.8-0.7-0.8-0.7 0 0 1.1 7.7 1.2 8.1 0.7 4.6 0.1 5.9 0 6-0.1 0.2-0.2 0.2-0.2 0 0-1.9-1.1-8.7-1.1-9.1-0.1-0.4-0.8-6.4-0.9-7 0 0 0.3-0.8 0.4-1 0-0.1 0.1 0 0.1 0.1z"/>
		<path id="&lt;Compound Path&gt;" fill-rule="evenodd" class="s0" d="m29.8 7.7c-0.1 0.1-0.1 0-0.2-0.1-0.1-0.1-0.4-0.3-0.4-0.3 0 0-0.3 0.8-1.1 1.6-1.1 1-2.2 1.4-2.3 1.4-0.1 0-0.1 0 0.1-0.2 0.8-0.5 2.3-2 3-3 0 0-0.4-0.2-0.7-0.4-0.3-0.2-0.1-0.9 0.1-1.2 0.6-0.8 1-0.4 1.1-0.3 0.4 0.8 0.1 1.6 0.1 1.6 0.2 0.1 0.5 0.4 0.3 0.9zm-0.8-2c-0.1-0.1-0.2-0.1-0.5 0.3-0.1 0.1 0 0.2 0.2 0.3 0.1 0.1 0.5 0.2 0.5 0.2 0-0.1 0.1-0.5-0.2-0.8z"/>
	</g>
</svg>