<svg version="1.2" xmlns="http://www.w3.org/2000/svg" viewBox="0 0 70 30" width="70" height="30">
	<title>New Project</title>
	<style>
		.s0 { fill: #191c4f } 
	</style>
	<g id="النجم">
		<path id="&lt;Path&gt;" class="s0" d="m16.2 21.6c-0.1 0.1-0.1 0.1-0.1 0.3-0.1 0.2-0.2 0.3-0.4 0.4-0.2 0.1-2.6 1.4-2.7 1.5-0.4 0.2-0.3 0.1-0.3 0q0 0 0-0.3c0-0.2 0.1-0.2 0.3-0.4 0.3-0.1 2.7-1.4 2.9-1.6 0.3-0.1 0.3 0 0.3 0.1z"/>
		<path id="&lt;Path&gt;" class="s0" d="m24.6 21.1l1.1 0.7q0 0.1 0 0.1l-0.6 0.9q-0.1 0-0.1 0l-1.1-0.8q0 0 0-0.1l0.6-0.8q0.1 0 0.1 0z"/>
		<path id="&lt;Path&gt;" class="s0" d="m20.9 20.9c0 0-0.1 0.3-0.2 0.5-0.3 0.9-0.1 1.3 0 1.4 0.2 0.5 0.6 0.2 0.7-0.1 0.1-0.2 0.2-0.1 0.1 0q0 0.1 0 0.3c-0.2 0.5-0.4 0.7-0.6 0.7-0.4 0-0.6-0.5-0.6-0.7-0.1-1 0.3-1.9 0.4-2.2 0.1-0.2 0.2-0.1 0.2 0.1z"/>
		<path id="&lt;Path&gt;" class="s0" d="m32.3 20.7c0 0-0.1 0.2-0.1 0.4-0.3 0.9-0.2 1.3-0.1 1.4 0.2 0.4 0.5 0.2 0.7-0.1 0-0.2 0.1-0.1 0-0.1q0 0.1 0 0.3c-0.2 0.5-0.4 0.7-0.6 0.7-0.3 0-0.4-0.5-0.4-0.7-0.1-0.9 0.3-1.7 0.4-2 0.1-0.2 0.2-0.1 0.1 0.1z"/>
		<path id="&lt;Path&gt;" class="s0" d="m64.9 19.5c0 0 0 0.3 0 0.6 0 0.2-0.1 0.5-0.2 0.8-0.1 0.4-0.8 0.5-1.2 0.2-0.8 1.1-1.5 0.6-1.8 0.4-0.7-0.3-0.9 0.2-1.1 0.4-0.8 1-2.4 0.9-2.8 0.9-0.3 0.1 0-0.1 0.1-0.2 1.3-0.5 2-0.5 3.1-1.6 0.5-0.4 0.8-0.2 1-0.1 1 0.4 1.1 0 1.3-0.2 0.1-0.1 0.3-0.6 0.4-0.8 0.1-0.2 0.2 0 0.1 0.1 0 0.1-0.1 0.3-0.1 0.4 0.4 0.3 0.9 0 1 0 0 0-0.1-0.4-0.1-0.5q0-0.1 0.1-0.5c0.1-0.3 0.2 0 0.2 0.1z"/>
		<path id="&lt;Path&gt;" class="s0" d="m31.3 13.1l1.1 0.8q0 0 0 0.1l-0.6 0.8q-0.1 0-0.1 0l-1-0.7q-0.1-0.1-0.1-0.1l0.6-0.9q0.1 0 0.1 0z"/>
		<path id="&lt;Path&gt;" class="s0" d="m11.4 13c0 0-0.1 0.3-0.2 0.5-0.3 0.9-0.1 1.4 0 1.5 0.3 0.4 0.6 0.2 0.8-0.2 0-0.2 0.1-0.1 0.1 0q-0.1 0.1-0.1 0.3c-0.2 0.6-0.4 0.7-0.6 0.7-0.4 0-0.6-0.4-0.6-0.7-0.1-1 0.4-1.9 0.5-2.1 0.1-0.3 0.2-0.2 0.1 0z"/>
		<path id="&lt;Compound Path&gt;" fill-rule="evenodd" class="s0" d="m45.9 18.1c-0.4 1-1.8 1.6-2.1 1.7-1.3 0.4-1.4-0.9-1.3-1.8 0.1-1 0.7-2.2 0.7-2.2 0 0-1.4-1.1-1.5-1.2-0.1-0.1-0.2-0.2-0.3-0.3-0.2-0.1-0.2-0.2-0.2-0.2 0 0 0.1-0.9 0.1-1 0-0.2 0-0.1 0.1-0.1 0.1 0.1 1.6 0.7 1.8 0.8 0.1 0 0.1 0.1 0 0.2-0.1 0-0.6 0.1-0.6 0.1l1.2 0.9c0 0 1.7-2.2 1.9-2.4 0.1-0.2 0.1-0.1 0.1 0.1-0.1 0.2-0.4 1.2-0.5 1.3 0 0.2-0.9 1.3-0.9 1.3 0 0 1.1 0.7 1.4 1.1 0.5 0.7 0.2 1.3 0.1 1.7zm-2.1-1.9c0 0-0.8 1.3-0.9 1.5-0.3 0.8 0.4 0.9 0.7 0.9 0.3-0.1 1.3-0.6 1.8-1 0.4-0.4-1.4-1.3-1.6-1.4z"/>
		<path id="&lt;Compound Path&gt;" fill-rule="evenodd" class="s0" d="m66.4 16.9c0 0.2-0.3 1.2-1.6 0.9-0.4 0-1.1-0.2-1.4-0.9-0.3 0.4-1.1 1.7-2.6 1.5-0.4-0.1-1.5-0.5-1.5-1.9 0 0-1.3 1-1.9 1.4 0.1 0.5 0 1-0.2 1.6-0.2 0.7-3 3.8-5.2 4.3-0.8 0.1-3.6 0.7-3.8-2.5 0-0.7 0.1-1.2 0.1-1.6-1.8 1.4-3.9 2.5-4.5 2.8-1 0.4-4.2 0.9-4.8 1.1-0.4 0-0.5-0.1-0.2-0.2 0.2-0.2 7.5-2.6 11.3-6.6q0.1-0.2-0.1-0.5c-0.1-0.2-1.2-2.4-1.4-2.7-0.1-0.3-0.2-0.7-0.3-0.8q-0.1-0.2 0-0.4c0-0.1 0.1-0.7 0.1-0.8 0.1-0.2 0.1-0.1 0.2 0 0.1 0.1 1.3 1.3 1.4 1.4 0.2 0.2 0 0.3 0 0.3-0.1 0-0.6-0.1-0.6-0.1 0 0 0.7 1.4 1 1.9 0.5 1 0.2 1.9 0 2.3-0.3 0.7-1 1.4-1.7 2-0.1 0.6-0.4 3.2 2.1 3.3 0.4 0 1.6 0.1 4.1-1.9 0.6-0.5 1.2-1 1.8-1.8 0.2-0.3 0.4-0.9-0.1-0.8-0.4 0-2.9 1-3.3-0.6-0.1-0.4 0.1-4.1 2.6-2.2 0.3 0.1 0.8 0.6 1.2 1.3 0.4-0.2 1.2-0.7 2.1-1.5 0.3-0.2 0.6-0.3 0.6 0 0 0.4-0.2 2.5 2.1 1.9 0.2-0.1 1.2-0.3 1.9-2.1 0.2-0.4 0.5-0.4 0.4 0-0.2 0.4-0.5 0.8-0.2 1 0.2 0.3 0.8 0.7 1.7 0.6 0.2 0 0.4-0.1 0.3-0.4-0.1-0.2-0.4-0.7-0.4-0.7 0.1-0.3 0.2-0.7 0.2-0.9 0.1-0.1 0.1-0.2 0.2-0.1 0.1 0.1 0.9 1.1 0.4 2.4zm-10.4 0.1c-0.9-1.1-1.8-0.5-2-0.3-0.1 0.1-0.1 0.4 0.7 0.5 0.9 0 1.3-0.2 1.3-0.2z"/>
		<path id="&lt;Path&gt;" class="s0" d="m26.3 11.3c0.1 0.2 0 0.6 0 0.9-0.1 0.1-0.2 0-0.3-0.1 0 0-0.2-0.2-0.3-0.3-0.5-0.4-0.6 0.5-0.6 0.9 0 0.3 0 1.2-0.1 1.8 0 0.2-0.1 0.2-0.2 0.1-0.4-1.2-1-1.7-1.1-1.8-0.1-0.2-0.2 0-0.2 0.1 0 0.1-0.1 0.1-0.2 0 0 0-0.4-0.2-0.5-0.3-0.1-0.2-0.1-0.6-0.1-0.8 0-0.3 0.2-0.4 0.3-0.4 1.2 0.7 1.7 2.1 1.8 2.3 0-1 0-2 0.4-2.7 0.4-0.5 1 0.2 1.1 0.3z"/>
		<path id="&lt;Path&gt;" class="s0" d="m15.3 11c0 0-0.1 0.5-0.2 0.8-0.5 1.7-0.2 2.4-0.2 2.6 0.5 0.8 1 0.4 1.2-0.2 0.1-0.4 0.2-0.2 0.1-0.1q0 0.2 0 0.6c-0.3 1-0.6 1.2-0.9 1.2-0.6 0-0.8-0.8-0.9-1.2-0.1-1.8 0.5-3.4 0.7-3.8 0.1-0.5 0.3-0.3 0.2 0.1z"/>
		<path id="&lt;Path&gt;" class="s0" d="m44.5 10.3l1 0.7q0 0.1 0 0.1l-0.6 0.8q0 0.1-0.1 0l-1-0.7-0.5 0.7q0 0.1-0.1 0l-1-0.7q-0.1 0 0-0.1l0.6-0.8q0-0.1 0 0l1.1 0.7 0.5-0.7q0-0.1 0.1 0z"/>
		<path id="&lt;Path&gt;" class="s0" d="m63.8 10.3c0 0-0.1 0.3-0.1 0.5-0.4 0.9-0.2 1.3-0.1 1.4 0.2 0.4 0.5 0.2 0.7-0.2 0-0.1 0.1 0 0.1 0q0 0.1-0.1 0.3c-0.2 0.6-0.4 0.7-0.6 0.7-0.3 0-0.5-0.5-0.5-0.7 0-1 0.4-1.8 0.5-2 0.1-0.3 0.2-0.2 0.1 0z"/>
		<path id="&lt;Path&gt;" class="s0" d="m53.5 9.8c0 0-0.1 0.3-0.1 0.5-0.4 0.9-0.2 1.4-0.1 1.5 0.2 0.5 0.6 0.2 0.7-0.2 0.1-0.1 0.2 0 0.1 0q0 0.1 0 0.3c-0.2 0.6-0.5 0.8-0.6 0.8-0.4 0-0.6-0.5-0.6-0.8-0.1-1 0.4-1.9 0.5-2.2 0.1-0.3 0.2-0.1 0.1 0.1z"/>
		<path id="&lt;Path&gt;" class="s0" d="m31.6 9.4c0 0 0.1 0.5 0.3 0.8 0.1 0.2 0.2 0.5 0.2 0.9-0.1 0.5-0.3 0.8-0.5 0.8-0.3 0.1-0.7 0.1-1-0.3-0.4 0.7-0.9 0.9-1.3 0.7-0.3-0.2-0.3-0.7-0.3-0.9 0-0.2 0-0.8 0-0.9-0.1-0.2 0-0.3 0.1-0.4 0.1-0.2 0.1-0.1 0.1 0.1 0 0.2-0.1 1 0.1 1.3 0.3 0.4 1 0 1.1-0.2 0.1-0.3-0.2-1.1-0.2-1.2q0-0.1 0-0.1c0-0.1 0-0.3 0.1-0.5q0.1-0.1 0.2 0.1c0 0.1 0 0.3 0.2 1.1 0.1 0.8 0.8 0.6 1 0.5 0.2 0 0.2-0.1 0.1-0.2 0-0.1-0.3-0.8-0.4-1-0.1-0.3-0.1-0.5 0-0.8 0.1-0.2 0.1 0 0.2 0.2z"/>
		<path id="&lt;Path&gt;" class="s0" d="m20.3 6.8c0.6 0.1 0.4 0.4 0.3 0.5-0.5 0.7-1 1-1.5 1.2-0.4 0.2-0.2-0.2 0.1-0.3 0 0 0.2-0.2 0.6-0.5 0.4-0.3-0.6-0.2-1.1-0.2-0.4 0-0.5 0.1-0.6 0.3-0.2 0.1-0.3 0-0.2-0.2 0.1-0.1 0.2-0.3 0.5-0.7 0.3-0.3 1.3-0.2 1.9-0.1z"/>
		<path id="&lt;Path&gt;" class="s0" d="m12.7 7.1c0.2 0.2 0.1 0.6 0 0.8-0.1 0.2-0.2 0-0.3-0.1 0 0-0.2-0.2-0.3-0.3-0.5-0.4-0.7 0.5-0.8 0.9 0 0.3-0.1 1.2-0.1 1.8-0.1 0.2-0.2 0.2-0.3 0-0.3-1.2-1-1.7-1.1-1.8q-0.1-0.1-0.1-0.1 0.1 0.2 0.1 0.5c-0.3 1.5-1.8 2-2 2.2-0.3 0.1-0.3 0.1 0-0.2 0.2-0.3 1.3-1.5 1.6-1.7 0.5-0.5-0.5-0.9-0.6-1-0.1-0.1-0.1-0.6-0.1-0.8 0.1-0.3 0.3-0.4 0.4-0.3 1.4 0.7 1.8 2.1 1.9 2.3 0-1 0.1-1.9 0.6-2.6 0.5-0.6 1.1 0.3 1.1 0.4z"/>
		<path id="&lt;Path&gt;" class="s0" d="m32 5.8c0 0.2 0 0.2-0.1 0.4 0 0.3-0.2 0.3-0.4 0.5-0.2 0.2-11.7 5.3-11.9 5.4-0.4 0.3-0.4 0.2-0.3 0q0 0 0-0.3c0-0.2 0.1-0.3 0.4-0.5 0.3-0.1 11.8-5.4 12-5.5 0.4-0.2 0.4-0.1 0.3 0z"/>
		<path id="&lt;Path&gt;" class="s0" d="m52.6 5.6c0 0.1 0 0.1-0.1 0.3-0.1 0.2-0.2 0.2-0.4 0.3-0.2 0.1-5.5 3.3-5.6 3.3-0.4 0.2-0.3 0.1-0.3 0q0-0.1 0.1-0.3c0-0.2 0.1-0.2 0.3-0.4 0.2-0.1 5.6-3.2 5.8-3.3 0.3-0.2 0.3-0.1 0.2 0.1z"/>
		<path id="&lt;Path&gt;" class="s0" d="m59.2 5.9c0.1 0.2 0 0.6-0.1 0.9-0.1 0.2-0.2 0-0.4-0.1 0 0-0.1-0.2-0.2-0.3-0.6-0.4-0.8 0.4-0.8 0.9-0.1 0.3-0.1 1.3-0.2 1.9 0 0.2-0.2 0.2-0.3 0-0.3-1.2-1-1.8-1.2-1.9-0.1-0.2-0.2 0-0.2 0.1 0 0.1-0.1 0.1-0.2 0 0 0-0.4-0.3-0.6-0.4-0.1-0.1-0.1-0.6 0-0.8 0-0.3 0.2-0.5 0.3-0.4 1.5 0.8 1.9 2.2 2 2.5 0.1-1.1 0.1-2 0.7-2.8 0.4-0.6 1.1 0.3 1.2 0.4z"/>
		<path id="&lt;Compound Path&gt;" fill-rule="evenodd" class="s0" d="m64.5 8.2c-0.1 0.1-0.1 0-0.3-0.1 0-0.1-0.2-0.3-0.4-0.4-0.2 0.5-0.2 0.5-1.1 1.3-2 1.7-4.1 2.3-4.2 2.4-0.2 0-0.2-0.1 0-0.2 0.7-0.6 3.5-1.8 5-3.6 0 0-0.5-0.2-0.8-0.4-0.3-0.3-0.1-1 0.1-1.4 0.5-0.9 1-0.4 1.1-0.3 0.5 0.8 0.2 1.7 0.2 1.7 0.3 0.1 0.6 0.4 0.4 1zm-1-2.2c-0.1 0-0.2 0-0.5 0.4-0.1 0.1 0 0.2 0.2 0.3 0.2 0.1 0.6 0.3 0.6 0.3 0-0.2 0.1-0.7-0.3-1z"/>
		<path id="&lt;Path&gt;" class="s0" d="m34.4 5.2c0.1 0.1 1.3 3.1 1.4 3.3 0.1 0.1-0.1 0.2-0.2 0.1-0.1-0.1-0.7-0.7-0.7-0.7 0 0 1.2 8.3 1.3 9.2 0.1 1.7-0.6 2.4-0.8 2.5-2.1 1.2-2.9-0.4-3.2-1-1.1 1.6-2.4 1.9-2.9 1.9-2.6 0-2.1-1.9-2.1-2.5-0.9 0.1-1.9 0.3-2.6 0.9-2.6 1.6-5 1.4-5.6 1.3 0 0 0 0.8 0 1.2 0 0.3-0.3 0.3-0.5 0.3-0.1 0-0.3-0.1-0.8-0.4-0.7-0.4-0.9-1.4-0.9-2.1-2.3-0.9-5.6 2.6-6.3 3.3-1.4 1.6-2.6 1.8-3.1 1.6-1.2-0.3-1.5-1.4-1.4-2.4 0.2-1.5 1.3-3.1 1.6-3.5-0.3-0.3-0.5-0.8-0.5-1.1-0.2-1.9 0.5-3.4 0.6-3.9 0.2-0.4 0.3-0.2 0.2 0.2 0 0-0.1 0.4-0.2 0.8-0.5 1.7-0.2 2.4-0.1 2.6 0.4 0.8 0.9 0.4 1.1-0.3 0.1-0.3 0.2-0.1 0.2 0q0 0.2-0.1 0.5c-0.2 1.1-0.6 1.3-0.9 1.3q0 0-0.1 0c-1.7 2.7-1.5 3.8-1.2 4.2 0.9 1.4 2.3 0.3 2.9-0.3 0.7-0.5 1.7-1.8 3.6-3.2 1.8-1.3 3.3-1.1 3.7-1.1 0 0 0.1-0.1 0.2-0.2 0.1-0.1 0.1 0 0.4 0.2 0.9 0.7 1.9 1 2.9 1 2.1 0 4-1.2 4.4-1.3 0 0-2.1-0.9-3-1 0 0-0.1 0.2-0.1 0.2q0 0.1-0.2 0.1c-0.2 0-2.4 0.1-2.5 0-0.2 0 0.3-1 0.3-1.1 0.1-0.2 1.6-0.5 2-0.6 0.3-0.1 0.5-0.1 0.7 0 0.4 0.2 2.1 0.8 2.7 1 2.2 0.6 5.3 0.7 5.3 0.7l-0.6 1.2c0 0-0.7-0.1-1.7-0.1 0.1 1 0.8 1.2 1.1 1.3 2.6 0.3 3.5-1.8 3.7-2.1 0.2-0.2 0.3 0.1 0.3 0.2 0 0.1 0 0 0 0.2 0.3 1.4 1.8 1.3 2.4 1.1 0.5-0.2 0.4-0.6 0.4-0.8 0-0.3-0.1-1.4-0.1-2-0.1-0.3-1.3-8.4-1.4-9 0-0.5-0.1-0.7-0.1-0.8 0 0 0.4-0.9 0.4-1 0.1-0.1 0.1 0 0.1 0.1z"/>
		<path id="&lt;Path&gt;" class="s0" d="m38 5.2c0 0.1 1.3 3.1 1.3 3.2 0.1 0.2 0 0.3-0.1 0.2-0.1-0.1-0.7-0.7-0.7-0.7 0 0 1 7.3 1 7.7 0.7 4.3 0.2 5.5 0.1 5.7-0.1 0.2-0.2 0.1-0.2-0.1 0-1.8-1-8.2-1.1-8.6 0-0.4-0.7-6-0.8-6.6 0 0 0.3-0.8 0.3-0.9 0.1-0.1 0.1 0 0.2 0.1z"/>
		<path id="&lt;Compound Path&gt;" fill-rule="evenodd" class="s0" d="m44.2 7.9c-0.1 0.1-0.1 0-0.2-0.1-0.1-0.1-0.5-0.4-0.5-0.4 0 0-0.4 1-1.1 1.5-1.3 1-2.5 1.2-2.6 1.2-0.1 0-0.1-0.1 0.1-0.2 0.8-0.5 1.8-0.8 3.3-2.6 0 0-0.5-0.2-0.8-0.4-0.3-0.3-0.1-1 0.1-1.4 0.5-0.8 1-0.4 1.1-0.3 0.5 0.9 0.2 1.7 0.2 1.7 0.3 0.1 0.6 0.4 0.4 1zm-1-2.2c-0.1 0-0.2 0-0.5 0.4-0.1 0.1 0 0.2 0.2 0.3 0.2 0.1 0.6 0.3 0.6 0.3 0-0.2 0.1-0.6-0.3-1z"/>
	</g>
</svg>