<svg version="1.2" xmlns="http://www.w3.org/2000/svg" viewBox="0 0 70 30" width="70" height="30">
	<title>New Project</title>
	<style>
		.s0 { fill: #191c4f } 
	</style>
	<g id="القمر">
		<path id="&lt;Path&gt;" class="s0" d="m15.9 22.1c0 0.1 0 0.2-0.1 0.4-0.1 0.1-0.2 0.2-0.4 0.3-0.2 0.1-4 1.5-4.1 1.6-0.4 0.2-0.3 0-0.3-0.1q0 0 0.1-0.3c0-0.2 0.1-0.2 0.4-0.3 0.2-0.2 3.9-1.6 4.2-1.7 0.3-0.2 0.3 0 0.2 0.1z"/>
		<path id="&lt;Path&gt;" class="s0" d="m34.5 20.4c0.4 0.1 0.4 0.5 0.4 0.8-0.1 0.9-0.7 1.7-0.8 1.9-0.2 0.2-0.2 0.1-0.1-0.1 0 0 0.1-0.2 0.2-0.4 0.5-0.8 0.4-1.3 0.4-1.4-0.2-0.5-0.6-0.3-0.8 0-0.1 0.2-0.1 0.1-0.1 0q0.1-0.1 0.1-0.2c0.3-0.6 0.6-0.6 0.7-0.6z"/>
		<path id="&lt;Path&gt;" class="s0" d="m26.8 20.8c0.1 0.3 0 0.7-0.1 0.9-0.1 0.2-0.2 0-0.3-0.1 0 0-0.1-0.1-0.2-0.3-0.5-0.4-0.7 0.5-0.7 0.9-0.1 0.3-0.1 1.3-0.2 1.9 0 0.2-0.1 0.2-0.2 0-0.3-1.2-1-1.8-1.1-1.9-0.1-0.1-0.2 0.1-0.2 0.1 0 0.1-0.1 0.1-0.1 0.1-0.1-0.1-0.4-0.3-0.6-0.5-0.1-0.1 0-0.6 0-0.7 0-0.4 0.2-0.5 0.3-0.4 1.3 0.8 1.7 2.2 1.7 2.4 0.1-1.1 0.1-2 0.6-2.7 0.4-0.6 1 0.2 1.1 0.3z"/>
		<path id="&lt;Path&gt;" class="s0" d="m63.8 20.3c0 0 0 0.3 0 0.5 0 0.2-0.1 0.6-0.3 0.9-0.1 0.3-0.8 0.5-1.2 0.2-0.8 1.2-1.5 0.6-1.9 0.4-0.7-0.3-1 0.2-1.1 0.4-0.9 1-2.6 1-3 1-0.3 0.1 0-0.2 0.1-0.3 1.3-0.4 2.1-0.5 3.3-1.6 0.5-0.5 0.8-0.2 1-0.2 1.1 0.5 1.2 0 1.4-0.1 0.1-0.1 0.3-0.7 0.4-0.9 0.1-0.1 0.2 0 0.1 0.2 0 0.1-0.1 0.3-0.1 0.4 0.5 0.3 0.9 0 1-0.1 0 0 0-0.3 0-0.4q-0.1-0.2 0.1-0.6c0.1-0.3 0.2 0 0.2 0.2z"/>
		<path id="&lt;Compound Path&gt;" fill-rule="evenodd" class="s0" d="m43.8 18.8c-0.3 1-1.9 1.6-2.2 1.7-1.4 0.4-1.5-0.9-1.4-1.9 0.1-1 0.8-2.2 0.8-2.2 0-0.1-1.5-1.2-1.6-1.3-0.1-0.1-0.2-0.3-0.3-0.4-0.2 0-0.2-0.1-0.2-0.1 0 0 0.1-1 0.1-1.1 0-0.2 0-0.1 0.1-0.1 0.2 0.1 1.7 0.7 1.9 0.8 0.1 0.1 0.1 0.2 0 0.2-0.1 0-0.6 0.2-0.6 0.2l1.2 0.9c0 0 1.8-2.3 2-2.5 0.1-0.3 0.1-0.1 0.1 0.1-0.1 0.2-0.4 1.2-0.5 1.4-0.1 0.1-1 1.4-1 1.4 0 0 1.2 0.7 1.5 1.1 0.5 0.7 0.2 1.4 0.1 1.8zm-2.2-2.1c0 0-0.8 1.4-0.9 1.6-0.4 0.8 0.4 1 0.7 0.9 0.3 0 1.4-0.5 1.9-0.9 0.5-0.4-1.4-1.4-1.7-1.6z"/>
		<path id="&lt;Compound Path&gt;" fill-rule="evenodd" class="s0" d="m65.4 17.5c-0.1 0.2-0.4 1.2-1.8 1-0.4-0.1-1.1-0.3-1.4-1.1-0.3 0.5-1.2 1.9-2.8 1.6-0.4 0-1.5-0.5-1.5-1.9 0 0-1.4 1.1-2 1.4 0.1 0.5 0 1.1-0.2 1.8-0.3 0.6-3.2 3.9-5.5 4.4-0.8 0.2-3.8 0.7-3.9-2.6-0.1-0.7 0-1.3 0-1.6-1.8 1.4-4.1 2.5-4.7 2.8-1 0.5-4.4 1.1-5 1.2-0.4 0-0.5-0.1-0.3-0.2 0.3-0.2 7.9-2.7 11.9-6.9q0.1-0.2 0-0.5c-0.2-0.2-1.4-2.6-1.5-2.9-0.1-0.3-0.3-0.7-0.4-0.8q0-0.2 0-0.4c0-0.1 0.1-0.8 0.2-0.9 0-0.2 0.1-0.1 0.2 0 0 0.1 1.3 1.4 1.4 1.5 0.2 0.2 0.1 0.3 0 0.3 0 0-0.6-0.1-0.6-0.1 0 0 0.8 1.5 1 2 0.5 1.1 0.2 2 0.1 2.4-0.4 0.7-1.1 1.4-1.8 2.1-0.2 0.6-0.4 3.4 2.2 3.4 0.4 0 1.7 0.2 4.3-1.9 0.6-0.5 1.3-1.1 1.8-1.9 0.3-0.4 0.4-0.9 0-0.9-0.4 0.1-3.1 1.1-3.5-0.6-0.1-0.4 0.1-4.3 2.8-2.3 0.2 0.1 0.7 0.6 1.1 1.4 0.5-0.2 1.3-0.7 2.3-1.5 0.3-0.3 0.6-0.4 0.6-0.1 0 0.4-0.2 2.6 2.2 2 0.3-0.1 1.3-0.3 2-2.2 0.2-0.5 0.5-0.4 0.4 0-0.2 0.4-0.5 0.9-0.2 1.1 0.2 0.2 0.9 0.7 1.7 0.6 0.3 0 0.5-0.2 0.4-0.4-0.1-0.3-0.4-0.8-0.4-0.8 0.1-0.3 0.2-0.8 0.2-0.9 0.1-0.1 0.1-0.2 0.2-0.1 0.1 0.1 0.9 1.1 0.5 2.5zm-11 0.1c-0.9-1.1-1.9-0.5-2-0.4-0.1 0.2-0.2 0.5 0.6 0.6 1 0 1.4-0.2 1.4-0.2z"/>
		<path id="&lt;Path&gt;" class="s0" d="m24.8 12.8c0.1 0.3 0 0.7 0 1-0.1 0.2-0.2 0-0.4-0.1 0 0-0.1-0.2-0.2-0.3-0.6-0.4-0.7 0.5-0.7 1 0 0.3 0 1.3-0.1 2 0 0.2-0.1 0.2-0.2 0-0.4-1.3-1.1-1.8-1.3-2-0.1-0.1-0.2 0.1-0.2 0.2 0 0.1-0.1 0.1-0.1 0-0.1 0-0.5-0.2-0.6-0.4-0.2-0.1-0.1-0.6-0.1-0.8 0-0.4 0.1-0.5 0.3-0.4 1.4 0.7 1.9 2.2 2 2.4 0-1.1-0.1-2.1 0.4-2.9 0.4-0.6 1.1 0.2 1.2 0.3z"/>
		<path id="&lt;Path&gt;" class="s0" d="m14 11.8c0 0-0.1 0.5-0.2 0.8-0.5 1.7-0.2 2.5-0.2 2.7 0.4 0.8 1 0.4 1.2-0.3 0.1-0.3 0.2-0.1 0.2 0q-0.1 0.2-0.1 0.5c-0.3 1.1-0.7 1.3-1 1.3-0.5 0-0.8-0.9-0.8-1.3-0.1-1.8 0.6-3.4 0.8-3.8 0.1-0.4 0.3-0.2 0.1 0.1z"/>
		<path id="&lt;Path&gt;" class="s0" d="m40.6 10.5l1.1 0.8 0.5-0.8q0.1 0 0.1 0l1.1 0.8q0 0 0 0.1l-0.6 0.9q-0.1 0-0.1 0l-1.1-0.8-0.5 0.8q-0.1 0-0.1 0l-1.1-0.8q0 0 0-0.1l0.6-0.9q0.1 0 0.1 0z"/>
		<path id="&lt;Path&gt;" class="s0" d="m29.6 10.5l1.1 0.8q0.1 0 0 0.1l-0.6 0.9q0 0-0.1 0l-1-0.8-0.6 0.8q0 0-0.1 0l-1.1-0.8q0-0.1 0-0.1l0.7-0.9q0 0 0.1 0l1 0.8 0.6-0.8q0 0 0 0z"/>
		<path id="&lt;Path&gt;" class="s0" d="m62.6 10.6c0 0-0.1 0.3-0.2 0.4-0.3 1-0.1 1.4-0.1 1.5 0.3 0.5 0.7 0.2 0.8-0.1 0.1-0.2 0.1-0.1 0.1 0q0 0.1-0.1 0.3c-0.1 0.6-0.4 0.7-0.6 0.7-0.3 0-0.5-0.5-0.5-0.7-0.1-1.1 0.4-1.9 0.5-2.2 0.1-0.2 0.2-0.1 0.1 0.1z"/>
		<path id="&lt;Path&gt;" class="s0" d="m51.8 10c0 0-0.1 0.3-0.1 0.5-0.4 1-0.2 1.5-0.2 1.6 0.3 0.5 0.7 0.3 0.9-0.1 0-0.2 0.1-0.1 0.1 0q-0.1 0.1-0.1 0.3c-0.2 0.6-0.4 0.8-0.6 0.8-0.4-0.1-0.6-0.6-0.6-0.8-0.1-1.1 0.4-2.1 0.5-2.4 0.1-0.2 0.2-0.1 0.1 0.1z"/>
		<path id="&lt;Path&gt;" class="s0" d="m10.9 6.5c0.1 0.3 0 0.7-0.1 0.9 0 0.2-0.2 0-0.3-0.1 0 0-0.1-0.1-0.3-0.2-0.5-0.5-0.7 0.4-0.8 0.8 0 0.3-0.1 1.3-0.1 1.9-0.1 0.2-0.2 0.2-0.3 0.1-0.4-1.3-1.1-1.9-1.2-2-0.1-0.1-0.2 0.1-0.2 0.1-0.1 0.1-0.1 0.1-0.2 0.1-0.1-0.1-0.5-0.3-0.6-0.5-0.1-0.1-0.1-0.6-0.1-0.8 0-0.3 0.3-0.4 0.4-0.3 1.4 0.8 1.9 2.2 1.9 2.4 0.1-1.1 0.2-2 0.7-2.7 0.5-0.6 1.2 0.2 1.2 0.3z"/>
		<path id="&lt;Path&gt;" class="s0" d="m30.7 5.8c-0.1 0.2-0.1 0.2-0.2 0.4-0.1 0.2-0.3 0.3-0.5 0.4-0.2 0.1-10.7 4.5-10.8 4.5-0.5 0.2-0.4 0.1-0.3 0q0-0.1 0.1-0.4c0.1-0.2 0.1-0.3 0.4-0.4 0.3-0.1 10.7-4.5 11-4.6 0.4-0.2 0.4 0 0.3 0.1z"/>
		<path id="&lt;Path&gt;" class="s0" d="m22.4 5.6c0 0.2-0.1 0.2-0.2 0.4-0.1 0.2-0.2 0.3-0.5 0.4-0.2 0.1-10.6 4.5-10.8 4.5-0.4 0.2-0.4 0.1-0.3 0q0-0.1 0.1-0.4c0.1-0.2 0.2-0.3 0.5-0.4 0.3-0.1 10.6-4.5 10.9-4.6 0.5-0.2 0.4 0 0.3 0.1z"/>
		<path id="&lt;Path&gt;" class="s0" d="m50.9 5.6c-0.1 0.1-0.1 0.2-0.2 0.3 0 0.2-0.2 0.3-0.3 0.4-0.2 0.1-5.9 3.4-6 3.4-0.3 0.3-0.3 0.1-0.3 0q0.1 0 0.1-0.3c0-0.2 0.1-0.2 0.3-0.4 0.3-0.1 5.9-3.3 6.1-3.5 0.4-0.2 0.3 0 0.3 0.1z"/>
		<path id="&lt;Path&gt;" class="s0" d="m57.7 5.9c0.2 0.3 0.1 0.7-0.1 1 0 0.2-0.2 0-0.3-0.2 0 0-0.1-0.1-0.3-0.2-0.5-0.5-0.8 0.4-0.8 0.9-0.1 0.3-0.1 1.4-0.2 2 0 0.2-0.2 0.2-0.3 0-0.4-1.3-1.1-1.9-1.2-2-0.2-0.2-0.3 0-0.3 0.1 0 0.1-0.1 0.1-0.2 0.1 0-0.1-0.5-0.4-0.6-0.5-0.1-0.1-0.1-0.6-0.1-0.8 0-0.4 0.3-0.5 0.4-0.5 1.5 0.9 2 2.4 2.1 2.6 0-1.1 0.1-2.1 0.7-2.8 0.5-0.7 1.2 0.2 1.2 0.3z"/>
		<path id="&lt;Compound Path&gt;" fill-rule="evenodd" class="s0" d="m63.3 8.3c-0.1 0.2-0.1 0.1-0.2-0.1-0.1-0.1-0.3-0.2-0.5-0.3-0.2 0.5-0.2 0.5-1.1 1.3-2.1 1.8-4.4 2.4-4.5 2.5-0.1 0-0.2-0.1 0-0.2 0.7-0.6 3.7-1.9 5.3-3.8 0 0-0.5-0.2-0.9-0.4-0.3-0.3-0.1-1.1 0.1-1.4 0.6-0.9 1.1-0.5 1.2-0.3 0.5 0.8 0.2 1.7 0.2 1.7 0.3 0.1 0.6 0.5 0.4 1zm-1-2.2c-0.1-0.1-0.2-0.1-0.5 0.3-0.1 0.2 0 0.3 0.2 0.4 0.2 0.1 0.6 0.3 0.6 0.3 0-0.2 0.1-0.7-0.3-1z"/>
		<path id="&lt;Compound Path&gt;" fill-rule="evenodd" class="s0" d="m34.3 17.4c0 2.1-1.5 2.4-1.8 2.5-2.6 0.5-3.3-1.1-3.5-1.5-4.9 2.3-8.5 1.2-9.1 1.1 0 0.2 0 1.2-0.1 1.6 0 0.3-0.3 0.4-0.5 0.3-1.9-0.4-1.9-2.3-2-2.8-1.5-0.2-3.4 0.8-4.8 1.7-0.8 0.6-2.3 1.9-2.6 2.2-1.9 1.7-2.7 1.7-3.1 1.6-1.9-0.3-1.9-2.3-1.7-3.4 0.3-1.3 1.2-2.7 1.7-3.5-0.5-0.1-0.7-0.9-0.7-1.3-0.1-2.1 0.6-3.8 0.8-4.3 0.2-0.5 0.3-0.3 0.2 0.1 0 0-0.2 0.6-0.3 0.9-0.5 1.9-0.2 2.8-0.2 2.9 0.5 1 1.1 0.5 1.3-0.2 0.1-0.4 0.2-0.2 0.2 0q0 0.1-0.1 0.6c-0.2 0.6-0.4 1-0.6 1.2-0.1 0.2-0.8 1.3-1.2 1.9-1.4 2.4-0.6 3.5-0.2 3.7 0.6 0.4 1.3 0.2 1.8 0 0.6-0.3 1.2-0.9 1.9-1.5 1-0.9 2.5-2.2 4-3 1.6-0.8 3.8-0.9 3.8-0.9 0.1-0.1 0.1-0.4 0.4-0.6 1.5 1.8 4.4 1.8 4.8 1.9 3.4 0.1 5.8-1.3 5.8-1.3-0.9-2.1 0.1-3.5 0.6-3.9 0.6-0.3 1.6-0.4 2 1.6 0.2 2-1.2 2.7-1.4 2.8 1.1 1.7 3.4 0.6 3.8 0.4 0.5-0.3 0.3-0.4 0.3-0.7 0-0.3-1.4-8.6-1.4-8.6-0.1-0.8-0.2-1.5-0.2-1.9-0.1-0.5-0.2-0.7-0.2-0.8 0 0 0.4-1 0.4-1.1 0.1-0.1 0.1 0 0.2 0.1 0 0.1 1.3 3.3 1.4 3.5 0.1 0.1-0.1 0.2-0.2 0.1-0.1-0.1-0.7-0.7-0.7-0.7 0 0 0.9 5.9 1 6.3 0.1 0.5 0.3 2.1 0.2 3zm-15.2 2.5c0-0.6-0.7-1.1-0.7-1.1 0 1 0.7 1.1 0.7 1.1zm11.4-4.2c-0.5-1.3-1.2-1.2-1.4-1.1-0.3 0.1-0.5 0.5-0.4 0.9 0.1 1.2 0.6 1.4 0.6 1.4 0.2-0.1 1.3-0.8 1.2-1.2z"/>
		<path id="&lt;Path&gt;" class="s0" d="m35.6 5.2c0.1 0.1 1.4 3.3 1.4 3.5 0.1 0.1 0 0.2-0.1 0.1-0.1-0.1-0.8-0.7-0.8-0.7 0 0 1.1 7.7 1.2 8.1 0.7 4.6 0.1 5.9 0 6.1-0.1 0.1-0.2 0.1-0.2-0.1 0-1.9-1.1-8.7-1.1-9.1-0.1-0.4-0.8-6.4-0.9-7 0 0 0.3-0.9 0.4-1 0-0.1 0.1 0 0.1 0.1z"/>
		<path id="&lt;Compound Path&gt;" fill-rule="evenodd" class="s0" d="m42 8c0 0.2-0.1 0.1-0.2-0.1-0.1 0-0.5-0.4-0.5-0.4 0 0-0.4 1-1.2 1.6-1.4 1.1-2.6 1.2-2.6 1.3-0.2 0-0.2-0.1 0-0.3 0.9-0.5 2-0.8 3.5-2.7 0 0-0.5-0.2-0.8-0.4-0.4-0.3-0.2-1.1 0-1.4 0.6-1 1.1-0.5 1.2-0.4 0.5 0.9 0.3 1.8 0.3 1.8 0.2 0.1 0.5 0.5 0.3 1zm-1-2.2c-0.1-0.1-0.2-0.1-0.5 0.3-0.1 0.2 0 0.3 0.2 0.4 0.2 0 0.6 0.3 0.6 0.3 0-0.2 0.1-0.7-0.3-1z"/>
	</g>
</svg>