<svg version="1.2" xmlns="http://www.w3.org/2000/svg" viewBox="0 0 70 30" width="70" height="30">
	<title>New Project</title>
	<style>
		.s0 { fill: #191c4f } 
	</style>
	<g id="الرحمن">
		<path id="&lt;Path&gt;" class="s0" d="m17.7 21.6c0 0-0.1 0.2-0.2 0.4-0.3 0.9-0.1 1.3-0.1 1.4 0.3 0.4 0.6 0.2 0.7-0.1 0.1-0.2 0.2-0.1 0.1-0.1q0 0.1 0 0.3c-0.2 0.6-0.4 0.7-0.6 0.7-0.3 0-0.4-0.5-0.5-0.7 0-0.9 0.4-1.8 0.5-2 0.1-0.2 0.2-0.1 0.1 0.1z"/>
		<path id="&lt;Path&gt;" class="s0" d="m21.6 21.3c0 0 0 0.3-0.1 0.5-0.3 0.8-0.1 1.2-0.1 1.3 0.3 0.5 0.6 0.2 0.7-0.1 0.1-0.2 0.1-0.1 0.1 0q0 0.1-0.1 0.3c-0.1 0.5-0.3 0.6-0.5 0.6-0.3 0-0.5-0.4-0.5-0.6-0.1-1 0.3-1.8 0.4-2 0.1-0.3 0.2-0.2 0.1 0z"/>
		<path id="&lt;Path&gt;" class="s0" d="m64 20c0 0 0.1 0.3 0.1 0.5 0 0.2-0.2 0.6-0.3 0.9-0.1 0.3-0.8 0.5-1.2 0.2-0.8 1.1-1.5 0.5-1.9 0.4-0.6-0.3-0.8 0.2-1 0.4-0.9 0.9-2.5 0.9-2.8 0.9-0.4 0.1-0.1-0.2 0.1-0.2 1.2-0.5 2-0.5 3.1-1.6 0.5-0.5 0.8-0.2 1-0.2 1 0.5 1.2 0 1.3-0.1 0.1-0.1 0.3-0.7 0.4-0.8 0.1-0.2 0.2-0.1 0.1 0.1 0 0.1-0.1 0.3-0.1 0.4 0.5 0.3 0.9 0 1-0.1 0 0-0.1-0.3-0.1-0.4q0-0.2 0.2-0.6c0.1-0.2 0.1 0 0.1 0.2z"/>
		<path id="&lt;Path&gt;" class="s0" d="m35.9 19.4c0 0-0.1 0.3-0.2 0.5-0.4 1-0.2 1.5-0.2 1.6 0.3 0.5 0.7 0.2 0.9-0.1 0.1-0.2 0.2-0.1 0.1 0q0 0.1-0.1 0.3c-0.2 0.6-0.5 0.7-0.7 0.7-0.4 0-0.6-0.5-0.6-0.8 0-1.1 0.5-2 0.6-2.3 0.2-0.3 0.3-0.2 0.2 0.1z"/>
		<path id="&lt;Path&gt;" class="s0" d="m28.5 18.3c0 0-0.1 0.2-0.1 0.4-0.3 0.9-0.2 1.3-0.1 1.4 0.2 0.4 0.5 0.2 0.7-0.1 0-0.2 0.1-0.1 0.1 0q-0.1 0-0.1 0.2c-0.2 0.6-0.4 0.7-0.6 0.7-0.3 0-0.4-0.4-0.4-0.7-0.1-0.9 0.3-1.7 0.4-2 0.1-0.2 0.2-0.1 0.1 0.1z"/>
		<path id="&lt;Path&gt;" class="s0" d="m9.1 19.1c0 0-0.1 0.2-0.1 0.4-0.3 0.9-0.2 1.3-0.1 1.4 0.2 0.4 0.5 0.2 0.7-0.1 0-0.2 0.1-0.1 0.1 0q0 0-0.1 0.2c-0.1 0.6-0.4 0.7-0.5 0.7-0.4 0-0.5-0.4-0.5-0.7-0.1-0.9 0.3-1.7 0.4-2 0.1-0.2 0.2-0.1 0.1 0.1z"/>
		<path id="&lt;Path&gt;" class="s0" d="m10.7 17.6l1 0.8q0.1 0 0 0l-0.6 0.9q0 0-0.1 0l-1-0.8q-0.1 0 0 0l0.6-0.9q0 0 0.1 0z"/>
		<path id="&lt;Compound Path&gt;" fill-rule="evenodd" class="s0" d="m44.7 18.5c-0.3 1.1-1.8 1.6-2.1 1.7-1.3 0.5-1.4-0.8-1.3-1.8 0.1-0.9 0.8-2.2 0.8-2.2-0.1 0-1.5-1.1-1.6-1.2-0.1-0.1-0.2-0.3-0.4-0.3-0.1-0.1-0.1-0.2-0.1-0.2 0 0 0.1-1 0.1-1.1 0-0.1 0 0 0.1 0 0.1 0.1 1.6 0.6 1.8 0.7 0.1 0.1 0.1 0.2 0 0.2-0.1 0.1-0.6 0.2-0.6 0.2l1.2 0.9c0 0 1.7-2.2 1.9-2.5 0.2-0.2 0.2-0.1 0.1 0.2 0 0.2-0.3 1.1-0.4 1.3-0.1 0.1-1 1.3-1 1.3 0 0 1.2 0.7 1.4 1.1 0.5 0.7 0.2 1.4 0.1 1.7zm-2.1-1.9c0 0-0.8 1.3-0.9 1.5-0.3 0.8 0.4 0.9 0.7 0.9 0.3 0 1.3-0.5 1.8-0.9 0.5-0.4-1.3-1.4-1.6-1.5z"/>
		<path id="&lt;Path&gt;" class="s0" d="m9.6 12.3c0 0-0.1 0.3-0.1 0.4-0.3 0.9-0.2 1.3-0.1 1.4 0.2 0.4 0.5 0.2 0.7-0.1 0-0.2 0.1-0.1 0.1 0q-0.1 0.1-0.1 0.2c-0.2 0.6-0.4 0.7-0.5 0.7-0.4 0-0.5-0.4-0.5-0.7-0.1-0.9 0.3-1.7 0.4-2 0.1-0.2 0.2-0.1 0.1 0.1z"/>
		<path id="&lt;Compound Path&gt;" fill-rule="evenodd" class="s0" d="m30.9 16.1c-0.1 0.1-0.4 0.6-0.6 0.9-3.7-1-8 0.4-8.2 0.5 0.6 0.6 0.7 1.2 0.7 1.5-0.1 1.7-1 1.6-1.2 1.6-1.2-0.1-1.7-1.2-1.9-1.5-0.1-0.2-0.3-1.1-0.4-0.9-0.9 2.1-3.1 1.4-3.2 1.3 0 0-0.1 0.5-0.2 1-0.1 0.3-0.2 0.7-0.3 0.9-0.5 0.7-1.5 1.3-1.6 1.3-4.3 2.4-6.3 1.6-7.1 1.3-3.5-1.6-1.2-6.1-0.8-6.6-0.6-0.1-0.8-0.9-0.7-1.4 0-1.8 0.7-3.4 0.9-3.8 0.2-0.5 0.3-0.3 0.2 0.1 0 0-0.2 0.5-0.3 0.8-0.6 1.7-0.4 2.5-0.3 2.7 0.3 0.9 0.9 0.5 1.2-0.2 0.1-0.3 0.2-0.1 0.1 0q0 0.2-0.1 0.5c-0.2 0.8-0.5 1.1-0.7 1.2q0 0.1-0.1 0.1c-1.3 2.4-0.5 3.8-0.4 4.1 0.9 1.8 3.1 1.6 3.7 1.6 2.4-0.3 4.2-1.3 5.1-1.9 0.2-0.1 0.9-0.6 0.8-1.2 0-0.2-0.7-2-0.8-2.4-0.1-0.5 0.1-1.1 0.2-1.2 0.1-0.1 0.1 0 0.2 0.2 0.6 1.6 1.8 1.8 2.2 1.9 1 0 1.9-0.9 2.3-1.4 0.5-0.4 0.9-0.5 1.1-0.5 0.3-0.1 4.7-0.9 4.7-0.9-0.2 0-1.6-0.7-2.1-0.8-0.2-0.1-0.3 0-0.3 0l-2.8-0.3c0 0 0.3-0.7 0.3-0.8 0.1-0.1 0.1-0.1 0.2-0.1 0.1-0.1 0.7-0.3 1.1-0.4 0.4-0.1 1-0.1 1.2 0.1 0.3 0.1 2.8 1.1 3.2 1.3 1.3 0.4 4.5 1.1 4.6 1.2 0.2 0 0.2 0.1 0.1 0.2zm-9 3c-0.1-0.2-0.3-0.6-1.2-1.1-0.2-0.1-0.3-0.1-0.4 0-0.2 0.2 0 0.4 0.1 0.5 0.2 0.3 0.6 0.6 1.4 0.8 0.1 0 0.2 0.1 0.1-0.2z"/>
		<path id="&lt;Compound Path&gt;" fill-rule="evenodd" class="s0" d="m65.6 17.3c-0.1 0.3-0.3 1.2-1.7 1-0.4-0.1-1.1-0.3-1.4-1-0.3 0.4-1.1 1.7-2.7 1.5-0.3-0.1-1.4-0.5-1.5-1.9 0 0-1.3 1.1-1.9 1.4 0.1 0.5 0.1 1.1-0.2 1.7-0.2 0.6-3 3.8-5.3 4.3-0.8 0.2-3.7 0.7-3.8-2.6 0-0.6 0-1.2 0.1-1.5-1.8 1.4-4 2.4-4.6 2.7-0.9 0.5-4.3 1.1-4.9 1.2-0.3 0-0.4-0.1-0.2-0.2 0.3-0.1 7.6-2.6 11.5-6.7q0.1-0.2-0.1-0.5c-0.1-0.2-1.3-2.5-1.4-2.8-0.1-0.3-0.2-0.6-0.3-0.7q-0.1-0.2 0-0.4c0-0.1 0.1-0.7 0.1-0.9 0.1-0.1 0.1-0.1 0.2 0 0.1 0.1 1.3 1.3 1.4 1.5 0.2 0.2 0.1 0.2 0 0.2-0.1 0-0.6 0-0.6 0 0 0 0.8 1.4 1 1.8 0.5 1.2 0.2 2 0.1 2.4-0.4 0.7-1.1 1.4-1.8 2-0.1 0.6-0.4 3.3 2.1 3.4 0.4 0 1.7 0.1 4.2-1.9 0.6-0.5 1.2-1.1 1.8-1.9 0.2-0.3 0.4-0.8 0-0.8-0.5 0.1-3.1 1-3.4-0.6-0.1-0.4 0.1-4.1 2.6-2.2 0.3 0.1 0.8 0.6 1.2 1.3 0.4-0.2 1.2-0.7 2.2-1.5 0.3-0.2 0.5-0.3 0.5 0 0 0.4-0.2 2.5 2.2 1.9 0.2-0.1 1.2-0.3 1.9-2.1 0.2-0.5 0.5-0.4 0.4 0-0.2 0.4-0.5 0.8-0.2 1 0.2 0.3 0.9 0.7 1.7 0.6 0.3 0 0.4-0.1 0.3-0.4-0.1-0.2-0.3-0.7-0.3-0.7 0-0.3 0.1-0.8 0.2-0.9 0-0.1 0.1-0.2 0.2-0.1 0.1 0.1 0.8 1.1 0.4 2.4zm-10.6 0.1c-0.9-1.1-1.9-0.4-2-0.3-0.1 0.1-0.2 0.4 0.7 0.5 0.9 0 1.3-0.2 1.3-0.2z"/>
		<path id="&lt;Path&gt;" class="s0" d="m16.5 11.8c1.8 2.1 1.1 4.7 0.9 5-0.1 0.2-0.2 0.2-0.1-0.1 0.3-2.6-1.1-4.3-1.2-4.5 0 0 0.1-0.4 0.2-0.5 0-0.1 0-0.2 0.2 0.1z"/>
		<path id="&lt;Path&gt;" class="s0" d="m32.5 10.9c0 0 0.1 0.5 0.3 0.8 0.1 0.2 0.2 0.5 0.1 0.9 0 0.4-0.2 0.7-0.4 0.8-0.3 0.1-0.7 0.1-1-0.4-0.3 0.7-0.8 0.9-1.2 0.7-0.3-0.1-0.3-0.7-0.3-0.9 0-0.1 0-0.7 0-0.8 0-0.1 0-0.2 0.1-0.4 0.1-0.1 0.1-0.1 0.1 0.1 0 0.2 0 0.9 0.1 1.2 0.3 0.5 1 0.1 1.1-0.2 0.1-0.2-0.2-1-0.2-1.1q0 0 0-0.1c0 0 0-0.3 0.1-0.4q0-0.2 0.1 0c0.1 0.1 0.1 0.4 0.2 1.1 0.2 0.7 0.9 0.6 1 0.5 0.2-0.1 0.2-0.2 0.1-0.2 0-0.1-0.3-0.7-0.4-1-0.1-0.3-0.1-0.4 0-0.7 0.1-0.2 0.1 0 0.2 0.1z"/>
		<path id="&lt;Path&gt;" class="s0" d="m41.7 10.6l1 0.7 0.5-0.7q0 0 0.1 0l1 0.7q0.1 0.1 0.1 0.1l-0.7 0.9q0 0 0 0l-1.1-0.8-0.5 0.8q0 0-0.1 0l-1-0.8q-0.1 0 0-0.1l0.6-0.8q0 0 0.1 0z"/>
		<path id="&lt;Path&gt;" class="s0" d="m62.9 10.6c0 0-0.1 0.3-0.1 0.5-0.4 0.9-0.2 1.3-0.1 1.4 0.2 0.5 0.6 0.2 0.7-0.1 0.1-0.2 0.1-0.1 0.1 0q0 0.1-0.1 0.3c-0.1 0.5-0.4 0.7-0.5 0.7-0.4-0.1-0.5-0.5-0.6-0.7 0-1 0.4-1.9 0.5-2.1 0.1-0.3 0.2-0.2 0.1 0z"/>
		<path id="&lt;Path&gt;" class="s0" d="m13 10.7c0 0-0.1 0.4-0.2 0.7-0.6 1.6-0.3 2.3-0.2 2.5 0.3 0.8 0.9 0.4 1.1-0.2 0.1-0.3 0.2-0.1 0.2 0q-0.1 0.1-0.1 0.5c-0.3 0.9-0.7 1.1-1 1.1-0.5 0-0.8-0.8-0.8-1.2 0-1.7 0.7-3.1 0.9-3.5 0.1-0.5 0.3-0.3 0.1 0.1z"/>
		<path id="&lt;Path&gt;" class="s0" d="m52.5 10.1c0 0-0.1 0.3-0.2 0.5-0.3 1-0.1 1.4-0.1 1.5 0.3 0.5 0.7 0.3 0.8-0.1 0.1-0.2 0.1-0.1 0.1 0q0 0.1-0.1 0.3c-0.1 0.6-0.4 0.7-0.6 0.7-0.4 0-0.5-0.5-0.5-0.7-0.1-1.1 0.3-2 0.5-2.3 0.1-0.2 0.2-0.1 0.1 0.1z"/>
		<path id="&lt;Path&gt;" class="s0" d="m24.2 9.5c0.6 0.1 0.5 0.4 0.3 0.6-0.4 0.7-1.1 1-1.5 1.2-0.5 0.2-0.2-0.2 0-0.4 0 0 0.3-0.1 0.7-0.4 0.4-0.3-0.7-0.3-1.1-0.3-0.5 0-0.6 0.2-0.7 0.3-0.2 0.2-0.4 0.1-0.2-0.1 0.1-0.2 0.2-0.4 0.5-0.8 0.3-0.3 1.3-0.2 2-0.1z"/>
		<path id="&lt;Path&gt;" class="s0" d="m32.9 8.1c0 0.1-0.1 0.1-0.2 0.3 0 0.2-0.2 0.3-0.4 0.4-0.1 0.1-5.2 2-5.8 2.4-0.7 0.4-0.7 0.6-0.5 0.7 0.5 0.2 0.7 0.5 0.4 1-0.1 0.1-0.1 0.1-0.1 0-0.1 0-0.2-0.2-0.4-0.3-0.4 0-0.5-0.6-0.3-1.1 0.1-0.3 0.3-0.6 0.6-0.8 0.6-0.4 6.3-2.6 6.4-2.7 0.4-0.2 0.4 0 0.3 0.1z"/>
		<path id="&lt;Path&gt;" class="s0" d="m11.5 6.4c0.1 0.2 0 0.6-0.1 0.9-0.1 0.1-0.2 0-0.3-0.2 0 0-0.1-0.1-0.3-0.2-0.5-0.5-0.7 0.4-0.7 0.8-0.1 0.3-0.1 1.3-0.2 1.8 0 0.3-0.2 0.2-0.3 0.1-0.3-1.2-1-1.8-1.1-1.9q-0.1 0-0.1 0 0.1 0.1 0.1 0.4c-0.3 1.5-1.8 2.1-2.1 2.3-0.2 0.1-0.2 0.1 0-0.2 0.3-0.3 1.4-1.5 1.7-1.8 0.5-0.5-0.5-0.8-0.6-1-0.1-0.1-0.1-0.5-0.1-0.7 0.1-0.4 0.3-0.5 0.4-0.4 1.4 0.8 1.8 2.2 1.9 2.4 0.1-1.1 0.1-2 0.6-2.7 0.5-0.5 1.1 0.3 1.2 0.4z"/>
		<path id="&lt;Path&gt;" class="s0" d="m51.6 5.8c-0.1 0.1-0.1 0.2-0.2 0.4 0 0.1-0.2 0.2-0.3 0.3-0.2 0.1-5.7 3.3-5.8 3.3-0.3 0.2-0.3 0.1-0.2 0q0 0 0-0.3c0.1-0.2 0.1-0.2 0.4-0.4 0.2-0.1 5.6-3.2 5.8-3.3 0.3-0.2 0.3-0.1 0.3 0z"/>
		<path id="&lt;Path&gt;" class="s0" d="m58.2 6.2c0.1 0.2 0 0.6-0.1 0.9 0 0.1-0.2 0-0.3-0.2 0 0-0.1-0.1-0.3-0.2-0.5-0.5-0.7 0.4-0.8 0.9 0 0.3-0.1 1.3-0.2 1.9 0 0.2-0.2 0.2-0.2 0-0.4-1.2-1.1-1.8-1.3-2-0.1-0.1-0.2 0.1-0.2 0.2 0 0.1-0.1 0.1-0.2 0 0 0-0.4-0.3-0.6-0.4-0.1-0.2-0.1-0.6-0.1-0.8 0.1-0.4 0.3-0.5 0.4-0.4 1.5 0.8 1.9 2.2 2 2.5 0.1-1.1 0.1-2.1 0.7-2.8 0.5-0.6 1.1 0.3 1.2 0.4z"/>
		<path id="&lt;Compound Path&gt;" fill-rule="evenodd" class="s0" d="m63.6 8.5c-0.1 0.1-0.1 0-0.2-0.1-0.1-0.1-0.3-0.3-0.5-0.4-0.2 0.5-0.2 0.5-1.1 1.3-2 1.8-4.2 2.4-4.3 2.4-0.1 0-0.2-0.1 0-0.2 0.7-0.5 3.6-1.8 5.1-3.6 0 0-0.5-0.2-0.8-0.4-0.3-0.3-0.1-1.1 0.1-1.4 0.5-0.9 1-0.5 1.1-0.3 0.5 0.8 0.2 1.6 0.2 1.6 0.3 0.2 0.6 0.5 0.4 1.1zm-1-2.2c-0.1-0.1-0.2-0.1-0.5 0.3-0.1 0.2 0 0.3 0.2 0.4 0.2 0 0.6 0.2 0.6 0.2 0-0.1 0.1-0.6-0.3-0.9z"/>
		<path id="&lt;Path&gt;" class="s0" d="m14.3 5.7c0 0-0.1 0.3-0.1 0.5-0.4 1.1-0.1 1.6-0.1 1.7 0.4 0.6 0.8 0.3 1-0.2 0-0.2 0.1-0.1 0.1 0q0 0.1 0 0.4c-0.2 0.6-0.5 0.8-0.8 0.8-0.4 0-0.7-0.5-0.7-0.8-0.1-1.2 0.4-2.2 0.5-2.5 0.1-0.3 0.2-0.2 0.1 0.1z"/>
		<path id="&lt;Path&gt;" class="s0" d="m29.8 5.6c0 0-0.1 0.2-0.2 0.4-0.3 0.9-0.1 1.3-0.1 1.4 0.3 0.4 0.6 0.2 0.7-0.2 0.1-0.1 0.1 0 0.1 0q0 0.1 0 0.3c-0.2 0.5-0.4 0.7-0.6 0.7-0.3 0-0.5-0.5-0.5-0.7 0-0.9 0.4-1.8 0.5-2 0.1-0.2 0.1-0.1 0.1 0.1z"/>
		<path id="&lt;Path&gt;" class="s0" d="m34.1 5.4c0.1 0.1 1.1 2.9 1.2 3.1 0.1 0.2-0.1 0.2-0.2 0.1-0.1-0.1-0.5-0.4-0.5-0.4 0 0 0.9 6.3 1 7.2 0.1 1.2 0 1.9-0.1 2.2-0.4 1.1-1.9 1.2-2.4 1.3 0.2 2.8-2.6 4.1-3 4.3-4.5 2-5.2-0.2-5.4-1-0.5-1.4 0.5-4.3 0.8-5 0.3-0.7 0.6-0.5 0.4 0.1-0.4 0.9-0.7 2-0.7 2.4-0.4 1.7 0.1 3.7 3 3 2.1-0.5 3.8-2 4.1-2.3 0.4-0.4 0.2-0.9 0.2-1-0.1-0.6-0.5-1.6-0.6-1.8-0.1-0.3 0.2-1 0.3-1.1q0.1-0.2 0.1-0.1c0 0.1 0.2 0.6 0.3 0.7 0.6 0.8 2 0.3 2.3 0.1 0.2-0.1 0.1-0.8 0.1-1.2 0-0.4-1-7.1-1-7.1-0.1-0.7-0.2-1.3-0.3-1.8-0.1-0.4-0.2-0.6-0.2-0.7 0 0 0.4-0.9 0.5-1 0-0.2 0.1-0.1 0.1 0z"/>
		<path id="&lt;Path&gt;" class="s0" d="m37.2 5.4c0.1 0.1 1.4 3.2 1.4 3.4 0.1 0.1 0 0.2-0.1 0.1-0.1-0.1-0.8-0.7-0.8-0.7 0 0 0.8 6 0.8 6.3 0.7 4.5 0.1 5.7 0 5.9-0.1 0.2-0.1 0.1-0.1-0.1-0.1-1.8-1.1-8.4-1.1-8.8-0.1-0.4-0.5-4.6-0.5-5.2 0 0 0.3-0.8 0.3-0.9 0.1-0.2 0.1-0.1 0.1 0z"/>
		<path id="&lt;Compound Path&gt;" fill-rule="evenodd" class="s0" d="m43 8.2c0 0.1-0.1 0-0.2-0.1-0.1-0.1-0.4-0.4-0.4-0.4 0 0-0.5 0.9-1.2 1.5-1.4 1-2.5 1.2-2.6 1.2-0.1 0.1-0.2-0.1 0.1-0.2 0.8-0.5 1.8-0.8 3.3-2.6 0 0-0.5-0.2-0.8-0.5-0.3-0.2-0.1-1 0.1-1.3 0.6-0.9 1.1-0.5 1.1-0.3 0.5 0.8 0.3 1.6 0.3 1.6 0.2 0.2 0.5 0.5 0.3 1.1zm-0.9-2.2c-0.1-0.1-0.3-0.1-0.6 0.3-0.1 0.2 0 0.3 0.2 0.4 0.2 0 0.6 0.2 0.6 0.2 0-0.1 0.1-0.6-0.2-0.9z"/>
		<path id="&lt;Path&gt;" class="s0" d="m26 5.2c-0.1 0.1-0.1 0.2-0.2 0.3-0.1 0.2-0.3 0.3-0.5 0.4-0.2 0.1-9.6 4.1-9.7 4.1-0.4 0.2-0.4 0.1-0.3-0.1q0 0 0.1-0.3c0.1-0.2 0.1-0.2 0.4-0.3 0.3-0.1 9.6-4.1 9.9-4.2 0.4-0.2 0.3-0.1 0.3 0.1z"/>
	</g>
</svg>