<svg version="1.2" xmlns="http://www.w3.org/2000/svg" viewBox="0 0 70 30" width="70" height="30">
	<title>New Project</title>
	<style>
		.s0 { fill: #191c4f } 
	</style>
	<g id="الواقعة">
		<path id="&lt;Path&gt;" class="s0" d="m14.1 21.8c0 0.1-0.1 0.1-0.1 0.3-0.1 0.1-0.2 0.2-0.4 0.3-0.2 0.1-3.6 1.5-3.8 1.5-0.3 0.2-0.3 0.1-0.2 0q0 0 0-0.3c0.1-0.1 0.1-0.2 0.4-0.3 0.2-0.1 3.7-1.5 3.9-1.6 0.3-0.1 0.3-0.1 0.2 0.1z"/>
		<path id="&lt;Path&gt;" class="s0" d="m27.2 21.4c-0.1 0.1-0.1 0.2-0.2 0.3 0 0.2-0.1 0.2-0.3 0.3-0.2 0.1-3.2 1.4-3.3 1.5-0.3 0.2-0.3 0-0.3-0.1q0.1 0 0.1-0.2c0.1-0.2 0.1-0.2 0.3-0.3 0.3-0.2 3.3-1.5 3.5-1.6 0.3-0.1 0.2 0 0.2 0.1z"/>
		<path id="&lt;Path&gt;" class="s0" d="m18.9 20.9c0 0 0 0.3-0.1 0.4-0.3 1-0.1 1.4 0 1.5 0.3 0.4 0.6 0.2 0.8-0.2 0-0.2 0.1-0.1 0.1 0q0 0.1-0.1 0.3c-0.1 0.6-0.4 0.7-0.6 0.7-0.4 0-0.6-0.4-0.6-0.6-0.1-1 0.3-1.9 0.4-2.2 0.1-0.2 0.2-0.1 0.1 0.1z"/>
		<path id="&lt;Path&gt;" class="s0" d="m37.8 20.2c0 0-0.1 0.2-0.2 0.4-0.2 0.8-0.1 1.2 0 1.3 0.2 0.4 0.5 0.2 0.6-0.1 0.1-0.2 0.1-0.1 0.1 0q0 0-0.1 0.2c-0.1 0.5-0.3 0.6-0.5 0.6-0.3 0-0.4-0.4-0.4-0.6-0.1-0.9 0.3-1.6 0.4-1.9 0.1-0.2 0.1-0.1 0.1 0.1z"/>
		<path id="&lt;Path&gt;" class="s0" d="m64.2 19.8c0 0 0 0.3 0 0.5 0 0.2-0.1 0.5-0.2 0.8-0.1 0.3-0.8 0.4-1.2 0.2-0.7 1.1-1.4 0.5-1.7 0.4-0.7-0.3-0.9 0.1-1 0.3-0.8 0.9-2.3 0.9-2.7 0.9-0.3 0.1 0-0.2 0.1-0.2 1.2-0.4 1.9-0.5 2.9-1.5 0.5-0.4 0.8-0.2 1-0.2 0.9 0.5 1.1 0.1 1.2-0.1 0.1-0.1 0.3-0.6 0.4-0.8 0.1-0.1 0.1 0 0.1 0.2 0 0-0.1 0.2-0.1 0.3 0.4 0.3 0.8 0.1 0.9 0 0 0 0-0.3 0-0.4q0-0.2 0.1-0.5c0.1-0.3 0.1-0.1 0.2 0.1z"/>
		<path id="&lt;Path&gt;" class="s0" d="m15.5 13.9c0 0-0.1 0.3-0.2 0.4-0.2 0.9-0.1 1.3 0 1.3 0.2 0.4 0.5 0.2 0.6-0.1 0.1-0.1 0.1-0.1 0.1 0q0 0.1-0.1 0.3c-0.1 0.5-0.3 0.6-0.5 0.6-0.3 0-0.4-0.4-0.4-0.6-0.1-0.9 0.3-1.7 0.4-1.9 0.1-0.2 0.1-0.1 0.1 0z"/>
		<path id="&lt;Path&gt;" class="s0" d="m6.5 13.6c0 0 0 0.3-0.1 0.5-0.3 1-0.1 1.4 0 1.5 0.3 0.5 0.7 0.2 0.8-0.2 0.1-0.2 0.1-0.1 0.1 0q0 0.1 0 0.3c-0.2 0.6-0.5 0.8-0.7 0.8-0.4 0-0.6-0.5-0.6-0.7-0.2-1.1 0.3-2 0.4-2.3 0.1-0.3 0.2-0.2 0.1 0.1z"/>
		<path id="&lt;Path&gt;" class="s0" d="m11.1 13.2l1 0.8q0 0 0 0l-0.6 0.8q0 0.1 0 0l-1-0.7-0.5 0.7q0 0.1-0.1 0l-0.9-0.7q-0.1 0-0.1 0l0.6-0.8q0.1-0.1 0.1-0.1l1 0.7 0.5-0.6q0-0.1 0-0.1z"/>
		<path id="&lt;Compound Path&gt;" fill-rule="evenodd" class="s0" d="m46.1 18.4c-0.3 1-1.7 1.5-2 1.6-1.2 0.4-1.3-0.8-1.2-1.7 0.1-0.9 0.7-2 0.7-2-0.1-0.1-1.4-1.1-1.5-1.2-0.1-0.1-0.2-0.2-0.3-0.3-0.1 0-0.1-0.1-0.1-0.1 0 0 0-0.9 0-1 0-0.2 0.1-0.1 0.2-0.1 0.1 0.1 1.5 0.6 1.6 0.7 0.2 0.1 0.1 0.2 0 0.2 0 0-0.5 0.2-0.5 0.2l1.1 0.8c0 0 1.6-2.1 1.8-2.3 0.1-0.2 0.1-0.1 0.1 0.1 0 0.2-0.3 1.1-0.4 1.3-0.1 0.1-0.9 1.2-0.9 1.2 0 0 1.1 0.6 1.3 1 0.5 0.7 0.2 1.3 0.1 1.6zm-2-1.8c0 0-0.7 1.2-0.8 1.5-0.3 0.7 0.4 0.8 0.6 0.8 0.3 0 1.2-0.5 1.7-0.9 0.5-0.4-1.3-1.3-1.5-1.4z"/>
		<path id="&lt;Compound Path&gt;" fill-rule="evenodd" class="s0" d="m65.6 17.3c-0.1 0.2-0.3 1.1-1.6 0.9-0.3-0.1-1-0.2-1.3-0.9-0.3 0.4-1 1.6-2.5 1.4-0.3-0.1-1.3-0.5-1.4-1.8 0 0-1.2 1-1.8 1.3 0.1 0.5 0.1 1-0.2 1.6-0.2 0.6-2.8 3.5-4.9 4-0.7 0.2-3.5 0.7-3.6-2.4 0-0.6 0-1.1 0.1-1.4-1.7 1.3-3.7 2.3-4.3 2.6-0.9 0.4-4 0.9-4.5 1-0.4 0.1-0.5 0-0.2-0.2 0.2-0.1 7.1-2.4 10.7-6.2q0.1-0.2-0.1-0.4c-0.1-0.2-1.2-2.4-1.3-2.7-0.1-0.3-0.2-0.6-0.3-0.7q-0.1-0.2 0-0.3c0-0.1 0.1-0.7 0.1-0.9 0.1-0.1 0.1 0 0.2 0.1 0.1 0 1.2 1.2 1.3 1.3 0.2 0.2 0 0.2 0 0.2-0.1 0-0.6 0-0.6 0 0 0 0.7 1.3 1 1.8 0.4 1 0.2 1.8 0 2.2-0.3 0.6-0.9 1.3-1.6 1.9-0.1 0.5-0.4 3 2 3.1 0.3 0 1.5 0.1 3.9-1.8 0.5-0.5 1.1-1 1.7-1.7 0.2-0.3 0.3-0.8-0.1-0.8-0.4 0.1-2.8 1-3.2-0.5 0-0.4 0.2-3.9 2.5-2.2 0.2 0.2 0.8 0.6 1.1 1.3 0.4-0.2 1.1-0.6 2.1-1.4 0.2-0.2 0.5-0.3 0.5 0 0 0.3-0.2 2.4 2 1.8 0.2-0.1 1.2-0.3 1.8-2 0.2-0.4 0.5-0.4 0.3 0-0.1 0.4-0.4 0.8-0.2 1 0.3 0.2 0.9 0.6 1.7 0.5 0.2 0 0.4-0.1 0.3-0.3-0.1-0.3-0.4-0.7-0.4-0.7 0.1-0.3 0.2-0.7 0.2-0.9 0-0.1 0.1-0.2 0.2-0.1 0.1 0.1 0.8 1.1 0.4 2.3zm-9.9 0.1c-0.8-1-1.7-0.5-1.9-0.3-0.1 0.1-0.1 0.4 0.6 0.4 0.9 0.1 1.3-0.1 1.3-0.1z"/>
		<path id="&lt;Path&gt;" class="s0" d="m35.4 11.4c-0.1 0.1-0.1 0.2-0.2 0.3 0 0.2-0.1 0.2-0.3 0.3-0.2 0.1-2.7 1-2.9 1-0.3 0.2-0.2 0.1-0.2 0q0-0.1 0.1-0.3c0-0.2 0.1-0.2 0.3-0.3 0.3-0.1 2.7-1 3-1.1 0.3-0.1 0.2 0 0.2 0.1z"/>
		<path id="&lt;Path&gt;" class="s0" d="m26.9 11.2l0.9 0.7q0.1 0.1 0.1 0.1l-0.6 0.8q-0.1 0.1-0.1 0l-1-0.7-0.4 0.7q-0.1 0.1-0.1 0l-1-0.7q0 0 0-0.1l0.6-0.8q0 0 0 0l1 0.7 0.5-0.7q0 0 0.1 0z"/>
		<path id="&lt;Path&gt;" class="s0" d="m44.7 11l1 0.7q0.1 0 0 0.1l-0.5 0.8q-0.1 0-0.1 0l-1-0.7-0.5 0.7q0 0 0 0l-1-0.7q-0.1-0.1 0-0.1l0.5-0.8q0.1 0 0.1 0l1 0.7 0.5-0.7q0 0 0 0z"/>
		<path id="&lt;Path&gt;" class="s0" d="m22.4 11.4c0.2 0.1 0.2 0.5 0.1 0.7 0 0.2-0.2 0.1-0.3 0 0 0-0.1-0.1-0.2-0.2-0.5-0.3-0.5 0.4-0.5 0.8 0 0.3 0.1 1.1 0.1 1.6 0 0.2-0.1 0.2-0.2 0.1-0.4-1-1.1-1.4-1.2-1.5-0.1-0.1-0.1 0.1-0.1 0.1 0 0.1-0.1 0.1-0.2 0.1 0 0-0.4-0.2-0.5-0.3-0.1-0.1-0.1-0.5-0.1-0.7-0.1-0.3 0.1-0.4 0.2-0.3 1.2 0.5 1.7 1.6 1.8 1.8-0.1-0.9-0.2-1.7 0.2-2.4 0.3-0.6 0.9 0.1 0.9 0.2z"/>
		<path id="&lt;Path&gt;" class="s0" d="m63.1 11c0 0-0.1 0.3-0.1 0.5-0.3 0.8-0.2 1.2-0.1 1.3 0.2 0.4 0.5 0.2 0.6-0.1 0.1-0.2 0.2-0.1 0.1 0q0 0.1 0 0.2c-0.2 0.6-0.4 0.7-0.6 0.7-0.3 0-0.4-0.4-0.4-0.7-0.1-0.9 0.3-1.7 0.4-1.9 0.1-0.2 0.2-0.1 0.1 0z"/>
		<path id="&lt;Path&gt;" class="s0" d="m53.3 10.5c0 0 0 0.3-0.1 0.5-0.3 0.9-0.1 1.3-0.1 1.4 0.3 0.5 0.6 0.3 0.7-0.1 0.1-0.2 0.1-0.1 0.1 0q0 0.1 0 0.3c-0.2 0.6-0.4 0.7-0.6 0.7-0.4 0-0.5-0.5-0.5-0.7-0.1-1 0.3-1.9 0.4-2.1 0.1-0.3 0.2-0.2 0.1 0z"/>
		<path id="&lt;Path&gt;" class="s0" d="m9.9 8.3c0.1 0.2 0 0.5-0.1 0.8 0 0.1-0.2 0-0.3-0.2 0 0-0.1-0.1-0.2-0.2-0.5-0.4-0.7 0.4-0.7 0.8-0.1 0.3-0.1 1.2-0.2 1.7 0 0.2-0.2 0.2-0.2 0.1-0.3-1.2-1-1.7-1.1-1.8q0-0.1-0.1-0.1 0.1 0.2 0.1 0.5c-0.2 1.4-1.7 1.9-1.9 2.1-0.3 0.1-0.2 0.1 0-0.2 0.2-0.3 1.3-1.4 1.5-1.6 0.5-0.5-0.4-0.8-0.5-1-0.1-0.1-0.1-0.5-0.1-0.7 0-0.3 0.2-0.4 0.3-0.3 1.3 0.7 1.8 2 1.8 2.2 0.1-1 0.1-1.8 0.6-2.5 0.5-0.5 1.1 0.3 1.1 0.4z"/>
		<path id="&lt;Path&gt;" class="s0" d="m12.6 7.6c0 0-0.1 0.4-0.2 0.8-0.4 1.6-0.1 2.3 0 2.5 0.4 0.8 0.9 0.3 1.1-0.3 0.1-0.3 0.2-0.1 0.2 0q-0.1 0.1-0.1 0.5c-0.2 1-0.5 1.3-0.8 1.3-0.6 0-0.8-0.8-0.9-1.2-0.2-1.8 0.4-3.3 0.5-3.7 0.1-0.5 0.3-0.3 0.2 0.1z"/>
		<path id="&lt;Path&gt;" class="s0" d="m33.3 7.3c0 0-0.1 0.3-0.1 0.4-0.3 0.8-0.1 1.2-0.1 1.3 0.2 0.4 0.5 0.2 0.6-0.1 0.1-0.2 0.1-0.1 0.1 0q0 0.1 0 0.2c-0.2 0.5-0.4 0.7-0.5 0.7-0.3-0.1-0.5-0.5-0.5-0.7-0.1-0.9 0.3-1.6 0.4-1.8 0.1-0.3 0.2-0.2 0.1 0z"/>
		<path id="&lt;Path&gt;" class="s0" d="m27.3 7.2c0 0-0.1 0.2-0.1 0.3-0.3 0.9-0.2 1.3-0.1 1.3 0.2 0.5 0.5 0.2 0.6-0.1 0.1-0.1 0.1-0.1 0.1 0q0 0.1 0 0.3c-0.2 0.5-0.4 0.6-0.5 0.6-0.4 0-0.5-0.4-0.5-0.6-0.1-0.9 0.3-1.7 0.4-1.9 0.1-0.2 0.2-0.1 0.1 0.1z"/>
		<path id="&lt;Path&gt;" class="s0" d="m17.5 7.1c0 0 0 0.3-0.1 0.4-0.3 0.8-0.1 1.2-0.1 1.3 0.3 0.4 0.6 0.2 0.7-0.1 0-0.2 0.1-0.1 0.1 0q0 0.1-0.1 0.2c-0.1 0.5-0.3 0.7-0.5 0.7-0.3-0.1-0.5-0.5-0.5-0.7 0-0.9 0.4-1.6 0.4-1.8 0.1-0.3 0.2-0.2 0.1 0z"/>
		<path id="&lt;Path&gt;" class="s0" d="m25.5 7c0 0.2-0.1 0.2-0.1 0.4-0.1 0.2-0.3 0.3-0.5 0.4-0.2 0.2-10 5.1-10.1 5.1-0.4 0.3-0.3 0.1-0.3 0q0-0.1 0.1-0.4c0.1-0.2 0.1-0.2 0.4-0.4 0.3-0.1 10-5 10.2-5.2 0.4-0.2 0.4 0 0.3 0.1z"/>
		<path id="&lt;Path&gt;" class="s0" d="m52.5 6.5c-0.1 0.2-0.1 0.2-0.1 0.4-0.1 0.1-0.2 0.2-0.4 0.3-0.2 0.1-5.3 3-5.4 3.1-0.3 0.2-0.2 0.1-0.2 0q0-0.1 0.1-0.3c0-0.2 0.1-0.2 0.3-0.3 0.2-0.2 5.3-3.1 5.5-3.2 0.3-0.2 0.2-0.1 0.2 0z"/>
		<path id="&lt;Path&gt;" class="s0" d="m58.7 6.9c0.1 0.2 0 0.6-0.1 0.8 0 0.2-0.2 0-0.3-0.1 0 0-0.1-0.2-0.2-0.3-0.6-0.4-0.7 0.5-0.8 0.9-0.1 0.3-0.1 1.2-0.2 1.8 0 0.2-0.2 0.2-0.2 0-0.4-1.2-1.1-1.7-1.2-1.8-0.1-0.2-0.2 0-0.2 0.1 0 0.1-0.1 0.1-0.1 0-0.1 0-0.5-0.3-0.6-0.4-0.2-0.1-0.1-0.6-0.1-0.8 0-0.3 0.2-0.4 0.3-0.3 1.4 0.7 1.8 2.1 1.9 2.3 0.1-1 0.1-1.9 0.7-2.6 0.4-0.5 1 0.3 1.1 0.4z"/>
		<path id="&lt;Compound Path&gt;" fill-rule="evenodd" class="s0" d="m63.7 9c0 0.2-0.1 0.1-0.2-0.1-0.1-0.1-0.2-0.2-0.4-0.3-0.2 0.4-0.2 0.5-1 1.2-1.9 1.6-4 2.2-4.1 2.2-0.1 0.1-0.1 0 0.1-0.2 0.6-0.5 3.3-1.7 4.7-3.3 0 0-0.4-0.2-0.7-0.4-0.3-0.3-0.2-1 0-1.3 0.6-0.8 1-0.4 1.1-0.3 0.5 0.8 0.2 1.6 0.2 1.6 0.2 0.1 0.5 0.4 0.3 0.9zm-0.9-2c-0.1-0.1-0.2-0.1-0.5 0.3-0.1 0.1 0 0.2 0.2 0.3 0.2 0.1 0.6 0.3 0.6 0.3 0-0.1 0.1-0.6-0.3-0.9z"/>
		<path id="&lt;Path&gt;" class="s0" d="m29.7 6.4c0 0.1 1.2 2.9 1.3 3.1 0 0.2-0.1 0.2-0.2 0.1-0.1-0.1-0.6-0.6-0.6-0.6 0 0 0.9 6.4 1 6.8 0.6 4.1 0.1 5 0 5.2-0.1 0.1-0.2 0.1-0.1-0.1-0.1-1.7-1-7.6-1.1-7.9 0-0.4-0.7-5.3-0.7-5.8 0 0 0.2-0.8 0.3-0.9 0-0.1 0.1 0 0.1 0.1z"/>
		<path id="&lt;Compound Path&gt;" fill-rule="evenodd" class="s0" d="m37.1 17.8c-0.2 0.5-0.6 0.8-1 1 0 0.3 0 0.5 0 0.6 0 0-0.2 1.2-0.9 1.9-3.5 3.5-5.9 2.7-6.2 2.6-1.6-0.9-1.1-3.4-0.9-4.3-0.3 0.3-0.6 0.5-0.7 0.5-2.4 1.2-3.6 0.6-4 0.4-0.6-0.3-1.4-1-2-1.5-0.8 0.5-1.6 0.9-1.9 1-5.1 2.6-6.9-0.7-7.1-1.1 0 0-0.3-0.4-0.5-0.7-0.2-0.2-0.6 0.1-0.9 0.3-1.4 1-2 3.3-2.1 3.7-0.5 1.4-1.5 1-1.7 0.9-2.3-1.3-1.9-4.8-1.8-5.2 0.1-0.4 0.2-0.2 0.2 0 0 2.3 1 3.6 1.3 3.9 0.9 0.6 1.2 0.1 1.4-0.2 0.3-0.3 0.5-1 0.7-1.6 0.6-1.3 1.2-2.3 2-2.9 0.8-0.5 1.3-0.1 1.4 0.1 0.4 0.7 0.9 1.4 1.1 1.5 1.5 1.7 4.2 0.9 4.6 0.7 0.6-0.2 1.6-0.7 2.5-1.2h-0.1c-1.1-1.1-1.8-1.1-2-1-0.5 0.2-0.8 0.3-0.8 0.4-0.1 0-0.2-0.1-0.1-0.1 0-0.1 0.1-0.4 0.2-0.6 0.1-0.3 0.1-0.5 0.4-0.6 3.3-1.3 6.1-0.3 6.5-0.2 0 0-0.2 0.8-0.3 1.1 0 0.1-1 0.7-2 1.3 0.9 0.8 1.6 1 1.9 1.1 1.9 0.3 3.5-0.9 3.9-1.2 0.4-0.3 0.4-0.6 0.4-0.7-0.2-0.4-1-0.5-1.3-0.5-1.2 0.1-1.6-0.2-1.8-0.3-0.8-0.9 0.2-2.3 0.8-2.7 0.6-0.5 1.2-0.1 1.4 0.1 1.4 1.4 1.4 3.1 1.3 3.4 0 0.7-0.2 1.2-0.5 1.5q0 0.1 0 0.1c0 0.3-0.2 0.9-0.2 1.1-0.3 2.4 1.9 2.5 2.2 2.5 2.6-0.2 4.8-2.9 5-3.3 0.3-0.4-0.3-0.4-0.4-0.4-0.9 0.2-1.5 0.2-1.8 0.1-1.1-0.4-1-1.7-0.2-2.6 0.8-0.9 1.3-0.5 2.1 0.2q0.4 0.5 0.5 0.9 0.1 0 0.1 0c0.2-0.1 0.8-0.4 0.9-0.5 0.1-0.1 0.1-0.3 0-0.9 0-0.6-1.1-6.7-1.1-6.7-0.1-0.7-0.2-1.3-0.2-1.7-0.1-0.5-0.2-0.7-0.2-0.7 0 0 0.4-0.9 0.4-1 0.1-0.1 0.1 0 0.1 0.1 0.1 0.1 1.3 2.9 1.3 3.1 0.1 0.2 0 0.2-0.1 0.1-0.1-0.1-0.7-0.6-0.7-0.6 0 0 1 5.9 1.1 6.3 0.2 1.3-0.1 2.3-0.2 2.5zm-2.3 0.3c-0.4-0.9-1.3-0.6-1.4-0.5-0.2 0.2-0.4 0.5 0.3 0.6 0.8 0.2 1.1-0.1 1.1-0.1zm-7-2.1c-0.4-0.7-0.9-0.9-1.3-0.7-0.3 0.1-0.7 0.4-0.4 0.6 0.4 0.2 0.8 0.2 1 0.1 0.2-0.1 0.7 0 0.7 0zm-6.2 1.7c0.7-0.4 1.2-0.7 1.3-0.8q-1.3-0.2-2.3-0.1c0.4 0.3 0.6 0.6 0.8 0.7q0.1 0.1 0.2 0.2z"/>
		<path id="&lt;Path&gt;" class="s0" d="m38.6 6.4c0 0.1 1.2 2.9 1.3 3.1 0 0.2-0.1 0.2-0.2 0.1-0.1-0.1-0.6-0.6-0.6-0.6 0 0 0.9 6.4 1 6.8 0.6 4.1 0.1 5.3 0 5.4-0.1 0.2-0.2 0.2-0.1 0-0.1-1.7-1-7.9-1.1-8.2 0-0.4-0.7-5.3-0.8-5.8 0 0 0.3-0.8 0.4-0.9 0-0.1 0.1 0 0.1 0.1z"/>
		<path id="&lt;Compound Path&gt;" fill-rule="evenodd" class="s0" d="m44.5 8.7c-0.1 0.2-0.1 0.1-0.2-0.1-0.1 0-0.4-0.3-0.4-0.3 0 0-0.4 0.9-1.1 1.4-1.3 1-2.4 1.1-2.4 1.1-0.1 0.1-0.2 0 0-0.2 0.8-0.4 1.8-0.7 3.1-2.4 0 0-0.4-0.2-0.7-0.4-0.3-0.2-0.1-1 0.1-1.3 0.5-0.8 1-0.4 1-0.3 0.5 0.8 0.3 1.6 0.3 1.6 0.2 0.1 0.5 0.4 0.3 0.9zm-0.9-2c-0.1 0-0.2-0.1-0.5 0.3-0.1 0.1 0 0.2 0.2 0.3 0.1 0.1 0.5 0.3 0.5 0.3 0.1-0.1 0.1-0.6-0.2-0.9z"/>
	</g>
</svg>