<svg version="1.2" xmlns="http://www.w3.org/2000/svg" viewBox="0 0 70 30" width="70" height="30">
	<title>New Project</title>
	<style>
		.s0 { fill: #191c4f } 
	</style>
	<g id="الحديد">
		<path id="&lt;Path&gt;" class="s0" d="m26.6 21.5c-0.1 0.1-0.1 0.2-0.2 0.3-0.1 0.2-0.2 0.2-0.4 0.3-0.1 0.2-4.9 2-5 2.1-0.3 0.2-0.3 0-0.2-0.1q0 0 0.1-0.3c0-0.1 0.1-0.2 0.3-0.3 0.2-0.1 4.9-1.9 5.1-2.1 0.4-0.1 0.3 0 0.3 0.1z"/>
		<path id="&lt;Path&gt;" class="s0" d="m16.8 21.1l1 0.7q0.1 0.1 0 0.1l-0.6 0.8q0 0.1 0 0l-1-0.7-0.5 0.7q-0.1 0.1-0.1 0l-1-0.7q-0.1 0 0-0.1l0.6-0.8q0 0 0 0l1 0.7 0.5-0.7q0.1 0 0.1 0z"/>
		<path id="&lt;Path&gt;" class="s0" d="m35.3 20.4c0.2 0 0.2 0.1 0.1 0.3 0 0-0.1 0.2-0.2 0.3-0.1 0.2-0.7 0.8-0.8 1-0.2 0.2-0.1 0.7 0.5 0.8 0.8-0.1 1.5-0.7 1.6-0.9 0.2-0.2 0.2 0 0.1 0.1-0.5 0.8-1.2 1.2-1.4 1.2-0.2 0.1-1.3 0.3-1.1-0.8 0.2-0.8 0.9-1.4 0.9-1.4q0.1-0.1-0.1-0.1c-0.7 0-0.7 0.2-0.8 0.3 0 0 0-0.1 0-0.1 0-0.1 0.2-0.4 0.2-0.4 0.3-0.4 0.9-0.3 1-0.3z"/>
		<path id="&lt;Path&gt;" class="s0" d="m12.5 20.2c0 0.2-0.1 0.2-0.1 0.4-0.1 0.2-0.2 0.2-0.3 0.3-0.2 0.2-3.5 2-3.6 2.1-0.3 0.2-0.3 0.1-0.3 0q0-0.1 0.1-0.3c0-0.2 0-0.3 0.2-0.4 0.3-0.1 3.5-2 3.7-2.1 0.4-0.2 0.3-0.1 0.3 0z"/>
		<path id="&lt;Path&gt;" class="s0" d="m63.8 19.3c0 0 0 0.3 0 0.5 0 0.2-0.1 0.5-0.2 0.8-0.1 0.4-0.8 0.5-1.2 0.2-0.8 1.1-1.5 0.6-1.8 0.4-0.7-0.2-0.9 0.2-1.1 0.4-0.8 0.9-2.3 0.9-2.7 0.9-0.3 0.1 0-0.2 0.1-0.2 1.2-0.5 2-0.5 3-1.5 0.5-0.5 0.8-0.3 1-0.2 1 0.4 1.1 0 1.3-0.1 0.1-0.2 0.3-0.7 0.4-0.9 0-0.1 0.1 0 0.1 0.2 0 0.1-0.1 0.2-0.1 0.3 0.4 0.3 0.8 0.1 0.9 0 0 0 0-0.3 0-0.4q0-0.2 0.1-0.6c0.1-0.2 0.2 0 0.2 0.2z"/>
		<path id="&lt;Path&gt;" class="s0" d="m9.4 12.7c0 0-0.1 0.2-0.1 0.4-0.4 1-0.1 1.5-0.1 1.6 0.3 0.4 0.7 0.2 0.9-0.2 0-0.2 0.1-0.1 0.1 0q0 0-0.1 0.3c-0.1 0.6-0.4 0.7-0.6 0.7-0.4 0-0.6-0.4-0.6-0.7-0.2-1 0.3-1.9 0.4-2.2 0.1-0.3 0.2-0.2 0.1 0.1z"/>
		<path id="&lt;Compound Path&gt;" fill-rule="evenodd" class="s0" d="m45.1 17.9c-0.3 1-1.8 1.5-2.1 1.6-1.3 0.4-1.4-0.8-1.3-1.8 0.1-0.9 0.8-2.1 0.8-2.1-0.1 0-1.4-1-1.5-1.1-0.1-0.1-0.2-0.3-0.4-0.4-0.1 0-0.1-0.1-0.1-0.1 0 0 0-1 0.1-1.1 0-0.1 0 0 0.1 0 0.1 0.1 1.6 0.6 1.7 0.7 0.2 0.1 0.1 0.2 0 0.2-0.1 0-0.5 0.2-0.5 0.2l1.2 0.8c0 0 1.6-2.1 1.8-2.3 0.1-0.2 0.1-0.1 0.1 0.1-0.1 0.2-0.4 1.1-0.5 1.3 0 0.1-0.9 1.3-0.9 1.3 0 0 1.1 0.6 1.4 1 0.5 0.7 0.2 1.3 0.1 1.7zm-2.1-1.9c0 0-0.7 1.2-0.8 1.5-0.4 0.7 0.4 0.9 0.6 0.8 0.3 0 1.3-0.5 1.8-0.9 0.4-0.4-1.3-1.3-1.6-1.4z"/>
		<path id="&lt;Compound Path&gt;" fill-rule="evenodd" class="s0" d="m65.3 16.7c-0.1 0.2-0.4 1.2-1.7 0.9-0.3-0.1-1-0.2-1.3-0.9-0.3 0.4-1.1 1.7-2.6 1.4-0.3 0-1.4-0.4-1.5-1.8 0 0-1.2 1-1.8 1.3 0.1 0.5 0 1.1-0.2 1.7-0.2 0.6-2.9 3.7-5.1 4.1-0.8 0.2-3.6 0.7-3.7-2.4q0-1 0.1-1.5c-1.8 1.3-3.9 2.4-4.5 2.6-0.9 0.5-4.1 1-4.7 1.1-0.4 0.1-0.4 0-0.2-0.1 0.2-0.2 7.4-2.6 11.1-6.5 0.1-0.1 0.1-0.3 0-0.5-0.1-0.2-1.3-2.4-1.4-2.7-0.1-0.3-0.3-0.6-0.3-0.7q-0.1-0.2-0.1-0.4c0-0.1 0.1-0.7 0.2-0.8 0-0.2 0.1-0.1 0.2 0 0 0.1 1.2 1.2 1.3 1.4 0.2 0.2 0.1 0.2 0 0.2 0 0-0.6 0-0.6 0 0 0 0.8 1.3 1 1.8 0.5 1.1 0.2 1.9 0.1 2.3-0.4 0.7-1 1.3-1.7 1.9-0.2 0.6-0.4 3.2 2 3.2 0.4 0.1 1.6 0.2 4-1.8 0.6-0.4 1.2-1 1.8-1.8 0.2-0.3 0.3-0.8 0-0.7-0.4 0-3 0.9-3.3-0.6-0.1-0.4 0.1-4 2.6-2.2 0.2 0.1 0.7 0.6 1.1 1.3 0.4-0.2 1.1-0.7 2.1-1.4 0.3-0.3 0.5-0.4 0.5 0 0 0.3-0.2 2.4 2.1 1.8 0.2-0.1 1.2-0.3 1.9-2.1 0.2-0.4 0.5-0.4 0.3 0-0.2 0.5-0.4 0.8-0.2 1 0.2 0.3 0.9 0.7 1.7 0.6 0.3 0 0.4-0.1 0.3-0.4-0.1-0.2-0.3-0.7-0.3-0.7 0-0.2 0.1-0.7 0.2-0.8 0-0.2 0-0.3 0.1-0.2 0.1 0.2 0.9 1.1 0.5 2.4zm-10.3 0.1c-0.8-1.1-1.8-0.5-1.9-0.3-0.1 0.1-0.2 0.4 0.6 0.4 0.9 0.1 1.3-0.1 1.3-0.1z"/>
		<path id="&lt;Path&gt;" class="s0" d="m43.7 10.2l1 0.7q0 0 0 0.1l-0.6 0.8q0 0-0.1 0l-1-0.7-0.5 0.7q0 0 0 0l-1.1-0.7q0-0.1 0-0.1l0.6-0.8q0.1-0.1 0.1 0l1 0.7 0.5-0.7q0-0.1 0.1 0z"/>
		<path id="&lt;Path&gt;" class="s0" d="m62.7 10.2c0 0-0.1 0.3-0.2 0.5-0.3 0.8-0.1 1.3-0.1 1.3 0.3 0.5 0.6 0.3 0.7-0.1 0.1-0.1 0.2-0.1 0.1 0q0 0.1 0 0.3c-0.2 0.5-0.4 0.7-0.6 0.7-0.3-0.1-0.5-0.5-0.5-0.7 0-1 0.4-1.8 0.5-2 0.1-0.3 0.1-0.2 0.1 0z"/>
		<path id="&lt;Path&gt;" class="s0" d="m6.5 10.1c0 0-0.1 0.5-0.2 0.8-0.6 1.8-0.4 2.6-0.3 2.7 0.4 0.9 0.9 0.5 1.1-0.2 0.1-0.3 0.2-0.1 0.2 0q-0.1 0.2-0.1 0.6c-0.3 1-0.7 1.3-1 1.3-0.5-0.1-0.7-0.9-0.7-1.4 0-1.9 0.7-3.5 0.8-3.9 0.2-0.5 0.3-0.3 0.2 0.1z"/>
		<path id="&lt;Path&gt;" class="s0" d="m52.6 9.7c0 0-0.1 0.3-0.2 0.5-0.3 0.9-0.1 1.4-0.1 1.5 0.3 0.4 0.6 0.2 0.8-0.2 0-0.2 0.1-0.1 0.1 0q0 0.1-0.1 0.3c-0.1 0.6-0.4 0.7-0.6 0.7-0.3 0-0.5-0.4-0.5-0.7-0.1-1 0.4-1.9 0.5-2.2 0.1-0.2 0.2-0.1 0.1 0.1z"/>
		<path id="&lt;Path&gt;" class="s0" d="m16.4 12.3c0 0-0.1 0.4-0.1 0.6-0.3 1.1-0.1 1.6 0 1.7 0.3 0.6 0.7 0.2 0.9-0.2 0-0.2 0.1-0.1 0.1 0q0 0.1-0.1 0.3c-0.1 0.7-0.4 0.9-0.6 0.9-0.4 0.1-0.7-0.5-0.7-0.7-0.2-1.3 0.2-2.3 0.3-2.6 0.1-0.4 0.3-0.2 0.2 0z"/>
		<path id="&lt;Path&gt;" class="s0" d="m29.2 13.7c0 0-0.1 0.3-0.2 0.4-0.3 0.9-0.1 1.4-0.1 1.4 0.3 0.5 0.6 0.3 0.7-0.1 0.1-0.2 0.2-0.1 0.1 0q0 0.1 0 0.3c-0.2 0.5-0.4 0.7-0.6 0.7-0.3 0-0.5-0.5-0.5-0.7-0.1-1 0.3-1.8 0.4-2.1 0.1-0.2 0.2-0.1 0.2 0.1z"/>
		<path id="&lt;Path&gt;" class="s0" d="m32.7 9.8c0 0.2 0 0.2-0.1 0.4-0.1 0.2-0.2 0.3-0.4 0.4-0.2 0.2-5.5 2.9-5.6 2.9-0.4 0.3-0.4 0.1-0.3 0q0 0 0-0.3c0.1-0.2 0.1-0.3 0.4-0.4 0.2-0.2 5.5-2.9 5.7-3 0.4-0.3 0.4-0.1 0.3 0z"/>
		<path id="&lt;Path&gt;" class="s0" d="m21.1 7c0 0-0.1 0.3-0.2 0.6-0.4 1.1-0.2 1.6-0.1 1.7 0.3 0.6 0.7 0.3 0.9-0.1 0-0.3 0.1-0.1 0.1-0.1q0 0.1-0.1 0.4c-0.2 0.7-0.5 0.8-0.7 0.8-0.4 0-0.6-0.5-0.6-0.8-0.1-1.2 0.4-2.3 0.5-2.6 0.2-0.3 0.3-0.1 0.2 0.1z"/>
		<path id="&lt;Path&gt;" class="s0" d="m8.4 6.7c0 0-0.1 0.3-0.2 0.5-0.3 1-0.1 1.4 0 1.5 0.3 0.5 0.7 0.2 0.8-0.2 0.1-0.2 0.2-0.1 0.1 0q0 0.1 0 0.3c-0.2 0.6-0.4 0.8-0.6 0.8-0.4 0-0.6-0.5-0.7-0.7-0.1-1.1 0.3-2 0.4-2.3 0.1-0.2 0.2-0.1 0.2 0.1z"/>
		<path id="&lt;Path&gt;" class="s0" d="m17 6.8c0.1 0.2 0.1 0.5 0 0.8-0.1 0.1-0.2 0-0.3-0.1 0 0-0.1-0.1-0.3-0.2-0.5-0.4-0.6 0.4-0.6 0.8-0.1 0.3 0 1.2-0.1 1.7 0 0.2-0.1 0.2-0.2 0.1-0.4-1.1-1.1-1.6-1.2-1.7-0.1-0.1-0.2 0-0.2 0.1 0 0.1-0.1 0.1-0.2 0.1 0-0.1-0.4-0.3-0.5-0.4-0.2-0.1-0.1-0.5-0.1-0.7 0-0.3 0.1-0.4 0.2-0.4 1.4 0.7 1.9 1.9 2 2.1 0-1-0.1-1.8 0.4-2.5 0.4-0.5 1 0.2 1.1 0.3z"/>
		<path id="&lt;Path&gt;" class="s0" d="m29.1 6.4c0.2 0.2 0.1 0.6 0 0.8 0 0.2-0.2 0-0.3-0.1 0 0-0.1-0.1-0.2-0.2-0.6-0.4-0.7 0.4-0.7 0.8-0.1 0.3 0 1.3-0.1 1.8 0 0.2-0.1 0.2-0.2 0.1-0.4-1.2-1.2-1.7-1.3-1.8-0.1-0.1-0.2 0.1-0.2 0.2 0 0.1-0.1 0.1-0.1 0-0.1 0-0.5-0.2-0.6-0.3-0.2-0.2-0.1-0.6-0.1-0.8-0.1-0.3 0.1-0.4 0.2-0.4 1.5 0.7 2 2 2.1 2.2 0-1-0.1-1.9 0.4-2.6 0.4-0.6 1.1 0.2 1.1 0.3z"/>
		<path id="&lt;Path&gt;" class="s0" d="m33.3 6c0 0.1 1.2 3.1 1.3 3.2 0.1 0.2-0.1 0.3-0.2 0.2-0.1-0.1-0.7-0.7-0.7-0.7 0 0 0.9 5.3 1 6.1 0.1 0.9-0.1 1.2-0.2 1.6 1 0.3 2.2 0.4 3.2 0.5-0.3-2.1-0.6-4.1-0.6-4.3-0.1-0.4-0.8-5.2-0.8-5.7 0 0 0.3-0.8 0.3-1 0.1-0.1 0.1 0 0.1 0.1 0.1 0.1 1.3 3.1 1.4 3.2 0 0.2-0.1 0.3-0.2 0.2-0.1-0.1-0.7-0.7-0.7-0.7 0 0 1 6.4 1.1 6.8q0.1 0.8 0.2 1.4c1.3 0.1 2.4 0 2.7 0l-0.4 1.3q-1.2-0.2-2.2-0.1c0.1 2.2-0.2 2.9-0.3 3.1-0.1 0.1-0.2 0.1-0.1-0.1-0.1-0.6-0.2-1.7-0.3-2.9-1.6 0.4-2.7 1-3.1 1.3-2.7 1.6-5.3 1.9-6.1 1.8-2.7-0.3-3.1-3.4-3.1-3.4-0.3 1.3-1.4 2.3-1.8 2.7-1.5 1.5-3.1 2.1-3.6 2.1-2.4 0-1.7-3.1-1.6-3.5q0-0.1 0-0.1c-0.8 0.4-1.6 0.5-1.9 0.6-3.8 0.6-4.3-2.9-4.4-3.2 0 0-0.2 0.3-0.2 0.5-0.4 1.3-2.2 2.7-2.6 3-2.3 1.8-3.5 1.1-3.8 0.8-1.7-1.5 0.1-4.9 0.3-5.3 0.2-0.3 0.3-0.2 0.2 0.1-0.5 1.2-0.8 2-0.8 2.5-0.1 0.7 0.2 1.3 0.3 1.4 0.6 0.8 1.5 0.5 1.9 0.4 1.4-0.6 3.3-2.4 3.6-2.7 0.9-1 0.7-1.8 0.7-2.2-0.1-1.1-1.5-4.6-1.7-4.9 0 0 0.1-0.8 0.1-0.9 0-0.2 0-0.3 0.2-0.1 1.6 2 2 5 2.1 5.7 0.1 0.6 0.2 1.4 0.6 2.2 0.7 1.6 2.6 1.6 3 1.6 2.2 0 4-1.6 4.3-1.8 0.2-0.2 0.1-0.3 0-0.6-0.1-0.5-0.7-1.1-0.9-1.3-0.1-0.2-0.1-0.4-0.1-0.5 0-0.1 0.1-0.5 0.2-0.7 0-0.1 0-0.1 0.2 0 0.7 0.7 0.9 1.3 1.1 2.1 0.2 0.7 0.1 1.6-0.3 1.9-0.6 0.6-1.3 1-1.9 1.3 0.1 0.1 0.1 0.4 0.1 0.9-0.4 2.3 1.6 1.6 2.1 1.4 2.2-0.9 4-3.3 4.2-3.6 0.2-0.2 0.3-0.5 0.3-1-0.2-1.1-2-4.8-2.2-5.3-0.1-0.4 0-0.8 0.1-1.3 0.1-0.5 1.4 2 2.1 3.8 0.3 0.9 0.8 3.8 1 4.3 0.8 2.3 3.2 1.9 4.1 1.8 1.6-0.2 5.1-2 5-2q0 0 0 0c-0.4-0.1-3.5-0.8-4.9-0.6-0.1 0-0.3 0-0.2-0.1 0.1-0.1 0.2-0.6 0.4-0.8 0.1-0.3 3.3-0.6 3.3-0.7 0-0.5-1.3-7.7-1.3-8.1-0.1-0.5-0.2-0.7-0.2-0.8 0 0 0.4-0.8 0.4-1 0.1-0.1 0.1 0 0.2 0.1z"/>
		<path id="&lt;Path&gt;" class="s0" d="m51.7 5.6c-0.1 0.1-0.1 0.1-0.1 0.3-0.1 0.2-0.2 0.2-0.4 0.3-0.2 0.1-5.5 3.2-5.6 3.2-0.3 0.2-0.2 0.1-0.2 0q0 0 0.1-0.3c0-0.1 0.1-0.2 0.3-0.3 0.2-0.2 5.4-3.2 5.6-3.3 0.4-0.2 0.3-0.1 0.3 0.1z"/>
		<path id="&lt;Path&gt;" class="s0" d="m58.1 5.9c0.1 0.2 0 0.6-0.1 0.9 0 0.1-0.2 0-0.3-0.2 0 0-0.1-0.1-0.2-0.2-0.6-0.5-0.8 0.4-0.8 0.8-0.1 0.3-0.1 1.3-0.2 1.9 0 0.2-0.2 0.2-0.3 0.1-0.3-1.3-1-1.9-1.1-2-0.2-0.1-0.3 0.1-0.3 0.2 0 0-0.1 0-0.1 0-0.1 0-0.5-0.3-0.6-0.4-0.2-0.2-0.1-0.6-0.1-0.8 0-0.4 0.2-0.5 0.3-0.4 1.5 0.8 1.9 2.2 2 2.4 0.1-1 0.1-2 0.6-2.7 0.5-0.5 1.2 0.3 1.2 0.4z"/>
		<path id="&lt;Compound Path&gt;" fill-rule="evenodd" class="s0" d="m63.3 8.1c0 0.2-0.1 0.1-0.2-0.1-0.1-0.1-0.2-0.2-0.4-0.3-0.2 0.4-0.2 0.5-1.1 1.3-1.9 1.6-4.1 2.2-4.2 2.3-0.1 0-0.1-0.1 0.1-0.3 0.6-0.5 3.4-1.7 4.9-3.5 0 0-0.5-0.1-0.8-0.4-0.3-0.2-0.1-1 0.1-1.3 0.5-0.8 1-0.4 1.1-0.3 0.5 0.8 0.2 1.6 0.2 1.6 0.2 0.2 0.5 0.5 0.3 1zm-0.9-2.1c-0.1 0-0.2 0-0.5 0.4-0.1 0.1 0 0.2 0.2 0.3 0.2 0 0.6 0.2 0.6 0.2 0-0.1 0-0.6-0.3-0.9z"/>
		<path id="&lt;Compound Path&gt;" fill-rule="evenodd" class="s0" d="m43.4 7.8c0 0.2-0.1 0.1-0.2-0.1-0.1 0-0.4-0.3-0.4-0.3 0 0-0.4 0.9-1.2 1.4-1.3 1-2.4 1.2-2.4 1.2-0.2 0.1-0.2-0.1 0-0.2 0.8-0.5 1.8-0.8 3.2-2.5 0 0-0.4-0.2-0.7-0.4-0.3-0.3-0.2-1.1 0-1.4 0.6-0.8 1.1-0.4 1.2-0.3 0.4 0.8 0.2 1.6 0.2 1.6 0.2 0.2 0.5 0.5 0.3 1zm-0.9-2.1c-0.1 0-0.3 0-0.5 0.4-0.1 0.1 0 0.2 0.2 0.3 0.1 0 0.5 0.2 0.5 0.2 0.1-0.1 0.1-0.6-0.2-0.9z"/>
	</g>
</svg>