<svg version="1.2" xmlns="http://www.w3.org/2000/svg" viewBox="0 0 70 30" width="70" height="30">
	<title>New Project</title>
	<style>
		.s0 { fill: #191c4f } 
	</style>
	<g id="الحشر">
		<path id="&lt;Path&gt;" class="s0" d="m15.8 22c-0.1 0.1-0.1 0.1-0.2 0.3 0 0.2-0.1 0.2-0.3 0.3-0.3 0.1-2.9 1-3.1 1.1-0.3 0.1-0.3 0-0.2-0.1q0 0 0.1-0.3c0-0.1 0.1-0.2 0.3-0.3 0.3-0.1 2.9-1 3.1-1.1 0.4-0.1 0.3-0.1 0.3 0.1z"/>
		<path id="&lt;Path&gt;" class="s0" d="m21.4 21.1c0 0-0.1 0.3-0.1 0.4-0.3 0.9-0.2 1.3-0.1 1.3 0.2 0.5 0.5 0.2 0.7-0.1 0-0.1 0.1 0 0.1 0q-0.1 0.1-0.1 0.3c-0.2 0.5-0.4 0.6-0.5 0.6-0.4 0-0.5-0.4-0.5-0.6-0.1-0.9 0.3-1.7 0.4-1.9 0.1-0.2 0.2-0.1 0.1 0z"/>
		<path id="&lt;Path&gt;" class="s0" d="m28.7 20.9c0.1 0 0.1 0.1 0 0.3 0 0 0 0.2-0.1 0.3-0.1 0.2-0.7 0.7-0.8 0.9-0.2 0.2-0.1 0.7 0.5 0.8 0.7-0.1 1.3-0.7 1.5-0.9 0.1-0.1 0.1 0 0 0.2-0.5 0.7-1.1 1-1.2 1-0.2 0.1-1.3 0.3-1.1-0.7 0.2-0.7 0.8-1.3 0.9-1.3q0-0.1-0.1-0.1c-0.7 0-0.7 0.2-0.8 0.2 0 0.1 0 0 0 0 0-0.1 0.2-0.4 0.2-0.4 0.3-0.4 0.8-0.3 1-0.3z"/>
		<path id="&lt;Path&gt;" class="s0" d="m36.6 19.9c0 0-0.1 0.2-0.1 0.4-0.3 0.8-0.1 1.2-0.1 1.3 0.2 0.4 0.6 0.2 0.7-0.2 0-0.1 0.1 0 0.1 0q0 0.1-0.1 0.3c-0.1 0.5-0.4 0.6-0.5 0.6-0.4 0-0.5-0.4-0.5-0.6-0.1-0.9 0.3-1.7 0.4-1.9 0.1-0.2 0.2-0.1 0.1 0.1z"/>
		<path id="&lt;Path&gt;" class="s0" d="m64.1 19.6c0 0 0 0.3 0 0.5 0 0.3-0.1 0.6-0.3 0.9-0.1 0.3-0.7 0.5-1.2 0.2-0.7 1.1-1.4 0.5-1.8 0.4-0.7-0.3-0.9 0.2-1.1 0.4-0.8 0.9-2.4 0.9-2.8 0.9-0.3 0.1 0-0.2 0.1-0.2 1.3-0.5 2-0.5 3.1-1.6 0.5-0.5 0.8-0.2 1-0.2 1 0.5 1.2 0 1.3-0.1 0.2-0.1 0.3-0.6 0.4-0.8 0.1-0.2 0.2-0.1 0.1 0.1 0 0.1 0 0.3-0.1 0.4 0.5 0.3 0.9 0 1-0.1 0 0 0-0.3 0-0.4q-0.1-0.1 0.1-0.5c0.1-0.3 0.1-0.1 0.2 0.1z"/>
		<path id="&lt;Compound Path&gt;" fill-rule="evenodd" class="s0" d="m44.9 18.2c-0.3 1-1.7 1.6-2.1 1.7-1.3 0.4-1.4-0.9-1.3-1.9 0.1-0.9 0.8-2.1 0.8-2.1-0.1 0-1.5-1.1-1.6-1.2-0.1-0.1-0.2-0.3-0.3-0.4-0.1 0-0.1-0.1-0.1-0.1 0 0 0-1 0-1.1 0-0.1 0.1-0.1 0.2 0 0.1 0 1.5 0.6 1.7 0.7 0.2 0.1 0.1 0.2 0 0.2-0.1 0-0.6 0.2-0.6 0.2l1.3 0.8c0 0 1.6-2.2 1.8-2.4 0.2-0.2 0.1-0.1 0.1 0.2 0 0.2-0.3 1.1-0.4 1.3-0.1 0.1-1 1.3-1 1.3 0 0 1.2 0.7 1.4 1.1 0.5 0.6 0.2 1.3 0.1 1.7zm-2.1-2c0 0-0.8 1.3-0.9 1.6-0.3 0.7 0.5 0.9 0.7 0.8 0.3 0 1.3-0.5 1.8-0.9 0.5-0.4-1.3-1.3-1.6-1.5z"/>
		<path id="&lt;Path&gt;" class="s0" d="m21 14.7l1 0.7q0.1 0.1 0.1 0.1l-0.7 0.9q0 0 0 0l-1-0.8-0.6 0.8q0 0 0 0l-1.1-0.8q0 0 0-0.1l0.6-0.8q0-0.1 0.1 0l1 0.7 0.5-0.7q0.1-0.1 0.1 0z"/>
		<path id="&lt;Path&gt;" class="s0" d="m19.8 12.7l1 0.7q0.1 0.1 0.1 0.1l-0.7 0.9q0 0 0 0l-1.1-0.8q0 0 0-0.1l0.6-0.8q0.1 0 0.1 0z"/>
		<path id="&lt;Path&gt;" class="s0" d="m26.7 12c0 0-0.1 0.2-0.1 0.4-0.3 0.8-0.2 1.2-0.1 1.3 0.2 0.4 0.5 0.2 0.7-0.1 0-0.2 0.1-0.1 0 0q0 0.1 0 0.2c-0.2 0.5-0.4 0.7-0.6 0.7-0.3 0-0.4-0.5-0.4-0.7-0.1-0.9 0.3-1.6 0.4-1.9 0.1-0.2 0.2-0.1 0.1 0.1z"/>
		<path id="&lt;Path&gt;" class="s0" d="m10.7 12c0 0 0 0.2-0.1 0.4-0.3 1-0.1 1.4 0 1.5 0.3 0.5 0.7 0.2 0.8-0.1 0.1-0.2 0.1-0.1 0.1 0q0 0 0 0.2c-0.2 0.7-0.4 0.8-0.7 0.8-0.4 0-0.6-0.4-0.6-0.7-0.1-1 0.3-1.9 0.4-2.2 0.1-0.3 0.2-0.2 0.1 0.1z"/>
		<path id="&lt;Compound Path&gt;" fill-rule="evenodd" class="s0" d="m65.6 17c-0.1 0.2-0.3 1.2-1.7 0.9-0.4-0.1-1-0.2-1.3-1-0.4 0.5-1.2 1.8-2.7 1.5-0.4 0-1.5-0.4-1.5-1.8 0 0-1.3 1-1.9 1.3 0.1 0.5 0 1.1-0.2 1.7-0.2 0.6-3 3.8-5.3 4.3-0.7 0.1-3.6 0.7-3.7-2.5 0-0.7 0-1.2 0.1-1.6-1.8 1.4-4 2.4-4.6 2.7-0.9 0.5-4.2 1-4.8 1.1-0.4 0.1-0.4 0-0.2-0.1 0.2-0.2 7.5-2.6 11.3-6.6q0.2-0.2 0-0.5c-0.1-0.2-1.3-2.5-1.4-2.8-0.1-0.3-0.3-0.7-0.3-0.8q-0.1-0.1-0.1-0.3c0.1-0.1 0.2-0.8 0.2-0.9 0-0.1 0.1-0.1 0.2 0 0 0.1 1.2 1.3 1.4 1.5 0.1 0.1 0 0.2 0 0.2-0.1 0-0.7 0-0.7 0 0 0 0.8 1.3 1.1 1.8 0.4 1.1 0.2 2 0 2.4-0.4 0.7-1 1.3-1.7 2-0.2 0.5-0.4 3.2 2.1 3.3 0.4 0 1.6 0.1 4.1-1.9 0.6-0.5 1.2-1.1 1.8-1.8 0.2-0.4 0.4-0.9 0-0.8-0.5 0-3 1-3.4-0.6-0.1-0.4 0.1-4.1 2.6-2.3 0.3 0.2 0.8 0.6 1.2 1.3 0.4-0.1 1.2-0.6 2.2-1.4 0.2-0.2 0.5-0.4 0.5 0 0 0.3-0.2 2.5 2.1 1.8 0.3 0 1.3-0.2 2-2.1 0.2-0.4 0.4-0.3 0.3 0-0.2 0.5-0.4 0.9-0.2 1.1 0.2 0.2 0.9 0.7 1.7 0.6 0.3 0 0.4-0.2 0.3-0.4-0.1-0.3-0.3-0.7-0.3-0.7 0-0.3 0.1-0.8 0.2-0.9 0-0.1 0.1-0.2 0.2-0.1 0.1 0.1 0.8 1.1 0.4 2.4zm-10.5 0.1c-0.9-1.1-1.8-0.5-2-0.4-0.1 0.2-0.1 0.5 0.7 0.5 0.9 0.1 1.3-0.1 1.3-0.1z"/>
		<path id="&lt;Path&gt;" class="s0" d="m14.7 11.8c0 0-0.1 0.5-0.2 0.8-0.4 1.5-0.2 2.2-0.2 2.4 0.4 0.8 0.8 0.4 1-0.2 0.1-0.3 0.2-0.2 0.2 0q-0.1 0.1-0.1 0.4c-0.3 1-0.6 1.2-0.8 1.2-0.5 0-0.7-0.8-0.7-1.2-0.1-1.7 0.5-3.1 0.7-3.5 0.1-0.4 0.2-0.2 0.1 0.1z"/>
		<path id="&lt;Path&gt;" class="s0" d="m43.5 10.3l1 0.8q0.1 0 0.1 0l-0.7 0.9q0 0 0 0l-1-0.8-0.6 0.8q0 0-0.1 0l-1-0.8q0 0 0-0.1l0.6-0.8q0 0 0.1 0l1 0.7 0.5-0.7q0.1 0 0.1 0z"/>
		<path id="&lt;Path&gt;" class="s0" d="m62.9 10.3c0 0 0 0.3-0.1 0.5-0.3 0.9-0.1 1.3-0.1 1.4 0.2 0.5 0.6 0.2 0.7-0.1 0.1-0.2 0.1-0.1 0.1 0q0 0.1 0 0.3c-0.2 0.5-0.4 0.6-0.6 0.6-0.4 0-0.5-0.4-0.5-0.6-0.1-1 0.3-1.9 0.4-2.1 0.1-0.3 0.2-0.2 0.1 0z"/>
		<path id="&lt;Path&gt;" class="s0" d="m31.4 10.4c0 0-0.1 0.5-0.2 0.7-0.5 1.6-0.3 2.3-0.2 2.5 0.3 0.7 0.8 0.4 1-0.2 0.1-0.3 0.2-0.2 0.1 0q0 0.1-0.1 0.4c-0.2 1-0.5 1.2-0.8 1.2-0.4 0-0.6-0.8-0.7-1.2 0-1.7 0.6-3.1 0.7-3.5 0.2-0.4 0.3-0.2 0.2 0.1z"/>
		<path id="&lt;Path&gt;" class="s0" d="m52.6 9.8c0 0-0.1 0.3-0.1 0.5-0.4 1-0.2 1.4-0.2 1.5 0.3 0.5 0.7 0.3 0.8-0.1 0.1-0.2 0.1-0.1 0.1 0q0 0.1 0 0.3c-0.2 0.6-0.5 0.7-0.7 0.7-0.3 0-0.5-0.5-0.5-0.7-0.1-1.1 0.4-2 0.5-2.3 0.1-0.2 0.2-0.1 0.1 0.1z"/>
		<path id="&lt;Path&gt;" class="s0" d="m20.7 9.3c0.7 0.1 0.5 0.5 0.4 0.7-0.6 0.9-1.3 1.2-1.9 1.5-0.5 0.2-0.3-0.2 0.1-0.5 0 0 0.3-0.2 0.8-0.5 0.5-0.4-0.8-0.3-1.4-0.3-0.5-0.1-0.7 0.1-0.8 0.3-0.2 0.2-0.4 0.1-0.3-0.1 0.1-0.2 0.3-0.5 0.7-0.9 0.4-0.5 1.6-0.3 2.4-0.2z"/>
		<path id="&lt;Path&gt;" class="s0" d="m32.5 7.6c0 0.1-0.1 0.1-0.2 0.3-0.1 0.2-0.2 0.2-0.4 0.3-0.2 0.2-9.6 4.1-9.7 4.2-0.4 0.2-0.3 0-0.3-0.1q0 0 0.1-0.3c0.1-0.2 0.2-0.2 0.4-0.4 0.3-0.1 9.6-4.1 9.9-4.2 0.4-0.1 0.3 0 0.2 0.2z"/>
		<path id="&lt;Path&gt;" class="s0" d="m8.9 6.7c0 0-0.1 0.3-0.2 0.5-0.3 1 0 1.4 0 1.5 0.3 0.5 0.7 0.2 0.8-0.1 0.1-0.2 0.2-0.1 0.2-0.1q-0.1 0.1-0.1 0.3c-0.1 0.6-0.4 0.8-0.6 0.8-0.4 0-0.6-0.4-0.7-0.7-0.1-1 0.4-2 0.5-2.2 0.1-0.3 0.2-0.2 0.1 0z"/>
		<path id="&lt;Path&gt;" class="s0" d="m15.8 6.3c0.1 0.2 0 0.6-0.1 0.9 0 0.1-0.2 0-0.3-0.2 0 0-0.1-0.1-0.2-0.2-0.5-0.4-0.7 0.4-0.8 0.8 0 0.3-0.1 1.3-0.2 1.8 0 0.3-0.2 0.3-0.2 0.1-0.4-1.2-1.1-1.8-1.2-1.9-0.1-0.1-0.2 0.1-0.2 0.1 0 0.1-0.1 0.1-0.2 0.1 0-0.1-0.4-0.3-0.5-0.4-0.2-0.2-0.1-0.6-0.1-0.8 0-0.3 0.2-0.4 0.3-0.4 1.4 0.8 1.8 2.2 1.9 2.4 0.1-1 0.1-1.9 0.7-2.6 0.4-0.6 1.1 0.2 1.1 0.3z"/>
		<path id="&lt;Path&gt;" class="s0" d="m18.6 5.7c0 0 0 0.3-0.1 0.4-0.3 0.9-0.1 1.3-0.1 1.4 0.3 0.4 0.6 0.2 0.7-0.1 0.1-0.2 0.1-0.1 0.1 0q0 0.1-0.1 0.2c-0.1 0.6-0.3 0.7-0.5 0.7-0.3 0-0.5-0.4-0.5-0.7-0.1-0.9 0.3-1.7 0.4-1.9 0.1-0.3 0.2-0.2 0.1 0z"/>
		<path id="&lt;Path&gt;" class="s0" d="m26.2 6c0.1 0.2 0.1 0.6 0 0.9-0.1 0.1-0.2 0-0.4-0.1 0 0-0.1-0.2-0.2-0.3-0.5-0.4-0.7 0.4-0.8 0.8 0 0.3-0.1 1.3-0.2 1.9 0 0.2-0.1 0.2-0.2 0-0.4-1.2-1-1.8-1.1-1.9-0.2-0.1-0.3 0.1-0.3 0.2 0 0-0.1 0-0.1 0-0.1 0-0.5-0.3-0.6-0.4-0.1-0.2-0.1-0.6-0.1-0.8 0-0.3 0.2-0.4 0.3-0.4 1.4 0.8 1.9 2.2 1.9 2.4 0.1-1 0.2-1.9 0.7-2.6 0.4-0.6 1.1 0.2 1.1 0.3z"/>
		<path id="&lt;Path&gt;" class="s0" d="m51.7 5.6c0 0.1-0.1 0.1-0.1 0.3-0.1 0.2-0.2 0.2-0.4 0.3-0.2 0.2-5.6 3.3-5.7 3.4-0.3 0.2-0.3 0-0.2-0.1q0 0 0-0.3c0.1-0.2 0.1-0.2 0.3-0.3 0.3-0.2 5.6-3.3 5.9-3.4 0.3-0.2 0.2 0 0.2 0.1z"/>
		<path id="&lt;Path&gt;" class="s0" d="m58.3 5.9c0.1 0.2 0 0.7-0.1 0.9-0.1 0.2-0.2 0-0.3-0.1 0 0-0.2-0.2-0.3-0.3-0.5-0.4-0.7 0.5-0.8 0.9-0.1 0.3-0.1 1.3-0.2 1.9 0 0.2-0.2 0.2-0.2 0-0.4-1.2-1.1-1.8-1.3-1.9-0.1-0.2-0.2 0-0.2 0.1 0 0.1-0.1 0.1-0.2 0.1 0-0.1-0.4-0.3-0.6-0.5-0.1-0.1-0.1-0.6 0-0.8 0-0.3 0.2-0.4 0.3-0.4 1.5 0.8 1.9 2.3 2 2.5 0.1-1.1 0.1-2 0.7-2.8 0.4-0.5 1.1 0.3 1.2 0.4z"/>
		<path id="&lt;Compound Path&gt;" fill-rule="evenodd" class="s0" d="m63.6 8.2c0 0.1-0.1 0-0.2-0.1-0.1-0.1-0.2-0.3-0.4-0.4-0.3 0.5-0.2 0.6-1.2 1.4-1.9 1.7-4.1 2.3-4.2 2.3-0.2 0-0.2-0.1 0-0.2 0.7-0.5 3.6-1.8 5-3.6 0 0-0.4-0.2-0.8-0.4-0.3-0.2-0.1-1 0.1-1.4 0.6-0.8 1.1-0.4 1.1-0.3 0.5 0.9 0.3 1.7 0.3 1.7 0.2 0.1 0.5 0.5 0.3 1zm-0.9-2.1c-0.1-0.1-0.3-0.1-0.6 0.3-0.1 0.1 0 0.2 0.2 0.3 0.2 0.1 0.6 0.3 0.6 0.3 0-0.1 0.1-0.6-0.2-0.9z"/>
		<path id="&lt;Path&gt;" class="s0" d="m33.9 5.2c0 0.1 1.3 3.1 1.3 3.3 0.1 0.2 0 0.2-0.1 0.1-0.1-0.1-0.8-0.7-0.8-0.7 0 0 1 8.9 1.1 9.4 0.1 1.6-0.2 2.5-0.4 2.7-0.9 1.5-3 1.3-3.4 1.2-1.3-0.6-0.9-2.4-0.8-2.8-0.4 0-0.6 0.1-0.9 0.2-0.5 0.2-3.2 1.6-4.6 1.9-2.4 0.5-2.8-0.9-2.9-1.1 0 0-0.3 1.1-1.1 1.3-0.5 0.2-1.4 0.1-1.6-1-1.2 1.8-2.4 1.2-2.7 1-0.2-0.2-0.8-0.7-1.3-1-1.7-0.9-4.2 1.3-4.6 1.5-0.5 0.4-2.4 2.5-3.5 2.8-1.9 0.6-2.4-1-2.5-1.5-0.5-2 1.3-4.3 1.8-4.8q0-0.1 0-0.1c-0.5-0.1-0.7-0.9-0.8-1.3-0.1-1.9 0.7-3.6 0.8-4.1 0.2-0.4 0.4-0.2 0.2 0.2 0 0-0.1 0.5-0.2 0.8-0.6 1.8-0.3 2.6-0.2 2.8 0.4 0.9 1 0.4 1.2-0.2 0.1-0.4 0.2-0.2 0.2 0q0 0.1-0.1 0.5c-0.2 0.7-0.4 1.1-0.6 1.2q-0.1 0.2-0.2 0.3c-0.4 0.6-1.1 1.7-1.3 2.1-0.8 1.5-0.4 2.5-0.2 2.8 0.7 1 2 0.1 2.3-0.1 0.3-0.2 1.8-1.5 2.1-1.8 2.4-2.1 3.9-2.4 4.1-2.5 1.5-0.2 2.2 0.4 2.5 0.6 0.8 0.8 1.4 0.8 1.6 0.7 1.1-0.4 1.7-1.3 1.9-1.6 0.3-0.3 0.2 0 0.2 0.1 0 0.1-0.2 0.6-0.2 0.7 0.2 0.7 0.9 0.7 1.2 0.6 0.6 0 1-0.9 1.2-1.4 0.2-0.4 0.2 0.2 0.2 0.4 1.1 2.3 5.7-0.3 6.1-0.5-0.4-0.1-2.5-0.7-2.7-0.7-0.2-0.1-0.3 0-0.3 0.1 0 0-2.7 0.1-2.7 0.1q-0.1 0-0.1-0.1c0-0.1 0.2-0.7 0.3-0.8 0-0.1 0.1-0.2 0.2-0.2 0.5-0.4 1.7-0.6 1.9-0.6 0.2 0 0.4 0 0.5 0 4.9 1.6 7.3 1.5 8 1.5 0 0-0.5 1.1-0.6 1.2-1.1-0.1-1.8-0.1-2.3-0.1 0 0.5 0.1 1 0.3 1.2 0.8 1.2 2.8 0.1 3.2-0.1 0.3-0.2 0.2-0.4 0.2-0.9-0.1-0.6-1.2-11-1.4-11.6-0.1-0.5-0.1-0.7-0.1-0.8 0 0 0.4-0.9 0.4-1 0.1-0.1 0.1 0 0.2 0.1z"/>
		<path id="&lt;Path&gt;" class="s0" d="m37 5.2c0 0.1 1.3 3.1 1.3 3.3 0.1 0.2 0 0.2-0.1 0.1-0.1-0.1-0.7-0.7-0.7-0.7 0 0 1 7.5 1.1 7.9 0.7 4.4 0.1 5.6 0 5.7-0.1 0.2-0.2 0.1-0.2 0 0-1.8-1-8.4-1.1-8.7 0-0.4-0.7-6.2-0.8-6.7 0 0 0.3-0.9 0.4-1 0-0.1 0 0 0.1 0.1z"/>
		<path id="&lt;Compound Path&gt;" fill-rule="evenodd" class="s0" d="m43.2 7.9c0 0.1-0.1 0-0.2-0.1-0.1-0.1-0.4-0.4-0.4-0.4 0 0-0.5 1-1.2 1.5-1.3 1-2.5 1.2-2.5 1.2-0.2 0.1-0.2 0 0-0.2 0.9-0.5 1.9-0.8 3.3-2.6 0 0-0.4-0.2-0.7-0.4-0.4-0.2-0.2-1 0-1.4 0.6-0.8 1.1-0.4 1.2-0.3 0.4 0.9 0.2 1.7 0.2 1.7 0.2 0.1 0.5 0.5 0.3 1zm-0.9-2.1c-0.1-0.1-0.3-0.1-0.6 0.3 0 0.1 0.1 0.2 0.2 0.3 0.2 0.1 0.6 0.3 0.6 0.3 0.1-0.1 0.1-0.6-0.2-0.9z"/>
	</g>
</svg>