<svg version="1.2" xmlns="http://www.w3.org/2000/svg" viewBox="0 0 70 30" width="70" height="30">
	<title>New Project</title>
	<style>
		.s0 { fill: #191c4f } 
	</style>
	<g id="الممتحنة">
		<path id="&lt;Path&gt;" class="s0" d="m27.9 21c0.2 0.1 0.2 0.5 0.1 0.6-0.2 0.7-0.7 1.2-0.8 1.3-0.2 0.2-0.2 0.1-0.1 0 0 0 0.1-0.2 0.2-0.3 0.5-0.6 0.5-0.9 0.5-1-0.1-0.3-0.4-0.3-0.6-0.1-0.1 0.1-0.1 0.1 0 0q0 0 0.1-0.2c0.2-0.3 0.4-0.3 0.6-0.3z"/>
		<path id="&lt;Path&gt;" class="s0" d="m38.3 20.8c0.3 0.1 0.3 0.5 0.2 0.7-0.2 0.7-0.7 1.1-0.8 1.3-0.2 0.1-0.2 0-0.1-0.1 0 0 0.1-0.2 0.2-0.3 0.5-0.5 0.5-0.9 0.5-0.9-0.1-0.4-0.4-0.3-0.6-0.1-0.1 0.1-0.1 0 0 0q0-0.1 0.1-0.2c0.2-0.4 0.4-0.4 0.5-0.4z"/>
		<path id="&lt;Path&gt;" class="s0" d="m13.4 20.9c0 0.1-0.1 0.1-0.1 0.2-0.1 0.2-0.2 0.2-0.3 0.3-0.2 0.1-4.2 2-4.3 2.1-0.2 0.1-0.2 0-0.2-0.1q0 0 0.1-0.2c0-0.2 0.1-0.2 0.3-0.3 0.2-0.1 4.1-2 4.3-2.1 0.3-0.1 0.2 0 0.2 0.1z"/>
		<path id="&lt;Path&gt;" class="s0" d="m20.8 20.5c0 0-0.1 0.2-0.1 0.3-0.3 0.8-0.1 1.2-0.1 1.3 0.2 0.4 0.5 0.2 0.6-0.1 0.1-0.2 0.1-0.1 0.1 0q0 0 0 0.2c-0.2 0.5-0.4 0.6-0.5 0.6-0.3 0-0.5-0.4-0.5-0.6 0-0.9 0.3-1.6 0.4-1.8 0.1-0.2 0.2-0.1 0.1 0.1z"/>
		<path id="&lt;Path&gt;" class="s0" d="m64.4 19.4c0 0 0 0.2 0 0.4 0 0.2-0.1 0.5-0.2 0.8-0.1 0.2-0.7 0.3-1.1 0.1-0.6 1-1.2 0.5-1.5 0.4-0.6-0.3-0.8 0.1-0.9 0.3-0.7 0.8-2.1 0.8-2.4 0.8-0.3 0 0-0.2 0.1-0.2 1.1-0.4 1.7-0.5 2.6-1.3 0.4-0.5 0.7-0.3 0.9-0.2 0.8 0.4 1 0 1.1-0.1 0.1-0.1 0.2-0.6 0.3-0.7 0.1-0.1 0.2 0 0.1 0.1 0 0.1 0 0.2-0.1 0.3 0.4 0.3 0.8 0 0.8 0 0 0 0-0.3 0-0.4q0-0.1 0.1-0.5c0.1-0.2 0.1 0 0.2 0.2z"/>
		<path id="&lt;Path&gt;" class="s0" d="m10.4 14.3l0.9 0.6q0 0 0 0.1l-0.5 0.7q0 0-0.1 0l-0.8-0.6-0.5 0.6q0 0 0 0l-0.9-0.6q-0.1-0.1 0-0.1l0.5-0.7q0 0 0 0l0.9 0.6 0.5-0.6q0 0 0 0z"/>
		<path id="&lt;Path&gt;" class="s0" d="m15.5 14.1l0.9 0.6q0.1 0 0 0.1l-0.5 0.7q0 0-0.1 0l-0.8-0.7q-0.1 0 0 0l0.5-0.7q0-0.1 0 0z"/>
		<path id="&lt;Path&gt;" class="s0" d="m28.2 14l0.9 0.7q0 0 0 0l-0.5 0.7q0 0.1-0.1 0l-0.8-0.6-0.5 0.6q0 0.1-0.1 0l-0.8-0.6q-0.1 0 0-0.1l0.5-0.7q0 0 0 0l0.9 0.6 0.4-0.6q0.1 0 0.1 0z"/>
		<path id="&lt;Compound Path&gt;" fill-rule="evenodd" class="s0" d="m48.1 18.2c-0.2 0.8-1.4 1.3-1.7 1.4-1.1 0.3-1.2-0.8-1.1-1.6 0-0.8 0.6-1.8 0.6-1.8-0.1 0-1.2-0.9-1.3-1-0.1-0.1-0.2-0.2-0.3-0.3-0.1 0-0.1-0.1-0.1-0.1 0 0 0-0.8 0-0.9 0-0.1 0.1-0.1 0.2-0.1 0.1 0.1 1.3 0.6 1.4 0.7 0.2 0 0.1 0.1 0.1 0.1-0.1 0.1-0.5 0.2-0.5 0.2l1 0.7c0 0 1.4-1.9 1.6-2 0.1-0.2 0.1-0.1 0.1 0.1-0.1 0.2-0.3 0.9-0.4 1.1-0.1 0.1-0.8 1.1-0.8 1.1 0 0 0.9 0.6 1.2 0.9 0.4 0.6 0.1 1.2 0 1.5zm-1.8-1.7c0 0-0.6 1.1-0.7 1.3-0.3 0.7 0.4 0.8 0.6 0.8 0.3-0.1 1.1-0.5 1.5-0.8 0.4-0.4-1.1-1.2-1.4-1.3z"/>
		<path id="&lt;Compound Path&gt;" fill-rule="evenodd" class="s0" d="m65.7 17.1c-0.1 0.2-0.3 1-1.5 0.8-0.3 0-0.9-0.2-1.1-0.8-0.3 0.4-1 1.5-2.3 1.3-0.3-0.1-1.2-0.4-1.2-1.6 0 0-1.1 0.9-1.6 1.2 0 0.4 0 0.9-0.2 1.4-0.2 0.5-2.6 3.2-4.5 3.6-0.6 0.1-3 0.6-3.1-2.2-0.1-0.5 0-1 0-1.3-1.5 1.2-3.3 2.1-3.8 2.4-0.8 0.3-3.6 0.8-4.1 0.9-0.3 0.1-0.4 0-0.2-0.2 0.2-0.1 6.4-2.2 9.6-5.5q0.1-0.2 0-0.5c-0.1-0.1-1.1-2-1.2-2.3-0.1-0.3-0.2-0.6-0.3-0.7q0-0.1 0-0.3c0-0.1 0.1-0.6 0.1-0.7 0.1-0.1 0.1-0.1 0.2 0 0 0.1 1.1 1.1 1.2 1.2 0.1 0.2 0 0.2 0 0.2-0.1 0-0.6 0-0.6 0 0 0 0.7 1.2 0.9 1.6 0.4 0.9 0.2 1.6 0 2-0.3 0.5-0.8 1.1-1.4 1.7-0.2 0.4-0.3 2.7 1.7 2.7 0.4 0 1.4 0.2 3.5-1.5 0.5-0.5 1.1-0.9 1.6-1.6 0.1-0.3 0.3-0.7-0.1-0.7-0.3 0.1-2.5 0.9-2.8-0.5-0.1-0.3 0.1-3.4 2.2-1.9 0.2 0.2 0.7 0.5 1 1.1 0.3-0.1 1-0.5 1.8-1.2 0.3-0.2 0.5-0.3 0.5 0 0 0.3-0.2 2.1 1.8 1.6 0.2-0.1 1-0.2 1.6-1.8 0.2-0.4 0.4-0.3 0.3 0-0.1 0.4-0.4 0.7-0.2 0.9 0.2 0.2 0.8 0.6 1.5 0.5 0.2 0 0.4-0.1 0.3-0.3-0.1-0.2-0.4-0.6-0.4-0.6 0.1-0.3 0.2-0.7 0.2-0.8 0.1-0.1 0.1-0.2 0.2-0.1 0.1 0.1 0.7 0.9 0.4 2zm-9 0.1c-0.7-0.9-1.5-0.4-1.6-0.3-0.1 0.1-0.1 0.4 0.5 0.4 0.8 0.1 1.1-0.1 1.1-0.1z"/>
		<path id="&lt;Path&gt;" class="s0" d="m36.3 12.8c0.2 0.2 0.2 0.6 0.2 0.7 0 0-0.4-0.1-0.5-0.2-0.2-0.1-0.3-0.2-0.2-0.3 0.2-0.3 0.4-0.3 0.5-0.2z"/>
		<path id="&lt;Path&gt;" class="s0" d="m36.6 12.3c0.4 0.7 0.2 1.4 0.2 1.4 0.2 0.1 0.4 0.4 0.2 0.9 0 0.1 0 0-0.1-0.1-0.1-0.1-0.4-0.3-0.4-0.3 0 0-0.4 0.8-1 1.2-1.1 0.9-2.1 1.1-2.1 1.1-0.1 0-0.2-0.1 0-0.2 0.7-0.4 1.6-0.7 2.8-2.2 0 0-0.4-0.2-0.6-0.4-0.3-0.2-0.2-0.9 0-1.1 0.5-0.8 0.9-0.4 1-0.3z"/>
		<path id="&lt;Path&gt;" class="s0" d="m33.1 11.9c0.6 0.1 0.5 0.4 0.4 0.6-0.5 0.7-1.1 1-1.5 1.1-0.5 0.2-0.3-0.1 0-0.3 0 0 0.3-0.2 0.6-0.4 0.4-0.3-0.6-0.3-1-0.3-0.5 0-0.6 0.1-0.7 0.3-0.2 0.2-0.4 0.1-0.2-0.1 0.1-0.2 0.2-0.4 0.5-0.8 0.3-0.3 1.3-0.2 1.9-0.1z"/>
		<path id="&lt;Path&gt;" class="s0" d="m46.9 11.5l0.9 0.6q0.1 0.1 0 0.1l-0.5 0.7q0 0 0 0l-0.9-0.6-0.4 0.6q-0.1 0-0.1 0l-0.9-0.6q0-0.1 0-0.1l0.5-0.7q0 0 0.1 0l0.8 0.6 0.5-0.6q0 0 0 0z"/>
		<path id="&lt;Path&gt;" class="s0" d="m63.4 11.5c0 0-0.1 0.2-0.1 0.4-0.3 0.8-0.1 1.1-0.1 1.2 0.2 0.4 0.5 0.2 0.6-0.1 0.1-0.1 0.1-0.1 0.1 0q0 0.1-0.1 0.2c-0.1 0.5-0.3 0.6-0.4 0.6-0.3 0-0.5-0.4-0.5-0.6 0-0.8 0.3-1.5 0.4-1.7 0.1-0.2 0.2-0.1 0.1 0z"/>
		<path id="&lt;Path&gt;" class="s0" d="m54.7 11.1c0 0-0.1 0.2-0.2 0.4-0.3 0.8-0.1 1.2-0.1 1.3 0.3 0.4 0.6 0.2 0.7-0.1 0-0.2 0.1-0.1 0.1 0q0 0-0.1 0.2c-0.1 0.5-0.3 0.6-0.5 0.6-0.3 0-0.4-0.4-0.5-0.6 0-0.9 0.4-1.7 0.5-1.9 0-0.2 0.1-0.1 0.1 0.1z"/>
		<path id="&lt;Path&gt;" class="s0" d="m19.7 10c0 0-0.1 0.4-0.2 0.6-0.5 1.3-0.4 1.9-0.3 2 0.3 0.7 0.7 0.4 0.9-0.1 0.1-0.2 0.2-0.1 0.2 0q-0.1 0.2-0.1 0.4c-0.3 0.8-0.6 1-0.9 1-0.4-0.1-0.6-0.7-0.6-1.1 0.1-1.4 0.7-2.6 0.9-2.9 0.1-0.3 0.2-0.2 0.1 0.1z"/>
		<path id="&lt;Path&gt;" class="s0" d="m8.5 8.5c0.1 0.2 0 0.6-0.1 0.8 0 0.1-0.1 0-0.2-0.1 0 0-0.2-0.2-0.3-0.2-0.4-0.4-0.6 0.3-0.6 0.7-0.1 0.3-0.1 1.2-0.2 1.7q0 0 0 0c-0.1 0.4-0.2 1-0.9 1.5-0.8 0.5-0.9 0.6-1 0.6 0 0-0.1 0 0.1-0.2 0 0 1.7-1.4 1.5-2.1-0.2-0.8-0.8-1.4-0.9-1.5-0.1-0.1-0.2 0-0.2 0.1 0 0.1-0.1 0.1-0.1 0-0.1 0-0.4-0.2-0.5-0.3-0.1-0.2-0.1-0.6-0.1-0.7 0-0.3 0.2-0.4 0.3-0.4 1.2 0.7 1.6 2 1.6 2.2 0.1-1 0.1-1.8 0.6-2.4 0.4-0.5 1 0.2 1 0.3z"/>
		<path id="&lt;Path&gt;" class="s0" d="m10.6 8.1c0 0-0.1 0.3-0.2 0.6-0.5 1.3-0.3 1.9-0.3 2 0.3 0.7 0.8 0.4 1-0.1 0.1-0.2 0.1-0.1 0.1 0q0 0.1-0.1 0.4c-0.3 0.8-0.6 0.9-0.8 0.9-0.5 0-0.6-0.7-0.6-1 0-1.4 0.6-2.6 0.8-2.9 0.2-0.4 0.3-0.2 0.1 0.1z"/>
		<path id="&lt;Path&gt;" class="s0" d="m35.5 7.9c0 0-0.1 0.2-0.1 0.4-0.3 0.8-0.2 1.1-0.1 1.2 0.2 0.4 0.5 0.2 0.6-0.1 0.1-0.1 0.1-0.1 0.1 0q0 0.1-0.1 0.2c-0.1 0.5-0.3 0.7-0.5 0.7-0.3-0.1-0.4-0.4-0.4-0.6-0.1-0.9 0.3-1.6 0.4-1.9 0.1-0.2 0.2-0.1 0.1 0.1z"/>
		<path id="&lt;Path&gt;" class="s0" d="m33.1 7.9c-0.1 0.1-0.1 0.1-0.2 0.3-0.1 0.2-0.2 0.3-0.4 0.4-0.3 0.1-9.5 4.1-9.6 4.1-0.4 0.2-0.3 0.1-0.3 0q0-0.1 0.1-0.3c0.1-0.2 0.2-0.3 0.4-0.4 0.3-0.1 9.4-4.1 9.7-4.2 0.4-0.2 0.3-0.1 0.3 0.1z"/>
		<path id="&lt;Path&gt;" class="s0" d="m25.6 7.9c0.1 0.2 0.1 0.5 0 0.7-0.1 0.1-0.2 0-0.3-0.1 0 0-0.1-0.1-0.2-0.2-0.4-0.4-0.6 0.3-0.7 0.7 0 0.2 0 1.1-0.1 1.5 0 0.2-0.2 0.2-0.2 0.1-0.3-1.1-0.9-1.5-1-1.6-0.1-0.1-0.2 0-0.2 0.1 0 0.1 0 0-0.1 0-0.1 0-0.4-0.2-0.5-0.3-0.1-0.1-0.1-0.5-0.1-0.7 0.1-0.3 0.2-0.3 0.3-0.3 1.2 0.7 1.6 1.8 1.6 2 0.1-0.9 0.1-1.6 0.6-2.2 0.4-0.5 0.9 0.2 0.9 0.3z"/>
		<path id="&lt;Path&gt;" class="s0" d="m22 7.6c0 0.1 0 0.1-0.1 0.3-0.1 0.2-0.3 0.2-0.5 0.4-0.2 0.1-9.4 4.1-9.5 4.1-0.4 0.2-0.4 0.1-0.3 0q0-0.1 0.1-0.4c0-0.1 0.1-0.2 0.4-0.3 0.3-0.1 9.4-4.1 9.7-4.2 0.4-0.2 0.3-0.1 0.2 0.1z"/>
		<path id="&lt;Path&gt;" class="s0" d="m53.9 7.5c0 0.1-0.1 0.1-0.1 0.3-0.1 0.1-0.2 0.2-0.3 0.2-0.2 0.1-4.8 2.8-4.9 2.9-0.2 0.1-0.2 0-0.2-0.1q0 0 0.1-0.2c0-0.2 0.1-0.2 0.3-0.3 0.1-0.1 4.7-2.8 4.9-2.9 0.3-0.1 0.2 0 0.2 0.1z"/>
		<path id="&lt;Path&gt;" class="s0" d="m59.5 7.8c0.1 0.2 0 0.5-0.1 0.7-0.1 0.2-0.2 0-0.3-0.1 0 0-0.1-0.1-0.2-0.2-0.5-0.4-0.6 0.4-0.7 0.7 0 0.3-0.1 1.2-0.2 1.7 0 0.2-0.1 0.1-0.2 0-0.3-1.1-0.9-1.6-1-1.7-0.1-0.1-0.2 0.1-0.2 0.1 0 0.1-0.1 0.1-0.1 0.1-0.1-0.1-0.4-0.3-0.6-0.4-0.1-0.1 0-0.5 0-0.7 0-0.3 0.2-0.4 0.3-0.3 1.2 0.7 1.6 1.9 1.7 2.1 0-0.9 0.1-1.7 0.5-2.3 0.4-0.5 1 0.2 1.1 0.3z"/>
		<path id="&lt;Compound Path&gt;" fill-rule="evenodd" class="s0" d="m64 9.7c-0.1 0.1-0.1 0-0.2-0.1-0.1-0.1-0.2-0.2-0.4-0.3-0.2 0.4-0.1 0.5-0.9 1.1-1.7 1.5-3.5 2-3.6 2-0.2 0-0.2 0 0-0.2 0.6-0.4 3-1.5 4.2-3 0 0-0.4-0.2-0.6-0.3-0.3-0.2-0.2-0.9 0-1.2 0.5-0.7 0.9-0.4 1-0.2 0.4 0.6 0.2 1.3 0.2 1.3 0.2 0.2 0.4 0.5 0.3 0.9zm-0.8-1.8c-0.1-0.1-0.2-0.1-0.5 0.3-0.1 0.1 0 0.2 0.2 0.2 0.1 0.1 0.5 0.3 0.5 0.3 0-0.1 0.1-0.5-0.2-0.8z"/>
		<path id="&lt;Compound Path&gt;" fill-rule="evenodd" class="s0" d="m41.6 20.5c-0.3 0.8-0.7 0.8-1.2 0.5-0.8-0.3-1.2-0.9-1.5-1.4-0.3 0.1-0.5 0.2-0.6 0.2-1.8 0.8-3.2 0.6-3.7 0.5 0 0.4-0.1 0.8-0.1 1.1 0 0.4-0.2 0.6-0.4 0.6-0.2 0-0.4 0-0.9-0.2-0.8-0.6-1.1-1.6-1.1-2q0 0-0.1 0c-2.6 2.3-4-0.2-3.9-0.6-1.1 1.7-2.5 1.7-2.9 1.6-2.1-0.2-1.8-2.1-1.8-2.6q-0.2 0-0.4 0c-0.3 0.1-2.9 1.2-3.9 1.5-2.2 0.5-2.7-1.1-2.7-1.2 0 0-0.9 1.7-2.6 1.6-1.6 0-2.3-1.2-2.7-1.7-0.4-0.6-0.7-0.3-1-0.2-1.2 0.7-2 3.1-2.1 3.4-0.3 0.5-1.1 1.1-1.9 0.2-1.5-1.8-0.8-4.4-0.7-4.6 0-0.2 0.1-0.1 0.1 0.1-0.3 3.1 1.1 3.8 1.3 3.9 0.9 0.1 1.2-0.9 1.4-1.3 0.7-1.9 1.2-2.2 1.9-2.7 0.6-0.5 1.1-0.3 1.3 0 1.1 1.8 2.1 1.8 2.3 1.9 1.9 0 2.7-1.6 2.9-1.9 0.2-0.3 0.2 0.1 0.2 0.3 0.7 2.5 5 0.3 5.3 0.1-0.5-0.2-2.4-0.8-2.6-0.8-0.1-0.1-0.2-0.1-0.2 0 0 0.1-0.1 0.1-0.1 0.1 0 0-1.8 0.1-2 0.1q-0.2 0-0.1-0.1c0-0.1 0.2-0.7 0.3-0.8 0 0 0 0 0.1-0.1 0.7-0.3 1.5-0.5 1.7-0.5 0.2 0 0.3 0 0.5 0.1 4.3 1.7 6.1 1.6 6.7 1.7 0 0-0.5 0.8-0.6 1-0.9-0.1-1.6-0.1-2-0.1-0.1 0.9 0.8 1.4 1.1 1.5 1.9 0.6 3.1-1.4 3.3-1.7 0.2-0.3 0.3-0.1 0.2 0.3 1 2.8 3.4 0.7 3.6 0.5 0.2-0.2 0.3-0.4 0.4-0.5q0.1-0.2 0.1-0.2c0.3-0.4 0.4-0.2 0.4 0q0 0.1 0 0.1c2.6 2.4 5.2 0.7 5.6 0.6q0-0.1 0.1-0.1 0 0 0-0.1c-0.5-2.2-1.3-9.6-1.4-10 0-0.4-0.1-0.6-0.1-0.6 0 0 0.3-0.8 0.3-0.9 0.1-0.1 0.1 0 0.2 0 0 0.1 1.1 2.7 1.1 2.9 0.1 0.1 0 0.2-0.1 0.1-0.1-0.1-0.6-0.6-0.6-0.6 0 0 0.5 5.1 1.2 8.4q0.1 0.3 0.1 0.5c0.8-0.2 1.3-0.2 1.6-0.1 1.3 0.2 0.8 1.8 0.7 2.2zm-1-1.2c-0.2-0.1-0.5-0.1-0.8 0 0.5 0.6 1 0.8 1.3 0.8 0.3 0.1 0.2-0.6-0.5-0.8z"/>
		<path id="&lt;Path&gt;" class="s0" d="m41.4 7.1c0.1 0.1 1.1 2.7 1.2 2.9 0 0.1-0.1 0.2-0.2 0.1 0-0.1-0.6-0.6-0.6-0.6 0 0 0.9 6.3 1 6.6 0.6 3.7 0.1 4.8 0 4.9-0.1 0.2-0.2 0.1-0.1-0.1-0.1-1.5-0.9-7-1-7.3 0-0.4-0.6-5.2-0.7-5.7 0 0 0.3-0.7 0.3-0.8 0.1-0.1 0.1 0 0.1 0z"/>
		<path id="&lt;Compound Path&gt;" fill-rule="evenodd" class="s0" d="m46.7 9.4c0 0.2-0.1 0.1-0.2 0 0-0.1-0.3-0.3-0.3-0.3 0 0-0.4 0.8-1 1.2-1.2 0.9-2.1 1-2.2 1.1-0.1 0-0.1-0.1 0.1-0.2 0.7-0.4 1.5-0.7 2.8-2.2 0 0-0.4-0.2-0.7-0.4-0.3-0.2-0.1-0.9 0.1-1.2 0.4-0.7 0.9-0.3 0.9-0.2 0.4 0.7 0.2 1.4 0.2 1.4 0.2 0.1 0.5 0.4 0.3 0.8zm-0.8-1.8c-0.1 0-0.2 0-0.4 0.3-0.1 0.1 0 0.2 0.1 0.3 0.2 0.1 0.5 0.2 0.5 0.2 0-0.1 0.1-0.5-0.2-0.8z"/>
	</g>
</svg>