<svg version="1.2" xmlns="http://www.w3.org/2000/svg" viewBox="0 0 70 30" width="70" height="30">
	<title>New Project</title>
	<style>
		.s0 { fill: #191c4f } 
	</style>
	<g id="الصف">
		<path id="&lt;Path&gt;" class="s0" d="m15.6 23c0 0.1-0.1 0.2-0.2 0.3 0 0.2-0.2 0.3-0.4 0.4-0.2 0.1-3.3 1.4-3.4 1.4-0.4 0.2-0.4 0.1-0.3 0q0-0.1 0.1-0.3c0-0.2 0.1-0.3 0.4-0.4 0.2-0.1 3.3-1.4 3.5-1.5 0.4-0.2 0.4 0 0.3 0.1z"/>
		<path id="&lt;Path&gt;" class="s0" d="m33.7 21.8c0.4 0.1 0.4 0.6 0.3 0.8-0.3 1-1 1.7-1.2 1.9-0.2 0.2-0.2 0.1-0.1-0.1 0 0 0.2-0.2 0.3-0.4 0.7-0.8 0.6-1.2 0.6-1.3-0.1-0.6-0.5-0.5-0.7-0.2-0.2 0.2-0.2 0.1-0.1 0q0-0.1 0.1-0.3c0.4-0.5 0.6-0.5 0.8-0.4z"/>
		<path id="&lt;Path&gt;" class="s0" d="m63.9 20c0 0 0 0.3 0 0.5 0 0.3-0.1 0.6-0.2 1-0.1 0.3-0.9 0.5-1.4 0.1-0.8 1.3-1.5 0.7-2 0.5-0.7-0.3-0.9 0.2-1.1 0.4-0.9 1.1-2.7 1-3.1 1.1-0.4 0 0-0.2 0.1-0.3 1.4-0.5 2.2-0.6 3.4-1.7 0.6-0.5 0.9-0.3 1.1-0.2 1.1 0.5 1.3 0 1.4-0.1 0.2-0.2 0.4-0.8 0.4-0.9 0.1-0.2 0.2-0.1 0.2 0.1 0 0.1-0.1 0.3-0.1 0.4 0.5 0.3 0.9 0 1 0 0 0 0-0.4 0-0.5q0-0.2 0.1-0.6c0.1-0.3 0.2 0 0.2 0.2z"/>
		<path id="&lt;Path&gt;" class="s0" d="m10.7 14.5c0 0-0.1 0.4-0.2 0.7-0.4 1.2-0.1 1.8-0.1 1.9 0.4 0.6 0.9 0.2 1.1-0.2 0.1-0.3 0.2-0.2 0.1 0q0 0.1 0 0.3c-0.2 0.8-0.6 1-0.8 1-0.5 0-0.8-0.6-0.8-0.9-0.2-1.3 0.3-2.5 0.5-2.8 0.1-0.4 0.2-0.2 0.2 0z"/>
		<path id="&lt;Path&gt;" class="s0" d="m25.2 12.8c0 0 0.1 0.5 0.3 0.8 0.2 0.2 0.3 0.5 0.2 0.9-0.1 0.5-0.3 0.8-0.5 0.9-0.2 0-0.7 0-1-0.4-0.4 0.7-0.9 0.9-1.2 0.7-0.4-0.1-0.4-0.7-0.4-0.9 0-0.2 0-0.8 0-0.9 0-0.2 0-0.3 0.1-0.4 0.1-0.2 0.1-0.1 0.1 0.1 0 0.2-0.1 1 0.1 1.3 0.4 0.4 1 0 1.1-0.2 0.2-0.3-0.1-1.1-0.1-1.2q-0.1-0.1-0.1-0.1c0-0.1 0.1-0.3 0.1-0.5q0.1-0.1 0.2 0.1c0.1 0.1 0.1 0.3 0.2 1.1 0.2 0.8 0.9 0.6 1.1 0.6 0.1-0.1 0.1-0.2 0.1-0.3-0.1-0.1-0.4-0.7-0.5-1-0.1-0.3 0-0.5 0-0.8 0.1-0.2 0.2 0 0.2 0.2z"/>
		<path id="&lt;Path&gt;" class="s0" d="m15.2 12.6l1.1 0.8q0 0 0 0.1l-0.7 0.9q0 0-0.1 0l-1.1-0.8q0-0.1 0-0.1l0.7-0.9q0-0.1 0.1 0z"/>
		<path id="&lt;Compound Path&gt;" fill-rule="evenodd" class="s0" d="m43 18.4c-0.3 1.1-1.9 1.7-2.3 1.8-1.4 0.5-1.5-0.9-1.4-2 0.1-1 0.8-2.3 0.8-2.3 0-0.1-1.5-1.2-1.6-1.3-0.2-0.2-0.3-0.3-0.4-0.4-0.2-0.1-0.2-0.2-0.2-0.2 0 0 0.1-1 0.1-1.1 0-0.2 0-0.1 0.2-0.1 0.1 0.1 1.7 0.7 1.9 0.8 0.1 0.1 0.1 0.2 0 0.2-0.1 0.1-0.7 0.2-0.7 0.2l1.4 1c0 0 1.8-2.4 2-2.7 0.2-0.2 0.1-0.1 0.1 0.2 0 0.2-0.4 1.2-0.5 1.4-0.1 0.1-1 1.4-1 1.4 0 0 1.2 0.8 1.5 1.2 0.6 0.8 0.2 1.5 0.1 1.9zm-2.3-2.1c0 0-0.8 1.4-0.9 1.6-0.4 0.9 0.4 1 0.7 1 0.3 0 1.4-0.6 2-1 0.5-0.5-1.5-1.5-1.8-1.6z"/>
		<path id="&lt;Compound Path&gt;" fill-rule="evenodd" class="s0" d="m65.6 17.1c-0.1 0.2-0.4 1.3-1.9 1-0.3-0.1-1.1-0.3-1.4-1.1-0.4 0.5-1.2 1.9-3 1.7-0.3-0.1-1.5-0.6-1.6-2.1 0 0-1.4 1.2-2 1.5 0 0.6 0 1.2-0.3 1.9-0.2 0.6-3.2 4-5.7 4.6-0.8 0.2-4 0.8-4.1-2.8 0-0.7 0-1.3 0.1-1.6-1.9 1.5-4.3 2.6-5 2.9-1 0.5-4.6 1.1-5.2 1.2-0.5 0.1-0.5 0-0.3-0.1 0.3-0.2 8.3-2.9 12.4-7.2 0.1-0.2 0.1-0.3 0-0.6-0.1-0.2-1.4-2.7-1.5-3-0.2-0.3-0.3-0.7-0.4-0.8q-0.1-0.2-0.1-0.4c0.1-0.2 0.2-0.8 0.2-1 0.1-0.1 0.1-0.1 0.2 0 0.1 0.1 1.4 1.4 1.6 1.6 0.1 0.2 0 0.3-0.1 0.3 0 0-0.6-0.1-0.6-0.1 0 0 0.8 1.5 1.1 2 0.5 1.2 0.2 2.2 0 2.6-0.4 0.8-1.1 1.5-1.9 2.2-0.1 0.6-0.4 3.5 2.3 3.6 0.4 0 1.8 0.2 4.5-2.1 0.7-0.5 1.4-1.1 2-2 0.2-0.3 0.4-0.9-0.1-0.8-0.4 0-3.2 1.1-3.6-0.7-0.1-0.4 0.1-4.4 2.9-2.4 0.2 0.1 0.8 0.6 1.2 1.4 0.5-0.2 1.3-0.7 2.4-1.6 0.3-0.2 0.6-0.4 0.6 0 0 0.4-0.3 2.7 2.3 2 0.3 0 1.3-0.3 2.1-2.3 0.2-0.4 0.5-0.4 0.4 0-0.2 0.5-0.5 1-0.2 1.2 0.2 0.2 0.9 0.8 1.8 0.6 0.3 0 0.5-0.1 0.4-0.4-0.1-0.2-0.4-0.7-0.4-0.7 0-0.4 0.2-0.9 0.2-1 0-0.2 0.1-0.3 0.2-0.2 0.1 0.2 1 1.2 0.5 2.7zm-11.5 0.1c-0.9-1.2-2-0.5-2.1-0.4-0.1 0.1-0.2 0.5 0.7 0.5 1 0.1 1.4-0.1 1.4-0.1z"/>
		<path id="&lt;Path&gt;" class="s0" d="m6.2 11.3c0 0-0.1 0.5-0.2 0.9-0.6 2-0.4 2.9-0.3 3.1 0.4 1 1 0.5 1.2-0.3 0.1-0.3 0.2-0.1 0.2 0q0 0.2-0.1 0.6c-0.3 1.2-0.7 1.5-1 1.5-0.6-0.1-0.9-1-0.9-1.5 0-2.2 0.8-3.9 0.9-4.5 0.2-0.5 0.4-0.2 0.2 0.2z"/>
		<path id="&lt;Path&gt;" class="s0" d="m29.3 10.9c0 0-0.1 0.3-0.2 0.6-0.4 1.2-0.1 1.8 0 1.9 0.4 0.6 0.9 0.3 1.1-0.2 0-0.3 0.1-0.1 0.1 0q0 0.1 0 0.3c-0.2 0.8-0.6 1-0.8 1-0.6 0-0.8-0.6-0.9-0.9-0.1-1.3 0.4-2.5 0.6-2.8 0.1-0.4 0.2-0.2 0.1 0.1z"/>
		<path id="&lt;Path&gt;" class="s0" d="m41.5 9.8l1.1 0.8q0 0 0 0.1l-0.6 0.9q-0.1 0-0.1 0l-1.1-0.8-0.6 0.8q-0.1 0-0.1 0l-1.1-0.8q-0.1 0 0-0.1l0.6-0.9q0.1-0.1 0.1 0l1.1 0.8 0.6-0.8q0-0.1 0.1 0z"/>
		<path id="&lt;Path&gt;" class="s0" d="m62.7 9.8c0 0-0.1 0.3-0.2 0.5-0.3 1-0.1 1.5-0.1 1.6 0.3 0.5 0.7 0.2 0.8-0.2 0.1-0.2 0.1-0.1 0.1 0q0 0.1-0.1 0.3c-0.1 0.6-0.4 0.8-0.6 0.8-0.4 0-0.5-0.5-0.5-0.8-0.1-1.1 0.3-2 0.5-2.2 0.1-0.3 0.2-0.2 0.1 0z"/>
		<path id="&lt;Path&gt;" class="s0" d="m51.4 9.2c0 0-0.1 0.4-0.2 0.6-0.3 1-0.1 1.5-0.1 1.6 0.3 0.6 0.7 0.3 0.9-0.1 0-0.2 0.1-0.1 0.1 0q0 0.1-0.1 0.3c-0.2 0.7-0.4 0.8-0.7 0.8-0.4 0-0.5-0.5-0.6-0.8 0-1.2 0.5-2.1 0.6-2.4 0.1-0.3 0.2-0.2 0.1 0z"/>
		<path id="&lt;Path&gt;" class="s0" d="m16 8.7c0 0 0.1 0.5 0.3 0.8 0.2 0.2 0.3 0.5 0.2 1-0.1 0.4-0.3 0.7-0.5 0.8-0.2 0.1-0.7 0.1-1-0.4-0.4 0.8-0.9 0.9-1.3 0.8-0.3-0.2-0.3-0.8-0.3-1 0-0.2 0-0.8 0-0.9 0-0.1 0-0.2 0.1-0.4 0.1-0.1 0.1-0.1 0.1 0.1 0 0.2-0.1 1 0.1 1.3 0.4 0.5 1 0 1.1-0.2 0.2-0.2-0.1-1.1-0.1-1.2q-0.1 0-0.1-0.1c0 0 0.1-0.3 0.1-0.4q0.1-0.2 0.2 0c0.1 0.1 0.1 0.3 0.2 1.1 0.2 0.8 0.9 0.6 1.1 0.6 0.1-0.1 0.1-0.2 0.1-0.3-0.1-0.1-0.4-0.7-0.5-1-0.1-0.3 0-0.5 0-0.7 0.1-0.3 0.2-0.1 0.2 0.1z"/>
		<path id="&lt;Path&gt;" class="s0" d="m29.4 7c0 0.1 0 0.2-0.1 0.4-0.1 0.2-0.2 0.2-0.5 0.4-0.2 0.1-9.9 5.4-10 5.5-0.4 0.2-0.4 0.1-0.3-0.1q0 0 0-0.3c0.1-0.2 0.2-0.3 0.5-0.5 0.2-0.1 9.9-5.4 10.1-5.5 0.4-0.2 0.4-0.1 0.3 0.1z"/>
		<path id="&lt;Path&gt;" class="s0" d="m11.8 6.1c0.1 0.3 0 0.8-0.1 1-0.1 0.2-0.2 0-0.4-0.1 0 0-0.1-0.2-0.2-0.3-0.6-0.5-0.9 0.5-0.9 0.9-0.1 0.4-0.1 1.5-0.2 2.1q0 0.1 0 0.1c-0.1 0.5-0.3 1.2-1.2 1.8-1.1 0.7-1.2 0.8-1.3 0.8-0.1 0.1-0.2 0 0-0.2 0.2-0.1 2.3-1.8 2.1-2.7-0.3-1-1.1-1.8-1.2-1.9-0.1-0.1-0.2 0.1-0.3 0.2 0 0.1-0.1 0.1-0.1 0-0.1 0-0.5-0.3-0.7-0.5-0.1-0.1-0.1-0.6-0.1-0.8 0.1-0.4 0.3-0.5 0.4-0.5 1.6 0.9 2.1 2.5 2.1 2.7 0.1-1.1 0.2-2.2 0.8-3 0.5-0.6 1.2 0.3 1.3 0.4z"/>
		<path id="&lt;Path&gt;" class="s0" d="m22.6 5.9c0.2 0.2 0.1 0.7 0 0.9-0.1 0.2-0.3 0-0.4-0.1 0 0-0.1-0.2-0.3-0.3-0.5-0.4-0.7 0.5-0.8 0.9-0.1 0.4-0.1 1.4-0.2 2 0 0.3-0.2 0.2-0.3 0.1-0.3-1.3-1.1-2-1.2-2.1-0.1-0.1-0.2 0.1-0.3 0.2 0 0-0.1 0-0.1 0-0.1 0-0.5-0.3-0.7-0.5-0.1-0.1-0.1-0.6 0-0.8 0-0.3 0.2-0.5 0.3-0.4 1.5 0.9 2 2.3 2.1 2.6 0.1-1.1 0.1-2.1 0.7-2.9 0.5-0.6 1.2 0.3 1.2 0.4z"/>
		<path id="&lt;Compound Path&gt;" fill-rule="evenodd" class="s0" d="m33.2 18.4c-0.2 2.1-1.3 2.7-1.7 2.9-2 0.8-5.5 1.2-5.9 1.3-1 0-1.8-0.1-2.4-0.3-0.2 0.3-0.6 0.9-0.7 0.9-0.1 0.1-0.2 0.1-0.1-0.1 0.1-0.1 0.3-0.7 0.4-0.9-0.8-0.5-1.3-1.1-1.6-1.5-0.5 1.2-1.3 1.6-1.8 1.8-2 0.6-3.2-1.1-3.6-1.6-6 2.9-8.6 1.8-8.9 1.6-3.1-1.5-1.5-4.9-1.4-5.3 0.2-0.4 0.4-0.1 0.3 0.1-1 3 1.1 3.7 1.5 3.9 3.4 1.1 7.6-1.1 8-1.3 0 0-0.4-0.9-0.5-1.4-0.1-0.9 0.5-2.1 1-2.7 0.4-0.6 1.8-0.1 1.9 2 0.1 1.6-0.7 2.1-1 2.5 0.8 1.5 2.8 0.9 3 0.7 1.1-0.5 1.5-1.9 1.7-2.2 0.3-0.4 0.3 0.2 0.3 0.6 0.5 1.2 1.7 1.6 1.7 1.6 2.5-3.9 3.9-4.2 4.3-4.4 0.6-0.2 2.6-0.6 3.7 1.5 0.2 0.5-0.2 1.8-0.3 2.1 1.8-0.6 1.5-1.2 1.5-1.6 0-0.3-0.5-3.3-0.5-3.7-0.1-0.4-0.9-6-0.9-6-0.1-0.7-0.1-1.4-0.1-1.9-0.1-0.5-0.2-0.7-0.3-0.8 0 0 0.4-1 0.5-1.1 0-0.1 0.1-0.1 0.1 0.1 0.1 0.1 1.2 3.1 1.3 3.3 0 0.1-0.1 0.2-0.2 0.1-0.1-0.1-0.6-0.4-0.6-0.4 0 0 1.4 9.5 1.3 10.2zm-16.1 0.2c0.1-0.1 0.2-0.1 0.1-0.3 0-0.1-0.7-1.9-1.5-1.2-0.4 0.4-0.3 0.9-0.2 1.1 0 0.2 0.5 1.2 0.5 1.2 0.3-0.1 1-0.7 1.1-0.8zm13.5 0.5c-1.2-1.6-2.5-1.5-3-1.4-1.9 0.7-3.6 3.4-3.6 3.4 0.5 0.1 4.1 0.2 6.6-1.5 0.1-0.1 0.3-0.2 0-0.5z"/>
		<path id="&lt;Path&gt;" class="s0" d="m34.7 5.2c0.1 0.1 1.5 3.4 1.5 3.6 0.1 0.2-0.1 0.2-0.2 0.1-0.1-0.1-0.7-0.7-0.7-0.7 0 0 1 7.4 1.1 7.8 0.8 4.8 0.1 6.2 0 6.3-0.1 0.2-0.2 0.2-0.1 0-0.1-2-1.1-8.4-1.2-8.9 0-0.4-0.8-6.7-0.9-7.3 0 0 0.3-0.9 0.4-1 0-0.1 0.1-0.1 0.1 0.1z"/>
		<path id="&lt;Path&gt;" class="s0" d="m50.4 4.6c0 0.2 0 0.2-0.1 0.4-0.1 0.2-0.2 0.2-0.4 0.4-0.2 0.1-6.1 3.5-6.2 3.6-0.4 0.2-0.4 0-0.3-0.1q0 0 0.1-0.3c0-0.2 0.1-0.2 0.3-0.4 0.2-0.1 6.1-3.5 6.3-3.7 0.4-0.2 0.4 0 0.3 0.1z"/>
		<path id="&lt;Path&gt;" class="s0" d="m57.6 5c0.1 0.2 0 0.7-0.1 1-0.1 0.2-0.2 0-0.4-0.2 0 0-0.1-0.1-0.2-0.2-0.6-0.6-0.9 0.4-0.9 0.9-0.1 0.3-0.1 1.4-0.2 2.1-0.1 0.2-0.2 0.2-0.3 0-0.4-1.3-1.2-2-1.3-2.1-0.2-0.2-0.3 0-0.3 0.1 0 0.1-0.1 0.1-0.2 0.1 0-0.1-0.5-0.4-0.6-0.5-0.2-0.2-0.1-0.7-0.1-0.9 0-0.4 0.2-0.5 0.4-0.4 1.6 0.9 2.1 2.4 2.1 2.7 0.1-1.2 0.2-2.2 0.8-3 0.5-0.7 1.2 0.3 1.3 0.4z"/>
		<path id="&lt;Compound Path&gt;" fill-rule="evenodd" class="s0" d="m63.4 7.5c0 0.1-0.1 0-0.2-0.1-0.1-0.1-0.3-0.3-0.5-0.4-0.2 0.5-0.2 0.6-1.2 1.4-2.2 1.9-4.6 2.5-4.7 2.6-0.1 0-0.1-0.1 0.1-0.2 0.7-0.6 3.8-2 5.4-4 0 0-0.5-0.2-0.8-0.4-0.4-0.3-0.2-1.1 0.1-1.5 0.6-1 1.1-0.5 1.2-0.3 0.5 0.9 0.2 1.8 0.2 1.8 0.3 0.2 0.6 0.5 0.4 1.1zm-1-2.4c-0.1 0-0.3 0-0.6 0.4-0.1 0.1 0 0.3 0.2 0.4 0.2 0 0.7 0.3 0.7 0.3 0-0.2 0-0.7-0.3-1.1z"/>
		<path id="&lt;Compound Path&gt;" fill-rule="evenodd" class="s0" d="m41.2 7.2c-0.1 0.1-0.2 0-0.3-0.1 0-0.1-0.4-0.4-0.4-0.4 0 0-0.5 1-1.3 1.6-1.5 1.1-2.7 1.3-2.8 1.3-0.1 0-0.2-0.1 0.1-0.2 0.9-0.6 2-0.9 3.6-2.9 0 0-0.5-0.2-0.9-0.4-0.3-0.3-0.1-1.2 0.1-1.5 0.6-1 1.2-0.5 1.2-0.3 0.6 0.9 0.3 1.8 0.3 1.8 0.3 0.1 0.6 0.5 0.4 1.1zm-1.1-2.4c-0.1 0-0.2-0.1-0.6 0.4 0 0.1 0.1 0.2 0.3 0.3 0.2 0.1 0.6 0.3 0.6 0.3 0-0.1 0.1-0.6-0.3-1z"/>
	</g>
</svg>