<svg version="1.2" xmlns="http://www.w3.org/2000/svg" viewBox="0 0 70 30" width="70" height="30">
	<title>New Project</title>
	<style>
		.s0 { fill: #191c4f } 
	</style>
	<g id="الجمعة">
		<path id="&lt;Path&gt;" class="s0" d="m13.8 22c0 0.1 0 0.2-0.1 0.4-0.1 0.1-0.2 0.2-0.4 0.3-0.2 0.1-3.3 1.2-3.4 1.3-0.3 0.2-0.3 0-0.3-0.1q0.1 0 0.1-0.3c0.1-0.1 0.1-0.2 0.4-0.3 0.2-0.1 3.3-1.3 3.5-1.4 0.3-0.1 0.3 0 0.2 0.1z"/>
		<path id="&lt;Path&gt;" class="s0" d="m34 21.6l1.1 0.8q0 0 0 0.1l-0.6 0.8q0 0.1-0.1 0l-1-0.7q-0.1-0.1-0.1-0.1l0.7-0.9q0 0 0 0z"/>
		<path id="&lt;Path&gt;" class="s0" d="m20.5 20.7c0 0-0.1 0.3-0.1 0.5-0.3 1.2-0.1 1.7 0 1.8 0.3 0.5 0.6 0.2 0.8-0.2 0-0.3 0.1-0.1 0.1 0q-0.1 0.1-0.1 0.3c-0.1 0.7-0.4 0.9-0.6 0.9-0.4 0-0.6-0.5-0.6-0.8-0.1-1.2 0.3-2.3 0.4-2.6 0.1-0.3 0.2-0.2 0.1 0.1z"/>
		<path id="&lt;Path&gt;" class="s0" d="m64 19.8c0 0 0.1 0.3 0.1 0.6 0 0.2-0.2 0.5-0.3 0.9-0.1 0.3-0.8 0.4-1.2 0.1-0.8 1.2-1.5 0.6-1.9 0.5-0.7-0.3-0.9 0.2-1.1 0.3-0.8 1-2.4 1-2.8 1-0.4 0.1-0.1-0.2 0.1-0.2 1.3-0.5 2-0.6 3.1-1.6 0.5-0.5 0.9-0.3 1-0.2 1.1 0.5 1.2 0 1.4-0.1 0.1-0.2 0.3-0.7 0.4-0.9 0-0.1 0.1 0 0.1 0.1 0 0.1-0.1 0.3-0.1 0.4 0.4 0.3 0.9 0.1 1 0 0 0-0.1-0.3-0.1-0.5q0-0.1 0.2-0.5c0.1-0.3 0.1 0 0.1 0.1z"/>
		<path id="&lt;Path&gt;" class="s0" d="m6.1 13.5c0 0-0.1 0.3-0.1 0.6-0.4 1.1-0.1 1.5-0.1 1.7 0.4 0.5 0.8 0.2 0.9-0.2 0.1-0.3 0.1-0.2 0.1-0.1q0 0.1 0 0.4c-0.2 0.7-0.5 0.8-0.7 0.8-0.4 0-0.6-0.5-0.7-0.7-0.1-1.2 0.4-2.3 0.5-2.6 0.1-0.2 0.2-0.1 0.1 0.1z"/>
		<path id="&lt;Path&gt;" class="s0" d="m9.6 13.1l1 0.7 0.6-0.7q0 0 0.1 0l1 0.8q0.1 0 0 0l-0.6 0.9q0 0-0.1 0l-1-0.7-0.5 0.7q-0.1 0-0.1 0l-1.1-0.8q0 0 0-0.1l0.6-0.8q0.1 0 0.1 0z"/>
		<path id="&lt;Compound Path&gt;" fill-rule="evenodd" class="s0" d="m44.6 18.4c-0.3 1-1.8 1.6-2.2 1.7-1.3 0.4-1.4-0.9-1.3-1.9 0.1-0.9 0.8-2.1 0.8-2.1-0.1-0.1-1.5-1.2-1.6-1.3-0.1-0.1-0.2-0.2-0.3-0.3-0.2-0.1-0.1-0.2-0.1-0.2 0 0 0-0.9 0-1.1 0-0.1 0 0 0.2 0 0.1 0.1 1.6 0.7 1.7 0.7 0.2 0.1 0.1 0.2 0 0.3 0 0-0.5 0.1-0.5 0.1l1.2 0.9c0 0 1.7-2.2 1.9-2.5 0.1-0.2 0.1-0.1 0.1 0.2-0.1 0.2-0.4 1.1-0.5 1.3 0 0.1-0.9 1.4-0.9 1.4 0 0 1.1 0.6 1.4 1 0.5 0.7 0.2 1.4 0.1 1.8zm-2.2-2c0 0-0.7 1.3-0.8 1.6-0.4 0.7 0.4 0.9 0.7 0.9 0.3-0.1 1.3-0.6 1.8-1 0.5-0.4-1.4-1.3-1.7-1.5z"/>
		<path id="&lt;Compound Path&gt;" fill-rule="evenodd" class="s0" d="m65.6 17.2c-0.1 0.2-0.3 1.2-1.7 0.9-0.4-0.1-1.1-0.2-1.4-1-0.3 0.4-1.1 1.8-2.7 1.5-0.4 0-1.5-0.4-1.5-1.8 0 0-1.3 1-1.9 1.3 0 0.5 0 1.1-0.2 1.7-0.3 0.7-3.1 3.9-5.4 4.4-0.8 0.1-3.7 0.7-3.8-2.6q0-1 0.1-1.6c-1.8 1.4-4 2.5-4.6 2.8-1 0.5-4.3 1-4.9 1.1-0.4 0.1-0.5 0-0.3-0.1 0.3-0.2 7.7-2.7 11.6-6.7 0.1-0.2 0.1-0.3-0.1-0.5-0.1-0.2-1.3-2.5-1.4-2.9-0.1-0.3-0.3-0.6-0.3-0.7q-0.1-0.2-0.1-0.4c0.1-0.1 0.2-0.8 0.2-0.9 0-0.1 0.1-0.1 0.2 0 0.1 0.1 1.3 1.3 1.4 1.5 0.2 0.2 0.1 0.2 0 0.2-0.1 0-0.6 0-0.6 0 0 0 0.7 1.4 1 1.9 0.5 1.1 0.2 2 0.1 2.4-0.4 0.7-1.1 1.4-1.8 2-0.2 0.6-0.4 3.3 2.1 3.3 0.4 0 1.7 0.2 4.2-1.9 0.6-0.5 1.3-1 1.8-1.8 0.3-0.3 0.4-0.9 0-0.8-0.4 0-3 1-3.4-0.6-0.1-0.4 0.1-4.2 2.7-2.3 0.2 0.1 0.7 0.6 1.1 1.3 0.4-0.2 1.2-0.6 2.2-1.4 0.3-0.3 0.6-0.4 0.6-0.1 0 0.4-0.2 2.6 2.1 1.9 0.3 0 1.3-0.3 2-2.1 0.2-0.4 0.5-0.4 0.4 0-0.2 0.4-0.5 0.8-0.3 1.1 0.3 0.2 1 0.7 1.8 0.6 0.3-0.1 0.4-0.2 0.3-0.4-0.1-0.3-0.4-0.8-0.4-0.8 0.1-0.3 0.2-0.7 0.3-0.9 0-0.1 0-0.2 0.1-0.1 0.1 0.1 0.9 1.1 0.5 2.5zm-10.7 0.1c-0.8-1.2-1.8-0.5-2-0.4-0.1 0.1-0.1 0.5 0.7 0.5 0.9 0.1 1.3-0.1 1.3-0.1z"/>
		<path id="&lt;Path&gt;" class="s0" d="m19.9 11c0 0-0.1 0.3-0.1 0.5-0.3 1.1-0.2 1.6-0.1 1.7 0.2 0.5 0.6 0.2 0.7-0.2 0-0.2 0.1-0.1 0.1 0q0 0.1-0.1 0.3c-0.1 0.7-0.4 0.9-0.5 0.9-0.4-0.1-0.5-0.6-0.5-0.9-0.1-1.1 0.3-2.1 0.4-2.4 0.1-0.3 0.2-0.2 0.1 0.1z"/>
		<path id="&lt;Path&gt;" class="s0" d="m43.1 10.4l1.1 0.7q0 0.1 0 0.1l-0.6 0.9q0 0-0.1 0l-1-0.8-0.5 0.8q-0.1 0-0.1 0l-1.1-0.8q0 0 0-0.1l0.6-0.8q0.1-0.1 0.1 0l1 0.7 0.6-0.7q0-0.1 0 0z"/>
		<path id="&lt;Path&gt;" class="s0" d="m62.9 10.4c0 0-0.1 0.3-0.2 0.5-0.3 0.9-0.1 1.3-0.1 1.4 0.3 0.5 0.6 0.2 0.8-0.1 0-0.2 0.1-0.1 0.1 0q0 0.1-0.1 0.3c-0.1 0.5-0.4 0.7-0.6 0.7-0.3 0-0.5-0.5-0.5-0.7 0-1 0.4-1.9 0.5-2.1 0.1-0.3 0.2-0.2 0.1 0z"/>
		<path id="&lt;Compound Path&gt;" fill-rule="evenodd" class="s0" d="m31.5 13.1c-0.1 0.1-0.1 0-0.2-0.2-0.1 0-0.4-0.4-0.4-0.4 0 0-0.5 1.1-1.8 1.8-1.4 0.9-2.6 1.2-2.7 1.2-0.1 0-0.1-0.1 0.1-0.2 0.9-0.4 2.4-1.3 4-2.9 0 0-0.4-0.3-0.7-0.5-0.3-0.3 0-1.1 0.2-1.4 0.7-0.8 1.1-0.3 1.2-0.2 0.4 0.9 0 1.7 0 1.7 0.3 0.2 0.5 0.5 0.3 1.1zm-0.7-2.3c-0.1-0.1-0.3-0.1-0.6 0.3-0.1 0.1 0 0.2 0.2 0.3 0.1 0.1 0.5 0.4 0.5 0.4 0.1-0.2 0.2-0.7-0.1-1z"/>
		<path id="&lt;Path&gt;" class="s0" d="m52.4 9.9c0 0-0.1 0.3-0.2 0.5-0.3 1-0.1 1.4-0.1 1.5 0.3 0.5 0.7 0.3 0.8-0.1 0.1-0.2 0.1-0.1 0.1 0q0 0.1 0 0.3c-0.2 0.6-0.5 0.7-0.7 0.7-0.3 0-0.5-0.5-0.5-0.7-0.1-1.1 0.4-2 0.5-2.3 0.1-0.3 0.2-0.1 0.1 0.1z"/>
		<path id="&lt;Compound Path&gt;" fill-rule="evenodd" class="s0" d="m27.4 11.7c-0.1 0.1-0.2 0-0.2-0.1-0.1-0.1-0.4-0.5-0.4-0.5 0 0-0.6 1.2-2 2-1.4 0.9-2.8 1.1-2.9 1.1-0.1 0-0.2-0.1 0.1-0.2 0.9-0.3 2.8-1.4 4.5-3.1 0 0-0.4-0.2-0.7-0.5-0.2-0.3 0.1-1.1 0.4-1.4 0.7-0.7 1.1-0.2 1.1 0 0.4 0.9-0.1 1.6-0.1 1.6 0.3 0.3 0.5 0.6 0.2 1.1zm-0.5-2.3c-0.1-0.1-0.3-0.1-0.6 0.2-0.1 0.1-0.1 0.3 0.1 0.4 0.2 0.1 0.5 0.4 0.5 0.4 0.1-0.1 0.2-0.6 0-1z"/>
		<path id="&lt;Path&gt;" class="s0" d="m9.2 6.8c0.2 0.2 0.1 0.6 0 0.9-0.1 0.2-0.2 0-0.4-0.2 0 0-0.1-0.1-0.2-0.2-0.6-0.5-0.8 0.4-0.8 0.9-0.1 0.3-0.1 1.3-0.2 1.9q0 0.1 0 0.1c-0.1 0.5-0.3 1.1-1.1 1.7-1 0.6-1.1 0.7-1.2 0.7-0.1 0-0.2 0 0-0.2 0.1-0.1 2.1-1.7 1.9-2.5-0.2-1-1-1.6-1.1-1.7-0.1-0.2-0.2 0-0.2 0.1-0.1 0.1-0.1 0.1-0.2 0-0.1 0-0.5-0.3-0.6-0.4-0.1-0.1-0.1-0.6-0.1-0.8 0-0.4 0.3-0.5 0.4-0.4 1.4 0.8 1.9 2.3 2 2.5 0-1.1 0.1-2.1 0.7-2.8 0.4-0.6 1.1 0.3 1.1 0.4z"/>
		<path id="&lt;Path&gt;" class="s0" d="m18.7 6.5c0.1 0.2 0.1 0.5 0 0.7-0.1 0.2-0.2 0-0.3-0.1 0 0-0.1-0.1-0.2-0.2-0.4-0.3-0.6 0.4-0.6 0.7-0.1 0.3-0.1 1-0.2 1.5 0 0.2-0.1 0.2-0.2 0-0.3-0.9-0.8-1.4-0.9-1.5-0.1-0.1-0.2 0-0.2 0.1q0 0.1-0.1 0c-0.1 0-0.4-0.2-0.5-0.3-0.1-0.1-0.1-0.5-0.1-0.6 0-0.3 0.2-0.4 0.3-0.3 1.1 0.6 1.5 1.7 1.6 1.9 0-0.8 0.1-1.6 0.5-2.2 0.4-0.4 0.9 0.3 0.9 0.3z"/>
		<path id="&lt;Path&gt;" class="s0" d="m27.3 6.2c-0.1 0.2-0.1 0.2-0.2 0.4-0.1 0.2-0.3 0.3-0.5 0.4-0.2 0.1-12.2 5.5-12.3 5.6-0.4 0.2-0.4 0-0.3-0.1q0-0.1 0.1-0.4c0-0.2 0.1-0.2 0.4-0.4 0.3-0.1 12.2-5.5 12.5-5.6 0.4-0.2 0.3-0.1 0.3 0.1z"/>
		<path id="&lt;Path&gt;" class="s0" d="m12.4 6.2c0 0-0.2 0.5-0.3 0.9-0.6 1.6-0.3 2.4-0.3 2.6 0.4 0.9 1 0.5 1.2-0.2 0.1-0.3 0.2-0.1 0.2 0q-0.1 0.2-0.1 0.5c-0.4 1.1-0.7 1.3-1 1.3-0.6-0.1-0.8-0.9-0.8-1.3 0-1.9 0.7-3.4 0.9-3.9 0.2-0.4 0.3-0.2 0.2 0.1z"/>
		<path id="&lt;Path&gt;" class="s0" d="m29.7 5.7c0 0-0.1 0.3-0.2 0.5-0.3 1.1-0.1 1.6-0.1 1.7 0.3 0.5 0.6 0.2 0.7-0.2 0.1-0.2 0.2-0.1 0.1 0q0 0.1 0 0.4c-0.2 0.6-0.4 0.8-0.6 0.8-0.3 0-0.5-0.6-0.5-0.8 0-1.2 0.4-2.2 0.5-2.5 0.1-0.3 0.2-0.1 0.1 0.1z"/>
		<path id="&lt;Path&gt;" class="s0" d="m51.5 5.6c-0.1 0.1-0.1 0.1-0.2 0.3 0 0.2-0.1 0.2-0.3 0.4-0.2 0.1-5.7 3.3-5.8 3.3-0.3 0.2-0.3 0.1-0.3 0q0-0.1 0.1-0.3c0-0.2 0.1-0.2 0.3-0.4 0.2-0.1 5.7-3.3 5.9-3.4 0.4-0.2 0.3 0 0.3 0.1z"/>
		<path id="&lt;Compound Path&gt;" fill-rule="evenodd" class="s0" d="m40.1 18c0 0-0.4 0.9-0.6 1.1q-0.9-0.1-1.8-0.1 0 0.3 0 0.5c0 1-0.2 1.4-0.3 1.5-0.1 0.2-0.1 0.1-0.1-0.1 0-0.2-0.1-0.9-0.2-1.8-1.8 0.2-3 1-3.2 1.2-2.6 1.2-4.8 0.8-5.1 0.7-0.3 1.7-0.7 1.6-0.8 1.5-1.7-0.4-1.4-2.7-1.4-2.7-0.4 0.5-1.1 0.9-1.5 1.1-1.9 0.8-3.1-0.3-3.6-0.7-0.1-0.1-0.4-0.5-0.8-0.9-1.5 0.9-2.6 1.5-3.2 1.7-4.8 1.8-5.9-2.4-6.1-2.7-0.1-0.3-0.5-0.1-0.9 0.2-1.1 0.6-1.7 3.1-1.8 3.5-0.4 1.5-1.3 1.4-1.5 1.4-2.3-0.8-2.1-4.6-2-5.1 0-0.4 0.2-0.3 0.2 0 0.2 2.7 1 3.3 1.4 3.6 1.1 0.9 1.7-1 1.9-1.5 0.1-0.5 0.7-2.2 1.7-3.1 0.9-0.8 1.4-0.2 1.5 0 0.1 0.2 0.8 1.4 1 1.7 1.2 1.6 3.5 1.1 3.9 1 1-0.3 2.1-0.8 3.1-1.4-0.5-0.4-1-0.7-1.6-1-0.7-0.4-1.5 0.2-1.6 0.2-0.1 0.1-0.2 0.1-0.1 0 0-0.2 0.2-0.6 0.3-0.9 0.1-0.3 0.3-0.5 0.4-0.5 3.6-1.5 6.6 0 6.8 0.1 0 0-0.1 0.8-0.2 1.1-0.4 0.2-1.3 0.7-2.2 1.2q0.1 0.1 0.1 0.2c2 1.8 4 0.3 4.2 0.1 0.4-0.2 1-1.2 1.1-1.3 0.1-0.2 0.2-0.1 0.3 0.1 0.1 0.5 0.5 1 0.8 1.3 2.4 1.8 6.3-0.4 6.6-0.5 0 0-4.3-1.2-5.6-0.8-0.2 0.1-0.2-0.1-0.2-0.2 0.1-0.1 0.3-0.8 0.6-0.9 0.3-0.3 2.9-0.3 3.5-0.5 0.1 0 0.1-0.1 0.1-0.4 0-0.3-0.8-6.9-0.8-6.9-0.1-0.7-0.2-1.4-0.3-1.8 0-0.5-0.1-0.7-0.1-0.8 0 0 0.4-0.8 0.4-1 0.1-0.1 0.1 0 0.2 0.1 0 0.1 1.1 3 1.2 3.1 0 0.2-0.1 0.3-0.2 0.2-0.1-0.1-0.6-0.7-0.6-0.7 0 0 0.7 5.7 0.8 6.4 0.2 1.5-0.1 2.1-0.3 2.5 0.4 0.3 2 0.5 3.5 0.7-0.4-3.8-1.2-9.7-1.3-10.7 0-0.1-0.1-0.5-0.1-0.6 0 0 0.3-0.8 0.3-1 0.1-0.1 0.1 0 0.2 0.1 0 0.1 1.3 3.1 1.4 3.3 0 0.2-0.1 0.2-0.2 0.1-0.1-0.1-0.7-0.7-0.7-0.7 0 0 0.8 7.5 0.9 7.7q0.1 1.1 0.2 1.9c1.2 0.1 2.2 0.2 2.4 0.2zm-17.8-0.8c-0.9-0.2-1.8-0.2-2.5-0.2 0.4 0.3 0.8 0.7 1.1 1.1 0.7-0.4 1.2-0.8 1.4-0.9z"/>
		<path id="&lt;Path&gt;" class="s0" d="m58.2 5.9c0.1 0.3 0 0.7-0.1 0.9-0.1 0.2-0.2 0-0.4-0.1 0 0-0.1-0.1-0.2-0.3-0.6-0.4-0.8 0.5-0.9 0.9 0 0.3 0 1.4-0.1 2-0.1 0.2-0.2 0.2-0.3 0-0.4-1.3-1.1-1.9-1.2-2-0.2-0.1-0.3 0.1-0.3 0.1 0 0.1-0.1 0.1-0.1 0.1-0.1-0.1-0.5-0.3-0.7-0.5-0.1-0.1 0-0.6 0-0.8 0-0.3 0.2-0.4 0.3-0.4 1.5 0.9 2 2.3 2 2.5 0.1-1 0.2-2 0.7-2.8 0.5-0.6 1.2 0.3 1.3 0.4z"/>
		<path id="&lt;Compound Path&gt;" fill-rule="evenodd" class="s0" d="m63.6 8.2c-0.1 0.2-0.1 0.1-0.3-0.1 0-0.1-0.2-0.2-0.4-0.3-0.2 0.5-0.2 0.5-1.1 1.3-2 1.7-4.2 2.4-4.4 2.4-0.1 0-0.1-0.1 0.1-0.2 0.7-0.6 3.6-1.8 5.1-3.7 0 0-0.5-0.2-0.8-0.4-0.3-0.2-0.2-1 0-1.4 0.6-0.9 1.1-0.4 1.2-0.3 0.5 0.9 0.2 1.7 0.2 1.7 0.3 0.2 0.6 0.5 0.4 1zm-1-2.1c-0.1-0.1-0.2-0.1-0.5 0.3-0.1 0.1 0 0.2 0.2 0.3 0.2 0.1 0.6 0.3 0.6 0.3 0-0.1 0.1-0.6-0.3-0.9z"/>
		<path id="&lt;Compound Path&gt;" fill-rule="evenodd" class="s0" d="m42.9 7.9c-0.1 0.2-0.2 0.1-0.3-0.1 0 0-0.4-0.3-0.4-0.3 0 0-0.4 0.9-1.2 1.5-1.3 1-2.5 1.2-2.6 1.2-0.1 0-0.1-0.1 0.1-0.2 0.9-0.5 1.9-0.9 3.3-2.7 0 0-0.4-0.2-0.7-0.4-0.4-0.2-0.2-1 0-1.4 0.6-0.9 1.1-0.4 1.2-0.3 0.5 0.9 0.2 1.7 0.2 1.7 0.3 0.2 0.5 0.5 0.4 1zm-1-2.1c-0.1-0.1-0.2-0.1-0.5 0.3-0.1 0.1 0 0.2 0.2 0.3 0.2 0.1 0.6 0.3 0.6 0.3 0-0.1 0-0.6-0.3-0.9z"/>
	</g>
</svg>