<svg version="1.2" xmlns="http://www.w3.org/2000/svg" viewBox="0 0 70 30" width="70" height="30">
	<title>New Project</title>
	<style>
		.s0 { fill: #191c4f } 
	</style>
	<g id="المنافقون">
		<path id="&lt;Path&gt;" class="s0" d="m8.8 20.5c0 0-0.1 0.2-0.1 0.3-0.3 0.8-0.2 1.2-0.1 1.2 0.2 0.4 0.5 0.2 0.6-0.1 0-0.1 0.1 0 0.1 0q-0.1 0.1-0.1 0.3c-0.1 0.4-0.3 0.5-0.5 0.5-0.3 0-0.4-0.3-0.4-0.5-0.1-0.9 0.3-1.6 0.4-1.8 0.1-0.2 0.1-0.1 0.1 0.1z"/>
		<path id="&lt;Path&gt;" class="s0" d="m30.1 20.4c0 0-0.1 0.2-0.2 0.3-0.2 0.8-0.1 1.2 0 1.3 0.2 0.3 0.5 0.1 0.6-0.2 0-0.1 0.1 0 0.1 0q-0.1 0.1-0.1 0.3c-0.1 0.5-0.3 0.6-0.5 0.6-0.3 0-0.4-0.4-0.4-0.6-0.1-0.9 0.3-1.6 0.4-1.8 0-0.2 0.1-0.1 0.1 0.1z"/>
		<path id="&lt;Path&gt;" class="s0" d="m37.1 20.4c0 0-0.1 0.2-0.1 0.3-0.3 0.8-0.2 1.2-0.1 1.3 0.2 0.3 0.5 0.1 0.6-0.2 0-0.1 0.1 0 0.1 0q0 0.1-0.1 0.3c-0.1 0.5-0.3 0.6-0.5 0.6-0.3 0-0.4-0.4-0.4-0.6-0.1-0.9 0.3-1.6 0.4-1.8 0.1-0.2 0.1-0.1 0.1 0.1z"/>
		<path id="&lt;Path&gt;" class="s0" d="m27.9 19.8c0 0.1-0.1 0.1-0.1 0.3-0.1 0.1-0.2 0.2-0.4 0.3-0.1 0.1-4.5 1.8-4.5 1.8-0.3 0.2-0.3 0.1-0.3 0q0-0.1 0.1-0.3c0-0.1 0.1-0.2 0.3-0.3 0.2-0.1 4.5-1.8 4.7-1.9 0.3-0.1 0.2 0 0.2 0.1z"/>
		<path id="&lt;Path&gt;" class="s0" d="m20.1 19.9c0 0-0.1 0.3-0.2 0.5-0.2 1 0 1.4 0 1.5 0.3 0.5 0.6 0.2 0.7-0.1 0.1-0.2 0.2-0.1 0.1-0.1q0 0.1 0 0.3c-0.1 0.7-0.3 0.8-0.5 0.8-0.4 0.1-0.5-0.4-0.6-0.7-0.1-1.1 0.3-2 0.3-2.3 0.1-0.3 0.2-0.2 0.2 0.1z"/>
		<path id="&lt;Path&gt;" class="s0" d="m64.2 19c0 0 0.1 0.2 0.1 0.4 0 0.2-0.1 0.5-0.2 0.8-0.1 0.3-0.7 0.4-1.1 0.1-0.7 1.1-1.3 0.6-1.7 0.4-0.6-0.2-0.7 0.2-0.9 0.4-0.8 0.8-2.1 0.8-2.5 0.8-0.3 0.1 0-0.1 0.1-0.2 1.1-0.4 1.8-0.5 2.8-1.4 0.4-0.4 0.7-0.2 0.8-0.1 0.9 0.4 1.1 0 1.2-0.2 0.1-0.1 0.3-0.5 0.3-0.7 0.1-0.1 0.2 0 0.2 0.1-0.1 0.1-0.1 0.3-0.1 0.3 0.3 0.3 0.7 0.1 0.8 0 0 0 0-0.3 0-0.4q0-0.1 0.1-0.5c0.1-0.2 0.1 0 0.1 0.2z"/>
		<path id="&lt;Path&gt;" class="s0" d="m9.9 15l0.9 0.7q0 0 0 0l-0.5 0.8q-0.1 0-0.1 0l-0.9-0.7q-0.1 0 0-0.1l0.5-0.7q0 0 0.1 0z"/>
		<path id="&lt;Compound Path&gt;" fill-rule="evenodd" class="s0" d="m47.2 17.7c-0.2 0.9-1.5 1.4-1.8 1.5-1.2 0.4-1.3-0.8-1.2-1.6 0.1-0.9 0.7-1.9 0.7-1.9-0.1-0.1-1.3-1-1.4-1.1-0.1-0.1-0.2-0.2-0.3-0.3-0.1-0.1-0.1-0.1-0.1-0.1 0 0 0-0.9 0.1-1 0-0.1 0-0.1 0.1 0 0.1 0 1.4 0.5 1.5 0.6 0.2 0.1 0.1 0.2 0.1 0.2-0.1 0-0.6 0.1-0.6 0.1l1.1 0.8c0 0 1.5-1.9 1.7-2.1 0.1-0.2 0.1-0.1 0.1 0.1-0.1 0.2-0.4 1-0.4 1.1-0.1 0.2-0.9 1.2-0.9 1.2 0 0 1 0.6 1.3 1 0.4 0.6 0.1 1.2 0 1.5zm-1.8-1.7c0 0-0.7 1.1-0.8 1.3-0.3 0.7 0.4 0.8 0.6 0.8 0.3 0 1.2-0.5 1.6-0.8 0.4-0.4-1.2-1.2-1.4-1.3z"/>
		<path id="&lt;Path&gt;" class="s0" d="m7.6 12.9c0 0-0.1 0.3-0.1 0.5-0.3 1-0.1 1.5 0 1.6 0.2 0.5 0.6 0.2 0.7-0.2 0-0.2 0.1-0.1 0.1 0q0 0.1-0.1 0.3c-0.1 0.6-0.3 0.8-0.5 0.8-0.3 0-0.5-0.5-0.5-0.7-0.2-1.1 0.2-2.1 0.3-2.4 0.1-0.2 0.1-0.1 0.1 0.1z"/>
		<path id="&lt;Compound Path&gt;" fill-rule="evenodd" class="s0" d="m65.6 16.6c-0.1 0.2-0.3 1.1-1.5 0.8-0.3 0-0.9-0.2-1.2-0.8-0.3 0.4-1 1.5-2.4 1.3-0.3 0-1.2-0.4-1.3-1.6 0 0-1.1 0.9-1.7 1.2 0.1 0.4 0.1 0.9-0.1 1.5-0.2 0.5-2.7 3.3-4.7 3.8-0.7 0.1-3.2 0.6-3.3-2.3q-0.1-0.9 0-1.4c-1.5 1.3-3.5 2.2-4 2.5-0.8 0.4-3.8 0.9-4.3 1-0.3 0-0.4-0.1-0.2-0.2 0.2-0.1 6.7-2.3 10.1-5.9q0.1-0.1 0-0.4c-0.1-0.2-1.2-2.2-1.3-2.5-0.1-0.2-0.2-0.6-0.3-0.6q0-0.2 0-0.4c0-0.1 0.1-0.6 0.1-0.7 0.1-0.2 0.1-0.1 0.2 0 0.1 0.1 1.1 1.1 1.2 1.3 0.2 0.1 0.1 0.2 0 0.2 0 0-0.5 0-0.5 0 0 0 0.7 1.1 0.9 1.6 0.4 0.9 0.2 1.7 0 2.1-0.3 0.6-0.9 1.2-1.5 1.7-0.1 0.5-0.3 2.9 1.8 3 0.4 0 1.5 0.1 3.7-1.7 0.5-0.4 1.1-0.9 1.6-1.6 0.2-0.3 0.3-0.8 0-0.7-0.4 0-2.7 0.9-3-0.5-0.1-0.4 0.1-3.7 2.3-2.1 0.2 0.2 0.7 0.6 1 1.2 0.4-0.1 1.1-0.6 2-1.3 0.2-0.2 0.5-0.3 0.5 0 0 0.3-0.2 2.2 1.8 1.7 0.3-0.1 1.2-0.3 1.8-1.9 0.2-0.4 0.4-0.3 0.3 0-0.2 0.4-0.4 0.8-0.2 0.9 0.2 0.2 0.8 0.7 1.5 0.6 0.3-0.1 0.4-0.2 0.3-0.4-0.1-0.2-0.3-0.6-0.3-0.6 0-0.3 0.1-0.7 0.2-0.8 0-0.1 0-0.2 0.1-0.1 0.1 0.1 0.8 1 0.4 2.1zm-9.3 0.1c-0.8-0.9-1.6-0.4-1.7-0.3-0.2 0.1-0.2 0.4 0.5 0.4 0.9 0.1 1.2-0.1 1.2-0.1z"/>
		<path id="&lt;Compound Path&gt;" fill-rule="evenodd" class="s0" d="m26.6 17.1c-0.2 1.9-3.3 2.3-3.8 2.3-2 0.2-2.9-1.6-2.9-1.6-0.1 0.1-1.1 0.6-1.5 0.7 0 0.3 0 0.5 0 0.6 0 0-0.1 1.1-0.7 1.7-3.4 3.6-5.3 2.7-5.6 2.5-1.6-0.7-1.2-3.3-1-4-2.2 1.2-3.4 1-4 0.8-3.3-0.9-1.8-5.2-1.6-5.5 0.2-0.3 0.3-0.2 0.2 0-0.8 2.2 0 3.4 0.2 3.6 1.1 1.4 2.9 0.9 3.3 0.8 2.8-0.9 4.4-2.6 4.6-2.9 0.2-0.2 0-0.5-0.1-0.7-0.1-0.2-0.7-1.3-1-2.1-0.1-0.3-0.3-0.9-0.3-1 0 0 0.2-0.7 0.3-0.8q0-0.1 0.1 0c0 0.1 0 0.1 0 0.2 0.1 0.1 0.9 1 1 1.1 0.1 0.2 0 0.3-0.1 0.2q-0.1 0-0.4-0.1c0 0 0.3 0.6 0.5 1.1 0.2 0.4 0.5 0.6 0.4 1.8 0 1.4-1.1 2.1-1.3 2.3q-0.8 0.6-1.5 1c-0.8 3.2 1.7 3.3 2 3.3 2.3-0.2 4.3-2.8 4.6-3.1 0.2-0.4-0.3-0.5-0.5-0.4q-1.1 0.3-1.6 0.1c-0.9-0.2-1.1-1.6-0.3-2.4 0.7-0.8 1.3-0.5 2 0.2q0.3 0.4 0.5 0.8c1-0.4 1.2-0.6 1.4-0.7 0 0-0.4-1.1-0.4-1.3 0-0.3 0-1.7 0.7-2.2 1.4-0.9 1.7 1.5 1.8 1.8 0 1.5-1.1 2.1-1.1 2.1 1.8 2.4 5.2 0.1 5.5-0.2 0.4-0.2 0.2-0.4 0.1-0.5-0.1-0.1-0.4-0.3-0.9-0.2-0.4 0-1.2 0.1-1.7-0.2-0.4-0.4-0.4-1.4 0.1-2.1 0.5-0.8 1.3-0.5 1.4-0.4 2.1 1.6 1.7 3.1 1.6 3.4zm-1.1-1.8c0 0-0.3-0.5-1.2-0.6-0.3-0.1-0.7 0.1-0.5 0.4 0.2 0.3 0.9 0.3 1.2 0.2 0.2 0 0.3 0 0.5 0zm-8.2 2.6c-0.5-0.9-1.3-0.7-1.4-0.5-0.2 0.1-0.5 0.5 0.3 0.6 0.8 0.1 1.1-0.1 1.1-0.1zm3.7-2.2c0.1-0.1 0.1-0.2 0.1-0.4 0-0.1-0.6-1.2-1.1-0.9-0.6 0.4-0.6 0.7-0.4 1.1 0.1 0.4 0.4 1 0.4 1 0.3-0.2 0.8-0.7 1-0.8z"/>
		<path id="&lt;Path&gt;" class="s0" d="m24.2 10.8l0.9 0.6q0.1 0.1 0 0.1l-0.5 0.8q0 0-0.1 0l-0.9-0.7q0 0 0-0.1l0.5-0.7q0.1-0.1 0.1 0z"/>
		<path id="&lt;Path&gt;" class="s0" d="m46 10.7l0.9 0.7q0.1 0 0 0l-0.5 0.8q0 0-0.1 0l-0.9-0.7-0.5 0.7q0 0 0 0l-0.9-0.7q-0.1 0-0.1 0l0.6-0.8q0 0 0.1 0l0.9 0.6 0.4-0.6q0.1 0 0.1 0z"/>
		<path id="&lt;Path&gt;" class="s0" d="m20.3 10.7l0.9 0.6q0.1 0.1 0.1 0.1l-0.6 0.8q0 0-0.1 0l-0.9-0.7-0.4 0.7q-0.1 0-0.1 0l-0.9-0.7q0 0 0-0.1l0.5-0.7q0.1-0.1 0.1 0l0.9 0.6 0.5-0.6q0-0.1 0 0z"/>
		<path id="&lt;Path&gt;" class="s0" d="m63.2 10.7c0 0 0 0.3-0.1 0.4-0.3 0.8-0.1 1.2-0.1 1.3 0.3 0.4 0.6 0.2 0.7-0.1 0-0.2 0.1-0.1 0.1 0q-0.1 0.1-0.1 0.2c-0.1 0.5-0.3 0.6-0.5 0.6-0.3 0-0.4-0.4-0.5-0.6 0-0.9 0.4-1.6 0.4-1.8 0.1-0.2 0.2-0.1 0.1 0z"/>
		<path id="&lt;Path&gt;" class="s0" d="m54.1 10.3c0 0-0.1 0.2-0.2 0.4-0.3 0.9-0.1 1.3-0.1 1.4 0.3 0.4 0.6 0.2 0.7-0.2 0.1-0.1 0.1 0 0.1 0q0 0.1 0 0.3c-0.2 0.5-0.4 0.7-0.6 0.7-0.3-0.1-0.5-0.5-0.5-0.7 0-1 0.4-1.8 0.5-2 0.1-0.2 0.1-0.1 0.1 0.1z"/>
		<path id="&lt;Path&gt;" class="s0" d="m6.7 6.4c0 0-0.1 0.4-0.2 0.6-0.4 1.2-0.2 1.8-0.1 1.9 0.3 0.6 0.8 0.3 1-0.1 0-0.3 0.1-0.2 0.1-0.1q0 0.1-0.1 0.4c-0.2 0.8-0.5 0.9-0.8 0.9-0.4 0-0.6-0.6-0.6-0.9-0.1-1.3 0.4-2.5 0.6-2.8 0.1-0.3 0.2-0.2 0.1 0.1z"/>
		<path id="&lt;Path&gt;" class="s0" d="m14.5 7.3c-0.1 0.2-0.3 0.9-0.4 1.1-0.3 0.9-0.1 1.3-0.1 1.4 0.3 0.5 0.6 0.2 0.7-0.1 0.1-0.2 0.2-0.1 0.1 0q0 0.1 0 0.3c-0.2 0.5-0.4 0.7-0.6 0.7-0.4 0-0.5-0.5-0.5-0.7-0.1-0.9 0.2-1.7 0.4-2q-0.1 0-0.2 0.1c-0.3 0.1-7.8 4.1-7.9 4.2-0.4 0.2-0.4 0.1-0.3-0.1q0 0 0.1-0.3c0-0.2 0.1-0.3 0.4-0.4 0.2-0.2 7.7-4.1 8-4.3 0.4-0.2 0.3 0 0.3 0.1z"/>
		<path id="&lt;Compound Path&gt;" fill-rule="evenodd" class="s0" d="m19.5 9.2c-0.1 0.1-0.1 0-0.2-0.1 0 0-0.3-0.3-0.3-0.3 0 0-0.9 1.4-1.9 2.1-1.1 0.8-2 1.1-2.1 1.1-0.1 0-0.1-0.1 0.1-0.2 0.7-0.4 2.4-1.7 3.6-3.1 0 0-0.4-0.2-0.6-0.4-0.3-0.1-0.1-0.8 0.1-1.1 0.4-0.7 0.8-0.3 0.9-0.2 0.4 0.7 0.1 1.4 0.1 1.4 0.2 0.1 0.5 0.4 0.3 0.8zm-0.7-1.8c-0.1 0-0.2 0-0.5 0.3 0 0.1 0 0.2 0.2 0.3 0.1 0 0.5 0.2 0.5 0.2 0-0.1 0-0.5-0.2-0.8z"/>
		<path id="&lt;Path&gt;" class="s0" d="m25.4 6.9c0.1 0.2 0 0.6 0 0.8-0.1 0.2-0.2 0-0.3-0.1 0 0-0.1-0.1-0.2-0.2-0.5-0.3-0.6 0.4-0.6 0.8 0 0.3 0 1.1 0 1.6 0 0.2-0.1 0.2-0.2 0.1-0.4-1-1-1.5-1.1-1.6-0.1-0.1-0.1 0.1-0.2 0.1q0 0.1-0.1 0.1c0 0-0.4-0.2-0.5-0.3-0.1-0.1-0.1-0.5-0.1-0.7 0-0.3 0.1-0.4 0.2-0.4 1.2 0.6 1.7 1.8 1.8 2 0-0.9-0.1-1.7 0.3-2.4 0.3-0.5 0.9 0.2 1 0.2z"/>
		<path id="&lt;Path&gt;" class="s0" d="m53.3 6.5c-0.1 0.1-0.1 0.1-0.1 0.3-0.1 0.2-0.2 0.2-0.4 0.3-0.1 0.1-4.9 2.9-5 2.9-0.3 0.2-0.3 0.1-0.3 0q0.1 0 0.1-0.3c0-0.1 0.1-0.1 0.3-0.3 0.2-0.1 5-2.8 5.2-3 0.2-0.1 0.2 0 0.2 0.1z"/>
		<path id="&lt;Path&gt;" class="s0" d="m59.1 6.8c0.1 0.2 0 0.6-0.1 0.8 0 0.2-0.2 0-0.3-0.1 0 0-0.1-0.1-0.2-0.2-0.5-0.4-0.7 0.3-0.7 0.7-0.1 0.3-0.1 1.2-0.2 1.7 0 0.2-0.1 0.2-0.2 0.1-0.3-1.2-1-1.7-1.1-1.8-0.1-0.1-0.2 0.1-0.2 0.1 0 0.1-0.1 0.1-0.1 0.1-0.1-0.1-0.5-0.3-0.6-0.4-0.1-0.1-0.1-0.6 0-0.7 0-0.3 0.2-0.4 0.3-0.4 1.3 0.7 1.7 2 1.7 2.2 0.1-0.9 0.1-1.8 0.6-2.4 0.5-0.5 1.1 0.2 1.1 0.3z"/>
		<path id="&lt;Path&gt;" class="s0" d="m32.4 14.2l1 0.7q0 0 0 0.1l-0.6 0.7q0 0 0 0l-1-0.7q0 0 0 0l0.6-0.8q0 0 0 0z"/>
		<path id="&lt;Path&gt;" class="s0" d="m30.3 12.9c0 0-0.1 0.3-0.1 0.5-0.3 1-0.1 1.4 0 1.5 0.3 0.5 0.6 0.2 0.7-0.1 0.1-0.2 0.1-0.1 0.1-0.1q0 0.1 0 0.4c-0.2 0.6-0.4 0.7-0.6 0.7-0.3 0.1-0.5-0.4-0.5-0.7-0.2-1.1 0.2-2 0.3-2.3 0.1-0.3 0.2-0.2 0.1 0.1z"/>
		<path id="&lt;Path&gt;" class="s0" d="m35.4 11.5c0.2 0.2 0.2 0.5 0.2 0.6 0 0-0.3-0.1-0.4-0.2-0.2 0-0.2-0.1-0.2-0.2 0.2-0.3 0.3-0.3 0.4-0.2z"/>
		<path id="&lt;Path&gt;" class="s0" d="m35.7 11.1c0.3 0.6 0.1 1.2 0.1 1.2 0.2 0.1 0.4 0.3 0.3 0.7 0 0.1-0.1 0-0.1-0.1-0.1 0-0.3-0.2-0.3-0.2 0 0-0.5 1.3-1.7 1.7-0.4 0.1-0.4 0-0.1-0.2 0.4-0.3 1.4-1 1.6-1.6 0 0-0.4-0.1-0.7-0.3-0.2-0.1-0.1-0.7 0-1 0.4-0.6 0.8-0.3 0.9-0.2z"/>
		<path id="&lt;Path&gt;" class="s0" d="m35.6 7.7c-0.1 0.1-0.1 0.1-0.2 0.3 0 0.2-0.2 0.2-0.3 0.3-0.2 0.1-5.5 2.9-5.6 3-0.3 0.2-0.3 0-0.3-0.1q0 0 0.1-0.3c0-0.1 0.1-0.2 0.3-0.3 0.3-0.1 5.5-2.9 5.7-3 0.4-0.2 0.3-0.1 0.3 0.1z"/>
		<path id="&lt;Compound Path&gt;" fill-rule="evenodd" class="s0" d="m63.8 8.8c0 0.2-0.1 0.1-0.2-0.1 0 0-0.1-0.2-0.3-0.3-0.2 0.4-0.2 0.5-1 1.2-1.8 1.5-3.7 2-3.8 2.1-0.1 0-0.2-0.1 0-0.2 0.6-0.5 3.2-1.6 4.5-3.2 0 0-0.4-0.2-0.7-0.4-0.3-0.2-0.2-0.9 0-1.2 0.5-0.7 1-0.3 1-0.2 0.5 0.7 0.2 1.4 0.2 1.4 0.3 0.2 0.5 0.5 0.3 0.9zm-0.8-1.9c-0.1 0-0.2 0-0.5 0.3 0 0.1 0 0.2 0.2 0.3 0.2 0.1 0.5 0.3 0.5 0.3 0.1-0.1 0.1-0.6-0.2-0.9z"/>
		<path id="&lt;Compound Path&gt;" fill-rule="evenodd" class="s0" d="m40.5 19.6c-0.3 0.5-0.9 0.4-1 0.3-0.7-0.2-1.1-0.8-1.3-1.3-0.6 0.3-1.1 0.7-1.4 0.8-0.5 0.2-2.5 1.2-3.6-0.8-0.6 1.5-2.2 1.6-2.7 1.6-2.4-0.6-2.4-4.8-2.5-5.4-0.2-3.6-0.9-6.9-1.1-7.3-0.1-0.4 0.2-0.9 0.3-1.1 0.1-0.1 0.1-0.2 0.2 0 0.6 1.3 1 6.4 1 6.4 0 0 0.4 3.5 0.5 4 0.4 2 1.6 2.2 2 2.2 1.6 0.1 2.2-1.3 2.5-1.8 0.3-0.4 0.3 0.1 0.3 0.3 0.5 2.1 3 0.9 3.4 0.7 0.2-0.1 0.5-0.3 0.8-0.5-0.2-0.4-0.2-0.8-0.3-1.1-0.1-0.7-1.2-7.3-1.2-7.3 0-0.6-0.1-1.1-0.2-1.5 0-0.4-0.1-0.5-0.1-0.6 0 0 0.3-0.8 0.4-0.9 0-0.1 0.1-0.1 0.1 0 0 0.1 1.2 2.8 1.2 3 0.1 0.1-0.1 0.2-0.1 0.1-0.1-0.1-0.7-0.6-0.7-0.6 0 0 0.9 5.7 1 6.3 0.1 0.6 0.3 1.5 0.5 2.2q0.3-0.1 0.5-0.2c0.4-0.1 0.8-0.2 1.1-0.1 0.2 0.1 0.7 0.3 0.8 0.8 0.1 0.6-0.2 1.5-0.4 1.8zm-0.8-1.5q-0.3 0-0.7 0.1c0.3 0.4 0.7 0.7 1.2 0.6 0.3-0.1-0.1-0.6-0.5-0.7z"/>
		<path id="&lt;Path&gt;" class="s0" d="m40.6 6.3c0 0.1 1.1 2.8 1.2 3 0 0.1-0.1 0.2-0.2 0.1 0-0.1-0.6-0.6-0.6-0.6 0 0 1 6.2 1 6.5q0.3 2.1 0.2 3.1c0 1-0.2 1.3-0.2 1.4-0.1 0.1-0.2 0.1-0.1-0.1-0.1-0.5-0.2-1.5-0.3-2.6-0.3-2.2-1.2-8.2-1.3-9.4-0.1-0.1-0.2-0.5-0.2-0.5 0 0 0.3-0.8 0.4-0.9 0-0.1 0-0.1 0.1 0z"/>
		<path id="&lt;Path&gt;" class="s0" d="m30.7 6.4c0 0-0.1 0.2-0.1 0.4-0.3 0.8-0.1 1.1-0.1 1.2 0.2 0.4 0.5 0.2 0.6-0.1 0.1-0.2 0.1-0.1 0.1 0q0 0-0.1 0.2c-0.1 0.5-0.3 0.6-0.4 0.6-0.3 0-0.5-0.4-0.5-0.6 0-0.8 0.3-1.5 0.4-1.8 0.1-0.2 0.2-0.1 0.1 0.1z"/>
		<path id="&lt;Compound Path&gt;" fill-rule="evenodd" class="s0" d="m45.7 8.6c0 0.1-0.1 0-0.2-0.1 0-0.1-0.3-0.3-0.3-0.3 0 0-0.4 0.8-1.1 1.3-1.1 0.9-2.2 1-2.2 1.1-0.1 0-0.2-0.1 0-0.2 0.8-0.5 1.7-0.8 3-2.4 0 0-0.5-0.1-0.7-0.3-0.3-0.2-0.2-0.9 0-1.2 0.5-0.8 1-0.4 1-0.3 0.5 0.7 0.2 1.5 0.2 1.5 0.3 0.1 0.5 0.4 0.3 0.9zm-0.8-1.9c-0.1-0.1-0.2-0.1-0.5 0.3-0.1 0.1 0 0.2 0.2 0.2 0.2 0.1 0.5 0.3 0.5 0.3 0.1-0.1 0.1-0.6-0.2-0.8z"/>
	</g>
</svg>