<svg version="1.2" xmlns="http://www.w3.org/2000/svg" viewBox="0 0 70 30" width="70" height="30">
	<title>New Project</title>
	<style>
		.s0 { fill: #191c4f } 
	</style>
	<g id="التغابن">
		<path id="&lt;Path&gt;" class="s0" d="m15.2 22.1c0 0.2 0 0.2-0.1 0.3-0.1 0.2-0.2 0.3-0.4 0.4-0.2 0.1-3.3 1.3-3.4 1.3-0.3 0.2-0.3 0.1-0.3 0q0.1-0.1 0.1-0.3c0.1-0.2 0.1-0.2 0.4-0.3 0.2-0.1 3.3-1.3 3.5-1.4 0.3-0.2 0.3-0.1 0.2 0z"/>
		<path id="&lt;Path&gt;" class="s0" d="m26.1 20.3c0 0 0 0.3-0.1 0.5-0.3 0.9-0.2 1.4-0.1 1.5 0.3 0.4 0.6 0.2 0.7-0.2 0.1-0.1 0.2 0 0.1 0q0 0.1 0 0.3c-0.2 0.6-0.4 0.7-0.6 0.7-0.4 0-0.5-0.4-0.5-0.7-0.1-1 0.3-1.9 0.4-2.1 0.1-0.3 0.2-0.2 0.1 0z"/>
		<path id="&lt;Path&gt;" class="s0" d="m36.5 19.8c0 0-0.1 0.3-0.2 0.5-0.3 0.9-0.1 1.4-0.1 1.5 0.3 0.4 0.6 0.2 0.8-0.2 0-0.2 0.1-0.1 0.1 0q0 0.1-0.1 0.3c-0.1 0.6-0.4 0.7-0.6 0.7-0.3 0-0.5-0.5-0.5-0.7-0.1-1 0.4-1.9 0.5-2.2 0.1-0.2 0.2-0.1 0.1 0.1z"/>
		<path id="&lt;Path&gt;" class="s0" d="m64.1 19.3c0 0 0 0.3 0 0.5 0 0.2-0.1 0.6-0.2 0.9-0.1 0.3-0.8 0.4-1.2 0.1-0.8 1.2-1.4 0.6-1.8 0.5-0.7-0.3-0.9 0.1-1 0.3-0.9 1-2.4 0.9-2.8 1-0.3 0 0-0.2 0.1-0.3 1.2-0.4 2-0.5 3-1.5 0.5-0.5 0.8-0.3 1-0.2 1 0.5 1.2 0 1.3-0.1 0.1-0.1 0.3-0.7 0.4-0.8 0.1-0.2 0.1-0.1 0.1 0.1 0 0.1-0.1 0.3-0.1 0.4 0.4 0.3 0.8 0 0.9-0.1 0 0 0-0.3 0-0.4q0-0.1 0.1-0.5c0.1-0.3 0.2-0.1 0.2 0.1z"/>
		<path id="&lt;Path&gt;" class="s0" d="m16.2 18.3l1 0.7q0.1 0 0.1 0.1l-0.6 0.8q-0.1 0.1-0.1 0l-1-0.7q-0.1 0-0.1-0.1l0.6-0.8q0.1-0.1 0.1 0z"/>
		<path id="&lt;Path&gt;" class="s0" d="m7.7 17.2c0 0 0 0.3-0.1 0.5-0.3 1.1-0.1 1.6 0 1.7 0.3 0.5 0.7 0.2 0.8-0.2 0.1-0.2 0.1-0.1 0.1 0q0 0.1 0 0.3c-0.2 0.7-0.5 0.9-0.7 0.9-0.4 0-0.6-0.5-0.6-0.8-0.1-1.2 0.3-2.2 0.4-2.5 0.1-0.2 0.2-0.1 0.1 0.1z"/>
		<path id="&lt;Path&gt;" class="s0" d="m9.7 15.5l1.1 0.7q0 0 0 0.1l-0.6 0.8q-0.1 0-0.1 0l-1-0.7q-0.1-0.1 0-0.1l0.6-0.8q0-0.1 0 0z"/>
		<path id="&lt;Path&gt;" class="s0" d="m15.9 13.3c0.7 1.1 0.6 1.7 0.6 2.1-0.3 1.6-1.6 1.7-2 1.7 0 0 0.2 0.6 0.1 1.5-0.1 1.4-1.9 2.5-2.3 2.8-3.2 2.2-5.5 1.2-5.8 1-2.4-1.3-1.2-5.3-1-5.7 0.2-0.4 0.3 0 0.2 0.2-0.3 1-0.3 1.9-0.3 2.3 0.2 2.3 2.7 2.5 2.9 2.5 2.6 0.1 5-2.2 5.5-2.7 0.5-0.5 0.4-0.7 0.4-1.1 0-0.3-0.6-1.4-0.9-2 0 0 0-0.8 0.1-0.9 0-0.2 0.1-0.1 0.2 0 0.1 0.1 0.5 0.7 0.5 0.7 1 0.4 1.7-0.2 1.8-0.3q0.1-0.1 0-0.3c0-0.1-0.3-0.7-0.5-1 0 0 0.2-0.7 0.2-0.8 0.1-0.2 0.1-0.3 0.3 0z"/>
		<path id="&lt;Compound Path&gt;" fill-rule="evenodd" class="s0" d="m45.3 17.9c-0.3 1-1.7 1.6-2 1.7-1.3 0.4-1.4-0.9-1.3-1.8 0.1-1 0.8-2.1 0.8-2.1-0.1-0.1-1.4-1.1-1.5-1.2-0.1-0.1-0.3-0.3-0.4-0.4-0.1 0-0.1-0.1-0.1-0.1 0 0 0-0.9 0-1.1 0-0.1 0.1 0 0.2 0 0.1 0.1 1.5 0.6 1.7 0.7 0.1 0.1 0.1 0.2 0 0.2-0.1 0.1-0.6 0.2-0.6 0.2l1.2 0.8c0 0 1.7-2.1 1.8-2.3 0.2-0.2 0.2-0.1 0.1 0.1 0 0.2-0.3 1.1-0.4 1.3-0.1 0.1-0.9 1.3-0.9 1.3 0 0 1.1 0.6 1.4 1 0.4 0.7 0.1 1.3 0 1.7zm-2-1.9c0 0-0.8 1.3-0.9 1.5-0.3 0.8 0.4 0.9 0.7 0.9 0.3-0.1 1.3-0.6 1.7-1 0.5-0.3-1.3-1.2-1.5-1.4z"/>
		<path id="&lt;Compound Path&gt;" fill-rule="evenodd" class="s0" d="m65.6 16.7c-0.1 0.2-0.3 1.2-1.7 0.9-0.3 0-1-0.2-1.3-0.9-0.3 0.4-1.1 1.7-2.6 1.5-0.3-0.1-1.4-0.5-1.5-1.9 0 0-1.2 1.1-1.8 1.4 0.1 0.5 0 1-0.2 1.6-0.2 0.6-2.9 3.7-5.2 4.2-0.7 0.1-3.5 0.7-3.6-2.5-0.1-0.6 0-1.2 0-1.5-1.7 1.4-3.8 2.4-4.4 2.7-0.9 0.4-4.1 1-4.7 1.1-0.4 0-0.5-0.1-0.2-0.2 0.2-0.1 7.4-2.5 11.1-6.5q0.1-0.2-0.1-0.4c-0.1-0.2-1.2-2.5-1.3-2.8-0.1-0.3-0.3-0.6-0.4-0.7q0-0.2 0-0.4c0-0.1 0.1-0.7 0.2-0.8 0-0.2 0.1-0.1 0.1 0 0.1 0.1 1.3 1.3 1.4 1.4 0.2 0.2 0.1 0.2 0 0.2 0 0-0.6 0-0.6 0 0 0 0.8 1.3 1 1.8 0.4 1.1 0.2 1.9 0 2.3-0.3 0.7-0.9 1.4-1.7 2-0.1 0.5-0.3 3.1 2.1 3.2 0.4 0 1.6 0.2 4-1.8 0.6-0.5 1.3-1.1 1.8-1.8 0.2-0.3 0.4-0.9 0-0.8-0.4 0-3 1-3.3-0.6-0.1-0.4 0.1-4 2.6-2.2 0.2 0.2 0.7 0.6 1.1 1.3 0.4-0.2 1.2-0.6 2.1-1.4 0.3-0.2 0.5-0.4 0.5 0 0 0.3-0.2 2.4 2.1 1.8 0.3-0.1 1.2-0.3 1.9-2.1 0.2-0.4 0.5-0.3 0.3 0-0.1 0.5-0.4 0.9-0.2 1.1 0.3 0.2 0.9 0.6 1.7 0.5 0.3 0 0.5-0.1 0.4-0.3-0.1-0.3-0.4-0.7-0.4-0.7 0-0.3 0.2-0.8 0.2-0.9 0-0.1 0.1-0.2 0.2-0.1 0.1 0.1 0.8 1 0.4 2.3zm-10.3 0.1c-0.8-1-1.8-0.4-1.9-0.3-0.1 0.1-0.2 0.4 0.6 0.5 1 0 1.3-0.2 1.3-0.2z"/>
		<path id="&lt;Path&gt;" class="s0" d="m5.8 10.8c0 0 0 0.5-0.1 0.8-0.4 1.7-0.1 2.4 0 2.6 0.4 0.8 0.9 0.4 1.1-0.3 0-0.3 0.1-0.1 0.1 0q0 0.1 0 0.5c-0.2 1-0.6 1.3-0.9 1.3-0.5 0-0.8-0.8-0.8-1.2-0.2-1.8 0.3-3.3 0.5-3.8 0.1-0.4 0.2-0.2 0.1 0.1z"/>
		<path id="&lt;Path&gt;" class="s0" d="m44 10.2l1 0.7q0 0.1 0 0.1l-0.6 0.8q0 0.1-0.1 0l-1-0.7-0.5 0.7q0 0.1-0.1 0l-1-0.7q0 0 0-0.1l0.6-0.8q0 0 0.1 0l1 0.7 0.5-0.7q0 0 0.1 0z"/>
		<path id="&lt;Path&gt;" class="s0" d="m63 10.2c0 0-0.1 0.3-0.1 0.5-0.4 0.9-0.2 1.3-0.1 1.4 0.2 0.4 0.5 0.2 0.7-0.2 0-0.1 0.1 0 0.1 0q-0.1 0.1-0.1 0.3c-0.2 0.5-0.4 0.7-0.6 0.7-0.3 0-0.4-0.5-0.5-0.7 0-1 0.4-1.8 0.5-2 0.1-0.3 0.2-0.2 0.1 0z"/>
		<path id="&lt;Path&gt;" class="s0" d="m52.9 9.7c0 0-0.1 0.3-0.2 0.5-0.3 0.9-0.1 1.4-0.1 1.5 0.3 0.5 0.6 0.2 0.8-0.2 0-0.1 0.1 0 0.1 0q0 0.1-0.1 0.3c-0.1 0.6-0.4 0.8-0.6 0.8-0.3 0-0.5-0.5-0.5-0.8-0.1-1 0.4-1.9 0.5-2.2 0.1-0.2 0.2-0.1 0.1 0.1z"/>
		<path id="&lt;Compound Path&gt;" fill-rule="evenodd" class="s0" d="m15.9 11c0 0.1-0.1 0-0.2-0.1 0 0-0.3-0.3-0.3-0.3 0 0-1 1.5-2.1 2.3-1.2 0.8-2.2 1.2-2.3 1.2-0.1 0-0.1-0.1 0.1-0.2 0.7-0.4 2.6-1.9 3.9-3.4 0 0-0.4-0.2-0.6-0.4-0.3-0.2-0.2-1 0.1-1.3 0.5-0.7 0.9-0.3 1-0.2 0.4 0.8 0.1 1.5 0.1 1.5 0.3 0.2 0.5 0.4 0.3 0.9zm-0.8-1.9c-0.1-0.1-0.2-0.1-0.5 0.3 0 0.1 0 0.2 0.2 0.2 0.2 0.1 0.5 0.3 0.5 0.3 0.1-0.1 0.1-0.5-0.2-0.8z"/>
		<path id="&lt;Path&gt;" class="s0" d="m11.9 6.5c0.2 0.2 0.1 0.7 0 0.9-0.1 0.2-0.2 0-0.3-0.1 0 0-0.2-0.1-0.3-0.2-0.5-0.5-0.7 0.4-0.7 0.8-0.1 0.3-0.1 1.3-0.1 1.9q0 0 0 0.1c-0.1 0.5-0.2 1.1-1 1.6-1 0.7-1.1 0.7-1.2 0.8 0 0-0.1 0 0.1-0.2 0.1-0.1 1.9-1.7 1.7-2.5-0.2-0.9-1-1.5-1.1-1.6-0.1-0.1-0.2 0-0.2 0.1-0.1 0.1-0.1 0.1-0.2 0.1-0.1-0.1-0.5-0.3-0.6-0.4-0.2-0.2-0.1-0.6-0.1-0.8 0-0.4 0.2-0.5 0.3-0.4 1.4 0.7 1.9 2.1 2 2.3 0.1-1 0.1-2 0.6-2.7 0.4-0.6 1.1 0.2 1.1 0.3z"/>
		<path id="&lt;Path&gt;" class="s0" d="m33 13.3l1 0.7q0.1 0 0 0.1l-0.6 0.8q0 0-0.1 0l-0.9-0.7-0.6 0.7q0 0 0 0l-1.1-0.7q0-0.1 0-0.1l0.6-0.8q0.1-0.1 0.1 0l1 0.7 0.5-0.7q0.1-0.1 0.1 0z"/>
		<path id="&lt;Path&gt;" class="s0" d="m25.1 12.6l1 0.8q0.1 0 0 0l-0.6 0.9q0 0 0 0l-1.1-0.8q0 0 0-0.1l0.6-0.8q0.1 0 0.1 0z"/>
		<path id="&lt;Path&gt;" class="s0" d="m21.6 12.6c0 0-0.1 0.3-0.2 0.5-0.3 1.2 0 1.7 0 1.8 0.4 0.5 0.7 0.2 0.9-0.2 0-0.2 0.1-0.1 0.1 0q0 0.1-0.1 0.3c-0.1 0.7-0.4 0.9-0.6 0.9-0.4 0-0.6-0.5-0.6-0.8-0.2-1.2 0.2-2.3 0.3-2.6 0.1-0.3 0.3-0.2 0.2 0.1z"/>
		<path id="&lt;Path&gt;" class="s0" d="m32.6 9.7c0 0 0.1 0.5 0.2 0.7 0.2 0.3 0.3 0.5 0.2 0.9-0.1 0.4-0.3 0.7-0.4 0.7-0.3 0.1-0.7 0.1-0.9-0.3-0.4 0.7-0.8 0.8-1.1 0.7-0.3-0.2-0.4-0.7-0.3-0.9 0-0.1-0.1-0.7-0.1-0.8 0-0.1 0.1-0.2 0.1-0.3 0.1-0.2 0.2-0.1 0.2 0.1 0 0.1-0.1 0.8 0 1.1 0.3 0.4 0.9 0 1-0.2 0.1-0.2-0.1-1-0.1-1q-0.1-0.1-0.1-0.1c0 0 0.1-0.3 0.1-0.4q0.1-0.2 0.2 0c0 0.1 0.1 0.3 0.2 1 0.1 0.7 0.7 0.6 0.9 0.5 0.1-0.1 0.1-0.1 0.1-0.2-0.1-0.1-0.3-0.7-0.4-0.9-0.1-0.3-0.1-0.4 0-0.7 0.1-0.2 0.1 0 0.2 0.1z"/>
		<path id="&lt;Path&gt;" class="s0" d="m33 7.2c0 0.1-0.1 0.1-0.1 0.3-0.1 0.2-0.3 0.3-0.5 0.4-0.2 0.1-6.2 3.2-6.3 3.3-0.4 0.2-0.3 0.1-0.3-0.1q0 0 0.1-0.3c0-0.2 0.1-0.3 0.4-0.4 0.3-0.1 6.2-3.2 6.4-3.3 0.4-0.2 0.4-0.1 0.3 0.1z"/>
		<path id="&lt;Path&gt;" class="s0" d="m52 5.6c-0.1 0.1-0.1 0.1-0.1 0.3-0.1 0.2-0.2 0.2-0.4 0.3-0.2 0.1-5.5 3.2-5.6 3.3-0.3 0.2-0.3 0-0.2-0.1q0 0 0-0.3c0.1-0.1 0.1-0.2 0.4-0.3 0.2-0.1 5.4-3.2 5.6-3.3 0.4-0.2 0.3-0.1 0.3 0.1z"/>
		<path id="&lt;Path&gt;" class="s0" d="m20.8 5.5c0 0-0.1 0.3-0.1 0.5-0.4 0.9-0.2 1.4-0.1 1.5 0.2 0.4 0.6 0.2 0.7-0.2 0.1-0.1 0.1-0.1 0.1 0q0 0.1-0.1 0.3c-0.1 0.6-0.4 0.7-0.5 0.7-0.4 0-0.6-0.5-0.6-0.7 0-1 0.4-1.9 0.5-2.1 0.1-0.3 0.2-0.2 0.1 0z"/>
		<path id="&lt;Path&gt;" class="s0" d="m58.4 5.9c0.1 0.2 0.1 0.6 0 0.9-0.1 0.1-0.3 0-0.4-0.2 0 0-0.1-0.1-0.2-0.2-0.6-0.5-0.8 0.4-0.8 0.8-0.1 0.3-0.1 1.3-0.2 1.9 0 0.2-0.2 0.2-0.3 0.1-0.3-1.3-1-1.9-1.1-2-0.2-0.1-0.3 0.1-0.3 0.2 0 0-0.1 0-0.1 0-0.1 0-0.5-0.3-0.6-0.4-0.2-0.2-0.1-0.6-0.1-0.8 0-0.3 0.2-0.5 0.3-0.4 1.5 0.8 1.9 2.2 2 2.4 0.1-1 0.1-2 0.7-2.7 0.4-0.6 1.1 0.3 1.1 0.4z"/>
		<path id="&lt;Compound Path&gt;" fill-rule="evenodd" class="s0" d="m63.6 8.1c0 0.2-0.1 0.1-0.2-0.1 0-0.1-0.2-0.2-0.4-0.3-0.2 0.4-0.2 0.5-1.1 1.3-1.9 1.6-4.1 2.2-4.2 2.3-0.1 0-0.1-0.1 0.1-0.2 0.6-0.6 3.4-1.8 4.9-3.5 0 0-0.5-0.2-0.8-0.5-0.3-0.2-0.1-1 0.1-1.3 0.5-0.8 1-0.4 1.1-0.3 0.5 0.8 0.2 1.6 0.2 1.6 0.3 0.2 0.5 0.5 0.3 1zm-0.9-2.1c-0.1 0-0.2 0-0.5 0.4-0.1 0.1 0 0.2 0.2 0.3 0.2 0 0.6 0.2 0.6 0.2 0-0.1 0.1-0.6-0.3-0.9z"/>
		<path id="&lt;Compound Path&gt;" fill-rule="evenodd" class="s0" d="m33.8 20.1c-0.9-0.1-1.3-0.9-1.6-1.3-2.1 3.1-4.4 1.2-5.1 0.7-0.1-0.1-0.3-0.3-0.6-0.5-0.7 0.4-1.2 0.7-1.4 0.8-0.5 0.3-3.8 2-5.8 0.3-0.1-0.1-1.1-0.9-1.3-4 0-0.8-0.6-6.6-1.3-8.8-0.1-0.3-0.1-0.3 0-0.7 0.1-0.5 0.2-1.2 0.3-0.8 1.1 2.6 1.5 8.8 1.5 9.3 0.1 0.5 0.3 3.4 1.5 4 1.6 0.8 3.8 0.2 5.7-0.7-0.5-0.4-1-0.7-1.5-1-0.3-0.2-0.8 0.1-1.1 0.2-0.2 0.1-0.4 0.1-0.3-0.1 0-0.2 0.2-0.9 0.5-1.1 0.3-0.2 3.7-1.8 6.3 0.1-0.1 0.4-0.2 0.9-0.2 0.9-0.2 0-1 0.4-1.9 1 0.2 0.1 0.4 0.2 0.4 0.2 2.7 1.9 4.3-1 4.6-1.4 0.4-0.5 0.3 0.2 0.2 0.5 0.1 0.9 1.1 1.1 1.3 1.1 0.7 0.1 1.5-0.3 1.6-0.4 0.2-0.6-0.8-5.8-0.8-6-0.3-1.9-0.6-3.5-0.6-3.5-0.1-0.7-0.2-1.4-0.3-1.9-0.1-0.4-0.2-0.6-0.2-0.7 0 0 0.4-0.9 0.5-1 0-0.1 0.1 0 0.1 0.1 0 0.1 1.2 2.7 1.3 2.9 0 0.2-0.1 0.2-0.2 0.1-0.1-0.1-0.7-0.7-0.7-0.7 0 0 1.4 8.2 1.5 9.4 0.2 2.9-2 3-2.4 3zm-5.9-3.1c-0.1-0.1-1-0.3-2.4-0.1 0.5 0.2 0.9 0.5 1.3 0.8q0.6-0.3 1.1-0.7z"/>
		<path id="&lt;Path&gt;" class="s0" d="m37.6 5.4c0 0.1 1.3 3.1 1.3 3.2 0.1 0.2-0.1 0.3-0.1 0.2-0.1-0.2-0.7-0.7-0.7-0.7 0 0 0.9 6.8 0.9 7.1q0.3 2.3 0.3 3.5c-0.1 1-0.3 1.4-0.3 1.5-0.1 0.1-0.2 0.1-0.2-0.1 0-0.6-0.1-1.7-0.3-2.9-0.3-2.4-1.2-8.9-1.3-10.3-0.1-0.1-0.2-0.5-0.2-0.6 0 0 0.4-0.9 0.5-1 0-0.1 0 0 0.1 0.1z"/>
		<path id="&lt;Path&gt;" class="s0" d="m29.8 5.4c0 0.2 0 0.2-0.1 0.4-0.1 0.2-0.3 0.2-0.5 0.4-0.2 0.1-9.6 4.8-9.7 4.9-0.4 0.2-0.3 0.1-0.3-0.1q0 0 0.1-0.3c0-0.2 0.1-0.3 0.4-0.4 0.3-0.1 9.6-4.9 9.8-5 0.4-0.2 0.4 0 0.3 0.1z"/>
		<path id="&lt;Compound Path&gt;" fill-rule="evenodd" class="s0" d="m43.7 7.8c-0.1 0.2-0.1 0.1-0.2-0.1-0.1 0-0.4-0.3-0.4-0.3 0 0-0.5 0.9-1.2 1.4-1.3 1-2.4 1.2-2.5 1.2-0.1 0.1-0.1 0 0.1-0.2 0.8-0.5 1.8-0.8 3.2-2.5 0 0-0.4-0.2-0.7-0.4-0.4-0.3-0.2-1.1 0-1.4 0.6-0.8 1-0.4 1.1-0.3 0.5 0.8 0.2 1.6 0.2 1.6 0.3 0.2 0.6 0.5 0.4 1zm-0.9-2.1c-0.1 0-0.3 0-0.6 0.4-0.1 0.1 0 0.2 0.2 0.3 0.2 0.1 0.6 0.2 0.6 0.2 0-0.1 0.1-0.6-0.2-0.9z"/>
	</g>
</svg>