<svg version="1.2" xmlns="http://www.w3.org/2000/svg" viewBox="0 0 70 30" width="70" height="30">
	<title>New Project</title>
	<style>
		.s0 { fill: #191c4f } 
	</style>
	<g id="الطلاق 00000111883522641271542530000017738708768329486003 ">
		<path id="&lt;Path&gt;" class="s0" d="m22.8 22.3c0.4 0.1 0.4 0.6 0.3 0.8-0.2 0.9-0.9 1.5-1 1.7-0.2 0.2-0.2 0.1-0.1-0.1 0 0 0.1-0.2 0.3-0.3 0.5-0.7 0.5-1.2 0.5-1.3-0.1-0.5-0.5-0.3-0.7-0.1-0.1 0.2-0.2 0.1-0.1 0q0-0.1 0.1-0.2c0.3-0.5 0.6-0.5 0.7-0.5z"/>
		<path id="&lt;Path&gt;" class="s0" d="m16.5 21.8c0 0.1 0 0.1-0.1 0.3-0.1 0.2-0.2 0.2-0.4 0.3-0.1 0.1-4.3 2.1-4.4 2.1-0.3 0.2-0.3 0.1-0.2 0q0 0 0-0.3c0.1-0.1 0.1-0.2 0.4-0.3 0.2-0.1 4.2-2.1 4.5-2.2 0.3-0.1 0.3 0 0.2 0.1z"/>
		<path id="&lt;Path&gt;" class="s0" d="m36.2 21.6c0.3 0.1 0.3 0.6 0.3 0.8-0.3 0.9-0.9 1.5-1.1 1.7-0.1 0.2-0.2 0.1 0-0.1 0 0 0.1-0.2 0.2-0.3 0.6-0.8 0.5-1.2 0.5-1.3-0.1-0.5-0.4-0.4-0.7-0.1-0.1 0.2-0.1 0.1-0.1 0q0.1-0.1 0.2-0.2c0.3-0.5 0.5-0.6 0.7-0.5z"/>
		<path id="&lt;Path&gt;" class="s0" d="m64.1 20c0 0 0 0.3 0 0.5 0 0.2-0.1 0.6-0.2 0.9-0.1 0.3-0.8 0.4-1.2 0.1-0.8 1.2-1.4 0.6-1.8 0.5-0.7-0.3-0.9 0.1-1 0.3-0.9 1-2.4 0.9-2.8 1-0.4 0 0-0.2 0.1-0.3 1.2-0.4 2-0.5 3-1.5 0.5-0.5 0.8-0.3 1-0.2 1 0.5 1.2 0 1.3-0.1 0.1-0.1 0.3-0.7 0.4-0.8 0-0.2 0.1-0.1 0.1 0.1 0 0.1-0.1 0.3-0.1 0.4 0.4 0.3 0.8 0 0.9-0.1 0 0 0-0.3 0-0.4q0-0.1 0.1-0.5c0.1-0.3 0.2-0.1 0.2 0.1z"/>
		<path id="&lt;Path&gt;" class="s0" d="m18.4 17c0 0-0.1 0.4-0.1 0.6-0.4 1.1-0.1 1.6-0.1 1.7 0.4 0.6 0.8 0.3 1-0.2 0.1-0.2 0.1-0.1 0.1 0q0 0.1 0 0.3c-0.2 0.7-0.5 0.9-0.8 0.9-0.4 0-0.7-0.5-0.7-0.8-0.1-1.2 0.4-2.2 0.5-2.5 0.1-0.3 0.2-0.2 0.1 0z"/>
		<path id="&lt;Path&gt;" class="s0" d="m9.3 16.7c0 0-0.1 0.3-0.1 0.5-0.3 1-0.1 1.4 0 1.5 0.3 0.5 0.7 0.2 0.8-0.2 0-0.2 0.1-0.1 0.1 0q0 0.1-0.1 0.3c-0.1 0.6-0.3 0.8-0.5 0.8-0.4 0-0.6-0.4-0.6-0.7-0.2-1 0.2-2 0.3-2.3 0.1-0.2 0.2-0.1 0.1 0.1z"/>
		<path id="&lt;Compound Path&gt;" fill-rule="evenodd" class="s0" d="m14.5 20.6c0 0-5.5 5-8.7 1.7-1.5-1.6-0.4-4.9-0.2-5.4 0.3-0.5 0.4-0.2 0.3 0.2-1.2 4 1.3 4.8 1.9 5 2.7 0.5 5.8-2 6.2-2.3 1.3-0.9 1.3-1.4 1.2-1.5-0.4-1.1-1.8-0.7-3-0.8-1.2-0.2-0.7-2-0.2-2.6 0.3-0.5 1.9-1.7 3.2 1.3 1.3 2.8-0.4 4.1-0.7 4.4zm-0.2-4.1c0 0-0.8-1.2-1.7-0.9-0.3 0.1-0.4 0.5-0.1 0.7 0.4 0.2 0.6 0.1 1 0.1 0.3 0 0.7 0 0.8 0.1z"/>
		<path id="&lt;Compound Path&gt;" fill-rule="evenodd" class="s0" d="m45.3 18.6c-0.3 1-1.7 1.6-2 1.7-1.3 0.4-1.4-0.9-1.3-1.8 0.1-1 0.7-2.1 0.7-2.1 0-0.1-1.4-1.1-1.5-1.2-0.1-0.1-0.2-0.3-0.3-0.4-0.1 0-0.1-0.1-0.1-0.1 0 0 0-0.9 0-1.1 0-0.1 0 0 0.2 0 0.1 0.1 1.5 0.6 1.7 0.7 0.1 0.1 0.1 0.2 0 0.2-0.1 0.1-0.6 0.2-0.6 0.2l1.2 0.8c0 0 1.6-2.1 1.8-2.3 0.2-0.2 0.2-0.1 0.1 0.1 0 0.2-0.3 1.1-0.4 1.3-0.1 0.1-0.9 1.3-0.9 1.3 0 0 1.1 0.6 1.3 1 0.5 0.7 0.2 1.3 0.1 1.7zm-2.1-1.9c0 0-0.7 1.3-0.8 1.5-0.3 0.8 0.4 0.9 0.7 0.9 0.3-0.1 1.3-0.6 1.7-1 0.5-0.3-1.3-1.2-1.6-1.4z"/>
		<path id="&lt;Compound Path&gt;" fill-rule="evenodd" class="s0" d="m65.6 17.4c-0.1 0.2-0.3 1.2-1.7 0.9-0.3 0-1-0.2-1.3-0.9-0.3 0.4-1.1 1.7-2.6 1.4-0.3 0-1.4-0.4-1.5-1.8 0 0-1.2 1.1-1.8 1.4 0.1 0.5 0 1-0.2 1.6-0.2 0.6-3 3.7-5.2 4.2-0.7 0.1-3.5 0.7-3.6-2.5-0.1-0.6 0-1.2 0-1.5-1.7 1.4-3.8 2.4-4.4 2.7-0.9 0.4-4.2 1-4.7 1.1-0.4 0-0.5-0.1-0.3-0.2 0.3-0.1 7.4-2.5 11.2-6.5 0.1-0.1 0-0.2-0.1-0.4-0.1-0.2-1.2-2.5-1.3-2.8-0.2-0.3-0.3-0.6-0.4-0.7q-0.1-0.2 0-0.4c0-0.1 0.1-0.7 0.2-0.8 0-0.2 0.1-0.1 0.1 0 0.1 0.1 1.3 1.2 1.4 1.4 0.1 0.2 0 0.2 0 0.2-0.1 0-0.6 0-0.6 0 0 0 0.7 1.3 1 1.8 0.4 1.1 0.2 1.9 0 2.3-0.3 0.7-1 1.4-1.7 2-0.1 0.5-0.3 3.1 2.1 3.2 0.4 0 1.6 0.2 4-1.8 0.6-0.5 1.2-1.1 1.8-1.8 0.2-0.3 0.3-0.9-0.1-0.8-0.3 0-2.9 1-3.3-0.6 0-0.4 0.2-4 2.6-2.2 0.3 0.2 0.8 0.6 1.1 1.3 0.5-0.2 1.2-0.6 2.2-1.4 0.3-0.2 0.5-0.4 0.5 0 0 0.3-0.2 2.4 2.1 1.8 0.3-0.1 1.2-0.3 1.9-2.1 0.2-0.4 0.5-0.3 0.3 0-0.1 0.5-0.4 0.8-0.2 1.1 0.3 0.2 0.9 0.6 1.7 0.5 0.3 0 0.5-0.1 0.4-0.4-0.1-0.2-0.4-0.6-0.4-0.6 0-0.3 0.2-0.8 0.2-0.9 0-0.1 0.1-0.2 0.2-0.1 0.1 0.1 0.8 1 0.4 2.3zm-10.3 0.1c-0.8-1.1-1.8-0.4-1.9-0.3-0.1 0.1-0.2 0.4 0.6 0.5 0.9 0 1.3-0.2 1.3-0.2z"/>
		<path id="&lt;Path&gt;" class="s0" d="m12.3 11.6l1.1 0.8q0 0 0 0l-0.6 0.9q-0.1 0-0.1 0l-1-0.7-0.5 0.7q-0.1 0-0.1 0l-1-0.8q-0.1 0 0-0.1l0.6-0.8q0 0 0.1 0l0.9 0.7 0.6-0.7q0 0 0 0z"/>
		<path id="&lt;Path&gt;" class="s0" d="m43.9 10.9l1.1 0.7q0 0.1 0 0.1l-0.6 0.8q-0.1 0.1-0.1 0l-1-0.7-0.5 0.7q-0.1 0.1-0.1 0l-1-0.7q-0.1 0 0-0.1l0.6-0.8q0-0.1 0.1 0l0.9 0.7 0.6-0.7q0-0.1 0 0z"/>
		<path id="&lt;Path&gt;" class="s0" d="m63 10.9c0 0-0.1 0.3-0.1 0.5-0.4 0.9-0.2 1.3-0.1 1.3 0.2 0.5 0.5 0.3 0.7-0.1 0-0.1 0.1-0.1 0.1 0q-0.1 0.1-0.1 0.3c-0.2 0.5-0.4 0.7-0.6 0.7-0.3 0-0.4-0.5-0.5-0.7 0-1 0.4-1.8 0.5-2 0.1-0.3 0.2-0.2 0.1 0z"/>
		<path id="&lt;Path&gt;" class="s0" d="m6 10.7c0 0-0.2 0.5-0.3 0.9-0.5 1.7-0.2 2.5-0.2 2.6 0.5 0.9 1 0.4 1.3-0.2 0.1-0.3 0.1-0.2 0.1 0q0 0.1-0.1 0.5c-0.3 1.1-0.6 1.3-0.9 1.3-0.6 0-0.9-0.9-0.9-1.3-0.1-1.9 0.6-3.4 0.8-3.9 0.2-0.4 0.3-0.2 0.2 0.1z"/>
		<path id="&lt;Path&gt;" class="s0" d="m52.9 10.4c0 0-0.1 0.3-0.2 0.5-0.3 0.9-0.1 1.4-0.1 1.5 0.3 0.5 0.6 0.2 0.8-0.2 0-0.1 0.1 0 0.1 0q0 0.1-0.1 0.3c-0.2 0.6-0.4 0.8-0.6 0.8-0.4-0.1-0.5-0.5-0.5-0.8-0.1-1 0.3-1.9 0.4-2.2 0.1-0.2 0.2-0.1 0.2 0.1z"/>
		<path id="&lt;Path&gt;" class="s0" d="m25.1 13c0 0-0.1 0.2-0.2 0.4-0.3 1.1-0.1 1.5-0.1 1.6 0.3 0.5 0.7 0.3 0.8-0.1 0.1-0.2 0.2-0.1 0.2 0q-0.1 0.1-0.1 0.3c-0.2 0.6-0.5 0.8-0.7 0.8-0.3 0-0.5-0.5-0.5-0.8-0.1-1.1 0.4-2 0.5-2.3 0.1-0.3 0.2-0.2 0.1 0.1z"/>
		<path id="&lt;Path&gt;" class="s0" d="m11.6 7.2c0.1 0.2 0.1 0.6 0 0.9 0 0.1-0.2 0-0.3-0.2 0 0-0.1-0.1-0.2-0.2-0.5-0.3-0.6 0.5-0.6 0.9 0 0.3 0 1.2 0 1.8 0 0.2-0.1 0.2-0.2 0.1-0.4-1.2-1.1-1.7-1.2-1.8-0.1-0.1-0.2 0.1-0.2 0.2 0 0.1-0.1 0.1-0.1 0-0.1 0-0.5-0.2-0.6-0.3-0.1-0.1-0.1-0.6-0.1-0.8 0-0.3 0.1-0.4 0.2-0.4 1.3 0.7 1.9 2 1.9 2.2 0-1-0.1-1.9 0.4-2.6 0.3-0.6 0.9 0.1 1 0.2z"/>
		<path id="&lt;Compound Path&gt;" fill-rule="evenodd" class="s0" d="m36.1 17.7c0.1 2.3-1 3-1.4 3.2-2.4 1.3-6.1 1.7-6.6 1.8-4.6 0.5-5.1-2.6-5.3-3.5 0 0-0.7 1.7-1.3 2.5-1.5 2-5.3 2.6-5.6 2.7-0.4 0.1-0.5 0-0.2-0.2 0.2-0.1 3.2-1.7 3.7-2.1 1.4-0.9 2.2-1.9 2.6-2.8q-0.1-0.5-0.4-1c-1-2.1-3.8-4.2-4-4.4-1.6-1.4-3.4-4.1-3.5-4.2-0.1-0.2-0.2-0.3-0.3-0.4-0.1 0-0.2-0.1-0.2-0.3 0-0.2 0-0.9 0-1 0.1-0.2 0.1-0.2 0.2 0 0.2 0.1 2.1 1.6 2.3 1.8 0.3 0.2 0.1 0.3-0.1 0.2-0.1 0-0.5-0.1-0.7-0.2 0 0 0.4 0.6 0.8 1.1 0.7 1 2.2 2.4 2.5 2.7 0.4 0.3 2.1 1.7 2.9 2.9 0.5 0.6 0.7 1.3 0.7 1.9 0.3-1.1 0.1-1.9 0.1-2.2-0.1-0.7-1-6.8-1.1-7.6 0 0 0.2-1 0.3-1.3 0-0.3 0.2-0.2 0.3 0.2 0.6 2.3 1.2 9.1 1.4 10.3 0.5 3.7 2.9 3.6 2.9 3.6 0 0 0.6-0.8 1.4-1.8 0.1-0.6 0-2 0-2.6-0.1-0.7-0.9-6.1-1.1-6.7-0.1-0.7-0.2-1.4-0.2-1.9-0.1-0.4-0.2-0.6-0.2-0.7 0 0 0.4-0.9 0.5-1 0-0.1 0 0 0.1 0.1 0 0.1 1.1 2.5 1.2 2.7 0 0.1-0.1 0.2-0.2 0.1-0.1-0.1-0.7-0.7-0.7-0.7 0 0 0.7 3.9 0.9 4.7 0.5 2.6 0.3 4.6 0.2 5.4 0.8-0.8 1.7-1.7 2.5-2.1 2.4-1 3.5 0.6 3.6 1.1 0.3 1-0.5 2.2-0.6 2.4-0.1 0.1 1.7-0.8 1.9-0.9 0.2-0.2 0.1-0.8 0-1.5 0-0.7-1.2-7.7-1.2-7.7-0.1-0.7-0.2-1.4-0.2-1.9-0.1-0.4-0.2-0.6-0.2-0.7 0 0 0.4-0.9 0.5-1 0-0.1 0 0 0.1 0.1 0 0.1 1.2 2.8 1.2 2.9 0.1 0.2 0 0.2-0.1 0.1-0.1-0.1-0.7-0.6-0.7-0.6 0 0 1.3 7.8 1.3 8.5zm-2.6 1.6c0.1-0.1 0.1-0.2 0-0.4-1.6-1.8-3.4-0.8-3.8-0.6-1.6 1.1-2.8 3.1-2.8 3.1 0.4 0 4.4 0 6.6-2.1z"/>
		<path id="&lt;Path&gt;" class="s0" d="m37.3 6.8c0.1 0.1 1.3 3.1 1.4 3.2 0 0.2-0.1 0.3-0.2 0.2-0.1-0.1-0.7-0.7-0.7-0.7 0 0 1.1 8.1 1.2 8.3q0.3 2.4 0.2 3.5c-0.1 1.1-0.2 1.4-0.3 1.5-0.1 0.2-0.1 0.1-0.1 0 0-0.6-0.2-1.7-0.3-2.9-0.3-2.5-1.4-10.2-1.6-11.5 0-0.2-0.1-0.6-0.1-0.6 0 0 0.4-1 0.4-1.1 0.1-0.1 0.1 0 0.1 0.1z"/>
		<path id="&lt;Path&gt;" class="s0" d="m32.8 12.5c0 0 0.1 0.5 0.3 0.7 0.1 0.3 0.2 0.5 0.1 0.9 0 0.4-0.3 0.7-0.4 0.8-0.3 0.1-0.7 0.1-1-0.3-0.3 0.6-0.8 0.8-1.1 0.6-0.3-0.1-0.3-0.7-0.3-0.9 0-0.1 0-0.7 0-0.8 0-0.1 0-0.2 0.1-0.3 0-0.2 0.1-0.1 0.1 0.1 0 0.1-0.1 0.9 0.1 1.1 0.3 0.5 0.9 0.1 1-0.2 0.1-0.2-0.2-1-0.2-1q0-0.1 0-0.1c0-0.1 0-0.3 0.1-0.4q0.1-0.2 0.2 0c0 0.1 0 0.3 0.2 1 0.1 0.7 0.7 0.6 0.9 0.5 0.1 0 0.1-0.1 0.1-0.2-0.1-0.1-0.3-0.7-0.4-0.9-0.1-0.3-0.1-0.5 0-0.7 0.1-0.2 0.1-0.1 0.2 0.1z"/>
		<path id="&lt;Path&gt;" class="s0" d="m33.5 9.4c0 0.1-0.1 0.2-0.2 0.3 0 0.2-0.1 0.2-0.3 0.3-0.2 0.2-4.3 1.7-4.4 1.7-0.3 0.2-0.3 0.1-0.3 0q0.1 0 0.1-0.3c0.1-0.2 0.1-0.2 0.4-0.3 0.2-0.1 4.2-1.7 4.5-1.8 0.3-0.1 0.2 0 0.2 0.1z"/>
		<path id="&lt;Path&gt;" class="s0" d="m30.8 6.6c0 0 0 0.3-0.1 0.5-0.3 0.8-0.1 1.2-0.1 1.3 0.3 0.4 0.6 0.2 0.7-0.1 0.1-0.2 0.1-0.1 0.1 0q0 0.1-0.1 0.2c-0.1 0.6-0.3 0.7-0.5 0.7-0.3 0-0.5-0.4-0.5-0.6-0.1-1 0.3-1.8 0.4-2 0.1-0.3 0.2-0.2 0.1 0z"/>
		<path id="&lt;Path&gt;" class="s0" d="m52 6.3c-0.1 0.1-0.1 0.1-0.2 0.3 0 0.1-0.1 0.2-0.3 0.3-0.2 0.1-5.5 3.2-5.6 3.2-0.3 0.3-0.3 0.1-0.2 0q0 0 0-0.3c0-0.1 0.1-0.2 0.3-0.3 0.3-0.2 5.5-3.2 5.7-3.3 0.4-0.2 0.3-0.1 0.3 0.1z"/>
		<path id="&lt;Path&gt;" class="s0" d="m58.4 6.6c0.1 0.2 0 0.6-0.1 0.9 0 0.1-0.2 0-0.3-0.2 0 0-0.1-0.1-0.2-0.2-0.6-0.5-0.8 0.4-0.8 0.8-0.1 0.3-0.1 1.3-0.2 1.9 0 0.2-0.2 0.2-0.3 0.1-0.3-1.3-1-1.9-1.1-2-0.2-0.1-0.3 0.1-0.3 0.2 0 0-0.1 0-0.1 0-0.1 0-0.5-0.3-0.6-0.4-0.2-0.2-0.1-0.6-0.1-0.8 0-0.4 0.2-0.5 0.3-0.4 1.5 0.8 1.9 2.2 2 2.4 0.1-1 0.1-2 0.6-2.7 0.5-0.6 1.2 0.3 1.2 0.4z"/>
		<path id="&lt;Compound Path&gt;" fill-rule="evenodd" class="s0" d="m63.6 8.8c0 0.2-0.1 0.1-0.2-0.1 0-0.1-0.2-0.2-0.4-0.3-0.2 0.4-0.2 0.5-1.1 1.3-1.9 1.6-4.1 2.2-4.2 2.3-0.1 0-0.1-0.1 0.1-0.2 0.6-0.6 3.4-1.8 4.9-3.6 0 0-0.5-0.1-0.8-0.4-0.3-0.2-0.1-1 0.1-1.3 0.5-0.9 1-0.4 1.1-0.3 0.5 0.8 0.2 1.6 0.2 1.6 0.3 0.2 0.5 0.5 0.3 1zm-0.9-2.1c-0.1 0-0.2-0.1-0.5 0.3-0.1 0.2 0 0.3 0.2 0.3 0.2 0.1 0.6 0.3 0.6 0.3 0-0.1 0.1-0.6-0.3-0.9z"/>
		<path id="&lt;Compound Path&gt;" fill-rule="evenodd" class="s0" d="m43.7 8.5c-0.1 0.2-0.2 0.1-0.3-0.1 0 0-0.4-0.3-0.4-0.3 0 0-0.4 0.9-1.1 1.4-1.3 1-2.4 1.2-2.5 1.2-0.1 0.1-0.2-0.1 0-0.2 0.9-0.5 1.9-0.8 3.3-2.6 0 0-0.5-0.1-0.8-0.4-0.3-0.2-0.1-1 0.1-1.3 0.5-0.9 1-0.4 1.1-0.3 0.5 0.8 0.2 1.6 0.2 1.6 0.3 0.2 0.5 0.5 0.4 1zm-1-2.1c-0.1 0-0.2-0.1-0.5 0.3-0.1 0.2 0 0.3 0.2 0.4 0.2 0 0.6 0.2 0.6 0.2 0-0.1 0.1-0.6-0.3-0.9z"/>
		<path id="&lt;Path&gt;" class="s0" d="m24 5.2c-0.1 0.1-0.1 0.1-0.2 0.3 0 0.2-0.1 0.2-0.3 0.3-0.1 0.1-4.7 2.2-5.3 2.6-0.6 0.4-0.5 0.6-0.4 0.7 0.5 0.1 0.7 0.4 0.5 0.9-0.1 0-0.1 0.1-0.1 0-0.1 0-0.2-0.2-0.4-0.2-0.4-0.1-0.5-0.6-0.4-1.1 0.1-0.3 0.3-0.6 0.5-0.8 0.5-0.4 5.6-2.7 5.8-2.8 0.3-0.2 0.3-0.1 0.3 0.1z"/>
	</g>
</svg>