<svg version="1.2" xmlns="http://www.w3.org/2000/svg" viewBox="0 0 70 30" width="70" height="30">
	<title>New Project</title>
	<style>
		.s0 { fill: #191c4f } 
	</style>
	<g id="التحريم">
		<path id="&lt;Path&gt;" class="s0" d="m12.2 22.6c-0.1 0.2-0.1 0.2-0.2 0.4 0 0.1-0.1 0.2-0.3 0.3-0.3 0.1-2.8 0.9-3 1-0.3 0.1-0.3 0.1-0.2-0.1q0 0 0.1-0.2c0-0.2 0.1-0.3 0.3-0.4 0.3-0.1 2.8-1 3.1-1 0.3-0.2 0.2-0.1 0.2 0z"/>
		<path id="&lt;Path&gt;" class="s0" d="m22.6 21.4c-0.1 0.2-0.1 0.2-0.2 0.4-0.1 0.1-0.2 0.2-0.4 0.3-0.1 0.1-3.2 1.3-3.3 1.4-0.4 0.2-0.3 0-0.3-0.1q0 0 0.1-0.3c0-0.1 0.1-0.1 0.3-0.3 0.3-0.1 3.3-1.3 3.5-1.4 0.4-0.2 0.3-0.1 0.3 0z"/>
		<path id="&lt;Path&gt;" class="s0" d="m25.2 20.2c0.2 0 0.2 0.1 0.1 0.3 0 0-0.1 0.2-0.2 0.4-0.1 0.1-0.7 0.8-0.9 1-0.2 0.3-0.1 0.8 0.6 0.9 0.8-0.1 1.6-0.8 1.7-1 0.2-0.1 0.2 0 0.1 0.2-0.6 0.8-1.3 1.2-1.5 1.2-0.2 0.1-1.4 0.4-1.2-0.9 0.2-0.8 0.9-1.4 1-1.5q0.1-0.1-0.1-0.1c-0.8 0-0.8 0.3-0.9 0.3 0 0.1 0 0 0-0.1 0 0 0.2-0.3 0.2-0.4 0.3-0.5 0.9-0.3 1.1-0.3z"/>
		<path id="&lt;Path&gt;" class="s0" d="m32.9 19.9c0 0-0.1 0.3-0.2 0.4-0.3 0.9-0.1 1.3-0.1 1.3 0.3 0.5 0.6 0.3 0.7-0.1 0.1-0.1 0.1 0 0.1 0q0 0.1-0.1 0.3c-0.1 0.5-0.3 0.6-0.5 0.6-0.3 0-0.5-0.4-0.5-0.6 0-0.9 0.4-1.7 0.5-2 0-0.2 0.1-0.1 0.1 0.1z"/>
		<path id="&lt;Path&gt;" class="s0" d="m64.1 19.3c0 0 0 0.3 0 0.5 0 0.2-0.1 0.5-0.2 0.8-0.1 0.3-0.8 0.5-1.2 0.2-0.7 1.1-1.4 0.5-1.8 0.4-0.7-0.3-0.9 0.2-1 0.4-0.9 0.9-2.4 0.9-2.8 0.9-0.3 0 0-0.2 0.1-0.3 1.2-0.4 2-0.5 3.1-1.5 0.4-0.4 0.7-0.2 0.9-0.1 1 0.4 1.2 0 1.3-0.2 0.1-0.1 0.3-0.6 0.4-0.8 0.1-0.1 0.2 0 0.1 0.1 0 0.1-0.1 0.3-0.1 0.4 0.4 0.3 0.8 0.1 0.9 0 0 0 0-0.3 0-0.4q0-0.2 0.1-0.6c0.1-0.2 0.2 0 0.2 0.2z"/>
		<path id="&lt;Path&gt;" class="s0" d="m37.6 19c0 0-0.1 0.3-0.1 0.4-0.3 0.9-0.2 1.3-0.1 1.4 0.2 0.4 0.5 0.2 0.7-0.2 0-0.1 0.1 0 0.1 0q-0.1 0.1-0.1 0.3c-0.2 0.5-0.4 0.6-0.5 0.6-0.4 0-0.5-0.4-0.5-0.6-0.1-0.9 0.3-1.7 0.4-1.9 0.1-0.3 0.2-0.2 0.1 0z"/>
		<path id="&lt;Compound Path&gt;" fill-rule="evenodd" class="s0" d="m45.4 17.9c-0.3 1-1.7 1.5-2 1.6-1.3 0.4-1.4-0.9-1.3-1.8 0.1-0.9 0.7-2.1 0.7-2.1 0 0-1.4-1.1-1.5-1.2-0.1-0.1-0.2-0.2-0.3-0.3-0.1-0.1-0.1-0.1-0.1-0.1 0 0 0-1 0-1.1 0-0.1 0.1 0 0.2 0 0.1 0 1.5 0.6 1.7 0.7 0.1 0.1 0.1 0.2 0 0.2-0.1 0-0.6 0.2-0.6 0.2l1.2 0.8c0 0 1.6-2.1 1.8-2.3 0.2-0.2 0.1-0.1 0.1 0.1 0 0.2-0.3 1.1-0.4 1.2-0.1 0.2-0.9 1.4-0.9 1.4 0 0 1.1 0.6 1.3 1 0.5 0.7 0.2 1.3 0.1 1.7zm-2.1-1.9c0 0-0.7 1.2-0.8 1.5-0.3 0.7 0.4 0.8 0.7 0.8 0.3 0 1.2-0.5 1.7-0.9 0.5-0.4-1.3-1.3-1.6-1.4z"/>
		<path id="&lt;Path&gt;" class="s0" d="m10.5 12.9c0 0-0.1 0.3-0.1 0.5-0.4 0.9-0.2 1.4-0.1 1.5 0.2 0.4 0.6 0.2 0.7-0.2 0.1-0.2 0.2-0.1 0.1 0q0 0.1 0 0.3c-0.2 0.6-0.4 0.7-0.6 0.7-0.4 0-0.6-0.4-0.6-0.7-0.1-1 0.4-1.9 0.5-2.2 0.1-0.2 0.2-0.1 0.1 0.1z"/>
		<path id="&lt;Compound Path&gt;" fill-rule="evenodd" class="s0" d="m65.6 16.7c-0.1 0.2-0.3 1.2-1.7 0.9-0.3-0.1-1-0.2-1.2-1-0.4 0.5-1.1 1.7-2.7 1.5-0.3 0-1.4-0.5-1.4-1.8 0 0-1.3 1-1.9 1.3 0.1 0.5 0.1 1.1-0.2 1.7-0.2 0.6-2.9 3.6-5.1 4.1-0.7 0.2-3.5 0.7-3.7-2.4q0-1 0.1-1.5c-1.7 1.3-3.8 2.3-4.4 2.6-0.9 0.5-4.2 1-4.7 1.1-0.4 0.1-0.5 0-0.2-0.2 0.2-0.1 7.3-2.5 11-6.4 0.1-0.1 0.1-0.3 0-0.5-0.1-0.2-1.3-2.4-1.4-2.7-0.1-0.3-0.2-0.6-0.3-0.7q-0.1-0.2 0-0.4c0-0.1 0.1-0.7 0.1-0.8 0.1-0.2 0.1-0.1 0.2 0 0.1 0.1 1.2 1.2 1.4 1.4 0.1 0.1 0 0.2 0 0.2-0.1 0-0.7 0-0.7 0 0 0 0.8 1.3 1 1.8 0.5 1 0.3 1.9 0.1 2.3-0.4 0.7-1 1.3-1.7 1.9-0.1 0.6-0.3 3.2 2 3.2 0.4 0 1.6 0.2 4.1-1.8 0.6-0.5 1.2-1 1.7-1.8 0.3-0.3 0.4-0.8 0-0.8-0.4 0.1-2.9 1-3.3-0.5-0.1-0.4 0.1-4 2.6-2.2 0.2 0.1 0.7 0.6 1.1 1.3 0.4-0.2 1.2-0.7 2.1-1.4 0.3-0.3 0.6-0.4 0.6-0.1-0.1 0.4-0.2 2.5 2 1.9 0.3-0.1 1.2-0.3 1.9-2.1 0.2-0.4 0.5-0.4 0.4 0-0.2 0.4-0.5 0.8-0.2 1 0.2 0.2 0.8 0.7 1.6 0.6 0.3 0 0.5-0.2 0.4-0.4-0.1-0.2-0.4-0.7-0.4-0.7 0.1-0.3 0.2-0.7 0.2-0.8 0-0.2 0.1-0.3 0.2-0.2 0.1 0.1 0.8 1.1 0.4 2.4zm-10.3 0.1c-0.8-1.1-1.7-0.5-1.9-0.3-0.1 0.1-0.1 0.4 0.6 0.4 1 0.1 1.3-0.1 1.3-0.1z"/>
		<path id="&lt;Path&gt;" class="s0" d="m16.1 19.6l1 0.7q0.1 0.1 0 0.1l-0.6 0.8q0 0.1 0 0l-1-0.7-0.5 0.7q-0.1 0.1-0.1 0l-1-0.7q-0.1 0 0-0.1l0.6-0.8q0 0 0 0l1 0.7 0.5-0.7q0.1 0 0.1 0z"/>
		<path id="&lt;Path&gt;" class="s0" d="m32.9 12.6l1 0.8q0.1 0 0.1 0.1l-0.6 0.8q-0.1 0-0.1 0l-1-0.7-0.5 0.7q0 0-0.1 0l-1-0.8q0 0 0 0l0.6-0.9q0 0 0.1 0l0.9 0.8 0.6-0.8q0 0 0 0z"/>
		<path id="&lt;Path&gt;" class="s0" d="m44 10.2l1 0.7q0.1 0 0.1 0.1l-0.6 0.8q-0.1 0-0.1 0l-1-0.7-0.5 0.7q-0.1 0-0.1 0l-1-0.7q0-0.1 0-0.1l0.6-0.8q0-0.1 0.1 0l0.9 0.7 0.6-0.7q0-0.1 0 0z"/>
		<path id="&lt;Path&gt;" class="s0" d="m63 10.2c0 0-0.1 0.3-0.1 0.4-0.3 0.9-0.2 1.3-0.1 1.4 0.2 0.5 0.5 0.2 0.7-0.1 0-0.2 0.1-0.1 0.1 0q-0.1 0.1-0.1 0.3c-0.2 0.5-0.4 0.7-0.6 0.7-0.3-0.1-0.4-0.5-0.5-0.7 0-1 0.4-1.8 0.5-2 0.1-0.3 0.2-0.2 0.1 0z"/>
		<path id="&lt;Path&gt;" class="s0" d="m17.7 10.3c0 0-0.1 0.4-0.2 0.7-0.3 1.5-0.1 2.1 0 2.2 0.4 0.7 0.8 0.3 1-0.2 0-0.3 0.1-0.2 0.1 0q0 0.1-0.1 0.4c-0.1 0.9-0.4 1.1-0.7 1.1-0.4 0.1-0.7-0.6-0.7-1-0.2-1.6 0.3-2.9 0.4-3.3 0.1-0.4 0.2-0.2 0.2 0.1z"/>
		<path id="&lt;Path&gt;" class="s0" d="m52.9 9.7c0 0-0.1 0.3-0.1 0.5-0.4 0.9-0.2 1.4-0.1 1.5 0.2 0.4 0.6 0.2 0.7-0.2 0.1-0.2 0.1-0.1 0.1 0q0 0.1 0 0.3c-0.2 0.6-0.5 0.7-0.6 0.7-0.4 0-0.6-0.4-0.6-0.7 0-1 0.4-1.9 0.5-2.2 0.1-0.2 0.2-0.1 0.1 0.1z"/>
		<path id="&lt;Path&gt;" class="s0" d="m31.9 8.7c0 0 0.1 0.5 0.3 0.7 0.1 0.2 0.2 0.5 0.1 0.9 0 0.3-0.2 0.6-0.4 0.7-0.2 0.1-0.6 0.1-0.9-0.3-0.3 0.6-0.8 0.8-1.1 0.6-0.3-0.1-0.3-0.7-0.3-0.8 0-0.2 0-0.7 0-0.8 0-0.1 0-0.2 0.1-0.4 0.1-0.1 0.1 0 0.1 0.1 0 0.2 0 0.9 0.1 1.2 0.3 0.4 0.9 0 1-0.2 0.1-0.2-0.2-1-0.2-1q0-0.1 0-0.1c0-0.1 0-0.3 0.1-0.4q0.1-0.2 0.1 0c0.1 0.1 0.1 0.3 0.2 1 0.2 0.7 0.8 0.5 0.9 0.5 0.2-0.1 0.2-0.2 0.1-0.3 0 0-0.3-0.6-0.4-0.9-0.1-0.2 0-0.4 0.1-0.6 0-0.2 0.1 0 0.1 0.1z"/>
		<path id="&lt;Path&gt;" class="s0" d="m10 6.8c0.1 0.2 0.1 0.6 0 0.8 0 0.1-0.1 0-0.3-0.1 0 0-0.1-0.1-0.2-0.2-0.5-0.3-0.5 0.5-0.6 0.8 0 0.3 0.1 1.2 0.1 1.7 0 0.2-0.1 0.2-0.2 0-0.4-1-1.1-1.4-1.2-1.5-0.1-0.1-0.2 0.1-0.2 0.2 0 0 0 0-0.1 0 0 0-0.4-0.2-0.5-0.3-0.2-0.1-0.2-0.5-0.2-0.7 0-0.3 0.2-0.4 0.2-0.3 1.3 0.5 1.9 1.6 1.9 1.8 0-0.9-0.1-1.7 0.3-2.4 0.3-0.5 0.9 0.1 1 0.2z"/>
		<path id="&lt;Path&gt;" class="s0" d="m12.7 6.6c0 0 0 0.3-0.1 0.5-0.4 1-0.2 1.4-0.1 1.5 0.3 0.5 0.6 0.3 0.8-0.1 0-0.2 0.1-0.1 0.1 0q-0.1 0.1-0.1 0.3c-0.2 0.6-0.4 0.8-0.6 0.8-0.4-0.1-0.6-0.5-0.6-0.8 0-1.1 0.4-2 0.5-2.2 0.1-0.3 0.2-0.2 0.1 0z"/>
		<path id="&lt;Path&gt;" class="s0" d="m23.3 6.4c0.7 0.1 0.5 0.4 0.4 0.6-0.5 0.8-1.2 1.1-1.7 1.3-0.5 0.2-0.2-0.2 0.1-0.4 0 0 0.3-0.1 0.7-0.5 0.4-0.3-0.7-0.2-1.2-0.2-0.5-0.1-0.6 0.1-0.8 0.3-0.1 0.2-0.3 0.1-0.2-0.2 0.1-0.1 0.2-0.4 0.6-0.8 0.3-0.4 1.4-0.2 2.1-0.1z"/>
		<path id="&lt;Path&gt;" class="s0" d="m32.9 6.1c-0.1 0.1-0.1 0.1-0.2 0.3-0.1 0.2-0.2 0.3-0.4 0.4-0.2 0.1-9.1 4.4-9.2 4.5-0.4 0.2-0.3 0-0.3-0.1q0 0 0.1-0.3c0.1-0.2 0.1-0.2 0.4-0.4 0.3-0.1 9.1-4.4 9.3-4.5 0.4-0.2 0.3-0.1 0.3 0.1z"/>
		<path id="&lt;Path&gt;" class="s0" d="m18.5 6c0.1 0.2 0.1 0.5 0 0.8 0 0.1-0.1 0-0.2-0.1 0 0-0.2-0.1-0.3-0.2-0.5-0.3-0.5 0.4-0.5 0.8 0 0.3 0 1.1 0 1.6 0 0.2-0.1 0.2-0.2 0.1-0.4-1-1.1-1.4-1.2-1.5-0.1-0.1-0.1 0.1-0.2 0.1 0 0.1 0 0.1-0.1 0.1 0 0-0.4-0.2-0.5-0.3-0.2-0.1-0.2-0.5-0.2-0.7 0-0.3 0.2-0.4 0.3-0.4 1.2 0.6 1.8 1.7 1.9 1.9-0.1-0.9-0.2-1.7 0.2-2.4 0.3-0.5 0.9 0.1 1 0.2z"/>
		<path id="&lt;Path&gt;" class="s0" d="m52 5.6c0 0.1 0 0.1-0.1 0.3-0.1 0.2-0.2 0.2-0.4 0.3-0.1 0.1-5.4 3.2-5.5 3.2-0.3 0.2-0.3 0.1-0.3 0q0.1 0 0.1-0.3c0-0.1 0.1-0.2 0.3-0.3 0.2-0.2 5.5-3.2 5.7-3.3 0.3-0.2 0.3-0.1 0.2 0.1z"/>
		<path id="&lt;Path&gt;" class="s0" d="m58.4 5.9c0.2 0.2 0.1 0.6 0 0.9-0.1 0.1-0.2 0-0.4-0.2 0 0-0.1-0.1-0.2-0.2-0.5-0.5-0.7 0.4-0.8 0.8 0 0.3-0.1 1.3-0.2 1.9 0 0.2-0.2 0.2-0.2 0-0.4-1.2-1.1-1.8-1.2-1.9-0.1-0.1-0.2 0.1-0.2 0.2-0.1 0-0.1 0-0.2 0-0.1 0-0.5-0.3-0.6-0.4-0.1-0.2-0.1-0.6-0.1-0.8 0-0.4 0.3-0.5 0.4-0.4 1.4 0.8 1.8 2.2 1.9 2.4 0.1-1 0.1-2 0.7-2.7 0.4-0.5 1.1 0.3 1.1 0.4z"/>
		<path id="&lt;Compound Path&gt;" fill-rule="evenodd" class="s0" d="m63.7 8.1c-0.1 0.2-0.2 0.1-0.3-0.1 0-0.1-0.2-0.2-0.4-0.3-0.2 0.4-0.2 0.5-1.1 1.3-1.9 1.6-4 2.2-4.1 2.2-0.2 0.1-0.2 0 0-0.2 0.7-0.5 3.5-1.7 4.9-3.5 0 0-0.5-0.1-0.8-0.4-0.3-0.2-0.1-1 0.1-1.3 0.6-0.8 1-0.4 1.1-0.3 0.5 0.8 0.2 1.6 0.2 1.6 0.3 0.2 0.5 0.5 0.4 1zm-1-2.1c-0.1 0-0.2 0-0.5 0.4-0.1 0.1 0 0.2 0.2 0.3 0.2 0 0.6 0.2 0.6 0.2 0-0.1 0.1-0.6-0.3-0.9z"/>
		<path id="&lt;Compound Path&gt;" fill-rule="evenodd" class="s0" d="m36.4 17.6c0 2.1-1.5 2.2-1.8 2.2-1.6 0.2-2-0.8-2.2-1.3-1.3 2.5-4.3 2-4.6 1.9-2-0.7-1.3-3.1-1.1-3.8-1 0.5-2.1 1.1-2.9 1.5q0 0.3 0 0.5c0 0.2-0.2 0.3-0.2 0.1q-0.1-0.2-0.3-0.4-0.3 0.1-0.4 0.2c-3.1 1.1-4.7 3.1-5.2 3.7-1.4 1.7-2.5 2-3.1 1.9-3.1-0.3-1.6-4.3-1.1-5.4q0 0 0-0.1c-0.6 0.3-1.1 0.7-1.4 0.9-0.6 0.4-1.5 1.2-2.2 2-1.4 1.6-2.6 1.8-3.1 1.7-3.5-0.7-0.9-5-0.2-6-0.4-0.2-0.6-0.8-0.6-1.1-0.3-1.9 0.3-3.6 0.5-4 0.1-0.5 0.3-0.3 0.2 0.1 0 0-0.1 0.5-0.2 0.8-0.4 1.8-0.1 2.6 0 2.8 0.4 0.8 1 0.3 1.2-0.3 0-0.4 0.1-0.2 0.1-0.1q0 0.2-0.1 0.6c-0.1 1-0.5 1.3-0.8 1.3 0 0.2-0.1 0.3-0.3 0.5-2 3.1-0.9 4.2-0.5 4.4 1.3 0.5 3.3-1.5 3.8-2.1 1.3-1.5 3.7-2.8 4.3-3-0.7-1.1-1.3-4.9-1.3-4.9 0 0 0.2-0.8 0.2-0.9 0.1-0.1 0.2 0 0.2 0 0 0.1 1.1 1.9 1.2 2 0 0.2 0 0.3-0.1 0.2-0.1 0-0.6-0.4-0.6-0.4 0 0 0.2 1.5 0.4 2.1 0.3 0.9 1.3 1.5 2.2 1.9 0.9 0.4 0.7 0.7 0.7 0.9 0 0.3-0.1 0.8-0.1 0.8-1-0.7-2-0.7-2.9-0.4-1.9 4.2-0.3 4.7 0.1 4.7 1.4 0.2 2.7-1.6 3.9-2.8 1.3-1.5 4-2.6 4.3-2.8q0 0 0.2 0c-0.9-0.8-1.8-1.5-2-1.6-0.2-0.2-0.3-0.8-0.2-1.3 0.4-1 1-1.2 1.3-1.2 3.7-0.4 7.9 0.7 8 0.7 0 0 0.1 0 0.1 0.1-0.1 0.2-0.3 0.8-0.4 1 0 0 0 0-0.4 0.2-0.1 0.1-1 0.5-2 1.1-0.9 3 1.9 2.8 2.2 2.8 2.5-0.3 3-1.9 3.4-2.3 0.3-0.5 0.3 0.1 0.2 0.4 0.6 2 2.6 1 2.9 0.8 0.3-0.1 0.2-0.5 0.1-0.9 0-1-1.4-8.7-1.4-8.7-0.1-0.7-0.2-1.3-0.2-1.8-0.1-0.4-0.2-0.6-0.2-0.7 0 0 0.4-0.9 0.4-1 0.1-0.1 0.1 0 0.2 0.1 0 0.1 1.1 2.7 1.2 2.9 0 0.2-0.1 0.2-0.2 0.1-0.1-0.1-0.7-0.7-0.7-0.7l1.1 6.6c0.1 0.5 0.4 2.5 0.4 3.5zm-8.7-2.6c-4.2-1-6.4-0.3-6.6-0.2-0.2 0.1-0.1 0.2 0 0.2 0 0.1 1.5 1.2 1.7 1.4q0.4 0.4 0.6 0.7c1.4-0.7 4-2 4.3-2.1z"/>
		<path id="&lt;Path&gt;" class="s0" d="m37.7 5.2c0 0.1 1.2 3.1 1.3 3.2 0.1 0.2-0.1 0.2-0.2 0.1-0.1-0.1-0.7-0.6-0.7-0.6 0 0 1.2 8 1.2 8.3q0.3 2.3 0.2 3.5c0 1-0.2 1.4-0.3 1.4 0 0.2-0.1 0.2-0.1 0 0-0.6-0.1-1.7-0.3-2.9-0.3-2.4-1.4-10.2-1.5-11.5-0.1-0.1-0.2-0.5-0.2-0.6 0 0 0.4-0.9 0.4-1 0.1-0.1 0.1 0 0.2 0.1z"/>
		<path id="&lt;Compound Path&gt;" fill-rule="evenodd" class="s0" d="m43.8 7.8c-0.1 0.2-0.2 0.1-0.3-0.1 0 0-0.4-0.3-0.4-0.3 0 0-0.4 0.9-1.1 1.4-1.3 1-2.4 1.2-2.5 1.2-0.1 0.1-0.2-0.1 0.1-0.2 0.8-0.5 1.8-0.8 3.2-2.5 0 0-0.5-0.2-0.8-0.5-0.3-0.2-0.1-1 0.1-1.3 0.6-0.8 1-0.4 1.1-0.3 0.5 0.8 0.2 1.6 0.2 1.6 0.3 0.2 0.5 0.5 0.4 1zm-1-2.1c-0.1 0-0.2 0-0.5 0.4-0.1 0.1 0 0.2 0.2 0.3 0.2 0 0.6 0.2 0.6 0.2 0-0.1 0.1-0.6-0.3-0.9z"/>
	</g>
</svg>