<svg version="1.2" xmlns="http://www.w3.org/2000/svg" viewBox="0 0 70 30" width="70" height="30">
	<title>New Project</title>
	<style>
		.s0 { fill: #191c4f } 
	</style>
	<g id="الملك">
		<path id="&lt;Path&gt;" class="s0" d="m16.9 25c-0.1 0.1-0.1 0.2-0.2 0.3-0.1 0.2-0.2 0.3-0.4 0.4-0.2 0.1-4.8 1.9-5 2-0.4 0.2-0.3 0-0.3-0.1q0.1 0 0.1-0.3c0.1-0.2 0.2-0.2 0.4-0.4 0.3-0.1 4.9-1.9 5.1-2 0.4-0.2 0.4-0.1 0.3 0.1z"/>
		<path id="&lt;Path&gt;" class="s0" d="m28.7 23.5c0 0 0 0.3-0.1 0.5-0.4 1.1-0.2 1.6-0.1 1.7 0.3 0.5 0.7 0.2 0.8-0.2 0.1-0.2 0.1-0.1 0.1 0q0 0.1-0.1 0.3c-0.1 0.7-0.4 0.8-0.6 0.8-0.4 0-0.6-0.5-0.6-0.7-0.1-1.2 0.4-2.2 0.5-2.5 0.1-0.2 0.2-0.1 0.1 0.1z"/>
		<path id="&lt;Path&gt;" class="s0" d="m63.8 21.8c0 0 0 0.3 0 0.6 0 0.2-0.1 0.6-0.2 1-0.2 0.4-0.9 0.5-1.5 0.2-0.8 1.3-1.6 0.6-2.1 0.5-0.7-0.3-1 0.2-1.2 0.4-1 1.1-2.8 1.1-3.2 1.1-0.4 0.1-0.1-0.2 0.1-0.3 1.4-0.5 2.3-0.6 3.6-1.8 0.5-0.5 0.9-0.3 1.1-0.2 1.2 0.5 1.4 0 1.5-0.1 0.2-0.2 0.4-0.8 0.5-1 0.1-0.2 0.2 0 0.1 0.1 0 0.2-0.1 0.4-0.1 0.5 0.5 0.3 1 0 1.1-0.1 0 0 0-0.3 0-0.5q-0.1-0.1 0.1-0.6c0.1-0.3 0.2 0 0.2 0.2z"/>
		<path id="&lt;Compound Path&gt;" fill-rule="evenodd" class="s0" d="m41.8 20.1c-0.4 1.2-2.1 1.8-2.5 2-1.4 0.4-1.6-1.1-1.5-2.1 0.1-1.1 0.9-2.5 0.9-2.5 0 0-1.6-1.3-1.7-1.4-0.2-0.1-0.3-0.3-0.5-0.4-0.1-0.1-0.1-0.2-0.1-0.2 0 0 0-1.1 0.1-1.2 0-0.1 0-0.1 0.1 0 0.2 0 1.9 0.7 2 0.8 0.2 0.1 0.2 0.2 0.1 0.2-0.1 0.1-0.7 0.2-0.7 0.2l1.4 1c0 0 1.9-2.5 2.1-2.8 0.2-0.2 0.2-0.1 0.1 0.2 0 0.2-0.4 1.3-0.5 1.5 0 0.1-1 1.5-1 1.5 0 0 1.3 0.8 1.6 1.3 0.5 0.7 0.2 1.5 0.1 1.9zm-2.5-2.2c0 0-0.8 1.5-1 1.8-0.3 0.8 0.5 1 0.8 1 0.4-0.1 1.5-0.7 2.1-1.1 0.5-0.5-1.6-1.5-1.9-1.7z"/>
		<path id="&lt;Compound Path&gt;" fill-rule="evenodd" class="s0" d="m65.6 18.7c-0.1 0.3-0.4 1.4-2 1.1-0.4-0.1-1.2-0.3-1.5-1.1-0.4 0.5-1.3 2-3.1 1.7-0.4-0.1-1.7-0.5-1.7-2.1 0 0-1.5 1.2-2.2 1.5 0.1 0.6 0 1.3-0.2 2-0.3 0.7-3.5 4.3-6.1 4.9-0.8 0.2-4.2 0.8-4.3-2.9 0-0.8 0-1.4 0.1-1.8-2.1 1.6-4.5 2.8-5.2 3.2-1.1 0.5-4.9 1.1-5.6 1.2-0.4 0.1-0.5 0-0.2-0.2 0.2-0.1 8.7-3 13-7.6 0.1-0.1 0.1-0.3 0-0.5-0.1-0.3-1.5-2.9-1.6-3.2-0.2-0.4-0.3-0.8-0.4-0.9q-0.1-0.2-0.1-0.4c0.1-0.2 0.2-0.9 0.2-1 0.1-0.2 0.2-0.1 0.2 0 0.1 0.1 1.5 1.5 1.7 1.7 0.1 0.1 0 0.2-0.1 0.2 0 0-0.7 0-0.7 0 0 0 0.9 1.5 1.2 2.1 0.5 1.3 0.2 2.3 0.1 2.7-0.5 0.8-1.2 1.6-2 2.3-0.2 0.7-0.5 3.7 2.4 3.8 0.4 0 1.9 0.2 4.7-2.2 0.7-0.5 1.4-1.2 2.1-2.1 0.3-0.3 0.4-0.9-0.1-0.9-0.4 0.1-3.4 1.2-3.8-0.6-0.1-0.5 0.1-4.8 3-2.7 0.3 0.2 0.9 0.7 1.3 1.6 0.5-0.2 1.4-0.8 2.5-1.7 0.4-0.3 0.7-0.4 0.7 0 0 0.4-0.3 2.9 2.4 2.1 0.3-0.1 1.4-0.3 2.2-2.4 0.3-0.5 0.6-0.4 0.4 0-0.2 0.5-0.5 1-0.2 1.2 0.3 0.3 1 0.8 2 0.7 0.3 0 0.5-0.2 0.4-0.5-0.2-0.2-0.5-0.8-0.5-0.8 0.1-0.3 0.2-0.9 0.3-1 0-0.1 0.1-0.3 0.2-0.1 0.1 0.1 1 1.2 0.5 2.7zm-12.1 0.2c-1-1.3-2.1-0.6-2.3-0.4-0.1 0.1-0.2 0.5 0.8 0.5 1.1 0.1 1.5-0.1 1.5-0.1z"/>
		<path id="&lt;Path&gt;" class="s0" d="m12.6 13.6c0.5 0.1 0.2 0.9 0.2 1.1 0 0.2-0.1 0.4-0.3 0.3-0.2 0-0.6-0.1-1.1 0.5-0.5 0.6 0.2 0.6 1.3 0.7 0.9 0 0.6 1.6 0.1 2.5-0.2 0.4-0.9 0.6-1.4 0.5-0.7-0.1-1.2-0.2-1.5-0.4-0.2-0.2 0.2-0.3 0.8-0.3 0.7 0.1 1.6-0.2 1.9-0.6 0.1-0.2 0-0.4-0.2-0.5-0.3 0-0.8 0-1.3 0-0.9 0-0.4-1.5 0.1-2.6 0.4-1 0.9-1.2 1.4-1.2z"/>
		<path id="&lt;Path&gt;" class="s0" d="m40.1 11l1.2 0.9q0.1 0.1 0 0.1l-0.7 1q0 0 0 0l-1.2-0.9-0.6 0.9q-0.1 0-0.1 0l-1.2-0.9q-0.1 0 0-0.1l0.7-0.9q0-0.1 0.1-0.1l1.1 0.9 0.6-0.8q0.1-0.1 0.1-0.1z"/>
		<path id="&lt;Path&gt;" class="s0" d="m62.5 11.1c0 0-0.1 0.3-0.1 0.5-0.4 1.1-0.2 1.5-0.2 1.7 0.3 0.5 0.7 0.2 0.9-0.2 0-0.2 0.1-0.1 0.1 0q0 0.1-0.1 0.3c-0.2 0.7-0.4 0.8-0.6 0.8-0.4 0-0.6-0.5-0.6-0.8-0.1-1.1 0.4-2.1 0.5-2.4 0.1-0.2 0.2-0.1 0.1 0.1z"/>
		<path id="&lt;Path&gt;" class="s0" d="m50.6 10.5c0 0-0.1 0.3-0.2 0.5-0.3 1.2-0.1 1.7-0.1 1.8 0.3 0.6 0.8 0.3 0.9-0.1 0.1-0.3 0.2-0.2 0.1-0.1q0 0.1 0 0.4c-0.2 0.7-0.5 0.8-0.7 0.8-0.5 0-0.7-0.5-0.7-0.8-0.1-1.2 0.5-2.3 0.6-2.6 0.1-0.3 0.2-0.2 0.1 0.1z"/>
		<path id="&lt;Path&gt;" class="s0" d="m12.9 6.7c0.1 0.2 0 0.7-0.1 1-0.1 0.2-0.2 0-0.4-0.2 0 0-0.1-0.1-0.3-0.2-0.6-0.6-0.8 0.4-0.9 0.9 0 0.4-0.1 1.6-0.2 2.2q0 0.1 0 0.1c-0.1 0.6-0.3 1.3-1.2 1.9-1.2 0.8-1.3 0.8-1.4 0.9-0.1 0-0.2-0.1 0-0.2 0.2-0.1 2.4-2 2.2-2.9-0.3-1.1-1.1-1.9-1.2-2-0.2-0.1-0.3 0.1-0.3 0.2 0 0.1-0.1 0.1-0.2 0-0.1 0-0.5-0.3-0.7-0.5-0.2-0.1-0.1-0.7-0.1-0.9 0-0.4 0.3-0.5 0.4-0.5 1.7 1 2.2 2.6 2.3 2.9 0.1-1.2 0.1-2.3 0.7-3.2 0.6-0.6 1.3 0.3 1.4 0.5z"/>
		<path id="&lt;Path&gt;" class="s0" d="m33.1 5.8c0.1 0.1 1.5 3.6 1.6 3.8 0.1 0.2-0.1 0.2-0.2 0.1-0.1-0.1-0.8-0.8-0.8-0.8 0 0 1.3 9.6 1.3 9.8 0.3 1.9 0.4 3.3 0.3 4.2-0.1 1.1-0.3 1.6-0.3 1.7-0.1 0.2-0.2 0.1-0.2-0.1 0-0.7-0.2-1.9-0.3-3.4-0.4-2.8-1.7-12-1.9-13.5 0-0.2-0.1-0.6-0.1-0.7 0 0 0.4-1.1 0.5-1.2 0-0.1 0.1-0.1 0.1 0.1z"/>
		<path id="&lt;Path&gt;" class="s0" d="m26.4 11.9c0.3 0.3 0.2 0.8 0.2 1 0 0-0.4-0.3-0.6-0.4-0.2 0-0.3-0.2-0.2-0.3 0.3-0.4 0.5-0.4 0.6-0.3z"/>
		<path id="&lt;Path&gt;" class="s0" d="m26.8 11.3c0.5 0.9 0.2 1.8 0.2 1.8 0.2 0.2 0.5 0.5 0.3 1.1-0.1 0.1-0.1 0-0.2-0.2-0.1 0-0.5-0.3-0.5-0.3 0 0-0.9 2.2-3.6 3.3-0.2 0-0.2-0.1 0-0.3 0.9-0.6 2.3-1.7 3.3-3.2 0 0-0.5-0.2-0.8-0.5-0.4-0.2-0.2-1 0.1-1.4 0.6-0.9 1.1-0.4 1.2-0.3z"/>
		<path id="&lt;Path&gt;" class="s0" d="m24.3 6.3c0 0-0.1 0.3-0.1 0.5-0.4 1.2-0.2 1.7-0.2 1.8 0.3 0.6 0.8 0.3 0.9-0.1 0.1-0.3 0.2-0.1 0.1-0.1q0 0.1 0 0.4c-0.2 0.7-0.5 0.9-0.7 0.9-0.5-0.1-0.7-0.6-0.7-0.9-0.1-1.2 0.5-2.3 0.6-2.6 0.1-0.3 0.2-0.1 0.1 0.1z"/>
		<path id="&lt;Compound Path&gt;" fill-rule="evenodd" class="s0" d="m32.9 23.7c-1.5 0.3-2.3-0.8-2.5-1.1q-0.2-0.2-0.4-0.7-0.2 0.1-0.4 0.2c-1.5 0.8-2.7 1.2-3.6 1.3-2.3 0.2-3.5-1.8-3.5-1.8-0.1 1-0.2 1.6-0.4 2-0.8 1.4-2.9 1.3-3.7 0.6-1-0.8-1.5-3.2-1.5-3.2-0.4 1.7-2.9 2.9-3.8 3.3-3.8 1.5-5.6 0.8-6.4 0.4-3.2-1.9-0.9-5.8-0.6-6.5q0-0.1 0.1-0.1c-0.6-0.2-0.9-1-0.9-1.5-0.3-2.2 0.5-4.2 0.6-4.7 0.2-0.6 0.4-0.4 0.3 0.1 0 0-0.2 0.6-0.3 1-0.5 2.1-0.1 3 0 3.2 0.6 1 1.2 0.5 1.4-0.3 0.1-0.4 0.2-0.2 0.2-0.1q0 0.2-0.1 0.7c-0.2 1.2-0.6 1.5-1 1.6q0 0.1 0 0.2c-2.2 5.9 2.6 5.7 3.6 5.6 3.3-0.5 5.9-2.7 6.3-3.1 0.6-0.6 0.2-2.5 0.1-3.3-0.1-0.7-1.2-7.8-1.4-9.3-0.2-1.4 0.1-2 0.1-2.2 0.1-0.2 0.2-0.2 0.3 0 0 0.2 0.4 1.4 0.6 2.3 0.1 0.9 1.2 9.1 1.4 10.2 0.5 2.9 0.9 3.9 1.2 4.1 1.1 1 2.8 0.1 3.1-0.1 0.2-0.2 0.1-1.5 0-2.3-0.1-0.8-1.8-11.6-1.9-12.1 0-0.4 0-0.7 0-1 0.1-0.3 0.1-1 0.2-1.3 0.1-0.3 0.2-0.3 0.3 0 0.1 0.3 0.5 2.3 0.6 3 0.2 0.8 1.4 8.6 1.5 9.5 0.5 2.1 1 2.6 1.2 2.8 2.4 1.7 5.2 0 5.7-0.3q0.1 0 0.3-0.1c-1.2-3.8-1.9-11.2-1.9-11.2-0.1-0.7-0.2-1.3-0.2-1.8-0.1-0.5-0.2-0.8-0.2-0.8 0 0 0.4-1.1 0.5-1.2 0.1-0.2 0.1-0.1 0.1 0.1 0.1 0.1 1.5 3.5 1.5 3.7 0.1 0.2 0 0.2-0.2 0.1-0.1-0.1-0.7-0.7-0.7-0.7 0 0 1.2 8.8 1.7 10.6q0.1 0.4 0.2 0.7c0.6-0.2 1-0.4 1.7-0.3 1.1 0.1 1.5 0.9 1.5 1.2 0.6 2.2-0.5 2.6-0.7 2.6zm-0.2-2c-0.5-0.4-1.1-0.4-1.6-0.3q0.2 0.2 0.3 0.3c0.4 0.4 1 0.6 1.4 0.6 0.3 0 0.1-0.4-0.1-0.6z"/>
		<path id="&lt;Path&gt;" class="s0" d="m49.6 5.6c-0.1 0.2-0.1 0.2-0.2 0.4-0.1 0.2-0.2 0.3-0.4 0.4-0.2 0.1-6.4 3.7-6.6 3.8-0.3 0.2-0.3 0.1-0.2-0.1q0 0 0-0.3c0.1-0.2 0.2-0.2 0.4-0.4 0.3-0.2 6.4-3.7 6.7-3.9 0.4-0.2 0.3 0 0.3 0.1z"/>
		<path id="&lt;Path&gt;" class="s0" d="m57.1 6c0.2 0.3 0.1 0.8 0 1-0.1 0.2-0.3 0-0.4-0.1 0 0-0.2-0.2-0.3-0.3-0.7-0.5-0.9 0.5-1 1 0 0.3-0.1 1.5-0.2 2.2 0 0.3-0.2 0.2-0.3 0-0.4-1.4-1.2-2.1-1.4-2.2-0.1-0.2-0.2 0-0.2 0.1-0.1 0.1-0.1 0.1-0.2 0.1-0.1-0.1-0.6-0.4-0.7-0.5-0.2-0.2-0.1-0.7-0.1-1 0-0.3 0.3-0.5 0.4-0.4 1.7 0.9 2.2 2.6 2.3 2.8 0.1-1.2 0.1-2.3 0.8-3.1 0.5-0.7 1.3 0.3 1.3 0.4z"/>
		<path id="&lt;Compound Path&gt;" fill-rule="evenodd" class="s0" d="m63.3 8.6c-0.1 0.2-0.1 0.1-0.3-0.1-0.1-0.1-0.2-0.3-0.4-0.4-0.3 0.5-0.3 0.6-1.3 1.5-2.3 2-4.8 2.7-5 2.7-0.1 0.1-0.1 0 0.1-0.2 0.8-0.6 4.1-2.1 5.7-4.2 0 0-0.5-0.2-0.8-0.4-0.4-0.3-0.2-1.2 0-1.6 0.7-1 1.2-0.5 1.3-0.3 0.6 0.9 0.3 1.9 0.3 1.9 0.3 0.2 0.6 0.5 0.4 1.1zm-1.1-2.4c-0.1-0.1-0.3-0.1-0.6 0.3-0.1 0.2 0 0.3 0.2 0.4 0.2 0.1 0.7 0.3 0.7 0.3 0-0.1 0.1-0.7-0.3-1z"/>
		<path id="&lt;Compound Path&gt;" fill-rule="evenodd" class="s0" d="m39.8 8.3c-0.1 0.1-0.1 0-0.2-0.1-0.1-0.1-0.5-0.4-0.5-0.4 0 0-0.5 1-1.4 1.7-1.5 1.1-2.8 1.3-2.9 1.4-0.1 0-0.2-0.1 0.1-0.3 0.9-0.5 2.1-0.9 3.8-3 0 0-0.6-0.2-0.9-0.5-0.4-0.2-0.2-1.2 0.1-1.5 0.6-1 1.2-0.5 1.3-0.4 0.5 1 0.2 1.9 0.2 1.9 0.3 0.2 0.6 0.6 0.4 1.2zm-1.1-2.5c-0.1-0.1-0.3-0.1-0.6 0.4-0.1 0.1 0 0.3 0.2 0.4 0.3 0.1 0.7 0.3 0.7 0.3 0.1-0.2 0.1-0.7-0.3-1.1z"/>
		<path id="&lt;Path&gt;" class="s0" d="m21 3.1c0.7 0.1 0.6 0.4 0.4 0.6-0.5 0.8-1.2 1.1-1.7 1.4-0.5 0.2-0.2-0.2 0.1-0.4 0 0 0.3-0.2 0.7-0.5 0.4-0.3-0.7-0.3-1.2-0.3-0.5 0-0.6 0.2-0.8 0.3-0.2 0.2-0.3 0.1-0.2-0.1 0.1-0.2 0.2-0.5 0.6-0.9 0.3-0.3 1.5-0.2 2.1-0.1z"/>
	</g>
</svg>