<svg version="1.2" xmlns="http://www.w3.org/2000/svg" viewBox="0 0 70 30" width="70" height="30">
	<title>New Project</title>
	<style>
		.s0 { fill: #191c4f } 
	</style>
	<g id="القلم">
		<path id="&lt;Path&gt;" class="s0" d="m17.3 24c0 0.2 0 0.2-0.1 0.4-0.1 0.2-0.2 0.2-0.4 0.3-0.2 0.1-4.3 1.5-4.4 1.6-0.3 0.2-0.3 0.1-0.3-0.1q0.1 0 0.1-0.3c0.1-0.2 0.2-0.2 0.4-0.3 0.3-0.2 4.2-1.5 4.5-1.7 0.3-0.1 0.3 0 0.2 0.1z"/>
		<path id="&lt;Path&gt;" class="s0" d="m25 21.9c0.3 0.1 0.3 0.6 0.2 0.8-0.2 1-0.9 1.7-1.1 1.9-0.2 0.2-0.3 0.1-0.1-0.1 0 0 0.1-0.2 0.3-0.4 0.6-0.8 0.6-1.2 0.6-1.3-0.1-0.6-0.5-0.5-0.8-0.2-0.1 0.2-0.1 0.1-0.1 0q0.1-0.1 0.2-0.3c0.3-0.4 0.6-0.5 0.8-0.4z"/>
		<path id="&lt;Path&gt;" class="s0" d="m33 21.2c0.4 0.1 0.4 0.6 0.4 0.8-0.2 1-0.9 1.7-1 2-0.2 0.2-0.3 0.1-0.1-0.1 0 0 0.1-0.3 0.2-0.4 0.6-0.9 0.5-1.3 0.5-1.4-0.1-0.6-0.5-0.4-0.8-0.1-0.1 0.1-0.1 0-0.1 0q0.1-0.1 0.2-0.3c0.3-0.5 0.6-0.6 0.7-0.5z"/>
		<path id="&lt;Path&gt;" class="s0" d="m63.9 20.4c0 0 0 0.3 0 0.5 0 0.3-0.1 0.6-0.2 1-0.1 0.3-0.9 0.5-1.4 0.1-0.8 1.3-1.5 0.7-1.9 0.5-0.8-0.3-1 0.2-1.2 0.4-0.9 1.1-2.6 1-3 1.1-0.4 0-0.1-0.2 0.1-0.3 1.3-0.5 2.1-0.6 3.3-1.7 0.6-0.5 0.9-0.3 1.1-0.2 1.1 0.5 1.3 0 1.4-0.1 0.2-0.2 0.4-0.8 0.5-0.9 0-0.2 0.1-0.1 0.1 0.1 0 0.1-0.1 0.3-0.1 0.4 0.5 0.3 0.9 0.1 1 0 0 0 0-0.4 0-0.5q0-0.2 0.1-0.6c0.1-0.3 0.2 0 0.2 0.2z"/>
		<path id="&lt;Path&gt;" class="s0" d="m12.4 16.4c0 0-0.1 0.4-0.2 0.6-0.4 1.3-0.1 1.8 0 1.9 0.4 0.6 0.9 0.3 1.1-0.2 0-0.2 0.1-0.1 0.1 0q0 0.1-0.1 0.4c-0.2 0.7-0.5 0.9-0.8 1-0.5 0-0.7-0.6-0.8-0.9-0.1-1.4 0.4-2.6 0.5-2.9 0.2-0.3 0.3-0.2 0.2 0.1z"/>
		<path id="&lt;Compound Path&gt;" fill-rule="evenodd" class="s0" d="m43.1 18.8c-0.4 1.1-1.9 1.7-2.3 1.8-1.4 0.5-1.5-0.9-1.4-2 0.1-1 0.8-2.3 0.8-2.3 0 0-1.5-1.2-1.7-1.3-0.1-0.1-0.2-0.3-0.3-0.4-0.2-0.1-0.2-0.1-0.2-0.1 0 0 0.1-1.1 0.1-1.2 0-0.1 0-0.1 0.1 0 0.2 0 1.8 0.6 1.9 0.7 0.2 0.1 0.2 0.2 0.1 0.3-0.1 0-0.7 0.1-0.7 0.1l1.4 1c0 0 1.8-2.4 2-2.6 0.1-0.3 0.1-0.1 0.1 0.1-0.1 0.2-0.4 1.2-0.5 1.4-0.1 0.2-1 1.5-1 1.5 0 0 1.2 0.7 1.5 1.1 0.5 0.8 0.2 1.5 0.1 1.9zm-2.3-2.1c0 0-0.8 1.4-0.9 1.6-0.4 0.9 0.4 1 0.7 1 0.3 0 1.4-0.6 1.9-1 0.6-0.5-1.4-1.5-1.7-1.6z"/>
		<path id="&lt;Compound Path&gt;" fill-rule="evenodd" class="s0" d="m65.6 17.5c-0.1 0.2-0.4 1.3-1.9 1-0.3-0.1-1.1-0.3-1.4-1.1-0.4 0.5-1.2 1.9-2.9 1.7-0.4-0.1-1.6-0.6-1.6-2 0 0-1.4 1.1-2.1 1.4 0.1 0.6 0 1.2-0.2 1.9-0.3 0.6-3.3 4-5.7 4.6-0.9 0.2-4 0.7-4.1-2.8-0.1-0.7 0-1.3 0.1-1.6-2 1.5-4.3 2.6-5 2.9-1 0.5-4.6 1.1-5.2 1.2-0.4 0.1-0.5 0-0.3-0.1 0.3-0.2 8.3-2.9 12.4-7.2 0.1-0.2 0.1-0.3-0.1-0.5-0.1-0.3-1.4-2.7-1.5-3.1-0.1-0.3-0.3-0.7-0.3-0.8q-0.1-0.2-0.1-0.4c0-0.1 0.2-0.8 0.2-1 0-0.1 0.1 0 0.2 0.1 0.1 0.1 1.4 1.4 1.5 1.5 0.2 0.2 0.1 0.3 0 0.3-0.1 0-0.7 0-0.7 0 0 0 0.9 1.4 1.1 2 0.5 1.1 0.3 2.1 0.1 2.5-0.4 0.8-1.1 1.5-1.9 2.2-0.1 0.6-0.4 3.5 2.3 3.6 0.4 0 1.8 0.2 4.5-2.1 0.6-0.5 1.3-1.1 1.9-1.9 0.3-0.4 0.4-1 0-0.9-0.5 0-3.3 1.1-3.7-0.6-0.1-0.5 0.2-4.5 2.9-2.5 0.2 0.2 0.8 0.7 1.2 1.4 0.5-0.2 1.3-0.7 2.4-1.5 0.3-0.3 0.6-0.4 0.6 0 0 0.3-0.2 2.7 2.3 2 0.3-0.1 1.4-0.3 2.1-2.3 0.2-0.5 0.5-0.4 0.4 0-0.2 0.5-0.5 0.9-0.2 1.1 0.2 0.3 0.9 0.8 1.8 0.7 0.3-0.1 0.5-0.2 0.4-0.5-0.1-0.2-0.4-0.7-0.4-0.7 0.1-0.4 0.2-0.9 0.2-1 0-0.1 0.1-0.3 0.2-0.1 0.1 0.1 0.9 1.2 0.5 2.6zm-11.5 0.1c-0.9-1.2-1.9-0.5-2.1-0.4-0.1 0.1-0.2 0.5 0.7 0.5 1.1 0.1 1.4-0.1 1.4-0.1z"/>
		<path id="&lt;Path&gt;" class="s0" d="m13.5 11.5c0.1 0.2 0 0.7-0.1 0.9-0.1 0.2-0.2 0-0.3-0.1 0 0-0.2-0.2-0.3-0.3-0.6-0.5-0.8 0.5-0.9 0.9 0 0.3-0.1 1.4-0.1 2-0.1 0.2-0.2 0.2-0.3 0-0.4-1.3-1.1-1.9-1.3-2-0.1-0.1-0.2 0.1-0.2 0.1 0 0.1-0.1 0.1-0.2 0.1-0.1-0.1-0.5-0.3-0.6-0.5-0.2-0.1-0.1-0.6-0.1-0.8 0-0.4 0.3-0.5 0.4-0.4 1.5 0.8 1.9 2.3 2 2.5 0.1-1.1 0.1-2.1 0.7-2.8 0.5-0.6 1.2 0.3 1.3 0.4z"/>
		<path id="&lt;Path&gt;" class="s0" d="m41.5 10.2l1.2 0.8q0 0.1 0 0.1l-0.7 0.9q0 0.1-0.1 0.1l-1.1-0.8-0.5 0.7q-0.1 0.1-0.1 0.1l-1.1-0.9q-0.1 0-0.1-0.1l0.7-0.9q0 0 0.1 0l1.1 0.8 0.6-0.8q0 0 0 0z"/>
		<path id="&lt;Path&gt;" class="s0" d="m62.7 10.3c0 0-0.1 0.3-0.2 0.5-0.3 0.9-0.1 1.4-0.1 1.5 0.3 0.5 0.7 0.2 0.8-0.1 0.1-0.2 0.1-0.1 0.1 0q0 0 0 0.3c-0.2 0.6-0.5 0.7-0.7 0.7-0.3 0-0.5-0.5-0.5-0.7-0.1-1.1 0.4-2 0.5-2.3 0.1-0.3 0.2-0.1 0.1 0.1z"/>
		<path id="&lt;Path&gt;" class="s0" d="m51.5 9.7c0 0-0.1 0.3-0.2 0.5-0.4 1.1-0.2 1.6-0.1 1.7 0.3 0.5 0.7 0.2 0.8-0.2 0.1-0.2 0.1-0.1 0.1 0q0 0.1 0 0.4c-0.2 0.6-0.5 0.8-0.7 0.8-0.4-0.1-0.6-0.6-0.6-0.8-0.1-1.2 0.4-2.2 0.5-2.5 0.1-0.3 0.2-0.1 0.2 0.1z"/>
		<path id="&lt;Path&gt;" class="s0" d="m23.4 14.1c0.1 0.2 0 0.7-0.1 0.9-0.1 0.2-0.2 0-0.4-0.1 0 0-0.1-0.1-0.2-0.3-0.6-0.4-0.8 0.5-0.9 0.9 0 0.4-0.1 1.4-0.2 2 0 0.3-0.2 0.2-0.2 0.1-0.4-1.3-1.2-2-1.3-2.1-0.1-0.1-0.2 0.1-0.2 0.2-0.1 0-0.1 0-0.2 0-0.1 0-0.5-0.3-0.6-0.4-0.2-0.2-0.1-0.7-0.1-0.9 0-0.3 0.2-0.4 0.3-0.4 1.6 0.9 2 2.3 2.1 2.6 0.1-1.1 0.1-2.1 0.7-2.9 0.5-0.6 1.2 0.3 1.3 0.4z"/>
		<path id="&lt;Path&gt;" class="s0" d="m27.5 10.5l1.1 0.8q0.1 0 0 0.1l-0.6 0.9q-0.1 0-0.1 0l-1.1-0.8-0.6 0.8q0 0-0.1 0l-1.1-0.8q-0.1-0.1 0-0.1l0.6-0.9q0.1-0.1 0.1 0l1.1 0.8 0.6-0.8q0-0.1 0.1 0z"/>
		<path id="&lt;Path&gt;" class="s0" d="m29.1 5.9c0 0.1-0.1 0.2-0.2 0.4-0.1 0.2-0.2 0.3-0.5 0.4-0.1 0.1-9.4 4.1-10.2 4.5-0.9 0.5-0.8 0.8-0.6 0.9 0.6 0.2 0.9 0.6 0.5 1.3 0 0 0 0-0.1 0 0-0.1-0.2-0.3-0.5-0.4-0.4 0-0.5-0.7-0.4-1.3 0.1-0.5 0.4-0.9 0.8-1.1 0.6-0.5 10.7-4.7 10.9-4.9 0.4-0.2 0.4 0 0.3 0.2z"/>
		<path id="&lt;Path&gt;" class="s0" d="m50.5 5.1c-0.1 0.1-0.1 0.2-0.2 0.3-0.1 0.2-0.2 0.3-0.4 0.4-0.2 0.1-6.1 3.5-6.2 3.6-0.3 0.2-0.3 0.1-0.2 0q0-0.1 0-0.4c0.1-0.1 0.1-0.2 0.4-0.3 0.2-0.2 6.1-3.6 6.3-3.7 0.4-0.2 0.3 0 0.3 0.1z"/>
		<path id="&lt;Path&gt;" class="s0" d="m57.6 5.5c0.1 0.2 0 0.7-0.1 0.9 0 0.2-0.2 0-0.3-0.1 0 0-0.2-0.2-0.3-0.3-0.6-0.5-0.8 0.5-0.9 1 0 0.3-0.1 1.4-0.2 2 0 0.3-0.2 0.3-0.3 0.1-0.4-1.4-1.2-2-1.3-2.2-0.1-0.1-0.2 0.1-0.3 0.2 0 0.1-0.1 0.1-0.1 0-0.1 0-0.5-0.3-0.7-0.4-0.1-0.2-0.1-0.7-0.1-0.9 0-0.4 0.3-0.5 0.4-0.4 1.6 0.8 2.1 2.4 2.2 2.6 0.1-1.1 0.1-2.2 0.7-3 0.5-0.6 1.3 0.3 1.3 0.5z"/>
		<path id="&lt;Compound Path&gt;" fill-rule="evenodd" class="s0" d="m63.4 7.9c0 0.2-0.1 0.1-0.2-0.1-0.1-0.1-0.3-0.3-0.5-0.4-0.2 0.6-0.2 0.6-1.2 1.5-2.2 1.8-4.5 2.5-4.6 2.5-0.2 0.1-0.2 0 0-0.2 0.7-0.6 3.9-2 5.4-3.9 0 0-0.5-0.2-0.8-0.5-0.3-0.2-0.2-1.1 0.1-1.4 0.6-1 1.1-0.5 1.2-0.4 0.5 0.9 0.3 1.8 0.3 1.8 0.2 0.2 0.5 0.6 0.3 1.1zm-1-2.3c-0.1-0.1-0.3-0.1-0.6 0.4-0.1 0.1 0 0.2 0.2 0.3 0.2 0.1 0.7 0.3 0.7 0.3 0-0.1 0.1-0.7-0.3-1z"/>
		<path id="&lt;Path&gt;" class="s0" d="m20.4 4.9c0 0-0.1 0.2-0.1 0.4-0.3 1-0.2 1.4-0.1 1.5 0.2 0.5 0.6 0.2 0.7-0.1 0.1-0.2 0.1-0.1 0.1 0q0 0 0 0.2c-0.2 0.6-0.4 0.8-0.6 0.8-0.4 0-0.5-0.5-0.6-0.8 0-1 0.4-1.9 0.5-2.1 0.1-0.3 0.2-0.2 0.1 0.1z"/>
		<path id="&lt;Compound Path&gt;" fill-rule="evenodd" class="s0" d="m41.2 7.6c0 0.2-0.1 0.1-0.2-0.1-0.1-0.1-0.4-0.4-0.4-0.4 0 0-0.5 1-1.3 1.6-1.5 1.1-2.7 1.3-2.8 1.3-0.1 0.1-0.2 0 0.1-0.2 0.9-0.5 2-0.9 3.6-2.8 0 0-0.5-0.2-0.9-0.5-0.3-0.2-0.1-1.1 0.1-1.5 0.6-0.9 1.1-0.4 1.2-0.3 0.6 0.9 0.3 1.8 0.3 1.8 0.3 0.2 0.5 0.5 0.3 1.1zm-1-2.3c-0.1-0.1-0.2-0.1-0.6 0.3-0.1 0.2 0.1 0.3 0.3 0.4 0.2 0.1 0.6 0.3 0.6 0.3 0-0.1 0.1-0.7-0.3-1z"/>
		<path id="&lt;Path&gt;" class="s0" d="m34.1 4.5c0.1 0.1 1.3 3.5 1.4 3.7 0 0.2-0.1 0.2-0.2 0.1-0.1-0.1-0.8-0.8-0.8-0.8 0 0 0.9 9.1 0.9 9.3 0.2 1.8 0.2 3.1 0.1 4-0.1 1.1-0.3 1.5-0.4 1.6-0.1 0.2-0.2 0.1-0.1-0.1 0-0.7-0.1-1.9-0.2-3.2-0.2-2.7-1.1-11.4-1.2-12.9 0-0.1-0.1-0.6-0.1-0.6 0 0 0.4-1 0.5-1.1 0.1-0.2 0.1-0.1 0.1 0z"/>
		<path id="&lt;Compound Path&gt;" fill-rule="evenodd" class="s0" d="m32.1 18.4c-0.2 1.1-1.2 1.5-1.5 1.6-2.5 1.1-3.6-0.4-3.8-0.7q-0.3-0.3-0.4-0.6-0.2 0.1-0.3 0.1c-2.9 1.6-5.2 1.7-6 1.7-3.4-0.1-4.4-2.7-4.4-2.7 0 2.3 1 2.9 1.2 3.1 0.3 0.2 2.1 1.3 2.1 1.3 0.1 0.2 0 1.1-0.1 1.5-2.7-2.2-6.2-0.3-7 0.1-0.7 0.4-3.3 2.3-4.6 2.5-1.7 0.3-2.4-1.2-2.3-2.5 0.1-0.6 0.2-1.5 0.7-2.3 0.4-0.8 1.1-1.7 1.4-1.9q0.1-0.1 0.2-0.2c-0.3-0.3-0.4-0.7-0.4-1-0.3-2.1 0.4-4 0.5-4.5 0.2-0.5 0.4-0.3 0.3 0.1 0 0-0.2 0.6-0.3 1-0.4 1.9-0.1 2.8 0 3 0.6 1 1.2 0.4 1.4-0.3 0-0.4 0.2-0.2 0.1-0.1q0 0.2 0 0.6c-0.3 1.2-0.7 1.5-1 1.6q-0.3 0-0.4-0.2 0 0.1-0.2 0.3c-0.8 0.8-1.3 1.7-1.6 2.4-0.6 1.5-0.2 2.1 0 2.3 0.6 0.7 1.6 0.4 2 0.3 0.4-0.2 3.1-1.8 3.7-2.1 1.6-1.1 3.9-1.5 4.2-1.6-0.4-0.6-0.5-4.9-0.5-5.5 0-0.6-0.5-8.3-0.6-8.8 0-0.5 0.1-1.4 0.3-1.7 0.2-0.4 0.3-0.2 0.3 0 0.1 0.3 0.4 3.5 0.4 3.5 0 0 0.5 6 0.6 6.7 0.4 2.7 2 3.1 2.7 3.4 2.7 1 6.6-0.9 6.9-1.1q0.1 0 0.2-0.1c-0.5-1.3-0.3-2.5-0.1-3.1 0.2-0.9 0.6-1.3 1.2-1.4 0.6-0.1 0.8 0.1 1.1 0.5 0.9 1.6 0.6 2.2 0.4 2.8-0.1 0.5-0.7 1.2-1.4 1.7 0.6 0.7 1.3 0.8 1.6 0.8 1.2 0.2 2.5-0.6 2.7-0.8 0.2-0.1 0.2-0.3 0.2-0.7 0-0.4-1-8.6-1.1-9.3 0-0.7-0.1-1.4-0.2-1.9 0-0.5-0.1-0.7-0.1-0.8 0 0 0.5-1 0.5-1.1 0.1-0.1 0.1 0 0.2 0.1 0 0.1 1.1 3.1 1.1 3.3 0.1 0.1 0 0.2-0.1 0.1-0.1-0.1-0.8-0.8-0.8-0.8l1.1 8.5c0.1 1-0.1 2.4-0.1 2.9zm-4.1-2.3c0.1-0.2 0-0.4-0.2-0.8-0.2-0.4-0.3-0.7-0.7-0.8-0.4-0.1-0.7 0.3-0.8 0.5-0.2 0.2-0.1 0.9 0.1 1.5q0.1 0.4 0.2 0.7c0.8-0.5 1.3-1.1 1.4-1.1z"/>
		<path id="&lt;Path&gt;" class="s0" d="m16.3 3.2c0 0.2 0 0.2-0.1 0.4-0.1 0.3-0.3 0.3-0.5 0.5-0.2 0.1-8.8 4-9.5 4.4-0.9 0.5-0.8 0.8-0.6 0.9 0.6 0.2 0.8 0.6 0.5 1.3-0.1 0-0.1 0-0.1 0-0.1-0.1-0.3-0.3-0.6-0.3-0.4-0.1-0.5-0.8-0.3-1.4 0.1-0.5 0.4-0.9 0.7-1.1 0.7-0.5 10-4.7 10.2-4.8 0.5-0.2 0.4 0 0.3 0.1z"/>
	</g>
</svg>