<svg version="1.2" xmlns="http://www.w3.org/2000/svg" viewBox="0 0 70 30" width="70" height="30">
	<title>New Project</title>
	<style>
		.s0 { fill: #191c4f } 
	</style>
	<g id="الحاقة">
		<path id="&lt;Path&gt;" class="s0" d="m14.8 22.4c0 0.1-0.1 0.1-0.2 0.3 0 0.2-0.1 0.2-0.3 0.3-0.3 0.1-4.1 1.4-4.3 1.5-0.3 0.1-0.3 0-0.2-0.1q0 0 0.1-0.3c0-0.2 0.1-0.2 0.3-0.3 0.3-0.1 4.1-1.4 4.4-1.5 0.3-0.1 0.2 0 0.2 0.1z"/>
		<path id="&lt;Path&gt;" class="s0" d="m35.7 21c0 0-0.1 0.3-0.2 0.5-0.3 1-0.1 1.5-0.1 1.6 0.3 0.6 0.7 0.3 0.8-0.1 0.1-0.2 0.2-0.1 0.1 0q0 0.1 0 0.3c-0.2 0.6-0.5 0.8-0.7 0.8-0.4 0-0.6-0.5-0.6-0.8 0-1.1 0.4-2.1 0.6-2.4 0.1-0.3 0.2-0.1 0.1 0.1z"/>
		<path id="&lt;Path&gt;" class="s0" d="m20.8 20.5c0 0-0.1 0.3-0.2 0.5-0.3 1.1-0.1 1.6-0.1 1.7 0.3 0.5 0.7 0.2 0.8-0.2 0.1-0.2 0.2-0.1 0.2 0q-0.1 0.1-0.1 0.3c-0.2 0.7-0.5 0.8-0.7 0.8-0.4 0-0.5-0.5-0.5-0.8-0.1-1.1 0.4-2.1 0.5-2.3 0.1-0.3 0.2-0.2 0.1 0z"/>
		<path id="&lt;Path&gt;" class="s0" d="m64 19.7c0 0 0.1 0.3 0.1 0.6 0 0.2-0.2 0.5-0.3 0.8-0.1 0.4-0.8 0.5-1.2 0.2-0.8 1.2-1.5 0.6-1.8 0.4-0.7-0.2-0.9 0.2-1.1 0.4-0.9 1-2.5 0.9-2.8 1-0.4 0-0.1-0.2 0.1-0.3 1.2-0.4 2-0.5 3.1-1.5 0.5-0.5 0.8-0.3 1-0.2 1 0.4 1.2 0 1.3-0.2 0.1-0.1 0.3-0.6 0.4-0.8 0.1-0.2 0.2 0 0.1 0.1 0 0.1 0 0.3-0.1 0.4 0.5 0.3 0.9 0 1 0 0 0 0-0.4-0.1-0.5q0-0.1 0.2-0.5c0.1-0.3 0.1 0 0.1 0.1z"/>
		<path id="&lt;Compound Path&gt;" fill-rule="evenodd" class="s0" d="m20 18.9c-0.1 1.8-3 2.2-3.4 2.3-3.1 0.5-3.9-1.7-4.2-2.4-0.1-0.3-0.3-0.3-0.5-0.3-0.3 0.1-0.9 0.5-1 0.5-1.3 1-2 3.7-2.1 3.9-0.3 0.9-1 0.9-1.2 0.8-2.8-0.9-2.2-5.2-2.1-5.5 0.2-0.3 0.3 0 0.2 0.2-0.3 2.6 1.1 3.7 1.4 3.9 0.9 0.7 1.4-0.2 1.5-0.5 0.1-0.2 0.9-2.2 1-2.5 0.7-1.3 1.7-1.8 2.3-2 0.6-0.2 0.8 0.3 0.9 0.5 0.6 1.6 1.8 2 2.1 2.1 2.1 0.5 4.3-0.8 4.5-1 0.2-0.2 0.1-0.2 0.1-0.4-0.3-0.8-1.3-0.7-1.5-0.6-0.9 0.1-1.6-0.1-1.7-0.3-0.9-1.1 0.1-2.5 0.2-2.7 1-0.7 2-0.3 2.7 0.8 0.3 0.3 0.9 1.5 0.8 3.2zm-1.3-2.2c-0.5-0.9-1.3-1-1.7-0.8-0.3 0.2-0.5 0.6 0 0.8 0.4 0.1 0.7 0 1 0 0.3-0.1 0.7 0 0.7 0z"/>
		<path id="&lt;Path&gt;" class="s0" d="m11.6 14l1.1 0.8q0 0 0 0l-0.6 0.9q-0.1 0-0.1 0l-1-0.7-0.6 0.7q0 0-0.1 0l-1-0.8q0 0 0 0l0.6-0.9q0 0 0.1 0l1 0.7 0.5-0.7q0.1 0 0.1 0z"/>
		<path id="&lt;Compound Path&gt;" fill-rule="evenodd" class="s0" d="m44.8 18.3c-0.4 1-1.8 1.6-2.2 1.7-1.3 0.4-1.4-0.9-1.3-1.9 0.1-0.9 0.8-2.1 0.8-2.1-0.1-0.1-1.5-1.1-1.6-1.2-0.1-0.2-0.2-0.3-0.3-0.4-0.2-0.1-0.1-0.1-0.1-0.1 0 0 0-1 0-1.1 0-0.1 0-0.1 0.2 0 0.1 0 1.6 0.6 1.7 0.7 0.2 0.1 0.1 0.2 0 0.2-0.1 0-0.6 0.1-0.6 0.1l1.3 0.9c0 0 1.7-2.2 1.8-2.4 0.2-0.2 0.2-0.1 0.1 0.1 0 0.2-0.3 1.2-0.4 1.3-0.1 0.2-0.9 1.4-0.9 1.4 0 0 1.1 0.7 1.4 1.1 0.5 0.6 0.2 1.3 0.1 1.7zm-2.2-2c0 0-0.7 1.3-0.9 1.6-0.3 0.7 0.5 0.9 0.8 0.9 0.2-0.1 1.3-0.6 1.7-1 0.5-0.4-1.3-1.3-1.6-1.5z"/>
		<path id="&lt;Path&gt;" class="s0" d="m18.1 11.9l1.1 0.8q0 0 0 0.1l-0.6 0.8q-0.1 0-0.1 0l-1-0.7-0.6 0.7q0 0 0 0l-1.1-0.7q0-0.1 0-0.1l0.6-0.9q0 0 0.1 0l1 0.8 0.5-0.8q0.1 0 0.1 0z"/>
		<path id="&lt;Path&gt;" class="s0" d="m5.7 12.2c0 0-0.1 0.4-0.1 0.8-0.5 1.6-0.1 2.4-0.1 2.6 0.5 0.8 1 0.3 1.2-0.3 0-0.4 0.1-0.2 0.1-0.1q0 0.2 0 0.6c-0.2 1-0.6 1.2-0.9 1.3-0.5 0-0.8-0.8-0.9-1.2-0.2-1.8 0.4-3.4 0.5-3.9 0.2-0.4 0.3-0.2 0.2 0.2z"/>
		<path id="&lt;Compound Path&gt;" fill-rule="evenodd" class="s0" d="m65.6 17.1c-0.1 0.2-0.3 1.2-1.7 0.9-0.4-0.1-1.1-0.2-1.4-1-0.3 0.4-1.1 1.8-2.7 1.5-0.3 0-1.4-0.4-1.5-1.8 0 0-1.3 1-1.9 1.3 0.1 0.5 0.1 1.1-0.2 1.7-0.2 0.7-3 3.8-5.3 4.3-0.7 0.2-3.6 0.7-3.8-2.5q0-1 0.1-1.6c-1.8 1.4-3.9 2.5-4.6 2.8-0.9 0.4-4.2 1-4.8 1.1-0.4 0.1-0.5 0-0.2-0.2 0.2-0.1 7.6-2.6 11.4-6.6q0.2-0.2 0-0.5c-0.1-0.2-1.3-2.5-1.4-2.8-0.2-0.3-0.3-0.7-0.4-0.8q-0.1-0.2 0-0.4c0-0.1 0.1-0.7 0.2-0.8 0-0.2 0.1-0.1 0.1 0 0.1 0.1 1.3 1.3 1.5 1.4 0.1 0.2 0 0.3-0.1 0.3 0 0-0.6-0.1-0.6-0.1 0 0 0.8 1.4 1 1.9 0.5 1.1 0.2 2 0.1 2.4-0.4 0.7-1 1.4-1.8 2-0.1 0.6-0.3 3.2 2.1 3.3 0.4 0 1.7 0.2 4.2-1.9 0.6-0.5 1.3-1 1.8-1.8 0.2-0.3 0.4-0.9 0-0.8-0.4 0-3 1-3.4-0.6-0.1-0.4 0.1-4.2 2.7-2.3 0.2 0.2 0.7 0.6 1.1 1.3 0.4-0.2 1.2-0.6 2.2-1.4 0.3-0.3 0.5-0.4 0.5 0 0 0.3-0.2 2.5 2.2 1.8 0.2 0 1.2-0.2 1.9-2.1 0.2-0.4 0.5-0.4 0.4 0-0.2 0.5-0.5 0.9-0.2 1.1 0.2 0.2 0.9 0.7 1.7 0.6 0.3-0.1 0.4-0.2 0.3-0.4-0.1-0.3-0.3-0.7-0.3-0.7 0-0.3 0.1-0.8 0.2-0.9 0-0.2 0.1-0.3 0.2-0.2 0.1 0.1 0.8 1.1 0.4 2.5zm-10.6 0.1c-0.8-1.1-1.8-0.5-2-0.4-0.1 0.1-0.1 0.5 0.7 0.5 0.9 0.1 1.3-0.1 1.3-0.1z"/>
		<path id="&lt;Path&gt;" class="s0" d="m43.3 10.3l1.1 0.8q0 0 0 0.1l-0.6 0.8q-0.1 0.1-0.1 0l-1-0.7-0.6 0.7q0 0.1 0 0l-1.1-0.7q0-0.1 0-0.1l0.6-0.9q0.1 0 0.1 0l1 0.8 0.5-0.8q0.1 0 0.1 0z"/>
		<path id="&lt;Path&gt;" class="s0" d="m62.9 10.4c0 0-0.1 0.3-0.1 0.4-0.3 0.9-0.2 1.4-0.1 1.5 0.2 0.4 0.6 0.2 0.7-0.2 0.1-0.1 0.1 0 0.1 0q0 0.1-0.1 0.3c-0.1 0.6-0.4 0.7-0.5 0.7-0.4 0-0.5-0.5-0.6-0.7 0-1 0.4-1.8 0.5-2.1 0.1-0.2 0.2-0.1 0.1 0.1z"/>
		<path id="&lt;Path&gt;" class="s0" d="m52.5 9.8c0 0-0.1 0.3-0.2 0.5-0.3 1-0.1 1.5-0.1 1.6 0.3 0.5 0.7 0.2 0.8-0.2 0.1-0.2 0.1-0.1 0.1 0q0 0.1 0 0.3c-0.2 0.6-0.5 0.8-0.7 0.8-0.3 0-0.5-0.5-0.5-0.8-0.1-1 0.4-2 0.5-2.2 0.1-0.3 0.2-0.2 0.1 0z"/>
		<path id="&lt;Path&gt;" class="s0" d="m17.6 8.4c0 0 0.1 0.5 0.3 0.8 0.2 0.2 0.3 0.5 0.2 1-0.1 0.4-0.3 0.7-0.5 0.8-0.3 0.1-0.7 0.1-1-0.4-0.4 0.8-0.9 0.9-1.3 0.8-0.3-0.2-0.3-0.8-0.3-1 0-0.2 0-0.8 0-0.9-0.1-0.1 0-0.2 0.1-0.4 0.1-0.1 0.1-0.1 0.1 0.1 0 0.2-0.1 1 0.1 1.3 0.3 0.5 1 0 1.1-0.2 0.1-0.2-0.1-1.1-0.2-1.2q0 0 0-0.1c0 0 0-0.3 0.1-0.4q0.1-0.2 0.2 0c0.1 0.1 0.1 0.3 0.2 1.1 0.1 0.8 0.9 0.7 1 0.6 0.2-0.1 0.2-0.2 0.1-0.3 0-0.1-0.3-0.7-0.4-1-0.1-0.3-0.1-0.5 0-0.7 0.1-0.3 0.1-0.1 0.2 0.1z"/>
		<path id="&lt;Path&gt;" class="s0" d="m10.2 6.7c0.1 0.2 0 0.6-0.1 0.8 0 0.2-0.2 0.1-0.3-0.1 0 0-0.1-0.1-0.2-0.2-0.6-0.5-0.8 0.4-0.8 0.8-0.1 0.3-0.1 1.3-0.2 1.8 0 0.3-0.2 0.2-0.2 0.1-0.4-1.2-1.1-1.8-1.2-1.9-0.1-0.1-0.2 0-0.2 0.1 0 0.1-0.1 0.1-0.2 0.1 0-0.1-0.4-0.3-0.6-0.5-0.1-0.1-0.1-0.5 0-0.7 0-0.4 0.2-0.5 0.3-0.4 1.4 0.8 1.8 2.1 1.9 2.4 0.1-1.1 0.1-2 0.7-2.7 0.4-0.5 1.1 0.3 1.1 0.4z"/>
		<path id="&lt;Path&gt;" class="s0" d="m26.2 16.5c0 0-0.1 0.3-0.2 0.5-0.4 1.1-0.2 1.6-0.1 1.7 0.3 0.5 0.7 0.2 0.8-0.2 0.1-0.2 0.1-0.1 0.1 0q0 0.1-0.1 0.3c-0.1 0.7-0.4 0.8-0.6 0.8-0.4 0-0.6-0.5-0.6-0.8-0.1-1.1 0.4-2.1 0.5-2.3 0.1-0.3 0.2-0.2 0.2 0z"/>
		<path id="&lt;Path&gt;" class="s0" d="m30.7 11.5c0 0.1-0.1 0.2-0.1 0.4-0.1 0.2-0.3 0.2-0.5 0.4-0.2 0.1-6 3-6.1 3-0.4 0.3-0.4 0.1-0.3 0q0 0 0-0.4c0.1-0.2 0.2-0.2 0.4-0.4 0.3-0.2 6-3 6.3-3.1 0.4-0.3 0.4-0.1 0.3 0.1z"/>
		<path id="&lt;Path&gt;" class="s0" d="m35.9 5.6c0.1 0.1 1.3 3.2 1.4 3.4 0 0.1-0.1 0.2-0.2 0.1-0.1-0.1-0.7-0.7-0.7-0.7 0 0 1.1 8.3 1.2 8.6q0.1 0.6 0.1 1.2c1.5 0.1 2.8 0.2 3.1 0.2 0 0-0.4 1-0.6 1.3-0.8-0.2-1.6-0.2-2.4-0.1q0 0.6 0 1c0 1-0.2 1.4-0.3 1.5-0.1 0.2-0.1 0.1-0.1-0.1 0-0.5-0.1-1.3-0.2-2.3-1.4 0.4-2.7 1-3.2 1.3-3.3 1.6-5.7 2.1-6.5 2.1-3.9 0.5-4.9-1.9-5.2-2.8-0.4-1.3-0.8-5.4-0.9-6.3-0.3-2.3-1-6.8-1.1-7-0.1-0.3-0.1-0.4 0-0.6 0.1-0.2 0.1-0.5 0.2-0.7 0.1-0.2 0.2-0.3 0.3 0.1 0.4 1.1 0.9 4.2 1 5.2 0.1 0.9 0.7 6.4 0.8 7 0.5 3.9 3.6 3.9 4.2 3.9 3 0.1 7.6-2.2 8.1-2.5-5.5-1.1-6.1-0.6-6.2-0.6-0.1 0.1-0.3 0-0.2-0.2 0.1-0.2 0.3-0.7 0.4-0.8 0.1-0.2 0.2-0.2 0.4-0.3 0.7-0.1 3.2-0.3 3.2-0.4 0.2-0.5-0.4-3.6-0.4-3.6-0.4-2.2-1-5.7-1-6.2-0.1-0.4-0.2-0.7-0.2-0.7 0 0 0.4-0.9 0.5-1.1 0-0.1 0 0 0.1 0.1 0 0.1 1.3 3.2 1.4 3.4 0 0.1-0.1 0.2-0.2 0.1-0.1-0.1-0.7-0.7-0.7-0.7 0 0 1.1 6.5 1.2 7.3 0.2 0.9-0.1 1.7-0.3 2 0.5 0.1 2.3 0.3 4.1 0.4-0.5-3.1-1.4-9.7-1.5-10.9 0-0.1-0.1-0.5-0.2-0.6 0 0 0.4-0.9 0.5-1.1 0-0.1 0.1 0 0.1 0.1z"/>
		<path id="&lt;Path&gt;" class="s0" d="m51.6 5.6c-0.1 0.1-0.1 0.1-0.1 0.3-0.1 0.2-0.2 0.2-0.4 0.3-0.2 0.2-5.7 3.3-5.8 3.4-0.3 0.2-0.2 0.1-0.2-0.1q0 0 0.1-0.3c0-0.1 0.1-0.2 0.3-0.3 0.2-0.1 5.6-3.3 5.8-3.4 0.4-0.2 0.3-0.1 0.3 0.1z"/>
		<path id="&lt;Path&gt;" class="s0" d="m28.4 6c0.1 0.2 0 0.6-0.1 0.9-0.1 0.1-0.2 0-0.3-0.2 0 0-0.1-0.1-0.3-0.2-0.5-0.5-0.7 0.4-0.8 0.8 0 0.4-0.1 1.4-0.2 2q0 0 0 0.1c-0.1 0.4-0.2 1.1-1 1.6-1.1 0.7-1.2 0.7-1.2 0.7-0.1 0.1-0.2 0 0-0.1 0.1-0.1 2.1-1.7 1.9-2.6-0.2-0.9-1-1.6-1.1-1.7-0.1-0.1-0.2 0.1-0.3 0.2 0 0.1 0 0.1-0.1 0-0.1 0-0.5-0.3-0.6-0.4-0.2-0.2-0.1-0.6-0.1-0.8 0-0.4 0.2-0.5 0.3-0.4 1.5 0.8 1.9 2.2 2 2.5 0.1-1.1 0.1-2.1 0.7-2.8 0.5-0.6 1.1 0.3 1.2 0.4z"/>
		<path id="&lt;Path&gt;" class="s0" d="m58.2 5.9c0.1 0.2 0 0.7-0.1 0.9 0 0.2-0.2 0-0.3-0.1 0 0-0.1-0.2-0.3-0.3-0.5-0.4-0.7 0.5-0.8 0.9 0 0.3-0.1 1.3-0.2 1.9 0 0.3-0.2 0.2-0.2 0.1-0.4-1.3-1.1-1.9-1.2-2-0.2-0.1-0.3 0-0.3 0.1 0 0.1-0.1 0.1-0.1 0.1-0.1-0.1-0.5-0.3-0.7-0.5-0.1-0.1-0.1-0.6 0-0.8 0-0.3 0.2-0.4 0.3-0.4 1.5 0.8 1.9 2.3 2 2.5 0.1-1.1 0.1-2 0.7-2.8 0.5-0.6 1.2 0.3 1.2 0.4z"/>
		<path id="&lt;Compound Path&gt;" fill-rule="evenodd" class="s0" d="m63.6 8.2c-0.1 0.2-0.1 0.1-0.2-0.1-0.1-0.1-0.3-0.2-0.5-0.3-0.2 0.4-0.2 0.5-1.1 1.3-2 1.7-4.2 2.3-4.3 2.3-0.1 0.1-0.2 0 0-0.2 0.7-0.5 3.6-1.8 5.1-3.6 0 0-0.5-0.2-0.8-0.4-0.3-0.2-0.1-1 0.1-1.4 0.5-0.8 1-0.4 1.1-0.3 0.5 0.9 0.2 1.7 0.2 1.7 0.3 0.2 0.6 0.5 0.4 1zm-1-2.1c-0.1-0.1-0.2-0.1-0.5 0.3-0.1 0.1 0 0.2 0.2 0.3 0.2 0.1 0.6 0.3 0.6 0.3 0-0.1 0.1-0.6-0.3-0.9z"/>
		<path id="&lt;Path&gt;" class="s0" d="m19.2 5.4c0 0.1-0.1 0.2-0.1 0.4-0.1 0.2-0.2 0.2-0.4 0.3-0.2 0.1-6.8 3.2-7.5 3.6-0.7 0.4-0.6 0.7-0.4 0.8 0.5 0.1 0.7 0.5 0.4 1 0 0.1 0 0.1-0.1 0 0 0-0.2-0.2-0.4-0.2-0.4-0.1-0.5-0.7-0.4-1.2 0.1-0.4 0.4-0.7 0.6-0.9 0.6-0.5 7.8-3.8 8-3.9 0.4-0.2 0.4-0.1 0.3 0.1z"/>
		<path id="&lt;Compound Path&gt;" fill-rule="evenodd" class="s0" d="m43 7.9c0 0.2-0.1 0.1-0.2-0.1 0 0-0.4-0.3-0.4-0.3 0 0-0.4 0.9-1.2 1.5-1.3 1-2.5 1.2-2.5 1.2-0.2 0-0.2-0.1 0-0.2 0.9-0.5 1.9-0.9 3.3-2.7 0 0-0.4-0.2-0.7-0.4-0.4-0.2-0.2-1 0-1.4 0.6-0.8 1.1-0.4 1.2-0.3 0.5 0.9 0.2 1.7 0.2 1.7 0.3 0.2 0.5 0.5 0.3 1zm-0.9-2.1c-0.1-0.1-0.3-0.1-0.6 0.3 0 0.1 0.1 0.2 0.3 0.3 0.1 0.1 0.6 0.3 0.6 0.3 0-0.1 0-0.6-0.3-0.9z"/>
	</g>
</svg>