<svg version="1.2" xmlns="http://www.w3.org/2000/svg" viewBox="0 0 70 30" width="70" height="30">
	<title>New Project</title>
	<style>
		.s0 { fill: #191c4f } 
	</style>
	<g id="المعارج">
		<path id="&lt;Path&gt;" class="s0" d="m27.9 20.7c0 0-0.1 0.3-0.2 0.5-0.4 1-0.2 1.5-0.2 1.6 0.3 0.5 0.7 0.3 0.9-0.1 0-0.2 0.1-0.1 0.1 0q-0.1 0.1-0.1 0.3c-0.2 0.6-0.5 0.8-0.7 0.8-0.4-0.1-0.5-0.6-0.5-0.8-0.1-1.2 0.4-2.1 0.6-2.4 0.1-0.3 0.2-0.1 0.1 0.1z"/>
		<path id="&lt;Path&gt;" class="s0" d="m34.4 20.4c0 0-0.1 0.3-0.2 0.5-0.3 0.9-0.1 1.3-0.1 1.4 0.3 0.5 0.6 0.2 0.8-0.1 0-0.2 0.1-0.1 0.1 0q-0.1 0.1-0.1 0.3c-0.2 0.5-0.4 0.6-0.6 0.6-0.3 0-0.5-0.4-0.5-0.6-0.1-1 0.4-1.9 0.5-2.1 0.1-0.3 0.2-0.2 0.1 0z"/>
		<path id="&lt;Path&gt;" class="s0" d="m64 19.9c0 0 0 0.3 0 0.5 0 0.3-0.1 0.6-0.2 0.9-0.1 0.4-0.8 0.5-1.2 0.2-0.8 1.2-1.5 0.6-1.9 0.4-0.7-0.2-0.9 0.2-1.1 0.4-0.9 1-2.5 1-2.8 1-0.4 0-0.1-0.2 0.1-0.3 1.2-0.4 2-0.5 3.1-1.6 0.5-0.5 0.8-0.2 1-0.2 1.1 0.5 1.2 0.1 1.4-0.1 0.1-0.1 0.3-0.7 0.4-0.8 0-0.2 0.1-0.1 0.1 0.1 0 0.1-0.1 0.3-0.1 0.4 0.4 0.3 0.9 0 1-0.1 0 0-0.1-0.3-0.1-0.4q0-0.1 0.1-0.6c0.1-0.2 0.2 0 0.2 0.2z"/>
		<path id="&lt;Path&gt;" class="s0" d="m19.8 19.7c0 0.2 0 0.2-0.1 0.4-0.1 0.2-0.2 0.2-0.4 0.3-0.1 0.2-3.4 1.8-3.5 1.8-0.4 0.2-0.3 0.1-0.3 0q0-0.1 0.1-0.3c0-0.2 0.1-0.2 0.3-0.4 0.2-0.1 3.5-1.7 3.7-1.8 0.3-0.2 0.3-0.1 0.2 0z"/>
		<path id="&lt;Path&gt;" class="s0" d="m15.9 15.5c-0.1 0.1-0.1 0.1-0.2 0.3 0 0.2-0.2 0.2-0.3 0.3-0.2 0.2-6.5 3.6-6.6 3.7-0.3 0.2-0.3 0.1-0.3 0q0-0.1 0.1-0.3c0-0.2 0.1-0.2 0.3-0.4 0.2-0.1 6.5-3.6 6.7-3.7 0.3-0.2 0.3-0.1 0.3 0.1z"/>
		<path id="&lt;Path&gt;" class="s0" d="m9.1 14.3c0 0-0.1 0.3-0.2 0.4-0.3 0.9-0.1 1.3-0.1 1.4 0.3 0.5 0.6 0.2 0.7-0.1 0.1-0.2 0.1-0.1 0.1 0q0 0.1 0 0.3c-0.2 0.5-0.4 0.6-0.6 0.6-0.3 0-0.5-0.4-0.5-0.6-0.1-1 0.3-1.8 0.4-2.1 0.1-0.2 0.2-0.1 0.2 0.1z"/>
		<path id="&lt;Path&gt;" class="s0" d="m11.6 13.8l1.1 0.7q0.1 0.1 0 0.1l-0.6 0.9q0 0-0.1 0l-1-0.8q-0.1 0-0.1-0.1l0.7-0.8q0-0.1 0 0z"/>
		<path id="&lt;Compound Path&gt;" fill-rule="evenodd" class="s0" d="m44.5 18.4c-0.3 1.1-1.8 1.6-2.1 1.7-1.4 0.5-1.5-0.9-1.4-1.8 0.1-1 0.8-2.2 0.8-2.2-0.1 0-1.4-1.1-1.6-1.2-0.1-0.1-0.2-0.3-0.3-0.4-0.1-0.1-0.1-0.1-0.1-0.1 0 0 0-1 0-1.1 0-0.2 0.1-0.1 0.2-0.1 0.1 0.1 1.6 0.7 1.7 0.8 0.2 0.1 0.1 0.2 0.1 0.2-0.1 0-0.6 0.1-0.6 0.1l1.2 0.9c0 0 1.7-2.2 1.9-2.4 0.2-0.2 0.1-0.1 0.1 0.1 0 0.2-0.4 1.2-0.4 1.3-0.1 0.2-1 1.4-1 1.4 0 0 1.1 0.7 1.4 1.1 0.5 0.7 0.2 1.4 0.1 1.7zm-2.2-1.9c0 0-0.7 1.3-0.8 1.5-0.4 0.8 0.4 0.9 0.7 0.9 0.3 0 1.3-0.6 1.8-1 0.5-0.4-1.4-1.3-1.7-1.4z"/>
		<path id="&lt;Compound Path&gt;" fill-rule="evenodd" class="s0" d="m65.6 17.2c-0.1 0.2-0.3 1.2-1.7 0.9-0.4 0-1.1-0.2-1.4-0.9-0.3 0.4-1.1 1.7-2.7 1.5-0.4-0.1-1.5-0.5-1.5-1.9 0 0-1.4 1.1-2 1.4 0.1 0.5 0.1 1.1-0.2 1.7-0.2 0.6-3 3.8-5.3 4.3-0.8 0.2-3.7 0.7-3.9-2.5 0-0.7 0.1-1.2 0.1-1.6-1.8 1.4-4 2.5-4.6 2.8-1 0.4-4.3 1-4.9 1.1-0.4 0.1-0.5 0-0.3-0.2 0.3-0.1 7.7-2.6 11.6-6.7q0.2-0.2 0-0.5c-0.1-0.2-1.3-2.5-1.5-2.8-0.1-0.3-0.2-0.7-0.3-0.8q-0.1-0.2 0-0.4c0-0.1 0.1-0.7 0.1-0.9 0.1-0.1 0.1 0 0.2 0.1 0.1 0.1 1.3 1.3 1.5 1.4 0.1 0.2 0 0.3-0.1 0.3 0 0-0.6-0.1-0.6-0.1 0 0 0.8 1.4 1 1.9 0.5 1.1 0.2 2 0.1 2.4-0.4 0.7-1 1.4-1.8 2-0.1 0.6-0.4 3.3 2.2 3.4 0.3 0 1.6 0.2 4.2-1.9 0.6-0.5 1.2-1.1 1.8-1.9 0.2-0.3 0.4-0.8 0-0.8-0.5 0.1-3.1 1-3.5-0.6-0.1-0.4 0.2-4.2 2.7-2.3 0.3 0.2 0.8 0.6 1.2 1.4 0.4-0.2 1.2-0.7 2.2-1.5 0.3-0.2 0.6-0.4 0.6 0 0 0.3-0.3 2.5 2.1 1.9 0.3-0.1 1.3-0.3 2-2.2 0.2-0.4 0.5-0.4 0.3 0-0.1 0.5-0.4 0.9-0.2 1.1 0.3 0.2 0.9 0.7 1.8 0.6 0.3 0 0.4-0.2 0.3-0.4-0.1-0.2-0.4-0.7-0.4-0.7 0.1-0.3 0.2-0.8 0.3-0.9 0-0.2 0-0.3 0.1-0.2 0.1 0.2 0.9 1.2 0.5 2.5zm-10.7 0.1c-0.9-1.1-1.9-0.5-2-0.3-0.1 0.1-0.2 0.4 0.6 0.5 1 0 1.4-0.2 1.4-0.2z"/>
		<path id="&lt;Path&gt;" class="s0" d="m17.1 10.7c0.1 0.1 1.3 1.4 1.4 1.5 0.2 0.2 0 0.2 0 0.2-0.1 0-0.6 0-0.6 0 0 0 0.7 1.4 1 1.9 0.5 1.1 0.2 2 0.1 2.4-1.4 2.5-5.5 4.6-6.5 5-1 0.4-3.3 0.8-3.9 0.9-0.4 0-0.4-0.1-0.2-0.2 0.2-0.1 6.3-2.2 10.2-6.3q0.1-0.2-0.1-0.5c-0.1-0.2-1.3-2.5-1.4-2.8-0.1-0.3-0.3-0.7-0.3-0.8q-0.1-0.2-0.1-0.4c0-0.1 0.2-0.7 0.2-0.9 0-0.1 0.1-0.1 0.2 0z"/>
		<path id="&lt;Path&gt;" class="s0" d="m14.9 10.8c0 0-0.1 0.3-0.2 0.4-0.3 0.9-0.1 1.3-0.1 1.4 0.3 0.5 0.6 0.3 0.8-0.1 0-0.2 0.1-0.1 0.1 0q-0.1 0.1-0.1 0.3c-0.2 0.5-0.4 0.7-0.6 0.7-0.3-0.1-0.5-0.5-0.5-0.7 0-1 0.4-1.8 0.5-2 0.1-0.3 0.2-0.2 0.1 0z"/>
		<path id="&lt;Path&gt;" class="s0" d="m43.1 10.4l1 0.8q0.1 0 0 0l-0.6 0.9q0 0-0.1 0l-1-0.7-0.5 0.7q-0.1 0-0.1 0l-1.1-0.8q0 0 0 0l0.6-0.9q0.1 0 0.1 0l1 0.7 0.6-0.7q0 0 0.1 0z"/>
		<path id="&lt;Path&gt;" class="s0" d="m62.9 10.4c0 0-0.1 0.3-0.2 0.5-0.3 0.9-0.1 1.4-0.1 1.4 0.3 0.5 0.6 0.3 0.8-0.1 0-0.2 0.1-0.1 0.1 0q-0.1 0.1-0.1 0.3c-0.2 0.6-0.4 0.7-0.6 0.7-0.3 0-0.5-0.5-0.5-0.7-0.1-1 0.4-1.9 0.5-2.1 0.1-0.3 0.1-0.2 0.1 0z"/>
		<path id="&lt;Path&gt;" class="s0" d="m52.3 9.9c0 0 0 0.3-0.1 0.5-0.4 1-0.2 1.4-0.1 1.6 0.3 0.5 0.6 0.2 0.8-0.2 0-0.2 0.1-0.1 0.1 0q0 0.1-0.1 0.3c-0.2 0.6-0.4 0.8-0.6 0.8-0.4 0-0.6-0.5-0.6-0.8 0-1.1 0.4-2 0.5-2.3 0.1-0.2 0.2-0.1 0.1 0.1z"/>
		<path id="&lt;Compound Path&gt;" fill-rule="evenodd" class="s0" d="m20 22.9c-3.1 1.5-5.6 1.8-6.9 1.9-7.5 0.2-7.6-4.3-7.7-5-0.3-3.8 1.2-6.2 2.3-7.4-0.6-0.5-1.4-1.2-2.2-1.6-0.3-0.2-0.5-0.5-0.5-1.1 0-0.9 0.6-1.6 1.4-1.8 3.2-0.8 7.9-0.3 8.8-0.1l-0.4 1.2c0 0-1.9 1.2-2.6 1.6q-2.1 1.1-3.3 2.1c0.1 0.4 0 0.7 0 0.8 0 0.3-0.1 0.2-0.2 0q-0.1-0.1-0.3-0.4c-2.4 2.2-2.4 4-2.5 4.6-0.4 4.8 3.6 5.3 4.3 5.5 2.1 0.5 6.8 0.1 9.8-0.6 0.7-0.2 0.6 0 0 0.3zm-11.9-11.5q0.2 0.2 0.3 0.5c0.3-0.3 0.5-0.4 0.6-0.5 0.3-0.2 3.4-2.1 3.7-2.3-5-0.4-6.5 0.2-6.9 0.3-0.4 0.2-0.2 0.3-0.1 0.4 0.1 0 2 1.3 2.4 1.6z"/>
		<path id="&lt;Path&gt;" class="s0" d="m51.4 5.6c0 0.1 0 0.1-0.1 0.3-0.1 0.2-0.2 0.2-0.4 0.4-0.2 0.1-5.7 3.3-5.8 3.3-0.3 0.2-0.3 0.1-0.3 0q0.1 0 0.1-0.3c0-0.2 0.1-0.2 0.3-0.4 0.3-0.1 5.8-3.3 6-3.4 0.3-0.2 0.3 0 0.2 0.1z"/>
		<path id="&lt;Path&gt;" class="s0" d="m58.1 5.9c0.1 0.3 0.1 0.7-0.1 0.9 0 0.2-0.2 0.1-0.3-0.1 0 0-0.1-0.1-0.3-0.2-0.5-0.5-0.7 0.4-0.8 0.8 0 0.3-0.1 1.4-0.2 2 0 0.2-0.2 0.2-0.2 0-0.4-1.3-1.2-1.9-1.3-2-0.1-0.1-0.2 0.1-0.2 0.2 0 0-0.1 0-0.2 0-0.1 0-0.5-0.3-0.6-0.4-0.2-0.2-0.1-0.7-0.1-0.9 0-0.3 0.3-0.4 0.4-0.4 1.5 0.9 1.9 2.3 2 2.5 0.1-1 0.1-2 0.7-2.8 0.5-0.6 1.2 0.3 1.2 0.4z"/>
		<path id="&lt;Compound Path&gt;" fill-rule="evenodd" class="s0" d="m63.6 8.3c-0.1 0.1-0.2 0-0.3-0.1 0-0.1-0.2-0.3-0.4-0.4-0.2 0.5-0.2 0.5-1.1 1.3-2.1 1.8-4.3 2.4-4.4 2.4-0.1 0.1-0.2 0 0.1-0.2 0.6-0.5 3.6-1.8 5-3.7 0 0-0.4-0.1-0.7-0.4-0.4-0.2-0.2-1 0-1.4 0.6-0.9 1.1-0.4 1.2-0.3 0.5 0.9 0.2 1.7 0.2 1.7 0.3 0.2 0.6 0.5 0.4 1.1zm-1-2.2c-0.1-0.1-0.2-0.1-0.5 0.3-0.1 0.1 0 0.2 0.2 0.3 0.2 0.1 0.6 0.3 0.6 0.3 0-0.1 0-0.6-0.3-0.9z"/>
		<path id="&lt;Path&gt;" class="s0" d="m16.7 5.3c0 0-0.1 0.3-0.2 0.5-0.3 0.9-0.1 1.3-0.1 1.4 0.3 0.4 0.6 0.2 0.8-0.2 0-0.1 0.1 0 0.1 0q-0.1 0.1-0.1 0.3c-0.2 0.6-0.4 0.7-0.6 0.7-0.3 0-0.4-0.5-0.5-0.7 0-1 0.4-1.8 0.5-2 0.1-0.3 0.2-0.2 0.1 0z"/>
		<path id="&lt;Compound Path&gt;" fill-rule="evenodd" class="s0" d="m38 20c-0.4 1.2-1.1 1.1-1.3 1.1-0.5-0.1-1.2-0.5-1.5-1q-0.2-0.3-0.3-0.8c-0.2 0.1-0.4 0.2-0.4 0.3-2.8 2.1-4.5 1.2-5.1 0.9-0.3-0.1-0.8-0.6-1.4-1.1-1.3 0.8-2.7 1.5-3.6 1.7-2.4 0.5-3.6-1.1-4-2.1-0.4-1-0.9-6.3-0.9-7.3-0.2-2.1-1-5-1.1-5.3-0.1-0.4 0.2-1 0.2-1.1 0.1-0.1 0.2-0.4 0.3-0.1 0.8 2 1.1 5.1 1.2 6.1 0.1 1.1 0.4 4.5 0.5 5.3 0.3 2.4 1.6 2.9 2 3.1 1.4 0.6 3.4-0.4 4.1-0.8q0.2-0.1 0.5-0.2-0.2-0.1-0.3-0.3c-0.4-0.3-1-0.6-1.4-0.8-0.4-0.1-1.2 0.2-1.3 0.3-0.1 0-0.2 0-0.1-0.3 0.1-0.2 0.1-0.6 0.3-0.9 2.9-1.8 6.5-0.5 6.8-0.3 0.3 0.1 0.3 0.3 0.2 0.6 0 0.2-0.2 0.9-0.2 0.9-0.4 0.1-1.2 0.5-2.1 0.9q0.2 0.2 0.3 0.2c2 1.5 4.3-0.1 4.8-0.4q0.1-0.1 0.4-0.3-0.2-0.7-0.4-1.5c-0.7-3.4-1.4-9.4-1.5-9.9-0.1-0.5-0.2-0.7-0.2-0.8 0 0 0.4-0.9 0.5-1 0-0.1 0.1 0 0.1 0.1 0.1 0.1 1.2 2.8 1.3 3 0 0.1-0.1 0.2-0.2 0.1-0.1-0.1-0.7-0.7-0.7-0.7 0 0 1.4 9.5 1.8 10.3q0.2 0 0.3 0c1.1-0.4 1.9 0.1 2 0.2 0.7 0.4 0.4 1.6 0.4 1.9zm-9.7-1.9c0.6-0.4 1.3-0.8 1.4-0.9-1-0.2-1.9-0.3-2.7-0.2 0.3 0.2 0.8 0.7 1.3 1.1zm8.2 1q-0.4-0.1-0.7-0.1c0.3 0.6 1 1 1.5 0.8 0.5-0.3-0.4-0.7-0.8-0.7z"/>
		<path id="&lt;Path&gt;" class="s0" d="m37.3 5.2c0 0.1 1.3 3.2 1.4 3.4 0 0.1-0.1 0.2-0.2 0.1-0.1-0.1-0.7-0.7-0.7-0.7 0 0 1.1 8.4 1.2 8.7q0.3 2.4 0.2 3.6c-0.1 1.1-0.2 1.5-0.3 1.6-0.1 0.1-0.2 0.1-0.1-0.1-0.1-0.6-0.2-1.8-0.3-3-0.4-2.6-1.5-10.6-1.7-12 0-0.1-0.1-0.6-0.1-0.6 0 0 0.4-1 0.4-1.1 0.1-0.1 0.1 0 0.2 0.1z"/>
		<path id="&lt;Path&gt;" class="s0" d="m23 13.2c0 0-0.1 0.3-0.2 0.5-0.3 1.1 0 1.6 0 1.7 0.3 0.5 0.7 0.2 0.8-0.2 0.1-0.2 0.1-0.1 0.1 0q0 0.1 0 0.3c-0.2 0.6-0.4 0.8-0.6 0.8-0.4 0-0.6-0.5-0.6-0.7-0.2-1.2 0.2-2.2 0.3-2.4 0.1-0.3 0.2-0.2 0.2 0z"/>
		<path id="&lt;Path&gt;" class="s0" d="m31.1 11.7c0 0-0.1 0.4-0.2 0.6-0.3 1 0 1.5 0 1.6 0.3 0.5 0.7 0.2 0.8-0.2 0.1-0.2 0.1-0.1 0.1 0q0 0.1 0 0.3c-0.2 0.7-0.4 0.8-0.6 0.8-0.4 0-0.6-0.5-0.6-0.7-0.2-1.1 0.2-2.1 0.3-2.4 0.1-0.3 0.2-0.2 0.2 0z"/>
		<path id="&lt;Path&gt;" class="s0" d="m32.2 9.2c0 0.2-0.1 0.2-0.1 0.4-0.1 0.2-0.2 0.2-0.4 0.4-0.2 0.1-5.2 2.6-5.4 2.7-0.3 0.2-0.3 0.1-0.2 0q0-0.1 0-0.4c0.1-0.1 0.1-0.2 0.4-0.3 0.2-0.2 5.2-2.7 5.4-2.8 0.4-0.3 0.3-0.1 0.3 0z"/>
		<path id="&lt;Path&gt;" class="s0" d="m31.7 5.7c0 0.2 0 0.2-0.1 0.5-0.1 0.2-0.2 0.3-0.5 0.4-0.2 0.2-9.4 5.1-9.5 5.1-0.4 0.3-0.4 0.1-0.3 0q0-0.1 0-0.4c0.1-0.2 0.2-0.2 0.5-0.4 0.2-0.2 9.3-5.1 9.6-5.2 0.4-0.3 0.4-0.1 0.3 0z"/>
		<path id="&lt;Path&gt;" class="s0" d="m25.2 5.7c0.1 0.2 0.1 0.6 0 0.8 0 0.1-0.2 0-0.3-0.1 0 0-0.1-0.1-0.2-0.2-0.5-0.4-0.6 0.4-0.7 0.8 0 0.2 0 1.1 0 1.6-0.1 0.2-0.2 0.2-0.3 0.1-0.3-1.1-1-1.6-1.1-1.7-0.1-0.1-0.2 0.1-0.2 0.2 0 0-0.1 0-0.1 0-0.1 0-0.5-0.2-0.6-0.3-0.1-0.1-0.1-0.6-0.1-0.7 0-0.3 0.2-0.4 0.3-0.4 1.3 0.7 1.7 1.9 1.8 2.1 0-1 0-1.8 0.5-2.5 0.4-0.5 1 0.2 1 0.3z"/>
		<path id="&lt;Compound Path&gt;" fill-rule="evenodd" class="s0" d="m42.8 7.9c-0.1 0.2-0.1 0.1-0.3 0 0-0.1-0.4-0.4-0.4-0.4 0 0-0.4 0.9-1.2 1.5-1.3 1-2.5 1.2-2.6 1.2-0.1 0.1-0.1 0 0.1-0.2 0.9-0.5 1.9-0.8 3.4-2.7 0 0-0.5-0.1-0.8-0.4-0.3-0.2-0.2-1 0-1.4 0.6-0.9 1.1-0.4 1.2-0.3 0.5 0.9 0.2 1.7 0.2 1.7 0.3 0.2 0.6 0.5 0.4 1zm-1-2.1c-0.1-0.1-0.2-0.1-0.5 0.3-0.1 0.1 0 0.2 0.2 0.3 0.2 0.1 0.6 0.3 0.6 0.3 0-0.1 0.1-0.6-0.3-0.9z"/>
	</g>
</svg>