<svg version="1.2" xmlns="http://www.w3.org/2000/svg" viewBox="0 0 70 30" width="70" height="30">
	<title>New Project</title>
	<style>
		.s0 { fill: #191c4f } 
	</style>
	<g id="نوح">
		<path id="&lt;Path&gt;" class="s0" d="m63.4 21.4c0 0 0 0.4 0 0.7 0 0.3-0.1 0.7-0.3 1.2-0.1 0.5-1.1 0.6-1.7 0.2-1.1 1.6-2 0.8-2.5 0.6-1-0.4-1.3 0.3-1.5 0.5-1.2 1.4-3.4 1.3-3.9 1.4-0.5 0-0.1-0.3 0.1-0.4 1.7-0.6 2.8-0.7 4.3-2.1 0.7-0.7 1.1-0.4 1.4-0.3 1.4 0.6 1.6 0 1.8-0.2 0.2-0.1 0.5-0.9 0.6-1.1 0.1-0.3 0.2-0.1 0.2 0.1-0.1 0.2-0.1 0.4-0.2 0.6 0.6 0.4 1.2 0 1.3-0.1 0 0 0-0.4 0-0.6q0-0.2 0.2-0.8c0.1-0.3 0.2 0 0.2 0.3z"/>
		<path id="&lt;Compound Path&gt;" fill-rule="evenodd" class="s0" d="m36.7 19.4c-0.4 1.4-2.4 2.2-2.9 2.3-1.8 0.6-1.9-1.2-1.8-2.5 0.1-1.4 1.1-3 1.1-3-0.1-0.1-2-1.6-2.2-1.7-0.1-0.2-0.3-0.4-0.5-0.5-0.2-0.1-0.1-0.2-0.1-0.2 0 0 0-1.3 0-1.5 0-0.2 0.1-0.1 0.2 0 0.2 0 2.2 0.8 2.5 1 0.2 0.1 0.1 0.2 0 0.3-0.1 0-0.8 0.2-0.8 0.2l1.7 1.2c0 0 2.3-3.1 2.5-3.4 0.3-0.3 0.2-0.1 0.2 0.2-0.1 0.3-0.5 1.6-0.6 1.8-0.1 0.2-1.3 1.9-1.3 1.9 0 0 1.5 0.9 1.9 1.5 0.7 0.9 0.3 1.8 0.1 2.4zm-2.9-2.7c0 0-1.1 1.7-1.2 2.1-0.5 1 0.6 1.2 1 1.2 0.4 0 1.8-0.8 2.4-1.3 0.7-0.6-1.8-1.8-2.2-2z"/>
		<path id="&lt;Compound Path&gt;" fill-rule="evenodd" class="s0" d="m29.1 17.1c-0.3 1.7-1.4 2.1-2 2.4 0.3 1.8-0.5 2.8-0.8 3.1-2.6 2.9-8.9 4.7-9.1 4.9-0.3 0.1-5.7 0.6-5.9 0.7-0.2 0.1-0.3 0.1-0.3 0-0.1-0.2 0.2-0.4 0.5-0.5 0 0 12.8-3.5 14.9-7.1 0.3-0.4 0.3-0.9-0.9-0.5-0.7 0.2-1.4 0.1-1.8 0.1-1.4-0.1-1.7-0.9-1.7-1.4-0.1-1.4 0.8-2.3 1.2-2.6 0.6-0.4 2.4-0.8 3.5 1.8 0.5-0.2 1.5-0.8 1.7-1 0.2-0.1 0.1-0.3 0-0.5-0.1-0.2-1.5-3.4-1.6-3.7-0.1-0.3-0.2-0.6-0.1-0.8 0-0.2 0.3-1.1 0.3-1.1 0.1-0.1 0.1-0.1 0.2-0.1 0 0.1 1.7 2.2 1.8 2.4 0.1 0.2-0.1 0.2-0.2 0.2-0.1 0-0.3-0.1-0.4-0.1-0.1-0.1-0.3-0.1-0.2-0.1 1.2 2 1 3.1 0.9 3.9zm-3.6 1.2c-1-0.9-1.6-0.7-1.8-0.6-0.4 0.1-1 0.6-0.5 0.8 1.3 0.2 2.3-0.2 2.3-0.2z"/>
		<path id="&lt;Compound Path&gt;" fill-rule="evenodd" class="s0" d="m65.5 17.7c-0.1 0.3-0.4 1.6-2.3 1.3-0.5-0.1-1.5-0.3-1.9-1.4-0.4 0.6-1.5 2.4-3.7 2.1-0.5-0.1-2-0.7-2.1-2.6 0 0-1.8 1.5-2.6 1.9 0.1 0.7 0 1.5-0.3 2.4-0.3 0.8-4.2 5.2-7.3 5.9-1.1 0.2-5.1 1-5.3-3.5 0-1 0.1-1.7 0.1-2.2-2.4 1.9-5.4 3.4-6.3 3.8-1.3 0.7-5.9 1.4-6.7 1.6-0.5 0.1-0.6-0.1-0.3-0.3 0.3-0.2 10.5-3.6 15.8-9.2 0.2-0.1 0.1-0.4 0-0.6-0.2-0.3-1.8-3.5-2-3.9-0.1-0.4-0.4-0.9-0.4-1.1q-0.2-0.2-0.1-0.5c0-0.2 0.2-1 0.2-1.2 0.1-0.2 0.2-0.1 0.3 0 0.1 0.2 1.8 1.8 1.9 2.1 0.2 0.2 0.1 0.3 0 0.3-0.1 0-0.9-0.1-0.9-0.1 0 0 1.1 1.9 1.5 2.6 0.6 1.5 0.3 2.7 0 3.3-0.5 0.9-1.4 1.9-2.4 2.8-0.2 0.7-0.5 4.4 2.9 4.5 0.6 0 2.3 0.3 5.8-2.6 0.8-0.6 1.7-1.4 2.5-2.5 0.3-0.5 0.5-1.2-0.1-1.1-0.5 0-4.1 1.4-4.7-0.8-0.1-0.6 0.2-5.8 3.7-3.2 0.4 0.2 1.1 0.9 1.6 1.9 0.6-0.3 1.7-1 3.1-2.1 0.4-0.3 0.7-0.5 0.7 0 0 0.5-0.3 3.5 3 2.6 0.3-0.1 1.7-0.4 2.7-2.9 0.3-0.6 0.6-0.5 0.4 0-0.2 0.6-0.6 1.1-0.2 1.5 0.3 0.3 1.2 0.9 2.3 0.8 0.4-0.1 0.7-0.3 0.5-0.6-0.1-0.3-0.5-1-0.5-1 0.1-0.4 0.2-1 0.3-1.2 0-0.2 0.1-0.3 0.2-0.2 0.2 0.2 1.2 1.5 0.6 3.4zm-14.6 0.1c-1.2-1.5-2.5-0.6-2.7-0.5-0.2 0.2-0.3 0.6 0.9 0.7 1.3 0.1 1.8-0.2 1.8-0.2z"/>
		<path id="&lt;Path&gt;" class="s0" d="m22.1 10.2c0 0-0.1 0.4-0.2 0.8-0.5 1.6-0.2 2.3-0.1 2.4 0.6 0.8 1.2 0.4 1.4-0.3 0.1-0.3 0.2-0.1 0.2 0q0 0.2-0.1 0.5c-0.3 1-0.7 1.3-1 1.3-0.7 0-1-0.8-1.1-1.2-0.2-1.7 0.5-3.2 0.7-3.6 0.2-0.5 0.3-0.3 0.2 0.1z"/>
		<path id="&lt;Path&gt;" class="s0" d="m34.8 8.4l1.4 1q0.1 0.1 0 0.1l-0.8 1.2q-0.1 0.1-0.1 0l-1.4-1-0.8 1q0 0.1-0.1 0l-1.4-1q-0.1-0.1 0-0.1l0.8-1.2q0.1-0.1 0.1 0l1.4 1 0.8-1q0-0.1 0.1 0z"/>
		<path id="&lt;Path&gt;" class="s0" d="m61.8 8.4c0 0-0.1 0.4-0.2 0.7-0.4 1.2-0.2 1.8-0.1 1.9 0.4 0.7 0.8 0.3 1-0.1 0.1-0.3 0.2-0.2 0.1 0q0 0.1 0 0.3c-0.3 0.8-0.6 1-0.8 1-0.5 0-0.7-0.6-0.7-1-0.1-1.3 0.4-2.5 0.6-2.8 0.1-0.4 0.2-0.2 0.1 0z"/>
		<path id="&lt;Path&gt;" class="s0" d="m26.1 7.5l1.4 1.1q0.1 0 0.1 0.1l-0.9 1.1q0 0.1-0.1 0.1l-1.5-1.1q0 0 0-0.1l0.9-1.2q0 0 0.1 0z"/>
		<path id="&lt;Path&gt;" class="s0" d="m47.5 7.7c0 0-0.2 0.4-0.3 0.7-0.4 1.3-0.2 2-0.1 2.1 0.4 0.7 0.9 0.3 1.1-0.2 0.1-0.2 0.1-0.1 0.1 0q0 0.1-0.1 0.4c-0.2 0.9-0.6 1.1-0.8 1.1-0.6-0.1-0.8-0.7-0.8-1.1-0.1-1.5 0.5-2.7 0.7-3.1 0.1-0.4 0.3-0.2 0.2 0.1z"/>
		<path id="&lt;Path&gt;" class="s0" d="m15.2 18.3c-0.1 0.2-0.1 0.3-0.2 0.5-0.1 0.2-0.2 0.3-0.5 0.5-0.3 0.1-4.6 1.9-4.9 2-0.4 0.3-0.4 0.1-0.3 0q0-0.1 0.1-0.4c0-0.3 0.1-0.4 0.4-0.5 0.4-0.2 4.7-2 5.1-2.2 0.4-0.1 0.4 0 0.3 0.1z"/>
		<path id="&lt;Path&gt;" class="s0" d="m15 16.7c0 0.2-0.1 0.2-0.2 0.5-0.1 0.2-0.2 0.3-0.5 0.4-0.3 0.2-4.6 2-4.8 2.1-0.5 0.3-0.4 0.1-0.4 0q0-0.1 0.1-0.4c0.1-0.3 0.1-0.4 0.5-0.5 0.3-0.2 4.7-2.1 5-2.2 0.5-0.2 0.4 0 0.3 0.1z"/>
		<path id="&lt;Path&gt;" class="s0" d="m9.5 19.7c-0.5 0.3-0.4 0.1-0.4 0q0-0.1 0.1-0.4c0.1-0.3 0.1-0.4 0.5-0.5 0.3-0.2 4.7-2.1 5-2.2 0.5-0.2 0.4 0 0.3 0.1 0 0.2-0.1 0.2-0.2 0.5-0.1 0.2-0.2 0.3-0.5 0.4-0.3 0.2-4.6 2-4.8 2.1z"/>
		<path id="&lt;Path&gt;" class="s0" d="m15.2 18.3c-0.1 0.2-0.1 0.3-0.2 0.5-0.1 0.2-0.2 0.3-0.5 0.5-0.3 0.1-4.6 1.9-4.9 2-0.4 0.3-0.4 0.1-0.3 0q0-0.1 0.1-0.4c0-0.3 0.1-0.4 0.4-0.5 0.4-0.2 4.7-2 5.1-2.2 0.4-0.1 0.4 0 0.3 0.1z"/>
		<path id="&lt;Path&gt;" class="s0" d="m9.5 19.7c-0.5 0.3-0.4 0.1-0.4 0q0-0.1 0.1-0.4c0.1-0.3 0.1-0.4 0.5-0.5 0.3-0.2 4.7-2.1 5-2.2 0.5-0.2 0.4 0 0.3 0.1 0 0.2-0.1 0.2-0.2 0.5-0.1 0.2-0.2 0.3-0.5 0.4-0.3 0.2-4.6 2-4.8 2.1z"/>
		<path id="&lt;Path&gt;" class="s0" d="m15.2 18.3c-0.1 0.2-0.1 0.3-0.2 0.5-0.1 0.2-0.2 0.3-0.5 0.5-0.3 0.1-4.6 1.9-4.9 2-0.4 0.3-0.4 0.1-0.3 0q0-0.1 0.1-0.4c0-0.3 0.1-0.4 0.4-0.5 0.4-0.2 4.7-2 5.1-2.2 0.4-0.1 0.4 0 0.3 0.1z"/>
		<path id="&lt;Compound Path&gt;" fill-rule="evenodd" class="s0" d="m19.3 18.8c-0.7 3.6-4.2 6.1-4.9 6.5-4.7 2.6-7.6-0.2-8-0.8-2.8-3.4-0.5-9.1-0.4-9.5q0.1-0.3 0.3-0.7c-0.5-0.2-0.7-0.5-0.8-0.6-0.4-0.3-0.1-0.3 0.2-0.3 0.2 0.1 0.6 0.1 1 0.1 0.5-0.9 1.1-1.6 1.7-2.2-0.3-0.2-0.5-0.4-0.6-0.5-0.3-0.2-1.7-1-2.2-1.7-0.6-0.7-0.1-1.9 0.1-2.5 0.3-0.5 0.6-0.8 1.1-1 3.3-1.3 11-0.1 11.3 0 0.3 0.1 0.3 0.2 0.2 0.4-0.1 0.3-0.2 0.5-0.4 1.1 0 0-6.7 3.8-7.3 4.1q-0.3 0.2-0.5 0.3c0.1 0.6 0 1 0 1.1 0 0.2-0.2 0.3-0.3 0-0.1 0-0.3-0.2-0.5-0.5q-0.9 0.7-1.5 1.4c1.9-0.1 4.3-0.2 4.8-0.2 2.4-0.3 4.1 0.1 4.9 0.5 2.9 1.1 1.9 4.5 1.8 5zm-10.3-8.8q0.3 0.2 0.5 0.4c1-0.8 1.8-1.2 2-1.3 0.5-0.3 3.7-2 3.9-2.1-7-0.6-8.6 0.1-9 0.4-0.5 0.2-0.2 0.5-0.1 0.6 0.2 0.1 2.4 1.7 2.7 2zm8.6 5.8c-1.5-1.2-5.5-0.9-5.9-0.9-2.3 0.2-3.8 0-4.7-0.3-1.2 2.1-1.2 4-1.2 4.3-0.3 6.3 5.5 5.6 6.2 5.5 4.6-0.6 6.6-5.3 6.7-5.6 0.7-1.8-0.6-2.7-1.1-3z"/>
		<path id="&lt;Path&gt;" class="s0" d="m20.3 2c0 0-0.1 0.3-0.2 0.6-0.5 1.2-0.2 1.7-0.2 1.9 0.4 0.6 0.8 0.3 1-0.2 0.1-0.2 0.1-0.1 0.1 0q0 0.1-0.1 0.4c-0.2 0.7-0.5 0.9-0.7 0.9-0.5 0-0.7-0.6-0.7-0.9-0.1-1.4 0.5-2.5 0.6-2.8 0.1-0.3 0.3-0.2 0.2 0.1z"/>
		<path id="&lt;Path&gt;" class="s0" d="m46.2 1.8c-0.1 0.2-0.1 0.2-0.2 0.5-0.1 0.2-0.2 0.3-0.5 0.4-0.3 0.2-7.8 4.5-7.9 4.6-0.5 0.3-0.4 0.1-0.4 0q0-0.1 0.1-0.4c0-0.3 0.2-0.3 0.5-0.5 0.3-0.2 7.7-4.5 8-4.7 0.5-0.3 0.4-0.1 0.4 0.1z"/>
		<path id="&lt;Path&gt;" class="s0" d="m55.3 2.3c0.2 0.3 0.1 0.9-0.1 1.2-0.1 0.3-0.3 0-0.4-0.2 0 0-0.2-0.2-0.4-0.3-0.7-0.7-1 0.6-1.1 1.2-0.1 0.4-0.2 1.8-0.3 2.6 0 0.4-0.2 0.4-0.3 0.1-0.6-1.7-1.6-2.6-1.7-2.7-0.2-0.2-0.3 0-0.4 0.2 0 0.1-0.1 0.1-0.2 0-0.1 0-0.6-0.4-0.8-0.6-0.2-0.2-0.2-0.8-0.1-1.1 0-0.5 0.3-0.6 0.4-0.6 2.1 1.2 2.7 3.2 2.8 3.5 0.1-1.5 0.2-2.8 1-3.9 0.6-0.8 1.6 0.4 1.6 0.6z"/>
		<path id="&lt;Compound Path&gt;" fill-rule="evenodd" class="s0" d="m62.8 5.4c-0.1 0.2-0.2 0.1-0.3-0.1-0.1-0.1-0.3-0.3-0.6-0.5-0.3 0.7-0.3 0.8-1.6 1.8-2.7 2.4-5.8 3.3-5.9 3.3-0.2 0.1-0.3-0.1 0-0.3 1-0.7 5-2.5 7-5 0 0-0.7-0.2-1.1-0.6-0.4-0.3-0.2-1.4 0.1-1.8 0.8-1.3 1.5-0.7 1.6-0.5 0.7 1.2 0.3 2.3 0.3 2.3 0.4 0.3 0.7 0.7 0.5 1.4zm-1.3-2.9c-0.2-0.1-0.4-0.1-0.8 0.4-0.1 0.2 0 0.4 0.3 0.5 0.3 0.1 0.8 0.3 0.8 0.3 0.1-0.1 0.1-0.8-0.3-1.2z"/>
		<path id="&lt;Compound Path&gt;" fill-rule="evenodd" class="s0" d="m26.9 5c-0.1 0.2-0.2 0.1-0.3-0.1 0-0.1-0.5-0.5-0.5-0.5 0 0-1.4 2.2-2.9 3.2-1.8 1.3-3.2 1.8-3.3 1.8-0.2 0-0.2-0.1 0.1-0.3 1.1-0.6 3.7-2.7 5.6-4.9 0 0-0.5-0.2-0.9-0.5-0.4-0.3-0.2-1.4 0.1-1.8 0.8-1.1 1.4-0.5 1.5-0.3 0.6 1.1 0.2 2.1 0.2 2.1 0.3 0.2 0.7 0.6 0.4 1.3zm-1.1-2.8c-0.2 0-0.3-0.1-0.7 0.4-0.1 0.2 0 0.3 0.2 0.5 0.3 0.1 0.8 0.3 0.8 0.3 0-0.1 0.1-0.8-0.3-1.2z"/>
		<path id="&lt;Compound Path&gt;" fill-rule="evenodd" class="s0" d="m34.4 5c-0.1 0.2-0.2 0.1-0.3-0.1-0.1-0.1-0.6-0.5-0.6-0.5 0 0-0.6 1.3-1.6 2.1-1.9 1.4-3.5 1.6-3.6 1.7-0.2 0-0.2-0.2 0.1-0.3 1.2-0.7 2.6-1.2 4.6-3.7 0 0-0.7-0.2-1.1-0.6-0.4-0.3-0.2-1.4 0.1-1.9 0.8-1.2 1.5-0.6 1.6-0.4 0.7 1.2 0.3 2.3 0.3 2.3 0.4 0.3 0.7 0.7 0.5 1.4zm-1.3-2.9c-0.2-0.1-0.4-0.2-0.8 0.4-0.1 0.2 0 0.3 0.3 0.4 0.3 0.2 0.8 0.4 0.8 0.4 0.1-0.1 0.1-0.8-0.3-1.2z"/>
	</g>
</svg>