<svg version="1.2" xmlns="http://www.w3.org/2000/svg" viewBox="0 0 70 30" width="70" height="30">
	<title>New Project</title>
	<style>
		.s0 { fill: #191c4f } 
	</style>
	<g id="الجن">
		<path id="&lt;Path&gt;" class="s0" d="m20.7 25.4c0 0.2-0.1 0.2-0.2 0.4-0.1 0.2-0.2 0.3-0.4 0.4-0.3 0.1-5.1 1.9-5.2 2-0.4 0.2-0.4 0-0.3-0.1q0 0 0.1-0.3c0-0.2 0.1-0.3 0.4-0.4 0.3-0.2 5.1-2 5.3-2.1 0.4-0.2 0.4 0 0.3 0.1z"/>
		<path id="&lt;Path&gt;" class="s0" d="m29.6 24.7c-0.1 0.2-0.1 0.2-0.2 0.4-0.1 0.2-0.3 0.3-0.5 0.4-0.2 0.1-4.5 1.7-4.6 1.8-0.5 0.2-0.4 0.1-0.4-0.1q0.1 0 0.1-0.3c0.1-0.2 0.2-0.2 0.5-0.4 0.2-0.2 4.5-1.7 4.8-1.9 0.4-0.2 0.3 0 0.3 0.1z"/>
		<path id="&lt;Path&gt;" class="s0" d="m26.2 22.2l1.3 1q0 0 0 0.1l-0.8 1q0 0-0.1 0l-1.3-0.9q0-0.1 0-0.1l0.8-1q0-0.1 0.1-0.1z"/>
		<path id="&lt;Path&gt;" class="s0" d="m63.7 20.9c0 0 0 0.3 0 0.6 0 0.3-0.2 0.7-0.3 1.1-0.1 0.4-1 0.5-1.5 0.1-0.9 1.5-1.8 0.8-2.2 0.6-0.9-0.3-1.1 0.2-1.3 0.4-1.1 1.2-3 1.2-3.4 1.2-0.5 0.1-0.1-0.2 0.1-0.3 1.5-0.5 2.4-0.6 3.8-1.9 0.6-0.6 0.9-0.3 1.2-0.2 1.2 0.5 1.4 0 1.6-0.2 0.1-0.1 0.3-0.8 0.4-1 0.1-0.2 0.3 0 0.2 0.1 0 0.2-0.1 0.4-0.1 0.5 0.5 0.4 1 0.1 1.1 0 0 0 0-0.4 0-0.6q0-0.1 0.1-0.6c0.2-0.4 0.2-0.1 0.3 0.2z"/>
		<path id="&lt;Compound Path&gt;" fill-rule="evenodd" class="s0" d="m40.3 19.1c-0.4 1.2-2.2 1.9-2.6 2.1-1.6 0.5-1.7-1.1-1.6-2.3 0.1-1.1 0.9-2.6 0.9-2.6 0 0-1.7-1.4-1.8-1.5-0.2-0.1-0.3-0.3-0.5-0.4-0.1-0.1-0.1-0.2-0.1-0.2 0 0 0-1.1 0-1.3 0-0.1 0.1-0.1 0.2 0 0.2 0 2 0.8 2.2 0.9 0.1 0.1 0.1 0.2 0 0.2-0.1 0-0.7 0.2-0.7 0.2l1.5 1.1c0 0 2-2.7 2.2-3 0.2-0.2 0.2-0.1 0.1 0.2 0 0.3-0.4 1.4-0.5 1.6-0.1 0.1-1.1 1.6-1.1 1.6 0 0 1.3 0.8 1.7 1.3 0.6 0.8 0.2 1.7 0.1 2.1zm-2.6-2.4c0 0-0.9 1.6-1.1 1.9-0.4 0.9 0.5 1.1 0.9 1.1 0.3-0.1 1.6-0.7 2.1-1.2 0.6-0.5-1.6-1.6-1.9-1.8z"/>
		<path id="&lt;Path&gt;" class="s0" d="m12.5 19.7c0 0-0.1 0.3-0.2 0.5-0.4 1.1-0.2 1.5-0.1 1.7 0.3 0.5 0.7 0.2 0.8-0.2 0.1-0.2 0.2-0.1 0.1 0q0 0.1 0 0.3c-0.2 0.7-0.5 0.8-0.7 0.8-0.4 0-0.6-0.5-0.6-0.8-0.1-1.1 0.4-2.1 0.5-2.4 0.1-0.3 0.2-0.2 0.2 0.1z"/>
		<path id="&lt;Path&gt;" class="s0" d="m11.7 15.6l1.3 0.9q0.1 0 0 0.1l-0.7 1q-0.1 0.1-0.1 0l-1.3-0.9q0 0 0-0.1l0.8-1q0-0.1 0 0z"/>
		<path id="&lt;Compound Path&gt;" fill-rule="evenodd" class="s0" d="m65.5 17.6c0 0.3-0.4 1.5-2 1.1-0.5 0-1.3-0.2-1.7-1.1-0.4 0.5-1.3 2.1-3.3 1.8-0.4-0.1-1.7-0.6-1.8-2.2 0 0-1.5 1.2-2.3 1.6 0.1 0.6 0.1 1.3-0.2 2.1-0.3 0.7-3.7 4.5-6.4 5.2-1 0.2-4.5 0.8-4.6-3.1-0.1-0.8 0-1.5 0.1-1.9-2.2 1.7-4.8 3-5.6 3.3-1.1 0.6-5.1 1.3-5.9 1.4-0.4 0.1-0.5-0.1-0.2-0.2 0.2-0.2 9.2-3.2 13.8-8.1 0.2-0.1 0.1-0.3 0-0.6-0.1-0.2-1.6-3-1.7-3.4-0.2-0.3-0.4-0.8-0.4-0.9q-0.1-0.2-0.1-0.5c0-0.1 0.2-0.9 0.2-1 0.1-0.2 0.2-0.1 0.2 0 0.1 0.1 1.6 1.6 1.8 1.8 0.1 0.2 0 0.2-0.1 0.2 0 0-0.7 0-0.7 0 0 0 0.9 1.7 1.2 2.3 0.6 1.3 0.3 2.4 0.1 2.8-0.5 0.9-1.2 1.7-2.1 2.5-0.2 0.7-0.5 3.9 2.5 4 0.5 0 2 0.2 5.1-2.3 0.7-0.6 1.5-1.3 2.2-2.2 0.2-0.4 0.4-1.1-0.1-1-0.5 0.1-3.6 1.2-4.1-0.7-0.1-0.5 0.2-5 3.2-2.8 0.3 0.2 1 0.8 1.4 1.6 0.5-0.2 1.5-0.8 2.7-1.7 0.3-0.3 0.7-0.5 0.6 0 0 0.4-0.2 3 2.6 2.2 0.4-0.1 1.6-0.3 2.4-2.6 0.3-0.5 0.6-0.4 0.4 0.1-0.2 0.5-0.5 1-0.2 1.3 0.3 0.2 1.1 0.8 2.1 0.7 0.3-0.1 0.5-0.2 0.4-0.5-0.1-0.3-0.5-0.9-0.5-0.9 0.1-0.3 0.2-0.9 0.3-1.1 0-0.1 0.1-0.3 0.2-0.1 0.1 0.1 1.1 1.3 0.5 2.9zm-12.8 0.2c-1-1.4-2.2-0.6-2.4-0.5-0.1 0.2-0.2 0.6 0.8 0.6 1.2 0.1 1.6-0.1 1.6-0.1z"/>
		<path id="&lt;Path&gt;" class="s0" d="m16.7 10.6c0 0-0.1 0.4-0.2 0.7-0.4 1.4-0.1 2 0 2.1 0.4 0.7 0.9 0.3 1-0.2 0.1-0.3 0.2-0.2 0.2 0q0 0.1-0.1 0.4c-0.2 0.9-0.5 1.1-0.8 1.1-0.5 0-0.8-0.7-0.8-1-0.2-1.5 0.4-2.8 0.5-3.2 0.1-0.4 0.3-0.2 0.2 0.1z"/>
		<path id="&lt;Path&gt;" class="s0" d="m36.6 9.5l1.2 0.9 0.6-0.9q0.1-0.1 0.1 0l1.3 0.9q0.1 0 0 0.1l-0.7 1q-0.1 0.1-0.1 0l-1.2-0.9-0.7 0.9q0 0.1-0.1 0l-1.3-0.9q0 0 0-0.1l0.8-1q0-0.1 0.1 0z"/>
		<path id="&lt;Path&gt;" class="s0" d="m62.3 9.5c0 0-0.1 0.4-0.2 0.6-0.4 1.1-0.2 1.6-0.1 1.7 0.3 0.6 0.7 0.3 0.9-0.1 0-0.3 0.1-0.1 0.1-0.1q0 0.1-0.1 0.4c-0.2 0.7-0.5 0.8-0.7 0.8-0.4 0-0.6-0.5-0.6-0.8-0.1-1.2 0.4-2.2 0.6-2.5 0.1-0.3 0.2-0.2 0.1 0z"/>
		<path id="&lt;Path&gt;" class="s0" d="m12.5 9.3c0 0 0.1 0.6 0.3 1 0.2 0.3 0.3 0.7 0.3 1.2-0.1 0.5-0.4 0.9-0.7 1-0.3 0.1-0.8 0.1-1.2-0.4-0.5 0.9-1.1 1.1-1.5 0.8-0.4-0.2-0.5-0.9-0.4-1.1 0-0.2-0.1-0.9-0.1-1.1 0-0.2 0.1-0.3 0.2-0.5 0.1-0.2 0.2-0.1 0.2 0.1 0 0.3-0.2 1.2 0 1.6 0.5 0.6 1.3 0.1 1.4-0.2 0.2-0.3-0.2-1.4-0.2-1.5q-0.1 0 0-0.1c0-0.1 0-0.4 0.1-0.6q0.1-0.2 0.2 0.1c0.1 0.1 0.1 0.4 0.3 1.4 0.1 0.9 1 0.7 1.2 0.6 0.2 0 0.2-0.2 0.1-0.3 0-0.1-0.4-0.9-0.5-1.2-0.1-0.4-0.1-0.6 0-0.9 0.1-0.3 0.2-0.1 0.3 0.1z"/>
		<path id="&lt;Path&gt;" class="s0" d="m49.7 8.9c0 0-0.1 0.3-0.2 0.6-0.4 1.2-0.2 1.7-0.2 1.8 0.4 0.6 0.8 0.3 1-0.1 0.1-0.3 0.2-0.1 0.1 0q0 0.1 0 0.3c-0.3 0.8-0.6 0.9-0.8 0.9-0.5 0-0.7-0.6-0.7-0.9-0.1-1.3 0.5-2.4 0.6-2.7 0.2-0.3 0.3-0.2 0.2 0.1z"/>
		<path id="&lt;Path&gt;" class="s0" d="m20.1 4.3c0 0-0.1 0.6-0.2 0.9-0.6 1.9-0.3 2.7-0.2 2.9 0.4 0.9 0.9 0.5 1.2-0.2 0.1-0.4 0.2-0.2 0.1-0.1q0 0.2-0.1 0.6c-0.3 1.1-0.6 1.4-0.9 1.4-0.6 0-0.9-0.9-0.9-1.4-0.1-2 0.6-3.7 0.8-4.2 0.2-0.5 0.3-0.3 0.2 0.1z"/>
		<path id="&lt;Path&gt;" class="s0" d="m15.9 3.8c0 0-0.1 0.3-0.2 0.5-0.4 1-0.2 1.5-0.1 1.6 0.3 0.6 0.7 0.3 0.8-0.1 0.1-0.2 0.2-0.1 0.2 0q-0.1 0.1-0.1 0.3c-0.2 0.7-0.5 0.8-0.7 0.8-0.4 0-0.6-0.5-0.6-0.8-0.1-1.1 0.4-2.1 0.6-2.4 0.1-0.3 0.2-0.2 0.1 0.1z"/>
		<path id="&lt;Path&gt;" class="s0" d="m48.6 3.7c-0.1 0.2-0.1 0.2-0.2 0.4-0.1 0.2-0.2 0.3-0.4 0.4-0.3 0.2-6.9 4-7 4.1-0.4 0.2-0.4 0-0.3-0.1q0 0 0.1-0.3c0-0.3 0.1-0.3 0.4-0.5 0.2-0.1 6.8-3.9 7.1-4.1 0.4-0.2 0.3-0.1 0.3 0.1z"/>
		<path id="&lt;Path&gt;" class="s0" d="m56.6 4.1c0.1 0.3 0 0.8-0.1 1.1-0.1 0.2-0.3 0-0.4-0.2 0 0-0.2-0.1-0.3-0.3-0.7-0.5-0.9 0.6-1 1.1-0.1 0.4-0.1 1.6-0.2 2.3-0.1 0.3-0.3 0.3-0.4 0.1-0.4-1.6-1.3-2.3-1.4-2.4-0.2-0.2-0.3 0-0.3 0.1-0.1 0.1-0.1 0.1-0.2 0.1-0.1 0-0.6-0.4-0.8-0.5-0.1-0.2-0.1-0.8-0.1-1 0.1-0.4 0.3-0.6 0.5-0.5 1.7 1 2.3 2.7 2.4 3 0.1-1.3 0.1-2.5 0.8-3.3 0.6-0.8 1.4 0.3 1.5 0.4z"/>
		<path id="&lt;Path&gt;" class="s0" d="m12.3 4.1c0.1 0.2 0 0.7-0.1 1-0.1 0.2-0.3 0-0.4-0.2 0 0-0.2-0.1-0.3-0.2-0.7-0.6-0.9 0.5-1 1 0 0.3-0.1 1.5-0.2 2.2 0 0.2-0.2 0.2-0.3 0-0.4-1.4-1.2-2.1-1.4-2.3q0 0-0.1 0c0.1 0.1 0.1 0.3 0.1 0.5-0.3 1.9-2.1 2.6-2.5 2.8-0.3 0.2-0.3 0.1 0-0.3 0.3-0.3 1.7-1.8 2-2 0.6-0.7-0.5-1.1-0.7-1.3-0.1-0.1-0.1-0.7 0-0.9 0-0.4 0.2-0.5 0.3-0.5 1.7 1 2.3 2.7 2.4 2.9 0.1-1.2 0.1-2.3 0.8-3.2 0.5-0.7 1.3 0.3 1.4 0.5z"/>
		<path id="&lt;Compound Path&gt;" fill-rule="evenodd" class="s0" d="m63.1 6.9c-0.1 0.2-0.1 0.1-0.3-0.1-0.1-0.1-0.2-0.3-0.5-0.5-0.3 0.6-0.2 0.7-1.3 1.7-2.5 2-5.1 2.8-5.3 2.8-0.1 0.1-0.2-0.1 0.1-0.2 0.8-0.7 4.3-2.2 6.1-4.4 0 0-0.6-0.2-1-0.5-0.3-0.3-0.1-1.3 0.1-1.7 0.7-1.1 1.3-0.5 1.4-0.3 0.6 1 0.3 2 0.3 2 0.3 0.2 0.6 0.6 0.4 1.2zm-1.1-2.6c-0.2-0.1-0.3-0.1-0.7 0.4-0.1 0.1 0 0.3 0.2 0.4 0.3 0.1 0.8 0.3 0.8 0.3 0-0.1 0.1-0.7-0.3-1.1z"/>
		<path id="&lt;Compound Path&gt;" fill-rule="evenodd" class="s0" d="m38.2 6.5c-0.1 0.2-0.1 0.1-0.3-0.1 0-0.1-0.5-0.4-0.5-0.4 0 0-0.5 1.1-1.4 1.8-1.6 1.2-3 1.5-3.1 1.5-0.2 0-0.2-0.1 0-0.3 1.1-0.6 2.3-1 4.1-3.2 0 0-0.6-0.2-1-0.5-0.3-0.3-0.1-1.2 0.1-1.7 0.7-1 1.3-0.5 1.4-0.3 0.6 1 0.3 2 0.3 2 0.3 0.2 0.6 0.6 0.4 1.2zm-1.1-2.6c-0.2-0.1-0.4-0.1-0.7 0.4-0.1 0.2 0 0.3 0.2 0.4 0.3 0.1 0.8 0.3 0.8 0.3 0-0.1 0.1-0.7-0.3-1.1z"/>
		<path id="&lt;Path&gt;" class="s0" d="m23.9 2.2c0 0.1 1.4 3.4 1.5 3.6 0 0.2-0.1 0.3-0.3 0.2-0.1-0.1-0.8-0.9-0.8-0.9 0 0 1.2 8.1 1.3 9.1 0.1 1-0.6 1.8-0.6 1.8 2 0.6 4.2 0.9 6 1.1-0.5-3.9-1.5-11.5-1.7-13 0-0.1-0.1-0.6-0.1-0.7 0 0 0.4-1.1 0.5-1.3 0.1-0.1 0.1 0 0.2 0.1 0 0.1 1.5 3.9 1.6 4.1 0.1 0.2-0.1 0.2-0.2 0.1-0.1-0.1-0.9-0.8-0.9-0.8 0 0 1.3 10.1 1.4 10.4q0 0.6 0.1 1.2c1.5 0.1 2.5 0.1 2.7 0.1 0 0-0.3 1.1-0.5 1.6 0 0-1-0.1-2.1-0.2q0.1 1 0 1.6c-0.1 1.3-0.3 1.8-0.4 1.9-0.1 0.2-0.2 0.1-0.1-0.1-0.1-0.7-0.2-2-0.3-3.4q-0.7 0-1.3 0.1c-1.7 0.2-6.2 1.8-7.4 2.2-1.2 0.3-3 0.2-3.5 0.1-0.3 2.6-0.8 2.9-1.1 3.2-0.3 0.3-2 1.3-2.9 1.7-5.3 2.4-7.6 0.7-8.1 0.5-3.5-2.2-1.2-7-1-7.5q0.1-0.1 0.1-0.2c-0.4-0.3-0.7-1-0.7-1.4-0.3-2.4 0.5-4.4 0.7-5 0.1-0.6 0.3-0.4 0.2 0.1 0 0-0.1 0.6-0.2 1.1-0.6 2.2-0.2 3.2-0.1 3.4 0.6 1 1.3 0.4 1.5-0.4 0.1-0.4 0.3-0.2 0.2 0 0 0.1 0 0.3-0.1 0.6-0.2 1.4-0.7 1.7-1 1.8q-0.1 0-0.2 0 0 0 0 0.1c-1.1 2.5-0.5 4.3-0.3 4.6 1.5 2.7 5 2 5.6 1.9 4.4-0.8 6.3-2.7 6.5-2.9 0.3-0.3 0.2-0.5 0.2-0.6-0.2-1.5-1-3.1-1.3-3.7 0 0 0.2-0.9 0.4-1.2 0.1-0.2 0.2-0.2 0.3 0 0.1 0.2 0.4 0.9 0.4 1 0.6 1.3 1.6 1.4 1.8 1.4 2.2 0.5 6.5-1.3 7.1-1.5-1.7-0.6-5.4-1.6-6.9-1.2-0.1 0-0.3 0-0.2-0.2 0.1-0.1 0.3-0.7 0.4-0.9 0.1-0.2 0.2-0.2 0.3-0.3 0.8-0.3 3.9-0.3 4.2-0.5 0-0.1 0-0.5 0-1.1-0.1-0.6-1.2-7.6-1.2-7.6-0.1-0.8-0.2-1.6-0.3-2.1 0-0.5-0.2-0.8-0.2-0.9 0 0 0.5-1.1 0.6-1.2 0.1-0.2 0.1-0.1 0.2 0.1z"/>
	</g>
</svg>