<svg version="1.2" xmlns="http://www.w3.org/2000/svg" viewBox="0 0 70 30" width="70" height="30">
	<title>New Project</title>
	<style>
		.s0 { fill: #191c4f } 
	</style>
	<g id="المزمل">
		<path id="&lt;Path&gt;" class="s0" d="m16.6 22.3c-0.1 0.1-0.1 0.2-0.2 0.3-0.1 0.2-0.2 0.3-0.4 0.4-0.2 0.1-5.3 2.1-5.4 2.2-0.4 0.2-0.3 0-0.3-0.1q0 0 0.1-0.3c0-0.2 0.1-0.2 0.4-0.3 0.2-0.2 5.3-2.2 5.5-2.3 0.4-0.2 0.4 0 0.3 0.1z"/>
		<path id="&lt;Path&gt;" class="s0" d="m24.8 20.3c0 0.1-0.1 0.2-0.1 0.3-0.1 0.2-0.3 0.3-0.5 0.4-0.1 0.1-5.3 2.1-5.4 2.2-0.4 0.2-0.3 0-0.3-0.1q0 0 0.1-0.3c0.1-0.2 0.1-0.2 0.4-0.3 0.2-0.2 5.3-2.2 5.6-2.3 0.3-0.2 0.3 0 0.2 0.1z"/>
		<path id="&lt;Path&gt;" class="s0" d="m31.6 20.2c0 0-0.1 0.2-0.1 0.4-0.4 1-0.2 1.5-0.1 1.6 0.2 0.5 0.6 0.2 0.8-0.1 0-0.2 0.1-0.1 0.1 0q-0.1 0-0.1 0.3c-0.2 0.6-0.4 0.7-0.6 0.7-0.4 0-0.6-0.5-0.6-0.7-0.1-1.1 0.4-2 0.5-2.3 0.1-0.3 0.2-0.2 0.1 0.1z"/>
		<path id="&lt;Path&gt;" class="s0" d="m63.9 19.8c0 0 0 0.3 0 0.5 0.1 0.3-0.1 0.6-0.2 1-0.1 0.3-0.8 0.4-1.3 0.1-0.8 1.3-1.5 0.6-1.9 0.5-0.8-0.3-1 0.2-1.2 0.4-0.9 1-2.5 1-2.9 1-0.4 0-0.1-0.2 0.1-0.3 1.3-0.4 2.1-0.5 3.3-1.6 0.5-0.5 0.8-0.3 1-0.2 1.1 0.5 1.2 0 1.4-0.1 0.1-0.2 0.3-0.8 0.4-0.9 0.1-0.2 0.2-0.1 0.1 0.1 0 0.1 0 0.3-0.1 0.4 0.5 0.3 1 0 1.1 0 0 0-0.1-0.4-0.1-0.5q0-0.2 0.1-0.6c0.1-0.3 0.2 0 0.2 0.2z"/>
		<path id="&lt;Path&gt;" class="s0" d="m27 12.9l1.1 0.8q0 0.1 0 0.1l-0.7 0.9q0 0 0 0l-1.2-0.8q0 0 0-0.1l0.7-0.9q0 0 0.1 0z"/>
		<path id="&lt;Compound Path&gt;" fill-rule="evenodd" class="s0" d="m43.6 18.3c-0.3 1-1.9 1.6-2.2 1.7-1.4 0.5-1.5-0.9-1.4-1.9 0.1-1 0.8-2.3 0.8-2.3-0.1 0-1.5-1.2-1.6-1.3-0.1-0.1-0.3-0.2-0.4-0.3-0.1-0.1-0.1-0.2-0.1-0.2 0 0 0-1 0-1.1 0-0.2 0.1-0.1 0.2 0 0.1 0 1.7 0.6 1.8 0.7 0.2 0.1 0.1 0.2 0 0.2 0 0.1-0.6 0.2-0.6 0.2l1.3 0.9c0 0 1.8-2.3 2-2.5 0.2-0.3 0.1-0.1 0.1 0.1 0 0.2-0.4 1.2-0.5 1.4 0 0.1-1 1.4-1 1.4 0 0 1.2 0.7 1.5 1.1 0.5 0.8 0.2 1.5 0.1 1.9zm-2.2-2.1c0 0-0.8 1.4-1 1.6-0.3 0.8 0.5 1 0.8 0.9 0.3 0 1.4-0.5 1.9-1 0.5-0.4-1.4-1.3-1.7-1.5z"/>
		<path id="&lt;Path&gt;" class="s0" d="m21.7 11.6c0 0 0.1 0.5 0.3 0.7 0.1 0.3 0.2 0.6 0.1 1 0 0.4-0.2 0.7-0.4 0.8-0.3 0-0.7 0-1-0.4-0.4 0.7-0.9 0.9-1.2 0.7-0.3-0.1-0.3-0.7-0.3-0.9 0-0.2 0-0.7 0-0.9 0-0.1 0-0.2 0.1-0.3 0.1-0.2 0.1-0.1 0.1 0.1 0 0.2-0.1 0.9 0.1 1.2 0.3 0.4 0.9 0 1.1-0.2 0.1-0.2-0.2-1.1-0.2-1.1q-0.1-0.1 0-0.1c0-0.1 0-0.3 0-0.4q0.1-0.2 0.2 0c0.1 0.1 0.1 0.3 0.2 1.1 0.2 0.7 0.9 0.6 1 0.5 0.2-0.1 0.1-0.2 0.1-0.3 0-0.1-0.3-0.7-0.4-0.9-0.1-0.3-0.1-0.5 0-0.7 0.1-0.3 0.1-0.1 0.2 0.1z"/>
		<path id="&lt;Compound Path&gt;" fill-rule="evenodd" class="s0" d="m65.6 17c-0.1 0.2-0.4 1.2-1.8 0.9-0.4 0-1.1-0.2-1.4-1-0.4 0.5-1.2 1.9-2.9 1.6-0.4 0-1.5-0.5-1.6-1.9 0 0-1.3 1.1-2 1.4 0.1 0.5 0 1.1-0.2 1.8-0.3 0.6-3.2 4-5.6 4.5-0.8 0.2-3.8 0.7-4-2.7 0-0.7 0.1-1.2 0.1-1.6-1.9 1.4-4.2 2.6-4.8 2.9-1 0.5-4.5 1-5.1 1.2-0.4 0-0.5-0.1-0.3-0.2 0.3-0.2 8.1-2.8 12.1-7q0.1-0.2 0-0.5c-0.2-0.3-1.4-2.7-1.5-3-0.2-0.3-0.3-0.7-0.4-0.8-0.1-0.1-0.1-0.3 0-0.4 0-0.1 0.1-0.8 0.1-0.9 0.1-0.2 0.2-0.1 0.2 0 0.1 0.1 1.4 1.4 1.5 1.5 0.2 0.2 0.1 0.3 0 0.3-0.1 0-0.7 0-0.7 0 0 0 0.9 1.4 1.1 1.9 0.5 1.2 0.2 2.1 0.1 2.5-0.4 0.7-1.1 1.5-1.9 2.1-0.1 0.6-0.3 3.4 2.3 3.5 0.4 0 1.7 0.2 4.4-2 0.6-0.5 1.3-1.1 1.9-1.9 0.2-0.3 0.3-0.9-0.1-0.9-0.4 0.1-3.2 1.1-3.6-0.6 0-0.4 0.2-4.3 2.9-2.4 0.2 0.2 0.8 0.7 1.1 1.4 0.5-0.2 1.3-0.7 2.4-1.5 0.3-0.2 0.6-0.4 0.5 0 0 0.4-0.2 2.6 2.3 1.9 0.3 0 1.3-0.2 2.1-2.2 0.2-0.4 0.5-0.4 0.3 0-0.2 0.5-0.4 0.9-0.2 1.1 0.2 0.3 0.9 0.8 1.8 0.7 0.3-0.1 0.5-0.2 0.4-0.5-0.1-0.2-0.4-0.7-0.4-0.7 0-0.3 0.2-0.8 0.2-1 0-0.1 0.1-0.2 0.2-0.1 0.1 0.1 0.9 1.2 0.5 2.6zm-11.2 0.1c-0.9-1.2-1.9-0.5-2.1-0.4-0.1 0.1-0.2 0.5 0.7 0.5 1 0.1 1.4-0.1 1.4-0.1z"/>
		<path id="&lt;Path&gt;" class="s0" d="m10.2 14.8c0 0-0.1 0.3-0.1 0.5-0.4 1.2-0.2 1.7-0.2 1.8 0.3 0.6 0.8 0.3 0.9-0.1 0.1-0.2 0.2-0.1 0.2 0q-0.1 0.1-0.1 0.3c-0.2 0.7-0.5 0.9-0.7 0.9-0.5 0-0.7-0.6-0.7-0.9-0.1-1.2 0.5-2.3 0.6-2.6 0.1-0.3 0.2-0.2 0.1 0.1z"/>
		<path id="&lt;Path&gt;" class="s0" d="m13 10.5c0 0-0.1 0.3-0.2 0.5-0.3 1-0.1 1.4-0.1 1.5 0.3 0.5 0.7 0.3 0.8-0.1 0.1-0.2 0.1-0.1 0.1 0q0 0.1 0 0.3c-0.2 0.6-0.5 0.7-0.7 0.7-0.3 0-0.5-0.5-0.5-0.7-0.1-1.1 0.4-2 0.5-2.3 0.1-0.2 0.2-0.1 0.1 0.1z"/>
		<path id="&lt;Path&gt;" class="s0" d="m42.1 9.9l1.1 0.8q0.1 0 0 0.1l-0.6 0.9q-0.1 0-0.1 0l-1.1-0.8-0.5 0.8q-0.1 0-0.1 0l-1.1-0.8q-0.1-0.1 0-0.1l0.6-0.9q0 0 0.1 0l1.1 0.8 0.5-0.8q0.1 0 0.1 0z"/>
		<path id="&lt;Path&gt;" class="s0" d="m62.7 9.9c0 0 0 0.3-0.1 0.5-0.3 1-0.2 1.4-0.1 1.5 0.2 0.5 0.6 0.2 0.7-0.1 0.1-0.2 0.2-0.1 0.1 0q0 0.1 0 0.3c-0.2 0.6-0.4 0.7-0.6 0.7-0.4 0-0.5-0.5-0.6-0.7 0-1.1 0.4-2 0.5-2.2 0.1-0.3 0.2-0.2 0.1 0z"/>
		<path id="&lt;Path&gt;" class="s0" d="m51.8 9.4c0 0-0.1 0.3-0.2 0.5-0.4 1-0.2 1.5-0.1 1.6 0.3 0.5 0.7 0.3 0.8-0.1 0.1-0.2 0.2-0.1 0.1 0q0 0 0 0.3c-0.2 0.6-0.5 0.8-0.7 0.8-0.4 0-0.6-0.6-0.6-0.8 0-1.2 0.4-2.1 0.5-2.4 0.2-0.3 0.3-0.2 0.2 0.1z"/>
		<path id="&lt;Path&gt;" class="s0" d="m26.5 7c0 0 0.1 0.5 0.3 0.8 0.1 0.2 0.2 0.5 0.1 0.9 0 0.4-0.2 0.7-0.4 0.8-0.3 0.1-0.7 0.1-1-0.3-0.4 0.7-0.9 0.8-1.2 0.6-0.3-0.1-0.3-0.7-0.3-0.9 0-0.1 0-0.7 0-0.8 0-0.2 0-0.3 0.1-0.4 0-0.1 0.1-0.1 0.1 0.1 0 0.2-0.1 0.9 0.1 1.2 0.3 0.5 0.9 0.1 1-0.2 0.2-0.2-0.1-1-0.1-1.1q-0.1 0-0.1-0.1c0.1 0 0.1-0.3 0.1-0.4q0.1-0.2 0.2 0c0.1 0.1 0.1 0.3 0.2 1.1 0.1 0.7 0.8 0.6 1 0.5 0.2-0.1 0.1-0.1 0.1-0.2-0.1-0.1-0.3-0.7-0.4-1-0.1-0.3-0.1-0.5 0-0.7 0.1-0.2 0.1-0.1 0.2 0.1z"/>
		<path id="&lt;Compound Path&gt;" fill-rule="evenodd" class="s0" d="m30 9c0 0.1-0.1 0-0.2-0.1 0-0.1-0.3-0.4-0.3-0.4 0 0-1 1.6-2.1 2.4-1.3 0.8-2.3 1.2-2.3 1.2-0.2 0-0.2-0.1 0-0.2 0.8-0.4 2.7-1.9 4-3.5 0 0-0.4-0.2-0.6-0.4-0.3-0.2-0.2-0.9 0.1-1.2 0.5-0.8 0.9-0.4 1-0.3 0.4 0.8 0.2 1.5 0.2 1.5 0.2 0.2 0.4 0.5 0.2 1zm-0.8-2c-0.1-0.1-0.2-0.1-0.5 0.3 0 0.1 0 0.2 0.2 0.3 0.2 0.1 0.6 0.2 0.6 0.2 0-0.1 0-0.5-0.3-0.8z"/>
		<path id="&lt;Path&gt;" class="s0" d="m12.2 5.8c0.2 0.2 0.1 0.7 0 1 0 0.2-0.2 0-0.3-0.2 0 0-0.2-0.1-0.3-0.2-0.6-0.4-0.8 0.5-0.8 1 0 0.3 0 1.4-0.1 2q0 0.1 0 0.1c0 0.5-0.1 1.2-1 1.8-1 0.8-1.1 0.8-1.2 0.9-0.1 0-0.1-0.1 0.1-0.2 0.1-0.1 2-2 1.8-2.8-0.4-1-1.2-1.6-1.3-1.7-0.2-0.2-0.3 0.1-0.3 0.1 0 0.1-0.1 0.1-0.1 0.1-0.1 0-0.6-0.3-0.7-0.4-0.2-0.2-0.1-0.7-0.1-0.9-0.1-0.3 0.2-0.5 0.3-0.4 1.6 0.7 2.1 2.2 2.2 2.5 0-1.2 0-2.2 0.6-3 0.4-0.7 1.2 0.2 1.2 0.3z"/>
		<path id="&lt;Path&gt;" class="s0" d="m50.8 4.9c0 0.1-0.1 0.1-0.1 0.3-0.1 0.2-0.2 0.3-0.4 0.4-0.2 0.1-6 3.4-6.1 3.5-0.3 0.2-0.3 0.1-0.2 0q0-0.1 0-0.4c0.1-0.1 0.2-0.2 0.4-0.3 0.2-0.2 5.9-3.5 6.1-3.6 0.4-0.2 0.3-0.1 0.3 0.1z"/>
		<path id="&lt;Path&gt;" class="s0" d="m57.8 5.2c0.1 0.3 0 0.7-0.1 1-0.1 0.2-0.2 0-0.3-0.2 0 0-0.2-0.1-0.3-0.2-0.6-0.5-0.8 0.4-0.9 0.9 0 0.3-0.1 1.4-0.2 2 0 0.3-0.2 0.3-0.3 0.1-0.3-1.4-1.1-2-1.2-2.1-0.2-0.2-0.3 0-0.3 0.1 0 0.1-0.1 0.1-0.2 0.1 0-0.1-0.5-0.4-0.6-0.5-0.2-0.1-0.1-0.6-0.1-0.9 0-0.3 0.3-0.4 0.4-0.4 1.5 0.9 2 2.4 2.1 2.7 0.1-1.2 0.1-2.2 0.7-3 0.5-0.6 1.2 0.3 1.3 0.4z"/>
		<path id="&lt;Compound Path&gt;" fill-rule="evenodd" class="s0" d="m63.4 7.7c0 0.1-0.1 0-0.2-0.1-0.1-0.1-0.2-0.3-0.4-0.4-0.3 0.5-0.2 0.5-1.2 1.4-2.1 1.8-4.4 2.4-4.6 2.5-0.1 0-0.1-0.1 0.1-0.3 0.7-0.5 3.7-1.9 5.3-3.8 0 0-0.5-0.2-0.8-0.4-0.4-0.3-0.2-1.1 0-1.5 0.6-0.9 1.2-0.4 1.2-0.3 0.6 0.9 0.3 1.8 0.3 1.8 0.3 0.2 0.5 0.5 0.3 1.1zm-0.9-2.3c-0.2-0.1-0.3-0.1-0.6 0.3-0.1 0.2 0 0.3 0.2 0.4 0.2 0.1 0.6 0.3 0.6 0.3 0-0.2 0.1-0.7-0.2-1z"/>
		<path id="&lt;Path&gt;" class="s0" d="m17.5 4.8c0 0-0.1 0.3-0.1 0.5-0.4 1-0.2 1.4-0.1 1.5 0.2 0.5 0.6 0.2 0.7-0.1 0.1-0.2 0.2-0.1 0.2 0q-0.1 0.1-0.1 0.3c-0.2 0.6-0.4 0.7-0.6 0.7-0.4 0-0.6-0.5-0.6-0.7-0.1-1.1 0.4-2 0.5-2.3 0.1-0.3 0.2-0.1 0.1 0.1z"/>
		<path id="&lt;Compound Path&gt;" fill-rule="evenodd" class="s0" d="m24.3 18.3c-0.1 0.8-0.8 0.9-1.1 0.9-1.5-0.1-2.1-0.6-2.3-0.8 0 0-0.3 0.8-0.4 1.1-0.7 1.4-2.3 1.3-2.7 1.3-1.6-0.3-2-2.7-2.2-3 0 0 0 0.4-0.5 1.1-0.9 1.4-2.6 2.5-3.3 2.9-3.2 2-5.1 0.8-5.6 0.3-2.3-1.9-0.6-5.6-0.4-6q0-0.1 0-0.1c-0.5-0.2-0.7-1-0.7-1.5-0.1-2 0.7-3.8 0.8-4.3 0.2-0.5 0.4-0.2 0.3 0.2 0 0-0.2 0.5-0.3 0.9-0.6 1.9-0.3 2.7-0.2 2.9 0.4 1 1 0.5 1.3-0.2 0.1-0.4 0.2-0.2 0.2 0q-0.1 0.2-0.2 0.6c-0.2 1-0.6 1.3-0.9 1.4q0 0.1-0.1 0.1c-1 2.3-0.1 4 0.1 4.4 1 1.4 3 1 3.3 1 2.7-0.4 5.1-3.1 5.6-3.7 0.6-0.7 0.4-1.2 0.4-1.4 0-0.2-0.3-2-0.3-2.4-0.1-0.5-1.1-6.7-1.2-7.2-0.1-0.4-0.1-0.9-0.1-1.1 0.1-0.2 0.3-1.1 0.4-1.2 0-0.1 0.1-0.2 0.2 0.1 0 0.2 0.8 4.6 0.9 5.2 0.1 0.7 0.7 5 0.7 5.5 0.1 0.5 0.3 2 0.6 2.9 0.5 1.2 1.5 1.3 2 1.3 1.4 0 1.9-1.4 2.1-2 0.3-0.7 0.8-1.5 1.2-1.9 0.5-0.5 1.1-0.2 1.3 0 1.1 1.2 1.1 2.4 1.1 2.7zm-1-0.8c-0.2-0.3-0.7-1.1-1.3-0.8-0.4 0.3-0.5 0.6-0.5 0.6 0.1 0.1 0.7 0.5 1.5 0.5 0.2 0 0.4 0 0.3-0.3z"/>
		<path id="&lt;Compound Path&gt;" fill-rule="evenodd" class="s0" d="m35.8 20.3c-0.5 1.1-1.8 0.2-2 0-0.4-0.4-0.7-0.9-0.9-1.4-0.4 0.1-0.8 0.3-1 0.3-1.4 0.6-2.6 0.5-3.2 0.4 0 0.8-0.1 1.3-0.2 1.5-0.5 1.6-5.1 3.8-5.8 4.1 0 0-4.6 0.8-5.1 0.8-0.5 0-0.1-0.2 0.3-0.3 0 0 8.7-2.8 10.3-5.3 0.3-0.4-0.7-2.4-0.9-3 0 0 0.1-0.8 0.2-0.9 0-0.2 0.1-0.4 0.2-0.2q0.5 0.9 0.7 1.6c1.7 1 3.4 0.1 3.9-0.1q0.1 0 0.3-0.1c-0.1-0.4-0.2-0.7-0.2-0.8-0.1-0.3-1.3-8.8-1.3-8.8-0.1-0.7-0.2-1.4-0.2-1.8-0.1-0.5-0.2-0.8-0.2-0.8 0 0 0.4-1 0.5-1.1 0-0.1 0.1-0.1 0.1 0.1 0.1 0.1 1.2 3 1.3 3.2 0 0.1-0.1 0.2-0.2 0.1-0.1-0.1-0.6-0.6-0.7-0.7 0.1 0.3 0.9 5.8 0.9 5.8 0 0 0.6 3.6 0.7 4.1q0.1 0.2 0.1 0.4 0.3-0.1 0.4-0.1c1.4-0.3 1.7 0 1.9 0.2 1 0.8 0.2 2.7 0.1 2.8zm-0.3-1.3c-0.1-0.2-0.4-0.4-1-0.5q-0.2 0-0.6 0.1 0.1 0.2 0.2 0.3c0.4 0.5 1 0.6 1.3 0.6 0.3-0.1 0.2-0.3 0.1-0.5z"/>
		<path id="&lt;Path&gt;" class="s0" d="m35.9 4.5c0 0.1 1.3 3.3 1.4 3.5 0.1 0.2-0.1 0.2-0.2 0.1-0.1-0.1-0.7-0.7-0.7-0.7 0 0 1.2 8.8 1.2 9 0.3 1.7 0.3 3 0.3 3.8-0.1 1.1-0.3 1.5-0.3 1.6-0.1 0.2-0.2 0.1-0.2-0.1 0-0.6-0.1-1.8-0.3-3.1-0.3-2.6-1.5-11-1.7-12.4 0-0.2-0.1-0.6-0.1-0.7 0 0 0.4-1 0.4-1.1 0.1-0.1 0.1-0.1 0.2 0.1z"/>
		<path id="&lt;Compound Path&gt;" fill-rule="evenodd" class="s0" d="m41.8 7.3c-0.1 0.2-0.1 0.1-0.2-0.1-0.1 0-0.5-0.3-0.5-0.3 0 0-0.4 0.9-1.2 1.5-1.4 1.1-2.6 1.3-2.7 1.3-0.1 0.1-0.2-0.1 0-0.2 0.9-0.5 2-0.9 3.5-2.8 0 0-0.4-0.2-0.8-0.4-0.3-0.3-0.1-1.1 0.1-1.5 0.6-0.9 1.1-0.4 1.2-0.3 0.5 0.9 0.2 1.8 0.2 1.8 0.3 0.1 0.6 0.5 0.4 1zm-1-2.2c-0.1-0.1-0.3-0.1-0.6 0.3-0.1 0.1 0.1 0.3 0.2 0.4 0.2 0 0.7 0.2 0.7 0.2 0-0.1 0.1-0.6-0.3-0.9z"/>
		<path id="&lt;Path&gt;" class="s0" d="m21 4.5c0 0-0.1 0.4-0.3 0.7-0.5 1.7-0.3 2.4-0.2 2.6 0.3 0.8 0.9 0.4 1.1-0.2 0.1-0.3 0.2-0.1 0.2 0q0 0.2-0.1 0.5c-0.3 1-0.7 1.2-1 1.2-0.6 0-0.8-0.9-0.8-1.3 0-1.7 0.7-3.2 0.9-3.7 0.2-0.4 0.3-0.2 0.2 0.2z"/>
		<path id="&lt;Path&gt;" class="s0" d="m29.2 3.2c-0.1 0.1-0.1 0.1-0.2 0.3-0.1 0.2-0.2 0.2-0.4 0.4-0.2 0.1-5.4 2.1-5.5 2.1-0.3 0.2-0.3 0.1-0.2 0q0-0.1 0.1-0.3c0-0.2 0.1-0.2 0.3-0.4 0.3-0.1 5.4-2.1 5.6-2.2 0.4-0.2 0.3-0.1 0.3 0.1z"/>
	</g>
</svg>