<svg version="1.2" xmlns="http://www.w3.org/2000/svg" viewBox="0 0 70 30" width="70" height="30">
	<title>New Project</title>
	<style>
		.s0 { fill: #191c4f } 
	</style>
	<g id="المدثر">
		<path id="&lt;Path&gt;" class="s0" d="m16.9 21.5c0 0.1 0 0.2-0.1 0.3-0.1 0.2-0.2 0.3-0.4 0.4-0.2 0.1-3.7 1.4-3.8 1.4-0.3 0.2-0.3 0.1-0.2 0q0-0.1 0-0.3c0.1-0.2 0.2-0.2 0.4-0.4 0.2-0.1 3.7-1.4 3.9-1.5 0.3-0.2 0.3 0 0.2 0.1z"/>
		<path id="&lt;Path&gt;" class="s0" d="m26.2 21c0 0-0.1 0.3-0.1 0.5-0.4 0.9-0.2 1.4-0.2 1.5 0.3 0.4 0.7 0.2 0.8-0.2 0.1-0.1 0.1 0 0.1 0q0 0.1-0.1 0.3c-0.1 0.6-0.4 0.7-0.6 0.7-0.3 0-0.5-0.4-0.5-0.7-0.1-1 0.4-1.9 0.5-2.1 0.1-0.3 0.2-0.2 0.1 0z"/>
		<path id="&lt;Path&gt;" class="s0" d="m64 20.5c0 0 0 0.3 0 0.5 0 0.3-0.1 0.6-0.2 0.9-0.1 0.4-0.8 0.5-1.3 0.2-0.8 1.2-1.5 0.6-1.9 0.4-0.7-0.2-0.9 0.2-1.1 0.4-0.8 1-2.4 1-2.8 1-0.4 0-0.1-0.2 0.1-0.3 1.2-0.4 2-0.5 3.2-1.5 0.5-0.6 0.8-0.3 1-0.2 1 0.4 1.2 0 1.3-0.2 0.1-0.1 0.3-0.7 0.4-0.8 0.1-0.2 0.2-0.1 0.1 0.1 0 0.1 0 0.3-0.1 0.4 0.5 0.3 0.9 0 1 0 0 0 0-0.4 0-0.5q0-0.2 0.1-0.6c0.1-0.2 0.2 0 0.2 0.2z"/>
		<path id="&lt;Path&gt;" class="s0" d="m20.6 17.1c0 0.1 0 0.1-0.1 0.3-0.1 0.2-0.2 0.2-0.4 0.3-0.2 0.2-2.8 1.3-2.9 1.3-0.3 0.2-0.3 0.1-0.2 0q0-0.1 0-0.3c0.1-0.2 0.2-0.2 0.4-0.4 0.2-0.1 2.8-1.2 3-1.3 0.3-0.2 0.3 0 0.2 0.1z"/>
		<path id="&lt;Path&gt;" class="s0" d="m23.4 14.8c0 0 0 0.3-0.1 0.4-0.3 1-0.2 1.4-0.1 1.5 0.2 0.5 0.6 0.3 0.7-0.1 0.1-0.2 0.2-0.1 0.1 0q0 0.1 0 0.3c-0.2 0.6-0.4 0.7-0.6 0.7-0.4 0-0.5-0.5-0.6-0.7 0-1.1 0.4-1.9 0.5-2.2 0.1-0.2 0.2-0.1 0.1 0.1z"/>
		<path id="&lt;Path&gt;" class="s0" d="m21 14.1c0.1 0.8-0.1 1.8-0.3 2.1-0.1 0.4-0.2 0.1-0.2-0.2 0.2-1 0-1.2-0.2-1.4-0.1-0.1-0.4 0.1-0.6 0.3-1.7 1.6-2.9 1.4-3.1 1.4 0 0 0.3 1-0.4 2.4-0.9 1.7-5.1 3.7-5.9 4 0 0-4.5 0.8-4.9 0.8-0.5 0.1-0.5-0.1-0.1-0.2 5.6-1.6 8.2-3.6 9.7-4.7 1.5-1.1 1.2-1.4 1.1-1.8 0-0.4-0.6-1.7-0.8-2 0 0 0.1-0.6 0.2-0.9 0.1-0.3 0.2 0 0.3 0.1 0.5 1.1 1.6 1 2 0.9 0.5-0.1 2.3-1.5 2.4-1.5 0.6-0.4 0.8 0.6 0.8 0.7z"/>
		<path id="&lt;Compound Path&gt;" fill-rule="evenodd" class="s0" d="m44.3 19c-0.3 1.1-1.8 1.6-2.1 1.7-1.4 0.5-1.5-0.9-1.4-1.8 0.1-1 0.8-2.2 0.8-2.2-0.1-0.1-1.5-1.2-1.6-1.3-0.1-0.1-0.2-0.2-0.3-0.3-0.2-0.1-0.1-0.2-0.1-0.2 0 0 0-1 0-1.1 0-0.1 0-0.1 0.2 0 0.1 0 1.6 0.6 1.7 0.7 0.2 0.1 0.1 0.2 0.1 0.3-0.1 0-0.6 0.1-0.6 0.1l1.2 0.9c0 0 1.7-2.3 1.9-2.5 0.2-0.2 0.2-0.1 0.1 0.2 0 0.2-0.3 1.1-0.4 1.3-0.1 0.1-1 1.4-1 1.4 0 0 1.2 0.7 1.4 1.1 0.5 0.7 0.2 1.3 0.1 1.7zm-2.2-2c0 0-0.7 1.3-0.8 1.6-0.4 0.8 0.4 0.9 0.7 0.9 0.3 0 1.3-0.6 1.8-1 0.5-0.4-1.4-1.3-1.7-1.5z"/>
		<path id="&lt;Compound Path&gt;" fill-rule="evenodd" class="s0" d="m65.6 17.8c-0.1 0.2-0.4 1.2-1.8 0.9-0.3 0-1-0.2-1.3-1-0.4 0.5-1.2 1.8-2.8 1.6-0.4-0.1-1.5-0.5-1.5-1.9 0 0-1.3 1-2 1.4 0.1 0.5 0.1 1.1-0.2 1.7-0.2 0.6-3.1 3.9-5.4 4.4-0.8 0.1-3.7 0.7-3.8-2.6-0.1-0.7 0-1.2 0-1.6-1.8 1.4-4 2.5-4.6 2.8-1 0.5-4.4 1-5 1.1-0.4 0.1-0.4 0-0.2-0.1 0.2-0.2 7.8-2.7 11.7-6.8q0.1-0.2-0.1-0.5c-0.1-0.2-1.3-2.6-1.4-2.9-0.1-0.3-0.3-0.7-0.4-0.8q0-0.1 0-0.3c0-0.2 0.1-0.8 0.2-0.9 0-0.2 0.1-0.1 0.2 0 0 0.1 1.3 1.3 1.4 1.5 0.1 0.2 0 0.2 0 0.2-0.1 0-0.7 0-0.7 0 0 0 0.8 1.4 1.1 1.9 0.5 1.1 0.2 2 0 2.4-0.3 0.7-1 1.4-1.7 2-0.2 0.6-0.4 3.3 2.1 3.4 0.4 0 1.7 0.2 4.3-1.9 0.6-0.5 1.2-1.1 1.8-1.9 0.2-0.3 0.4-0.8 0-0.8-0.5 0.1-3.1 1-3.5-0.6-0.1-0.4 0.1-4.2 2.7-2.3 0.3 0.1 0.8 0.6 1.2 1.3 0.4-0.1 1.2-0.6 2.2-1.4 0.3-0.3 0.6-0.4 0.6 0 0 0.3-0.2 2.5 2.2 1.9 0.2-0.1 1.2-0.3 2-2.2 0.2-0.4 0.4-0.4 0.3 0-0.2 0.5-0.4 0.9-0.2 1.1 0.2 0.2 0.9 0.7 1.7 0.6 0.3 0 0.5-0.2 0.4-0.4-0.1-0.3-0.4-0.7-0.4-0.7 0.1-0.3 0.2-0.8 0.2-1 0.1-0.1 0.1-0.2 0.2-0.1 0.1 0.1 0.9 1.1 0.5 2.5zm-10.9 0.1c-0.8-1.1-1.8-0.5-1.9-0.4-0.1 0.2-0.2 0.5 0.6 0.5 1 0.1 1.3-0.1 1.3-0.1z"/>
		<path id="&lt;Path&gt;" class="s0" d="m11.8 12.4c0 0-0.1 0.5-0.2 0.8-0.4 1.6-0.1 2.3 0 2.4 0.4 0.8 0.9 0.4 1.1-0.2 0-0.3 0.1-0.2 0.1-0.1q0 0.2 0 0.5c-0.2 1-0.6 1.2-0.8 1.2-0.5 0-0.8-0.7-0.9-1.1-0.1-1.7 0.4-3.1 0.5-3.6 0.1-0.4 0.3-0.2 0.2 0.1z"/>
		<path id="&lt;Path&gt;" class="s0" d="m13.3 6.2c0 0 0 0.3-0.1 0.6-0.3 1.2-0.1 1.7 0 1.8 0.3 0.6 0.7 0.3 0.8-0.2 0-0.2 0.1-0.1 0.1 0q0 0.1 0 0.4c-0.2 0.7-0.4 0.9-0.6 0.9-0.4 0-0.6-0.6-0.7-0.9-0.1-1.2 0.3-2.3 0.4-2.7 0.1-0.3 0.2-0.2 0.1 0.1z"/>
		<path id="&lt;Path&gt;" class="s0" d="m7.3 14.7c0 0-0.1 0.5-0.2 0.8-0.4 1.8-0.1 2.5 0 2.7 0.5 0.8 1 0.4 1.2-0.3 0-0.3 0.1-0.2 0.1 0q0 0.1 0 0.5c-0.3 1.1-0.6 1.3-0.9 1.4-0.6 0-0.9-0.9-0.9-1.3-0.2-1.8 0.4-3.5 0.5-3.9 0.1-0.5 0.3-0.3 0.2 0.1z"/>
		<path id="&lt;Path&gt;" class="s0" d="m42.9 10.9l1 0.8q0.1 0 0.1 0.1l-0.7 0.8q0 0.1-0.1 0.1l-1-0.8-0.5 0.7q-0.1 0.1-0.1 0.1l-1.1-0.8q0-0.1 0-0.1l0.6-0.9q0.1 0 0.1 0l1.1 0.8 0.5-0.8q0 0 0.1 0z"/>
		<path id="&lt;Path&gt;" class="s0" d="m62.8 11c0 0 0 0.2-0.1 0.4-0.3 1-0.2 1.4-0.1 1.5 0.2 0.5 0.6 0.2 0.7-0.1 0.1-0.2 0.1-0.1 0.1 0q0 0 0 0.2c-0.2 0.6-0.4 0.7-0.6 0.7-0.4 0-0.5-0.4-0.5-0.7-0.1-1 0.3-1.8 0.4-2.1 0.1-0.2 0.2-0.1 0.1 0.1z"/>
		<path id="&lt;Path&gt;" class="s0" d="m20.2 10.7l1 0.8q0.1 0 0 0.1l-0.6 0.8q0 0.1-0.1 0l-1-0.7-0.5 0.7q-0.1 0.1-0.1 0l-1.1-0.7q0-0.1 0-0.1l0.6-0.9q0.1 0 0.1 0l1 0.8 0.6-0.8q0 0 0.1 0z"/>
		<path id="&lt;Compound Path&gt;" fill-rule="evenodd" class="s0" d="m31.3 13.6c-0.1 0.2-0.1 0.1-0.2 0-0.1-0.1-0.4-0.4-0.4-0.4 0 0-0.6 1.4-1.5 2.3-1 0.9-1.8 1.2-1.8 1.2-0.1 0.1-0.2 0 0-0.2 0.7-0.5 2.1-1.9 2.9-3.4 0 0-0.4-0.1-0.7-0.3-0.3-0.2-0.2-1 0-1.3 0.5-0.8 0.9-0.4 1-0.3 0.5 0.7 0.3 1.5 0.3 1.5 0.3 0.2 0.5 0.4 0.4 0.9zm-1-1.9c-0.1-0.1-0.2-0.1-0.5 0.3-0.1 0.1 0 0.2 0.2 0.3 0.2 0.1 0.6 0.2 0.6 0.2 0-0.1 0-0.5-0.3-0.8z"/>
		<path id="&lt;Path&gt;" class="s0" d="m52.2 10.4c0 0-0.1 0.3-0.1 0.5-0.4 1-0.2 1.5-0.1 1.6 0.2 0.5 0.6 0.2 0.8-0.1 0-0.2 0.1-0.1 0.1-0.1q-0.1 0.1-0.1 0.4c-0.2 0.6-0.4 0.7-0.6 0.7-0.4 0-0.6-0.5-0.6-0.7-0.1-1.1 0.4-2.1 0.5-2.3 0.1-0.3 0.2-0.2 0.1 0z"/>
		<path id="&lt;Path&gt;" class="s0" d="m19.1 8.7l1.1 0.8q0 0 0 0.1l-0.6 0.8q-0.1 0.1-0.1 0.1l-1.1-0.8q0-0.1 0-0.1l0.6-0.9q0.1 0 0.1 0z"/>
		<path id="&lt;Path&gt;" class="s0" d="m24.5 7.5c0 0 0.1 0.5 0.3 0.7 0.1 0.3 0.2 0.5 0.2 0.9-0.1 0.4-0.3 0.7-0.5 0.8-0.2 0-0.6 0-0.9-0.4-0.3 0.7-0.8 0.8-1.1 0.7-0.3-0.2-0.3-0.7-0.3-0.9 0-0.1 0-0.7 0-0.8 0-0.1 0-0.2 0.1-0.3 0.1-0.2 0.1-0.1 0.1 0.1 0 0.1-0.1 0.9 0.1 1.1 0.3 0.4 0.9 0.1 1-0.2 0.1-0.2-0.2-1-0.2-1q0-0.1 0-0.1c0 0 0-0.3 0.1-0.4q0-0.2 0.1 0c0.1 0.1 0.1 0.3 0.2 1 0.1 0.7 0.8 0.6 0.9 0.5 0.2 0 0.2-0.1 0.1-0.2 0-0.1-0.3-0.7-0.4-0.9-0.1-0.3 0-0.5 0.1-0.7 0-0.2 0.1 0 0.1 0.1z"/>
		<path id="&lt;Path&gt;" class="s0" d="m29 6.5c0 0 0 0.2-0.1 0.4-0.3 1-0.1 1.5-0.1 1.6 0.2 0.5 0.6 0.2 0.7-0.2 0.1-0.1 0.1 0 0.1 0q0 0.1-0.1 0.3c-0.1 0.6-0.3 0.8-0.5 0.8-0.4 0-0.5-0.5-0.5-0.8-0.1-1 0.3-1.9 0.4-2.2 0.1-0.3 0.2-0.2 0.1 0.1z"/>
		<path id="&lt;Path&gt;" class="s0" d="m10 7.1c0.1 0.2 0.1 0.6 0 0.9-0.1 0.2-0.2 0-0.4-0.1 0 0-0.1-0.1-0.3-0.2-0.6-0.5-0.7 0.5-0.7 0.9-0.1 0.4 0 1.4-0.1 2.1q0 0 0 0c0 0.6-0.2 1.2-1 1.9-1 0.8-1.1 0.8-1.2 0.8-0.1 0.1-0.2 0 0-0.2 0.1 0 2.1-1.9 1.8-2.7-0.3-1-1.2-1.7-1.3-1.8-0.1-0.1-0.2 0.1-0.2 0.2 0 0.1-0.1 0.1-0.2 0.1 0-0.1-0.5-0.3-0.6-0.5-0.2-0.1-0.2-0.6-0.2-0.8 0-0.4 0.2-0.5 0.3-0.5 1.6 0.8 2.2 2.3 2.3 2.5 0-1.1 0-2.1 0.5-2.9 0.5-0.7 1.2 0.2 1.3 0.3z"/>
		<path id="&lt;Compound Path&gt;" fill-rule="evenodd" class="s0" d="m37 21.1c-0.3 0.8-1.3 1-2.2 0.2q-0.5-0.5-0.8-1c-0.7 0.4-1.4 0.9-1.7 1-2.3 1.2-3.7 0.6-3.9 0.5-2-0.7-2.4-2.8-2.5-3.1 0 0-0.1 0.3-0.2 0.7-0.1 0.4-0.8 1.2-1.2 1.5-2.6 2.4-4.5 2.5-5 2.4-2-0.5-1.4-3.7-1-4.5 0.3-0.6 0.5-0.4 0.4-0.2-0.9 2.3 0.3 3.4 0.8 3.5 1 0.2 2.8-1 3.4-1.4 1-0.7 2.3-2.1 2.4-2.3 0.2-0.2 0.3-0.3 0.3-0.5-0.4-2.5-1.9-5.8-2.1-6.2-0.1-0.4 0-0.9 0.1-1 0-0.2 0.1-0.3 0.3-0.1 1.3 1.6 1.9 5 2 5.4 0.1 0.5 0.5 2.3 0.7 2.8 0.5 1.5 2.2 1.9 2.6 1.9 1.4 0.1 3.1-0.8 4.2-1.5-0.2-0.6-0.3-1-0.3-1.2-0.1-0.6-1.4-8.4-1.4-8.4-0.1-0.7-0.2-1.3-0.2-1.8-0.1-0.4-0.2-0.6-0.2-0.7 0 0 0.4-0.9 0.5-1.1 0-0.1 0.1 0 0.1 0.1 0 0.1 1.3 3.2 1.4 3.4 0.1 0.2-0.1 0.2-0.2 0.1-0.1-0.1-0.6-0.6-0.6-0.6 0 0 1.1 7.8 1.6 9.4q0.1 0.1 0.1 0.2 0.1 0 0.1 0c0.8-0.4 1.4-0.3 1.8-0.1 0.4 0.2 1.2 0.6 0.7 2.6zm-0.5-1c-0.1-0.3-0.7-0.5-1.2-0.5q-0.1 0-0.3 0.2 0 0.1 0.1 0.2c0.4 0.4 1.2 0.5 1.3 0.4 0.2 0 0.2-0.2 0.1-0.3z"/>
		<path id="&lt;Path&gt;" class="s0" d="m36.2 6.1c0 0.1 1.3 3.2 1.4 3.4 0 0.2-0.1 0.2-0.2 0.1-0.1-0.1-0.7-0.7-0.7-0.7 0 0 1.2 7.4 1.2 7.6 0.2 1.7 0.3 2.9 0.2 3.7 0 1.1-0.2 1.5-0.3 1.6 0 0.1-0.1 0.1-0.1-0.1 0-0.6-0.1-1.8-0.3-3-0.3-2.6-1.5-9.6-1.7-11 0-0.1-0.1-0.5-0.1-0.6 0 0 0.4-0.9 0.4-1.1 0.1-0.1 0.1 0 0.2 0.1z"/>
		<path id="&lt;Path&gt;" class="s0" d="m51.3 6.1c-0.1 0.1-0.1 0.1-0.1 0.3-0.1 0.2-0.2 0.2-0.4 0.4-0.2 0.1-5.8 3.3-5.9 3.4-0.3 0.2-0.3 0-0.2-0.1q0 0 0-0.3c0.1-0.2 0.2-0.2 0.4-0.3 0.2-0.2 5.7-3.4 5.9-3.5 0.4-0.2 0.3-0.1 0.3 0.1z"/>
		<path id="&lt;Path&gt;" class="s0" d="m58 6.4c0.2 0.3 0.1 0.7 0 1-0.1 0.1-0.3 0-0.4-0.2 0 0-0.1-0.1-0.2-0.2-0.6-0.5-0.8 0.4-0.9 0.8 0 0.4-0.1 1.4-0.2 2 0 0.2-0.2 0.2-0.2 0-0.4-1.2-1.2-1.9-1.3-2-0.1-0.1-0.2 0.1-0.2 0.2 0 0-0.1 0-0.2 0-0.1 0-0.5-0.3-0.6-0.4-0.2-0.2-0.1-0.7-0.1-0.9 0-0.3 0.3-0.4 0.4-0.4 1.5 0.9 1.9 2.3 2 2.6 0.1-1.1 0.1-2.1 0.7-2.9 0.5-0.6 1.2 0.3 1.2 0.4z"/>
		<path id="&lt;Compound Path&gt;" fill-rule="evenodd" class="s0" d="m63.5 8.8c0 0.1-0.1 0-0.2-0.1-0.1-0.1-0.2-0.3-0.4-0.4-0.3 0.5-0.2 0.5-1.2 1.4-2 1.7-4.3 2.3-4.4 2.4-0.1 0-0.1-0.1 0.1-0.3 0.7-0.5 3.6-1.8 5.1-3.6 0 0-0.5-0.2-0.8-0.5-0.3-0.2-0.1-1 0.1-1.4 0.6-0.9 1.1-0.4 1.1-0.3 0.5 0.9 0.3 1.7 0.3 1.7 0.2 0.2 0.5 0.5 0.3 1.1zm-0.9-2.2c-0.2-0.1-0.3-0.1-0.6 0.3-0.1 0.1 0 0.3 0.2 0.3 0.2 0.1 0.6 0.3 0.6 0.3 0-0.1 0.1-0.6-0.2-0.9z"/>
		<path id="&lt;Path&gt;" class="s0" d="m18.9 5.8c0 0 0.1 0.5 0.3 0.7 0.1 0.2 0.2 0.5 0.2 0.9-0.1 0.4-0.3 0.7-0.5 0.7-0.2 0.1-0.6 0.1-0.9-0.3-0.3 0.7-0.8 0.8-1.1 0.7-0.3-0.2-0.3-0.7-0.3-0.9 0-0.2 0-0.7 0-0.8 0-0.1 0-0.2 0.1-0.3 0-0.2 0.1-0.1 0.1 0 0 0.2-0.1 0.9 0.1 1.2 0.3 0.4 0.8 0 1-0.2 0.1-0.2-0.2-1-0.2-1q0-0.1 0-0.1c0-0.1 0-0.3 0.1-0.4q0-0.2 0.1 0c0.1 0.1 0.1 0.3 0.2 1 0.1 0.7 0.8 0.6 0.9 0.5 0.2-0.1 0.2-0.2 0.1-0.2 0-0.1-0.3-0.7-0.4-1-0.1-0.2 0-0.4 0.1-0.6 0-0.2 0.1-0.1 0.1 0.1z"/>
		<path id="&lt;Compound Path&gt;" fill-rule="evenodd" class="s0" d="m42.6 8.5c-0.1 0.1-0.1 0-0.3-0.1 0-0.1-0.4-0.4-0.4-0.4 0 0-0.4 1-1.2 1.5-1.3 1.1-2.5 1.2-2.6 1.3-0.1 0-0.2-0.1 0.1-0.2 0.8-0.6 1.9-0.9 3.4-2.7 0 0-0.5-0.2-0.8-0.5-0.4-0.2-0.2-1 0-1.4 0.6-0.9 1.1-0.4 1.2-0.3 0.5 0.9 0.2 1.7 0.2 1.7 0.3 0.2 0.6 0.5 0.4 1.1zm-1-2.2c-0.1-0.1-0.2-0.1-0.5 0.3-0.1 0.1 0 0.2 0.2 0.3 0.2 0.1 0.6 0.3 0.6 0.3 0-0.1 0.1-0.6-0.3-0.9z"/>
		<path id="&lt;Path&gt;" class="s0" d="m25.9 5.2c-0.1 0.1-0.1 0.1-0.2 0.3 0 0.2-0.2 0.2-0.4 0.3-0.1 0.1-4.1 1.8-4.2 1.8-0.4 0.2-0.3 0.1-0.3 0q0-0.1 0.1-0.3c0-0.2 0.1-0.2 0.4-0.3 0.2-0.2 4.1-1.8 4.3-1.9 0.4-0.2 0.3-0.1 0.3 0.1z"/>
	</g>
</svg>