<svg version="1.2" xmlns="http://www.w3.org/2000/svg" viewBox="0 0 70 30" width="70" height="30">
	<title>New Project</title>
	<style>
		.s0 { fill: #191c4f } 
	</style>
	<g id="القيامة">
		<path id="&lt;Path&gt;" class="s0" d="m28.3 22.5l1 0.7q0 0.1 0 0.1l-0.6 0.8q0 0.1-0.1 0l-1-0.7-0.5 0.7q0 0.1-0.1 0l-1-0.7q0 0 0-0.1l0.6-0.8q0.1 0 0.1 0l1 0.7 0.5-0.7q0 0 0.1 0z"/>
		<path id="&lt;Path&gt;" class="s0" d="m13.4 21.5c-0.1 0.1-0.1 0.1-0.2 0.3-0.1 0.2-0.2 0.2-0.4 0.3-0.1 0.1-3.7 1.8-3.8 1.8-0.3 0.2-0.3 0.1-0.2 0q0 0 0.1-0.3c0-0.1 0.1-0.2 0.3-0.3 0.2-0.1 3.7-1.8 3.9-1.9 0.4-0.2 0.3 0 0.3 0.1z"/>
		<path id="&lt;Path&gt;" class="s0" d="m36.5 21.3c0 0.1 0 0.1-0.1 0.3-0.1 0.2-0.2 0.2-0.4 0.3-0.1 0.1-3.8 1.7-3.9 1.8-0.3 0.2-0.3 0.1-0.2 0q0-0.1 0-0.3c0-0.2 0.1-0.2 0.3-0.4 0.3-0.1 3.8-1.7 4.1-1.8 0.3-0.1 0.3 0 0.2 0.1z"/>
		<path id="&lt;Path&gt;" class="s0" d="m20.1 20.6c0 0-0.1 0.3-0.2 0.5-0.4 0.9-0.2 1.4-0.2 1.5 0.3 0.5 0.6 0.3 0.8-0.1 0.1-0.2 0.1-0.1 0.1 0q0 0.1-0.1 0.3c-0.2 0.6-0.5 0.7-0.6 0.7-0.4 0-0.6-0.5-0.6-0.8 0.1-1 0.6-1.9 0.7-2.2 0.1-0.2 0.2-0.1 0.1 0.1z"/>
		<path id="&lt;Path&gt;" class="s0" d="m64.1 19.2c0 0 0 0.3 0 0.5 0 0.2-0.1 0.6-0.2 0.9-0.1 0.3-0.8 0.4-1.2 0.1-0.8 1.2-1.4 0.6-1.8 0.4-0.7-0.2-0.9 0.2-1 0.4-0.9 1-2.4 0.9-2.7 1-0.4 0-0.1-0.2 0-0.3 1.2-0.4 2-0.5 3.1-1.5 0.4-0.5 0.7-0.3 0.9-0.2 1 0.5 1.2 0 1.3-0.1 0.1-0.1 0.3-0.7 0.4-0.8 0-0.2 0.1-0.1 0.1 0.1 0 0.1-0.1 0.3-0.1 0.4 0.4 0.3 0.8 0 0.9-0.1 0 0 0-0.3 0-0.4q0-0.1 0.1-0.5c0.1-0.3 0.2-0.1 0.2 0.1z"/>
		<path id="&lt;Compound Path&gt;" fill-rule="evenodd" class="s0" d="m20.5 19.2c0 0.4-0.2 0.5-0.4 0.6-1.6 0.2-2.6-0.6-2.8-0.8 0 0-0.2 0.6-0.4 0.8-0.6 1.1-1.9 1.1-2.5 0.9-1.1-0.3-1.8-1.8-2-2.3-0.3-0.6-1.4-0.1-1.5 0-1.2 0.7-2.3 3.4-2.5 3.7-0.1 0.2-1 1.4-2.2-0.3-1.1-1.6-0.9-4-0.8-4.3 0.1-0.3 0.2-0.1 0.2 0.2-0.1 0.9 0.3 2.1 0.4 2.4 0.6 1.3 1.4 1.4 1.5 1.4 0.7 0.1 1-0.9 1.1-1.3 1.1-2.2 2.1-2.9 2.5-3.1 0.4-0.2 1.3-0.7 1.9 0.8 0.8 1.8 2 1.7 2.3 1.7 1.3-0.1 1.8-1.1 1.9-1.3 0.2-0.2 0.5-1.1 1-1.7 0.5-0.7 1.1-0.3 1.3-0.1 1 1.3 1 2.4 1 2.7zm-1-1.1c-0.2-0.3-0.7-0.8-1.2-0.5-0.3 0.2-0.4 0.4-0.4 0.4 0.2 0.2 0.7 0.5 1.5 0.5 0.1 0 0.3 0 0.1-0.4z"/>
		<path id="&lt;Path&gt;" class="s0" d="m11.8 13.7l1 0.7q0.1 0.1 0 0.1l-0.6 0.8q0 0.1 0 0l-1-0.7-0.5 0.7q-0.1 0.1-0.1 0l-1-0.7q0 0 0-0.1l0.6-0.8q0 0 0 0l1 0.7 0.5-0.7q0.1 0 0.1 0z"/>
		<path id="&lt;Compound Path&gt;" fill-rule="evenodd" class="s0" d="m45.5 17.8c-0.4 1-1.8 1.6-2.1 1.7-1.2 0.4-1.3-0.9-1.3-1.8 0.1-0.9 0.8-2.1 0.8-2.1-0.1 0-1.4-1.1-1.5-1.2-0.1-0.1-0.2-0.2-0.4-0.3-0.1-0.1-0.1-0.1-0.1-0.1 0 0 0.1-1 0.1-1.1 0-0.1 0-0.1 0.1 0 0.1 0 1.6 0.6 1.7 0.7 0.2 0 0.1 0.2 0 0.2 0 0-0.5 0.1-0.5 0.1l1.2 0.9c0 0 1.6-2.2 1.7-2.4 0.2-0.2 0.2-0.1 0.2 0.2-0.1 0.2-0.4 1.1-0.5 1.2 0 0.2-0.9 1.3-0.9 1.3 0 0 1.1 0.7 1.4 1.1 0.4 0.6 0.2 1.3 0.1 1.6zm-2.1-1.9c0 0-0.7 1.3-0.8 1.5-0.4 0.8 0.4 0.9 0.6 0.9 0.3-0.1 1.3-0.6 1.8-0.9 0.4-0.4-1.3-1.3-1.6-1.5z"/>
		<path id="&lt;Compound Path&gt;" fill-rule="evenodd" class="s0" d="m65.6 16.7c-0.1 0.2-0.4 1.1-1.7 0.8-0.3 0-1-0.2-1.3-0.9-0.3 0.4-1.1 1.7-2.6 1.5-0.3-0.1-1.4-0.5-1.4-1.8 0 0-1.3 1-1.9 1.3 0.1 0.5 0.1 1-0.2 1.6-0.2 0.6-2.9 3.7-5.1 4.2-0.7 0.1-3.5 0.6-3.6-2.5-0.1-0.6 0-1.2 0-1.5-1.7 1.3-3.8 2.4-4.4 2.7-0.9 0.4-4.1 0.9-4.7 1-0.3 0.1-0.4 0-0.2-0.1 0.2-0.2 7.4-2.6 11.1-6.4 0.1-0.2 0-0.3-0.1-0.5-0.1-0.2-1.2-2.4-1.3-2.7-0.1-0.3-0.3-0.7-0.4-0.8q0-0.1 0-0.3c0-0.1 0.1-0.7 0.2-0.9 0-0.1 0.1 0 0.1 0.1 0.1 0 1.3 1.2 1.4 1.4 0.1 0.1 0 0.2 0 0.2-0.1 0-0.6 0-0.6 0 0 0 0.7 1.3 1 1.7 0.4 1.1 0.2 2 0 2.3-0.3 0.7-0.9 1.4-1.7 2-0.1 0.5-0.3 3.1 2.1 3.2 0.3 0 1.6 0.1 4-1.8 0.6-0.5 1.2-1.1 1.7-1.8 0.3-0.3 0.4-0.8 0-0.8-0.4 0-2.9 1-3.3-0.6-0.1-0.3 0.1-4 2.6-2.2 0.2 0.2 0.7 0.6 1.1 1.3 0.4-0.2 1.2-0.6 2.1-1.4 0.3-0.2 0.6-0.3 0.6 0-0.1 0.4-0.3 2.4 2 1.8 0.3-0.1 1.2-0.3 1.9-2 0.2-0.4 0.5-0.4 0.3 0-0.1 0.4-0.4 0.8-0.2 1 0.3 0.2 0.9 0.7 1.7 0.6 0.3-0.1 0.4-0.2 0.3-0.4-0.1-0.2-0.3-0.7-0.3-0.7 0-0.3 0.1-0.8 0.2-0.9 0-0.1 0-0.2 0.1-0.1 0.1 0.1 0.9 1.1 0.5 2.4zm-10.3 0.1c-0.8-1.1-1.7-0.5-1.8-0.4-0.2 0.1-0.2 0.4 0.6 0.5 0.9 0 1.2-0.1 1.2-0.1z"/>
		<path id="&lt;Path&gt;" class="s0" d="m20.7 11.4c0 0.1 0 0.1-0.1 0.3-0.1 0.2-0.2 0.2-0.4 0.4-0.1 0-4.6 2.3-5.2 2.7-0.7 0.4-0.6 0.6-0.4 0.7 0.4 0.1 0.6 0.4 0.4 0.9 0 0-0.1 0.1-0.1 0 0 0-0.2-0.2-0.4-0.2-0.3 0-0.4-0.5-0.3-1 0-0.4 0.3-0.7 0.5-0.9 0.5-0.4 5.6-2.9 5.8-3 0.3-0.2 0.2 0 0.2 0.1z"/>
		<path id="&lt;Path&gt;" class="s0" d="m5.8 11.6c0 0-0.1 0.5-0.2 0.8-0.4 1.8-0.1 2.6 0 2.7 0.4 0.9 1 0.4 1.1-0.3 0.1-0.3 0.2-0.1 0.2 0q0 0.2-0.1 0.5c-0.2 1.1-0.5 1.4-0.8 1.4-0.6 0-0.9-0.8-1-1.2-0.2-1.9 0.4-3.6 0.6-4 0.1-0.5 0.3-0.3 0.2 0.1z"/>
		<path id="&lt;Path&gt;" class="s0" d="m44.1 10.1l1 0.8q0 0 0 0.1l-0.6 0.8q0 0-0.1 0l-0.9-0.7-0.6 0.7q0 0 0 0l-1.1-0.7q0-0.1 0-0.1l0.6-0.8q0.1-0.1 0.1-0.1l1 0.8 0.5-0.7q0-0.1 0.1-0.1z"/>
		<path id="&lt;Path&gt;" class="s0" d="m63 10.2c0 0-0.1 0.3-0.2 0.4-0.3 0.9-0.1 1.3-0.1 1.4 0.3 0.5 0.6 0.2 0.8-0.1 0-0.2 0.1-0.1 0 0q0 0.1 0 0.3c-0.2 0.5-0.4 0.6-0.6 0.6-0.3 0-0.5-0.4-0.5-0.6 0-1 0.4-1.8 0.5-2.1 0.1-0.2 0.2-0.1 0.1 0.1z"/>
		<path id="&lt;Path&gt;" class="s0" d="m52.9 9.7c0 0 0 0.3-0.1 0.4-0.3 1-0.2 1.4-0.1 1.5 0.2 0.5 0.6 0.3 0.7-0.1 0.1-0.2 0.2-0.1 0.1 0q0 0.1 0 0.3c-0.2 0.6-0.4 0.7-0.6 0.7-0.4 0-0.5-0.5-0.6-0.7 0-1.1 0.4-1.9 0.5-2.2 0.1-0.2 0.2-0.1 0.1 0.1z"/>
		<path id="&lt;Path&gt;" class="s0" d="m14 7c0 0-0.1 0.3-0.2 0.6-0.4 1-0.3 1.6-0.2 1.7 0.2 0.5 0.6 0.3 0.8-0.1 0.1-0.2 0.1-0.1 0.1 0q0 0.1-0.1 0.3c-0.2 0.7-0.5 0.8-0.7 0.8-0.4 0-0.5-0.6-0.5-0.9 0-1.2 0.6-2.2 0.7-2.5 0.1-0.2 0.2-0.1 0.1 0.1z"/>
		<path id="&lt;Path&gt;" class="s0" d="m11.7 6.3c0.1 0.3 0 0.7-0.1 0.9-0.1 0.2-0.2 0-0.3-0.1 0 0-0.2-0.2-0.3-0.3-0.5-0.4-0.7 0.5-0.8 0.9 0 0.3-0.1 1.3-0.1 1.8q0 0.1-0.1 0.1c0 0.5-0.2 1.1-1 1.6-1 0.7-1.1 0.7-1.1 0.7-0.1 0.1-0.2 0 0-0.1 0.1-0.1 2-1.7 1.8-2.5-0.2-0.9-0.9-1.5-1-1.6-0.2-0.2-0.3 0-0.3 0.1 0 0.1-0.1 0.1-0.1 0-0.1 0-0.5-0.3-0.6-0.4-0.2-0.1-0.1-0.6-0.1-0.8 0-0.3 0.2-0.4 0.3-0.4 1.4 0.8 1.9 2.2 2 2.5 0-1.1 0.1-2 0.6-2.7 0.5-0.6 1.1 0.2 1.2 0.3z"/>
		<path id="&lt;Path&gt;" class="s0" d="m17.4 5.9c0 0 0 0.4-0.1 0.7-0.3 1.5-0.1 2.1 0 2.2 0.4 0.8 0.8 0.4 0.9-0.2 0.1-0.3 0.2-0.1 0.2 0q-0.1 0.1-0.1 0.4c-0.2 0.9-0.5 1.1-0.7 1.2-0.5 0-0.7-0.7-0.7-1.1-0.2-1.6 0.3-2.9 0.4-3.3 0.1-0.4 0.2-0.2 0.1 0.1z"/>
		<path id="&lt;Path&gt;" class="s0" d="m52.1 5.6c-0.1 0.1-0.1 0.1-0.2 0.3 0 0.2-0.1 0.2-0.3 0.3-0.2 0.1-5.5 3.2-5.6 3.2-0.3 0.2-0.3 0.1-0.2 0q0-0.1 0-0.3c0.1-0.2 0.2-0.2 0.4-0.3 0.2-0.2 5.4-3.2 5.6-3.3 0.3-0.2 0.3-0.1 0.3 0.1z"/>
		<path id="&lt;Path&gt;" class="s0" d="m58.4 5.9c0.2 0.2 0.1 0.6 0 0.9-0.1 0.1-0.2 0-0.3-0.2 0 0-0.2-0.1-0.3-0.2-0.5-0.5-0.7 0.4-0.8 0.8 0 0.3-0.1 1.3-0.2 1.9 0 0.2-0.2 0.2-0.2 0-0.4-1.2-1.1-1.8-1.2-1.9-0.1-0.1-0.2 0.1-0.2 0.1-0.1 0.1-0.1 0.1-0.2 0.1-0.1-0.1-0.5-0.3-0.6-0.4-0.1-0.2-0.1-0.6-0.1-0.8 0.1-0.4 0.3-0.5 0.4-0.4 1.4 0.8 1.8 2.2 1.9 2.4 0.1-1 0.1-2 0.7-2.7 0.4-0.5 1.1 0.3 1.1 0.4z"/>
		<path id="&lt;Path&gt;" class="s0" d="m33.1 12.7l1.1 0.7q0 0.1 0 0.1l-0.6 0.8q-0.1 0.1-0.1 0.1l-1-0.8-0.5 0.7q0 0.1-0.1 0.1l-1-0.8q0 0 0-0.1l0.6-0.8q0 0 0.1 0l1 0.7 0.5-0.7q0 0 0 0z"/>
		<path id="&lt;Path&gt;" class="s0" d="m28.6 12.8c0.1 0.2 0.1 0.6 0 0.8 0 0.2-0.2 0.1-0.3-0.1 0 0-0.1-0.1-0.3-0.2-0.5-0.3-0.6 0.5-0.6 0.9 0 0.3 0.1 1.2 0.1 1.8 0 0.2-0.2 0.2-0.3 0.1-0.4-1.2-1.1-1.6-1.2-1.7-0.2-0.1-0.2 0.1-0.2 0.1-0.1 0.1-0.1 0.1-0.2 0.1 0 0-0.4-0.2-0.6-0.4-0.1-0.1-0.1-0.5-0.1-0.7 0-0.3 0.1-0.4 0.2-0.4 1.4 0.6 2 1.9 2.1 2.1-0.1-1-0.1-1.9 0.3-2.6 0.3-0.6 1 0.1 1.1 0.2z"/>
		<path id="&lt;Path&gt;" class="s0" d="m32.7 8.3c0 0-0.1 0.2-0.1 0.4-0.4 0.9-0.2 1.3-0.1 1.4 0.2 0.5 0.5 0.2 0.7-0.1 0-0.2 0.1-0.1 0.1 0q-0.1 0.1-0.1 0.3c-0.2 0.5-0.4 0.6-0.6 0.6-0.3 0-0.5-0.4-0.5-0.6 0-1 0.4-1.8 0.5-2.1 0.1-0.2 0.2-0.1 0.1 0.1z"/>
		<path id="&lt;Path&gt;" class="s0" d="m33.3 6c0 0.1-0.1 0.2-0.1 0.3-0.1 0.2-0.2 0.3-0.4 0.4-0.2 0.1-8.9 4.8-9 4.9-0.4 0.2-0.3 0.1-0.3 0q0-0.1 0.1-0.4c0-0.1 0.1-0.2 0.4-0.3 0.2-0.2 8.8-4.9 9-5 0.4-0.2 0.3-0.1 0.3 0.1z"/>
		<path id="&lt;Path&gt;" class="s0" d="m25.7 5.8c0 0 0 0.2-0.1 0.4-0.3 0.9-0.1 1.3-0.1 1.4 0.3 0.4 0.6 0.2 0.7-0.1 0.1-0.2 0.1-0.1 0.1 0q0 0-0.1 0.2c-0.1 0.6-0.3 0.7-0.5 0.7-0.3 0-0.5-0.4-0.5-0.7-0.1-0.9 0.3-1.8 0.4-2 0.1-0.2 0.2-0.1 0.1 0.1z"/>
		<path id="&lt;Compound Path&gt;" fill-rule="evenodd" class="s0" d="m63.6 8.1c0 0.1-0.1 0.1-0.2-0.1-0.1-0.1-0.2-0.2-0.4-0.3-0.2 0.4-0.2 0.5-1.1 1.2-1.9 1.7-4 2.3-4.1 2.3-0.2 0.1-0.2 0 0-0.2 0.7-0.5 3.4-1.7 4.9-3.5 0 0-0.5-0.1-0.8-0.4-0.3-0.2-0.1-1 0.1-1.3 0.5-0.8 1-0.4 1.1-0.3 0.5 0.8 0.2 1.6 0.2 1.6 0.3 0.2 0.5 0.5 0.3 1zm-0.9-2.1c-0.1 0-0.2 0-0.5 0.3-0.1 0.2 0 0.3 0.2 0.4 0.2 0 0.6 0.2 0.6 0.2 0-0.1 0-0.6-0.3-0.9z"/>
		<path id="&lt;Compound Path&gt;" fill-rule="evenodd" class="s0" d="m36.2 19.6c-0.5 1.1-2.3 0.8-2.8 0.7q-0.6-0.1-1-0.3c-0.7 0.4-1.5 0.7-1.8 0.8-2 0.6-2.7-1.3-2.8-1.4-1 1.8-2.5 1.9-3 1.8-2.4-0.4-2.5-3.1-2.6-3.8-0.1-0.8-0.6-7.7-1.4-10.7-0.1-0.6 0.2-1.1 0.3-1.2 0.1-0.1 0.1-0.3 0.2 0 0.9 2.7 1.5 11.7 1.8 12.7 0.6 2 1.9 1.8 2.5 1.7 1.4-0.1 2.2-1.8 2.5-2.1 0.3-0.4 0.3 0 0.2 0.5 0.3 2.1 2.7 1.2 3 1.1q0.1 0 0.2-0.1-0.2-0.3-0.3-0.5c-0.1-0.6 0.4-2.2 1.3-2.8 1-0.6 1.4 0 1.5 0.4 0.4 1.2-0.1 2.1-0.2 2.4q-0.1 0.2-0.2 0.3c0.8 0.2 1.5 0.1 1.9 0 0.7-0.3 0.6-0.9 0.5-1.2 0-0.3-1.4-10.6-1.5-11.1-0.1-0.4-0.2-0.6-0.2-0.7 0 0 0.4-0.9 0.5-1 0-0.1 0.1 0 0.1 0.1 0 0.1 1.3 2.7 1.3 2.9 0.1 0.1 0 0.2-0.1 0.1-0.1-0.1-0.7-0.6-0.7-0.6 0 0 1.1 8.3 1.2 9.1 0.1 1.4-0.2 2.6-0.4 2.9zm-2.6-1.5c0.2-0.2 0-0.7-0.4-1-0.3-0.4-1.1 0.3-1.3 0.6-0.3 0.5 0.2 0.9 0.5 1q0.2 0 0.3 0.1c0.6-0.3 0.8-0.6 0.9-0.7z"/>
		<path id="&lt;Path&gt;" class="s0" d="m37.7 5.2c0.1 0.1 1.3 3 1.4 3.2 0 0.2-0.1 0.2-0.2 0.1-0.1-0.1-0.7-0.6-0.7-0.6 0 0 1.1 8 1.2 8.2q0.3 2.4 0.2 3.5c-0.1 1-0.3 1.4-0.3 1.5-0.1 0.2-0.2 0.1-0.1-0.1-0.1-0.6-0.2-1.6-0.3-2.8-0.3-2.5-1.4-10.2-1.6-11.5 0-0.1-0.1-0.5-0.1-0.6 0 0 0.4-0.9 0.4-1 0.1-0.1 0.1 0 0.1 0.1z"/>
		<path id="&lt;Compound Path&gt;" fill-rule="evenodd" class="s0" d="m43.8 7.8c-0.1 0.2-0.1 0.1-0.2-0.1-0.1 0-0.4-0.3-0.4-0.3 0 0-0.4 0.9-1.1 1.4-1.3 1-2.5 1.2-2.5 1.2-0.2 0-0.2-0.1 0-0.2 0.8-0.5 1.8-0.8 3.2-2.6 0 0-0.4-0.1-0.7-0.4-0.3-0.2-0.2-1 0.1-1.3 0.5-0.8 1-0.4 1.1-0.3 0.4 0.8 0.2 1.6 0.2 1.6 0.2 0.2 0.5 0.5 0.3 1zm-0.9-2.1c-0.1 0-0.3 0-0.5 0.4-0.1 0.1 0 0.2 0.2 0.3 0.1 0 0.6 0.2 0.6 0.2 0-0.1 0-0.6-0.3-0.9z"/>
	</g>
</svg>