<svg version="1.2" xmlns="http://www.w3.org/2000/svg" viewBox="0 0 70 30" width="70" height="30">
	<title>New Project</title>
	<style>
		.s0 { fill: #191c4f } 
	</style>
	<g id="الإنسان">
		<path id="&lt;Path&gt;" class="s0" d="m37.4 23.2c0 0.1 0 0.1-0.1 0.2-0.1 0.2-0.2 0.2-0.3 0.3-0.2 0.1-2.2 0.8-2.2 0.8-0.3 0.2-0.3 0.1-0.3 0q0.1 0 0.1-0.2c0-0.2 0.1-0.2 0.3-0.3 0.2-0.1 2.1-0.8 2.3-0.9 0.3-0.2 0.3 0 0.2 0.1z"/>
		<path id="&lt;Path&gt;" class="s0" d="m24.6 21.9c0.3 0.1 0.3 0.6 0.3 0.8-0.3 0.9-0.9 1.5-1 1.6-0.2 0.2-0.2 0.1-0.1-0.1 0 0 0.1-0.2 0.2-0.3 0.6-0.7 0.6-1.1 0.5-1.2 0-0.5-0.4-0.4-0.6-0.1-0.1 0.1-0.1 0-0.1 0q0-0.1 0.1-0.2c0.3-0.5 0.6-0.5 0.7-0.5z"/>
		<path id="&lt;Path&gt;" class="s0" d="m36.6 21.3c0.1 0 0 0.1 0 0.2 0 0-0.2 0.2-0.2 0.3q-0.1 0.1-0.2 0c-0.1-0.3-0.3-0.2-0.5-0.1-0.2 0.1-0.2 0.3-0.2 0.4 0.1 0.1 0.4 0.3 0.6 0.3 0.3 0.1 0.9-0.1 1.1-0.2 0.2-0.1 0.1 0.1 0 0.2 0 0-0.1 0.3-0.3 0.3-1.1 0.2-1.5 0.6-1.7 0.7-0.1 0.1-0.1 0-0.1 0 0.1-0.1 0.1-0.1 0.1-0.3q0.1-0.1 0.3-0.2 0 0-0.3-0.3c-0.4-0.4 0.4-1.2 0.8-1.4 0.3-0.3 0.6 0 0.6 0.1z"/>
		<path id="&lt;Path&gt;" class="s0" d="m16.6 21c-0.1 0.1-0.1 0.1-0.2 0.3-0.1 0.1-0.2 0.2-0.3 0.3-0.2 0.1-4 1.6-4.1 1.6-0.3 0.2-0.3 0.1-0.2 0q0-0.1 0-0.3c0.1-0.2 0.2-0.2 0.4-0.3 0.2-0.1 3.9-1.6 4.1-1.7 0.4-0.2 0.3 0 0.3 0.1z"/>
		<path id="&lt;Path&gt;" class="s0" d="m64.1 19.1c0 0 0 0.2 0 0.5 0 0.2-0.1 0.5-0.2 0.8-0.1 0.3-0.7 0.4-1.2 0.1-0.7 1.2-1.4 0.6-1.7 0.5-0.7-0.3-0.9 0.2-1 0.3-0.9 1-2.4 0.9-2.7 1-0.4 0-0.1-0.2 0.1-0.3 1.2-0.4 1.9-0.5 2.9-1.5 0.5-0.5 0.8-0.2 1-0.2 1 0.5 1.1 0 1.2-0.1 0.2-0.1 0.4-0.6 0.4-0.8 0.1-0.1 0.2 0 0.1 0.1 0 0.1 0 0.3 0 0.4 0.4 0.3 0.8 0 0.9 0 0 0-0.1-0.4-0.1-0.5q0-0.1 0.2-0.5c0-0.2 0.1 0 0.1 0.2z"/>
		<path id="&lt;Path&gt;" class="s0" d="m32.5 15.9c0 0 0 0.3-0.1 0.4-0.3 0.9-0.1 1.3-0.1 1.4 0.2 0.4 0.6 0.2 0.7-0.1 0.1-0.2 0.1-0.1 0.1 0q0 0.1-0.1 0.2c-0.1 0.6-0.3 0.7-0.5 0.7-0.4 0-0.5-0.4-0.5-0.7-0.1-0.9 0.3-1.7 0.4-2 0.1-0.2 0.2-0.1 0.1 0.1z"/>
		<path id="&lt;Path&gt;" class="s0" d="m20.3 15c0 0-0.1 0.2-0.1 0.4-0.3 0.9-0.2 1.3-0.1 1.4 0.2 0.4 0.5 0.2 0.7-0.1 0-0.2 0.1-0.1 0.1 0q-0.1 0-0.1 0.2c-0.2 0.6-0.4 0.7-0.5 0.7-0.4 0-0.5-0.4-0.5-0.7-0.1-0.9 0.3-1.7 0.4-2 0.1-0.2 0.2-0.1 0.1 0.1z"/>
		<path id="&lt;Path&gt;" class="s0" d="m23.8 12.9c0 0-0.1 0.4-0.2 0.7-0.3 1.3-0.1 1.9 0 2 0.4 0.7 0.8 0.3 0.9-0.2 0.1-0.3 0.2-0.1 0.2 0q0 0.1-0.1 0.4c-0.2 0.8-0.4 1-0.7 1-0.4 0-0.7-0.6-0.7-0.9-0.2-1.5 0.3-2.7 0.4-3.1 0.1-0.3 0.2-0.2 0.2 0.1z"/>
		<path id="&lt;Path&gt;" class="s0" d="m10.5 16.2l1 0.7q0 0.1 0 0.1l-0.6 0.8q0 0-0.1 0l-1-0.7q0 0 0-0.1l0.6-0.8q0 0 0.1 0z"/>
		<path id="&lt;Compound Path&gt;" fill-rule="evenodd" class="s0" d="m45.7 17.7c-0.3 0.9-1.7 1.5-2 1.6-1.3 0.4-1.4-0.9-1.3-1.8 0.1-0.9 0.8-2 0.8-2-0.1-0.1-1.4-1.1-1.5-1.2-0.1-0.1-0.2-0.2-0.4-0.3-0.1-0.1-0.1-0.2-0.1-0.2 0 0 0.1-0.9 0.1-1 0-0.1 0-0.1 0.1 0 0.1 0 1.5 0.6 1.7 0.7 0.1 0 0.1 0.1 0 0.2-0.1 0-0.6 0.1-0.6 0.1l1.2 0.9c0 0 1.6-2.2 1.8-2.4 0.2-0.2 0.1-0.1 0.1 0.2 0 0.2-0.3 1.1-0.4 1.2-0.1 0.1-0.9 1.3-0.9 1.3 0 0 1.1 0.6 1.3 1 0.5 0.7 0.2 1.3 0.1 1.7zm-2-1.9c0 0-0.8 1.2-0.9 1.5-0.3 0.7 0.4 0.8 0.7 0.8 0.3 0 1.3-0.5 1.7-0.9 0.5-0.4-1.3-1.2-1.5-1.4z"/>
		<path id="&lt;Path&gt;" class="s0" d="m9.8 11.7c0 0 0 0.3-0.1 0.4-0.3 0.9-0.1 1.3-0.1 1.4 0.3 0.5 0.6 0.2 0.7-0.1 0.1-0.2 0.1-0.1 0.1 0q0 0.1-0.1 0.2c-0.1 0.6-0.3 0.7-0.5 0.7-0.3 0-0.5-0.4-0.5-0.7-0.1-0.9 0.3-1.7 0.4-2 0.1-0.2 0.2-0.1 0.1 0.1z"/>
		<path id="&lt;Compound Path&gt;" fill-rule="evenodd" class="s0" d="m65.6 16.5c-0.1 0.2-0.3 1.2-1.6 0.9-0.4-0.1-1-0.2-1.3-0.9-0.3 0.4-1.1 1.6-2.6 1.4-0.3 0-1.4-0.4-1.4-1.8 0 0-1.3 1-1.8 1.3 0 0.5 0 1.1-0.2 1.7-0.3 0.6-2.9 3.6-5.1 4.1-0.7 0.1-3.5 0.6-3.6-2.5 0-0.6 0-1.1 0.1-1.5-1.7 1.4-3.8 2.4-4.4 2.7-0.9 0.4-4.1 0.9-4.6 1-0.4 0.1-0.5 0-0.3-0.1 0.3-0.2 7.3-2.5 11-6.4 0.1-0.1 0-0.2-0.1-0.4-0.1-0.2-1.2-2.4-1.3-2.7-0.1-0.3-0.3-0.7-0.3-0.8q-0.1-0.1-0.1-0.3c0-0.1 0.1-0.7 0.2-0.8 0-0.2 0.1-0.1 0.2 0 0 0.1 1.2 1.2 1.3 1.4 0.1 0.1 0 0.2 0 0.2-0.1 0-0.6 0-0.6 0 0 0 0.7 1.3 1 1.7 0.4 1.1 0.2 1.9 0 2.3-0.3 0.7-0.9 1.3-1.6 1.9-0.2 0.6-0.4 3.1 2 3.2 0.3 0 1.5 0.1 4-1.8 0.5-0.5 1.1-1 1.7-1.8 0.2-0.3 0.3-0.8-0.1-0.7-0.4 0-2.8 0.9-3.2-0.6-0.1-0.4 0.1-4 2.5-2.2 0.3 0.2 0.8 0.6 1.1 1.3 0.4-0.2 1.2-0.6 2.1-1.4 0.3-0.2 0.6-0.3 0.6 0-0.1 0.3-0.2 2.4 2 1.8 0.2-0.1 1.2-0.3 1.9-2.1 0.2-0.4 0.4-0.3 0.3 0-0.2 0.5-0.4 0.9-0.2 1.1 0.2 0.2 0.8 0.6 1.6 0.5 0.3 0 0.5-0.1 0.4-0.3-0.1-0.3-0.4-0.7-0.4-0.7 0.1-0.3 0.2-0.8 0.2-0.9 0-0.1 0.1-0.2 0.2-0.1 0.1 0.1 0.8 1 0.4 2.3zm-10.1 0.1c-0.8-1-1.8-0.4-1.9-0.3-0.1 0.1-0.2 0.4 0.6 0.4 0.9 0.1 1.3-0.1 1.3-0.1z"/>
		<path id="&lt;Path&gt;" class="s0" d="m27.3 11.1l1 0.7q0 0.1 0 0.1l-0.6 0.8q0 0.1-0.1 0l-1-0.7q0 0 0-0.1l0.6-0.8q0.1 0 0.1 0z"/>
		<path id="&lt;Path&gt;" class="s0" d="m5.9 11.1c0 0-0.1 0.5-0.2 0.8-0.4 1.7-0.1 2.4 0 2.6 0.4 0.8 0.9 0.3 1.1-0.3 0.1-0.3 0.2-0.2 0.1 0q0 0.1 0 0.5c-0.2 1-0.6 1.3-0.9 1.3q-0.1 0-0.2-0.1c-0.8 2.3 0 3.6 0.2 3.8 1.1 1.6 3.2 1.1 3.7 1 3.1-0.8 5-2.6 5.3-3 0.2-0.3-0.1-0.7-0.2-0.9-0.1-0.2-0.7-1.4-1-2.3-0.1-0.3-0.3-1-0.3-1.1 0 0 0.2-0.8 0.3-0.9 0-0.1 0-0.1 0.1 0q0 0.1 0.1 0.2c0 0.1 0.9 1.1 1 1.3 0.1 0.2 0 0.3-0.1 0.2q-0.1 0-0.5-0.1c0 0 1 2.3 1.1 2.5 0.3 1.6-1.3 2.9-1.6 3.2-3.8 2.8-5.9 2.3-6.7 2.1-3.4-1.1-1.9-5.5-1.6-6.2-0.3-0.2-0.4-0.7-0.4-0.9-0.2-1.8 0.3-3.4 0.5-3.8 0.1-0.5 0.2-0.3 0.2 0.1z"/>
		<path id="&lt;Path&gt;" class="s0" d="m44.3 10.1l1 0.7q0.1 0.1 0.1 0.1l-0.6 0.8q-0.1 0-0.1 0l-1-0.7-0.5 0.7q0 0-0.1 0l-1-0.7q0 0 0-0.1l0.6-0.8q0 0 0.1 0l1 0.7 0.5-0.7q0 0 0 0z"/>
		<path id="&lt;Path&gt;" class="s0" d="m63 10.1c0 0 0 0.3-0.1 0.5-0.3 0.8-0.1 1.2-0.1 1.3 0.3 0.5 0.6 0.2 0.7-0.1 0.1-0.2 0.1-0.1 0.1 0q0 0.1-0.1 0.3c-0.1 0.5-0.3 0.6-0.5 0.6-0.3 0-0.5-0.4-0.5-0.6-0.1-1 0.3-1.8 0.4-2 0.1-0.3 0.2-0.2 0.1 0z"/>
		<path id="&lt;Path&gt;" class="s0" d="m53.1 9.6c0 0-0.1 0.3-0.1 0.5-0.4 0.9-0.2 1.4-0.2 1.5 0.3 0.4 0.7 0.2 0.8-0.2 0.1-0.1 0.1-0.1 0.1 0q0 0.1-0.1 0.3c-0.1 0.6-0.4 0.7-0.6 0.7-0.3 0-0.5-0.4-0.5-0.7-0.1-1 0.4-1.9 0.5-2.1 0.1-0.3 0.2-0.2 0.1 0z"/>
		<path id="&lt;Path&gt;" class="s0" d="m26.7 8.9c0 0.1 0 0.2-0.1 0.4-0.1 0.2-0.2 0.2-0.4 0.3-0.2 0.2-7.1 3.7-7.2 3.8-0.3 0.2-0.3 0-0.3-0.1q0.1 0 0.1-0.3c0-0.2 0.1-0.2 0.4-0.4 0.2-0.1 7-3.6 7.3-3.8 0.3-0.2 0.3 0 0.2 0.1z"/>
		<path id="&lt;Path&gt;" class="s0" d="m33.9 9.6c0 0-0.1 0.2-0.2 0.4-0.3 0.9-0.1 1.3-0.1 1.4 0.3 0.4 0.6 0.2 0.7-0.2 0.1-0.1 0.1 0 0.1 0q0 0.1 0 0.3c-0.2 0.5-0.4 0.7-0.6 0.7-0.3 0-0.5-0.5-0.5-0.7-0.1-1 0.3-1.8 0.4-2 0.1-0.2 0.2-0.1 0.2 0.1z"/>
		<path id="&lt;Path&gt;" class="s0" d="m13.2 6.5c0 0-0.1 0.4-0.2 0.7-0.3 1.6 0 2.3 0 2.4 0.4 0.8 0.9 0.4 1.1-0.2 0-0.3 0.1-0.2 0.1 0q0 0.1 0 0.4c-0.2 1-0.6 1.2-0.8 1.2-0.5 0.1-0.8-0.7-0.8-1.1-0.2-1.6 0.3-3.1 0.4-3.5 0.2-0.4 0.3-0.3 0.2 0.1z"/>
		<path id="&lt;Path&gt;" class="s0" d="m10.7 6.3c0.1 0.2 0 0.6-0.1 0.9 0 0.1-0.2 0-0.3-0.2 0 0-0.1-0.1-0.2-0.2-0.5-0.4-0.7 0.4-0.8 0.8 0 0.3-0.1 1.2-0.1 1.7-0.1 0.3-0.2 0.2-0.3 0.1-0.3-1.2-1-1.7-1.1-1.8-0.1-0.1-0.2 0-0.2 0.1 0 0.1-0.1 0.1-0.1 0-0.1 0-0.5-0.2-0.6-0.4-0.1-0.1-0.1-0.5-0.1-0.7 0-0.3 0.2-0.4 0.3-0.3 1.4 0.7 1.8 2 1.9 2.2 0-1 0.1-1.8 0.6-2.5 0.4-0.5 1 0.2 1.1 0.3z"/>
		<path id="&lt;Path&gt;" class="s0" d="m22.1 6.2c0.2 0.2 0.1 0.6 0 0.8-0.1 0.2-0.2 0-0.3-0.1 0 0-0.2-0.1-0.3-0.2-0.5-0.4-0.7 0.4-0.7 0.8-0.1 0.2-0.1 1.2-0.2 1.7 0 0.2-0.2 0.2-0.2 0.1-0.4-1.2-1-1.7-1.1-1.8-0.1-0.2-0.2 0-0.2 0.1-0.1 0.1-0.1 0-0.2 0-0.1 0-0.4-0.3-0.6-0.4-0.1-0.1 0-0.5 0-0.7 0-0.3 0.2-0.4 0.3-0.4 1.3 0.8 1.7 2.1 1.8 2.3 0.1-1 0.1-1.9 0.6-2.5 0.5-0.6 1.1 0.2 1.1 0.3z"/>
		<path id="&lt;Path&gt;" class="s0" d="m24.4 5.8c0 0-0.1 0.2-0.1 0.4-0.3 0.9-0.2 1.3-0.1 1.4 0.2 0.4 0.6 0.2 0.7-0.1 0-0.2 0.1-0.1 0.1 0q0 0-0.1 0.2c-0.1 0.6-0.4 0.7-0.5 0.7-0.4 0-0.5-0.4-0.5-0.7-0.1-0.9 0.3-1.7 0.4-2 0.1-0.2 0.2-0.1 0.1 0.1z"/>
		<path id="&lt;Path&gt;" class="s0" d="m52.2 5.6c0 0.1 0 0.1-0.1 0.3-0.1 0.1-0.2 0.2-0.3 0.3-0.2 0.1-5.4 3.1-5.5 3.2-0.3 0.2-0.3 0-0.3-0.1q0 0 0.1-0.2c0-0.2 0.1-0.2 0.3-0.4 0.2-0.1 5.4-3.1 5.6-3.2 0.3-0.2 0.3-0.1 0.2 0.1z"/>
		<path id="&lt;Path&gt;" class="s0" d="m35.5 5.5c0 0.1 1.3 2.9 1.4 3.1 0 0.1-0.1 0.2-0.2 0.1-0.1-0.1-0.7-0.7-0.7-0.7 0 0 0.7 5.1 0.8 6.3 0.6 3-0.1 4.2-0.4 4.8-1.5 3.4-5.5 3.5-6.1 3.7-0.6 0.1-0.5-0.1-0.3-0.3 3.2-1.2 4.9-2.4 5.7-3.4q0 0 0-0.2c0-0.5 0-0.9-0.3-1.4-1-2.1-3.9-4.3-4.2-4.5-1.5-1.5-3.3-4.2-3.4-4.3-0.1-0.2-0.3-0.3-0.4-0.4-0.1 0-0.1-0.1-0.1-0.3 0-0.2 0-0.9 0-1.1 0-0.1 0.1-0.1 0.2 0.1 0.2 0.1 2.1 1.6 2.4 1.9 0.2 0.2 0 0.2-0.2 0.2-0.1-0.1-0.5-0.2-0.7-0.3 0 0 0.4 0.7 0.8 1.1 0.7 1.1 2.3 2.5 2.6 2.8 0.3 0.4 2.1 1.8 2.9 3 1 1.2 0.7 2.7 0.6 3.1q0.4-0.5 0.5-0.9c0.3-0.7-1.1-9.1-1.1-9.1-0.1-0.7-0.2-1.3-0.2-1.8-0.1-0.4-0.2-0.6-0.2-0.6 0 0 0.4-0.9 0.5-1 0-0.1 0.1 0 0.1 0.1z"/>
		<path id="&lt;Path&gt;" class="s0" d="m38.6 5.5c0 0.1 1.3 3 1.4 3.2 0 0.1-0.1 0.2-0.2 0.1-0.1-0.1-0.8-0.8-0.8-0.8 0 0 1.1 7.5 1.2 7.7q0.3 2.2 0.2 3.2c-0.1 1-0.2 1.3-0.3 1.4-0.1 0.2-0.1 0.1-0.1-0.1 0-0.5-0.2-1.5-0.3-2.6-0.3-2.3-1.4-9.5-1.5-10.7 0-0.1-0.2-0.5-0.2-0.5 0 0 0.4-0.9 0.5-1 0-0.1 0 0 0.1 0.1z"/>
		<path id="&lt;Path&gt;" class="s0" d="m58.6 5.9c0.1 0.2 0 0.6-0.1 0.8-0.1 0.2-0.2 0-0.3-0.1 0 0-0.2-0.1-0.3-0.2-0.5-0.5-0.7 0.4-0.8 0.8 0 0.3-0.1 1.3-0.1 1.8-0.1 0.3-0.2 0.2-0.3 0.1-0.4-1.2-1-1.8-1.2-1.9-0.1-0.1-0.2 0-0.2 0.1 0 0.1-0.1 0.1-0.1 0.1-0.1-0.1-0.5-0.3-0.6-0.5-0.2-0.1-0.1-0.6-0.1-0.7 0-0.4 0.2-0.5 0.3-0.4 1.4 0.8 1.9 2.1 1.9 2.4 0.1-1.1 0.2-2 0.7-2.7 0.5-0.5 1.1 0.3 1.2 0.4z"/>
		<path id="&lt;Compound Path&gt;" fill-rule="evenodd" class="s0" d="m63.7 8.1c-0.1 0.1-0.1 0-0.2-0.1-0.1-0.1-0.2-0.3-0.4-0.4-0.2 0.5-0.2 0.5-1.1 1.3-1.9 1.6-4 2.2-4.1 2.3-0.1 0-0.2-0.1 0-0.2 0.7-0.6 3.4-1.8 4.8-3.5 0 0-0.4-0.2-0.7-0.4-0.3-0.2-0.2-1 0.1-1.3 0.5-0.8 1-0.4 1-0.3 0.5 0.8 0.3 1.6 0.3 1.6 0.2 0.2 0.5 0.5 0.3 1zm-0.9-2.1c-0.1-0.1-0.3-0.1-0.5 0.3-0.1 0.1 0 0.3 0.2 0.3 0.1 0.1 0.5 0.3 0.5 0.3 0.1-0.1 0.1-0.6-0.2-0.9z"/>
		<path id="&lt;Path&gt;" class="s0" d="m16.3 5.5c0.7 2.2 1.2 10.3 1.2 10.7 0.1 0.3 0.2 1.9 0.5 2.6 0.6 1.4 1.8 1.4 2 1.3 1.3 0 2.1-1.3 2.4-1.5 0.2-0.3 0.3 0 0.2 0.1 0 0.1-0.1 0.5-0.1 0.6 0.5 1.1 1.5 0.5 1.7 0.5 0.6-0.3 1.1-1.2 1.4-1.5 0.2-0.2 0.2 0.1 0.1 0.2 0 0.1 0 0.2-0.2 0.5 0.5 1.1 1.4 0.6 1.6 0.4 0.2-0.2 0.5-1.1 0.6-1.3 0.1-0.2 0.3-0.2 0.2 0.3 0.4 0.7 1.7 0.7 1.9 0.7 0.2-0.1 0.2-0.2 0.2-0.3 0-0.1-0.3-1-0.6-1.4-0.2-0.4-0.9-2.2-1-2.3 0-0.1-0.2-0.4-0.3-0.4q-0.1-0.2 0-0.4c0-0.1 0.2-0.7 0.2-0.7 0 0 0-0.1 0.1-0.1 0.1 0.1 1.4 1.5 1.5 1.6 0.1 0.2 0 0.2-0.1 0.2-0.1-0.1-0.4-0.1-0.7-0.2 0 0 0.8 1.4 1 1.8 0.5 0.8 0.5 1.4 0.4 1.8-0.1 1.2-0.6 1.5-0.8 1.6-1.4 0.2-2-0.5-2.1-0.7-0.4 1-1 1.2-1.2 1.2-0.9 0.2-1.2-0.6-1.3-0.8-0.4 0.5-0.9 0.8-1.2 0.9-1.3 0.6-1.8-0.5-2-0.7-0.8 0.9-1.6 1.2-2.1 1.2-2.3 0.1-2.6-2.6-2.7-3.2-0.1-0.5-0.7-8.7-1.4-11.8-0.1-0.2 0.2-0.9 0.3-1 0.2-0.2 0.2-0.4 0.3 0.1z"/>
		<path id="&lt;Path&gt;" class="s0" d="m33.5 5.6c0.1 0.1 0 0.5-0.1 0.7-0.1 0.2-0.2 0-0.3-0.1 0 0-0.1-0.1-0.2-0.2-0.5-0.4-0.6 0.4-0.7 0.7 0 0.3-0.1 1.2-0.2 1.7 0 0.2-0.1 0.1-0.2 0-0.3-1.1-0.9-1.6-1-1.7-0.1-0.1-0.2 0.1-0.2 0.1 0 0.1-0.1 0.1-0.1 0.1-0.1-0.1-0.5-0.3-0.6-0.4-0.1-0.1 0-0.5 0-0.7 0-0.3 0.2-0.4 0.3-0.3 1.2 0.7 1.6 1.9 1.7 2.1 0-0.9 0.1-1.7 0.5-2.4 0.4-0.5 1 0.3 1.1 0.4z"/>
		<path id="&lt;Compound Path&gt;" fill-rule="evenodd" class="s0" d="m44.1 7.8c-0.1 0.1-0.1 0-0.2-0.1-0.1-0.1-0.4-0.4-0.4-0.4 0 0-0.5 0.9-1.2 1.5-1.2 1-2.4 1.1-2.4 1.1-0.1 0.1-0.2 0 0-0.2 0.9-0.4 1.8-0.8 3.2-2.5 0 0-0.4-0.2-0.7-0.4-0.3-0.2-0.2-1 0-1.3 0.6-0.8 1-0.4 1.1-0.3 0.5 0.8 0.2 1.6 0.2 1.6 0.3 0.2 0.5 0.5 0.4 1zm-0.9-2.1c-0.1 0-0.3-0.1-0.6 0.3 0 0.2 0.1 0.3 0.2 0.3 0.2 0.1 0.6 0.3 0.6 0.3 0-0.1 0.1-0.6-0.2-0.9z"/>
	</g>
</svg>