<svg version="1.2" xmlns="http://www.w3.org/2000/svg" viewBox="0 0 70 30" width="70" height="30">
	<title>New Project</title>
	<style>
		.s0 { fill: #191c4f } 
	</style>
	<g id="المرسلات">
		<path id="&lt;Path&gt;" class="s0" d="m13.7 22.2c-0.1 0.1-0.1 0.2-0.2 0.3 0 0.2-0.1 0.2-0.3 0.3-0.2 0.1-4.6 1.6-4.7 1.7-0.4 0.1-0.3 0-0.3-0.1q0 0 0.1-0.2c0-0.2 0.1-0.2 0.3-0.3 0.3-0.1 4.6-1.7 4.9-1.8 0.3-0.1 0.2 0 0.2 0.1z"/>
		<path id="&lt;Path&gt;" class="s0" d="m21.4 21.8c0 0 0 0.3-0.1 0.4-0.3 0.8-0.1 1.2-0.1 1.3 0.2 0.4 0.5 0.2 0.7-0.1 0-0.2 0.1-0.1 0 0q0 0 0 0.2c-0.1 0.5-0.4 0.6-0.5 0.6-0.3 0-0.4-0.4-0.5-0.6 0-0.9 0.4-1.6 0.4-1.8 0.1-0.2 0.2-0.2 0.1 0z"/>
		<path id="&lt;Path&gt;" class="s0" d="m36.2 20.7c0 0-0.1 0.2-0.1 0.4-0.3 0.8-0.1 1.2-0.1 1.3 0.2 0.4 0.5 0.2 0.6-0.2 0.1-0.1 0.1 0 0.1 0q0 0.1 0 0.3c-0.2 0.5-0.4 0.6-0.5 0.6-0.3 0-0.5-0.4-0.5-0.6 0-0.9 0.3-1.6 0.4-1.8 0.1-0.3 0.2-0.2 0.1 0z"/>
		<path id="&lt;Path&gt;" class="s0" d="m64.2 20.7c0 0 0 0.2 0 0.4 0 0.2-0.1 0.5-0.2 0.8-0.1 0.3-0.7 0.5-1.1 0.2-0.7 1.1-1.4 0.5-1.7 0.4-0.7-0.3-0.9 0.2-1 0.3-0.8 0.9-2.3 0.9-2.6 0.9-0.3 0.1-0.1-0.2 0.1-0.2 1.1-0.4 1.8-0.5 2.9-1.4 0.4-0.5 0.7-0.3 0.9-0.2 0.9 0.4 1 0 1.2-0.1 0.1-0.1 0.3-0.7 0.3-0.8 0.1-0.2 0.2 0 0.2 0.1-0.1 0.1-0.1 0.3-0.1 0.3 0.4 0.3 0.8 0.1 0.8 0 0 0 0-0.3 0-0.4q0-0.1 0.1-0.5c0.1-0.2 0.2 0 0.2 0.2z"/>
		<path id="&lt;Path&gt;" class="s0" d="m15.6 15.9c0.1 0.2 0.7 1 0.9 1.4 0.4 0.8-0.1 1.7-0.2 1.9-0.8 1-2.6 1.7-3.8 2-5.2 1.5-6.6 0.3-6.7 0.1-1.7-1.6-0.1-4 0-4.2 0.2-0.2 0.4-0.1 0.3 0.1-0.3 0.5-0.5 1.4-0.5 1.7-0.1 1.9 2.5 1.9 3 1.8 5-0.3 7.1-2 7.4-2.2 0.2-0.2-0.7-1.3-0.9-1.5 0 0 0.1-0.9 0.2-1.1q0.1-0.2 0.3 0z"/>
		<path id="&lt;Path&gt;" class="s0" d="m11.8 15.8l1 0.7q0 0 0 0l-0.6 0.8q0 0-0.1 0l-0.9-0.7-0.5 0.7q0 0 0 0l-1-0.7q0 0 0-0.1l0.5-0.7q0.1-0.1 0.1 0l1 0.6 0.4-0.6q0.1-0.1 0.1 0z"/>
		<path id="&lt;Compound Path&gt;" fill-rule="evenodd" class="s0" d="m46.5 19.3c-0.3 1-1.7 1.5-2 1.6-1.2 0.4-1.3-0.8-1.2-1.7 0.1-0.9 0.7-2 0.7-2 0 0-1.3-1-1.4-1.1-0.1-0.1-0.2-0.3-0.3-0.3-0.1-0.1-0.1-0.2-0.1-0.2 0 0 0-0.9 0-1 0-0.1 0.1 0 0.2 0 0.1 0.1 1.4 0.6 1.6 0.7 0.1 0 0.1 0.2 0 0.2-0.1 0-0.6 0.1-0.6 0.1l1.2 0.8c0 0 1.5-2 1.7-2.2 0.1-0.2 0.1-0.1 0.1 0.1-0.1 0.2-0.3 1.1-0.4 1.2-0.1 0.1-0.9 1.2-0.9 1.2 0 0 1 0.7 1.3 1 0.4 0.7 0.2 1.3 0.1 1.6zm-2-1.8c0 0-0.7 1.2-0.8 1.4-0.3 0.8 0.4 0.9 0.7 0.9 0.2-0.1 1.2-0.6 1.6-0.9 0.4-0.4-1.2-1.2-1.5-1.4z"/>
		<path id="&lt;Compound Path&gt;" fill-rule="evenodd" class="s0" d="m65.6 18.2c-0.1 0.2-0.3 1.1-1.6 0.9-0.3-0.1-0.9-0.2-1.2-0.9-0.3 0.4-1 1.6-2.5 1.4-0.3-0.1-1.3-0.5-1.4-1.8 0 0-1.1 1-1.7 1.3 0.1 0.5 0 1-0.2 1.6-0.2 0.5-2.8 3.4-4.9 3.9-0.7 0.1-3.3 0.6-3.4-2.3 0-0.7 0-1.1 0-1.5-1.6 1.3-3.6 2.3-4.2 2.6-0.8 0.4-3.9 0.9-4.4 1-0.4 0-0.4-0.1-0.2-0.2 0.2-0.1 7-2.4 10.5-6.1q0.1-0.2 0-0.4c-0.1-0.2-1.2-2.3-1.3-2.6-0.2-0.3-0.3-0.6-0.4-0.7q0-0.2 0-0.3c0-0.2 0.1-0.7 0.2-0.9 0-0.1 0.1 0 0.1 0.1 0.1 0.1 1.2 1.2 1.3 1.3 0.2 0.2 0.1 0.2 0 0.2 0 0-0.6 0-0.6 0 0 0 0.7 1.2 1 1.7 0.4 1 0.2 1.8 0 2.2-0.3 0.6-0.9 1.2-1.6 1.8-0.1 0.5-0.3 3 2 3.1 0.3 0 1.5 0.1 3.8-1.8 0.5-0.4 1.1-0.9 1.6-1.7 0.3-0.3 0.4-0.7 0-0.7-0.4 0-2.8 0.9-3.1-0.5-0.1-0.4 0.1-3.8 2.4-2.1 0.2 0.1 0.7 0.5 1.1 1.2 0.4-0.2 1.1-0.6 2-1.3 0.3-0.3 0.5-0.4 0.5 0 0 0.3-0.2 2.2 2 1.7 0.2-0.1 1.1-0.3 1.8-2 0.2-0.4 0.4-0.3 0.3 0-0.2 0.4-0.4 0.8-0.2 1 0.2 0.2 0.8 0.6 1.6 0.5 0.2 0 0.4-0.1 0.3-0.3-0.1-0.2-0.4-0.7-0.4-0.7 0.1-0.3 0.2-0.7 0.2-0.8 0.1-0.1 0.1-0.2 0.2-0.1 0.1 0.1 0.8 1 0.4 2.2zm-9.7 0.1c-0.8-1-1.7-0.4-1.8-0.3-0.1 0.1-0.2 0.4 0.6 0.4 0.8 0.1 1.2-0.1 1.2-0.1z"/>
		<path id="&lt;Path&gt;" class="s0" d="m45.2 12l0.9 0.7q0.1 0.1 0 0.1l-0.5 0.8q-0.1 0-0.1 0l-0.9-0.7-0.5 0.7q-0.1 0-0.1 0l-1-0.7q0 0 0-0.1l0.6-0.8q0 0 0.1 0l0.9 0.7 0.5-0.7q0 0 0.1 0z"/>
		<path id="&lt;Path&gt;" class="s0" d="m63.1 12.1c0 0 0 0.2-0.1 0.4-0.3 0.8-0.1 1.2-0.1 1.3 0.3 0.4 0.6 0.2 0.7-0.1 0-0.2 0.1-0.1 0.1 0q0 0.1-0.1 0.2c-0.1 0.6-0.3 0.7-0.5 0.7-0.3 0-0.5-0.5-0.5-0.7 0-0.9 0.3-1.7 0.4-1.9 0.1-0.2 0.2-0.1 0.1 0.1z"/>
		<path id="&lt;Path&gt;" class="s0" d="m5.8 12.2c0 0-0.1 0.4-0.1 0.7-0.4 1.5-0.1 2.2-0.1 2.3 0.5 0.8 0.9 0.4 1.1-0.2 0-0.3 0.1-0.2 0.1 0q0 0.1-0.1 0.4c-0.1 1-0.5 1.2-0.7 1.2-0.5 0-0.8-0.7-0.8-1.1-0.2-1.6 0.3-3 0.5-3.4 0.1-0.4 0.2-0.2 0.1 0.1z"/>
		<path id="&lt;Path&gt;" class="s0" d="m53.6 11.6c0 0-0.1 0.2-0.2 0.4-0.3 0.9-0.1 1.3-0.1 1.4 0.3 0.5 0.6 0.3 0.8-0.1 0-0.2 0.1-0.1 0.1 0q-0.1 0.1-0.1 0.3c-0.2 0.5-0.4 0.7-0.6 0.7-0.3 0-0.5-0.5-0.5-0.7 0-1 0.4-1.8 0.5-2.1 0.1-0.2 0.2-0.1 0.1 0.1z"/>
		<path id="&lt;Path&gt;" class="s0" d="m11.1 11.6c0 0-0.1 0.3-0.1 0.5-0.4 1-0.1 1.4-0.1 1.5 0.3 0.5 0.7 0.2 0.9-0.2 0-0.2 0.1-0.1 0.1 0q0 0.1-0.1 0.3c-0.1 0.6-0.4 0.8-0.6 0.8-0.4 0-0.6-0.4-0.7-0.7-0.1-1.1 0.4-2 0.5-2.3 0.1-0.3 0.2-0.1 0.1 0.1z"/>
		<path id="&lt;Path&gt;" class="s0" d="m39.5 8.1c0 0.1 1.2 2.9 1.2 3 0.1 0.2 0 0.2-0.1 0.2-0.1-0.1-0.7-0.7-0.7-0.7 0 0 1.1 7.7 1.1 7.9q0.3 2.2 0.2 3.3c0 1-0.2 1.3-0.3 1.4 0 0.2-0.1 0.1-0.1-0.1 0-0.5-0.1-1.5-0.3-2.7-0.3-2.3-1.3-9.6-1.4-10.9-0.1-0.1-0.2-0.5-0.2-0.5 0 0 0.4-0.9 0.4-1 0.1-0.1 0.1 0 0.2 0.1z"/>
		<path id="&lt;Path&gt;" class="s0" d="m33.9 15c0.5 0.1 0.4 0.4 0.3 0.5-0.5 0.7-1 0.9-1.4 1.1-0.4 0.2-0.2-0.1 0-0.3 0 0 0.3-0.2 0.6-0.4 0.4-0.3-0.6-0.2-1-0.3-0.3 0-0.4 0.2-0.6 0.3-0.1 0.2-0.3 0.1-0.1-0.1 0-0.1 0.1-0.3 0.4-0.7 0.3-0.3 1.2-0.1 1.8-0.1z"/>
		<path id="&lt;Path&gt;" class="s0" d="m27.2 13.5c0 0 0 0.3-0.1 0.5-0.4 1.1-0.1 1.6-0.1 1.7 0.4 0.5 0.8 0.2 1-0.2 0-0.2 0.1-0.1 0.1 0q0 0.1-0.1 0.3c-0.1 0.7-0.4 0.8-0.7 0.8-0.4 0-0.6-0.5-0.6-0.7-0.2-1.2 0.3-2.2 0.4-2.4 0.1-0.3 0.2-0.2 0.1 0z"/>
		<path id="&lt;Compound Path&gt;" fill-rule="evenodd" class="s0" d="m34.3 12.7c-0.1 0.2-0.1 0.1-0.2 0 0-0.1-0.3-0.4-0.3-0.4 0 0-1 1.5-2 2.2-1.1 0.8-2.1 1.1-2.2 1.1-0.1 0.1-0.1 0 0.1-0.1 0.7-0.4 2.5-1.8 3.8-3.3 0 0-0.4-0.1-0.7-0.3-0.2-0.2-0.1-0.9 0.1-1.2 0.5-0.7 0.9-0.3 1-0.2 0.4 0.7 0.1 1.4 0.1 1.4 0.2 0.1 0.5 0.4 0.3 0.8zm-0.8-1.8c0 0-0.2-0.1-0.4 0.3-0.1 0.1 0 0.2 0.1 0.2 0.2 0.1 0.5 0.3 0.5 0.3 0.1-0.1 0.1-0.5-0.2-0.8z"/>
		<path id="&lt;Path&gt;" class="s0" d="m33.1 8.6c-0.1 0.1-0.1 0.2-0.2 0.4-0.1 0.2-0.2 0.3-0.4 0.4-0.3 0.1-9.8 5.3-9.9 5.4-0.4 0.2-0.4 0.1-0.3-0.1q0 0 0.1-0.3c0-0.2 0.1-0.3 0.4-0.4 0.2-0.2 9.7-5.4 10-5.5 0.4-0.2 0.3-0.1 0.3 0.1z"/>
		<path id="&lt;Compound Path&gt;" fill-rule="evenodd" class="s0" d="m39.6 19.7c-0.5 1.4-1.8 0.6-1.9 0.5-0.3-0.3-0.6-0.7-0.8-1.1q-0.2 0.2-0.4 0.2c-1.1 0.6-2.1 0.6-2.6 0.5 0 0.7-0.1 1.4-0.2 1.9-0.2 0.5-1.5 1.7-1.9 1.9-2.2 1.6-3.8 1.3-4 1.2-2-0.7-1.4-3.4-1.4-3.7q0 0 0-0.1c-0.2-0.1-0.5-0.3-0.7-0.8-0.9 1.2-1.9 1.2-2.2 1.3-2-0.1-2.6-2.8-2.7-3 0 0 0 1.5-1.3 2.9-1 1.4-4.1 2.1-4.2 2.2-0.2 0-0.3-0.1-0.1-0.2 0.1-0.1 2.8-1.7 3.1-1.9 1.1-0.8 1.6-1.7 1.9-2.4 0-0.3-0.1-0.8-0.3-1.1-1.2-2.1-3.5-3.7-3.7-3.9-1.4-1.2-3.2-3.4-3.3-3.6-0.1-0.1-0.2-0.2-0.3-0.3-0.1 0-0.1-0.1-0.1-0.3-0.1-0.2-0.1-0.8-0.1-0.9 0.1-0.1 0.1-0.1 0.2 0 0.1 0.2 1.8 1.3 2 1.5 0.2 0.2 0.1 0.3-0.1 0.2-0.2 0-0.3 0-0.6-0.1 0 0 2.1 2.3 3.3 3.2 0.4 0.2 1.6 1.3 2.3 2.2 0.6 0.8 0.8 1.9 0.9 2.6 0.2-0.5 0.2-0.9 0.2-1 0-0.4-0.3-2.3-0.4-2.8-0.1-0.4-0.8-4.5-1-5.3-0.1-0.8 0-1.1 0.1-1.4q0.1-0.4 0.2-0.1c0.7 1.6 1.4 6.9 1.4 6.9 0 0 0.4 2.5 0.5 2.9 0.2 1.2 0.9 2 1.2 2.1 1.3 0.9 2.5-0.1 2.7-0.3 0.2-0.3 0.6-0.9 0.8-1.2 0.2-0.2 0.2 0.1 0.2 0.3q-0.1 0.2-0.2 0.5c0.3 1.3 1.6 0.6 1.8 0.5 0.4-0.3 0.8-1.6 0.9-1.8 0.2-0.2 0.3-0.1 0.2 0.1 0 0.2-0.1 0.4-0.1 0.5 0.2 0.9 1.3 0.7 1.5 0.7 0.2-0.1 0.2-0.3 0.1-0.5 0-0.1-0.2-0.5-0.2-0.6 0-0.2-0.1-0.3 0-0.4 0-0.2 0-0.4 0.1-0.5 0-0.1 0.1-0.1 0.2 0 0.1 0.2 0.4 0.8 0.4 1.1 0.1 1.4-0.6 1.9-0.8 2-0.8 0.2-1.5-0.3-1.6-0.5-0.5 1-1 1.1-1.1 1.2-0.1 0-0.5 0.2-0.8 0.1q0 0.1 0 0.2c0 0.1-0.1 0.6 0 0.9 0.1 2 2.6 1.5 2.9 1.4 1.8-0.4 3.6-2.3 3.7-2.5 0.2-0.1 0.2-0.3 0.1-0.5-0.1-0.8-0.7-2-0.7-2-0.1-0.1-0.1-0.1-0.1-0.2 0-0.2 0.2-0.7 0.2-0.8 0.1-0.1 0.1 0 0.2 0.1 0 0.1 0.4 0.7 0.4 0.7 0.8 0.6 2 0.2 2.4 0.1 0.1-0.1 0.4-0.2 0.7-0.3q-0.2-0.5-0.3-0.7c-0.1-0.5-1.4-7.5-1.5-7.9 0-0.4-0.1-0.6-0.1-0.7 0 0 0.4-0.8 0.4-0.9 0.1-0.1 0.1 0 0.1 0.1 0.1 0.1 1.3 2.8 1.3 2.9 0.1 0.2-0.1 0.3-0.1 0.2-0.1-0.1-0.7-0.7-0.7-0.7 0 0 1 5.4 1.2 6.3q0.2 0.6 0.4 1 0 0 0.1 0c1-0.5 1.7-0.1 1.9 0 0.7 0.5 0.5 1.7 0.4 1.9zm-1-0.9q-0.4-0.2-0.8-0.1 0.1 0.1 0.1 0.2c0.1 0.2 0.5 0.6 1 0.5 0.5-0.1-0.1-0.5-0.3-0.6z"/>
		<path id="&lt;Path&gt;" class="s0" d="m26.3 8.2c0.2 0.2 0.1 0.5 0 0.7 0 0.2-0.1 0-0.3-0.1 0 0-0.1-0.1-0.2-0.2-0.5-0.3-0.6 0.5-0.6 0.8 0 0.3 0 1.1 0 1.6 0 0.2-0.2 0.2-0.2 0.1-0.4-1.1-1.1-1.5-1.2-1.6-0.1-0.1-0.1 0.1-0.2 0.1 0 0.1 0 0.1-0.1 0.1 0 0-0.4-0.2-0.5-0.3-0.1-0.1-0.1-0.5-0.1-0.7 0-0.3 0.1-0.4 0.2-0.3 1.3 0.5 1.8 1.7 1.8 1.9 0-0.9 0-1.7 0.4-2.4 0.4-0.5 1 0.2 1 0.3z"/>
		<path id="&lt;Path&gt;" class="s0" d="m10.8 8.3c0.1 0.2 0 0.6-0.1 0.8 0 0.2-0.2 0-0.3-0.1 0 0-0.1-0.2-0.2-0.3-0.5-0.4-0.7 0.4-0.8 0.8 0 0.3 0 1.3-0.1 1.8q0 0 0 0.1c-0.1 0.4-0.3 1-1 1.5-1 0.6-1 0.6-1.1 0.7-0.1 0-0.2-0.1 0-0.2 0.1-0.1 1.9-1.6 1.8-2.3-0.3-0.9-1-1.5-1.1-1.6-0.1-0.1-0.2 0.1-0.2 0.1 0 0.1-0.1 0.1-0.1 0.1-0.1-0.1-0.5-0.3-0.6-0.4-0.1-0.1-0.1-0.6 0-0.8 0-0.3 0.2-0.4 0.3-0.3 1.3 0.7 1.7 2 1.8 2.3 0.1-1 0.1-1.9 0.6-2.6 0.4-0.5 1.1 0.3 1.1 0.4z"/>
		<path id="&lt;Path&gt;" class="s0" d="m52.7 7.7c0 0.1 0 0.1-0.1 0.3 0 0.1-0.1 0.2-0.3 0.3-0.2 0.1-5.2 3-5.3 3-0.3 0.2-0.2 0.1-0.2 0q0 0 0-0.3c0.1-0.1 0.1-0.2 0.4-0.3 0.2-0.1 5.1-3 5.3-3.1 0.3-0.2 0.3-0.1 0.2 0.1z"/>
		<path id="&lt;Path&gt;" class="s0" d="m58.8 8c0.1 0.2 0.1 0.6 0 0.8-0.1 0.2-0.2 0-0.3-0.1 0 0-0.2-0.2-0.3-0.2-0.5-0.5-0.7 0.3-0.7 0.7-0.1 0.3-0.1 1.3-0.2 1.8 0 0.2-0.2 0.2-0.2 0.1-0.4-1.2-1.1-1.8-1.2-1.9-0.1-0.1-0.2 0.1-0.2 0.2 0 0-0.1 0-0.1 0-0.1 0-0.5-0.3-0.6-0.4-0.1-0.1-0.1-0.6-0.1-0.8 0-0.3 0.2-0.4 0.3-0.3 1.4 0.7 1.8 2.1 1.9 2.3 0.1-1 0.1-1.9 0.6-2.6 0.5-0.5 1.1 0.3 1.1 0.4z"/>
		<path id="&lt;Compound Path&gt;" fill-rule="evenodd" class="s0" d="m63.8 10.1c-0.1 0.1-0.1 0-0.2-0.1-0.1-0.1-0.2-0.2-0.4-0.3-0.2 0.4-0.2 0.5-1.1 1.2-1.8 1.6-3.8 2.1-3.9 2.1-0.1 0.1-0.2 0 0-0.1 0.7-0.5 3.3-1.7 4.6-3.4 0 0-0.4-0.1-0.7-0.3-0.3-0.3-0.1-1 0.1-1.3 0.5-0.8 1-0.4 1-0.3 0.5 0.8 0.3 1.5 0.3 1.5 0.2 0.2 0.4 0.5 0.3 1zm-0.9-2c-0.1-0.1-0.2-0.1-0.5 0.3-0.1 0.1 0 0.2 0.2 0.3 0.2 0.1 0.5 0.3 0.5 0.3 0.1-0.1 0.1-0.6-0.2-0.9z"/>
		<path id="&lt;Compound Path&gt;" fill-rule="evenodd" class="s0" d="m44.9 9.8c0 0.1-0.1 0-0.2-0.1 0 0-0.4-0.3-0.4-0.3 0 0-0.4 0.9-1.1 1.4-1.2 0.9-2.3 1.1-2.3 1.1-0.1 0-0.2-0.1 0-0.2 0.8-0.5 1.7-0.8 3.1-2.4 0 0-0.4-0.2-0.7-0.4-0.3-0.2-0.2-1 0-1.3 0.6-0.8 1-0.4 1.1-0.3 0.4 0.8 0.2 1.6 0.2 1.6 0.2 0.1 0.5 0.4 0.3 0.9zm-0.9-2c-0.1 0-0.2 0-0.5 0.3 0 0.1 0 0.3 0.2 0.3 0.2 0.1 0.6 0.3 0.6 0.3 0-0.1 0-0.6-0.3-0.9z"/>
		<path id="&lt;Path&gt;" class="s0" d="m21.1 6.1c-0.1 0.2-0.1 0.2-0.2 0.3 0 0.2-0.1 0.3-0.3 0.4-0.2 0.1-4.5 2.1-4.6 2.2-0.3 0.1-0.3 0-0.3-0.1q0.1 0 0.1-0.2c0-0.2 0.1-0.3 0.3-0.4 0.2-0.1 4.5-2.1 4.7-2.2 0.3-0.2 0.3-0.1 0.3 0z"/>
	</g>
</svg>