<svg version="1.2" xmlns="http://www.w3.org/2000/svg" viewBox="0 0 70 30" width="70" height="30">
	<title>New Project</title>
	<style>
		.s0 { fill: #191c4f } 
	</style>
	<g id="النبأ">
		<path id="&lt;Path&gt;" class="s0" d="m10.3 24.9c0 0.1-0.1 0.1-0.2 0.3-0.1 0.2-0.2 0.3-0.4 0.4-0.3 0.1-3.3 1.2-3.5 1.3-0.5 0.1-0.4 0-0.3-0.1q0 0 0.1-0.3c0-0.2 0.1-0.3 0.4-0.4 0.3-0.1 3.4-1.2 3.6-1.3 0.4-0.2 0.4-0.1 0.3 0.1z"/>
		<path id="&lt;Path&gt;" class="s0" d="m13.4 23.2l1.2 0.9q0.1 0 0 0.1l-0.7 0.9q0 0.1-0.1 0.1l-1.2-0.9q0-0.1 0-0.1l0.7-1q0-0.1 0.1 0z"/>
		<path id="&lt;Path&gt;" class="s0" d="m8.2 22.5c0 0.1 0 0.2 0 0.3-0.1 0.1-0.2 0.3-0.3 0.4q-0.1 0.1-0.2 0c-0.2-0.3-0.5-0.2-0.7-0.1-0.3 0.2-0.3 0.3-0.2 0.4 0.1 0.2 0.5 0.5 0.8 0.5 0.3 0.1 1-0.1 1.3-0.3 0.3-0.1 0.1 0.2 0 0.3 0 0-0.1 0.3-0.3 0.4-1.4 0.3-1.9 0.7-2.1 0.9-0.2 0.1-0.2 0-0.2-0.1 0.1-0.1 0.1-0.1 0.1-0.3q0.2-0.2 0.4-0.3 0 0-0.4-0.4c-0.5-0.4 0.5-1.4 1-1.8 0.4-0.3 0.7 0.1 0.8 0.1z"/>
		<path id="&lt;Path&gt;" class="s0" d="m23.8 22.2c0 0-0.1 0.3-0.1 0.5-0.4 1.1-0.2 1.5-0.2 1.6 0.3 0.6 0.7 0.3 0.9-0.1 0-0.2 0.1-0.1 0.1 0q-0.1 0.1-0.1 0.3c-0.2 0.6-0.4 0.8-0.6 0.8-0.4 0-0.6-0.5-0.6-0.8-0.1-1.1 0.4-2.1 0.5-2.3 0.1-0.3 0.2-0.2 0.1 0z"/>
		<path id="&lt;Path&gt;" class="s0" d="m31.6 21.2c0 0-0.1 0.3-0.2 0.5-0.3 1-0.1 1.5-0.1 1.6 0.3 0.5 0.7 0.2 0.8-0.1 0.1-0.2 0.2-0.1 0.1-0.1q0 0.1 0 0.4c-0.2 0.6-0.5 0.7-0.7 0.7-0.4 0-0.5-0.5-0.5-0.7-0.1-1.2 0.3-2.1 0.5-2.4 0.1-0.2 0.2-0.1 0.1 0.1z"/>
		<path id="&lt;Path&gt;" class="s0" d="m63.8 20.2c0 0 0 0.3 0 0.6 0 0.2-0.2 0.6-0.3 1-0.1 0.4-0.9 0.5-1.4 0.2-0.9 1.4-1.7 0.7-2.2 0.5-0.8-0.3-1 0.2-1.2 0.4-1 1.2-2.9 1.1-3.3 1.2-0.4 0-0.1-0.3 0.1-0.4 1.5-0.5 2.4-0.6 3.7-1.8 0.5-0.5 0.9-0.3 1.1-0.2 1.2 0.6 1.4 0 1.5-0.1 0.2-0.2 0.4-0.8 0.5-1 0.1-0.2 0.2-0.1 0.2 0.1-0.1 0.1-0.1 0.4-0.2 0.5 0.5 0.3 1 0 1.2-0.1 0 0-0.1-0.4-0.1-0.5q0-0.2 0.2-0.6c0.1-0.3 0.1 0 0.2 0.2z"/>
		<path id="&lt;Compound Path&gt;" fill-rule="evenodd" class="s0" d="m41.3 18.5c-0.4 1.2-2.1 1.8-2.5 1.9-1.5 0.5-1.6-1-1.5-2.1 0.1-1.1 0.9-2.5 0.9-2.5-0.1-0.1-1.7-1.3-1.8-1.4-0.1-0.2-0.3-0.4-0.4-0.4-0.2-0.1-0.2-0.2-0.2-0.2 0 0 0.1-1.1 0.1-1.3 0-0.1 0-0.1 0.2 0 0.1 0 1.8 0.7 2 0.8 0.2 0.1 0.1 0.3 0 0.3-0.1 0-0.7 0.2-0.7 0.2l1.5 1c0 0 1.9-2.6 2.1-2.8 0.2-0.3 0.2-0.2 0.2 0.1-0.1 0.3-0.4 1.4-0.5 1.5-0.1 0.2-1.2 1.6-1.2 1.6 0 0 1.4 0.8 1.7 1.3 0.6 0.8 0.2 1.5 0.1 2zm-2.5-2.3c0 0-0.9 1.5-1 1.8-0.4 0.9 0.5 1.1 0.8 1 0.3 0 1.5-0.6 2.1-1.1 0.5-0.4-1.6-1.5-1.9-1.7z"/>
		<path id="&lt;Compound Path&gt;" fill-rule="evenodd" class="s0" d="m65.6 17.1c-0.1 0.2-0.4 1.4-2 1-0.4 0-1.2-0.2-1.6-1.1-0.4 0.5-1.3 2-3.1 1.8-0.4-0.1-1.7-0.6-1.8-2.2 0 0-1.5 1.2-2.2 1.6 0.1 0.6 0 1.2-0.2 2-0.3 0.7-3.6 4.4-6.2 5-0.9 0.2-4.3 0.8-4.4-3-0.1-0.8 0-1.4 0.1-1.8-2.1 1.6-4.6 2.8-5.4 3.2-1.1 0.5-4.9 1.2-5.6 1.3-0.5 0.1-0.6 0-0.3-0.2 0.3-0.2 8.9-3.1 13.3-7.8 0.2-0.1 0.1-0.3 0-0.5-0.1-0.3-1.5-2.9-1.6-3.3-0.2-0.3-0.4-0.8-0.4-0.9q-0.1-0.2-0.1-0.4c0-0.2 0.2-0.9 0.2-1 0.1-0.2 0.1-0.1 0.2 0 0.1 0.1 1.5 1.5 1.7 1.7 0.1 0.2 0 0.2 0 0.2-0.1 0-0.8 0-0.8 0 0 0 0.9 1.6 1.2 2.2 0.6 1.3 0.3 2.3 0.1 2.7-0.4 0.9-1.2 1.7-2.1 2.4-0.1 0.7-0.4 3.8 2.5 3.8 0.5 0.1 1.9 0.2 4.9-2.2 0.6-0.5 1.4-1.2 2.1-2.1 0.2-0.4 0.4-1-0.1-0.9-0.5 0-3.5 1.1-3.9-0.7-0.1-0.5 0.1-4.8 3.1-2.7 0.2 0.2 0.9 0.7 1.3 1.6 0.5-0.2 1.4-0.8 2.6-1.7 0.3-0.3 0.6-0.4 0.6 0 0 0.4-0.2 2.9 2.5 2.1 0.3 0 1.5-0.3 2.3-2.4 0.2-0.5 0.5-0.5 0.4 0-0.2 0.5-0.5 1-0.3 1.2 0.3 0.3 1.1 0.8 2 0.7 0.4 0 0.6-0.2 0.4-0.5-0.1-0.2-0.4-0.8-0.4-0.8 0.1-0.3 0.2-0.9 0.2-1 0.1-0.2 0.1-0.3 0.3-0.2 0.1 0.2 1 1.3 0.5 2.9zm-12.4 0.1c-1-1.3-2.1-0.6-2.3-0.4-0.1 0.1-0.2 0.5 0.8 0.5 1.1 0.1 1.5-0.1 1.5-0.1z"/>
		<path id="&lt;Path&gt;" class="s0" d="m39.6 9.2l1.2 0.9q0.1 0 0.1 0.1l-0.8 1q0 0 0 0l-1.2-0.9-0.7 0.9q0 0 0 0l-1.3-0.9q0 0 0-0.1l0.7-1q0.1 0 0.1 0l1.2 0.9 0.6-0.9q0.1 0 0.1 0z"/>
		<path id="&lt;Path&gt;" class="s0" d="m62.5 9.3c0 0-0.1 0.3-0.2 0.5-0.4 1.1-0.2 1.6-0.1 1.7 0.3 0.5 0.7 0.2 0.8-0.2 0.1-0.2 0.1-0.1 0.1 0q0 0.1 0 0.3c-0.2 0.7-0.5 0.8-0.7 0.8-0.4 0-0.6-0.5-0.6-0.8-0.1-1.1 0.4-2.1 0.5-2.4 0.1-0.3 0.2-0.2 0.2 0.1z"/>
		<path id="&lt;Path&gt;" class="s0" d="m50.3 8.6c0 0-0.1 0.4-0.2 0.6-0.4 1.2-0.1 1.7-0.1 1.8 0.3 0.6 0.8 0.3 0.9-0.2 0.1-0.2 0.2-0.1 0.1 0q0 0.1 0 0.4c-0.2 0.7-0.5 0.9-0.8 0.9-0.4 0-0.6-0.6-0.6-0.9-0.1-1.3 0.4-2.3 0.6-2.6 0.1-0.3 0.2-0.2 0.1 0z"/>
		<path id="&lt;Path&gt;" class="s0" d="m49.2 3.7c0 0.1 0 0.2-0.1 0.4-0.1 0.2-0.2 0.2-0.4 0.4-0.2 0.1-6.6 3.8-6.7 3.8-0.4 0.3-0.4 0.1-0.3 0q0-0.1 0.1-0.4c0-0.2 0.1-0.2 0.3-0.4 0.3-0.1 6.6-3.8 6.9-3.9 0.3-0.2 0.3-0.1 0.2 0.1z"/>
		<path id="&lt;Path&gt;" class="s0" d="m57 4.1c0.1 0.2 0 0.7-0.1 1-0.1 0.2-0.3 0-0.4-0.1 0 0-0.2-0.2-0.3-0.3-0.7-0.6-0.9 0.5-1 1 0 0.3-0.1 1.5-0.2 2.2 0 0.3-0.2 0.3-0.3 0.1-0.4-1.5-1.3-2.2-1.4-2.3-0.2-0.2-0.3 0-0.3 0.1 0 0.1-0.1 0.1-0.2 0.1-0.1-0.1-0.5-0.4-0.7-0.5-0.2-0.2-0.1-0.8-0.1-1 0-0.4 0.3-0.5 0.4-0.4 1.7 0.9 2.3 2.6 2.4 2.9 0.1-1.3 0.1-2.4 0.8-3.3 0.5-0.7 1.3 0.3 1.4 0.5z"/>
		<path id="&lt;Compound Path&gt;" fill-rule="evenodd" class="s0" d="m63.2 6.7c0 0.2-0.1 0.1-0.2-0.1-0.1-0.1-0.3-0.3-0.5-0.4-0.3 0.6-0.3 0.6-1.3 1.6-2.4 2-4.9 2.7-5.1 2.7-0.1 0.1-0.1-0.1 0.1-0.2 0.8-0.7 4.2-2.2 5.9-4.2 0 0-0.6-0.3-0.9-0.5-0.4-0.3-0.2-1.2 0-1.6 0.7-1.1 1.3-0.5 1.4-0.4 0.6 1 0.2 2 0.2 2 0.3 0.2 0.7 0.5 0.4 1.1zm-1.1-2.5c-0.1 0-0.3-0.1-0.6 0.4-0.1 0.2 0 0.3 0.2 0.4 0.3 0.1 0.7 0.3 0.7 0.3 0.1-0.1 0.1-0.7-0.3-1.1z"/>
		<path id="&lt;Path&gt;" class="s0" d="m24.2 13.5l1.2 0.9q0.1 0 0 0l-0.7 1q0 0.1-0.1 0l-1.2-0.8q0-0.1 0-0.1l0.7-1q0.1-0.1 0.1 0z"/>
		<path id="&lt;Path&gt;" class="s0" d="m10.9 13.1c0 0-0.1 0.4-0.2 0.6-0.3 1.4-0.1 2 0 2.2 0.4 0.7 0.9 0.3 1-0.3 0.1-0.2 0.2-0.1 0.1 0q0 0.1 0 0.4c-0.2 0.9-0.5 1.1-0.8 1.1-0.4 0-0.7-0.6-0.7-1-0.2-1.5 0.3-2.8 0.4-3.1 0.2-0.4 0.3-0.3 0.2 0.1z"/>
		<path id="&lt;Path&gt;" class="s0" d="m18.8 13c0 0-0.1 0.4-0.2 0.8-0.4 1.6-0.1 2.4 0 2.5 0.4 0.8 1 0.4 1.1-0.3 0.1-0.3 0.2-0.1 0.2 0q0 0.2-0.1 0.5c-0.2 1-0.5 1.3-0.8 1.3-0.6 0-0.9-0.8-0.9-1.2-0.2-1.8 0.4-3.3 0.5-3.8 0.1-0.4 0.3-0.2 0.2 0.2z"/>
		<path id="&lt;Path&gt;" class="s0" d="m24.7 9.3c0 0 0.1 0.6 0.3 0.9 0.1 0.3 0.2 0.6 0.2 1.1-0.1 0.4-0.4 0.8-0.6 0.9-0.2 0-0.7 0-1.1-0.4-0.4 0.8-0.9 0.9-1.3 0.8-0.4-0.2-0.4-0.9-0.4-1.1 0-0.2 0-0.8 0-1 0-0.1 0-0.2 0.1-0.4 0.1-0.1 0.2-0.1 0.2 0.1 0 0.2-0.1 1.1 0 1.4 0.4 0.5 1.1 0.1 1.3-0.2 0.1-0.2-0.2-1.2-0.2-1.2q-0.1-0.1-0.1-0.2c0 0 0.1-0.3 0.1-0.5q0.1-0.2 0.2 0.1c0.1 0.1 0.1 0.3 0.3 1.2 0.1 0.8 0.9 0.7 1.1 0.6 0.2-0.1 0.1-0.2 0.1-0.3-0.1-0.1-0.4-0.8-0.5-1.1-0.1-0.3 0-0.5 0-0.8 0.1-0.3 0.2-0.1 0.3 0.1z"/>
		<path id="&lt;Path&gt;" class="s0" d="m25.5 5.6c-0.1 0.2-0.1 0.3-0.2 0.5-0.1 0.2-0.2 0.3-0.5 0.5-0.2 0.2-11 6.6-11.1 6.7-0.4 0.3-0.4 0.1-0.3 0q0-0.1 0-0.4c0.1-0.3 0.1-0.4 0.5-0.5 0.3-0.2 10.9-6.7 11.2-6.9 0.5-0.2 0.4 0 0.4 0.1z"/>
		<path id="&lt;Path&gt;" class="s0" d="m12.6 4.5c0.2 0.2 0.1 0.6 0.1 0.9-0.1 0.2-0.3 0-0.4-0.1 0 0-0.2-0.1-0.3-0.2-0.6-0.4-0.7 0.5-0.7 1 0 0.3 0.1 1.4 0.1 2 0 0.2-0.2 0.2-0.3 0.1-0.6-1.3-1.4-1.8-1.5-1.9-0.2-0.1-0.2 0.1-0.3 0.2 0 0.1 0 0.1-0.1 0.1-0.1-0.1-0.6-0.3-0.7-0.4-0.2-0.1-0.2-0.6-0.2-0.8 0-0.4 0.2-0.5 0.3-0.5 1.6 0.6 2.3 2.1 2.4 2.3-0.1-1.1-0.2-2.1 0.3-3 0.4-0.6 1.2 0.2 1.3 0.3z"/>
		<path id="&lt;Path&gt;" class="s0" d="m20.7 4.1c0 0.2-0.1 0.2-0.2 0.5-0.1 0.2-0.2 0.3-0.4 0.5-0.3 0.2-11 6.6-11.2 6.7-0.4 0.3-0.4 0.1-0.3 0q0-0.1 0-0.5c0.1-0.2 0.2-0.3 0.5-0.5 0.3-0.1 11-6.6 11.3-6.8 0.4-0.2 0.3-0.1 0.3 0.1z"/>
		<path id="&lt;Path&gt;" class="s0" d="m27.7 3.3c0.1 0.1 1.5 3.6 1.6 3.8 0.1 0.2-0.1 0.3-0.2 0.2-0.1-0.2-0.8-0.7-0.8-0.7l1.3 8.6c0.2 1.3 0.3 3.4 0.3 3.8-0.2 2.4-2.4 2.7-2.7 2.7-1.9-0.1-2.3-2.2-2.3-2.2-3.9 3-7.7 2.8-8.1 2.8-3.1-0.2-3.9-2.2-3.9-2.2-1 1.8-2.2 2.2-2.7 2.2-3.3 0.2-3.5-3.3-3.6-4.3-0.1-0.9-0.9-9.3-1.6-13 0-0.3 0-0.4 0.1-0.6 0-0.3 0.2-0.8 0.3-0.9 0-0.2 0.1-0.3 0.2 0 0.7 1.6 1.6 12.9 1.7 13.9 0.5 4.4 3.2 3.5 4 3.2 0.8-0.3 1.4-1.6 1.8-2.1 0.3-0.5 0.4 0.1 0.4 0.4 0.8 1.9 3.5 1.9 4.1 1.9 3.4 0.2 7.3-2.7 7.7-2.9 0.4-0.2 0.4 0.1 0.3 0.2 0 0.1 0 0.2 0 0.3 0 1 0.7 1.5 0.9 1.6 1.2 0.5 2.5-0.5 2.7-0.6 0.1-0.1 0.1-0.5 0-1.2-0.1-0.6-1.3-8.4-1.3-8.4-0.3-1.3-0.6-4-0.6-4.5-0.1-0.5-0.3-0.8-0.3-0.8 0 0 0.5-1.1 0.6-1.2 0-0.2 0.1-0.1 0.1 0z"/>
		<path id="&lt;Path&gt;" class="s0" d="m32 3.3c0 0.1 1.5 3.7 1.6 3.9 0 0.2-0.1 0.3-0.2 0.2-0.1-0.2-0.9-0.8-0.9-0.8 0 0 1.1 8.1 1.1 8.3 0.3 2 0.4 3.3 0.3 4.3-0.1 1.2-0.3 1.6-0.3 1.7-0.1 0.2-0.2 0.2-0.2-0.1 0-0.7-0.2-2-0.4-3.4-0.3-2.9-1.3-10.6-1.5-12.2 0-0.2-0.2-0.6-0.2-0.7 0 0 0.5-1.1 0.5-1.2 0.1-0.2 0.1-0.1 0.2 0z"/>
		<path id="&lt;Compound Path&gt;" fill-rule="evenodd" class="s0" d="m39.3 6.4c-0.1 0.2-0.1 0-0.3-0.1 0-0.1-0.5-0.4-0.5-0.4 0 0-0.5 1.1-1.3 1.7-1.6 1.2-2.9 1.4-3 1.4-0.2 0.1-0.2-0.1 0-0.2 1-0.6 2.2-1 3.9-3.1 0 0-0.5-0.2-0.9-0.5-0.3-0.3-0.2-1.2 0.1-1.6 0.7-1 1.2-0.5 1.3-0.3 0.6 0.9 0.3 1.9 0.3 1.9 0.3 0.2 0.6 0.6 0.4 1.2zm-1.1-2.5c-0.1-0.1-0.3-0.1-0.6 0.4-0.1 0.1 0 0.2 0.2 0.3 0.2 0.1 0.7 0.4 0.7 0.4 0-0.2 0.1-0.8-0.3-1.1z"/>
	</g>
</svg>