<svg version="1.2" xmlns="http://www.w3.org/2000/svg" viewBox="0 0 70 30" width="70" height="30">
	<title>New Project</title>
	<style>
		.s0 { fill: #191c4f } 
	</style>
	<g id="عبس">
		<path id="&lt;Path&gt;" class="s0" d="m22.8 21.5c0 0 0 0.3 0 0.6 0 0.2-0.1 0.5-0.3 0.9-0.1 0.3-0.8 0.4-1.2 0.1-0.8 1.2-1.5 0.6-1.9 0.5-0.7-0.3-0.9 0.2-1.1 0.4-0.9 1-2.5 0.9-2.9 1-0.3 0 0-0.2 0.1-0.3 1.3-0.5 2.1-0.5 3.2-1.6 0.5-0.5 0.8-0.3 1-0.2 1.1 0.5 1.2 0 1.4-0.1 0.1-0.1 0.3-0.7 0.4-0.9 0.1-0.1 0.2 0 0.1 0.1 0 0.1-0.1 0.3-0.1 0.4 0.5 0.4 0.9 0.1 1 0 0 0 0-0.3 0-0.5q-0.1-0.1 0.1-0.5c0.1-0.3 0.1 0 0.2 0.1z"/>
		<path id="&lt;Path&gt;" class="s0" d="m25.5 20.8l1.2 0.9q0 0.1 0 0.1l-0.7 1q-0.1 0-0.1 0l-1.2-0.9q0 0 0-0.1l0.7-0.9q0-0.1 0.1-0.1z"/>
		<path id="&lt;Path&gt;" class="s0" d="m63.5 20.9c0 0 0.1 0.3 0.1 0.6 0 0.2-0.2 0.6-0.3 1-0.1 0.3-0.9 0.5-1.4 0.1-0.9 1.4-1.7 0.7-2.1 0.5-0.8-0.3-1 0.3-1.3 0.5-0.9 1.1-2.7 1.1-3.2 1.1-0.4 0 0-0.2 0.1-0.3 1.5-0.5 2.3-0.6 3.6-1.8 0.6-0.6 0.9-0.3 1.1-0.2 1.2 0.5 1.4 0 1.5-0.1 0.2-0.2 0.4-0.8 0.5-1 0.1-0.2 0.2-0.1 0.2 0.1-0.1 0.1-0.1 0.3-0.2 0.5 0.5 0.3 1 0 1.1-0.1 0 0 0-0.4 0-0.5q0-0.2 0.1-0.6c0.1-0.3 0.2 0 0.2 0.2z"/>
		<path id="&lt;Path&gt;" class="s0" d="m31.3 20.1c0.1 0 0.2 0 0.3 0.1q0 0.1-0.1 0.1 0 0-0.1 0c-0.2 0-0.3 0.1-0.5 0.2q-0.2 0-0.3 0.1-0.1 0.1-0.1 0.2 0 0 0 0c0.1 0.2 0.4 0.3 0.6 0.3 0.3 0 0.5-0.3 0.7-0.4 0.1-0.1 0.3-0.3 0.3-0.1q0 0.1 0 0.2c0 0.1-0.1 0.1-0.1 0.1-0.5 0.4-1.1 0.8-1.3 1.3 0 0.3 0 0.6 0.2 0.8 0.1 0.2 0.4 0.4 0.7 0.4q0.5 0.1 1 0 0.2-0.1 0.4-0.1 0.1-0.1 0.2-0.1c0.1 0 0.2 0 0.2 0 0.1 0 0 0.1 0 0.1q0 0.1-0.1 0.1-0.2 0-0.3 0.1c-0.2 0.1-0.4 0.2-0.7 0.3-0.4 0-0.9 0.1-1.2-0.1-0.9-0.5-0.7-1.7-0.2-2.3-0.2 0-0.4-0.1-0.6-0.3-0.1-0.1-0.1-0.3 0-0.5 0.1-0.4 0.6-0.6 1-0.5z"/>
		<path id="&lt;Path&gt;" class="s0" d="m12.6 17.4c0.1 0.2 0.1 0.6 0 0.8 0 0.2-0.2 0-0.3-0.1 0 0-0.1-0.1-0.3-0.2-0.5-0.3-0.6 0.5-0.6 0.9 0 0.3 0.1 1.3 0.1 1.8 0 0.2-0.2 0.3-0.3 0.1-0.5-1.1-1.2-1.6-1.3-1.7-0.2-0.1-0.2 0.1-0.2 0.2 0 0.1-0.1 0.1-0.2 0-0.1 0-0.5-0.2-0.6-0.3-0.2-0.1-0.2-0.5-0.2-0.7 0-0.3 0.2-0.5 0.3-0.4 1.4 0.5 2.1 1.8 2.2 2-0.1-1-0.2-1.9 0.2-2.6 0.4-0.6 1.1 0.1 1.2 0.2z"/>
		<path id="&lt;Compound Path&gt;" fill-rule="evenodd" class="s0" d="m41.5 19.2c-0.4 1.2-2.1 1.8-2.5 1.9-1.5 0.5-1.6-1-1.5-2.1 0.1-1 0.9-2.4 0.9-2.4-0.1-0.1-1.6-1.3-1.8-1.4-0.1-0.2-0.2-0.3-0.4-0.4-0.1-0.1-0.1-0.2-0.1-0.2 0 0 0-1.1 0-1.2 0-0.2 0.1-0.1 0.2-0.1 0.1 0.1 1.8 0.8 2 0.9 0.2 0 0.1 0.2 0 0.2-0.1 0-0.6 0.2-0.6 0.2l1.4 1c0 0 1.9-2.6 2.1-2.8 0.2-0.2 0.2-0.1 0.1 0.2 0 0.2-0.4 1.3-0.5 1.4-0.1 0.2-1.1 1.6-1.1 1.6 0 0 1.3 0.8 1.7 1.2 0.5 0.8 0.2 1.6 0.1 2zm-2.5-2.2c0 0-0.9 1.4-1 1.7-0.4 0.9 0.5 1.1 0.8 1 0.4 0 1.5-0.6 2.1-1 0.5-0.5-1.6-1.6-1.9-1.7z"/>
		<path id="&lt;Path&gt;" class="s0" d="m6.3 12.4c0 0-0.2 0.5-0.3 0.9-0.6 1.7-0.4 2.6-0.3 2.7 0.4 1 1 0.5 1.2-0.2 0.2-0.3 0.2-0.1 0.2 0q0 0.2-0.1 0.6c-0.3 1.1-0.7 1.3-1.1 1.3-0.5-0.1-0.8-0.9-0.8-1.4 0-1.9 0.8-3.6 1-4 0.2-0.5 0.3-0.3 0.2 0.1z"/>
		<path id="&lt;Compound Path&gt;" fill-rule="evenodd" class="s0" d="m65.3 17.8c-0.1 0.3-0.4 1.4-1.9 1.1-0.4-0.1-1.2-0.3-1.6-1.1-0.4 0.4-1.3 2-3.1 1.7-0.4-0.1-1.6-0.6-1.7-2.1 0 0-1.5 1.2-2.2 1.5 0.1 0.6 0.1 1.3-0.2 2-0.3 0.7-3.5 4.3-6.1 4.9-0.8 0.2-4.2 0.8-4.3-2.9 0-0.8 0-1.4 0.1-1.8-2.1 1.6-4.5 2.8-5.3 3.1-1 0.6-4.8 1.2-5.5 1.3-0.5 0.1-0.5 0-0.3-0.2 0.3-0.1 8.7-3 13.1-7.6 0.1-0.1 0.1-0.3 0-0.6-0.1-0.2-1.5-2.8-1.6-3.2-0.2-0.3-0.3-0.7-0.4-0.9q-0.1-0.2-0.1-0.4c0.1-0.1 0.2-0.8 0.2-1 0.1-0.1 0.2-0.1 0.2 0 0.1 0.2 1.5 1.5 1.7 1.7 0.1 0.2 0 0.3-0.1 0.3 0 0-0.7 0-0.7 0 0 0 0.9 1.5 1.2 2.1 0.5 1.2 0.2 2.2 0.1 2.7-0.5 0.8-1.2 1.6-2 2.3-0.2 0.6-0.5 3.7 2.4 3.8 0.4 0 1.9 0.2 4.7-2.2 0.7-0.5 1.5-1.2 2.1-2.1 0.3-0.3 0.4-1 0-0.9-0.5 0.1-3.5 1.2-3.9-0.7-0.1-0.4 0.1-4.7 3-2.6 0.3 0.2 0.9 0.7 1.3 1.5 0.5-0.2 1.4-0.7 2.6-1.6 0.3-0.3 0.6-0.4 0.6 0 0 0.4-0.3 2.8 2.4 2.1 0.3-0.1 1.5-0.3 2.3-2.4 0.2-0.5 0.5-0.5 0.4 0-0.3 0.5-0.5 0.9-0.3 1.2 0.3 0.3 1.1 0.8 2 0.7 0.3-0.1 0.5-0.2 0.4-0.5-0.1-0.3-0.4-0.8-0.4-0.8 0-0.3 0.2-0.9 0.2-1 0-0.2 0.1-0.3 0.2-0.2 0.1 0.2 1 1.3 0.5 2.8zm-12.1 0.1c-1-1.2-2.1-0.5-2.3-0.4-0.1 0.2-0.2 0.5 0.8 0.6 1.1 0.1 1.5-0.2 1.5-0.2z"/>
		<path id="&lt;Path&gt;" class="s0" d="m15.3 11.2c0 0-0.1 0.3-0.2 0.5-0.3 1-0.2 1.5-0.1 1.6 0.3 0.5 0.6 0.2 0.8-0.1 0.1-0.2 0.1-0.1 0.1-0.1q0 0.1-0.1 0.4c-0.2 0.6-0.4 0.7-0.6 0.7-0.4 0-0.6-0.5-0.6-0.7 0-1.1 0.4-2.1 0.5-2.3 0.1-0.3 0.2-0.2 0.2 0z"/>
		<path id="&lt;Path&gt;" class="s0" d="m24.4 10.5c0.5 0.9 1.2 4.2 1.4 4.6 0.4 1.4 1.6 1.8 1.6 1.8-0.1 0-0.5-1.3-0.6-1.7-0.5-1.7 0.4-2.9 0.7-3.2 1-1.2 2.6-1.3 3.5-1.3 0.9 0 2.5 0.8 2.8 1 0.3 0.2 0 0.3-0.3 0.2-0.7-0.2-1.4-0.3-1.9-0.2-1.5 0-3.3 0.8-3.7 1-0.4 0.2-0.5 0.4-0.5 0.6 0 0.6 0.3 1.5 0.5 1.8 0.8 1.8 2.1 2 2.5 2 2 0.2 4.7-2.3 4.9-2.4q0.2-0.2 0.1 0.1c0 0.2-0.3 0.9-0.5 1.2-0.9 1.1-3.2 2.2-4 2.5-4.3 1.4-5.5-1.7-5.5-1.7 0 0-0.5 1.3-1.3 1.4-1.3 0.1-2-0.8-2-0.9-0.3 0.7-0.9 1.2-1.3 1.3-1.2 0.4-1.7-0.7-1.8-0.9-0.8 1-1.8 1.1-1.9 1.1 0.1 0.7-0.3 2-0.4 2.3-0.5 1.1-3.1 2.7-3.5 2.9-4.8 2.6-6.8 0.6-7 0.5-2.3-2.2-0.6-6.1-0.4-6.5 0.2-0.5 0.5-0.2 0.4 0-1 2.1-0.3 3.9-0.2 4.2 0.8 1.8 3.1 1.7 3.5 1.7 2.7-0.2 5.7-2.6 6.4-3.1 0.6-0.5 0.6-0.9 0.6-1.1 0-1-0.9-2.4-1.1-2.7 0 0 0.2-1 0.2-1.1 0-0.1 0.1-0.3 0.2 0 0.6 1.2 1.2 1.4 1.4 1.4 1.1 0 2.4-1.5 2.6-1.7 0.2-0.3 0.2 0 0.2 0.2-0.1 0.1-0.2 0.6-0.3 0.7 0.7 1.5 1.8 0.5 2 0.2 0.2-0.2 0.5-1 0.7-1.3 0.1-0.3 0.3-0.1 0.2 0.1 0 0.2 0 0.2-0.1 0.4 0.3 0.8 1.3 0.9 1.7 0.9 1.1 0 0.8-1.1 0.8-1.4-0.1-0.4-0.9-3.2-1.1-3.7-0.2-0.5 0-0.9 0.1-1.1 0.1-0.2 0.2-0.3 0.4-0.1z"/>
		<path id="&lt;Path&gt;" class="s0" d="m39.8 10.1l1.2 0.9q0.1 0 0 0.1l-0.7 0.9q0 0.1-0.1 0.1l-1.1-0.9-0.6 0.8q-0.1 0.1-0.1 0.1l-1.2-0.9q-0.1-0.1 0-0.1l0.7-1q0 0 0.1 0l1.1 0.9 0.6-0.9q0.1 0 0.1 0z"/>
		<path id="&lt;Path&gt;" class="s0" d="m62.2 10.2c0 0 0 0.3-0.1 0.5-0.4 1-0.2 1.5-0.1 1.6 0.3 0.5 0.6 0.3 0.8-0.1 0.1-0.2 0.1-0.1 0.1 0q0 0.1-0.1 0.3c-0.1 0.6-0.4 0.8-0.6 0.8-0.4 0-0.6-0.6-0.6-0.8-0.1-1.2 0.4-2.1 0.5-2.4 0.1-0.3 0.2-0.2 0.1 0.1z"/>
		<path id="&lt;Path&gt;" class="s0" d="m50.3 9.5c0 0-0.1 0.4-0.2 0.6-0.3 1.1-0.1 1.6-0.1 1.8 0.3 0.5 0.8 0.2 0.9-0.2 0.1-0.2 0.2-0.1 0.1 0q0 0.1 0 0.3c-0.2 0.7-0.5 0.9-0.7 0.9-0.5 0-0.7-0.6-0.7-0.9-0.1-1.2 0.5-2.2 0.6-2.5 0.1-0.3 0.2-0.2 0.1 0z"/>
		<path id="&lt;Path&gt;" class="s0" d="m10.1 6c0.1 0.2 0.1 0.6 0 0.8 0 0.2-0.2 0-0.3-0.1 0 0-0.2-0.1-0.3-0.2-0.6-0.3-0.6 0.5-0.6 0.9-0.1 0.3 0 1.3 0 1.8 0 0.3-0.1 0.3-0.2 0.1-0.5-1.1-1.3-1.6-1.4-1.7-0.1-0.1-0.2 0.1-0.2 0.2 0 0.1-0.1 0.1-0.1 0-0.1 0-0.5-0.2-0.7-0.3-0.1-0.1-0.1-0.5-0.1-0.7 0-0.3 0.1-0.5 0.2-0.4 1.5 0.5 2.1 1.8 2.2 2-0.1-1-0.1-1.9 0.3-2.6 0.4-0.6 1.1 0.1 1.2 0.2z"/>
		<path id="&lt;Path&gt;" class="s0" d="m20.3 5.6c0 0.1 0 0.2-0.1 0.4-0.1 0.2-0.3 0.3-0.5 0.4-0.2 0.2-10.5 5.7-10.6 5.8-0.5 0.3-0.4 0.1-0.4 0q0.1-0.1 0.1-0.4c0.1-0.2 0.2-0.3 0.5-0.5 0.3-0.1 10.4-5.7 10.7-5.8 0.5-0.3 0.4-0.1 0.3 0.1z"/>
		<path id="&lt;Path&gt;" class="s0" d="m27.4 5.1c-0.1 0.1-0.1 0.2-0.2 0.4-0.1 0.2-0.2 0.3-0.4 0.4-0.2 0.1-6.1 3.4-6.9 3.9-0.8 0.5-0.7 0.8-0.5 0.9 0.6 0.1 0.9 0.5 0.6 1.2 0 0-0.1 0-0.1 0-0.1-0.1-0.2-0.3-0.5-0.3-0.4-0.1-0.6-0.7-0.5-1.3 0.1-0.4 0.3-0.9 0.6-1.1 0.7-0.5 7.3-4.1 7.5-4.2 0.4-0.3 0.4-0.1 0.4 0.1z"/>
		<path id="&lt;Path&gt;" class="s0" d="m33.6 5c-0.1 0.2-0.1 0.2-0.2 0.4-0.1 0.2-0.2 0.3-0.4 0.5-0.3 0.1-6.9 3.6-7 3.7-0.4 0.2-0.4 0.1-0.3-0.1q0 0 0-0.3c0.1-0.2 0.2-0.3 0.5-0.5 0.3-0.1 6.8-3.6 7.1-3.8 0.4-0.2 0.4-0.1 0.3 0.1z"/>
		<path id="&lt;Path&gt;" class="s0" d="m49.3 4.7c-0.1 0.1-0.1 0.1-0.2 0.3-0.1 0.2-0.2 0.3-0.4 0.4-0.2 0.2-6.5 3.8-6.6 3.8-0.3 0.3-0.3 0.1-0.3 0q0.1 0 0.1-0.3c0.1-0.2 0.1-0.3 0.4-0.4 0.2-0.2 6.4-3.8 6.7-3.9 0.4-0.2 0.3-0.1 0.3 0.1z"/>
		<path id="&lt;Path&gt;" class="s0" d="m56.9 5c0.1 0.3 0 0.8-0.1 1.1-0.1 0.2-0.3 0-0.4-0.2 0 0-0.2-0.1-0.3-0.3-0.6-0.5-0.9 0.5-1 1 0 0.4-0.1 1.6-0.2 2.2 0 0.3-0.2 0.3-0.3 0.1-0.4-1.5-1.2-2.1-1.3-2.3-0.2-0.1-0.3 0.1-0.3 0.2-0.1 0.1-0.1 0.1-0.2 0-0.1 0-0.6-0.3-0.7-0.5-0.2-0.1-0.1-0.7-0.1-0.9 0-0.4 0.3-0.5 0.4-0.5 1.7 1 2.2 2.6 2.3 2.9 0.1-1.2 0.1-2.3 0.8-3.2 0.5-0.7 1.3 0.3 1.4 0.4z"/>
		<path id="&lt;Compound Path&gt;" fill-rule="evenodd" class="s0" d="m63 7.7c0 0.1-0.1 0-0.2-0.1-0.1-0.1-0.3-0.3-0.5-0.4-0.3 0.5-0.3 0.6-1.3 1.5-2.3 1.9-4.8 2.6-4.9 2.7-0.2 0-0.2-0.1 0-0.3 0.8-0.6 4.1-2 5.8-4.1 0 0-0.6-0.2-0.9-0.5-0.4-0.2-0.2-1.2 0.1-1.5 0.6-1.1 1.2-0.5 1.3-0.4 0.5 1 0.2 1.9 0.2 1.9 0.3 0.2 0.6 0.6 0.4 1.2zm-1.1-2.5c-0.1-0.1-0.3-0.1-0.6 0.4-0.1 0.1 0 0.3 0.2 0.4 0.3 0.1 0.7 0.3 0.7 0.3 0.1-0.2 0.1-0.7-0.3-1.1z"/>
		<path id="&lt;Compound Path&gt;" fill-rule="evenodd" class="s0" d="m39.5 7.3c-0.1 0.2-0.1 0.1-0.3-0.1 0 0-0.4-0.4-0.4-0.4 0 0-0.5 1.1-1.4 1.7-1.5 1.2-2.8 1.4-2.9 1.4-0.2 0.1-0.2-0.1 0-0.2 1-0.6 2.2-1 3.8-3 0 0-0.5-0.3-0.8-0.5-0.4-0.3-0.2-1.2 0-1.6 0.7-1 1.3-0.5 1.3-0.3 0.6 0.9 0.3 1.9 0.3 1.9 0.3 0.2 0.6 0.5 0.4 1.1zm-1.1-2.4c-0.1-0.1-0.3-0.1-0.6 0.3-0.1 0.2 0 0.3 0.2 0.4 0.2 0.1 0.7 0.3 0.7 0.3 0-0.1 0.1-0.7-0.3-1z"/>
	</g>
</svg>