<svg version="1.2" xmlns="http://www.w3.org/2000/svg" viewBox="0 0 70 30" width="70" height="30">
	<title>New Project</title>
	<style>
		.s0 { fill: #191c4f } 
	</style>
	<g id="التكوير 00000147901134921062886670000010893206531864106931 ">
		<path id="&lt;Path&gt;" class="s0" d="m13.5 22.8c0 0.1 0 0.1-0.1 0.2-0.1 0.1-0.1 0.1-0.2 0.2-0.2 0.1-2.4 1-2.5 1-0.3 0.1-0.2 0.1-0.2 0q0 0 0.1-0.2c0-0.1 0-0.1 0.2-0.2 0.1-0.1 2.4-1 2.5-1.1 0.3 0 0.2 0 0.2 0.1z"/>
		<path id="&lt;Path&gt;" class="s0" d="m27 22.2c-0.1 0.1-0.1 0.1-0.2 0.3 0 0.1-0.1 0.1-0.3 0.2-0.2 0.1-3.6 1.4-3.7 1.5-0.3 0.1-0.3 0-0.3-0.1q0.1 0 0.1-0.2c0.1-0.2 0.1-0.2 0.3-0.3 0.2-0.1 3.7-1.4 3.9-1.5 0.3-0.2 0.2 0 0.2 0.1z"/>
		<path id="&lt;Path&gt;" class="s0" d="m15.9 21l0.9 0.7q0.1 0 0 0l-0.5 0.8q0 0-0.1 0l-0.9-0.7-0.4 0.7q-0.1 0-0.1 0l-0.9-0.7q0 0 0 0l0.5-0.8q0.1 0 0.1 0l0.9 0.7 0.4-0.7q0.1 0 0.1 0z"/>
		<path id="&lt;Path&gt;" class="s0" d="m34.6 20c0 0-0.1 0.2-0.1 0.4-0.3 0.7-0.2 1.1-0.1 1.2 0.2 0.3 0.5 0.1 0.6-0.1 0-0.2 0.1-0.1 0.1-0.1q0 0.1-0.1 0.3c-0.1 0.5-0.3 0.6-0.5 0.6-0.2 0-0.4-0.4-0.4-0.6 0-0.9 0.3-1.6 0.4-1.8 0.1-0.2 0.1-0.1 0.1 0.1z"/>
		<path id="&lt;Path&gt;" class="s0" d="m39.7 19.1c0 0-0.1 0.2-0.1 0.4-0.3 0.7-0.2 1.1-0.1 1.2 0.2 0.4 0.5 0.2 0.6-0.1 0-0.2 0.1-0.1 0.1 0q-0.1 0-0.1 0.2c-0.1 0.5-0.3 0.6-0.5 0.6-0.3 0-0.4-0.4-0.4-0.6-0.1-0.8 0.3-1.5 0.4-1.7 0.1-0.3 0.1-0.2 0.1 0z"/>
		<path id="&lt;Path&gt;" class="s0" d="m63.8 19c0 0 0 0.3 0 0.5 0 0.2-0.1 0.4-0.2 0.7-0.1 0.3-0.7 0.4-1.1 0.2-0.6 1-1.2 0.5-1.6 0.4-0.6-0.3-0.7 0.1-0.9 0.3-0.8 0.8-2.1 0.8-2.5 0.8-0.3 0.1 0-0.1 0.1-0.2 1.1-0.4 1.8-0.5 2.7-1.4 0.5-0.4 0.7-0.2 0.9-0.1 0.9 0.4 1 0 1.2-0.1 0.1-0.1 0.2-0.6 0.3-0.8 0.1-0.1 0.2 0 0.1 0.1 0 0.1 0 0.3-0.1 0.4 0.4 0.2 0.8 0 0.9-0.1 0 0-0.1-0.3-0.1-0.3q0-0.2 0.1-0.5c0.1-0.3 0.2 0 0.2 0.1z"/>
		<path id="&lt;Path&gt;" class="s0" d="m10.3 14.7c0 0-0.1 0.4-0.2 0.7-0.3 1.4-0.1 2.1 0 2.2 0.4 0.7 0.8 0.3 1-0.2 0-0.3 0.1-0.2 0.1-0.1q0 0.2-0.1 0.5c-0.1 0.9-0.4 1.1-0.7 1.1-0.5 0-0.7-0.7-0.7-1-0.2-1.6 0.3-2.9 0.4-3.3 0.1-0.4 0.2-0.2 0.2 0.1z"/>
		<path id="&lt;Path&gt;" class="s0" d="m6 17c0 0-0.1 0.4-0.1 0.7-0.4 1.5-0.1 2.1 0 2.2 0.4 0.7 0.8 0.3 0.9-0.2 0.1-0.3 0.2-0.2 0.2 0q0 0.1-0.1 0.4c-0.2 0.9-0.5 1.1-0.7 1.1-0.5 0-0.7-0.6-0.8-1-0.1-1.6 0.4-2.9 0.5-3.3 0.1-0.4 0.2-0.2 0.1 0.1z"/>
		<path id="&lt;Path&gt;" class="s0" d="m21 13.3c0 0-0.1 0.2-0.1 0.3-0.3 0.9-0.1 1.2-0.1 1.3 0.3 0.4 0.5 0.2 0.6-0.1 0.1-0.2 0.1-0.1 0.1 0q0 0 0 0.2c-0.1 0.5-0.3 0.6-0.5 0.6-0.3 0-0.4-0.4-0.5-0.6-0.1-0.8 0.3-1.6 0.4-1.8 0-0.2 0.1-0.1 0.1 0.1z"/>
		<path id="&lt;Compound Path&gt;" fill-rule="evenodd" class="s0" d="m46.9 17.7c-0.2 0.9-1.5 1.4-1.8 1.5-1.1 0.4-1.2-0.8-1.2-1.6 0.1-0.8 0.7-1.9 0.7-1.9 0 0-1.2-1-1.3-1-0.1-0.1-0.2-0.3-0.3-0.3-0.2-0.1-0.1-0.2-0.1-0.2 0 0 0-0.8 0-0.9 0-0.1 0-0.1 0.1 0 0.1 0 1.4 0.5 1.6 0.6 0.1 0.1 0.1 0.2 0 0.2-0.1 0-0.5 0.1-0.5 0.1l1 0.8c0 0 1.5-2 1.7-2.1 0.1-0.2 0.1-0.1 0.1 0.1-0.1 0.2-0.4 1-0.4 1.1-0.1 0.1-0.9 1.2-0.9 1.2 0 0 1 0.6 1.3 0.9 0.4 0.6 0.1 1.2 0 1.5zm-1.8-1.7c0 0-0.7 1.2-0.8 1.4-0.3 0.7 0.4 0.8 0.6 0.7 0.3 0 1.2-0.4 1.6-0.8 0.4-0.3-1.2-1.1-1.4-1.3z"/>
		<path id="&lt;Path&gt;" class="s0" d="m13.3 12.2c0 0 0 0.2-0.1 0.4-0.2 0.8-0.1 1.2 0 1.3 0.2 0.4 0.5 0.2 0.6-0.1 0.1-0.2 0.1-0.1 0.1 0q0 0 0 0.2c-0.2 0.5-0.4 0.7-0.5 0.7-0.3 0-0.5-0.4-0.5-0.7-0.1-0.9 0.2-1.6 0.3-1.9 0.1-0.2 0.2-0.1 0.1 0.1z"/>
		<path id="&lt;Compound Path&gt;" fill-rule="evenodd" class="s0" d="m65.2 16.7c-0.1 0.2-0.3 1-1.5 0.8-0.3-0.1-1-0.2-1.2-0.9-0.3 0.4-1 1.6-2.4 1.4-0.3-0.1-1.2-0.5-1.3-1.7 0 0-1.1 0.9-1.6 1.2 0 0.5 0 1-0.2 1.5-0.2 0.6-2.7 3.3-4.7 3.8-0.6 0.1-3.2 0.6-3.3-2.3 0-0.5 0.1-1 0.1-1.3-1.6 1.2-3.5 2.1-4 2.4-0.8 0.4-3.7 0.9-4.2 1-0.4 0-0.4-0.1-0.2-0.2 0.2-0.1 6.6-2.3 10-5.8q0.1-0.2-0.1-0.4c-0.1-0.2-1.1-2.2-1.2-2.5-0.1-0.2-0.2-0.6-0.3-0.7q-0.1-0.1 0-0.3c0-0.1 0.1-0.6 0.1-0.7 0.1-0.2 0.1-0.1 0.2 0 0 0.1 1.1 1.1 1.2 1.3 0.1 0.1 0 0.1 0 0.1-0.1 0-0.6 0-0.6 0 0 0 0.7 1.2 0.9 1.6 0.5 1 0.2 1.8 0.1 2.1-0.3 0.6-0.9 1.2-1.5 1.8-0.2 0.5-0.4 2.8 1.8 2.9 0.3 0 1.5 0.1 3.6-1.7 0.6-0.4 1.1-0.9 1.6-1.6 0.2-0.3 0.3-0.7 0-0.7-0.4 0.1-2.6 0.9-3-0.5 0-0.3 0.1-3.6 2.4-2 0.2 0.1 0.6 0.5 1 1.2 0.3-0.2 1-0.6 1.9-1.3 0.2-0.2 0.5-0.3 0.5 0-0.1 0.3-0.2 2.2 1.8 1.6 0.3 0 1.1-0.2 1.7-1.8 0.2-0.4 0.5-0.4 0.3 0-0.1 0.4-0.3 0.7-0.2 0.9 0.3 0.2 0.8 0.6 1.6 0.5 0.2 0 0.4-0.1 0.3-0.3-0.1-0.2-0.4-0.6-0.4-0.6 0.1-0.3 0.2-0.7 0.2-0.8 0-0.1 0.1-0.2 0.2-0.1 0.1 0.1 0.7 0.9 0.4 2.1zm-9.3 0.1c-0.7-1-1.6-0.4-1.7-0.3-0.1 0.1-0.2 0.3 0.5 0.4 0.9 0.1 1.2-0.1 1.2-0.1z"/>
		<path id="&lt;Path&gt;" class="s0" d="m45.7 10.8l0.9 0.7q0.1 0 0 0l-0.5 0.8q0 0-0.1 0l-0.9-0.7-0.4 0.7q-0.1 0-0.1 0l-0.9-0.7q-0.1 0 0-0.1l0.5-0.7q0 0 0.1 0l0.9 0.6 0.4-0.6q0.1 0 0.1 0z"/>
		<path id="&lt;Path&gt;" class="s0" d="m62.8 10.8c0 0-0.1 0.3-0.1 0.4-0.3 0.8-0.1 1.2-0.1 1.3 0.2 0.4 0.5 0.2 0.6-0.1 0.1-0.2 0.1-0.1 0.1 0q0 0 0 0.2c-0.2 0.5-0.4 0.6-0.5 0.6-0.3 0-0.5-0.4-0.5-0.6 0-0.9 0.3-1.6 0.4-1.8 0.1-0.2 0.2-0.1 0.1 0z"/>
		<path id="&lt;Path&gt;" class="s0" d="m53.7 10.4c0 0-0.1 0.2-0.1 0.4-0.3 0.9-0.2 1.3-0.1 1.3 0.2 0.5 0.6 0.3 0.7-0.1 0-0.1 0.1-0.1 0.1 0q-0.1 0.1-0.1 0.3c-0.1 0.5-0.4 0.6-0.5 0.6-0.4 0-0.5-0.4-0.5-0.6-0.1-1 0.3-1.8 0.4-2 0.1-0.2 0.2-0.1 0.1 0.1z"/>
		<path id="&lt;Path&gt;" class="s0" d="m17.1 10.2c0 0-0.1 0.4-0.1 0.6-0.3 1.2-0.1 1.7 0 1.9 0.3 0.5 0.7 0.2 0.8-0.3 0.1-0.2 0.2-0.1 0.1 0q0 0.1 0 0.4c-0.2 0.7-0.4 0.9-0.6 0.9-0.5 0-0.7-0.5-0.7-0.8-0.2-1.3 0.3-2.4 0.4-2.7 0.1-0.4 0.2-0.2 0.1 0z"/>
		<path id="&lt;Path&gt;" class="s0" d="m18.1 6.7c0.1 0.2 0 0.6 0 0.8-0.1 0.1-0.2 0-0.3-0.1 0 0-0.1-0.1-0.2-0.2-0.5-0.4-0.7 0.3-0.7 0.7-0.1 0.2-0.1 1.1-0.2 1.6 0 0.2-0.1 0.2-0.2 0-0.3-1-0.9-1.5-1-1.6q0-0.1-0.1-0.1 0.1 0.2 0.1 0.4c-0.2 1.4-1.6 1.9-1.8 2-0.2 0.1-0.2 0.1 0-0.2 0.2-0.2 1.2-1.3 1.4-1.5 0.5-0.4-0.3-0.7-0.5-0.8-0.1-0.2 0-0.6 0-0.7 0-0.3 0.2-0.4 0.3-0.3 1.2 0.6 1.6 1.8 1.6 2 0.1-0.9 0.1-1.7 0.6-2.3 0.4-0.5 1 0.2 1 0.3z"/>
		<path id="&lt;Path&gt;" class="s0" d="m52.9 6.6c0 0.2 0 0.2-0.1 0.3-0.1 0.2-0.2 0.2-0.3 0.3-0.2 0.1-4.9 2.9-5 2.9-0.3 0.2-0.3 0.1-0.3 0q0.1 0 0.1-0.2c0-0.2 0.1-0.2 0.3-0.4 0.2-0.1 4.9-2.8 5.1-2.9 0.3-0.2 0.3-0.1 0.2 0z"/>
		<path id="&lt;Path&gt;" class="s0" d="m58.7 6.9c0.1 0.2 0 0.6-0.1 0.8 0 0.2-0.2 0-0.3-0.1 0 0-0.1-0.1-0.2-0.2-0.5-0.4-0.6 0.4-0.7 0.8 0 0.2-0.1 1.1-0.2 1.6 0 0.2-0.1 0.2-0.2 0.1-0.3-1.1-0.9-1.7-1-1.8-0.2-0.1-0.2 0.1-0.3 0.2 0 0 0 0-0.1 0-0.1 0-0.4-0.3-0.5-0.4-0.2-0.1-0.1-0.5-0.1-0.7 0-0.3 0.2-0.4 0.3-0.3 1.3 0.7 1.7 1.9 1.8 2.1 0-0.9 0.1-1.7 0.6-2.4 0.4-0.5 1 0.3 1 0.3z"/>
		<path id="&lt;Compound Path&gt;" fill-rule="evenodd" class="s0" d="m63.4 9c0 0.1-0.1 0-0.2-0.1-0.1-0.1-0.2-0.3-0.4-0.4-0.2 0.5-0.1 0.5-0.9 1.2-1.8 1.5-3.7 2-3.8 2.1-0.1 0-0.2-0.1 0-0.2 0.6-0.5 3.1-1.6 4.4-3.2 0 0-0.4-0.1-0.6-0.3-0.3-0.2-0.2-0.9 0-1.2 0.5-0.8 0.9-0.4 1-0.3 0.4 0.7 0.2 1.5 0.2 1.5 0.2 0.1 0.5 0.4 0.3 0.9zm-0.8-1.9c-0.1-0.1-0.2-0.1-0.5 0.3-0.1 0.1 0 0.2 0.2 0.2 0.1 0.1 0.5 0.3 0.5 0.3 0-0.1 0.1-0.6-0.2-0.8z"/>
		<path id="&lt;Path&gt;" class="s0" d="m40 6.3c0 0.1 1.1 2.8 1.2 2.9 0 0.2-0.1 0.2-0.2 0.1-0.1-0.1-0.6-0.6-0.6-0.6 0 0 1 7.3 1 7.5q0.3 2.2 0.2 3.2c0 0.9-0.2 1.2-0.2 1.3-0.1 0.2-0.2 0.1-0.2-0.1 0-0.5-0.1-1.5-0.2-2.5-0.3-2.3-1.3-9.2-1.4-10.4 0-0.1-0.1-0.5-0.1-0.5 0 0 0.3-0.9 0.4-1 0-0.1 0 0 0.1 0.1z"/>
		<path id="&lt;Path&gt;" class="s0" d="m35.2 14.5l0.9 0.7q0 0 0 0l-0.6 0.8q0 0 0 0l-0.9-0.7-0.5 0.7q0 0-0.1 0l-0.9-0.7q0 0 0-0.1l0.6-0.7q0 0 0 0l0.9 0.6 0.5-0.6q0 0 0.1 0z"/>
		<path id="&lt;Path&gt;" class="s0" d="m34.9 11.3c0 0 0.1 0.4 0.2 0.6 0.1 0.2 0.2 0.4 0.1 0.7 0 0.3-0.2 0.5-0.3 0.6-0.2 0.1-0.5 0.1-0.8-0.3-0.2 0.6-0.6 0.7-0.8 0.6-0.3-0.2-0.3-0.6-0.3-0.7 0-0.1 0-0.6 0-0.7 0-0.1 0-0.1 0.1-0.2 0-0.1 0.1-0.1 0.1 0 0 0.2-0.1 0.7 0 1 0.3 0.3 0.7 0 0.8-0.2 0.1-0.2-0.1-0.8-0.1-0.8q0-0.1 0-0.1c0 0 0-0.2 0-0.3q0.1-0.2 0.2 0c0 0.1 0 0.2 0.1 0.8 0.1 0.6 0.6 0.4 0.8 0.4 0.1-0.1 0.1-0.1 0-0.2 0-0.1-0.2-0.5-0.3-0.7-0.1-0.2 0-0.4 0-0.5 0.1-0.2 0.1-0.1 0.2 0z"/>
		<path id="&lt;Path&gt;" class="s0" d="m27 9.2c0 0 0 0.3-0.1 0.4-0.2 0.8-0.1 1.1 0 1.2 0.2 0.4 0.5 0.2 0.6-0.1 0-0.2 0.1-0.1 0.1 0q0 0-0.1 0.2c-0.1 0.5-0.3 0.6-0.4 0.6-0.3 0-0.5-0.4-0.5-0.6-0.1-0.8 0.3-1.5 0.3-1.7 0.1-0.2 0.2-0.1 0.1 0z"/>
		<path id="&lt;Path&gt;" class="s0" d="m36.1 9.1c-0.1 0.1-0.1 0.1-0.2 0.3 0 0.1-0.1 0.1-0.3 0.2-0.1 0.1-5.9 2.4-6.3 2.7-0.6 0.3-0.5 0.5-0.4 0.5 0.3 0.1 0.5 0.4 0.3 0.8q-0.1 0-0.1 0c0-0.1-0.1-0.2-0.3-0.2-0.2-0.1-0.3-0.5-0.2-0.9 0.1-0.2 0.3-0.5 0.5-0.6 0.4-0.3 6.6-2.8 6.8-2.8 0.2-0.2 0.2-0.1 0.2 0z"/>
		<path id="&lt;Compound Path&gt;" fill-rule="evenodd" class="s0" d="m45.5 8.7c-0.1 0.1-0.1 0-0.2-0.1-0.1 0-0.4-0.3-0.4-0.3 0 0-0.4 0.8-1 1.3-1.2 0.9-2.2 1.1-2.3 1.1-0.1 0-0.1-0.1 0.1-0.2 0.7-0.5 1.6-0.8 2.9-2.3 0 0-0.4-0.2-0.7-0.4-0.3-0.2-0.1-0.9 0.1-1.2 0.5-0.8 0.9-0.4 1-0.2 0.4 0.7 0.2 1.4 0.2 1.4 0.2 0.1 0.4 0.4 0.3 0.9zm-0.9-1.9c-0.1-0.1-0.2-0.1-0.4 0.3-0.1 0.1 0 0.2 0.1 0.3 0.2 0 0.6 0.2 0.6 0.2 0-0.1 0-0.5-0.3-0.8z"/>
		<path id="&lt;Path&gt;" class="s0" d="m23.4 5.5c0.5 0.1 0.4 0.3 0.3 0.5-0.4 0.5-0.9 0.8-1.3 1-0.4 0.1-0.2-0.2 0-0.3 0 0 0.3-0.2 0.6-0.4 0.3-0.3-0.6-0.2-0.9-0.2-0.4 0-0.5 0.1-0.6 0.2-0.1 0.2-0.3 0.1-0.2-0.1 0.1-0.1 0.2-0.3 0.5-0.6 0.2-0.3 1.1-0.2 1.6-0.1z"/>
		<path id="&lt;Compound Path&gt;" fill-rule="evenodd" class="s0" d="m38.3 18.5c-0.4 1.3-1.5 1.4-1.9 1.4-1.3 0-1.6-1.1-1.7-1.4 0 0-0.7 0.8-1.2 1.1-1.4 0.9-2.5 0.1-2.8-0.1-0.3-0.2-1.7-2-2.6-2.9-0.8-1-1.7-1.4-1.8-1.5 0.1 0.1 0.4 0.6 0.5 1.5 0.1 0.6 0 1-0.2 1.3-0.4 0.3-0.8 0.6-1.4 0.8q0.1 0.5 0 0.7c-0.1 1.2-1.5 2.4-2 2.7-2.6 2.1-4.4 1.1-4.7 0.9-1.6-1.3-0.7-4.3-0.4-4.9q0-0.1 0-0.2c-0.4 0.4-0.9 0.5-1.2 0.6-1.7 0.6-3.3 0.2-3.5 0.2 0 0 0.2 1.4-0.8 2.4-1.5 1.6-4.9 2.9-5.1 2.9-0.1 0.1-3 0.1-3.3 0.2-0.2 0-0.3-0.1-0.1-0.2 4.7-0.8 8.2-3.6 8.6-3.9 0.3-0.3 0.4-0.8 0.3-1 0-0.2-0.7-1.7-0.9-1.9 0 0 0.1-0.7 0.1-0.8 0.1-0.2 0.1-0.1 0.2 0 0.1 0.2 0.6 0.9 0.6 0.9 2.1 1.4 5-0.3 5.2-0.4 0.3-0.1 0.2-0.2 0.2-0.4-0.1-0.1-0.7-0.8-0.8-1 0 0 0.1-0.6 0.1-0.8 0.1-0.2 0.2-0.1 0.2 0 1 0.8 0.9 2 0.8 2.3q-0.1 0.4-0.3 0.7c0 0 0.1 0.1 0 0.3-0.8 1.8-0.3 3-0.1 3.4 0.8 1.6 2.7 0.8 3.1 0.7 1.8-0.7 3.1-2.4 3.3-2.5 0.1-0.1 0.2-0.2 0.2-0.5q-0.1-0.1-0.1-0.2c-1 0.2-2.1 0.2-2.6-0.3-0.6-0.6-0.1-1.9 0.5-2.3 0.5-0.5 1.2 0 1.4 0.2 0.4 0.3 0.7 0.8 0.9 1.2 0.9-0.2 1.3-0.6 1.3-0.7 0.1-0.1 0.2-0.2 0.1-0.4-0.1-0.2-0.4-0.6-0.6-0.9-1.2-1.6-4.9-4.4-5.2-4.6-0.3-0.3-0.2-0.8-0.2-1.1 0.2-1 1-1.4 1.3-1.6 5-2.6 9.8-3.4 10.2-3.4 1.5 0 1.3 0.7 1.3 1-0.2 1.2-2.3 3.5-2.4 3.7-0.2 0.1-0.2-0.1-0.1-0.2 0.3-0.7 1.6-2.1 1.8-2.4 0.2-0.3 0.1-0.6 0.1-0.7-0.2-0.4-1.1-0.4-1.6-0.3-4.6 0.7-9.9 3.7-10.1 3.8-0.2 0.2-0.1 0.2 0 0.3 4 2.2 7.2 5.2 7.6 5.5 0.7 0.6 1.6 1.9 2 2.4 0.7 0.8 1.5 0.8 1.8 0.8 1.6 0 2.5-1.8 2.6-1.9 0.1-0.2 0.1-0.1 0.1 0.1 0 0.9 0.4 1.3 0.5 1.4 0.6 0.4 1.6 0.2 1.9 0.1 0.6-0.2 0.5-0.8 0.5-1 0-0.2-0.2-1.4-0.2-1.9-0.1-0.5-1-7.5-1.1-7.9 0-0.4-0.1-0.6-0.1-0.7 0 0 0.3-0.7 0.4-0.9 0-0.1 0.1 0 0.1 0.1 0.1 0.1 1 2.5 1.1 2.6 0 0.2-0.1 0.2-0.2 0.1 0-0.1-0.5-0.5-0.5-0.5 0 0 0.9 7.4 1 8 0.1 0.9 0 1.6-0.1 2zm-14.1-0.6c-0.2-0.3-0.5-0.4-0.6-0.5-0.5-0.3-0.8-0.1-1 0.1-0.2 0.2-0.1 0.5 1.3 0.4q0.1 0 0.3 0z"/>
		<path id="&lt;Path&gt;" class="s0" d="m10.2 7.6c0.1 0.2 0.1 0.6 0 0.9-0.1 0.1-0.3 0-0.4-0.2 0 0-0.1-0.1-0.2-0.2-0.5-0.4-0.7 0.4-0.8 0.8 0 0.3-0.1 1.9-0.4 2.6-0.6 1.1-0.3 1.7-0.3 1.8 0.3 0.6 0.8 0.3 0.9-0.1 0.1-0.2 0.2-0.1 0.2 0q-0.1 0.1-0.1 0.3c-0.3 0.7-0.6 0.9-0.8 0.8-0.4 0-0.6-0.6-0.6-0.8 0-1.1 0.4-1.9 0.6-2.4 0.1-0.1 0-0.5 0-0.6-0.4-1-1-1.5-1.1-1.6q0 0 0 0 0.1 0.1 0 0.4c-0.2 1.5-1.7 2.1-2 2.3-0.3 0.1-0.2 0.1 0-0.2 0.2-0.3 1.4-1.5 1.6-1.7 0.5-0.6-0.4-0.9-0.5-1-0.2-0.2-0.1-0.6-0.1-0.8 0-0.3 0.2-0.4 0.3-0.4 1.4 0.8 1.9 2.2 1.9 2.4 0.1-1 0.1-2 0.7-2.7 0.4-0.5 1.1 0.3 1.1 0.4z"/>
	</g>
</svg>