<svg version="1.2" xmlns="http://www.w3.org/2000/svg" viewBox="0 0 70 30" width="70" height="30">
	<title>New Project</title>
	<style>
		.s0 { fill: #191c4f } 
	</style>
	<g id="الانفطار">
		<path id="&lt;Path&gt;" class="s0" d="m29.5 21.8c0 0.1-0.1 0.1-0.1 0.3-0.1 0.1-0.2 0.2-0.4 0.3-0.1 0.1-4.5 1.8-4.6 1.8-0.3 0.2-0.3 0.1-0.3 0q0 0 0.1-0.3c0-0.1 0.1-0.1 0.3-0.3 0.2-0.1 4.6-1.8 4.8-1.9 0.3-0.1 0.2 0 0.2 0.1z"/>
		<path id="&lt;Path&gt;" class="s0" d="m14.9 20.9c-0.1 0.1-0.1 0.2-0.2 0.3 0 0.2-0.1 0.2-0.3 0.3-0.2 0.1-4.6 1.8-4.7 1.9-0.3 0.1-0.2 0-0.2-0.1q0 0 0.1-0.2c0-0.2 0.1-0.2 0.3-0.3 0.2-0.1 4.6-1.9 4.7-2 0.4-0.1 0.3 0 0.3 0.1z"/>
		<path id="&lt;Path&gt;" class="s0" d="m64.9 19.3c0 0 0 0.2 0 0.4 0 0.2-0.1 0.5-0.2 0.8-0.1 0.3-0.7 0.4-1.1 0.2-0.7 1-1.4 0.5-1.7 0.3-0.6-0.2-0.8 0.2-1 0.4-0.7 0.9-2.2 0.8-2.5 0.9-0.3 0 0-0.2 0.1-0.3 1.1-0.4 1.8-0.4 2.8-1.4 0.4-0.4 0.7-0.2 0.9-0.1 0.9 0.4 1.1 0 1.2-0.2 0.1-0.1 0.3-0.6 0.3-0.7 0.1-0.2 0.2-0.1 0.1 0.1 0 0.1 0 0.3 0 0.3 0.3 0.3 0.7 0.1 0.8 0 0 0 0-0.3 0-0.4q0-0.1 0.1-0.5c0.1-0.2 0.1 0 0.2 0.2z"/>
		<path id="&lt;Path&gt;" class="s0" d="m9 13.9c0 0-0.1 0.5-0.1 0.8-0.4 1.5-0.1 2.2 0 2.3 0.4 0.7 0.8 0.3 1-0.3 0-0.2 0.1-0.1 0.1 0q0 0.2 0 0.5c-0.2 0.9-0.5 1.2-0.8 1.2-0.5 0-0.8-0.7-0.8-1.1-0.2-1.6 0.3-3.1 0.5-3.5 0.1-0.4 0.2-0.2 0.1 0.1z"/>
		<path id="&lt;Path&gt;" class="s0" d="m31.8 13.3l0.9 0.6q0 0.1 0 0.1l-0.5 0.8q-0.1 0-0.1 0l-1-0.7q0 0 0-0.1l0.6-0.7q0-0.1 0.1 0z"/>
		<path id="&lt;Compound Path&gt;" fill-rule="evenodd" class="s0" d="m47.5 17.9c-0.3 1-1.6 1.5-1.9 1.6-1.2 0.3-1.3-0.8-1.2-1.7 0.1-0.8 0.7-1.9 0.7-1.9-0.1-0.1-1.3-1-1.4-1.1-0.1-0.1-0.2-0.3-0.3-0.3-0.1-0.1-0.1-0.2-0.1-0.2 0 0 0-0.8 0-0.9 0-0.2 0.1-0.1 0.2-0.1 0.1 0.1 1.4 0.6 1.5 0.7 0.2 0 0.1 0.2 0.1 0.2-0.1 0-0.6 0.1-0.6 0.1l1.1 0.8c0 0 1.6-2 1.7-2.2 0.2-0.2 0.1-0.1 0.1 0.1 0 0.2-0.3 1.1-0.4 1.2-0.1 0.1-0.8 1.2-0.8 1.2 0 0 1 0.6 1.2 1 0.5 0.6 0.2 1.2 0.1 1.5zm-1.9-1.7c0 0-0.7 1.1-0.8 1.4-0.3 0.7 0.4 0.8 0.6 0.8 0.3-0.1 1.2-0.5 1.6-0.9 0.5-0.3-1.2-1.2-1.4-1.3z"/>
		<path id="&lt;Path&gt;" class="s0" d="m28.2 12.5l1 0.6q0 0.1 0 0.1l-0.6 0.8q0 0 0 0l-1-0.7q0 0 0-0.1l0.6-0.7q0-0.1 0 0z"/>
		<path id="&lt;Path&gt;" class="s0" d="m12.1 12.5c0.1 0.1 1.1 1.2 1.3 1.3 0.1 0.2 0 0.2-0.1 0.2 0 0-0.5 0-0.5 0 0 0 0.7 1.2 0.9 1.7 0.4 1 0.2 1.8 0.1 2.1-1.2 2.2-5.3 4.2-6.1 4.6-0.9 0.4-3.8 0.9-4.4 1-0.3 0.1-0.4 0-0.2-0.1 0.2-0.2 6.9-2.4 10.3-6q0.1-0.2 0-0.5c-0.1-0.1-1.2-2.2-1.3-2.5-0.1-0.3-0.2-0.6-0.3-0.7q-0.1-0.1 0-0.3c0-0.1 0.1-0.7 0.1-0.8 0.1-0.1 0.1-0.1 0.2 0z"/>
		<path id="&lt;Path&gt;" class="s0" d="m25 12.2c0 0-0.1 0.3-0.2 0.4-0.2 0.9-0.1 1.3-0.1 1.3 0.3 0.5 0.6 0.2 0.7-0.1 0.1-0.1 0.1 0 0.1 0q0 0.1-0.1 0.3c-0.1 0.5-0.3 0.6-0.5 0.6-0.3 0-0.4-0.4-0.4-0.6-0.1-0.9 0.3-1.7 0.4-1.9 0.1-0.3 0.1-0.1 0.1 0z"/>
		<path id="&lt;Compound Path&gt;" fill-rule="evenodd" class="s0" d="m66.2 16.9c0 0.2-0.2 1-1.5 0.8-0.3-0.1-0.9-0.2-1.2-0.9-0.3 0.4-1 1.6-2.4 1.4-0.3-0.1-1.3-0.5-1.4-1.7 0 0-1.1 0.9-1.7 1.2 0.1 0.5 0 1-0.2 1.6-0.2 0.5-2.7 3.4-4.7 3.8-0.7 0.2-3.3 0.6-3.4-2.3q-0.1-0.9 0-1.4c-1.6 1.3-3.5 2.2-4.1 2.5-0.9 0.4-3.8 0.9-4.4 1-0.3 0.1-0.4 0-0.2-0.2 0.2-0.1 6.9-2.3 10.3-5.9 0.1-0.2 0.1-0.3 0-0.5-0.1-0.2-1.2-2.2-1.3-2.5-0.1-0.3-0.2-0.6-0.3-0.7q0-0.1 0-0.3c0-0.1 0.1-0.7 0.1-0.8 0.1-0.1 0.1-0.1 0.2 0 0.1 0.1 1.2 1.2 1.3 1.3 0.1 0.2 0 0.2 0 0.2-0.1 0-0.6 0-0.6 0 0 0 0.7 1.2 0.9 1.7 0.4 1 0.2 1.7 0.1 2.1-0.4 0.6-0.9 1.2-1.6 1.8-0.1 0.5-0.3 2.9 1.9 3 0.3 0 1.5 0.1 3.7-1.7 0.6-0.4 1.2-0.9 1.7-1.7 0.2-0.2 0.3-0.7-0.1-0.7-0.3 0.1-2.7 0.9-3-0.5-0.1-0.4 0.1-3.7 2.4-2.1 0.2 0.2 0.7 0.6 1 1.2 0.4-0.1 1.1-0.5 2-1.3 0.3-0.2 0.5-0.3 0.5 0 0 0.3-0.2 2.3 1.9 1.7 0.2-0.1 1.1-0.2 1.8-1.9 0.1-0.4 0.4-0.3 0.3 0-0.2 0.4-0.4 0.8-0.2 1 0.2 0.2 0.8 0.6 1.5 0.5 0.3 0 0.4-0.2 0.3-0.4-0.1-0.2-0.3-0.6-0.3-0.6 0.1-0.3 0.2-0.7 0.2-0.8 0-0.1 0.1-0.2 0.1-0.1 0.1 0.1 0.8 1 0.4 2.2zm-9.5 0.1c-0.7-1-1.6-0.5-1.7-0.4-0.2 0.1-0.2 0.4 0.5 0.5 0.9 0 1.2-0.1 1.2-0.1z"/>
		<path id="&lt;Path&gt;" class="s0" d="m46.2 10.8l1 0.7q0 0 0 0.1l-0.6 0.7q0 0.1-0.1 0l-0.9-0.6-0.4 0.6q-0.1 0.1-0.1 0l-1-0.7q0 0 0 0l0.6-0.8q0 0 0.1 0l0.9 0.7 0.4-0.7q0.1 0 0.1 0z"/>
		<path id="&lt;Path&gt;" class="s0" d="m63.8 10.8c0 0 0 0.3-0.1 0.4-0.3 0.9-0.1 1.2-0.1 1.3 0.3 0.4 0.6 0.2 0.7-0.1 0-0.1 0.1-0.1 0.1 0q-0.1 0.1-0.1 0.3c-0.1 0.5-0.3 0.6-0.5 0.6-0.3 0-0.5-0.4-0.5-0.6 0-0.9 0.3-1.7 0.4-1.9 0.1-0.2 0.2-0.1 0.1 0z"/>
		<path id="&lt;Path&gt;" class="s0" d="m54.5 10.4c0 0-0.1 0.2-0.2 0.4-0.3 0.9-0.1 1.3-0.1 1.4 0.3 0.4 0.6 0.2 0.7-0.1 0.1-0.2 0.2-0.1 0.1 0q0 0 0 0.2c-0.2 0.6-0.4 0.7-0.6 0.7-0.3 0-0.5-0.4-0.5-0.7 0-0.9 0.4-1.8 0.5-2 0.1-0.2 0.1-0.1 0.1 0.1z"/>
		<path id="&lt;Path&gt;" class="s0" d="m28.3 8q0 0.1 0 0.1c0 0-0.1 0.3-0.1 0.5-0.3 1.1-0.2 1.6-0.1 1.7 0.2 0.5 0.6 0.2 0.7-0.2 0.1-0.2 0.1-0.1 0.1 0q0 0.1-0.1 0.3c-0.1 0.7-0.4 0.8-0.5 0.8-0.4 0-0.5-0.5-0.6-0.8 0-0.7 0.2-1.4 0.3-1.8q0 0-0.1 0c-0.1 0.1-5.3 2.7-5.8 3-0.6 0.3-0.5 0.6-0.3 0.6 0.3 0.1 0.5 0.4 0.3 0.8q0 0.1-0.1 0c0 0-0.1-0.1-0.3-0.2-0.3 0-0.4-0.5-0.3-0.9 0.1-0.3 0.2-0.6 0.5-0.7 0.4-0.4 6.1-3.1 6.2-3.2 0.3-0.2 0.3-0.1 0.2 0z"/>
		<path id="&lt;Path&gt;" class="s0" d="m12.5 7.7c0.1 0.2 0 0.6-0.1 0.8 0 0.2-0.1 0-0.2-0.1 0 0-0.2-0.1-0.3-0.2-0.4-0.4-0.6 0.3-0.7 0.7 0 0.3-0.1 1.2-0.1 1.7-0.1 0.2-0.2 0.2-0.2 0-0.4-1.1-1-1.6-1.1-1.7q0 0 0 0 0 0.1 0 0.4c-0.2 1.3-1.6 1.9-1.8 2-0.3 0.2-0.3 0.1 0-0.2 0.2-0.2 1.2-1.3 1.4-1.5 0.5-0.5-0.4-0.8-0.5-0.9-0.1-0.1 0-0.5 0-0.7 0-0.3 0.2-0.4 0.3-0.3 1.2 0.7 1.6 1.9 1.7 2.1 0.1-0.9 0.1-1.8 0.6-2.4 0.4-0.5 1 0.2 1 0.3z"/>
		<path id="&lt;Path&gt;" class="s0" d="m18.6 14.6c0 0-0.1 0.3-0.2 0.5-0.3 0.9-0.1 1.3-0.1 1.4 0.3 0.5 0.6 0.2 0.8-0.1 0-0.2 0.1-0.1 0.1 0q-0.1 0-0.1 0.2c-0.2 0.6-0.4 0.8-0.6 0.8-0.3-0.1-0.5-0.5-0.5-0.7-0.1-1.1 0.4-1.9 0.5-2.2 0.1-0.2 0.1-0.1 0.1 0.1z"/>
		<path id="&lt;Path&gt;" class="s0" d="m17.2 7.7c0 0-0.1 0.3-0.1 0.4-0.4 1-0.2 1.4-0.2 1.5 0.3 0.5 0.7 0.2 0.8-0.1 0-0.2 0.1-0.1 0.1 0q0 0-0.1 0.2c-0.1 0.6-0.4 0.7-0.6 0.7-0.3 0-0.5-0.4-0.5-0.7 0-1 0.4-1.8 0.5-2.1 0.1-0.2 0.2-0.1 0.1 0.1z"/>
		<path id="&lt;Compound Path&gt;" fill-rule="evenodd" class="s0" d="m33.2 20.6c-0.4 0.4-2.8 1.2-4.1-0.2-0.1-0.1-0.2-0.3-0.4-0.7q-0.3 0.2-0.6 0.4c-0.4 0.2-5.5 2.2-9.2 2-0.4 0-3.3 0-3.7-4.6 0-0.6-0.7-7-1.3-9-0.1-0.4-0.1-0.6 0-0.8 0.1-0.3 0.2-0.9 0.4-0.5 1 3.4 1.3 9.1 1.5 10.2 0.1 0.6 0.1 3.2 3 3.5q0.2 0 0.4 0c0.1-0.2 0.7-1.2 1.5-2.1 0.3-2.9-1.5-10.2-1.5-10.3-0.1-0.2-0.2-0.5-0.2-0.5 0 0 0.4-0.9 0.4-1 0-0.1 0.1 0 0.1 0 0 0.1 1 2.4 1.1 2.5 0 0.1-0.1 0.2-0.1 0.1-0.1-0.1-0.5-0.3-0.5-0.3 0 0 1 5.8 1.1 6.5 0.2 1.1 0.1 2-0.1 2.6 0.5-0.6 1-1.1 1.6-1.5 0.4-0.2 1.5-1 2.9-0.4 0.3 0.2 1.1 0.5 1.2 1.5 0 0.4-0.2 1.2-0.4 1.7 0.9-0.3 1.4-0.5 1.4-0.5q0.2 0 0.6-0.2-0.2-0.5-0.3-1c-0.1-0.2-0.1-1.3 0.3-2.2 0.3-0.3 0.7-0.9 1.2-0.6 0.4 0.2 1 1.2 1 1.6-0.1 0.5-0.3 1.5-0.5 1.8q-0.1 0.3-0.6 0.7 0.2 0.3 0.5 0.5c0.3 0.1 1.6 0.5 3-0.1 0.3-0.2 0.6-0.4 0.5-0.7-0.1-0.3-0.5-0.9-1-1.4 0-0.1 0.2-0.6 0.2-0.8 0.1-0.2 0.1-0.1 0.2 0 0.1 0.1 0.9 0.9 1 1.8 0 0.3 0.1 1.5-0.6 2zm-7.2-2.2c-0.2-0.2-0.7-0.9-1.8-1-1-0.1-2 0.7-2.3 0.9-1.3 1.1-2.1 2.5-2.1 2.7q0.2-0.1 0.4-0.1c1-0.1 3.4-0.5 5.7-2 0.2-0.1 0.3-0.2 0.1-0.5zm3.9-0.6c0.1-0.1 0.3-0.1 0.1-0.5-0.2-0.3-0.7-1.4-1.2-0.9-0.5 0.4-0.6 0.7-0.5 0.9 0.1 0.2 0.3 0.8 0.6 1.3 0.4-0.2 0.7-0.5 1-0.8z"/>
		<path id="&lt;Path&gt;" class="s0" d="m35.1 7c0 0-0.1 0.3-0.2 0.5-0.3 0.9-0.1 1.3-0.1 1.4 0.3 0.5 0.6 0.3 0.7-0.1 0.1-0.2 0.2-0.1 0.1 0q0 0.1 0 0.3c-0.2 0.6-0.4 0.7-0.6 0.7-0.3 0-0.5-0.5-0.5-0.7-0.1-1 0.3-1.9 0.4-2.1 0.1-0.3 0.2-0.2 0.2 0z"/>
		<path id="&lt;Path&gt;" class="s0" d="m23.5 6.9c0 0-0.1 0.3-0.1 0.4-0.3 0.8-0.1 1.2-0.1 1.3 0.2 0.3 0.5 0.1 0.6-0.2 0.1-0.1 0.1 0 0.1 0q0 0.1 0 0.3c-0.2 0.5-0.4 0.6-0.5 0.6-0.3 0-0.5-0.4-0.5-0.6 0-0.9 0.3-1.6 0.4-1.8 0.1-0.2 0.2-0.1 0.1 0z"/>
		<path id="&lt;Path&gt;" class="s0" d="m53.6 6.5c0 0.1 0 0.2-0.1 0.3 0 0.2-0.1 0.2-0.3 0.3-0.2 0.1-5.1 3-5.2 3-0.3 0.2-0.2 0.1-0.2 0q0-0.1 0.1-0.3c0-0.1 0.1-0.2 0.3-0.3 0.2-0.1 5-2.9 5.2-3 0.3-0.2 0.3-0.1 0.2 0z"/>
		<path id="&lt;Path&gt;" class="s0" d="m59.6 6.8c0.1 0.2 0 0.6-0.1 0.8 0 0.2-0.2 0-0.3-0.1 0 0-0.1-0.1-0.2-0.2-0.5-0.4-0.7 0.4-0.7 0.8-0.1 0.3-0.1 1.2-0.2 1.7 0 0.2-0.2 0.2-0.2 0-0.4-1.1-1-1.6-1.1-1.7-0.1-0.2-0.2 0-0.2 0.1-0.1 0.1-0.1 0.1-0.2 0-0.1 0-0.4-0.3-0.6-0.4-0.1-0.1 0-0.5 0-0.7 0-0.3 0.2-0.4 0.3-0.4 1.3 0.8 1.7 2.1 1.8 2.3 0.1-1 0.1-1.9 0.6-2.5 0.4-0.5 1.1 0.2 1.1 0.3z"/>
		<path id="&lt;Compound Path&gt;" fill-rule="evenodd" class="s0" d="m64.5 8.9c-0.1 0.1-0.2 0-0.3-0.1 0-0.1-0.2-0.2-0.3-0.3-0.2 0.4-0.2 0.5-1.1 1.2-1.8 1.5-3.7 2.1-3.8 2.1-0.2 0-0.2-0.1 0-0.2 0.6-0.5 3.2-1.6 4.5-3.2 0 0-0.4-0.2-0.7-0.4-0.2-0.2-0.1-1 0.1-1.3 0.5-0.7 1-0.3 1-0.2 0.5 0.7 0.2 1.5 0.2 1.5 0.3 0.1 0.5 0.4 0.4 0.9zm-0.9-1.9c-0.1-0.1-0.2-0.1-0.5 0.2-0.1 0.2 0 0.3 0.2 0.3 0.2 0.1 0.5 0.3 0.5 0.3 0-0.1 0.1-0.6-0.2-0.8z"/>
		<path id="&lt;Path&gt;" class="s0" d="m37.5 6.3c0 0.1 1.2 2.9 1.2 3.1 0.1 0.1-0.1 0.2-0.1 0.1-0.1-0.1-0.7-0.6-0.7-0.6 0 0 0.8 4.9 1 6.1 0.5 2.9-0.1 4-0.3 4.7-1.2 2.6-4.6 3.1-5.2 3.3-0.5 0.2-0.6 0-0.3-0.1 3.1-1.3 4.5-2.8 5.1-3.8q0-0.5-0.3-1.1c-1-2-3.7-3.9-3.9-4.1-1.4-1.3-3.1-3.7-3.2-3.9-0.1-0.1-0.3-0.2-0.3-0.3-0.1 0-0.2-0.1-0.2-0.3 0-0.2 0-0.9 0-1 0-0.1 0-0.1 0.2 0 0.1 0.2 1.9 1.5 2.1 1.7 0.3 0.2 0.1 0.3-0.1 0.2-0.1 0-0.4-0.1-0.6-0.2 0 0 0.3 0.6 0.7 1 0.7 1 2.1 2.3 2.4 2.5 0.3 0.3 1.9 1.6 2.7 2.7 0.6 0.8 0.8 1.7 0.7 2.3q0.1-0.2 0.2-0.3c0.2-0.7-1.3-8.7-1.3-8.7-0.1-0.7-0.1-1.3-0.2-1.7-0.1-0.4-0.1-0.6-0.2-0.7 0 0 0.4-0.8 0.5-0.9 0-0.1 0 0 0.1 0z"/>
		<path id="&lt;Path&gt;" class="s0" d="m40.3 6.2c0 0.1 1.2 2.8 1.2 3 0.1 0.1 0 0.2-0.1 0.1-0.1-0.1-0.7-0.6-0.7-0.6 0 0 1.1 7.5 1.1 7.7q0.3 2.2 0.2 3.2c0 1-0.2 1.3-0.2 1.4-0.1 0.2-0.2 0.1-0.2-0.1 0-0.5-0.1-1.5-0.2-2.6-0.3-2.3-1.3-9.5-1.5-10.7 0-0.1-0.1-0.5-0.1-0.5 0 0 0.3-0.9 0.4-1 0-0.1 0.1 0 0.1 0.1z"/>
		<path id="&lt;Compound Path&gt;" fill-rule="evenodd" class="s0" d="m46 8.6c-0.1 0.1-0.1 0.1-0.2-0.1-0.1 0-0.4-0.3-0.4-0.3 0 0-0.4 0.9-1.1 1.4-1.2 0.9-2.2 1-2.3 1.1-0.1 0-0.1-0.1 0.1-0.2 0.7-0.5 1.6-0.8 3-2.4 0 0-0.5-0.2-0.7-0.4-0.3-0.2-0.2-0.9 0-1.2 0.5-0.8 1-0.4 1.1-0.3 0.4 0.8 0.2 1.5 0.2 1.5 0.2 0.2 0.4 0.4 0.3 0.9zm-0.9-1.9c-0.1-0.1-0.2-0.1-0.5 0.3-0.1 0.1 0 0.2 0.2 0.3 0.2 0 0.5 0.2 0.5 0.2 0.1-0.1 0.1-0.5-0.2-0.8z"/>
	</g>
</svg>