<svg version="1.2" xmlns="http://www.w3.org/2000/svg" viewBox="0 0 70 30" width="70" height="30">
	<title>New Project</title>
	<style>
		.s0 { fill: #191c4f } 
	</style>
	<g id="المطففين">
		<path id="&lt;Path&gt;" class="s0" d="m16.3 21.8l1 0.7q0 0 0 0l-0.6 0.8q0 0 0 0l-0.9-0.6-0.5 0.6q-0.1 0-0.1 0l-0.9-0.7q-0.1 0 0 0l0.5-0.8q0 0 0.1 0l0.9 0.7 0.5-0.7q0 0 0 0z"/>
		<path id="&lt;Path&gt;" class="s0" d="m22.4 21.8c-0.1 0.1-0.1 0.1-0.2 0.3 0 0.1-0.1 0.2-0.3 0.2-0.1 0.1-2.8 1.2-2.9 1.2-0.2 0.2-0.2 0.1-0.2 0q0 0 0.1-0.2c0-0.2 0.1-0.2 0.3-0.3 0.2-0.1 2.8-1.2 3-1.2 0.2-0.2 0.2-0.1 0.2 0z"/>
		<path id="&lt;Path&gt;" class="s0" d="m27.4 21.6c0 0.1-0.1 0.1-0.1 0.2-0.1 0.2-0.2 0.2-0.3 0.3-0.2 0.1-2.8 1.1-2.9 1.1-0.3 0.2-0.3 0.1-0.2 0q0 0 0-0.2c0.1-0.2 0.1-0.2 0.3-0.3 0.2-0.1 2.8-1.1 3-1.2 0.3-0.1 0.2 0 0.2 0.1z"/>
		<path id="&lt;Path&gt;" class="s0" d="m35.8 19.5c0 0-0.1 0.3-0.1 0.4-0.3 1-0.1 1.4 0 1.4 0.3 0.5 0.6 0.2 0.7-0.1 0.1-0.2 0.2-0.1 0.1 0q0 0 0 0.2c-0.1 0.6-0.4 0.8-0.6 0.8-0.4 0-0.6-0.5-0.6-0.7-0.1-1 0.3-1.8 0.4-2.1 0.1-0.2 0.2-0.1 0.1 0.1z"/>
		<path id="&lt;Path&gt;" class="s0" d="m64.1 19.4c0 0 0 0.3 0 0.5 0 0.2-0.1 0.5-0.2 0.8-0.1 0.3-0.7 0.4-1.1 0.1-0.7 1.1-1.3 0.6-1.6 0.4-0.7-0.2-0.8 0.2-1 0.4-0.8 0.9-2.2 0.8-2.5 0.9-0.4 0-0.1-0.2 0.1-0.3 1.1-0.4 1.8-0.5 2.8-1.4 0.4-0.4 0.7-0.2 0.8-0.2 1 0.5 1.1 0 1.2-0.1 0.2-0.1 0.3-0.6 0.4-0.7 0.1-0.2 0.2-0.1 0.1 0.1 0 0.1-0.1 0.2-0.1 0.3 0.4 0.3 0.8 0.1 0.9 0 0 0 0-0.3-0.1-0.4q0-0.1 0.2-0.5c0.1-0.2 0.1 0 0.1 0.1z"/>
		<path id="&lt;Compound Path&gt;" fill-rule="evenodd" class="s0" d="m46.8 18.1c-0.3 1-1.6 1.5-1.9 1.6-1.2 0.3-1.3-0.8-1.2-1.7 0.1-0.8 0.7-1.9 0.7-1.9-0.1-0.1-1.3-1-1.4-1.1-0.1-0.1-0.2-0.3-0.3-0.3-0.2-0.1-0.1-0.2-0.1-0.2 0 0 0-0.8 0-1 0-0.1 0 0 0.1 0 0.1 0.1 1.5 0.6 1.6 0.7 0.1 0 0.1 0.1 0 0.2-0.1 0-0.5 0.1-0.5 0.1l1.1 0.8c0 0 1.5-2 1.7-2.2 0.1-0.2 0.1-0.1 0.1 0.1-0.1 0.2-0.3 1.1-0.4 1.2-0.1 0.1-0.9 1.2-0.9 1.2 0 0 1 0.6 1.3 1 0.4 0.6 0.2 1.2 0.1 1.5zm-2-1.7c0 0-0.6 1.1-0.7 1.4-0.3 0.7 0.3 0.8 0.6 0.8 0.3-0.1 1.2-0.5 1.6-0.9 0.4-0.3-1.2-1.2-1.5-1.3z"/>
		<path id="&lt;Compound Path&gt;" fill-rule="evenodd" class="s0" d="m65.5 17.1c0 0.2-0.3 1-1.5 0.8-0.3-0.1-1-0.2-1.2-0.9-0.3 0.4-1 1.6-2.5 1.4-0.3-0.1-1.3-0.5-1.3-1.7 0 0-1.2 0.9-1.7 1.2 0 0.5 0 1-0.2 1.5-0.2 0.6-2.7 3.4-4.8 3.9-0.7 0.1-3.3 0.6-3.4-2.3 0-0.6 0-1.1 0.1-1.4-1.6 1.3-3.6 2.2-4.1 2.5-0.9 0.4-3.9 0.9-4.4 1-0.4 0.1-0.4 0-0.2-0.2 0.2-0.1 6.8-2.3 10.3-5.9 0.1-0.2 0.1-0.3 0-0.5-0.1-0.2-1.2-2.2-1.3-2.5-0.1-0.3-0.3-0.6-0.3-0.7q-0.1-0.2 0-0.3c0-0.1 0.1-0.7 0.1-0.8 0-0.2 0.1-0.1 0.2 0 0 0.1 1.1 1.2 1.2 1.3 0.2 0.2 0.1 0.2 0 0.2 0 0-0.5 0-0.5 0 0 0 0.7 1.2 0.9 1.7 0.4 1 0.2 1.7 0 2.1-0.3 0.6-0.9 1.2-1.5 1.8-0.2 0.5-0.4 2.9 1.9 3 0.3 0 1.4 0.1 3.7-1.7 0.5-0.4 1.1-1 1.6-1.7 0.2-0.2 0.4-0.7 0-0.7-0.4 0.1-2.7 0.9-3.1-0.5 0-0.4 0.2-3.7 2.4-2.1 0.2 0.2 0.7 0.6 1.1 1.2 0.3-0.1 1.1-0.6 2-1.3 0.2-0.2 0.4-0.3 0.4 0 0 0.3-0.1 2.3 2 1.7 0.2-0.1 1.1-0.3 1.7-1.9 0.2-0.4 0.5-0.4 0.3 0-0.1 0.4-0.4 0.7-0.2 0.9 0.3 0.2 0.9 0.7 1.6 0.6 0.3 0 0.4-0.2 0.3-0.4-0.1-0.2-0.3-0.6-0.3-0.6 0-0.3 0.1-0.7 0.2-0.8 0-0.1 0-0.2 0.1-0.1 0.1 0.1 0.8 1 0.4 2.2zm-9.5 0c-0.8-1-1.7-0.4-1.8-0.3-0.1 0.1-0.1 0.4 0.6 0.5 0.9 0 1.2-0.2 1.2-0.2z"/>
		<path id="&lt;Path&gt;" class="s0" d="m8.5 17.6l1 0.7q0 0 0 0l-0.6 0.8q0 0-0.1 0l-0.9-0.7q0 0 0-0.1l0.5-0.7q0.1-0.1 0.1 0z"/>
		<path id="&lt;Path&gt;" class="s0" d="m19.7 13.5l0.9 0.7q0 0 0 0l-0.5 0.8q-0.1 0-0.1 0l-0.9-0.7q-0.1 0-0.1-0.1l0.6-0.7q0 0 0.1 0z"/>
		<path id="&lt;Path&gt;" class="s0" d="m10.2 13.1c0 0-0.1 0.2-0.2 0.4-0.3 0.9-0.1 1.3-0.1 1.4 0.3 0.4 0.6 0.2 0.7-0.2 0.1-0.1 0.1 0 0.1 0q0 0.1 0 0.3c-0.2 0.5-0.4 0.7-0.6 0.7-0.3-0.1-0.5-0.5-0.5-0.7 0-1 0.4-1.8 0.4-2 0.1-0.2 0.2-0.1 0.2 0.1z"/>
		<path id="&lt;Path&gt;" class="s0" d="m24.3 12.8l0.9 0.7q0 0 0 0.1l-0.5 0.7q-0.1 0.1-0.1 0l-0.9-0.6q-0.1-0.1-0.1-0.1l0.6-0.8q0 0 0.1 0z"/>
		<path id="&lt;Path&gt;" class="s0" d="m38.2 11.3c0 0-0.1 0.2-0.1 0.3-0.3 0.8-0.2 1.2-0.1 1.3 0.2 0.4 0.5 0.2 0.6-0.1 0-0.2 0.1-0.1 0.1 0q0 0-0.1 0.2c-0.1 0.5-0.3 0.6-0.5 0.6-0.3 0-0.4-0.4-0.4-0.6-0.1-0.9 0.3-1.6 0.4-1.8 0.1-0.2 0.1-0.1 0.1 0.1z"/>
		<path id="&lt;Path&gt;" class="s0" d="m45.5 11l0.9 0.7q0.1 0 0 0l-0.5 0.8q-0.1 0-0.1 0l-0.9-0.6-0.5 0.6q0 0-0.1 0l-0.9-0.7q0 0 0 0l0.5-0.8q0.1 0 0.1 0l0.9 0.7 0.5-0.7q0 0 0.1 0z"/>
		<path id="&lt;Path&gt;" class="s0" d="m16.1 11.1c0 0-0.1 0.2-0.2 0.4-0.3 0.9-0.1 1.3-0.1 1.4 0.3 0.4 0.6 0.2 0.7-0.2 0.1-0.1 0.1 0 0.1 0q0 0.1 0 0.3c-0.2 0.5-0.4 0.7-0.6 0.7-0.3-0.1-0.5-0.5-0.5-0.7 0-1 0.4-1.8 0.5-2 0-0.2 0.1-0.1 0.1 0.1z"/>
		<path id="&lt;Path&gt;" class="s0" d="m63.1 11c0 0-0.1 0.3-0.1 0.4-0.3 0.9-0.2 1.2-0.1 1.3 0.2 0.4 0.5 0.2 0.6-0.1 0.1-0.1 0.1-0.1 0.1 0q0 0.1 0 0.3c-0.2 0.5-0.4 0.6-0.5 0.6-0.4 0-0.5-0.4-0.5-0.6-0.1-0.9 0.3-1.7 0.4-1.9 0.1-0.2 0.2-0.1 0.1 0z"/>
		<path id="&lt;Path&gt;" class="s0" d="m53.7 10.5c0 0 0 0.3-0.1 0.5-0.3 0.9-0.1 1.3-0.1 1.4 0.2 0.4 0.6 0.2 0.7-0.1 0.1-0.2 0.1-0.1 0.1-0.1q0 0.1-0.1 0.3c-0.1 0.6-0.3 0.7-0.5 0.7-0.4 0-0.5-0.5-0.5-0.7-0.1-1 0.3-1.8 0.4-2 0.1-0.3 0.2-0.1 0.1 0z"/>
		<path id="&lt;Path&gt;" class="s0" d="m24.4 9.1c0 0 0.1 0.4 0.3 0.7 0.1 0.2 0.2 0.4 0.1 0.8-0.1 0.4-0.3 0.6-0.4 0.7-0.2 0.1-0.6 0.1-0.9-0.3-0.3 0.6-0.7 0.8-1 0.6-0.3-0.1-0.3-0.6-0.3-0.8 0-0.1 0-0.6 0-0.7 0-0.2 0-0.2 0.1-0.4 0-0.1 0.1 0 0.1 0.1 0 0.2-0.1 0.8 0 1.1 0.3 0.4 0.9 0 1-0.2 0.1-0.2-0.1-0.9-0.2-1q0 0 0-0.1c0 0 0.1-0.2 0.1-0.3q0.1-0.2 0.2 0c0 0.1 0 0.3 0.1 0.9 0.1 0.7 0.8 0.6 0.9 0.5 0.1 0 0.1-0.1 0.1-0.2-0.1-0.1-0.3-0.6-0.4-0.9-0.1-0.2 0-0.4 0-0.6 0.1-0.2 0.1 0 0.2 0.1z"/>
		<path id="&lt;Path&gt;" class="s0" d="m16.7 8.4c0 0.1 0 0.2-0.1 0.3-0.1 0.2-0.2 0.3-0.4 0.4-0.2 0.1-9.1 4.3-9.2 4.3-0.4 0.2-0.3 0.1-0.3 0q0-0.1 0.1-0.3c0-0.2 0.1-0.3 0.4-0.4 0.2-0.1 9-4.3 9.3-4.4 0.4-0.2 0.3 0 0.2 0.1z"/>
		<path id="&lt;Path&gt;" class="s0" d="m9.4 7.4c0.1 0.2 0 0.6 0 0.8-0.1 0.2-0.2 0-0.3-0.1 0 0-0.1-0.1-0.2-0.2-0.5-0.3-0.6 0.4-0.6 0.8 0 0.3 0 1.2 0 1.7 0 0.2-0.2 0.2-0.2 0-0.4-1-1-1.5-1.1-1.6-0.2-0.1-0.2 0.1-0.2 0.1 0 0.1-0.1 0.1-0.2 0.1 0 0-0.4-0.2-0.5-0.4-0.1-0.1-0.1-0.5-0.1-0.6 0-0.3 0.2-0.4 0.3-0.4 1.2 0.6 1.7 1.8 1.7 2 0-0.9 0-1.8 0.4-2.4 0.3-0.6 0.9 0.1 1 0.2z"/>
		<path id="&lt;Path&gt;" class="s0" d="m52.9 6.7c0 0.1 0 0.2-0.1 0.3-0.1 0.2-0.2 0.2-0.3 0.3-0.2 0.1-5.1 3-5.2 3-0.3 0.2-0.3 0.1-0.2 0q0-0.1 0-0.3c0.1-0.1 0.1-0.2 0.3-0.3 0.2-0.1 5.1-2.9 5.3-3.1 0.3-0.1 0.2 0 0.2 0.1z"/>
		<path id="&lt;Path&gt;" class="s0" d="m58.9 7c0.1 0.2 0 0.6-0.1 0.8-0.1 0.2-0.2 0-0.3-0.1 0 0-0.1-0.1-0.2-0.2-0.5-0.4-0.7 0.4-0.8 0.8 0 0.2-0.1 1.2-0.1 1.7-0.1 0.2-0.2 0.2-0.3 0-0.3-1.1-1-1.6-1.1-1.7-0.1-0.2-0.2 0-0.2 0.1 0 0.1-0.1 0-0.1 0-0.1 0-0.5-0.3-0.6-0.4-0.1-0.1-0.1-0.5-0.1-0.7 0.1-0.3 0.3-0.4 0.4-0.4 1.3 0.8 1.7 2.1 1.8 2.3 0-1 0.1-1.9 0.6-2.5 0.4-0.6 1 0.2 1.1 0.3z"/>
		<path id="&lt;Compound Path&gt;" fill-rule="evenodd" class="s0" d="m63.7 9.1c0 0.1-0.1 0-0.2-0.1-0.1-0.1-0.2-0.2-0.4-0.3-0.2 0.4-0.2 0.5-1 1.2-1.8 1.5-3.8 2.1-3.9 2.1-0.1 0-0.1-0.1 0.1-0.2 0.6-0.5 3.2-1.6 4.5-3.3 0 0-0.4-0.1-0.7-0.3-0.3-0.2-0.1-1 0.1-1.3 0.5-0.8 0.9-0.4 1-0.2 0.4 0.7 0.2 1.5 0.2 1.5 0.2 0.1 0.5 0.4 0.3 0.9zm-0.8-2c-0.1 0-0.3 0-0.5 0.3-0.1 0.1 0 0.3 0.2 0.3 0.1 0.1 0.5 0.3 0.5 0.3 0-0.1 0.1-0.6-0.2-0.9z"/>
		<path id="&lt;Path&gt;" class="s0" d="m22 6.8c0.1 0.1 0 0.5-0.1 0.7 0 0.2-0.2 0-0.3-0.1 0 0-0.1-0.1-0.2-0.2-0.4-0.4-0.6 0.3-0.6 0.7-0.1 0.3-0.1 1.1-0.2 1.6q0 0 0 0.1c-0.1 0.4-0.2 0.9-0.9 1.4-0.8 0.5-0.9 0.5-1 0.6-0.1 0-0.1-0.1 0-0.2 0.1 0 1.8-1.4 1.6-2.1-0.2-0.8-0.8-1.3-0.9-1.4-0.1-0.1-0.2 0-0.2 0.1 0 0.1-0.1 0.1-0.1 0-0.1 0-0.4-0.2-0.5-0.3-0.2-0.1-0.1-0.5-0.1-0.7 0-0.3 0.2-0.4 0.3-0.3 1.2 0.7 1.6 1.9 1.6 2 0.1-0.8 0.1-1.6 0.6-2.3 0.4-0.5 0.9 0.3 1 0.4z"/>
		<path id="&lt;Path&gt;" class="s0" d="m13 6.4c0 0-0.1 0.3-0.2 0.5-0.3 0.8-0.1 1.2-0.1 1.3 0.3 0.5 0.6 0.2 0.7-0.1 0.1-0.2 0.1-0.1 0.1 0q0 0.1 0 0.3c-0.2 0.5-0.4 0.6-0.6 0.6-0.3 0-0.4-0.4-0.5-0.6 0-1 0.4-1.8 0.5-2 0.1-0.3 0.2-0.2 0.1 0z"/>
		<path id="&lt;Path&gt;" class="s0" d="m39.6 6.3c0 0.1 1.2 2.9 1.2 3.1 0.1 0.1-0.1 0.2-0.1 0.1-0.1-0.1-0.7-0.6-0.7-0.6 0 0 1 7.4 1.1 7.7q0.3 2.2 0.2 3.2c-0.1 0.9-0.2 1.3-0.3 1.4-0.1 0.1-0.1 0.1-0.1-0.1 0-0.5-0.1-1.5-0.3-2.6-0.3-2.3-1.3-9.5-1.4-10.7 0-0.1-0.1-0.5-0.1-0.6 0 0 0.3-0.8 0.4-0.9 0-0.1 0 0 0.1 0z"/>
		<path id="&lt;Compound Path&gt;" fill-rule="evenodd" class="s0" d="m34.4 11.7c0 0.1-0.1 0-0.1-0.1-0.1 0-0.3-0.3-0.3-0.3 0 0-0.7 1.2-1.5 1.7-0.9 0.7-1.7 0.9-1.7 0.9-0.1 0.1-0.1 0 0-0.1 0.6-0.3 2-1.4 3-2.5 0 0-0.3-0.2-0.5-0.3-0.2-0.2-0.1-0.7 0-0.9 0.4-0.6 0.7-0.3 0.8-0.2 0.3 0.5 0.1 1.1 0.1 1.1 0.2 0.1 0.4 0.3 0.2 0.7zm-0.6-1.5c0 0-0.1 0-0.3 0.2-0.1 0.1 0 0.2 0.1 0.2 0.1 0.1 0.4 0.2 0.4 0.2 0 0 0-0.4-0.2-0.6z"/>
		<path id="&lt;Path&gt;" class="s0" d="m33.9 8.3c0 0.1 0 0.2-0.1 0.3-0.1 0.1-0.2 0.2-0.3 0.3-0.2 0-4.6 1.9-4.7 1.9-0.2 0.2-0.2 0.1-0.2 0q0 0 0.1-0.2c0-0.2 0.1-0.2 0.3-0.3 0.2-0.1 4.5-2 4.7-2 0.3-0.2 0.2-0.1 0.2 0z"/>
		<path id="&lt;Compound Path&gt;" fill-rule="evenodd" class="s0" d="m45.2 8.8c0 0.1-0.1 0.1-0.2-0.1 0 0-0.4-0.3-0.4-0.3 0 0-0.3 0.8-1 1.3-1.2 1-2.3 1.1-2.3 1.1-0.1 0.1-0.2 0 0-0.1 0.8-0.5 1.7-0.8 3-2.4 0 0-0.4-0.2-0.7-0.4-0.3-0.2-0.1-0.9 0.1-1.2 0.5-0.8 0.9-0.4 1-0.3 0.5 0.7 0.2 1.5 0.2 1.5 0.3 0.1 0.5 0.4 0.3 0.9zm-0.8-1.9c-0.1-0.1-0.3-0.1-0.5 0.3-0.1 0.1 0 0.2 0.2 0.3 0.1 0 0.5 0.2 0.5 0.2 0-0.1 0.1-0.5-0.2-0.8z"/>
		<path id="&lt;Compound Path&gt;" fill-rule="evenodd" class="s0" d="m39.8 18.4c-0.2 1.4-0.8 1.6-1 1.7-0.9 0.1-1.6-0.7-1.8-1q-0.2-0.2-0.3-0.6c-1.1 0.4-2.7 1-3.2 1.1-5.8 1.8-8.3 0.6-8.7 0.5q-0.1-0.1-0.2-0.1-0.3 0.1-0.4 0.2c-2.4 1.1-3.6 0.4-3.8 0.3q-0.3-0.1-0.5-0.2-0.2 0.2-0.3 0.2c-3.1 1.4-3.7-1.1-3.8-1.5-0.1-0.3-0.5-2.4-0.6-2.7-0.1-0.3-0.2 0-0.3 0.1-0.3 1.1-1.2 1.4-1.4 1.5 0 0.1 0 0.8 0 1.3 0 1.4-2.5 2.9-3.1 3.2-3.4 1.7-5.3 0-5.6-0.3-1.6-1.8-0.3-4.7-0.2-5q0.1-0.1 0.1-0.2c-0.3-0.2-0.4-0.7-0.5-1-0.1-1.7 0.4-3.2 0.5-3.6 0.2-0.5 0.3-0.3 0.2 0.1 0 0-0.1 0.4-0.2 0.7-0.3 1.6-0.1 2.4 0 2.5 0.4 0.8 0.9 0.3 1.1-0.3 0.1-0.3 0.2-0.1 0.1 0q0 0.2 0 0.5c-0.2 1-0.5 1.2-0.8 1.2q-0.1 0-0.2 0 0 0.1 0 0.2c-0.1 0.4-0.5 1.5-0.5 2 0 2.4 2.6 2.7 3.1 2.8 2.8 0.1 5-2.2 5.2-2.3 0.4-0.4 0.4-0.7 0.3-1.2-0.1-0.5-0.6-1.3-0.8-1.7 0 0 0.2-0.9 0.2-0.9 0-0.1 0.1-0.1 0.1 0 0.1 0.1 0.3 0.4 0.4 0.5 0.6 0.4 1.3-0.1 1.4-0.3 0.2-0.2 0.6-1.1 0.6-1.2 0.1-0.2 0.3-0.2 0.5 0 0.1 0.3 0.4 1.2 0.4 1.6 0.2 1.6 0.6 2.4 0.8 2.5 0.8 1.1 1.9 0.7 2.2 0.7q0.1-0.1 0.3-0.1c-0.3-0.5-0.1-1.1 0-1.4 0.1-0.6 0.6-1.5 1.1-1.9 0.6-0.4 0.9 0.1 1 0.3 0.5 1.1 0.3 1.8 0.2 2.1q-0.1 0.5-0.4 0.8c1.1 0.3 1.9 0 2.1 0q0.4-0.1 0.7-0.2c-0.5-0.7-0.2-1.5-0.2-1.8 0.4-1.2 1-1.7 1.5-1.8 0.4-0.1 1.2 0.4 1 2.1-0.1 0.5-0.3 0.9-0.5 1.2q0.3 0.1 0.4 0.2 0.4 0.1 0.8 0.1c0.1-0.2 0.5-0.7 1-1.3 0.1-0.5 0.1-1.3 0.1-2.1 0.1-0.9-0.5-3.9-0.5-4.2-0.3-1.3-0.5-2.3-0.5-2.3-0.1-0.7-0.1-1.3-0.2-1.7-0.1-0.4-0.2-0.6-0.2-0.7 0 0 0.4-0.8 0.5-0.9 0-0.1 0 0 0.1 0.1 0 0.1 1 2.6 1.1 2.8 0 0.1-0.1 0.2-0.2 0.1 0-0.1-0.5-0.6-0.5-0.6 0 0 0.8 4.9 0.9 6.3 0.2 1.2 0 2.2-0.2 2.7 0.7-0.8 1.6-1.7 2.4-2.1 0.6-0.3 1.8-0.7 3.4 0.3 0.3 0.2 0.8 0.8 0.5 1.5-0.1 0.4-0.3 1-0.3 1.2 0.9-0.3 1.6-0.6 1.8-0.7q0.2-0.1 0.4-0.2c-0.6-2.7-1.1-7.9-1.1-7.9-0.1-0.7-0.2-1.3-0.3-1.7 0-0.4-0.1-0.6-0.1-0.7 0 0 0.3-0.8 0.4-0.9 0-0.1 0.1-0.1 0.1 0 0 0.1 1.1 2.7 1.1 2.8 0.1 0.2 0 0.2-0.1 0.1-0.1-0.1-0.7-0.6-0.7-0.6 0 0 1 6.8 1.2 7.9q0.1 0.4 0.3 0.8c0.6-0.2 1.1-0.2 1.3-0.2 1.2 0.1 1.3 1 1.3 1.3zm-18.8 0.1c0.1-0.2 0-0.4-0.3-1-0.4-0.6-0.9 0.2-1.3 0.6-0.3 0.4 0.1 0.7 0.3 0.9q0.2 0.1 0.4 0.2c0.6-0.3 0.8-0.6 0.9-0.7zm4.7-0.8c0-0.1-0.1-0.5-0.5-0.8-0.4-0.2-0.8 0.2-1.1 0.7-0.3 0.4-0.1 0.6 0 0.7q0.2 0.2 0.7 0.4c0.2-0.1 0.4-0.3 0.5-0.3 0.3-0.3 0.4-0.5 0.4-0.7zm8.2-0.5c-1.4-1.4-2.5-1.1-3.3-0.9-1.2 0.4-2.9 2.8-3 3.1q0 0 0.1 0c0.6 0 3.9-0.2 6.2-1.7 0.2-0.2 0.1-0.3 0-0.5zm5.3 1.5c-0.4-0.5-0.9-0.5-1.2-0.5q-0.1 0-0.4 0 0.1 0.2 0.2 0.2c0.5 0.5 1.1 0.5 1.2 0.5 0.2 0 0.2-0.1 0.2-0.2z"/>
		<path id="&lt;Path&gt;" class="s0" d="m30.5 6.2c0 0-0.1 0.2-0.2 0.4-0.2 0.8-0.1 1.1-0.1 1.2 0.3 0.4 0.6 0.2 0.7-0.1 0-0.2 0.1-0.1 0.1 0q-0.1 0.1-0.1 0.2c-0.1 0.5-0.3 0.6-0.5 0.6-0.3 0-0.4-0.4-0.4-0.6-0.1-0.8 0.3-1.6 0.4-1.8 0.1-0.2 0.1-0.1 0.1 0.1z"/>
	</g>
</svg>