<svg version="1.2" xmlns="http://www.w3.org/2000/svg" viewBox="0 0 70 30" width="70" height="30">
	<title>New Project</title>
	<style>
		.s0 { fill: #191c4f } 
	</style>
	<g id="البروج">
		<path id="&lt;Path&gt;" class="s0" d="m27.8 21.9l1.1 0.8q0.1 0 0 0.1l-0.6 0.8q-0.1 0.1-0.1 0.1l-1.1-0.8q0-0.1 0-0.1l0.6-0.9q0.1-0.1 0.1 0z"/>
		<path id="&lt;Path&gt;" class="s0" d="m24.6 21.4c0 0-0.1 0.3-0.2 0.5-0.3 1.1 0 1.6 0 1.7 0.3 0.5 0.7 0.2 0.8-0.2 0.1-0.2 0.2-0.1 0.2 0q-0.1 0.1-0.1 0.3c-0.1 0.7-0.4 0.8-0.6 0.9-0.4 0-0.6-0.5-0.7-0.8-0.1-1.2 0.3-2.2 0.4-2.5 0.1-0.3 0.2-0.1 0.2 0.1z"/>
		<path id="&lt;Path&gt;" class="s0" d="m63.3 20.5c0 0 0 0.3 0 0.6 0 0.2-0.2 0.5-0.3 0.9-0.1 0.3-0.8 0.5-1.3 0.2-0.8 1.2-1.5 0.6-1.9 0.4-0.7-0.3-0.9 0.2-1.1 0.4-0.9 1-2.6 1-3 1-0.4 0.1-0.1-0.2 0.1-0.2 1.3-0.5 2.1-0.6 3.3-1.7 0.5-0.5 0.8-0.3 1-0.2 1.1 0.5 1.3 0 1.4-0.1 0.2-0.1 0.4-0.7 0.4-0.9 0.1-0.2 0.2 0 0.2 0.1 0 0.1-0.1 0.3-0.1 0.4 0.4 0.4 0.9 0.1 1 0 0 0-0.1-0.4-0.1-0.5q0-0.1 0.2-0.6c0.1-0.2 0.1 0 0.2 0.2z"/>
		<path id="&lt;Path&gt;" class="s0" d="m34.1 20.2c0 0-0.1 0.3-0.2 0.5-0.3 0.9-0.1 1.3-0.1 1.4 0.3 0.5 0.6 0.3 0.8-0.1 0-0.2 0.1-0.1 0.1 0q-0.1 0.1-0.1 0.3c-0.2 0.6-0.4 0.7-0.6 0.7-0.3 0-0.5-0.5-0.5-0.7-0.1-1 0.4-1.9 0.5-2.1 0.1-0.3 0.1-0.2 0.1 0z"/>
		<path id="&lt;Compound Path&gt;" fill-rule="evenodd" class="s0" d="m42.9 19c-0.3 1.1-1.8 1.7-2.2 1.8-1.4 0.4-1.5-1-1.4-2 0.1-1 0.8-2.2 0.8-2.2 0-0.1-1.5-1.2-1.6-1.3-0.1-0.1-0.2-0.3-0.4-0.4-0.1-0.1-0.1-0.1-0.1-0.1 0 0 0-1.1 0-1.2 0-0.1 0.1-0.1 0.2 0 0.1 0 1.7 0.7 1.9 0.7 0.1 0.1 0.1 0.2 0 0.3-0.1 0-0.6 0.1-0.6 0.1l1.2 1c0 0 1.8-2.4 2-2.6 0.2-0.2 0.2-0.1 0.1 0.1 0 0.3-0.3 1.3-0.4 1.4-0.1 0.2-1 1.4-1 1.4 0 0 1.2 0.8 1.4 1.2 0.6 0.7 0.2 1.4 0.1 1.8zm-2.2-2.1c0 0-0.8 1.4-0.9 1.7-0.4 0.8 0.4 0.9 0.7 0.9 0.3 0 1.4-0.6 1.9-1 0.5-0.4-1.4-1.4-1.7-1.6z"/>
		<path id="&lt;Compound Path&gt;" fill-rule="evenodd" class="s0" d="m64.9 17.7c-0.1 0.3-0.4 1.3-1.8 1-0.4-0.1-1.1-0.2-1.4-1-0.4 0.4-1.2 1.8-2.9 1.6-0.3-0.1-1.5-0.5-1.6-2 0 0-1.3 1.1-1.9 1.4 0 0.6 0 1.2-0.3 1.8-0.2 0.7-3.2 4-5.6 4.5-0.8 0.2-3.8 0.8-3.9-2.6q-0.1-1.1 0-1.7c-1.8 1.5-4.1 2.6-4.8 2.9-1 0.5-4.5 1.1-5.1 1.2-0.4 0.1-0.5 0-0.2-0.2 0.2-0.1 8-2.7 12-7 0.1-0.1 0.1-0.3 0-0.5-0.1-0.2-1.4-2.6-1.5-3-0.1-0.3-0.3-0.7-0.4-0.8q-0.1-0.2 0-0.4c0-0.1 0.1-0.7 0.2-0.9 0-0.1 0.1-0.1 0.2 0 0 0.1 1.3 1.4 1.5 1.6 0.1 0.1 0 0.2-0.1 0.2 0 0-0.6 0-0.6 0 0 0 0.8 1.4 1.1 1.9 0.4 1.2 0.2 2.1 0 2.5-0.4 0.8-1 1.5-1.8 2.2-0.2 0.6-0.4 3.4 2.2 3.4 0.4 0.1 1.7 0.2 4.4-1.9 0.6-0.5 1.3-1.1 1.9-2 0.2-0.3 0.4-0.9-0.1-0.8-0.4 0-3.1 1-3.5-0.6-0.1-0.5 0.1-4.4 2.8-2.4 0.2 0.1 0.8 0.6 1.2 1.4 0.4-0.2 1.3-0.7 2.3-1.6 0.3-0.2 0.6-0.3 0.6 0 0 0.4-0.2 2.7 2.2 2 0.3-0.1 1.3-0.3 2.1-2.3 0.2-0.4 0.5-0.3 0.3 0-0.2 0.5-0.4 0.9-0.2 1.2 0.3 0.2 1 0.7 1.8 0.6 0.4 0 0.5-0.2 0.4-0.4-0.1-0.3-0.4-0.8-0.4-0.8 0.1-0.3 0.2-0.8 0.2-0.9 0.1-0.2 0.1-0.3 0.2-0.1 0.1 0.1 0.9 1.1 0.5 2.5zm-11.2 0.1c-0.9-1.1-1.9-0.5-2-0.3-0.2 0.1-0.2 0.4 0.6 0.5 1 0 1.4-0.2 1.4-0.2z"/>
		<path id="&lt;Path&gt;" class="s0" d="m41.4 10.6l1.1 0.8q0.1 0.1 0 0.1l-0.6 0.9q0 0-0.1 0l-1.1-0.8-0.5 0.8q-0.1 0-0.1 0l-1.1-0.8q0 0 0-0.1l0.6-0.9q0.1 0 0.1 0l1.1 0.8 0.5-0.8q0.1 0 0.1 0z"/>
		<path id="&lt;Path&gt;" class="s0" d="m62.1 10.7c0 0-0.1 0.3-0.2 0.4-0.3 1-0.1 1.5-0.1 1.5 0.3 0.5 0.6 0.3 0.8-0.1 0-0.2 0.1-0.1 0.1 0q0 0.1-0.1 0.3c-0.2 0.6-0.4 0.7-0.6 0.7-0.4 0-0.5-0.5-0.5-0.7-0.1-1 0.3-1.9 0.4-2.2 0.2-0.3 0.2-0.1 0.2 0.1z"/>
		<path id="&lt;Path&gt;" class="s0" d="m29.3 10.9c0.3 0.3 0.2 0.8 0.2 1 0 0-0.4-0.3-0.6-0.4-0.2-0.1-0.3-0.2-0.2-0.4 0.4-0.3 0.5-0.3 0.6-0.2z"/>
		<path id="&lt;Path&gt;" class="s0" d="m29.8 10.4c0.4 0.9 0 1.7 0 1.7 0.3 0.2 0.5 0.6 0.3 1.1-0.1 0.2-0.2 0-0.3-0.1 0-0.1-0.4-0.4-0.4-0.4 0 0-1.3 1.7-2.5 2.5-1.6 0.9-2.8 1.2-2.9 1.2-0.1 0-0.1-0.1 0.1-0.2 1-0.5 3.3-2 5-3.7 0 0-0.5-0.3-0.8-0.5-0.3-0.3 0-1.1 0.2-1.5 0.7-0.8 1.2-0.3 1.3-0.1z"/>
		<path id="&lt;Path&gt;" class="s0" d="m51.1 10.1c0 0-0.1 0.3-0.2 0.5-0.3 1.1-0.1 1.5-0.1 1.6 0.3 0.6 0.7 0.3 0.8-0.1 0.1-0.2 0.2-0.1 0.2 0q-0.1 0.1-0.1 0.3c-0.2 0.6-0.5 0.8-0.7 0.8-0.4 0-0.5-0.5-0.6-0.8 0-1.1 0.5-2.1 0.6-2.4 0.1-0.3 0.2-0.1 0.1 0.1z"/>
		<path id="&lt;Path&gt;" class="s0" d="m15.7 8.1c0 0-0.1 0.3-0.2 0.6-0.4 1.1-0.1 1.6 0 1.7 0.3 0.5 0.8 0.2 0.9-0.2 0.1-0.2 0.2-0.1 0.1 0q0 0.1 0 0.3c-0.2 0.7-0.5 0.9-0.7 0.9-0.5 0-0.7-0.5-0.8-0.8-0.1-1.2 0.4-2.2 0.5-2.6 0.1-0.3 0.2-0.1 0.2 0.1z"/>
		<path id="&lt;Path&gt;" class="s0" d="m12.8 17.5c0 0.1 0 0.1-0.1 0.3-0.1 0.2-0.2 0.2-0.4 0.3-0.2 0.1-4.1 1.6-4.2 1.7-0.3 0.2-0.3 0.1-0.2-0.1q0 0 0.1-0.3c0-0.1 0.1-0.2 0.3-0.3 0.3-0.1 4-1.6 4.3-1.7 0.3-0.2 0.3-0.1 0.2 0.1z"/>
		<path id="&lt;Path&gt;" class="s0" d="m10.7 16.3l-0.6 0.9q0 0.1-0.1 0l-1.1-0.8q0 0 0-0.1l0.6-0.8q0.1-0.1 0.1-0.1l1.1 0.8q0.1 0.1 0 0.1z"/>
		<path id="&lt;Path&gt;" class="s0" d="m8.9 16.4q0 0 0-0.1l0.6-0.8q0.1-0.1 0.1-0.1l1.1 0.8q0.1 0.1 0 0.1l-0.6 0.9q0 0.1-0.1 0z"/>
		<path id="&lt;Path&gt;" class="s0" d="m12.8 17.5c0 0.1 0 0.1-0.1 0.3-0.1 0.2-0.2 0.2-0.4 0.3-0.2 0.1-4.1 1.6-4.2 1.7-0.3 0.2-0.3 0.1-0.2-0.1q0 0 0.1-0.3c0-0.1 0.1-0.2 0.3-0.3 0.3-0.1 4-1.6 4.3-1.7 0.3-0.2 0.3-0.1 0.2 0.1z"/>
		<path id="&lt;Path&gt;" class="s0" d="m8.9 16.4q0 0 0-0.1l0.6-0.8q0.1-0.1 0.1-0.1l1.1 0.8q0.1 0.1 0 0.1l-0.6 0.9q0 0.1-0.1 0z"/>
		<path id="&lt;Path&gt;" class="s0" d="m12.8 17.5c0 0.1 0 0.1-0.1 0.3-0.1 0.2-0.2 0.2-0.4 0.3-0.2 0.1-4.1 1.6-4.2 1.7-0.3 0.2-0.3 0.1-0.2-0.1q0 0 0.1-0.3c0-0.1 0.1-0.2 0.3-0.3 0.3-0.1 4-1.6 4.3-1.7 0.3-0.2 0.3-0.1 0.2 0.1z"/>
		<path id="&lt;Compound Path&gt;" fill-rule="evenodd" class="s0" d="m15.2 16.9c-0.5 2.8-3 4.9-3.5 5.2-3.6 2.2-5.9 0.1-6.2-0.4-2.2-2.6-0.7-7.1-0.6-7.4q0.1-0.3 0.2-0.6-0.5-0.2-0.7-0.3c-0.3-0.3-0.5-0.6-0.3-0.6 0.2 0.1 1 0.3 1.3 0.3 0.4-0.7 0.8-1.3 1.2-1.8-0.2-0.1-0.4-0.3-0.4-0.4-0.3-0.1-1.4-0.7-1.8-1.2-0.4-0.6-0.2-1.5 0-2 0.2-0.4 0.4-0.6 0.8-0.8 2.5-1.1 8.4-0.4 8.6-0.4 0.3 0.1 0.3 0.2 0.2 0.4 0 0.2-0.1 0.4-0.2 0.9 0 0-5 3.1-5.5 3.4q-0.2 0.1-0.4 0.3c0.1 0.4 0.1 0.7 0.1 0.8-0.1 0.2-0.2 0.2-0.3 0 0 0-0.2-0.2-0.4-0.4q-0.6 0.6-1.1 1.2c1.5-0.1 3.3-0.3 3.7-0.3 1.8-0.3 3.1-0.1 3.8 0.2 2.2 0.8 1.6 3.5 1.5 3.9zm-8.1-6.6q0.2 0.1 0.3 0.3c0.7-0.6 1.4-1 1.5-1.1 0.4-0.2 2.8-1.7 2.9-1.8-5.3-0.2-6.5 0.4-6.9 0.6-0.3 0.2-0.1 0.4 0 0.5 0.2 0.1 1.9 1.2 2.2 1.5zm6.7 4.3c-1.2-0.9-4.2-0.6-4.5-0.5-1.8 0.2-2.9 0-3.6-0.1-0.9 1.6-0.9 3.1-0.9 3.4 0 4.9 4.4 4.2 5 4.1 3.4-0.6 4.9-4.3 4.9-4.6 0.5-1.4-0.5-2.1-0.9-2.3z"/>
		<path id="&lt;Path&gt;" class="s0" d="m20.9 6.6c0.2 0.2 0.1 0.6 0 0.8 0 0.2-0.2 0-0.3-0.1 0 0-0.1-0.1-0.2-0.2-0.6-0.3-0.7 0.5-0.7 0.9 0 0.3 0 1.2 0 1.7 0 0.2-0.1 0.2-0.2 0.1-0.5-1.1-1.2-1.6-1.3-1.7-0.1-0.1-0.2 0.1-0.2 0.1 0 0.1-0.1 0.1-0.1 0.1-0.1 0-0.5-0.2-0.6-0.3-0.1-0.2-0.1-0.6-0.1-0.8-0.1-0.3 0.1-0.4 0.2-0.3 1.4 0.6 2 1.8 2 2 0-1 0-1.8 0.4-2.5 0.4-0.6 1.1 0.1 1.1 0.2z"/>
		<path id="&lt;Compound Path&gt;" fill-rule="evenodd" class="s0" d="m32.1 20.5c-1.6 0.5-2.4-0.4-2.6-0.7-1.1-1.1-1.9-0.8-2.6-0.7-1.6 0.3-4 2.7-4.5 3.5-2.1 2.8-3.1 2.9-3.7 2.9-2.2-0.2-1.9-3.1-1.7-3.7q0.1 0 0.1 0c-1.5 1-2.7 1.7-2.8 1.8-0.2 0.1-5.3 1.4-5.5 1.5-0.2 0-0.2 0-0.3-0.1 0-0.1 1.4-0.6 1.6-0.8 0 0 9-4.1 10.6-7.2 0.3-0.4-0.5-0.9-0.9-1-0.3 0-1.1 0.1-1.4 0.1-1.2 0.1-1.4-0.7-1.4-1-0.1-1.2 0.7-2 1-2.2 0.5-0.4 2.2-0.9 3.1 2.1 0.5 1.8 0.1 2.9-0.5 3.6-0.7 1-1.9 2-3.1 2.9q0 0.1-0.1 0.5c-0.6 2.1 0.6 2.5 1 2.5 1 0 2.6-1.8 3-2.3 0.4-0.5 2.6-2.9 3.4-3.5 1.5-1.3 3.2-1.1 3.4-1.1 1.3 0.3 1.7 1.2 2.1 1.4 0.8 0.6 1.9 0.1 2.2-0.1 0.4-0.2 0.4-0.7 0.2-1.6-0.1-0.9-1.5-8.2-1.5-8.2-0.1-0.6-0.2-1.2-0.2-1.6-0.1-0.5-0.2-0.7-0.2-0.8 0 0 0.4-0.8 0.5-1 0-0.1 0.1 0 0.1 0.1 0.1 0.1 1.4 3.1 1.5 3.3 0 0.1-0.1 0.2-0.2 0.1-0.1-0.1-0.7-0.7-0.8-0.8 0 0.5 1.5 8.5 1.5 9.1 0.3 1.9-0.7 2.7-1.3 3zm-12.3-5.8c-0.7-0.8-1.4-0.6-1.6-0.6-0.3 0.1-0.7 0.6-0.3 0.7 1 0.2 1.9-0.1 1.9-0.1z"/>
		<path id="&lt;Path&gt;" class="s0" d="m34.5 5.8c0.1 0.1 1.4 3.1 1.5 3.3 0 0.1-0.1 0.2-0.2 0.1-0.1-0.1-0.8-0.7-0.8-0.7 0 0 1.2 8.2 1.3 8.4q0.3 2.4 0.2 3.5c0 1-0.2 1.4-0.3 1.5-0.1 0.2-0.2 0.1-0.1-0.1-0.1-0.6-0.2-1.6-0.4-2.9-0.3-2.4-1.5-10.2-1.6-11.5-0.1-0.2-0.2-0.6-0.2-0.6 0 0 0.4-0.9 0.5-1.1 0-0.1 0.1 0 0.1 0.1z"/>
		<path id="&lt;Compound Path&gt;" fill-rule="evenodd" class="s0" d="m26.5 9.5c0 0.2-0.1 0-0.2-0.2-0.1 0-0.5-0.4-0.5-0.4 0 0-1.6 3.1-4.4 3.9-0.2 0.1-0.2 0 0.1-0.2 1-0.7 2.9-2.7 3.9-4 0 0-0.7-0.3-1.1-0.7-0.3-0.3 0-1.4 0.3-1.8 0.9-1 1.5-0.4 1.6-0.2 0.5 1.2 0 2.2 0 2.2 0.4 0.3 0.7 0.7 0.3 1.4zm-0.9-3c-0.1-0.1-0.3-0.1-0.8 0.4-0.1 0.1 0 0.3 0.3 0.4 0.2 0.2 0.7 0.5 0.7 0.5 0.1-0.2 0.2-0.8-0.2-1.3z"/>
		<path id="&lt;Path&gt;" class="s0" d="m50.1 5.6c0 0.1 0 0.2-0.1 0.4-0.1 0.1-0.2 0.2-0.4 0.3-0.2 0.1-5.9 3.5-6 3.5-0.4 0.2-0.3 0.1-0.3 0q0-0.1 0.1-0.3c0-0.2 0.1-0.2 0.3-0.4 0.2-0.1 5.9-3.4 6.2-3.6 0.3-0.2 0.3 0 0.2 0.1z"/>
		<path id="&lt;Path&gt;" class="s0" d="m57.1 6c0.1 0.2 0 0.7-0.1 0.9 0 0.2-0.2 0-0.3-0.1 0 0-0.2-0.2-0.3-0.3-0.6-0.5-0.8 0.5-0.9 0.9 0 0.4-0.1 1.4-0.2 2 0 0.3-0.2 0.3-0.2 0.1-0.4-1.3-1.2-2-1.3-2.1-0.1-0.1-0.2 0.1-0.3 0.2 0 0-0.1 0-0.1 0-0.1 0-0.5-0.3-0.7-0.5-0.1-0.1-0.1-0.6-0.1-0.8 0.1-0.4 0.3-0.5 0.4-0.4 1.5 0.8 2 2.4 2.1 2.6 0.1-1.1 0.1-2.2 0.7-2.9 0.5-0.7 1.3 0.3 1.3 0.4z"/>
		<path id="&lt;Compound Path&gt;" fill-rule="evenodd" class="s0" d="m62.8 8.4c-0.1 0.1-0.1 0-0.3-0.1 0-0.1-0.2-0.3-0.4-0.4-0.2 0.5-0.2 0.6-1.2 1.4-2.1 1.8-4.4 2.5-4.5 2.5-0.2 0-0.2-0.1 0-0.2 0.7-0.6 3.8-1.9 5.3-3.8 0 0-0.5-0.2-0.8-0.5-0.3-0.2-0.2-1.1 0.1-1.4 0.6-0.9 1.1-0.5 1.2-0.3 0.5 0.8 0.2 1.7 0.2 1.7 0.3 0.2 0.6 0.5 0.4 1.1zm-1-2.3c-0.1 0-0.3-0.1-0.6 0.4-0.1 0.1 0 0.2 0.2 0.3 0.2 0.1 0.7 0.3 0.7 0.3 0-0.1 0-0.7-0.3-1z"/>
		<path id="&lt;Compound Path&gt;" fill-rule="evenodd" class="s0" d="m41.1 8.1c0 0.1-0.1 0-0.2-0.1-0.1-0.1-0.4-0.4-0.4-0.4 0 0-0.5 1-1.3 1.6-1.4 1-2.6 1.2-2.7 1.3-0.1 0-0.2-0.1 0.1-0.3 0.9-0.5 1.9-0.9 3.5-2.8 0 0-0.5-0.1-0.8-0.4-0.4-0.2-0.2-1.1 0-1.4 0.6-1 1.1-0.5 1.2-0.3 0.6 0.8 0.3 1.7 0.3 1.7 0.2 0.2 0.5 0.5 0.3 1.1zm-1-2.3c-0.1-0.1-0.2-0.1-0.5 0.3-0.1 0.2 0 0.3 0.2 0.4 0.2 0.1 0.6 0.3 0.6 0.3 0-0.1 0.1-0.7-0.3-1z"/>
	</g>
</svg>