<svg version="1.2" xmlns="http://www.w3.org/2000/svg" viewBox="0 0 70 30" width="70" height="30">
	<title>New Project</title>
	<style>
		.s0 { fill: #191c4f } 
	</style>
	<g id="الطلاق">
		<path id="&lt;Path&gt;" class="s0" d="m11.7 21.8c-0.1 0.1-0.1 0.1-0.2 0.3 0 0.1-0.1 0.2-0.3 0.3-0.3 0.1-3.7 1.4-3.9 1.5-0.3 0.1-0.3 0-0.2-0.1q0 0 0.1-0.3c0-0.1 0.1-0.2 0.3-0.3 0.3-0.1 3.7-1.5 4-1.5 0.3-0.1 0.2-0.1 0.2 0.1z"/>
		<path id="&lt;Path&gt;" class="s0" d="m22.2 21.2c-0.1 0.1-0.1 0.2-0.2 0.3 0 0.2-0.2 0.2-0.3 0.3-0.2 0.1-3.8 1.6-3.9 1.6-0.3 0.2-0.3 0.1-0.3 0q0.1-0.1 0.1-0.3c0.1-0.2 0.1-0.2 0.4-0.3 0.2-0.1 3.7-1.6 3.9-1.7 0.4-0.1 0.3 0 0.3 0.1z"/>
		<path id="&lt;Path&gt;" class="s0" d="m37.4 19.3c0 0-0.1 0.3-0.2 0.5-0.3 0.8-0.1 1.2-0.1 1.3 0.3 0.4 0.6 0.2 0.7-0.1 0.1-0.2 0.1-0.1 0.1 0q0 0-0.1 0.2c-0.1 0.5-0.3 0.7-0.5 0.7-0.3-0.1-0.5-0.5-0.5-0.7 0-0.9 0.4-1.7 0.4-1.9 0.1-0.2 0.2-0.1 0.2 0z"/>
		<path id="&lt;Path&gt;" class="s0" d="m64.1 19.2c0 0 0 0.3 0 0.5 0 0.3-0.1 0.6-0.2 0.9-0.1 0.3-0.8 0.4-1.2 0.1-0.7 1.2-1.4 0.6-1.8 0.5-0.6-0.3-0.8 0.1-1 0.3-0.8 1-2.4 0.9-2.7 1-0.4 0-0.1-0.2 0.1-0.3 1.2-0.4 1.9-0.5 3-1.5 0.5-0.5 0.8-0.2 0.9-0.2 1 0.5 1.2 0 1.3-0.1 0.1-0.1 0.3-0.6 0.4-0.8 0.1-0.2 0.2-0.1 0.1 0.1 0 0.1 0 0.3-0.1 0.4 0.4 0.3 0.9 0 1-0.1 0 0-0.1-0.3-0.1-0.4q0-0.1 0.1-0.5c0.1-0.3 0.2 0 0.2 0.1z"/>
		<path id="&lt;Compound Path&gt;" fill-rule="evenodd" class="s0" d="m45.5 17.8c-0.3 1-1.7 1.6-2.1 1.7-1.2 0.4-1.3-0.9-1.3-1.8 0.1-0.9 0.8-2.1 0.8-2.1-0.1 0-1.4-1.1-1.5-1.2-0.1-0.1-0.2-0.2-0.4-0.3-0.1-0.1-0.1-0.1-0.1-0.1 0 0 0.1-1 0.1-1.1 0-0.1 0-0.1 0.1 0 0.1 0 1.6 0.6 1.7 0.7 0.2 0 0.1 0.2 0 0.2 0 0-0.5 0.1-0.5 0.1l1.2 0.9c0 0 1.6-2.2 1.8-2.4 0.1-0.2 0.1-0.1 0.1 0.2-0.1 0.2-0.4 1.1-0.5 1.2 0 0.2-0.9 1.3-0.9 1.3 0 0 1.1 0.7 1.4 1.1 0.5 0.6 0.2 1.3 0.1 1.6zm-2.1-1.9c0 0-0.7 1.3-0.8 1.5-0.4 0.8 0.4 0.9 0.7 0.9 0.2 0 1.2-0.5 1.7-0.9 0.4-0.4-1.3-1.3-1.6-1.5z"/>
		<path id="&lt;Path&gt;" class="s0" d="m19.1 12.3c0.1 0.1 1.3 1.3 1.4 1.5 0.2 0.1 0.1 0.2 0 0.2-0.1 0-0.6 0-0.6 0 0 0 0.7 1.3 1 1.8 0.4 1.1 0.2 2 0 2.3-1.2 2.5-5.6 4.6-6.5 5.1-0.9 0.4-4.1 1-4.7 1.1-0.3 0.1-0.4 0-0.2-0.2 0.3-0.1 7.4-2.6 11.1-6.5q0.1-0.2-0.1-0.5c-0.1-0.2-1.2-2.5-1.3-2.8-0.1-0.3-0.3-0.7-0.4-0.8q0-0.1 0-0.3c0-0.1 0.1-0.8 0.2-0.9 0-0.1 0.1-0.1 0.1 0z"/>
		<path id="&lt;Path&gt;" class="s0" d="m9.9 14.6c0 0 0 0.3-0.1 0.6-0.3 1.1-0.1 1.6 0 1.7 0.3 0.5 0.7 0.2 0.8-0.2 0-0.2 0.1-0.1 0.1 0q0 0.1 0 0.3c-0.2 0.7-0.4 0.9-0.6 0.9-0.4 0-0.6-0.5-0.7-0.8-0.1-1.2 0.3-2.3 0.4-2.6 0.1-0.3 0.2-0.1 0.1 0.1z"/>
		<path id="&lt;Compound Path&gt;" fill-rule="evenodd" class="s0" d="m65.6 16.7c-0.1 0.2-0.3 1.1-1.6 0.9-0.4-0.1-1.1-0.3-1.3-1-0.4 0.4-1.1 1.7-2.7 1.5-0.3-0.1-1.4-0.5-1.4-1.8 0 0-1.3 1-1.8 1.3 0 0.5 0 1-0.2 1.6-0.3 0.6-3 3.7-5.2 4.2-0.7 0.1-3.5 0.7-3.6-2.5q0-1 0-1.5c-1.7 1.4-3.8 2.4-4.4 2.7-0.9 0.4-4.1 1-4.7 1.1-0.3 0-0.4-0.1-0.2-0.2 0.3-0.1 7.4-2.5 11.1-6.4 0.1-0.2 0.1-0.3-0.1-0.5-0.1-0.2-1.2-2.4-1.3-2.7-0.1-0.3-0.3-0.7-0.3-0.8q-0.1-0.1-0.1-0.3c0-0.1 0.1-0.7 0.2-0.9 0-0.1 0.1 0 0.2 0.1 0 0.1 1.2 1.2 1.3 1.4 0.2 0.1 0.1 0.2 0 0.2-0.1 0-0.6 0-0.6 0 0 0 0.7 1.3 1 1.7 0.4 1.1 0.2 2 0 2.3-0.3 0.7-0.9 1.4-1.7 2-0.1 0.5-0.3 3.1 2.1 3.2 0.4 0 1.6 0.2 4-1.8 0.6-0.5 1.2-1 1.8-1.8 0.2-0.3 0.3-0.8-0.1-0.8-0.4 0.1-2.9 1-3.3-0.5 0-0.4 0.2-4.1 2.6-2.3 0.2 0.2 0.8 0.6 1.1 1.3 0.4-0.2 1.2-0.6 2.2-1.4 0.2-0.2 0.5-0.3 0.5 0 0 0.4-0.2 2.4 2 1.8 0.3 0 1.3-0.2 1.9-2 0.2-0.4 0.5-0.4 0.4 0-0.2 0.4-0.5 0.8-0.2 1 0.2 0.2 0.8 0.7 1.6 0.6 0.3-0.1 0.5-0.2 0.4-0.4-0.1-0.2-0.4-0.7-0.4-0.7 0.1-0.3 0.2-0.7 0.2-0.9 0-0.1 0.1-0.2 0.2-0.1 0.1 0.1 0.8 1.1 0.4 2.4zm-10.3 0.1c-0.8-1.1-1.7-0.5-1.8-0.4-0.1 0.1-0.2 0.4 0.6 0.5 0.9 0.1 1.2-0.1 1.2-0.1z"/>
		<path id="&lt;Path&gt;" class="s0" d="m44.1 10.2l1 0.7q0 0 0 0.1l-0.6 0.8q0 0-0.1 0l-0.9-0.7-0.6 0.7q0 0 0 0l-1-0.7q-0.1-0.1-0.1-0.1l0.6-0.8q0.1-0.1 0.1 0l1 0.7 0.5-0.7q0-0.1 0.1 0z"/>
		<path id="&lt;Path&gt;" class="s0" d="m63 10.2c0 0-0.1 0.3-0.1 0.4-0.3 0.9-0.2 1.3-0.1 1.4 0.2 0.5 0.5 0.2 0.7-0.1 0-0.2 0.1-0.1 0.1 0q0 0.1-0.1 0.3c-0.1 0.5-0.4 0.6-0.5 0.6-0.4 0-0.5-0.4-0.5-0.6-0.1-1 0.3-1.8 0.4-2.1 0.1-0.2 0.2-0.1 0.1 0.1z"/>
		<path id="&lt;Path&gt;" class="s0" d="m14.1 9.6l1 0.7q0.1 0 0 0.1l-0.6 0.8q0 0 0 0l-1-0.7-0.5 0.7q-0.1 0-0.1 0l-1-0.7q-0.1-0.1 0-0.1l0.6-0.8q0-0.1 0 0l1 0.7 0.5-0.7q0.1-0.1 0.1 0z"/>
		<path id="&lt;Path&gt;" class="s0" d="m53 9.7c0 0-0.1 0.3-0.2 0.4-0.3 1-0.1 1.4-0.1 1.5 0.3 0.5 0.6 0.3 0.8-0.1 0-0.2 0.1-0.1 0.1 0q-0.1 0.1-0.1 0.3c-0.2 0.6-0.4 0.7-0.6 0.7-0.4 0-0.5-0.5-0.5-0.7-0.1-1 0.3-1.9 0.4-2.2 0.1-0.2 0.2-0.1 0.2 0.1z"/>
		<path id="&lt;Compound Path&gt;" fill-rule="evenodd" class="s0" d="m14.9 18.6c0 0-5.9 5.1-9.1 1.5-1.6-1.7-0.4-5.2 0-5.7q0-0.1 0.1-0.2c-0.5-0.1-0.7-0.8-0.8-1.2-0.2-1.9 0.4-3.5 0.5-4 0.1-0.5 0.3-0.3 0.2 0.1 0 0-0.1 0.5-0.2 0.8-0.4 1.8-0.1 2.6 0 2.8 0.5 0.8 1 0.3 1.1-0.3 0.1-0.4 0.2-0.2 0.2-0.1q0 0.2-0.1 0.6c-0.2 1-0.5 1.3-0.8 1.3 0.1 0.1 0.1 0.3 0 0.4-1.4 4.2 1.2 5.2 1.8 5.3 2.8 0.7 6.2-1.8 6.6-2.1 1.4-0.9 1.4-1.4 1.4-1.6-0.5-1.1-2-0.7-3.2-0.9-1.3-0.3-0.7-2.1-0.1-2.7 0.4-0.5 2-1.7 3.3 1.4 1.3 3.1-0.6 4.3-0.9 4.6zm-0.1-4.3c-0.1-0.1-0.8-1.2-1.6-1-0.4 0.1-0.6 0.6-0.2 0.8 0.4 0.2 0.6 0.1 1 0.1 0.4 0 0.7 0 0.8 0.1z"/>
		<path id="&lt;Path&gt;" class="s0" d="m11.4 6.4c0.1 0.2 0 0.6 0 0.8-0.1 0.1-0.2 0-0.3-0.1 0 0-0.2-0.1-0.3-0.2-0.5-0.4-0.6 0.4-0.6 0.8 0 0.2 0 1.5-0.3 2.4-0.4 1-0.3 1.5-0.2 1.6 0.2 0.5 0.6 0.3 0.7-0.1 0.1-0.2 0.2-0.1 0.2 0q-0.1 0.1-0.1 0.3c-0.2 0.6-0.5 0.8-0.7 0.8-0.3-0.1-0.5-0.6-0.5-0.8 0-1.2 0.8-2.3 0.5-2.9-0.4-0.8-0.9-1.2-1-1.2-0.1-0.1-0.2 0-0.2 0.1 0 0.1-0.1 0.1-0.1 0-0.1 0-0.5-0.2-0.6-0.3-0.1-0.1-0.1-0.5-0.1-0.7 0-0.3 0.2-0.4 0.3-0.3 1.3 0.6 1.7 1.8 1.8 2 0-1 0-1.8 0.4-2.4 0.4-0.5 1 0.1 1.1 0.2z"/>
		<path id="&lt;Path&gt;" class="s0" d="m19.9 6.4c0.1 0.2 0 0.6-0.1 0.9-0.1 0.1-0.2 0-0.3-0.2 0 0-0.1-0.1-0.3-0.2-0.5-0.4-0.7 0.4-0.7 0.8-0.1 0.3-0.1 1.2-0.2 1.8 0 0.2-0.2 0.2-0.2 0-0.4-1.1-1-1.7-1.1-1.8-0.2-0.1-0.3 0-0.3 0.1 0 0.1-0.1 0.1-0.1 0.1-0.1-0.1-0.5-0.3-0.6-0.4-0.1-0.2-0.1-0.6-0.1-0.8 0.1-0.3 0.3-0.4 0.4-0.4 1.3 0.8 1.7 2.1 1.8 2.3 0.1-1 0.1-1.8 0.6-2.5 0.5-0.6 1.1 0.2 1.2 0.3z"/>
		<path id="&lt;Path&gt;" class="s0" d="m25.9 13.1c0 0 0 0.3-0.1 0.5-0.3 1.1-0.1 1.6 0 1.7 0.3 0.5 0.6 0.2 0.8-0.2 0-0.2 0.1-0.1 0.1 0q0 0-0.1 0.3c-0.1 0.6-0.4 0.8-0.6 0.8-0.3 0-0.5-0.5-0.6-0.8-0.1-1.1 0.3-2.1 0.4-2.3 0.1-0.3 0.2-0.2 0.1 0z"/>
		<path id="&lt;Path&gt;" class="s0" d="m24.9 6.6c0 0-0.1 0.3-0.2 0.5-0.3 1 0 1.5 0 1.6 0.3 0.5 0.7 0.2 0.8-0.2 0-0.2 0.1-0.1 0.1 0q0 0.1 0 0.3c-0.2 0.7-0.4 0.8-0.6 0.8-0.4 0-0.6-0.5-0.6-0.7-0.2-1.1 0.2-2.1 0.3-2.4 0.1-0.3 0.2-0.2 0.2 0.1z"/>
		<path id="&lt;Path&gt;" class="s0" d="m33.2 11c0 0 0.1 0.5 0.2 0.7 0.2 0.3 0.3 0.5 0.2 0.9-0.1 0.4-0.3 0.6-0.4 0.7-0.3 0.1-0.7 0.1-0.9-0.3-0.4 0.7-0.8 0.8-1.1 0.6-0.3-0.1-0.3-0.6-0.3-0.8 0-0.1 0-0.7 0-0.8 0-0.1 0-0.2 0.1-0.3 0-0.2 0.1-0.1 0.1 0.1 0 0.1-0.1 0.8 0 1.1 0.3 0.4 0.9 0 1-0.2 0.2-0.2-0.1-1-0.1-1q-0.1-0.1 0-0.1c0 0 0-0.3 0-0.4q0.1-0.2 0.2 0c0.1 0.1 0.1 0.3 0.2 1 0.1 0.7 0.7 0.6 0.9 0.5 0.1-0.1 0.1-0.2 0.1-0.2-0.1-0.1-0.3-0.7-0.4-0.9-0.1-0.3-0.1-0.4 0-0.7 0.1-0.2 0.1 0 0.2 0.1z"/>
		<path id="&lt;Path&gt;" class="s0" d="m33.9 7.9c-0.1 0.1-0.1 0.2-0.2 0.3 0 0.2-0.1 0.2-0.3 0.3-0.2 0.1-3.8 1.6-3.9 1.6-0.3 0.2-0.3 0.1-0.2 0q0 0 0-0.3c0.1-0.2 0.2-0.2 0.4-0.3 0.2-0.1 3.7-1.6 4-1.7 0.3-0.1 0.2 0 0.2 0.1z"/>
		<path id="&lt;Compound Path&gt;" fill-rule="evenodd" class="s0" d="m36.1 19.3c-0.5 0.9-2.3 1.4-3.5 1.7-5.6 1.5-8 0.4-8.8-0.1-1.4-1-1.5-3.8-1.8-7-0.1-2.3-0.3-4.9-1-7.1 0 0 0.2-0.5 0.3-0.9 0.2-0.4 0.3-0.4 0.4 0 0.5 1.9 1.1 10.9 1.8 12.7 0.8 2.1 2.7 1.9 3.3 1.9 0 0 0.7-0.8 1.4-1.5q0-0.1 0-0.1c0.5-1 0.2-3.1 0.2-3.9-0.1-0.7-1-6.7-1.1-7.2-0.1-0.5-0.2-0.9-0.3-1.3 0 0 0.2-0.7 0.3-0.8 0-0.2 0.1-0.2 0.2 0.1 0.1 0.2 1.1 2.3 1.2 2.6 0.2 0.2 0 0.3-0.2 0.1-0.2-0.2-0.6-0.4-0.6-0.4 1.5 7 1.1 9.6 0.9 10.1 0.3-0.3 0.6-0.6 0.7-0.7 1.5-1.3 2.6-1.7 3.3-1.6 1.7 0.3 2.2 1.3 2.2 1.9 0 0.5-0.7 1.8-0.7 1.8 2.2-0.5 1.7-1.7 1.6-2.1 0-0.4-1.4-9.8-1.5-10.3-0.1-0.4-0.2-0.6-0.2-0.7 0 0 0.4-0.9 0.5-1 0-0.1 0.1 0 0.1 0.1 0 0.1 1.3 3.1 1.3 3.2 0.1 0.2 0 0.2-0.1 0.1-0.1-0.1-0.7-0.6-0.7-0.6 0 0 0.9 6.2 1.1 7.3 0.2 2.1 0.1 2.9-0.3 3.7zm-2-1.3c-0.8-0.9-1.7-1-2.5-1-1.2 0.1-3.8 3-4.1 3.5 0 0 2.8 0.3 6.5-1.9 0.4-0.2 0.3-0.4 0.1-0.6z"/>
		<path id="&lt;Path&gt;" class="s0" d="m37.8 5.6c0.1 0.1 1.3 3.1 1.4 3.2 0 0.2-0.1 0.2-0.2 0.1-0.1-0.1-0.7-0.6-0.7-0.6 0 0 1.1 8 1.2 8.2q0.3 2.4 0.2 3.5c-0.1 1-0.2 1.4-0.3 1.5-0.1 0.2-0.2 0.1-0.1-0.1-0.1-0.5-0.2-1.6-0.3-2.8-0.3-2.5-1.4-10.2-1.6-11.5 0-0.1-0.1-0.5-0.1-0.6 0 0 0.4-0.9 0.4-1 0.1-0.1 0.1 0 0.1 0.1z"/>
		<path id="&lt;Path&gt;" class="s0" d="m52.1 5.6c-0.1 0.1-0.1 0.1-0.2 0.3 0 0.2-0.1 0.2-0.3 0.3-0.2 0.1-5.5 3.2-5.6 3.2-0.3 0.2-0.2 0.1-0.2 0q0-0.1 0.1-0.3c0-0.2 0.1-0.2 0.3-0.3 0.2-0.2 5.4-3.2 5.6-3.3 0.3-0.2 0.3-0.1 0.3 0.1z"/>
		<path id="&lt;Path&gt;" class="s0" d="m58.5 5.9c0.1 0.2 0 0.6-0.1 0.9-0.1 0.1-0.2 0-0.3-0.2 0 0-0.2-0.1-0.3-0.2-0.5-0.5-0.7 0.4-0.8 0.8 0 0.3-0.1 1.3-0.2 1.9 0 0.2-0.1 0.2-0.2 0-0.4-1.2-1.1-1.8-1.2-1.9-0.1-0.1-0.2 0.1-0.2 0.1 0 0.1-0.1 0.1-0.2 0.1 0 0-0.4-0.3-0.6-0.4-0.1-0.2-0.1-0.6 0-0.8 0-0.4 0.2-0.5 0.3-0.4 1.4 0.8 1.9 2.2 1.9 2.4 0.1-1 0.1-2 0.7-2.7 0.5-0.5 1.1 0.3 1.2 0.4z"/>
		<path id="&lt;Compound Path&gt;" fill-rule="evenodd" class="s0" d="m63.7 8.1c-0.1 0.2-0.1 0.1-0.3-0.1 0-0.1-0.2-0.2-0.4-0.3-0.2 0.4-0.2 0.5-1 1.2-2 1.7-4.1 2.3-4.2 2.3-0.1 0.1-0.2 0 0-0.2 0.7-0.5 3.5-1.7 4.9-3.5 0 0-0.5-0.1-0.8-0.4-0.3-0.2-0.1-1 0.1-1.3 0.6-0.8 1-0.4 1.1-0.3 0.5 0.8 0.2 1.6 0.2 1.6 0.3 0.2 0.5 0.5 0.4 1zm-0.9-2.1c-0.2 0-0.3 0-0.6 0.3-0.1 0.2 0 0.3 0.2 0.4 0.2 0 0.6 0.2 0.6 0.2 0-0.1 0.1-0.6-0.2-0.9z"/>
		<path id="&lt;Compound Path&gt;" fill-rule="evenodd" class="s0" d="m43.8 7.8c0 0.2-0.1 0.1-0.2-0.1-0.1 0-0.4-0.3-0.4-0.3 0 0-0.4 0.9-1.1 1.4-1.3 1-2.5 1.2-2.5 1.2-0.1 0-0.2-0.1 0-0.2 0.9-0.5 1.8-0.8 3.2-2.6 0 0-0.4-0.1-0.7-0.4-0.3-0.2-0.2-1 0.1-1.3 0.5-0.8 1-0.4 1.1-0.3 0.4 0.8 0.2 1.6 0.2 1.6 0.2 0.2 0.5 0.5 0.3 1zm-0.9-2.1c-0.1 0-0.2 0-0.5 0.4-0.1 0.1 0 0.2 0.2 0.3 0.2 0 0.6 0.2 0.6 0.2 0-0.1 0-0.6-0.3-0.9z"/>
	</g>
</svg>