<svg version="1.2" xmlns="http://www.w3.org/2000/svg" viewBox="0 0 70 30" width="70" height="30">
	<title>New Project</title>
	<style>
		.s0 { fill: #191c4f } 
	</style>
	<g id="الأعلى">
		<path id="&lt;Path&gt;" class="s0" d="m20.9 21.6c0.1 0 0.3 0 0.4 0.1q0 0-0.1 0.1 0 0-0.1 0c-0.2 0-0.4 0.1-0.7 0.2q-0.2 0.1-0.3 0.2-0.1 0.1-0.1 0.1c-0.1 0.1 0 0.1 0 0.1 0.2 0.1 0.4 0.2 0.7 0.2 0.3 0 0.6-0.3 0.9-0.5 0.1 0 0.3-0.2 0.3 0q0 0.1 0 0.2c0 0.1-0.1 0.1-0.2 0.1-0.6 0.4-1.2 0.8-1.4 1.4-0.1 0.3-0.1 0.6 0.1 0.8 0.2 0.3 0.6 0.4 0.9 0.4q0.6 0 1.2-0.1 0.2-0.1 0.5-0.1 0.1-0.1 0.3-0.1c0 0 0.1 0 0.2 0 0 0 0 0 0 0.1q-0.1 0-0.2 0.1-0.2 0-0.3 0.1c-0.3 0.1-0.5 0.3-0.8 0.3-0.5 0.1-1.1 0.2-1.6 0-0.9-0.4-0.8-1.6-0.1-2.3-0.3 0-0.6-0.1-0.7-0.3-0.1-0.1-0.1-0.3 0-0.5 0.1-0.4 0.6-0.7 1.1-0.6z"/>
		<path id="&lt;Path&gt;" class="s0" d="m64 21.2c0 0 0 0.3 0 0.6 0 0.2-0.1 0.5-0.2 0.9-0.2 0.3-0.9 0.4-1.3 0.1-0.8 1.3-1.6 0.6-2 0.5-0.7-0.3-0.9 0.2-1.1 0.4-0.9 1-2.5 1-2.9 1-0.4 0-0.1-0.2 0.1-0.3 1.3-0.4 2.1-0.5 3.3-1.6 0.5-0.5 0.8-0.3 1-0.2 1 0.5 1.2 0 1.4-0.1 0.1-0.1 0.3-0.7 0.4-0.9 0.1-0.2 0.2 0 0.1 0.1 0 0.1-0.1 0.3-0.1 0.4 0.5 0.4 0.9 0.1 1 0 0 0 0-0.4 0-0.5q-0.1-0.1 0.1-0.5c0.1-0.3 0.2-0.1 0.2 0.1z"/>
		<path id="&lt;Path&gt;" class="s0" d="m28.1 17.7c0 0-0.1 0.4-0.2 0.7-0.5 1.5-0.2 2.3-0.2 2.4 0.4 0.8 0.9 0.4 1.1-0.2 0-0.3 0.1-0.1 0.1 0q0 0.1-0.1 0.5c-0.2 0.9-0.6 1.1-0.8 1.1-0.5 0-0.7-0.7-0.8-1.1 0-1.7 0.6-3.1 0.7-3.6 0.2-0.4 0.3-0.2 0.2 0.2z"/>
		<path id="&lt;Compound Path&gt;" fill-rule="evenodd" class="s0" d="m43.9 19.7c-0.4 1.1-1.9 1.7-2.2 1.8-1.4 0.4-1.5-1-1.4-1.9 0.1-1 0.8-2.3 0.8-2.3-0.1 0-1.5-1.2-1.6-1.3-0.1-0.1-0.2-0.2-0.4-0.3-0.1-0.1-0.1-0.2-0.1-0.2 0 0 0-1 0-1.1 0.1-0.1 0.1-0.1 0.2 0 0.1 0 1.7 0.6 1.8 0.7 0.2 0.1 0.1 0.2 0.1 0.2-0.1 0.1-0.7 0.2-0.7 0.2l1.3 0.9c0 0 1.8-2.3 2-2.5 0.1-0.2 0.1-0.1 0.1 0.1-0.1 0.3-0.4 1.2-0.5 1.4-0.1 0.1-1 1.4-1 1.4 0 0 1.2 0.7 1.5 1.1 0.5 0.7 0.2 1.4 0.1 1.8zm-2.2-2c0 0-0.8 1.3-0.9 1.6-0.4 0.8 0.4 0.9 0.7 0.9 0.3 0 1.3-0.6 1.8-1 0.5-0.4-1.3-1.4-1.6-1.5z"/>
		<path id="&lt;Compound Path&gt;" fill-rule="evenodd" class="s0" d="m65.6 18.4c-0.1 0.3-0.4 1.3-1.8 1-0.4-0.1-1.1-0.2-1.4-1-0.3 0.4-1.2 1.8-2.8 1.6-0.4-0.1-1.5-0.5-1.6-2 0 0-1.3 1.1-1.9 1.5 0 0.5 0 1.1-0.3 1.7-0.2 0.7-3.1 4-5.5 4.5-0.8 0.2-3.8 0.7-3.9-2.7q0-1 0.1-1.6c-1.9 1.5-4.2 2.6-4.8 2.9-1 0.5-4.4 1-5.1 1.1-0.4 0.1-0.4 0-0.2-0.1 0.2-0.2 7.9-2.8 11.9-7 0.1-0.1 0.1-0.3 0-0.5-0.1-0.2-1.4-2.6-1.5-2.9-0.1-0.3-0.3-0.7-0.3-0.8q-0.1-0.2-0.1-0.4c0-0.1 0.1-0.7 0.2-0.9 0-0.1 0.1-0.1 0.2 0 0.1 0.1 1.3 1.4 1.5 1.6 0.1 0.1 0 0.2-0.1 0.2 0 0-0.6 0-0.6 0 0 0 0.8 1.4 1 1.9 0.5 1.1 0.3 2.1 0.1 2.5-0.4 0.7-1 1.4-1.8 2.1-0.2 0.6-0.4 3.3 2.2 3.4 0.4 0 1.7 0.2 4.3-2 0.6-0.5 1.3-1 1.9-1.9 0.2-0.3 0.4-0.9 0-0.8-0.5 0-3.2 1-3.6-0.6-0.1-0.4 0.2-4.3 2.8-2.4 0.2 0.2 0.8 0.6 1.2 1.4 0.4-0.2 1.3-0.7 2.3-1.5 0.3-0.3 0.6-0.4 0.6 0-0.1 0.3-0.3 2.6 2.2 1.9 0.3-0.1 1.3-0.3 2-2.2 0.2-0.4 0.5-0.4 0.4 0-0.2 0.5-0.5 0.9-0.2 1.1 0.2 0.2 0.9 0.7 1.8 0.6 0.3 0 0.4-0.1 0.3-0.4-0.1-0.2-0.4-0.7-0.4-0.7 0.1-0.3 0.2-0.8 0.2-1 0.1-0.1 0.1-0.2 0.2-0.1 0.1 0.1 0.9 1.2 0.5 2.5zm-11.1 0.2c-0.8-1.2-1.9-0.6-2-0.4-0.1 0.1-0.2 0.4 0.7 0.5 1 0.1 1.3-0.1 1.3-0.1z"/>
		<path id="&lt;Path&gt;" class="s0" d="m9.3 17.2c2.2 2.6 1.3 6 1.1 6.4-0.1 0.1-0.2 0.1-0.1-0.2 0.4-3.2-1.4-5.4-1.6-5.6 0 0 0.2-0.6 0.3-0.7 0.1-0.1 0.1-0.2 0.3 0.1z"/>
		<path id="&lt;Path&gt;" class="s0" d="m12.6 15c0 0-0.1 0.3-0.1 0.5-0.3 0.9-0.2 1.3-0.1 1.4 0.2 0.4 0.6 0.2 0.7-0.1 0.1-0.2 0.1-0.1 0.1 0q0 0-0.1 0.2c-0.1 0.6-0.4 0.7-0.5 0.7-0.4 0-0.5-0.4-0.5-0.7-0.1-1 0.3-1.8 0.4-2.1 0.1-0.2 0.2-0.1 0.1 0.1z"/>
		<path id="&lt;Path&gt;" class="s0" d="m40.7 11.4l1.1 0.8 0.5-0.8q0.1 0 0.1 0l1.1 0.8q0 0.1 0 0.1l-0.6 0.9q-0.1 0-0.1 0l-1.1-0.8-0.5 0.8q-0.1 0-0.1 0l-1.1-0.8q-0.1 0 0-0.1l0.6-0.9q0.1 0 0.1 0z"/>
		<path id="&lt;Path&gt;" class="s0" d="m62.8 11.5c0 0-0.1 0.3-0.2 0.5-0.3 0.9-0.1 1.3-0.1 1.4 0.3 0.5 0.7 0.3 0.8-0.1 0.1-0.2 0.1-0.1 0.1 0q0 0.1-0.1 0.3c-0.1 0.6-0.4 0.7-0.6 0.7-0.3 0-0.5-0.5-0.5-0.7-0.1-1 0.4-1.9 0.5-2.2 0.1-0.2 0.2-0.1 0.1 0.1z"/>
		<path id="&lt;Path&gt;" class="s0" d="m52 10.9c0 0-0.1 0.3-0.2 0.5-0.4 1.1-0.2 1.5-0.1 1.6 0.3 0.6 0.7 0.3 0.8-0.1 0.1-0.2 0.1-0.1 0.1 0q0 0.1-0.1 0.3c-0.1 0.6-0.4 0.8-0.6 0.8-0.4 0-0.6-0.5-0.6-0.8-0.1-1.1 0.4-2.1 0.5-2.3 0.1-0.3 0.2-0.2 0.2 0z"/>
		<path id="&lt;Path&gt;" class="s0" d="m21.3 10.3c0.7 0.1 0.5 0.4 0.4 0.6-0.5 0.8-1.2 1.1-1.7 1.3-0.5 0.3-0.3-0.1 0-0.3 0 0 0.3-0.2 0.8-0.5 0.4-0.4-0.8-0.3-1.3-0.3-0.5-0.1-0.6 0.1-0.8 0.3-0.1 0.2-0.3 0.1-0.2-0.1 0.1-0.2 0.3-0.5 0.6-0.9 0.4-0.4 1.5-0.2 2.2-0.1z"/>
		<path id="&lt;Path&gt;" class="s0" d="m13.5 10.2c0 0-0.1 0.2-0.1 0.4-0.3 0.9-0.2 1.3-0.1 1.4 0.2 0.5 0.6 0.3 0.7-0.1 0.1-0.2 0.1-0.1 0.1 0q0 0.1-0.1 0.3c-0.1 0.5-0.4 0.7-0.5 0.7-0.4 0-0.5-0.5-0.6-0.7 0-1 0.4-1.9 0.5-2.1 0.1-0.2 0.2-0.1 0.1 0.1z"/>
		<path id="&lt;Path&gt;" class="s0" d="m23.7 8.7c0.2 0.2 2.4 1.6 2.7 1.9 0.3 0.2 0 0.3-0.2 0.2-0.1 0-0.5-0.1-0.8-0.2 0 0 0.5 0.6 0.9 1.1 0.9 1.1 2.6 2.5 2.9 2.8 0.4 0.3 1.8 1.2 2.7 2.4 1.1 1.2 0.9 2.8 0.8 3.2-0.1 0.4-0.3 0.6-0.2 0.1 0-0.5-0.1-1-0.4-1.5-1.2-2.1-3.8-3.7-4.1-3.9-1.7-1.4-3.8-4.2-3.9-4.3-0.1-0.2-0.3-0.3-0.4-0.4-0.1 0-0.1-0.1-0.1-0.3-0.1-0.2-0.1-1-0.1-1.1 0.1-0.1 0.1-0.2 0.2 0z"/>
		<path id="&lt;Path&gt;" class="s0" d="m11.1 8.6c0.1 0.2 0.1 0.6 0 0.8-0.1 0.2-0.2 0-0.3-0.1 0 0-0.1-0.1-0.3-0.2-0.5-0.4-0.6 0.4-0.6 0.8-0.1 0.3 0 1.6-0.4 2.5-0.4 1.1-0.2 1.6-0.2 1.8 0.3 0.5 0.7 0.2 0.8-0.2 0.1-0.2 0.2-0.1 0.2 0q-0.1 0.1-0.1 0.4c-0.2 0.6-0.5 0.8-0.7 0.8-0.4-0.1-0.5-0.6-0.5-0.9 0-1.2 0.8-2.3 0.4-3-0.4-0.8-0.9-1.2-1-1.3-0.1-0.1-0.2 0.1-0.2 0.1 0 0.1-0.1 0.1-0.2 0.1 0 0-0.4-0.3-0.5-0.4-0.2-0.1-0.1-0.5-0.1-0.7 0-0.3 0.1-0.4 0.2-0.4 1.4 0.7 1.9 1.9 2 2.1 0-0.9 0-1.8 0.4-2.5 0.4-0.5 1.1 0.2 1.1 0.3z"/>
		<path id="&lt;Path&gt;" class="s0" d="m15.3 7.6c0.1 0.3 0.5 2 0.7 3.1 0.2 1 0.8 5 0.9 5.5 0.5 2.3 1.8 2.8 1.9 2.8-0.1-0.3-0.6-1.5-0.7-1.9-0.3-1.1 0.1-2 0.7-2.8 0.5-0.7 1.4-0.9 2.3-1.1 1-0.2 2.6 0.6 2.9 0.8 0.3 0.1 0.1 0.2-0.1 0.2-0.1 0-0.6-0.1-1.4-0.2-0.7-0.1-2.3 0.6-3.1 1-0.3 0.1-0.7 0.3-0.7 0.6 0.2 2.5 2.3 3.3 2.7 3.4 1.3 0.2 4.1-2.4 4.2-2.5 0.2-0.1 0.3-0.1 0.2 0.1-0.1 0.2-0.3 0.8-0.4 1-1.1 1.5-3.5 2.6-4 2.8-3.9 1.2-4.7-2.2-5-2.8 0 0-0.1 0.2-0.3 0.7-0.2 0.7-1.1 1.3-1.5 1.6 0 0 1.6 0.3 2.4 0.5 0.8 0.2 0.8 1.2 0.7 1.8-0.3 1.6-3.1 3-3.8 3.3-5.2 2.6-7.3 0.5-7.7 0-2.3-2.3-0.6-6.1-0.1-7-0.4-0.2-0.7-0.9-0.7-1.2-0.2-2.1 0.4-3.8 0.6-4.3 0.1-0.6 0.3-0.3 0.2 0.1 0 0-0.1 0.5-0.2 0.9-0.5 1.9-0.1 2.7 0 2.9 0.5 0.9 1 0.4 1.2-0.3 0.1-0.4 0.2-0.2 0.2 0q0 0.1-0.1 0.6c-0.2 1.1-0.6 1.4-0.9 1.4-0.3 0.5-0.7 1.6-0.8 2.3-0.7 3.6 2.6 4.3 3.4 4.4 3.3 0.5 7.4-2.6 7.8-3 0.5-0.4-0.3-0.6-0.6-0.7-0.2-0.1-2.7-0.5-3.3-0.7-0.6-0.1-0.6-0.3-0.5-0.4 0-0.2 0.1-0.6 0.3-1 0 0 1.8-0.9 2.8-1.6 1-0.7 0.4-2.7 0.3-3.3 0-0.6-0.9-5.8-0.9-6-0.1-0.3 0.2-0.9 0.2-1 0-0.1 0.1-0.3 0.2 0z"/>
		<path id="&lt;Path&gt;" class="s0" d="m51 6.5c0 0.1-0.1 0.1-0.1 0.3-0.1 0.2-0.2 0.3-0.4 0.4-0.2 0.1-5.9 3.4-6 3.5-0.3 0.2-0.3 0-0.3-0.1q0 0 0.1-0.3c0-0.2 0.1-0.2 0.3-0.4 0.3-0.1 5.9-3.4 6.1-3.5 0.4-0.2 0.3-0.1 0.3 0.1z"/>
		<path id="&lt;Path&gt;" class="s0" d="m57.9 6.8c0.1 0.3 0 0.7-0.1 1-0.1 0.2-0.2 0-0.3-0.2 0 0-0.2-0.1-0.3-0.2-0.6-0.5-0.8 0.4-0.9 0.9 0 0.3-0.1 1.4-0.1 2-0.1 0.2-0.2 0.2-0.3 0-0.4-1.3-1.2-1.9-1.3-2-0.1-0.2-0.2 0-0.2 0.1-0.1 0.1-0.1 0.1-0.2 0.1-0.1-0.1-0.5-0.4-0.7-0.5-0.1-0.2 0-0.7 0-0.9 0-0.3 0.2-0.4 0.3-0.4 1.6 0.9 2 2.4 2.1 2.6 0.1-1.1 0.1-2.1 0.7-2.9 0.5-0.6 1.2 0.3 1.3 0.4z"/>
		<path id="&lt;Path&gt;" class="s0" d="m29 6.4c0 0-0.1 0.3-0.2 0.5-0.3 1.1-0.1 1.6-0.1 1.7 0.3 0.5 0.7 0.2 0.9-0.2 0-0.2 0.1 0 0.1 0q0 0.1-0.1 0.4c-0.2 0.6-0.4 0.8-0.7 0.8-0.4 0-0.5-0.6-0.6-0.8 0-1.2 0.5-2.2 0.6-2.5 0.1-0.2 0.2-0.1 0.1 0.1z"/>
		<path id="&lt;Compound Path&gt;" fill-rule="evenodd" class="s0" d="m63.5 9.2c-0.1 0.2-0.1 0.1-0.2-0.1-0.1-0.1-0.3-0.2-0.5-0.4-0.2 0.5-0.2 0.6-1.1 1.4-2.1 1.8-4.4 2.5-4.5 2.5-0.2 0-0.2-0.1 0-0.2 0.7-0.6 3.7-1.9 5.3-3.8 0 0-0.5-0.2-0.9-0.4-0.3-0.3-0.1-1.1 0.1-1.5 0.6-0.9 1.1-0.4 1.2-0.3 0.5 0.9 0.2 1.8 0.2 1.8 0.3 0.1 0.6 0.5 0.4 1zm-1-2.2c-0.1-0.1-0.2-0.1-0.5 0.3-0.1 0.1 0 0.3 0.2 0.4 0.2 0 0.6 0.2 0.6 0.2 0-0.1 0.1-0.6-0.3-0.9z"/>
		<path id="&lt;Path&gt;" class="s0" d="m24 6.2c0.1 0.1 0.1 0.2 0 0.2 0 0.1-0.1 0.3-0.2 0.3q-0.1 0.2-0.2 0.1c-0.1-0.3-0.4-0.2-0.6-0.1-0.2 0.1-0.2 0.3-0.1 0.4 0 0.1 0.4 0.3 0.6 0.4 0.3 0 0.9-0.2 1.2-0.3 0.2-0.1 0.1 0.2 0 0.3 0 0-0.2 0.2-0.3 0.3-1.2 0.2-1.7 0.7-1.8 0.8-0.2 0.1-0.2 0-0.2-0.1 0.1-0.1 0.1-0.1 0.1-0.2q0.1-0.3 0.3-0.3 0 0-0.3-0.3c-0.4-0.4 0.5-1.3 0.8-1.6 0.4-0.3 0.7 0 0.7 0.1z"/>
		<path id="&lt;Path&gt;" class="s0" d="m32.2 6.1c0 0.1 1.4 3.1 1.5 3.3 0 0.2-0.1 0.2-0.2 0.1-0.1-0.1-0.8-0.7-0.8-0.7 0 0 0.7 5.6 0.9 6.9 0.6 3.6 0 4.5-0.3 5.2-1.9 3.5-6.2 3.8-6.8 4-0.7 0.1-0.7-0.1-0.4-0.2 5.2-1.9 6.8-4.1 7.1-5.2 0.2-0.8-1.2-9.9-1.2-9.9-0.1-0.7-0.2-1.4-0.3-1.8 0-0.5-0.1-0.7-0.2-0.8 0 0 0.5-0.9 0.5-1 0.1-0.1 0.1-0.1 0.2 0.1z"/>
		<path id="&lt;Path&gt;" class="s0" d="m35.6 6.1c0 0.1 1.3 3.2 1.4 3.4 0 0.1-0.1 0.2-0.2 0.1-0.1-0.1-0.7-0.7-0.7-0.7 0 0 1.2 8.4 1.2 8.7 0.2 1.6 0.3 2.8 0.3 3.6-0.1 1.1-0.3 1.5-0.4 1.6 0 0.1-0.1 0.1-0.1-0.1 0-0.6-0.2-1.7-0.3-3-0.4-2.6-1.5-10.6-1.7-12 0-0.2-0.1-0.6-0.1-0.6 0 0 0.4-1 0.4-1.1 0.1-0.1 0.1-0.1 0.2 0.1z"/>
		<path id="&lt;Compound Path&gt;" fill-rule="evenodd" class="s0" d="m42.1 8.9c-0.1 0.2-0.1 0.1-0.2-0.1-0.1-0.1-0.5-0.4-0.5-0.4 0 0-0.4 1-1.2 1.6-1.4 1.1-2.6 1.2-2.7 1.3-0.1 0-0.1-0.1 0.1-0.3 0.9-0.5 1.9-0.8 3.5-2.7 0 0-0.5-0.2-0.9-0.4-0.3-0.3-0.1-1.1 0.1-1.5 0.6-0.9 1.1-0.4 1.2-0.3 0.5 0.9 0.2 1.8 0.2 1.8 0.3 0.1 0.6 0.5 0.4 1zm-1-2.2c-0.1-0.1-0.2-0.1-0.5 0.3-0.1 0.1 0 0.3 0.2 0.3 0.2 0.1 0.6 0.3 0.6 0.3 0-0.1 0.1-0.6-0.3-0.9z"/>
		<path id="&lt;Path&gt;" class="s0" d="m18 5.1c-0.1 0.1-0.1 0.2-0.2 0.3-0.1 0.2-0.2 0.3-0.4 0.4-0.2 0.1-5.3 2.1-5.4 2.1-0.3 0.2-0.3 0.1-0.3 0q0.1-0.1 0.1-0.3c0.1-0.2 0.2-0.2 0.4-0.4 0.2-0.1 5.3-2.1 5.5-2.2 0.4-0.2 0.3 0 0.3 0.1z"/>
		<path id="&lt;Path&gt;" class="s0" d="m25.3 4.2c0 0.1 0 0.1-0.1 0.3-0.1 0.2-0.2 0.2-0.4 0.3-0.2 0.2-4.3 1.8-4.4 1.9-0.4 0.2-0.3 0.1-0.3-0.1q0 0 0.1-0.3c0-0.1 0.1-0.2 0.4-0.3 0.2-0.1 4.3-1.8 4.5-1.9 0.4-0.2 0.3-0.1 0.2 0.1z"/>
	</g>
</svg>