<svg version="1.2" xmlns="http://www.w3.org/2000/svg" viewBox="0 0 70 30" width="70" height="30">
	<title>New Project</title>
	<style>
		.s0 { fill: #191c4f } 
	</style>
	<g id="الغاشية">
		<path id="&lt;Path&gt;" class="s0" d="m15.4 22.2l0.9 0.7 0.4-0.7q0.1 0 0.1 0l0.9 0.7q0.1 0 0 0.1l-0.5 0.7q0 0-0.1 0l-0.8-0.6-0.5 0.6q0 0-0.1 0l-0.9-0.7q0 0 0 0l0.5-0.8q0.1 0 0.1 0z"/>
		<path id="&lt;Path&gt;" class="s0" d="m13.1 21.8c0 0.1-0.1 0.1-0.1 0.3-0.1 0.1-0.2 0.2-0.4 0.2-0.1 0.1-3.3 1.4-3.4 1.5-0.3 0.1-0.3 0-0.3-0.1q0.1 0 0.1-0.2c0.1-0.2 0.1-0.2 0.3-0.3 0.2-0.1 3.4-1.4 3.6-1.5 0.3-0.1 0.2 0 0.2 0.1z"/>
		<path id="&lt;Path&gt;" class="s0" d="m25.8 20.7c0 0.1 0 0.1-0.1 0.3-0.1 0.1-0.2 0.1-0.4 0.2-0.1 0.1-3.3 1.4-3.4 1.5-0.3 0.1-0.3 0-0.2-0.1q0 0 0-0.2c0.1-0.2 0.1-0.2 0.3-0.3 0.2-0.1 3.4-1.4 3.6-1.5 0.3-0.1 0.3 0 0.2 0.1z"/>
		<path id="&lt;Path&gt;" class="s0" d="m64.3 19.8c0 0 0 0.2 0 0.4 0 0.2-0.1 0.5-0.2 0.8-0.1 0.3-0.7 0.4-1.1 0.1-0.7 1.1-1.3 0.5-1.6 0.4-0.6-0.2-0.8 0.2-0.9 0.3-0.8 0.9-2.1 0.8-2.5 0.9-0.3 0 0-0.2 0.1-0.3 1.1-0.3 1.8-0.4 2.7-1.3 0.5-0.4 0.7-0.2 0.9-0.2 0.9 0.4 1 0 1.1-0.1 0.2-0.1 0.3-0.6 0.4-0.7 0-0.1 0.1 0 0.1 0.1 0 0.1-0.1 0.3-0.1 0.3 0.4 0.3 0.8 0.1 0.8 0 0 0 0-0.3 0-0.4q0-0.1 0.1-0.5c0.1-0.2 0.2 0 0.2 0.2z"/>
		<path id="&lt;Path&gt;" class="s0" d="m24.8 16.8c0.6 0.8 0.5 1.6 0.5 1.8-0.2 1-0.7 1.2-0.9 1.2-1.2 0-1.5-0.5-1.7-0.7 0 0-0.5 0.8-0.9 0.9-1.2 0.4-1.7-0.5-1.9-0.7-0.6 1-1.8 1.1-2 1.1-1.6 0-1.9-1.1-2.1-1.3-0.6 1.1-1.5 1.4-1.9 1.5-1.6 0.2-2.2-1-2.5-1.5-0.2-0.5-0.6-0.3-0.8-0.3-0.6 0.2-1.3 1.2-1.5 1.5-0.2 0.4-1 2.2-1.1 2.3-0.8 1.1-1.6 0.1-1.8-0.1-1.1-1.5-0.9-3.8-0.8-3.9 0-0.2 0.1-0.2 0.1 0 0 1.9 0.9 3 1.1 3.2 0.7 0.6 1.1 0.2 1.4-0.1 0.2-0.2 0.6-1.6 0.8-2.1 0.3-0.6 0.8-1.3 1.6-1.8 0.8-0.4 1.1 0 1.3 0.3 1.5 2.3 3 1.1 3.4 0.8 0.4-0.3 0.8-1.2 1-1.4 0.2-0.2 0.2 0 0.2 0.2 0 0.2-0.1 0.3-0.1 0.4 0.5 1.6 2.3 1.3 2.6 1.1 1-0.3 1.4-1.3 1.6-1.5 0.2-0.2 0.2 0 0.1 0.2 0 0.1-0.1 0.4-0.1 0.5 0.7 1.1 1.5 0.7 1.8 0.4 0.4-0.3 0.8-1.3 0.9-1.5 0.2-0.3 0.3-0.1 0.2 0.1 0 0.1-0.2 0.6-0.2 0.7 0.5 0.8 1.3 0.7 1.6 0.7 0.2-0.1 0.1-0.3 0.1-0.4 0-0.1-0.3-0.6-0.4-0.8 0 0 0.2-0.7 0.3-0.8 0 0 0-0.1 0.1 0z"/>
		<path id="&lt;Path&gt;" class="s0" d="m22.1 14.5l1 0.7q0 0 0 0l-0.6 0.8q0 0 0 0l-0.9-0.7-0.5 0.7q0 0-0.1 0l-0.9-0.7q0 0 0 0l0.6-0.8q0 0 0 0l0.9 0.7 0.5-0.7q0 0 0 0z"/>
		<path id="&lt;Path&gt;" class="s0" d="m10.7 14.3l1 0.7q0 0 0 0.1l-0.6 0.7q0 0 0 0l-0.9-0.6-0.5 0.6q0 0-0.1 0l-0.9-0.7q0 0 0 0l0.6-0.8q0 0 0 0l0.9 0.7 0.5-0.7q0 0 0 0z"/>
		<path id="&lt;Compound Path&gt;" fill-rule="evenodd" class="s0" d="m47.5 18.5c-0.2 0.9-1.5 1.4-1.8 1.5-1.1 0.4-1.2-0.8-1.1-1.6 0-0.8 0.6-1.9 0.6-1.9 0 0-1.2-1-1.3-1-0.1-0.1-0.2-0.3-0.3-0.3-0.1-0.1-0.1-0.2-0.1-0.2 0 0 0-0.8 0-0.9 0-0.1 0-0.1 0.1 0 0.1 0 1.4 0.5 1.6 0.6 0.1 0.1 0.1 0.2 0 0.2-0.1 0-0.5 0.1-0.5 0.1l1 0.8c0 0 1.5-1.9 1.6-2.1 0.2-0.2 0.2-0.1 0.1 0.1 0 0.2-0.3 1-0.3 1.1-0.1 0.1-0.9 1.2-0.9 1.2 0 0 1 0.6 1.3 0.9 0.4 0.6 0.1 1.2 0 1.5zm-1.8-1.7c0 0-0.7 1.1-0.8 1.4-0.3 0.6 0.4 0.7 0.6 0.7 0.3 0 1.2-0.5 1.6-0.8 0.4-0.3-1.2-1.1-1.4-1.3z"/>
		<path id="&lt;Path&gt;" class="s0" d="m21.1 13l0.9 0.7q0 0 0 0l-0.5 0.8q-0.1 0-0.1 0l-0.9-0.7q-0.1 0 0-0.1l0.5-0.7q0 0 0.1 0z"/>
		<path id="&lt;Compound Path&gt;" fill-rule="evenodd" class="s0" d="m65.6 17.5c0 0.2-0.3 1-1.5 0.8-0.3-0.1-0.9-0.2-1.1-0.9-0.3 0.4-1 1.5-2.4 1.3-0.3 0-1.2-0.4-1.3-1.6 0 0-1.1 0.9-1.6 1.2 0 0.4 0 0.9-0.2 1.5-0.2 0.5-2.6 3.3-4.6 3.7-0.7 0.1-3.2 0.6-3.3-2.2q0-0.9 0.1-1.4c-1.6 1.2-3.5 2.2-4 2.4-0.8 0.4-3.7 0.9-4.2 1-0.3 0.1-0.4 0-0.2-0.2 0.2-0.1 6.6-2.2 9.9-5.7q0.2-0.2 0-0.4c-0.1-0.2-1.1-2.2-1.2-2.5-0.1-0.2-0.3-0.6-0.3-0.6q-0.1-0.2-0.1-0.4c0.1-0.1 0.2-0.6 0.2-0.7 0-0.1 0.1-0.1 0.1 0 0.1 0.1 1.2 1.1 1.3 1.3 0.1 0.1 0 0.2 0 0.2-0.1 0-0.6-0.1-0.6-0.1 0 0 0.7 1.2 0.9 1.6 0.4 1 0.2 1.8 0.1 2.1-0.4 0.6-0.9 1.2-1.6 1.7-0.1 0.5-0.3 2.9 1.9 2.9 0.3 0 1.4 0.2 3.6-1.6 0.5-0.4 1.1-0.9 1.5-1.6 0.2-0.3 0.4-0.8 0-0.7-0.3 0-2.6 0.9-2.9-0.5-0.1-0.4 0.1-3.6 2.3-2 0.2 0.1 0.6 0.5 1 1.2 0.3-0.2 1-0.6 1.9-1.3 0.2-0.2 0.5-0.3 0.5 0-0.1 0.3-0.2 2.2 1.8 1.6 0.2-0.1 1.1-0.2 1.7-1.8 0.2-0.4 0.4-0.4 0.3 0-0.2 0.4-0.4 0.7-0.2 0.9 0.2 0.2 0.8 0.6 1.5 0.5 0.3 0 0.4-0.1 0.3-0.3-0.1-0.2-0.3-0.6-0.3-0.6 0-0.3 0.1-0.7 0.2-0.8 0-0.1 0-0.2 0.1-0.1 0.1 0.1 0.8 0.9 0.4 2.1zm-9.2 0.1c-0.7-1-1.6-0.5-1.7-0.3-0.1 0.1-0.1 0.3 0.6 0.4 0.8 0 1.1-0.1 1.1-0.1z"/>
		<path id="&lt;Path&gt;" class="s0" d="m5.7 13c0 0-0.1 0.4-0.1 0.7-0.5 1.5-0.2 2.2-0.1 2.3 0.3 0.7 0.8 0.3 1-0.2 0.1-0.3 0.1-0.2 0.1 0q0 0.1-0.1 0.4c-0.2 0.9-0.5 1.1-0.7 1.2-0.5-0.1-0.8-0.8-0.8-1.1-0.1-1.7 0.4-3 0.6-3.4 0.1-0.4 0.2-0.3 0.1 0.1z"/>
		<path id="&lt;Path&gt;" class="s0" d="m17.6 12.9c0.1 0.2 0 0.5 0 0.7-0.1 0.1-0.2 0-0.3-0.1 0 0-0.1-0.1-0.2-0.2-0.4-0.3-0.6 0.4-0.6 0.7 0 0.3 0 1.1 0 1.5-0.1 0.2-0.2 0.2-0.2 0.1-0.4-1-1-1.4-1-1.5-0.2-0.1-0.2 0.1-0.2 0.1q-0.1 0.1-0.1 0.1c-0.1-0.1-0.4-0.2-0.5-0.3-0.1-0.1-0.1-0.5-0.1-0.7 0-0.2 0.1-0.3 0.2-0.3 1.2 0.6 1.6 1.7 1.7 1.8 0-0.8-0.1-1.5 0.3-2.1 0.4-0.5 0.9 0.1 1 0.2z"/>
		<path id="&lt;Path&gt;" class="s0" d="m46.3 11.6l0.9 0.7q0 0 0 0.1l-0.5 0.7q0 0-0.1 0l-0.9-0.6-0.4 0.6q-0.1 0-0.1 0l-0.9-0.7q0 0 0 0l0.5-0.8q0 0 0.1 0l0.9 0.7 0.4-0.7q0.1 0 0.1 0z"/>
		<path id="&lt;Path&gt;" class="s0" d="m63.3 11.7c0 0-0.1 0.2-0.1 0.4-0.3 0.8-0.2 1.1-0.1 1.2 0.2 0.4 0.5 0.2 0.6-0.1 0.1-0.2 0.1-0.1 0.1 0q0 0.1-0.1 0.2c-0.1 0.5-0.3 0.6-0.5 0.6-0.3 0-0.4-0.4-0.4-0.6-0.1-0.8 0.3-1.6 0.4-1.8 0.1-0.2 0.2-0.1 0.1 0.1z"/>
		<path id="&lt;Path&gt;" class="s0" d="m54.3 11.2c0 0-0.1 0.3-0.2 0.4-0.3 0.9-0.1 1.3-0.1 1.4 0.3 0.4 0.6 0.2 0.7-0.2 0.1-0.1 0.1 0 0.1 0q0 0.1-0.1 0.3c-0.1 0.5-0.3 0.7-0.5 0.7-0.3-0.1-0.5-0.5-0.5-0.7 0-0.9 0.4-1.7 0.5-2 0-0.2 0.1-0.1 0.1 0.1z"/>
		<path id="&lt;Path&gt;" class="s0" d="m10.4 8.9c0.1 0.2 0.1 0.5 0 0.7 0 0.2-0.2 0-0.2-0.1 0 0-0.2-0.1-0.3-0.1-0.4-0.4-0.5 0.3-0.5 0.6-0.1 0.3-0.1 1.1-0.1 1.5 0 0.2-0.1 0.2-0.2 0.1-0.3-1-0.9-1.4-1-1.5-0.1-0.1-0.2 0.1-0.2 0.1q0 0.1-0.1 0.1c0-0.1-0.4-0.2-0.5-0.3-0.1-0.1-0.1-0.5-0.1-0.7 0-0.2 0.2-0.3 0.3-0.3 1.1 0.6 1.5 1.7 1.6 1.8 0-0.8 0-1.5 0.4-2.1 0.3-0.5 0.9 0.2 0.9 0.2z"/>
		<path id="&lt;Path&gt;" class="s0" d="m21.1 8.7c0 0.1 0 0.2-0.1 0.3-0.1 0.2-0.2 0.3-0.4 0.4-0.2 0.1-8.8 3.8-8.9 3.9-0.4 0.2-0.3 0.1-0.3-0.1q0 0 0.1-0.3c0-0.1 0.1-0.2 0.3-0.3 0.3-0.2 8.8-3.9 9.1-4 0.3-0.1 0.3 0 0.2 0.1z"/>
		<path id="&lt;Path&gt;" class="s0" d="m13.4 8.1c0 0 0 0.3-0.1 0.4-0.3 0.9-0.1 1.3 0 1.4 0.3 0.4 0.6 0.1 0.7-0.2 0.1-0.2 0.1-0.1 0.1 0q0 0.1 0 0.2c-0.2 0.6-0.4 0.7-0.6 0.7-0.4 0-0.5-0.4-0.6-0.6-0.1-0.9 0.3-1.7 0.4-1.9 0.1-0.3 0.2-0.2 0.1 0z"/>
		<path id="&lt;Path&gt;" class="s0" d="m23.5 8.1c0 0-0.1 0.4-0.2 0.7-0.4 1.4-0.2 2-0.1 2.1 0.3 0.7 0.8 0.4 1-0.1 0.1-0.3 0.1-0.2 0.1-0.1q0 0.2-0.1 0.5c-0.2 0.8-0.5 1-0.8 1-0.4 0-0.7-0.7-0.7-1-0.1-1.5 0.5-2.8 0.7-3.2 0.1-0.4 0.2-0.2 0.1 0.1z"/>
		<path id="&lt;Path&gt;" class="s0" d="m41 7.6c0 0.1 1.1 2.8 1.2 2.9 0 0.2-0.1 0.2-0.2 0.1-0.1-0.1-0.6-0.6-0.6-0.6 0 0 1 7.3 1 7.5q0.3 2.1 0.2 3.1c0 0.9-0.2 1.2-0.2 1.3-0.1 0.2-0.2 0.1-0.2 0 0-0.6-0.1-1.5-0.2-2.6-0.3-2.2-1.2-9.1-1.4-10.3 0-0.1-0.1-0.5-0.1-0.5 0 0 0.3-0.8 0.4-0.9 0-0.1 0-0.1 0.1 0z"/>
		<path id="&lt;Path&gt;" class="s0" d="m30.1 14.7c0 0-0.1 0.3-0.2 0.5q0 0 0 0.1 0-0.1 0.1-0.2c0.1-0.2 0.1-0.1 0.1 0.1 0 0-0.1 0.2-0.2 0.4q-0.1 0.5-0.1 0.8 0 0.3 0.1 0.4c0.2 0.3 0.4 0.3 0.6 0.2q0-0.1 0-0.2c0.1-0.1 0.1-0.1 0.1 0q0.1-0.1 0.1-0.2c0.1-0.2 0.2-0.1 0.1 0q0 0.1 0 0.3c-0.1 0.5-0.3 0.7-0.5 0.8q-0.2 0-0.3 0c-0.3 0-0.4-0.3-0.5-0.6q0-0.1 0-0.1c-0.1-1.1 0.3-2.1 0.4-2.3 0.1-0.3 0.2-0.2 0.2 0z"/>
		<path id="&lt;Path&gt;" class="s0" d="m34.7 14.4l0.9 0.6q0 0.1 0 0.1l-0.6 0.7q0 0.1 0 0l-0.9-0.6q-0.1 0 0-0.1l0.5-0.7q0-0.1 0.1 0z"/>
		<path id="&lt;Path&gt;" class="s0" d="m36.6 11.5c0 0-0.1 0.2-0.2 0.4-0.3 0.9-0.1 1.3-0.1 1.3 0.3 0.5 0.6 0.3 0.7-0.1 0.1-0.1 0.1-0.1 0.1 0q0 0.1 0 0.3c-0.2 0.5-0.4 0.6-0.6 0.6-0.3 0-0.5-0.4-0.5-0.6 0-1 0.4-1.8 0.5-2 0.1-0.2 0.1-0.1 0.1 0.1z"/>
		<path id="&lt;Path&gt;" class="s0" d="m37.2 9.4c-0.1 0.1-0.1 0.2-0.2 0.3-0.1 0.2-0.2 0.3-0.4 0.4-0.2 0.1-8.5 4.2-8.6 4.3-0.4 0.2-0.3 0.1-0.3-0.1q0 0 0.1-0.3c0-0.1 0.1-0.2 0.3-0.3 0.3-0.1 8.6-4.3 8.8-4.4 0.4-0.1 0.3 0 0.3 0.1z"/>
		<path id="&lt;Path&gt;" class="s0" d="m31.7 8.1c0.1 0.2 0.1 0.5 0 0.7 0 0.2-0.2 0.1-0.2-0.1 0 0-0.2-0.1-0.3-0.1-0.4-0.4-0.5 0.3-0.5 0.7-0.1 0.2 0 1-0.1 1.4 0 0.2-0.1 0.2-0.2 0.1-0.3-1-0.9-1.4-1-1.5-0.1-0.1-0.2 0.1-0.2 0.1q0 0.1-0.1 0.1c0 0-0.4-0.2-0.5-0.3-0.1-0.1-0.1-0.5-0.1-0.6 0-0.3 0.2-0.4 0.3-0.3 1.1 0.5 1.5 1.6 1.6 1.7 0-0.8 0-1.5 0.4-2.1 0.3-0.5 0.9 0.2 0.9 0.2z"/>
		<path id="&lt;Path&gt;" class="s0" d="m53.5 7.5c-0.1 0.1-0.1 0.1-0.2 0.3 0 0.1-0.1 0.2-0.3 0.3-0.1 0.1-4.9 2.8-4.9 2.9-0.3 0.2-0.3 0-0.3-0.1q0 0 0.1-0.2c0-0.2 0.1-0.2 0.3-0.3 0.2-0.1 4.9-2.9 5-3 0.3-0.1 0.3 0 0.3 0.1z"/>
		<path id="&lt;Path&gt;" class="s0" d="m59.2 7.8c0.1 0.2 0 0.6-0.1 0.8 0 0.1-0.1 0-0.2-0.1 0 0-0.2-0.2-0.3-0.3-0.4-0.4-0.6 0.4-0.7 0.8 0 0.3-0.1 1.2-0.1 1.7-0.1 0.2-0.2 0.2-0.3 0-0.3-1.1-0.9-1.6-1-1.7-0.1-0.1-0.2 0-0.2 0.1-0.1 0.1-0.1 0.1-0.2 0 0 0-0.4-0.2-0.5-0.3-0.1-0.2-0.1-0.6-0.1-0.7 0-0.3 0.2-0.4 0.3-0.4 1.3 0.7 1.7 2 1.8 2.2 0-1 0.1-1.8 0.6-2.4 0.4-0.5 1 0.2 1 0.3z"/>
		<path id="&lt;Compound Path&gt;" fill-rule="evenodd" class="s0" d="m63.9 9.8c-0.1 0.1-0.1 0-0.2-0.1-0.1-0.1-0.2-0.2-0.4-0.3-0.2 0.4-0.2 0.5-1 1.1-1.7 1.5-3.6 2.1-3.7 2.1-0.1 0-0.1-0.1 0-0.2 0.6-0.5 3.1-1.6 4.4-3.1 0 0-0.4-0.2-0.7-0.4-0.2-0.2-0.1-0.9 0.1-1.2 0.5-0.7 0.9-0.4 1-0.2 0.4 0.7 0.2 1.4 0.2 1.4 0.2 0.2 0.4 0.4 0.3 0.9zm-0.8-1.9c-0.1 0-0.3 0-0.5 0.3-0.1 0.1 0 0.2 0.2 0.3 0.1 0.1 0.5 0.2 0.5 0.2 0-0.1 0-0.5-0.2-0.8z"/>
		<path id="&lt;Compound Path&gt;" fill-rule="evenodd" class="s0" d="m39.8 19.8c-0.3 1.4-1.2 1.6-1.5 1.7-1.3 0.4-2.1-0.2-2.4-0.4-0.1-0.1-0.5-0.4-0.8-0.8-0.5 0.3-0.8 0.5-0.8 0.5 0 0-2.7 1.8-5.5 1.1-1.8-0.5-2.1-2.4-2.2-3.3 0-0.2-0.7-8.2-1.3-10.1-0.2-0.5 0-0.6 0.1-0.9 0.1-0.2 0.2-0.6 0.3-0.2 0.6 1.6 1 6 1.2 8.7 0.1 1.2 0.2 2.8 0.8 3.7 1 1.5 3.1 1.2 3.3 1.1 1.2-0.2 2.4-0.7 3.4-1.2q-0.1-0.2-0.1-0.2c-0.6-0.6-1.2-0.8-1.4-0.9 0 0-0.2 0-0.5 0.1q-0.4 0.2-0.4 0.2c-0.2 0-0.2-0.1-0.2-0.2 0 0 0.1-0.4 0.2-0.6q0.1-0.2 0.4-0.4c2.4-1 5.5-0.1 5.7 0 0.2 0.1 0.3 0.3 0.2 0.4 0 0.1-0.3 0.7-0.3 0.7-0.4 0.2-1.3 0.6-2.1 1.1 0.5 0.4 0.9 0.5 1.1 0.6 1 0.3 2.2-0.5 2.4-0.6 0.2-0.2 0-1 0-1.4-0.1-0.5-1.4-7.9-1.4-7.9-0.1-0.6-0.2-1.1-0.2-1.5-0.1-0.4-0.2-0.6-0.2-0.7 0 0 0.4-0.7 0.4-0.8 0.1-0.1 0.1-0.1 0.1 0 0.1 0.1 1.2 2.8 1.2 2.9 0.1 0.2 0 0.2-0.1 0.1-0.1-0.1-0.6-0.6-0.6-0.6l0.8 4.7c0 0 0.4 2.7 0.4 3.1 0.1 0.4 0.2 1.3 0 2zm-3.1-1.4q-1.4-0.2-2.3-0.1 0.5 0.4 0.8 0.7 0 0.1 0.1 0.2c0.7-0.4 1.3-0.7 1.4-0.8z"/>
		<path id="&lt;Compound Path&gt;" fill-rule="evenodd" class="s0" d="m46 9.5c0 0.2 0 0.1-0.1-0.1-0.1 0-0.4-0.3-0.4-0.3 0 0-0.4 0.9-1 1.3-1.2 0.9-2.2 1.1-2.2 1.1-0.2 0-0.2-0.1 0-0.2 0.7-0.4 1.6-0.7 2.9-2.3 0 0-0.4-0.1-0.7-0.3-0.3-0.2-0.1-0.9 0.1-1.2 0.5-0.8 0.9-0.4 1-0.3 0.4 0.7 0.2 1.4 0.2 1.4 0.2 0.2 0.4 0.5 0.2 0.9zm-0.8-1.8c-0.1-0.1-0.2-0.1-0.4 0.2-0.1 0.2 0 0.3 0.1 0.3 0.2 0.1 0.6 0.3 0.6 0.3 0-0.1 0-0.6-0.3-0.8z"/>
	</g>
</svg>