<svg version="1.2" xmlns="http://www.w3.org/2000/svg" viewBox="0 0 70 30" width="70" height="30">
	<title>New Project</title>
	<style>
		.s0 { fill: #191c4f } 
	</style>
	<g id="البلد">
		<path id="&lt;Path&gt;" class="s0" d="m14.5 23.7c0 0.1-0.1 0.1-0.1 0.3-0.1 0.2-0.2 0.2-0.4 0.3-0.2 0.1-3.4 1.4-3.5 1.5-0.4 0.2-0.3 0-0.3-0.1q0 0 0.1-0.3c0-0.1 0.1-0.2 0.4-0.3 0.2-0.1 3.3-1.4 3.6-1.5 0.3-0.2 0.3-0.1 0.2 0.1z"/>
		<path id="&lt;Path&gt;" class="s0" d="m20.7 23.4c0.3 0.2 0.1 0.6 0 0.8-0.4 0.9-1.2 1.4-1.4 1.6-0.2 0.1-0.3 0-0.1-0.1 0 0 0.2-0.2 0.4-0.3 0.7-0.7 0.8-1.1 0.8-1.2 0-0.5-0.4-0.5-0.7-0.3-0.1 0.1-0.1 0-0.1 0q0.1-0.1 0.2-0.2c0.4-0.4 0.7-0.4 0.9-0.3z"/>
		<path id="&lt;Path&gt;" class="s0" d="m29.4 22.8l1.1 0.7q0.1 0.1 0 0.1l-0.6 0.9q0 0-0.1 0l-1.1-0.8q0 0 0-0.1l0.7-0.8q0-0.1 0 0z"/>
		<path id="&lt;Path&gt;" class="s0" d="m35.9 22c0.3 0.2 0.2 0.6 0.1 0.8-0.5 0.9-1.3 1.4-1.5 1.6-0.2 0.1-0.2 0 0-0.2 0 0 0.2-0.1 0.3-0.3 0.8-0.6 0.8-1 0.8-1.1 0.1-0.5-0.3-0.5-0.6-0.3-0.2 0.1-0.2 0-0.1 0q0-0.1 0.2-0.2c0.4-0.4 0.7-0.4 0.8-0.3z"/>
		<path id="&lt;Path&gt;" class="s0" d="m64 20.9c0 0 0 0.3 0 0.5 0 0.3-0.1 0.6-0.2 0.9-0.1 0.4-0.9 0.5-1.3 0.2-0.8 1.2-1.5 0.6-1.9 0.5-0.7-0.3-0.9 0.2-1.1 0.3-0.9 1.1-2.5 1-2.9 1.1-0.4 0-0.1-0.2 0.1-0.3 1.2-0.5 2-0.6 3.2-1.6 0.5-0.5 0.8-0.3 1-0.2 1.1 0.5 1.2 0 1.4-0.1 0.1-0.2 0.3-0.7 0.4-0.9 0.1-0.2 0.2-0.1 0.1 0.1 0 0.1 0 0.3-0.1 0.4 0.5 0.3 0.9 0 1 0 0 0 0-0.4 0-0.5q0-0.1 0.1-0.6c0.1-0.2 0.2 0 0.2 0.2z"/>
		<path id="&lt;Compound Path&gt;" fill-rule="evenodd" class="s0" d="m44 19.4c-0.3 1-1.8 1.6-2.2 1.7-1.3 0.5-1.4-0.9-1.3-1.9 0.1-0.9 0.8-2.2 0.8-2.2-0.1 0-1.5-1.2-1.6-1.3-0.1-0.1-0.3-0.2-0.4-0.3-0.1-0.1-0.1-0.2-0.1-0.2 0 0 0-1 0-1.1 0-0.1 0.1-0.1 0.2 0 0.1 0 1.6 0.6 1.8 0.7 0.2 0.1 0.1 0.2 0 0.3-0.1 0-0.6 0.1-0.6 0.1l1.3 0.9c0 0 1.7-2.3 1.9-2.5 0.2-0.2 0.1-0.1 0.1 0.1 0 0.3-0.4 1.2-0.4 1.4-0.1 0.1-1 1.4-1 1.4 0 0 1.1 0.7 1.4 1.1 0.5 0.7 0.2 1.4 0.1 1.8zm-2.2-2c0 0-0.8 1.3-0.9 1.6-0.3 0.8 0.5 0.9 0.7 0.9 0.3 0 1.4-0.6 1.9-1 0.5-0.4-1.4-1.4-1.7-1.5z"/>
		<path id="&lt;Compound Path&gt;" fill-rule="evenodd" class="s0" d="m65.6 18.1c-0.1 0.3-0.4 1.3-1.8 1-0.3-0.1-1.1-0.2-1.4-1-0.3 0.4-1.1 1.8-2.8 1.6-0.3-0.1-1.5-0.5-1.5-2 0 0-1.4 1.1-2 1.4 0.1 0.6 0 1.1-0.2 1.8-0.2 0.6-3.1 3.9-5.5 4.4-0.8 0.2-3.8 0.8-3.9-2.6q0-1.1 0.1-1.6c-1.9 1.4-4.1 2.5-4.8 2.8-0.9 0.5-4.4 1.1-5 1.2-0.4 0.1-0.5 0-0.2-0.2 0.2-0.1 7.9-2.7 11.8-6.9 0.1-0.1 0.1-0.3 0-0.5-0.1-0.2-1.4-2.6-1.5-2.9-0.1-0.3-0.3-0.7-0.3-0.8q-0.1-0.1-0.1-0.3c0.1-0.2 0.2-0.8 0.2-1 0.1-0.1 0.1 0 0.2 0.1 0.1 0.1 1.3 1.3 1.5 1.5 0.1 0.1 0 0.2-0.1 0.2 0 0-0.6 0-0.6 0 0 0 0.8 1.4 1.1 1.9 0.4 1.1 0.2 2 0 2.4-0.4 0.8-1 1.5-1.8 2.1-0.1 0.6-0.4 3.4 2.2 3.5 0.4 0 1.7 0.1 4.3-2 0.6-0.5 1.3-1.1 1.9-1.9 0.2-0.3 0.3-0.9-0.1-0.8-0.4 0-3.1 1-3.5-0.6-0.1-0.4 0.1-4.3 2.8-2.4 0.2 0.2 0.8 0.6 1.2 1.4 0.4-0.2 1.2-0.7 2.2-1.5 0.3-0.2 0.6-0.4 0.6 0 0 0.3-0.2 2.6 2.2 1.9 0.3-0.1 1.3-0.3 2-2.2 0.3-0.4 0.5-0.4 0.4 0-0.2 0.5-0.5 0.9-0.2 1.1 0.2 0.2 0.9 0.7 1.8 0.6 0.3 0 0.4-0.1 0.3-0.4-0.1-0.2-0.4-0.7-0.4-0.7 0.1-0.3 0.2-0.8 0.2-1 0.1-0.1 0.1-0.2 0.2-0.1 0.1 0.1 0.9 1.2 0.5 2.5zm-11 0.2c-0.9-1.2-1.9-0.6-2-0.4-0.1 0.1-0.2 0.4 0.6 0.5 1 0.1 1.4-0.1 1.4-0.1z"/>
		<path id="&lt;Path&gt;" class="s0" d="m10 14.9c0 0-0.1 0.4-0.2 0.6-0.3 1.2-0.1 1.7 0 1.9 0.4 0.5 0.8 0.2 0.9-0.3 0.1-0.2 0.2-0.1 0.2 0q-0.1 0.1-0.1 0.4c-0.2 0.7-0.5 0.9-0.7 0.9-0.4 0-0.7-0.5-0.7-0.8-0.2-1.3 0.3-2.4 0.4-2.8 0.1-0.3 0.3-0.1 0.2 0.1z"/>
		<path id="&lt;Path&gt;" class="s0" d="m42.5 11.2l1.1 0.8q0.1 0 0 0l-0.6 0.9q0 0.1-0.1 0l-1-0.7-0.6 0.7q0 0.1-0.1 0l-1.1-0.8q0 0 0 0l0.7-0.9q0-0.1 0.1 0l1 0.7 0.6-0.7q0-0.1 0 0z"/>
		<path id="&lt;Path&gt;" class="s0" d="m62.8 11.2c0 0-0.1 0.3-0.1 0.5-0.4 0.9-0.2 1.4-0.1 1.5 0.2 0.4 0.6 0.2 0.7-0.2 0.1-0.1 0.1-0.1 0.1 0q0 0.1 0 0.3c-0.2 0.6-0.5 0.7-0.6 0.7-0.4 0-0.6-0.4-0.6-0.7 0-1 0.4-1.9 0.5-2.1 0.1-0.3 0.2-0.2 0.1 0z"/>
		<path id="&lt;Path&gt;" class="s0" d="m15.7 11.8c0 0-0.1 0.3-0.1 0.5-0.4 1-0.1 1.5-0.1 1.6 0.4 0.5 0.8 0.2 0.9-0.2 0.1-0.2 0.2-0.1 0.1 0q0 0.1 0 0.3c-0.2 0.7-0.5 0.8-0.7 0.8-0.4 0-0.6-0.5-0.7-0.7-0.1-1.1 0.4-2.1 0.5-2.4 0.1-0.3 0.2-0.2 0.1 0.1z"/>
		<path id="&lt;Path&gt;" class="s0" d="m52 10.7c0 0 0 0.3-0.1 0.5-0.4 1-0.2 1.5-0.1 1.6 0.3 0.5 0.6 0.2 0.8-0.2 0-0.2 0.1-0.1 0.1 0q0 0.1-0.1 0.3c-0.2 0.7-0.4 0.8-0.6 0.8-0.4 0-0.6-0.5-0.6-0.8-0.1-1.1 0.4-2 0.5-2.3 0.1-0.3 0.2-0.2 0.1 0.1z"/>
		<path id="&lt;Path&gt;" class="s0" d="m25.4 15.5c0 0-0.1 0.4-0.2 0.6-0.4 1.2-0.1 1.8 0 1.9 0.3 0.6 0.8 0.2 1-0.2 0-0.3 0.1-0.2 0.1-0.1q0 0.2-0.1 0.4c-0.1 0.8-0.5 0.9-0.7 1-0.5 0-0.8-0.6-0.8-0.9-0.2-1.3 0.4-2.4 0.5-2.7 0.1-0.4 0.3-0.2 0.2 0z"/>
		<path id="&lt;Path&gt;" class="s0" d="m31.1 14.4c0 0 0 0.2-0.1 0.4-0.3 0.9-0.2 1.3-0.1 1.4 0.2 0.5 0.6 0.2 0.7-0.1 0.1-0.2 0.1-0.1 0.1 0q0 0.1-0.1 0.3c-0.1 0.5-0.3 0.7-0.5 0.7-0.4-0.1-0.5-0.5-0.5-0.7-0.1-1 0.3-1.9 0.4-2.1 0.1-0.2 0.2-0.1 0.1 0.1z"/>
		<path id="&lt;Path&gt;" class="s0" d="m31.4 10.7c-0.1 0.1-0.1 0.1-0.2 0.3-0.1 0.2-0.2 0.3-0.4 0.4-0.3 0.1-9.8 4.5-10 4.6-0.4 0.2-0.3 0.1-0.3-0.1q0.1 0 0.1-0.3c0.1-0.2 0.2-0.3 0.5-0.4 0.2-0.1 9.7-4.5 10-4.7 0.4-0.1 0.4 0 0.3 0.2z"/>
		<path id="&lt;Path&gt;" class="s0" d="m10.4 7c0.1 0.2 0.1 0.5 0 0.8 0 0.1-0.2 0-0.3-0.1 0 0-0.1-0.1-0.3-0.2-0.5-0.4-0.6 0.4-0.6 0.8-0.1 0.3 0 1.2-0.1 1.8 0 0.2-0.1 0.2-0.2 0-0.4-1.1-1.1-1.6-1.2-1.7-0.2-0.1-0.2 0.1-0.3 0.2 0 0 0 0-0.1 0-0.1 0-0.5-0.2-0.6-0.3-0.1-0.2-0.1-0.6-0.1-0.8 0-0.3 0.2-0.4 0.3-0.4 1.4 0.7 1.9 2 2 2.2 0-1-0.1-1.9 0.4-2.6 0.4-0.6 1.1 0.2 1.1 0.3z"/>
		<path id="&lt;Path&gt;" class="s0" d="m24.9 7c0.1 0.2 0.1 0.5 0 0.8 0 0.1-0.2 0-0.3-0.1 0 0-0.1-0.1-0.3-0.2-0.5-0.4-0.6 0.4-0.6 0.8-0.1 0.3 0 1.2-0.1 1.8 0 0.2-0.1 0.2-0.2 0-0.4-1.1-1.1-1.6-1.2-1.7-0.2-0.1-0.2 0.1-0.3 0.2 0 0 0 0-0.1 0-0.1 0-0.5-0.2-0.6-0.3-0.1-0.2-0.1-0.6-0.1-0.8 0-0.3 0.2-0.4 0.3-0.4 1.4 0.7 1.9 2 2 2.2 0-1-0.1-1.9 0.4-2.6 0.4-0.6 1.1 0.2 1.1 0.3z"/>
		<path id="&lt;Path&gt;" class="s0" d="m28.2 6.3c0 0-0.1 0.3-0.1 0.5-0.4 1.1-0.1 1.5-0.1 1.6 0.4 0.5 0.8 0.2 0.9-0.2 0.1-0.2 0.2-0.1 0.1 0q0 0.1 0 0.3c-0.2 0.7-0.5 0.8-0.7 0.8-0.4 0.1-0.6-0.4-0.7-0.7-0.1-1.1 0.4-2.1 0.5-2.4 0.1-0.2 0.2-0.1 0.1 0.1z"/>
		<path id="&lt;Path&gt;" class="s0" d="m51.1 6.3c-0.1 0.1-0.1 0.1-0.1 0.3-0.1 0.2-0.2 0.2-0.4 0.3-0.2 0.2-5.9 3.4-6 3.5-0.3 0.2-0.3 0.1-0.2 0q0-0.1 0-0.4c0.1-0.1 0.2-0.2 0.4-0.3 0.2-0.2 5.8-3.4 6-3.5 0.4-0.2 0.3-0.1 0.3 0.1z"/>
		<path id="&lt;Path&gt;" class="s0" d="m58 6.6c0.1 0.2 0 0.7-0.1 0.9-0.1 0.2-0.3 0-0.4-0.1 0 0-0.1-0.2-0.2-0.3-0.6-0.4-0.8 0.5-0.9 0.9 0 0.4-0.1 1.4-0.2 2 0 0.3-0.2 0.3-0.3 0.1-0.3-1.3-1.1-2-1.2-2.1-0.1-0.1-0.2 0.1-0.3 0.2 0 0.1-0.1 0-0.1 0-0.1 0-0.5-0.3-0.7-0.5-0.1-0.1-0.1-0.6 0-0.8 0-0.3 0.2-0.5 0.3-0.4 1.5 0.9 2 2.3 2.1 2.6 0.1-1.1 0.1-2.1 0.7-2.9 0.5-0.6 1.2 0.3 1.3 0.4z"/>
		<path id="&lt;Compound Path&gt;" fill-rule="evenodd" class="s0" d="m63.5 9c0 0.1-0.1 0-0.2-0.1-0.1-0.1-0.2-0.3-0.4-0.4-0.3 0.5-0.3 0.6-1.2 1.4-2.1 1.8-4.4 2.4-4.5 2.4-0.1 0.1-0.1 0 0.1-0.2 0.7-0.6 3.7-1.9 5.2-3.7 0 0-0.5-0.2-0.8-0.5-0.4-0.2-0.2-1 0-1.4 0.6-0.9 1.1-0.4 1.2-0.3 0.5 0.9 0.3 1.7 0.3 1.7 0.2 0.2 0.5 0.5 0.3 1.1zm-1-2.3c-0.1 0-0.2 0-0.5 0.4-0.1 0.1 0 0.2 0.2 0.3 0.2 0.1 0.6 0.3 0.6 0.3 0-0.1 0.1-0.6-0.3-1z"/>
		<path id="&lt;Path&gt;" class="s0" d="m32.7 5.8c0 0.1 1.3 3.2 1.3 3.4 0.1 0.2 0 0.2-0.1 0.1-0.1-0.1-0.7-0.6-0.7-0.6 0 0 1.3 6.9 1.4 7.6 0.1 0.7 0.4 2.8 0.4 3.3 0 1.6-1.1 2.2-1.5 2.4-2.4 0.8-2.8-1-3.1-1.8-3.1 2.2-5.1 2.6-5.9 2.7-4.1 0.6-5.2-2.1-5.2-2.1 0 0.9-0.4 1.3-0.6 1.5-1.3 1.2-2.6 0.7-3 0.6-2.1-0.8-2.2-3.5-2.2-3.5 0 0.9-0.7 1.6-0.9 1.9-3.1 3.3-5.6 3.3-6.1 3.2-2.9-0.5-0.7-6-0.4-6.6q0.1-0.1 0.1-0.1c-0.3-0.3-0.5-0.8-0.5-1.1-0.2-2.1 0.4-3.8 0.6-4.3 0.1-0.5 0.3-0.3 0.2 0.1 0 0-0.1 0.5-0.2 0.9-0.5 1.9-0.1 2.7 0 2.9 0.5 0.9 1 0.4 1.2-0.3 0.1-0.4 0.2-0.2 0.2 0q0 0.1-0.1 0.5c-0.2 1.2-0.6 1.5-0.9 1.5q-0.2 0-0.3-0.1 0 0.1-0.1 0.3c-1.2 3.2-0.6 4.1-0.6 4.3 0.7 1.3 2.1 0.6 2.5 0.5 1.9-0.6 4.5-3.2 4.8-3.6 0.4-0.5 0.3-0.8 0.3-0.9-0.4-2.5-2.4-6-2.6-6.3 0 0 0.1-1 0.1-1.2 0.1-0.7 1.9 2.2 2.8 5 0.3 1.1 0.4 3 0.7 3.8 0.3 1.2 0.9 1.5 1.5 1.8 1.3 0.6 2.5-0.3 2.9-0.7 0.3-0.3-0.2-2.9-0.3-3.6-0.1-0.7-1.2-8.4-1.3-8.9-0.1-0.4 0.3-1.2 0.4-1.4 0.1-0.2 0.1-0.1 0.2 0.3 0.1 0.4 1.6 10.5 1.8 11.1 0.6 3.6 3.9 3.3 4.4 3.2 2.9 0 6.9-2.8 7.1-3 0.1-0.1 0.2 0 0.1 0.2 0 0.2 0 0.6 0 0.9 0.2 0.8 0.7 1 0.8 1.1 1.1 0.4 2.2-0.3 2.4-0.5 0.2-0.2 0.1-0.7 0-1.1-0.1-0.3-2-11.1-2-11.6-0.1-0.5-0.2-0.7-0.2-0.8 0 0 0.4-0.9 0.5-1 0-0.2 0.1-0.1 0.1 0z"/>
		<path id="&lt;Path&gt;" class="s0" d="m35.8 5.8c0 0.1 1.3 3.3 1.4 3.5 0 0.2-0.1 0.2-0.2 0.1-0.1-0.1-0.7-0.7-0.7-0.7 0 0 1.1 8.6 1.2 8.9 0.2 1.7 0.3 2.9 0.2 3.7 0 1.1-0.2 1.5-0.3 1.6-0.1 0.2-0.2 0.1-0.1-0.1-0.1-0.6-0.2-1.8-0.3-3-0.4-2.6-1.5-10.9-1.7-12.3 0-0.2-0.1-0.6-0.1-0.6 0 0 0.4-1 0.4-1.1 0.1-0.2 0.1-0.1 0.2 0z"/>
		<path id="&lt;Compound Path&gt;" fill-rule="evenodd" class="s0" d="m42.2 8.7c0 0.1-0.1 0-0.2-0.1 0-0.1-0.4-0.4-0.4-0.4 0 0-0.5 1-1.2 1.5-1.4 1.1-2.6 1.3-2.7 1.3-0.1 0-0.2-0.1 0.1-0.2 0.9-0.5 1.9-0.9 3.4-2.7 0 0-0.5-0.2-0.8-0.5-0.3-0.2-0.2-1.1 0.1-1.4 0.6-0.9 1.1-0.5 1.2-0.3 0.5 0.9 0.2 1.7 0.2 1.7 0.3 0.2 0.5 0.5 0.3 1.1zm-0.9-2.3c-0.1 0-0.3 0-0.6 0.4-0.1 0.1 0 0.2 0.2 0.3 0.2 0.1 0.6 0.3 0.6 0.3 0.1-0.1 0.1-0.6-0.2-1z"/>
		<path id="&lt;Path&gt;" class="s0" d="m21 4.2c-0.1 0.1-0.1 0.2-0.2 0.4-0.1 0.2-0.2 0.3-0.4 0.4-0.1 0.1-5.6 2.4-6.3 2.9-0.8 0.5-0.7 0.7-0.5 0.8 0.5 0.1 0.8 0.5 0.5 1.1 0 0-0.1 0.1-0.1 0-0.1-0.1-0.2-0.2-0.5-0.3-0.4 0-0.5-0.6-0.4-1.2 0.1-0.4 0.3-0.8 0.6-1 0.6-0.5 6.8-3.1 7-3.2 0.4-0.2 0.3-0.1 0.3 0.1z"/>
	</g>
</svg>