<svg version="1.2" xmlns="http://www.w3.org/2000/svg" viewBox="0 0 70 30" width="70" height="30">
	<title>New Project</title>
	<style>
		.s0 { fill: #191c4f } 
	</style>
	<g id="الليل">
		<path id="&lt;Path&gt;" class="s0" d="m23.1 26.8l1.2 0.9q0 0 0 0.1l-0.7 1q-0.1 0-0.1 0l-1.2-0.9-0.6 0.9q0 0-0.1 0l-1.2-0.9q-0.1 0 0-0.1l0.7-1q0 0 0.1 0l1.2 0.9 0.6-0.9q0 0 0.1 0z"/>
		<path id="&lt;Path&gt;" class="s0" d="m16.7 25.8c-0.1 0.1-0.1 0.2-0.2 0.3-0.1 0.2-0.2 0.2-0.4 0.3-0.1 0.2-5 2.1-5.1 2.1-0.3 0.2-0.3 0.1-0.2 0q0-0.1 0-0.3c0.1-0.2 0.2-0.2 0.4-0.4 0.2-0.1 5-2 5.2-2.1 0.4-0.1 0.3 0 0.3 0.1z"/>
		<path id="&lt;Path&gt;" class="s0" d="m63.8 22.4c0 0 0 0.4 0 0.6 0 0.3-0.1 0.7-0.3 1-0.1 0.4-0.9 0.6-1.4 0.2-0.9 1.4-1.7 0.7-2.1 0.5-0.8-0.3-1 0.3-1.2 0.5-1 1.1-2.8 1.1-3.3 1.1-0.4 0 0-0.2 0.1-0.3 1.5-0.5 2.4-0.6 3.6-1.8 0.6-0.6 1-0.3 1.2-0.2 1.2 0.5 1.3 0 1.5-0.2 0.1-0.1 0.4-0.8 0.4-0.9 0.1-0.2 0.3-0.1 0.2 0.1 0 0.1-0.1 0.3-0.1 0.4 0.5 0.4 1 0.1 1.1 0 0 0 0-0.4-0.1-0.5q0-0.2 0.2-0.7c0.1-0.3 0.2 0 0.2 0.2z"/>
		<path id="&lt;Compound Path&gt;" fill-rule="evenodd" class="s0" d="m41.6 20.8c-0.4 1.1-2.1 1.8-2.5 1.9-1.5 0.5-1.6-1-1.5-2.1 0.1-1.1 0.9-2.5 0.9-2.5-0.1-0.1-1.7-1.3-1.8-1.4-0.1-0.2-0.2-0.3-0.4-0.4-0.1-0.1-0.1-0.2-0.1-0.2 0 0 0-1.1 0-1.3 0-0.1 0.1 0 0.2 0 0.1 0.1 1.8 0.8 2 0.9 0.2 0 0.1 0.2 0 0.2-0.1 0-0.6 0.2-0.6 0.2l1.4 1c0 0 1.9-2.6 2.1-2.8 0.2-0.3 0.2-0.1 0.2 0.1-0.1 0.3-0.5 1.4-0.5 1.5-0.1 0.2-1.1 1.6-1.1 1.6 0 0 1.3 0.8 1.6 1.3 0.5 0.7 0.2 1.5 0.1 2zm-2.5-2.3c0 0-0.9 1.5-1 1.8-0.4 0.9 0.5 1 0.8 1 0.4 0 1.5-0.6 2.1-1.1 0.5-0.5-1.6-1.5-1.9-1.7z"/>
		<path id="&lt;Compound Path&gt;" fill-rule="evenodd" class="s0" d="m65.6 19.4c-0.1 0.2-0.4 1.3-2 1-0.4-0.1-1.2-0.2-1.5-1.1-0.4 0.5-1.3 2-3.2 1.7-0.4 0-1.6-0.5-1.7-2.1 0 0-1.5 1.2-2.2 1.6 0.1 0.5 0.1 1.2-0.2 1.9-0.3 0.8-3.5 4.4-6.1 5-0.9 0.2-4.2 0.8-4.4-3 0-0.7 0.1-1.3 0.1-1.8-2 1.7-4.5 2.9-5.3 3.2-1 0.6-4.9 1.2-5.5 1.3-0.5 0.1-0.6 0-0.3-0.2 0.3-0.1 8.8-3 13.2-7.7q0.1-0.2-0.1-0.5c-0.1-0.3-1.5-2.9-1.6-3.3-0.1-0.3-0.3-0.7-0.4-0.9q-0.1-0.2 0-0.4c0-0.1 0.1-0.8 0.2-1 0-0.2 0.1-0.1 0.2 0 0.1 0.1 1.4 1.5 1.6 1.7 0.2 0.2 0 0.3 0 0.3-0.1 0-0.7-0.1-0.7-0.1 0 0 0.9 1.6 1.1 2.2 0.6 1.3 0.3 2.3 0.1 2.7-0.4 0.8-1.2 1.6-2 2.3-0.2 0.7-0.4 3.8 2.4 3.9 0.5 0 1.9 0.2 4.8-2.2 0.7-0.6 1.5-1.2 2.1-2.1 0.3-0.4 0.4-1-0.1-1-0.4 0.1-3.4 1.2-3.9-0.6 0-0.5 0.2-4.8 3.1-2.7 0.3 0.2 0.9 0.7 1.3 1.6 0.5-0.2 1.4-0.8 2.6-1.7 0.3-0.3 0.6-0.4 0.6 0 0 0.4-0.2 2.9 2.5 2.1 0.3 0 1.4-0.3 2.2-2.4 0.3-0.5 0.6-0.5 0.4 0-0.2 0.5-0.5 1-0.2 1.2 0.2 0.3 1 0.8 2 0.7 0.3 0 0.5-0.2 0.4-0.5-0.2-0.2-0.5-0.8-0.5-0.8 0.1-0.3 0.2-0.9 0.3-1 0-0.2 0.1-0.3 0.2-0.2 0.1 0.2 1 1.3 0.5 2.9zm-12.2 0.1c-1-1.3-2.1-0.6-2.3-0.4-0.1 0.1-0.2 0.5 0.7 0.5 1.2 0.1 1.6-0.1 1.6-0.1z"/>
		<path id="&lt;Path&gt;" class="s0" d="m11.2 16.8c0 0-0.1 0.5-0.3 0.7-0.5 1.5-0.2 2.1-0.1 2.3 0.4 0.7 1 0.3 1.2-0.2 0.1-0.3 0.2-0.2 0.2 0q0 0.1-0.1 0.4c-0.3 0.9-0.7 1.1-1 1.1-0.6 0-0.8-0.7-0.9-1.1-0.1-1.5 0.6-2.9 0.8-3.3 0.2-0.3 0.3-0.2 0.2 0.1z"/>
		<path id="&lt;Path&gt;" class="s0" d="m39.9 11.6l1.2 0.8q0.1 0.1 0.1 0.1l-0.8 1q0 0.1 0 0l-1.2-0.8-0.6 0.8q-0.1 0.1-0.1 0l-1.2-0.9q-0.1 0 0 0l0.7-1q0-0.1 0.1 0l1.1 0.8 0.6-0.8q0.1-0.1 0.1 0z"/>
		<path id="&lt;Path&gt;" class="s0" d="m62.5 11.6c0 0-0.1 0.3-0.2 0.5-0.3 1.1-0.1 1.6-0.1 1.7 0.3 0.5 0.7 0.2 0.8-0.2 0.1-0.2 0.2-0.1 0.2 0q-0.1 0.1-0.1 0.4c-0.2 0.6-0.5 0.8-0.7 0.8-0.4 0-0.6-0.6-0.6-0.8 0-1.2 0.4-2.2 0.6-2.5 0.1-0.2 0.2-0.1 0.1 0.1z"/>
		<path id="&lt;Path&gt;" class="s0" d="m50.5 11c0 0-0.1 0.3-0.2 0.6-0.4 1.1-0.2 1.6-0.1 1.7 0.3 0.6 0.7 0.3 0.9-0.1 0.1-0.2 0.1-0.1 0.1 0q0 0.1-0.1 0.3c-0.2 0.7-0.4 0.9-0.7 0.9-0.4 0-0.6-0.6-0.6-0.9-0.1-1.2 0.4-2.3 0.6-2.6 0.1-0.3 0.2-0.2 0.1 0.1z"/>
		<path id="&lt;Path&gt;" class="s0" d="m6.6 8.7c0 0-0.1 0.3-0.2 0.5-0.3 1-0.1 1.4-0.1 1.5 0.3 0.6 0.7 0.3 0.8-0.1 0.1-0.2 0.1-0.1 0.1 0q0 0.1 0 0.3c-0.2 0.6-0.5 0.8-0.7 0.8-0.4 0-0.5-0.5-0.5-0.8-0.1-1.1 0.3-2 0.5-2.3 0.1-0.3 0.2-0.2 0.1 0.1z"/>
		<path id="&lt;Path&gt;" class="s0" d="m22.3 16.5c0.7 0.1 0.5 0.4 0.4 0.6-0.5 0.8-1.2 1.2-1.8 1.4-0.5 0.2-0.2-0.2 0.1-0.4 0 0 0.3-0.2 0.7-0.5 0.5-0.4-0.7-0.3-1.2-0.3-0.5 0-0.7 0.2-0.8 0.3-0.2 0.2-0.4 0.1-0.2-0.1 0.1-0.2 0.2-0.5 0.6-0.9 0.3-0.4 1.5-0.2 2.2-0.1z"/>
		<path id="&lt;Path&gt;" class="s0" d="m21.7 9.9c0.1 0.2 0.1 0.6 0.1 0.9-0.1 0.2-0.3 0.1-0.4-0.1 0 0-0.1-0.1-0.3-0.2-0.6-0.4-0.6 0.6-0.6 1 0 0.3 0.1 1.4 0.2 2 0 0.3-0.2 0.3-0.3 0.1-0.5-1.2-1.3-1.7-1.4-1.8-0.2-0.2-0.2 0-0.3 0.1 0 0.1 0 0.1-0.1 0.1-0.1 0-0.5-0.2-0.6-0.4-0.2-0.1-0.2-0.6-0.2-0.8-0.1-0.3 0.1-0.5 0.2-0.5 1.5 0.7 2.2 2.1 2.3 2.3-0.1-1.1-0.2-2.1 0.2-2.9 0.3-0.7 1.1 0.1 1.2 0.2z"/>
		<path id="&lt;Path&gt;" class="s0" d="m6.6 12.8c0 0-0.2 0.7-0.3 1.1-0.8 2.2-0.4 3.3-0.3 3.5 0.5 1.1 1.2 0.6 1.5-0.3 0.1-0.4 0.3-0.2 0.2 0 0 0.1-0.1 0.4-0.1 0.7-0.4 1.4-0.9 1.7-1.3 1.7q-0.1 0-0.1-0.1c0-0.2-0.2-0.3-0.3-0.1-0.4-0.4-0.6-1.1-0.6-1.6-0.1-2.4 0.8-4.4 1.1-5 0.2-0.6 0.4-0.3 0.2 0.1z"/>
		<path id="&lt;Path&gt;" class="s0" d="m28.9 6.2c0 0.1 1.5 3.7 1.5 3.9 0.1 0.2 0 0.2-0.1 0.1-0.2-0.1-0.9-0.8-0.9-0.8 0 0 1.3 8.1 1.4 8.9 0.1 0.8 0.4 2.8 0.4 3.4 0 2.6-1.1 2.8-1.7 2.9-1.9 0.3-2.6-0.9-3.2-1.6-0.4 2.2-2 2.3-2.5 2.3-1.3 0-1.8-0.9-2.1-1.6-1.2 2-2.4 2-2.9 1.9-2.8-0.1-3.2-3.9-3.2-4 0-0.1-0.1-0.5-0.1-0.2-0.2 1.9-2.5 3.4-3 3.8-3.8 2.8-6 1.1-6.4 0.6-2-2-0.7-5.7-0.4-6.3q0.1-0.2 0.2-0.2 0.1 0.1 0.3 0.1 0 0.2-0.1 0.3c-1.3 4.2 0.7 5.2 1.4 5.4 2.5 1 5.9-2 6.9-2.9 1-0.9 0.8-2.2 0.7-3-0.1-0.8-1.4-9.8-1.6-10.8-0.1-1 0.1-1.4 0.2-1.7 0.2-0.3 0.4-0.6 0.5-0.2 0.1 0.4 0.7 4.5 0.9 5.9 0.2 1.4 1.1 8.5 1.3 9.3 0.6 2.2 1.8 2.3 2.2 2.4 1.9 0.4 3.1-2 3.3-2.4 0.3-0.4 0.5-0.1 0.4 0.2-0.2 1 0.3 1.5 0.7 1.7 1.1 0.5 2.2 0 2.6-0.4 0.4-0.4 0-3.1-0.1-3.8-0.1-0.7-1.3-9-1.4-10.1-0.1-1 0.4-1.6 0.4-1.7q0.1-0.3 0.2 0.1c0.2 0.7 0.6 3.9 0.6 3.9 0 0 0.8 6.6 0.9 7.2 0.4 3.1 1.3 3.8 1.6 3.9 1.4 1 2.7 0 2.8-0.1 0.1-0.1-0.8-5.4-0.8-5.7-0.4-3.1-1.3-8.1-1.4-8.6-0.1-0.6-0.2-0.7-0.2-0.8 0 0 0.5-1.2 0.5-1.4 0.1-0.1 0.1 0 0.2 0.1z"/>
		<path id="&lt;Path&gt;" class="s0" d="m32.4 6.2c0 0.1 1.5 3.7 1.6 3.9 0 0.2-0.1 0.2-0.2 0.1-0.2-0.1-0.9-0.8-0.9-0.8 0 0 1.4 9.7 1.4 9.9 0.2 1.9 0.3 3.3 0.3 4.2-0.1 1.2-0.3 1.7-0.4 1.8-0.1 0.2-0.2 0.1-0.1-0.1-0.1-0.7-0.1-2-0.3-3.4-0.4-2.9-1.7-12.2-1.9-13.7 0-0.2-0.2-0.7-0.2-0.7 0 0 0.5-1.1 0.5-1.3 0.1-0.1 0.1 0 0.2 0.1z"/>
		<path id="&lt;Path&gt;" class="s0" d="m49.4 6.1c0 0.1 0 0.1-0.1 0.3-0.1 0.3-0.2 0.3-0.4 0.4-0.2 0.2-6.5 3.8-6.6 3.9-0.4 0.2-0.4 0.1-0.3-0.1q0 0 0-0.3c0.1-0.2 0.2-0.2 0.4-0.4 0.3-0.2 6.5-3.8 6.8-3.9 0.3-0.2 0.3-0.1 0.2 0.1z"/>
		<path id="&lt;Path&gt;" class="s0" d="m57.1 6.5c0.1 0.2 0 0.7-0.1 1-0.1 0.2-0.3 0-0.4-0.2 0 0-0.2-0.1-0.3-0.2-0.6-0.6-0.9 0.5-0.9 1-0.1 0.3-0.2 1.5-0.3 2.2 0 0.3-0.2 0.2-0.3 0-0.4-1.4-1.2-2.1-1.4-2.3-0.1-0.1-0.2 0.1-0.2 0.2-0.1 0.1-0.1 0.1-0.2 0.1-0.1-0.1-0.6-0.4-0.7-0.6-0.2-0.1-0.1-0.7-0.1-0.9 0-0.4 0.3-0.5 0.4-0.5 1.7 1 2.2 2.7 2.3 2.9 0.1-1.2 0.1-2.3 0.8-3.2 0.5-0.7 1.3 0.3 1.4 0.5z"/>
		<path id="&lt;Compound Path&gt;" fill-rule="evenodd" class="s0" d="m63.3 9.1c-0.1 0.2-0.2 0.1-0.3-0.1-0.1-0.1-0.2-0.3-0.5-0.4-0.2 0.5-0.2 0.6-1.3 1.5-2.3 2-4.8 2.7-4.9 2.8-0.2 0-0.2-0.1 0-0.3 0.8-0.6 4.1-2.1 5.8-4.2 0 0-0.5-0.2-0.9-0.5-0.3-0.2-0.2-1.2 0.1-1.5 0.7-1.1 1.2-0.5 1.3-0.4 0.6 1 0.3 1.9 0.3 1.9 0.3 0.2 0.6 0.6 0.4 1.2zm-1.1-2.5c-0.1-0.1-0.3-0.1-0.6 0.4-0.1 0.1 0 0.3 0.2 0.4 0.2 0.1 0.7 0.3 0.7 0.3 0-0.1 0.1-0.7-0.3-1.1z"/>
		<path id="&lt;Path&gt;" class="s0" d="m11.8 6c0.1 0.2 0.1 0.7 0 0.9-0.1 0.2-0.2 0-0.4-0.1 0 0-0.1-0.1-0.2-0.2-0.6-0.5-0.8 0.5-0.8 0.9 0 0.3 0 1.9-0.4 2.9-0.5 1.2-0.3 1.8-0.2 1.9 0.3 0.7 0.7 0.4 0.9-0.1 0.1-0.2 0.1-0.1 0.1 0q0 0.1-0.1 0.4c-0.2 0.7-0.5 0.9-0.7 0.9-0.5 0-0.6-0.7-0.6-1-0.1-1.4 0.9-2.7 0.5-3.4-0.5-1-1.1-1.4-1.2-1.5-0.1-0.1-0.2 0.1-0.2 0.2 0 0-0.1 0-0.2 0-0.1 0-0.5-0.3-0.6-0.4-0.2-0.1-0.2-0.6-0.2-0.8 0-0.4 0.2-0.5 0.3-0.4 1.6 0.7 2.1 2.1 2.2 2.3 0.1-1 0-2 0.6-2.8 0.4-0.6 1.1 0.2 1.2 0.3z"/>
		<path id="&lt;Compound Path&gt;" fill-rule="evenodd" class="s0" d="m39.6 8.8c-0.1 0.1-0.1 0-0.3-0.1 0-0.1-0.4-0.5-0.4-0.5 0 0-0.5 1.1-1.4 1.8-1.5 1.2-2.9 1.4-2.9 1.4-0.2 0-0.2-0.1 0-0.3 1-0.5 2.2-0.9 3.8-3 0 0-0.5-0.2-0.8-0.5-0.4-0.3-0.2-1.2 0-1.6 0.7-1 1.3-0.5 1.3-0.3 0.6 0.9 0.3 1.9 0.3 1.9 0.3 0.2 0.6 0.6 0.4 1.2zm-1.1-2.5c-0.1-0.1-0.3-0.1-0.6 0.4-0.1 0.1 0 0.2 0.2 0.3 0.2 0.1 0.7 0.4 0.7 0.4 0-0.2 0.1-0.8-0.3-1.1z"/>
		<path id="&lt;Path&gt;" class="s0" d="m25.1 3.6c0 0 0.1 0.5 0.3 0.8 0.2 0.3 0.3 0.6 0.2 1-0.1 0.5-0.3 0.8-0.5 0.8-0.3 0.1-0.7 0.1-1-0.3-0.4 0.7-0.9 0.9-1.3 0.7-0.3-0.1-0.3-0.7-0.3-0.9 0-0.2 0-0.8 0-1-0.1-0.1 0-0.2 0.1-0.3 0.1-0.2 0.1-0.1 0.1 0.1 0 0.1-0.1 1 0.1 1.3 0.3 0.4 1 0 1.1-0.2 0.2-0.3-0.1-1.2-0.2-1.2q0-0.1 0-0.1c0-0.1 0.1-0.4 0.1-0.5q0.1-0.2 0.2 0c0.1 0.1 0.1 0.4 0.2 1.2 0.1 0.8 0.9 0.6 1 0.5 0.2 0 0.2-0.1 0.1-0.2 0-0.1-0.3-0.8-0.4-1.1-0.1-0.3-0.1-0.4 0-0.7 0.1-0.3 0.2-0.1 0.2 0.1z"/>
		<path id="&lt;Path&gt;" class="s0" d="m26.6 1.2c-0.1 0.2-0.1 0.2-0.2 0.4-0.1 0.2-0.2 0.3-0.5 0.4-0.1 0.1-7.5 3.3-8.3 3.7-0.8 0.4-0.7 0.7-0.5 0.8 0.5 0.2 0.8 0.6 0.4 1.2 0 0 0 0.1-0.1 0 0-0.1-0.2-0.3-0.5-0.3-0.3-0.1-0.5-0.7-0.3-1.3 0.1-0.4 0.4-0.8 0.7-1 0.6-0.5 8.8-3.9 9-4 0.4-0.2 0.3 0 0.3 0.1z"/>
	</g>
</svg>