<svg version="1.2" xmlns="http://www.w3.org/2000/svg" viewBox="0 0 70 30" width="70" height="30">
	<title>New Project</title>
	<style>
		.s0 { fill: #191c4f } 
	</style>
	<g id="الضحى">
		<path id="&lt;Path&gt;" class="s0" d="m18.8 22.5c0.3 0.1 0.3 0.6 0.2 0.8-0.3 0.9-1 1.5-1.2 1.7-0.2 0.2-0.2 0-0.1-0.1 0 0 0.2-0.2 0.3-0.4 0.6-0.6 0.6-1.1 0.6-1.2 0-0.5-0.4-0.4-0.6-0.2-0.2 0.2-0.2 0.1-0.1 0q0-0.1 0.1-0.2c0.4-0.4 0.6-0.5 0.8-0.4z"/>
		<path id="&lt;Path&gt;" class="s0" d="m26.6 22.5c0.3 0.1 0.3 0.6 0.2 0.8-0.3 0.9-1 1.5-1.2 1.7-0.2 0.2-0.2 0-0.1-0.1 0 0 0.2-0.2 0.3-0.4 0.7-0.6 0.7-1.1 0.7-1.2-0.1-0.5-0.5-0.4-0.7-0.2-0.1 0.2-0.2 0.1-0.1 0q0-0.1 0.2-0.2c0.3-0.4 0.6-0.5 0.7-0.4z"/>
		<path id="&lt;Path&gt;" class="s0" d="m35.4 21.3c0.3 0.1 0.3 0.6 0.2 0.8-0.3 0.9-1 1.5-1.2 1.7-0.2 0.1-0.2 0-0.1-0.1 0 0 0.2-0.3 0.3-0.4 0.7-0.7 0.7-1.1 0.7-1.2-0.1-0.5-0.5-0.4-0.7-0.2-0.1 0.2-0.2 0-0.1 0q0-0.1 0.1-0.2c0.4-0.5 0.7-0.5 0.8-0.4z"/>
		<path id="&lt;Path&gt;" class="s0" d="m64 19.8c0 0 0.1 0.3 0.1 0.6 0 0.2-0.2 0.5-0.3 0.8-0.1 0.4-0.8 0.5-1.2 0.2-0.8 1.2-1.5 0.6-1.9 0.4-0.7-0.2-0.9 0.2-1.1 0.4-0.8 1-2.4 1-2.8 1-0.4 0 0-0.2 0.1-0.3 1.3-0.4 2-0.5 3.2-1.5 0.4-0.5 0.8-0.3 0.9-0.2 1.1 0.4 1.2 0 1.4-0.2 0.1-0.1 0.3-0.6 0.4-0.8 0.1-0.2 0.2 0 0.1 0.1 0 0.1-0.1 0.3-0.1 0.4 0.4 0.3 0.9 0 1 0 0 0-0.1-0.4-0.1-0.5q0-0.1 0.2-0.5c0.1-0.3 0.1-0.1 0.1 0.1z"/>
		<path id="&lt;Compound Path&gt;" fill-rule="evenodd" class="s0" d="m44.6 18.4c-0.3 1-1.8 1.6-2.1 1.7-1.3 0.4-1.4-0.9-1.3-1.9 0.1-0.9 0.7-2.1 0.7-2.1 0-0.1-1.4-1.2-1.5-1.3-0.1-0.1-0.3-0.3-0.4-0.3-0.1-0.1-0.1-0.2-0.1-0.2 0 0 0-1 0-1.1 0-0.1 0.1 0 0.2 0 0.1 0 1.6 0.6 1.8 0.7 0.1 0.1 0.1 0.2 0 0.2-0.1 0.1-0.6 0.2-0.6 0.2l1.2 0.9c0 0 1.7-2.3 1.9-2.5 0.2-0.2 0.2-0.1 0.1 0.2 0 0.2-0.3 1.1-0.4 1.3-0.1 0.1-1 1.3-1 1.3 0 0 1.2 0.7 1.4 1.1 0.5 0.7 0.2 1.4 0.1 1.8zm-2.1-2c0 0-0.8 1.3-0.9 1.5-0.3 0.8 0.4 1 0.7 0.9 0.3 0 1.3-0.5 1.8-0.9 0.5-0.4-1.3-1.3-1.6-1.5z"/>
		<path id="&lt;Path&gt;" class="s0" d="m9 16.7c2.1 2.5 1.3 5.7 1 6 0 0.2-0.1 0.2-0.1-0.1 0.4-3.1-1.3-5.1-1.4-5.4 0 0 0.1-0.5 0.2-0.6 0.1-0.1 0.1-0.2 0.3 0.1z"/>
		<path id="&lt;Path&gt;" class="s0" d="m27.2 13l1 0.8q0.1 0 0 0.1l-0.6 0.8q0 0.1-0.1 0.1l-1-0.8q-0.1 0 0-0.1l0.6-0.8q0-0.1 0.1-0.1z"/>
		<path id="&lt;Compound Path&gt;" fill-rule="evenodd" class="s0" d="m65.6 17.2c-0.1 0.2-0.3 1.1-1.7 0.9-0.4-0.1-1.1-0.2-1.4-1-0.3 0.4-1.1 1.8-2.7 1.5-0.3 0-1.5-0.5-1.5-1.9 0 0-1.3 1.1-1.9 1.4 0 0.5 0 1.1-0.2 1.7-0.3 0.7-3.1 3.8-5.4 4.3-0.7 0.2-3.7 0.7-3.8-2.5 0-0.7 0.1-1.2 0.1-1.6-1.8 1.4-4 2.5-4.6 2.8-1 0.4-4.3 1-4.9 1.1-0.4 0.1-0.4 0-0.2-0.2 0.2-0.1 7.6-2.6 11.5-6.6q0.2-0.2 0-0.5c-0.1-0.2-1.3-2.6-1.4-2.9-0.2-0.3-0.3-0.6-0.4-0.8q-0.1-0.1 0-0.3c0-0.1 0.1-0.8 0.1-0.9 0.1-0.1 0.2-0.1 0.2 0 0.1 0.1 1.3 1.3 1.4 1.5 0.2 0.2 0.1 0.2 0 0.2 0 0-0.6 0-0.6 0 0 0 0.8 1.4 1 1.9 0.5 1.1 0.2 2 0.1 2.3-0.4 0.7-1 1.4-1.8 2.1-0.1 0.5-0.4 3.2 2.1 3.3 0.4 0 1.7 0.2 4.2-1.9 0.6-0.5 1.3-1 1.9-1.8 0.2-0.4 0.3-0.9-0.1-0.9-0.4 0.1-3 1.1-3.4-0.5-0.1-0.4 0.1-4.2 2.7-2.3 0.2 0.1 0.8 0.6 1.1 1.3 0.5-0.2 1.3-0.7 2.3-1.4 0.2-0.3 0.5-0.4 0.5-0.1 0 0.4-0.2 2.6 2.1 1.9 0.3-0.1 1.3-0.3 2-2.1 0.2-0.5 0.5-0.4 0.4 0-0.2 0.4-0.5 0.8-0.2 1.1 0.2 0.2 0.9 0.7 1.7 0.5 0.3 0 0.4-0.1 0.3-0.4-0.1-0.2-0.3-0.7-0.3-0.7 0-0.3 0.1-0.8 0.2-0.9 0-0.1 0.1-0.2 0.2-0.1 0 0.1 0.8 1.1 0.4 2.5zm-10.7 0.1c-0.8-1.2-1.8-0.5-1.9-0.4-0.1 0.1-0.2 0.4 0.6 0.5 1 0.1 1.3-0.1 1.3-0.1z"/>
		<path id="&lt;Path&gt;" class="s0" d="m9.4 11.8c0 0-0.1 0.4-0.2 0.6-0.3 1.2-0.1 1.7 0 1.8 0.4 0.6 0.8 0.2 1-0.2 0-0.2 0.1-0.1 0.1 0q0 0.1-0.1 0.3c-0.2 0.7-0.5 0.9-0.7 0.9-0.5 0-0.7-0.5-0.7-0.8-0.2-1.2 0.3-2.3 0.4-2.7 0.1-0.3 0.3-0.1 0.2 0.1z"/>
		<path id="&lt;Path&gt;" class="s0" d="m43.2 10.4l1 0.7q0.1 0.1 0.1 0.1l-0.7 0.9q0 0 0 0l-1.1-0.8-0.5 0.8q0 0-0.1 0l-1-0.8q-0.1 0-0.1-0.1l0.7-0.8q0-0.1 0 0l1.1 0.7 0.5-0.7q0-0.1 0.1 0z"/>
		<path id="&lt;Path&gt;" class="s0" d="m62.9 10.4c0 0-0.1 0.3-0.1 0.5-0.4 0.9-0.2 1.3-0.2 1.4 0.3 0.5 0.7 0.2 0.8-0.1 0-0.2 0.1-0.1 0.1 0q0 0.1-0.1 0.3c-0.1 0.5-0.4 0.7-0.6 0.7-0.3-0.1-0.5-0.5-0.5-0.7 0-1 0.4-1.9 0.5-2.1 0.1-0.3 0.2-0.2 0.1 0z"/>
		<path id="&lt;Path&gt;" class="s0" d="m52.4 9.9c0 0-0.1 0.3-0.1 0.5-0.4 1-0.2 1.4-0.1 1.5 0.2 0.5 0.6 0.3 0.7-0.1 0.1-0.2 0.2-0.1 0.2 0q-0.1 0.1-0.1 0.3c-0.2 0.6-0.4 0.7-0.6 0.7-0.4 0-0.6-0.5-0.6-0.7-0.1-1.1 0.4-2 0.5-2.3 0.1-0.3 0.2-0.1 0.1 0.1z"/>
		<path id="&lt;Path&gt;" class="s0" d="m28.6 9.3c0 0 0.1 0.5 0.3 0.8 0.1 0.2 0.2 0.5 0.1 0.8 0 0.4-0.3 0.7-0.4 0.8-0.3 0.1-0.7 0.1-1-0.3-0.3 0.6-0.8 0.8-1.1 0.6-0.3-0.1-0.3-0.7-0.3-0.8 0-0.2 0-0.7 0-0.9 0-0.1 0-0.2 0.1-0.3 0-0.2 0.1-0.1 0.1 0.1 0 0.2-0.1 0.9 0.1 1.2 0.3 0.4 0.9 0 1-0.2 0.1-0.2-0.2-1-0.2-1.1q0-0.1 0-0.1c0 0 0-0.3 0.1-0.4q0.1-0.2 0.2 0c0 0.1 0 0.3 0.2 1 0.1 0.8 0.7 0.6 0.9 0.6 0.1-0.1 0.1-0.2 0.1-0.3-0.1-0.1-0.3-0.7-0.4-0.9-0.1-0.3-0.1-0.5 0-0.7 0.1-0.2 0.1 0 0.2 0.1z"/>
		<path id="&lt;Path&gt;" class="s0" d="m31.2 8.9c0 0-0.1 0.3-0.2 0.6-0.3 1.1-0.1 1.6 0 1.7 0.3 0.5 0.7 0.2 0.8-0.2 0.1-0.2 0.2-0.1 0.2 0q-0.1 0.1-0.1 0.3c-0.2 0.7-0.4 0.9-0.6 0.9-0.4 0-0.6-0.5-0.7-0.8-0.1-1.2 0.3-2.3 0.4-2.6 0.1-0.3 0.2-0.1 0.2 0.1z"/>
		<path id="&lt;Path&gt;" class="s0" d="m20.5 7.3c0 0-0.1 0.3-0.1 0.6-0.4 1.1-0.1 1.6-0.1 1.7 0.4 0.5 0.8 0.2 0.9-0.2 0-0.2 0.1-0.1 0.1 0q0 0.1 0 0.3c-0.2 0.7-0.5 0.9-0.7 0.9-0.4 0-0.6-0.5-0.6-0.8-0.2-1.2 0.3-2.3 0.4-2.6 0.1-0.3 0.2-0.1 0.1 0.1z"/>
		<path id="&lt;Path&gt;" class="s0" d="m10.5 6.9c0.1 0.2 0 0.6-0.1 0.9-0.1 0.1-0.2 0-0.3-0.2 0 0-0.2-0.1-0.3-0.2-0.5-0.4-0.7 0.4-0.8 0.8 0 0.3-0.1 1.3-0.1 1.9-0.1 0.2-0.2 0.2-0.3 0-0.3-1.2-1-1.8-1.2-1.9-0.1-0.1-0.2 0.1-0.2 0.2 0 0-0.1 0-0.1 0-0.1 0-0.5-0.3-0.6-0.4-0.2-0.2-0.1-0.6-0.1-0.8 0-0.3 0.2-0.4 0.3-0.4 1.4 0.8 1.9 2.2 2 2.4 0-1 0.1-1.9 0.6-2.6 0.5-0.6 1.1 0.2 1.2 0.3z"/>
		<path id="&lt;Path&gt;" class="s0" d="m21.9 5.7c-0.1 0.2-0.1 0.2-0.2 0.4-0.1 0.2-0.2 0.3-0.5 0.4-0.2 0.1-10.5 4.9-10.7 4.9-0.4 0.2-0.3 0.1-0.3 0q0-0.1 0.1-0.4c0.1-0.2 0.2-0.3 0.5-0.4 0.3-0.2 10.5-4.9 10.8-5 0.4-0.2 0.4-0.1 0.3 0.1z"/>
		<path id="&lt;Path&gt;" class="s0" d="m51.5 5.6c0 0.1-0.1 0.1-0.1 0.3-0.1 0.2-0.2 0.2-0.4 0.4-0.2 0.1-5.7 3.2-5.8 3.3-0.3 0.2-0.3 0.1-0.2 0q0-0.1 0-0.3c0.1-0.2 0.1-0.2 0.4-0.4 0.2-0.1 5.6-3.3 5.8-3.4 0.4-0.2 0.3 0 0.3 0.1z"/>
		<path id="&lt;Path&gt;" class="s0" d="m58.2 5.9c0.1 0.3 0 0.7-0.1 0.9-0.1 0.2-0.2 0-0.3-0.1 0 0-0.2-0.1-0.3-0.3-0.6-0.4-0.8 0.5-0.8 0.9-0.1 0.3-0.1 1.4-0.2 2-0.1 0.2-0.2 0.2-0.3 0-0.4-1.3-1.1-1.9-1.2-2-0.1-0.1-0.2 0.1-0.3 0.1 0 0.1 0 0.1-0.1 0.1-0.1-0.1-0.5-0.3-0.6-0.5-0.2-0.1-0.1-0.6-0.1-0.8 0-0.3 0.2-0.4 0.3-0.4 1.5 0.9 2 2.3 2.1 2.5 0-1 0.1-2 0.7-2.8 0.4-0.5 1.1 0.3 1.2 0.4z"/>
		<path id="&lt;Compound Path&gt;" fill-rule="evenodd" class="s0" d="m63.6 8.2c-0.1 0.2-0.1 0.1-0.2-0.1-0.1-0.1-0.3-0.2-0.5-0.3-0.2 0.5-0.2 0.5-1.1 1.3-2 1.7-4.2 2.4-4.4 2.4-0.1 0-0.1-0.1 0.1-0.2 0.7-0.6 3.6-1.8 5.1-3.7 0 0-0.5-0.1-0.8-0.4-0.3-0.2-0.2-1 0.1-1.4 0.5-0.8 1-0.4 1.1-0.3 0.5 0.9 0.2 1.7 0.2 1.7 0.3 0.2 0.6 0.5 0.4 1zm-1-2.1c-0.1-0.1-0.2-0.1-0.5 0.3-0.1 0.1 0 0.2 0.2 0.3 0.2 0.1 0.6 0.3 0.6 0.3 0-0.1 0.1-0.6-0.3-0.9z"/>
		<path id="&lt;Compound Path&gt;" fill-rule="evenodd" class="s0" d="m35 17.7c-0.1 1.5-0.5 1.7-0.9 1.9-2 1.2-3.9 1.5-4.4 1.6-2.4 0.4-3.8 0.2-4.5 0q-0.3 0.5-0.5 1.1c-0.2 0.3-0.3 0.4-0.4 0.3 0 0 0.1-0.5 0.1-0.5 0.1-0.3 0.2-0.7 0.4-1q-0.1-0.1-0.2-0.2c-0.5-0.2-0.9-0.9-1-1.1-0.1 0.3-0.6 1.1-0.8 1.2-1.5 1.6-3.8 0.8-4.2-1.1-0.4-1.8-0.1-3.3 0.1-4-0.8 0.5-1.7 0.9-2.4 1.3q0.1 0.3 0 0.6c-0.1 0.2-0.1 0.1-0.2 0 0 0-0.2-0.1-0.3-0.3-0.9 0.5-1.7 0.9-1.9 1.1 0 0 2 0.4 2.3 0.5 0.3 0.1 1.1 0.4 0.9 1.7 0 0.3-0.1 0.9-0.7 1.4-0.6 0.5-3.4 2.9-6.8 3.2-0.6 0-4 0.3-4.5-2.6-0.1-0.6-0.4-2.3 0.7-4.9q0.1-0.1 0.1-0.1c-0.4-0.3-0.6-0.9-0.6-1.2-0.2-2 0.4-3.7 0.6-4.2 0.1-0.5 0.3-0.3 0.2 0.1 0 0-0.2 0.6-0.2 0.9-0.5 1.9-0.1 2.7-0.1 2.9 0.5 0.9 1.1 0.3 1.3-0.4 0.1-0.3 0.2-0.1 0.1 0q0 0.2 0 0.6c-0.2 1.1-0.6 1.4-0.9 1.4q-0.1 0-0.2 0 0 0.1 0 0.2c-0.1 0.5-1.7 4.8 1.2 5.8 0.5 0.1 2.9 1.1 7.7-1.9 0.4-0.3 1.6-1 1.5-1.2-0.1-0.1-0.3-0.3-1.6-0.6-2.3-0.4-3-0.8-3-0.8 0-0.2 0.1-1.1 0.3-1.2 0.2-0.1 1.4-0.7 2.8-1.5q-0.3-0.3-0.6-0.5c-0.6-0.5-1.3-1-1.4-1.1-0.2-0.2-0.5-0.5-0.5-0.9-0.1-0.4 0.2-1.3 0.6-1.6 0.4-0.2 2.7-1.3 10.5-0.1 0 0-0.1 1-0.3 1.1-0.1 0.1-2 1-4.1 2.1-1 3.2 0.4 4.2 0.6 4.4 1.3 1.1 2.8-0.1 3-0.4 0.3-0.3 0.7-1.1 0.9-1.4 0.3-0.4 0.4-0.1 0.3 0.3 0.3 0.7 0.8 1.1 1.5 1.3 0.4-0.6 0.7-1.1 0.9-1.3 0.5-0.5 2.1-2.9 3.8-3.1 0.4-0.1 1.9-0.2 2.8 1.2 0.1 0.2 0.4 0.3-0.3 2.6 1-0.4 1.6-0.8 1.6-0.9 0.2-0.1 0.2-0.2 0.2-0.6 0-0.3-1.6-10.2-1.6-10.7-0.1-0.4-0.2-0.7-0.2-0.7 0 0 0.4-0.9 0.5-1.1 0-0.1 0.1 0 0.1 0.1 0 0.1 1.2 3.1 1.3 3.3 0 0.2-0.1 0.2-0.2 0.1-0.1-0.1-0.7-0.7-0.7-0.7 0 0 1.1 6.4 1.2 7 0.1 0.7 0.1 2.2 0.1 2.6zm-13.7-4.3c-0.3-0.1-3.2-0.4-6.3-0.2-1.2 0.1-2.1 0.6-1.9 0.7 0.2 0.1 1.6 1.2 1.6 1.2 0.2 0.2 0.8 0.6 1.2 1.2 2.5-1.3 5.4-2.7 5.4-2.9zm10.8 4.1c-0.6-0.5-1.7-1.3-2.9-0.6-0.9 0.6-2.2 1.6-3.3 3.1 0.9 0.1 4.2 0.2 6.3-1.6 0.2-0.2 0.5-0.5-0.1-0.9z"/>
		<path id="&lt;Path&gt;" class="s0" d="m36.6 5.4c0 0.1 1.3 3.2 1.4 3.4 0 0.1-0.1 0.2-0.2 0.1-0.1-0.1-0.7-0.7-0.7-0.7 0 0 1.1 8.4 1.2 8.6 0.2 1.7 0.2 2.9 0.2 3.7-0.1 1-0.2 1.4-0.3 1.5-0.1 0.2-0.2 0.1-0.1-0.1-0.1-0.6-0.2-1.7-0.3-3-0.4-2.5-1.5-10.5-1.7-11.9 0-0.1-0.1-0.5-0.1-0.6 0 0 0.4-0.9 0.4-1.1 0.1-0.1 0.1 0 0.2 0.1z"/>
		<path id="&lt;Compound Path&gt;" fill-rule="evenodd" class="s0" d="m27.8 7.8c0 0.1-0.1 0-0.2-0.1 0-0.1-0.3-0.4-0.3-0.4 0 0-1.1 1.6-2.2 2.4-1.2 0.9-2.3 1.2-2.4 1.3-0.1 0-0.1-0.1 0.1-0.2 0.8-0.5 2.7-2 4.1-3.6 0 0-0.4-0.2-0.7-0.4-0.3-0.2-0.1-1 0.1-1.3 0.6-0.8 1-0.3 1.1-0.2 0.4 0.8 0.1 1.5 0.1 1.5 0.3 0.2 0.5 0.5 0.3 1zm-0.8-2c-0.1-0.1-0.2-0.1-0.5 0.3-0.1 0.1 0 0.2 0.2 0.3 0.2 0 0.5 0.2 0.5 0.2 0.1-0.1 0.1-0.5-0.2-0.8z"/>
		<path id="&lt;Compound Path&gt;" fill-rule="evenodd" class="s0" d="m42.9 7.9c-0.1 0.2-0.1 0.1-0.2-0.1-0.1 0-0.4-0.3-0.4-0.3 0 0-0.5 0.9-1.2 1.5-1.4 1-2.5 1.2-2.6 1.2-0.1 0.1-0.2-0.1 0-0.2 0.9-0.5 1.9-0.9 3.4-2.7 0 0-0.5-0.1-0.8-0.4-0.3-0.2-0.1-1 0.1-1.4 0.5-0.9 1.1-0.4 1.1-0.3 0.5 0.9 0.3 1.7 0.3 1.7 0.2 0.2 0.5 0.5 0.3 1zm-1-2.1c-0.1-0.1-0.2-0.1-0.5 0.3-0.1 0.1 0 0.2 0.2 0.3 0.2 0.1 0.6 0.3 0.6 0.3 0-0.1 0.1-0.6-0.3-0.9z"/>
	</g>
</svg>