<svg version="1.2" xmlns="http://www.w3.org/2000/svg" viewBox="0 0 70 30" width="70" height="30">
	<title>New Project</title>
	<style>
		.s0 { fill: #191c4f } 
	</style>
	<g id="التين">
		<path id="&lt;Path&gt;" class="s0" d="m15 24c-0.1 0.2-0.1 0.2-0.2 0.4-0.1 0.2-0.2 0.3-0.4 0.4-0.3 0.1-4.2 1.4-4.4 1.5-0.4 0.2-0.4 0.1-0.3 0q0-0.1 0.1-0.4c0-0.2 0.1-0.2 0.4-0.3 0.3-0.2 4.2-1.6 4.5-1.7 0.4-0.1 0.3 0 0.3 0.1z"/>
		<path id="&lt;Path&gt;" class="s0" d="m18.9 23.8l1.2 0.9q0.1 0 0 0.1l-0.7 0.9q0 0.1-0.1 0.1l-1.1-0.9-0.7 0.8q0 0.1-0.1 0.1l-1.2-0.9q0-0.1 0-0.1l0.7-1q0.1 0 0.1 0l1.2 0.8 0.6-0.8q0.1 0 0.1 0z"/>
		<path id="&lt;Path&gt;" class="s0" d="m27.9 22.7c0 0.2 0 0.2-0.1 0.4-0.1 0.2-0.3 0.2-0.5 0.3-0.3 0.2-4.7 1.6-4.9 1.7-0.4 0.2-0.4 0.1-0.3-0.1q0 0 0.1-0.3c0-0.2 0.1-0.3 0.4-0.4 0.3-0.1 4.8-1.6 5.1-1.7 0.4-0.1 0.3 0 0.2 0.1z"/>
		<path id="&lt;Path&gt;" class="s0" d="m30.5 21.3c0.3 0.2 0.3 0.7 0.2 1-0.3 1-1.1 1.7-1.3 2-0.2 0.2-0.2 0-0.1-0.2 0 0 0.2-0.2 0.4-0.4 0.7-0.8 0.6-1.3 0.6-1.4-0.1-0.6-0.5-0.5-0.8-0.2-0.1 0.2-0.1 0.1-0.1 0q0.1-0.1 0.2-0.3c0.4-0.5 0.7-0.5 0.9-0.5z"/>
		<path id="&lt;Path&gt;" class="s0" d="m63.1 20.5c0 0 0 0.3 0 0.6 0 0.2-0.1 0.6-0.3 1-0.1 0.4-0.9 0.5-1.4 0.1-0.9 1.4-1.7 0.7-2.1 0.6-0.8-0.4-1 0.2-1.3 0.4-0.9 1.1-2.8 1.1-3.2 1.1-0.4 0.1-0.1-0.2 0.1-0.3 1.4-0.5 2.3-0.6 3.6-1.8 0.6-0.6 0.9-0.3 1.1-0.2 1.2 0.5 1.4 0 1.6-0.1 0.1-0.2 0.3-0.8 0.4-1 0.1-0.2 0.2-0.1 0.2 0.1 0 0.1-0.1 0.3-0.1 0.5 0.5 0.3 1 0 1.1-0.1 0 0-0.1-0.4-0.1-0.5q0-0.2 0.2-0.6c0.1-0.3 0.2-0.1 0.2 0.2z"/>
		<path id="&lt;Compound Path&gt;" fill-rule="evenodd" class="s0" d="m40.8 18.8c-0.4 1.2-2.1 1.8-2.5 1.9-1.5 0.5-1.6-1-1.5-2.1 0.1-1.1 0.9-2.5 0.9-2.5-0.1 0-1.6-1.3-1.8-1.4-0.1-0.1-0.2-0.3-0.4-0.4-0.1-0.1-0.1-0.2-0.1-0.2 0 0 0-1.1 0-1.2 0-0.2 0.1-0.1 0.2 0 0.1 0 1.9 0.7 2 0.8 0.2 0.1 0.2 0.2 0.1 0.2-0.1 0.1-0.7 0.2-0.7 0.2l1.4 1c0 0 1.9-2.5 2.1-2.8 0.2-0.2 0.2-0.1 0.2 0.2-0.1 0.2-0.4 1.3-0.5 1.5-0.1 0.1-1.1 1.5-1.1 1.5 0 0 1.3 0.8 1.6 1.3 0.6 0.8 0.2 1.6 0.1 2zm-2.5-2.3c0 0-0.8 1.5-1 1.8-0.4 0.9 0.5 1.1 0.8 1 0.4 0 1.5-0.6 2.1-1.1 0.6-0.4-1.5-1.5-1.9-1.7z"/>
		<path id="&lt;Compound Path&gt;" fill-rule="evenodd" class="s0" d="m64.9 17.4c-0.1 0.2-0.4 1.4-2 1-0.4 0-1.2-0.2-1.5-1.1-0.4 0.5-1.4 2-3.2 1.8-0.4-0.1-1.6-0.6-1.7-2.2 0 0-1.5 1.2-2.2 1.6 0.1 0.6 0 1.2-0.2 2-0.3 0.7-3.5 4.3-6.2 4.9-0.9 0.2-4.2 0.8-4.3-2.9-0.1-0.8 0-1.4 0-1.8-2 1.6-4.5 2.8-5.2 3.2-1.1 0.5-5 1.1-5.6 1.2-0.5 0.1-0.6 0-0.3-0.2 0.3-0.1 8.8-3 13.2-7.6q0.2-0.3 0-0.6c-0.2-0.2-1.5-2.9-1.7-3.2-0.1-0.4-0.3-0.8-0.4-0.9q-0.1-0.2 0-0.5c0-0.1 0.2-0.8 0.2-1 0-0.1 0.1-0.1 0.2 0.1 0.1 0.1 1.5 1.5 1.6 1.6 0.2 0.2 0.1 0.3 0 0.3 0 0-0.7 0-0.7 0 0 0 0.9 1.5 1.2 2.1 0.5 1.3 0.2 2.3 0 2.7-0.4 0.9-1.1 1.7-2 2.4-0.1 0.6-0.4 3.7 2.5 3.8 0.4 0 1.9 0.2 4.8-2.2 0.7-0.5 1.4-1.2 2.1-2.1 0.2-0.4 0.4-1-0.1-0.9-0.5 0-3.5 1.1-3.9-0.7-0.1-0.5 0.1-4.8 3.1-2.6 0.2 0.1 0.9 0.7 1.3 1.5 0.5-0.2 1.4-0.8 2.5-1.7 0.4-0.2 0.7-0.4 0.7 0 0 0.4-0.3 2.9 2.4 2.2 0.3-0.1 1.5-0.3 2.3-2.5 0.2-0.5 0.6-0.4 0.4 0-0.2 0.5-0.5 1-0.2 1.3 0.2 0.2 1 0.8 2 0.6 0.3 0 0.5-0.2 0.3-0.4-0.1-0.3-0.4-0.8-0.4-0.8 0.1-0.4 0.2-0.9 0.3-1.1 0-0.1 0-0.3 0.2-0.1 0.1 0.1 1 1.2 0.5 2.8zm-12.3 0.1c-0.9-1.3-2.1-0.6-2.2-0.4-0.2 0.1-0.2 0.5 0.7 0.6 1.1 0 1.5-0.2 1.5-0.2z"/>
		<path id="&lt;Path&gt;" class="s0" d="m9.9 18.1c0 0-0.1 0.3-0.1 0.5-0.4 1-0.2 1.5-0.1 1.6 0.2 0.5 0.6 0.2 0.8-0.2 0-0.1 0.1 0 0.1 0q0 0.1-0.1 0.3c-0.2 0.7-0.4 0.8-0.6 0.8-0.4 0-0.6-0.5-0.6-0.8-0.1-1.1 0.4-2 0.5-2.3 0.1-0.2 0.2-0.1 0.1 0.1z"/>
		<path id="&lt;Path&gt;" class="s0" d="m9.9 14.5l1.3 0.9q0 0.1 0 0.1l-0.7 1q-0.1 0-0.1 0l-1.2-0.9q-0.1 0-0.1-0.1l0.8-0.9q0-0.1 0-0.1z"/>
		<path id="&lt;Path&gt;" class="s0" d="m23.3 14l1.1 0.9 0.7-0.9q0 0 0 0l1.3 0.9q0 0 0 0.1l-0.7 1q-0.1 0-0.1 0l-1.2-0.9-0.6 0.9q-0.1 0-0.1 0l-1.2-0.9q-0.1-0.1 0-0.1l0.7-1q0 0 0.1 0z"/>
		<path id="&lt;Path&gt;" class="s0" d="m39.1 9.6l1.3 0.9q0 0 0 0.1l-0.7 0.9q-0.1 0.1-0.1 0.1l-1.2-0.9-0.6 0.8q-0.1 0.1-0.1 0.1l-1.2-0.9q-0.1-0.1 0-0.1l0.7-1q0 0 0.1 0l1.1 0.8 0.6-0.8q0.1 0 0.1 0z"/>
		<path id="&lt;Path&gt;" class="s0" d="m61.8 9.7c0 0-0.1 0.3-0.2 0.5-0.4 1-0.2 1.5-0.1 1.6 0.3 0.6 0.7 0.3 0.8-0.1 0.1-0.2 0.2-0.1 0.1 0q0 0.1 0 0.3c-0.2 0.6-0.5 0.8-0.7 0.8-0.4 0-0.6-0.5-0.6-0.8-0.1-1.2 0.4-2.1 0.5-2.4 0.2-0.3 0.3-0.2 0.2 0.1z"/>
		<path id="&lt;Path&gt;" class="s0" d="m49.7 9c0 0-0.1 0.4-0.1 0.6-0.4 1.1-0.2 1.7-0.2 1.8 0.4 0.5 0.8 0.2 0.9-0.2 0.1-0.2 0.2-0.1 0.2 0q-0.1 0.1-0.1 0.4c-0.2 0.7-0.5 0.8-0.7 0.8-0.5 0-0.6-0.6-0.7-0.8 0-1.3 0.5-2.3 0.6-2.7 0.1-0.3 0.2-0.1 0.1 0.1z"/>
		<path id="&lt;Path&gt;" class="s0" d="m23.8 8.8c0 0 0.2 0.5 0.4 0.8 0.1 0.3 0.2 0.6 0.2 1.1-0.1 0.4-0.4 0.8-0.6 0.8-0.2 0.1-0.7 0.1-1-0.3-0.5 0.7-1 0.9-1.4 0.7-0.3-0.1-0.4-0.8-0.3-1 0-0.2-0.1-0.8-0.1-0.9 0-0.2 0.1-0.3 0.2-0.4 0.1-0.2 0.1-0.1 0.1 0.1 0 0.2-0.1 1 0.1 1.3 0.3 0.5 1 0.1 1.2-0.2 0.1-0.2-0.2-1.2-0.2-1.2q-0.1-0.1 0-0.2c0 0 0-0.3 0.1-0.4q0-0.2 0.2 0c0 0.1 0 0.4 0.2 1.2 0.1 0.8 0.9 0.7 1.1 0.6 0.2-0.1 0.1-0.2 0.1-0.3-0.1-0.1-0.4-0.8-0.5-1.1-0.1-0.3 0-0.5 0-0.7 0.1-0.3 0.2-0.1 0.2 0.1z"/>
		<path id="&lt;Path&gt;" class="s0" d="m48.7 4.1c-0.1 0.1-0.1 0.2-0.2 0.4-0.1 0.2-0.2 0.2-0.4 0.4-0.2 0.1-6.5 3.8-6.6 3.8-0.4 0.3-0.4 0.1-0.3 0q0-0.1 0.1-0.4c0-0.2 0.1-0.2 0.3-0.4 0.3-0.1 6.6-3.7 6.8-3.9 0.4-0.2 0.3 0 0.3 0.1z"/>
		<path id="&lt;Path&gt;" class="s0" d="m56.3 4.5c0.2 0.3 0.1 0.7 0 1-0.1 0.2-0.3 0-0.4-0.1 0 0-0.2-0.2-0.3-0.3-0.7-0.5-0.9 0.5-1 1 0 0.4-0.1 1.5-0.2 2.2 0 0.3-0.2 0.3-0.3 0.1-0.4-1.5-1.3-2.2-1.4-2.3-0.2-0.2-0.3 0-0.3 0.1 0 0.1-0.1 0.1-0.2 0.1-0.1-0.1-0.5-0.4-0.7-0.5-0.1-0.2-0.1-0.7-0.1-1 0.1-0.4 0.3-0.5 0.4-0.4 1.7 0.9 2.3 2.6 2.4 2.9 0-1.3 0.1-2.4 0.8-3.2 0.5-0.7 1.3 0.3 1.3 0.4z"/>
		<path id="&lt;Path&gt;" class="s0" d="m15.9 4.3c0 0-0.2 0.6-0.3 1.1-0.8 2.2-0.5 3.2-0.4 3.4 0.4 1.2 1.1 0.6 1.4-0.2 0.2-0.4 0.3-0.2 0.2 0 0 0.1-0.1 0.4-0.1 0.7-0.5 1.3-0.9 1.6-1.3 1.6-0.7-0.1-0.9-1.2-0.9-1.7 0-2.5 1-4.5 1.2-5.1 0.2-0.5 0.4-0.3 0.2 0.2z"/>
		<path id="&lt;Compound Path&gt;" fill-rule="evenodd" class="s0" d="m62.6 7.1c-0.1 0.2-0.2 0.1-0.3-0.1-0.1-0.1-0.3-0.3-0.5-0.4-0.3 0.6-0.2 0.6-1.3 1.5-2.3 2-4.8 2.7-5 2.8-0.1 0-0.2-0.1 0.1-0.3 0.8-0.6 4.1-2.1 5.8-4.1 0 0-0.5-0.3-0.9-0.5-0.4-0.3-0.2-1.2 0.1-1.6 0.6-1 1.2-0.5 1.3-0.3 0.6 0.9 0.3 1.9 0.3 1.9 0.3 0.2 0.6 0.5 0.4 1.1zm-1.1-2.4c-0.2-0.1-0.3-0.1-0.7 0.3-0.1 0.2 0.1 0.3 0.3 0.4 0.2 0.1 0.7 0.3 0.7 0.3 0-0.1 0-0.7-0.3-1z"/>
		<path id="&lt;Path&gt;" class="s0" d="m11.4 4.1c0.1 0.3 0.1 0.8 0 1.1-0.1 0.1-0.3 0-0.4-0.2 0 0-0.2-0.1-0.3-0.2-0.7-0.5-0.8 0.5-0.9 1 0 0.3 0.1 2-0.4 3.1-0.5 1.3-0.3 2-0.2 2.1 0.3 0.7 0.8 0.4 1-0.1 0.1-0.3 0.1-0.1 0.1 0q0 0.1-0.1 0.4c-0.2 0.8-0.6 1-0.8 1-0.5-0.1-0.7-0.7-0.7-1.1 0-1.5 1-2.9 0.6-3.7-0.5-1-1.2-1.5-1.3-1.6-0.1-0.2-0.2 0.1-0.2 0.2-0.1 0-0.1 0-0.2 0-0.1 0-0.6-0.3-0.7-0.4-0.2-0.2-0.2-0.7-0.2-0.9 0-0.4 0.3-0.5 0.4-0.5 1.7 0.8 2.3 2.4 2.4 2.6 0-1.2 0-2.2 0.5-3.1 0.5-0.7 1.3 0.2 1.4 0.3z"/>
		<path id="&lt;Compound Path&gt;" fill-rule="evenodd" class="s0" d="m38.8 6.8c0 0.2-0.1 0.1-0.2-0.1-0.1-0.1-0.5-0.4-0.5-0.4 0 0-0.5 1.1-1.4 1.7-1.5 1.2-2.9 1.4-2.9 1.4-0.2 0.1-0.2-0.1 0-0.2 1-0.6 2.2-1 3.9-3.1 0 0-0.6-0.2-0.9-0.5-0.4-0.2-0.2-1.2 0-1.6 0.7-1 1.3-0.5 1.4-0.3 0.5 1 0.2 1.9 0.2 1.9 0.3 0.2 0.6 0.6 0.4 1.2zm-1.1-2.5c-0.1-0.1-0.3-0.1-0.6 0.4-0.1 0.1 0 0.3 0.2 0.4 0.2 0.1 0.7 0.3 0.7 0.3 0.1-0.1 0.1-0.7-0.3-1.1z"/>
		<path id="&lt;Path&gt;" class="s0" d="m23.8 4c0.1 0.2 0 0.7-0.1 0.9 0 0.2-0.2 0-0.3-0.1 0 0-0.1-0.1-0.2-0.3-0.6-0.4-0.8 0.5-0.8 1-0.1 0.3-0.1 1.4-0.2 2 0 0.2-0.1 0.2-0.2 0-0.4-1.3-1.1-1.9-1.2-2-0.1-0.2-0.2 0-0.2 0.1 0 0.1-0.1 0.1-0.2 0.1 0-0.1-0.4-0.3-0.6-0.5-0.1-0.1-0.1-0.6-0.1-0.8 0.1-0.4 0.3-0.5 0.4-0.4 1.4 0.8 1.8 2.3 1.9 2.5 0.1-1.1 0.1-2.1 0.6-2.9 0.5-0.6 1.1 0.3 1.2 0.4z"/>
		<path id="&lt;Path&gt;" class="s0" d="m27.1 3.1c0 0.2 1.4 3.6 1.4 3.8 0.1 0.2 0 0.2-0.2 0.1-0.1-0.1-0.7-0.7-0.7-0.7 0 0 1.5 11.1 1.6 11.7 0.2 2.8-1.3 3.5-1.8 3.6-2.2 0.5-2.9-1.1-3.1-1.6-0.9 1.8-2.4 2.1-2.7 2.1-2.7 0-3-3.1-3-3.7 0-1.2-0.3-2.2-0.5-2.6-0.1-0.5-0.1-0.1-0.2 0.1-0.4 2.2-2.1 2.2-2.1 2.2 0 1.3-0.2 2.1-0.4 2.7-0.9 1.6-3.9 3-4.9 3.3-3.1 1.1-4.7-0.2-5-0.4-2.8-2.1-0.8-6.4-0.6-6.8q0 0 0 0c-0.5-0.3-0.7-1.2-0.7-1.6-0.1-2.5 0.8-4.5 1-5.1 0.2-0.6 0.4-0.3 0.3 0.1 0 0-0.2 0.7-0.4 1.1-0.6 2.2-0.3 3.3-0.2 3.5 0.4 1.1 1.1 0.6 1.4-0.3 0.1-0.4 0.2-0.2 0.2 0 0 0.1-0.1 0.4-0.1 0.7-0.4 1.4-0.8 1.7-1.2 1.7q0 0 0 0-0.1 0-0.1 0.1c-0.4 1.2-0.6 2.1-0.5 2.6 0.2 3.1 2.9 3.1 3.4 3.2 3.5 0.2 6.9-2.7 7.1-3 0.6-1.1-0.7-3.2-0.9-3.5 0 0 0.2-0.9 0.3-1.1 0-0.2 0.1-0.1 0.1 0 0.1 0.1 0.7 1.1 0.7 1.1 2 0.8 2.3-1.3 2.3-1.5 0.1-0.2 0.2-0.6 0.4-0.8 0.1-0.2 0.3-0.1 0.3 0 0.4 0.4 0.5 1.3 0.6 1.9 0.3 2.1 0.6 3.2 0.9 3.6 0.8 1.4 2.4 0.9 2.7 0.8 1.3-0.5 2.1-2.2 2.2-2.4 0.2-0.1 0.2 0 0.2 0.2 0 0.1 0 0.2 0 0.4 0.1 0.8 0.7 1.2 0.8 1.3 1.4 0.8 2.6 0 2.7-0.2 0.1-0.1 0-1.5 0-1.8 0-0.2-1.8-12.3-1.8-12.8-0.1-0.5-0.2-0.8-0.2-0.8 0 0 0.4-1.1 0.5-1.2 0.1-0.2 0.1-0.1 0.2 0z"/>
		<path id="&lt;Path&gt;" class="s0" d="m30.9 3.1c0.1 0.2 1.6 3.7 1.6 3.9 0.1 0.2 0 0.3-0.2 0.2-0.1-0.2-0.8-0.8-0.8-0.8 0 0 1.3 9.6 1.4 9.9 0.2 1.9 0.3 3.2 0.3 4.1-0.1 1.2-0.3 1.7-0.4 1.8-0.1 0.2-0.2 0.1-0.2-0.1 0-0.7-0.1-2-0.3-3.4-0.4-2.9-1.6-12.1-1.9-13.7 0-0.2-0.1-0.6-0.1-0.7 0 0 0.4-1.1 0.5-1.2 0.1-0.2 0.1-0.1 0.1 0z"/>
	</g>
</svg>