<svg version="1.2" xmlns="http://www.w3.org/2000/svg" viewBox="0 0 70 30" width="70" height="30">
	<title>New Project</title>
	<style>
		.s0 { fill: #191c4f } 
	</style>
	<g id="العلق">
		<path id="&lt;Path&gt;" class="s0" d="m17.3 24.2c0 0.1 0 0.2-0.1 0.3-0.1 0.2-0.2 0.3-0.4 0.4-0.2 0.1-4.6 1.8-4.7 1.8-0.4 0.2-0.3 0.1-0.3 0q0-0.1 0.1-0.3c0.1-0.2 0.1-0.2 0.4-0.4 0.2-0.1 4.6-1.8 4.8-1.9 0.3-0.2 0.3 0 0.2 0.1z"/>
		<path id="&lt;Path&gt;" class="s0" d="m27.6 22.3c0.3 0.2 0.2 0.7 0.2 0.9-0.4 0.9-1.2 1.5-1.3 1.7-0.2 0.2-0.3 0-0.1-0.1 0 0 0.2-0.2 0.3-0.4 0.7-0.7 0.7-1.1 0.7-1.2 0-0.6-0.5-0.5-0.7-0.2-0.2 0.1-0.2 0-0.1 0q0-0.1 0.2-0.3c0.3-0.4 0.6-0.5 0.8-0.4z"/>
		<path id="&lt;Path&gt;" class="s0" d="m35 21.5c0.3 0.1 0.3 0.6 0.3 0.8-0.2 1-0.8 1.7-1 1.9-0.2 0.2-0.2 0.1-0.1-0.1 0 0 0.2-0.2 0.3-0.4 0.5-0.8 0.4-1.2 0.4-1.4-0.1-0.5-0.5-0.3-0.7 0-0.1 0.1-0.1 0-0.1 0q0-0.1 0.1-0.3c0.3-0.5 0.6-0.6 0.8-0.5z"/>
		<path id="&lt;Path&gt;" class="s0" d="m64 21c0 0 0 0.3 0 0.5 0 0.3-0.1 0.6-0.3 1-0.1 0.3-0.8 0.4-1.3 0.1-0.8 1.3-1.5 0.6-1.9 0.5-0.7-0.3-0.9 0.2-1.1 0.4-0.9 1-2.6 1-3 1-0.4 0 0-0.2 0.1-0.3 1.3-0.5 2.1-0.5 3.3-1.6 0.5-0.5 0.8-0.3 1-0.2 1.1 0.5 1.3 0 1.4-0.1 0.2-0.2 0.4-0.8 0.4-0.9 0.1-0.2 0.2-0.1 0.2 0.1 0 0.1-0.1 0.3-0.1 0.4 0.4 0.3 0.9 0 1 0 0 0 0-0.4-0.1-0.5q0-0.2 0.2-0.6c0.1-0.3 0.1 0 0.2 0.2z"/>
		<path id="&lt;Compound Path&gt;" fill-rule="evenodd" class="s0" d="m43.7 19.5c-0.4 1-1.9 1.6-2.3 1.7-1.3 0.5-1.4-0.9-1.3-1.9 0-1 0.8-2.3 0.8-2.3-0.1 0-1.5-1.2-1.7-1.3-0.1-0.1-0.2-0.2-0.3-0.3-0.2-0.1-0.2-0.2-0.2-0.2 0 0 0.1-1 0.1-1.1 0-0.1 0-0.1 0.1 0 0.2 0 1.7 0.6 1.9 0.7 0.2 0.1 0.1 0.2 0 0.2-0.1 0.1-0.6 0.2-0.6 0.2l1.3 0.9c0 0 1.8-2.3 1.9-2.5 0.2-0.2 0.2-0.1 0.2 0.1-0.1 0.2-0.4 1.2-0.5 1.4-0.1 0.1-1 1.4-1 1.4 0 0 1.2 0.7 1.5 1.1 0.5 0.8 0.2 1.5 0.1 1.9zm-2.3-2.1c0 0-0.8 1.4-0.9 1.6-0.3 0.8 0.5 1 0.8 0.9 0.3 0 1.3-0.5 1.8-1 0.5-0.4-1.4-1.3-1.7-1.5z"/>
		<path id="&lt;Path&gt;" class="s0" d="m9.6 18.6c0 0-0.1 0.3-0.2 0.5-0.3 1.1 0 1.6 0 1.7 0.4 0.5 0.8 0.2 0.9-0.2 0.1-0.2 0.1-0.1 0.1 0q0 0.1 0 0.3c-0.2 0.7-0.5 0.9-0.7 0.9-0.4 0-0.6-0.5-0.7-0.8-0.1-1.2 0.3-2.2 0.5-2.5 0.1-0.3 0.2-0.2 0.1 0.1z"/>
		<path id="&lt;Path&gt;" class="s0" d="m13.3 13.9l1.1 0.8q0.1 0.1 0 0.1l-0.6 0.9q0 0-0.1 0l-1.1-0.8-0.5 0.8q-0.1 0-0.1 0l-1.1-0.8q0 0 0-0.1l0.6-0.9q0.1 0 0.1 0l1.1 0.8 0.5-0.8q0.1 0 0.1 0z"/>
		<path id="&lt;Compound Path&gt;" fill-rule="evenodd" class="s0" d="m65.6 18.2c-0.1 0.2-0.4 1.2-1.8 0.9-0.4 0-1.1-0.2-1.4-1-0.4 0.5-1.2 1.9-2.9 1.6-0.3 0-1.5-0.5-1.5-1.9 0 0-1.4 1.1-2 1.4 0 0.5 0 1.1-0.3 1.8-0.2 0.6-3.1 4-5.5 4.5-0.8 0.2-3.9 0.7-4-2.7q0-1 0.1-1.6c-1.9 1.4-4.2 2.6-4.8 2.9-1 0.5-4.5 1-5.2 1.1-0.4 0.1-0.4 0-0.2-0.1 0.3-0.2 8-2.8 12-7 0.2-0.2 0.1-0.3 0-0.5-0.1-0.3-1.4-2.7-1.5-3-0.1-0.3-0.3-0.7-0.3-0.8q-0.1-0.2-0.1-0.4c0.1-0.1 0.2-0.8 0.2-0.9 0-0.2 0.1-0.1 0.2 0 0.1 0.1 1.3 1.4 1.5 1.6 0.1 0.1 0 0.2 0 0.2-0.1 0-0.7 0-0.7 0 0 0 0.8 1.4 1.1 1.9 0.5 1.2 0.2 2.1 0 2.5-0.3 0.7-1 1.5-1.8 2.1-0.1 0.6-0.4 3.4 2.2 3.5 0.4 0 1.8 0.2 4.4-2 0.6-0.5 1.3-1.1 1.9-1.9 0.2-0.3 0.4-0.9 0-0.9-0.5 0.1-3.2 1.1-3.6-0.6-0.1-0.4 0.1-4.3 2.8-2.4 0.2 0.2 0.8 0.7 1.2 1.4 0.4-0.2 1.3-0.7 2.3-1.5 0.3-0.2 0.6-0.4 0.6 0 0 0.4-0.2 2.6 2.2 1.9 0.3 0 1.4-0.2 2.1-2.2 0.2-0.4 0.5-0.4 0.3 0-0.1 0.5-0.4 0.9-0.2 1.1 0.3 0.3 1 0.8 1.8 0.7 0.4-0.1 0.5-0.2 0.4-0.5-0.1-0.2-0.4-0.7-0.4-0.7 0.1-0.3 0.2-0.8 0.2-1 0.1-0.1 0.1-0.2 0.2-0.1 0.1 0.1 0.9 1.2 0.5 2.6zm-11.2 0.1c-0.8-1.2-1.9-0.5-2-0.4-0.1 0.1-0.2 0.5 0.6 0.5 1.1 0.1 1.4-0.1 1.4-0.1z"/>
		<path id="&lt;Path&gt;" class="s0" d="m8.5 12.1c0 0 0 0.3-0.1 0.6-0.4 1.2-0.1 1.7 0 1.8 0.3 0.6 0.8 0.3 0.9-0.2 0.1-0.2 0.2-0.1 0.2 0q-0.1 0.1-0.1 0.4c-0.2 0.7-0.5 0.9-0.7 0.9-0.5 0-0.7-0.5-0.8-0.8-0.1-1.3 0.4-2.5 0.5-2.8 0.1-0.3 0.2-0.2 0.1 0.1z"/>
		<path id="&lt;Path&gt;" class="s0" d="m42.2 11.1l1.1 0.8q0 0 0 0.1l-0.7 0.9q0 0 0 0l-1.1-0.8-0.6 0.8q0 0-0.1 0l-1.1-0.8q0-0.1 0-0.1l0.7-0.9q0 0 0.1 0l1 0.8 0.6-0.8q0 0 0.1 0z"/>
		<path id="&lt;Path&gt;" class="s0" d="m62.8 11.1c0 0-0.1 0.3-0.2 0.5-0.3 1-0.1 1.4-0.1 1.5 0.3 0.5 0.6 0.3 0.8-0.1 0-0.2 0.1-0.1 0.1 0q0 0.1-0.1 0.3c-0.2 0.6-0.4 0.7-0.6 0.7-0.4 0-0.5-0.5-0.5-0.7-0.1-1.1 0.3-2 0.5-2.2 0.1-0.3 0.1-0.2 0.1 0z"/>
		<path id="&lt;Path&gt;" class="s0" d="m51.8 10.6c0 0-0.1 0.3-0.1 0.5-0.4 1-0.2 1.5-0.2 1.6 0.3 0.5 0.7 0.3 0.9-0.1 0-0.2 0.1-0.1 0.1 0q0 0.1-0.1 0.3c-0.2 0.6-0.4 0.8-0.6 0.8-0.4 0-0.6-0.6-0.6-0.8-0.1-1.2 0.4-2.1 0.5-2.4 0.1-0.3 0.2-0.2 0.1 0.1z"/>
		<path id="&lt;Path&gt;" class="s0" d="m10.2 7.6c0.1 0.2 0 0.5-0.1 0.8-0.1 0.1-0.2 0-0.3-0.2 0 0-0.1-0.1-0.2-0.2-0.5-0.4-0.7 0.4-0.8 0.8 0 0.3 0 1.2-0.1 1.7-0.1 0.2-0.2 0.2-0.3 0.1-0.3-1.2-0.9-1.7-1-1.8-0.2-0.1-0.2 0-0.3 0.1 0 0.1 0 0.1-0.1 0-0.1 0-0.4-0.2-0.6-0.3-0.1-0.2 0-0.6 0-0.8 0-0.3 0.2-0.4 0.3-0.3 1.3 0.7 1.7 2 1.8 2.2 0.1-1 0.1-1.8 0.6-2.5 0.4-0.5 1 0.3 1.1 0.4z"/>
		<path id="&lt;Path&gt;" class="s0" d="m21.8 15.9c0 0 0 0.3-0.1 0.4-0.3 1-0.2 1.4-0.1 1.5 0.2 0.4 0.6 0.2 0.7-0.1 0.1-0.2 0.1-0.1 0.1-0.1q0 0.1 0 0.3c-0.2 0.6-0.4 0.7-0.6 0.7-0.4 0-0.5-0.4-0.5-0.7-0.1-1 0.3-1.8 0.4-2.1 0.1-0.2 0.2-0.1 0.1 0.1z"/>
		<path id="&lt;Path&gt;" class="s0" d="m29.9 11.9c0 0-0.1 0.3-0.2 0.5-0.3 0.9-0.1 1.3-0.1 1.4 0.3 0.5 0.6 0.2 0.8-0.1 0-0.2 0.1-0.1 0.1 0q-0.1 0.1-0.1 0.3c-0.2 0.5-0.4 0.7-0.6 0.7-0.3 0-0.5-0.5-0.5-0.7-0.1-1 0.4-1.9 0.5-2.1 0.1-0.3 0.2-0.2 0.1 0z"/>
		<path id="&lt;Path&gt;" class="s0" d="m30.3 9.1c-0.1 0.1-0.1 0.2-0.2 0.4-0.1 0.2-0.2 0.2-0.4 0.4-0.2 0.1-9.9 4.7-10 4.8-0.4 0.2-0.4 0.1-0.3-0.1q0 0 0.1-0.3c0-0.2 0.1-0.3 0.4-0.4 0.2-0.2 9.8-4.8 10.1-4.9 0.4-0.2 0.4-0.1 0.3 0.1z"/>
		<path id="&lt;Path&gt;" class="s0" d="m23.4 6.8c0.1 0.1 0.1 0.5 0.1 0.8-0.1 0.1-0.2 0-0.3-0.1 0 0-0.2-0.1-0.3-0.2-0.6-0.3-0.6 0.5-0.6 0.9 0 0.3 0.1 1.2 0.1 1.7 0 0.2-0.1 0.2-0.2 0.1-0.5-1.1-1.2-1.5-1.4-1.6-0.1-0.1-0.2 0.1-0.2 0.2 0 0.1 0 0.1-0.1 0.1-0.1-0.1-0.5-0.2-0.6-0.3-0.1-0.1-0.2-0.6-0.2-0.7 0-0.3 0.1-0.5 0.3-0.4 1.4 0.5 2 1.7 2.1 1.9-0.1-1-0.2-1.9 0.2-2.6 0.3-0.6 1 0.1 1.1 0.2z"/>
		<path id="&lt;Path&gt;" class="s0" d="m26.9 6.4c0 0-0.1 0.3-0.1 0.5-0.4 0.9-0.2 1.3-0.1 1.4 0.2 0.5 0.6 0.2 0.7-0.1 0-0.2 0.1-0.1 0.1 0q0 0.1-0.1 0.3c-0.1 0.5-0.4 0.7-0.6 0.7-0.3 0-0.5-0.5-0.5-0.7 0-1 0.4-1.9 0.5-2.1 0.1-0.3 0.2-0.2 0.1 0z"/>
		<path id="&lt;Path&gt;" class="s0" d="m50.9 6.1c-0.1 0.1-0.1 0.2-0.2 0.3-0.1 0.2-0.2 0.3-0.4 0.4-0.2 0.1-5.9 3.4-6 3.5-0.3 0.2-0.3 0.1-0.3 0q0-0.1 0.1-0.4c0-0.1 0.1-0.2 0.3-0.3 0.3-0.2 6-3.5 6.2-3.6 0.3-0.2 0.3 0 0.3 0.1z"/>
		<path id="&lt;Path&gt;" class="s0" d="m57.8 6.4c0.2 0.3 0.1 0.7-0.1 1 0 0.2-0.2 0-0.3-0.1 0 0-0.1-0.2-0.3-0.3-0.6-0.5-0.8 0.4-0.8 0.9-0.1 0.3-0.1 1.4-0.2 2-0.1 0.3-0.2 0.3-0.3 0.1-0.4-1.4-1.2-2-1.3-2.1-0.1-0.1-0.2 0.1-0.2 0.1-0.1 0.1-0.1 0.1-0.2 0.1-0.1-0.1-0.5-0.3-0.7-0.5-0.1-0.1-0.1-0.6 0-0.8 0-0.4 0.2-0.5 0.3-0.5 1.6 0.9 2.1 2.4 2.1 2.7 0.1-1.2 0.2-2.2 0.8-2.9 0.5-0.7 1.2 0.2 1.2 0.3z"/>
		<path id="&lt;Compound Path&gt;" fill-rule="evenodd" class="s0" d="m63.5 8.9c-0.1 0.1-0.1 0-0.3-0.1 0-0.1-0.2-0.3-0.4-0.4-0.2 0.5-0.2 0.6-1.2 1.4-2.1 1.8-4.4 2.4-4.5 2.5-0.2 0-0.2-0.1 0-0.3 0.7-0.5 3.8-1.9 5.3-3.8 0 0-0.5-0.2-0.8-0.4-0.3-0.2-0.2-1.1 0.1-1.4 0.6-1 1.1-0.5 1.2-0.3 0.5 0.8 0.2 1.7 0.2 1.7 0.3 0.2 0.6 0.5 0.4 1.1zm-1-2.3c-0.1-0.1-0.3-0.1-0.6 0.3-0.1 0.2 0 0.3 0.2 0.4 0.2 0.1 0.7 0.3 0.7 0.3 0-0.1 0-0.7-0.3-1z"/>
		<path id="&lt;Compound Path&gt;" fill-rule="evenodd" class="s0" d="m33.9 19.5c-0.6 2.5-2.7 2.5-3.2 2.5-1-0.2-1.9-1-2.8-1.8-0.8 0.5-1.4 0.9-1.6 1 0 0-1.9 1.2-3.6 1.2-4.2 0.3-4.6-3.2-4.8-3.9q0-0.2-0.1-0.9c-0.3 0.7-0.9 1.6-2.1 2.1q0.1 0.5 0.1 1.1c0 0.3-0.1 1.7-2.2 3.2-0.3 0.2-2.9 2.4-6 1.6-1.2-0.3-2.5-1.5-2.4-3.9 0.1-1 0.4-2.2 0.6-2.7-0.5-0.2-0.7-0.9-0.8-1.3-0.2-2 0.5-3.8 0.6-4.3 0.2-0.5 0.3-0.3 0.2 0.1 0 0-0.1 0.6-0.2 0.9-0.4 1.9-0.1 2.8 0 3 0.5 0.9 1.1 0.4 1.3-0.3 0.1-0.4 0.2-0.2 0.2-0.1q0 0.2-0.1 0.6c-0.2 1.2-0.6 1.5-0.9 1.5q-0.1 0-0.1 0 0 0 0 0.1c-0.1 0.4-1 3.8 1.2 4.8 0.4 0.2 2.2 1.3 5.3-0.7 2.6-1.6 2.8-2.7 2.7-3.4q-0.2 0.1-0.4 0.2c-0.2 0-1.4 0.4-2.4-0.1-1-0.7-0.7-2.3 0.2-3 0.3-0.2 1.2-0.9 2.3 0.5 0.1 0.2 0.4 0.6 0.6 1.1 0.7-0.3 1.5-0.9 2.1-2.1-0.3-1.4-0.6-3.1-0.6-3.4-0.1-0.5-0.8-4.6-0.9-5 0 0 0.3-0.9 0.4-1 0-0.1 0.1-0.4 0.2-0.1 0.1 0.4 0.9 5 1 5.9 0.7 4.3 1.2 6.4 1.6 6.9 1.8 2.7 5.9 0.6 6.4 0.4 0.4-0.2 0.9-0.4 1.5-0.7q-0.7-0.7-1.2-1.1c-0.2 0-1-0.3-1.8 0.2-0.1 0.1-0.2 0-0.1-0.1 0-0.1 0-0.5 0.1-0.8 0.1-0.3 0.4-0.5 0.6-0.6 3.1-1.4 6.5-0.3 7-0.1 0 0-0.1 1-0.2 1.3-0.8 0.3-1.8 0.8-2.7 1.3 0.3 0.3 0.5 0.5 0.8 0.6 1.6 1 3.2-0.3 3.5-0.5 0.2-0.2 0.2-0.6 0.1-1.1-0.1-0.5-2.1-10.5-2.2-11-0.1-0.4-0.2-0.7-0.2-0.7 0 0 0.3-1 0.4-1.1 0-0.2 0.1-0.1 0.1 0 0.1 0.1 1.6 3.3 1.7 3.4 0.1 0.2-0.1 0.3-0.2 0.2-0.1-0.1-0.8-0.7-0.8-0.7l1.5 6.9c0.4 1.7 0.3 3.5 0.3 3.9zm-19.3-0.7q-0.2-0.3-0.5-0.5c-0.3-0.1-1-0.3-1.3 0-0.2 0.1-0.2 0.3 0 0.4 0.2 0.1 0.9 0.3 1.8 0.1zm13.6 0.1c0.9-0.6 1.7-1.1 1.7-1.1-1.1-0.1-2-0.1-2.8 0 0.3 0.2 0.7 0.7 1.1 1.1z"/>
		<path id="&lt;Path&gt;" class="s0" d="m35.4 5.8c0 0.1 1.4 3.3 1.4 3.5 0.1 0.2 0 0.2-0.2 0.1-0.1-0.1-0.7-0.7-0.7-0.7 0 0 1.2 8.8 1.2 9 0.3 1.7 0.3 3 0.3 3.8-0.1 1.1-0.3 1.5-0.3 1.6-0.1 0.2-0.2 0.1-0.2-0.1 0-0.6-0.1-1.8-0.3-3.1-0.3-2.6-1.5-11-1.7-12.4 0-0.2-0.1-0.6-0.1-0.7 0 0 0.4-1 0.4-1.1 0.1-0.1 0.1 0 0.2 0.1z"/>
		<path id="&lt;Compound Path&gt;" fill-rule="evenodd" class="s0" d="m41.9 8.6c-0.1 0.1-0.2 0-0.3-0.1 0-0.1-0.4-0.4-0.4-0.4 0 0-0.5 1-1.2 1.5-1.5 1.1-2.7 1.3-2.7 1.3-0.2 0.1-0.2-0.1 0-0.2 0.9-0.5 2-0.9 3.5-2.8 0 0-0.5-0.2-0.8-0.4-0.3-0.3-0.2-1.1 0.1-1.5 0.6-0.9 1.1-0.4 1.2-0.3 0.5 0.9 0.2 1.8 0.2 1.8 0.3 0.2 0.6 0.5 0.4 1.1zm-1-2.3c-0.1-0.1-0.3-0.1-0.6 0.3-0.1 0.2 0 0.3 0.2 0.4 0.2 0.1 0.7 0.3 0.7 0.3 0-0.2 0-0.7-0.3-1z"/>
		<path id="&lt;Path&gt;" class="s0" d="m20 4c0 0.1-0.2 0.5-0.2 0.6q0 0-0.1 0.1c0 0-1.4 0.6-4.6 2-1.1 0.4-2.5 1.2-2.3 1.4 0.4 0.5 1.1 0.4 0.5 1.4 0-0.2-0.2-0.4-0.4-0.5-0.3-0.2-0.5-0.6 0-1.4 0.5-0.8 1.8-1.3 2-1.4 1.4-0.6 4.8-2.1 4.9-2.1 0.1-0.1 0.2-0.1 0.2-0.1z"/>
	</g>
</svg>