<svg version="1.2" xmlns="http://www.w3.org/2000/svg" viewBox="0 0 70 30" width="70" height="30">
	<title>New Project</title>
	<style>
		.s0 { fill: #191c4f } 
	</style>
	<g id="القدر">
		<path id="&lt;Path&gt;" class="s0" d="m20.3 22.5c0.2 0.1 0.2 0.5 0.2 0.7-0.3 0.8-0.9 1.3-1 1.5-0.2 0.1-0.2 0-0.1-0.1 0 0 0.2-0.2 0.3-0.3 0.5-0.6 0.5-1 0.5-1.1-0.1-0.4-0.4-0.3-0.6-0.1-0.1 0.1-0.1 0-0.1 0q0-0.1 0.1-0.2c0.3-0.4 0.5-0.4 0.7-0.4z"/>
		<path id="&lt;Path&gt;" class="s0" d="m11.8 22.3c0 0.1 0 0.2-0.1 0.3 0 0.1-0.1 0.2-0.2 0.3-0.2 0.1-3.3 1.6-3.5 1.7-0.3 0.1-0.2 0-0.2-0.1q0 0 0-0.2c0.1-0.1 0.1-0.2 0.3-0.3 0.2-0.1 3.3-1.6 3.5-1.7 0.3-0.2 0.3-0.1 0.2 0z"/>
		<path id="&lt;Path&gt;" class="s0" d="m63.4 20.1c0 0 0 0.2 0 0.5 0 0.2-0.1 0.5-0.2 0.8-0.1 0.3-0.7 0.4-1.2 0.1-0.7 1.2-1.4 0.6-1.7 0.5-0.7-0.3-0.9 0.1-1 0.3-0.9 0.9-2.4 0.9-2.7 0.9-0.4 0.1-0.1-0.1 0.1-0.2 1.2-0.4 1.9-0.5 2.9-1.5 0.5-0.5 0.8-0.2 1-0.2 1 0.5 1.1 0 1.2-0.1 0.2-0.1 0.4-0.6 0.4-0.8 0.1-0.1 0.2 0 0.1 0.1 0 0.1 0 0.3 0 0.4 0.4 0.3 0.8 0 0.9-0.1 0 0-0.1-0.3-0.1-0.4q0-0.1 0.2-0.5c0-0.3 0.1 0 0.1 0.2z"/>
		<path id="&lt;Compound Path&gt;" fill-rule="evenodd" class="s0" d="m45 18.7c-0.3 0.9-1.7 1.5-2 1.6-1.2 0.4-1.3-0.9-1.3-1.8 0.1-0.9 0.8-2 0.8-2-0.1-0.1-1.4-1.1-1.5-1.2-0.1-0.1-0.2-0.3-0.3-0.3-0.2-0.1-0.1-0.2-0.1-0.2 0 0 0-0.9 0-1 0-0.1 0-0.1 0.1 0 0.1 0 1.6 0.6 1.7 0.7 0.2 0 0.1 0.1 0 0.2-0.1 0-0.5 0.1-0.5 0.1l1.1 0.8c0 0 1.7-2.1 1.8-2.3 0.2-0.2 0.2-0.1 0.1 0.2 0 0.2-0.3 1.1-0.4 1.2-0.1 0.1-0.9 1.3-0.9 1.3 0 0 1.1 0.6 1.3 1 0.5 0.7 0.2 1.3 0.1 1.7zm-2-1.9c0 0-0.7 1.2-0.8 1.5-0.4 0.7 0.4 0.8 0.6 0.8 0.3 0 1.3-0.5 1.7-0.9 0.5-0.4-1.2-1.2-1.5-1.4z"/>
		<path id="&lt;Path&gt;" class="s0" d="m11.1 12.6c0 0-0.1 0.4-0.2 0.7-0.4 1.4-0.2 2.1-0.1 2.2 0.3 0.7 0.8 0.4 0.9-0.2 0.1-0.2 0.2-0.1 0.2 0q-0.1 0.1-0.1 0.5c-0.3 0.8-0.6 1-0.8 1-0.5 0-0.7-0.7-0.7-1.1 0-1.5 0.5-2.8 0.7-3.2 0.1-0.4 0.2-0.2 0.1 0.1z"/>
		<path id="&lt;Path&gt;" class="s0" d="m5.8 17.5c0 0-0.1 0.3-0.2 0.5-0.3 1-0.2 1.5-0.1 1.6 0.2 0.5 0.5 0.2 0.7-0.1 0-0.2 0.1-0.1 0.1-0.1q-0.1 0.1-0.1 0.4c-0.2 0.6-0.4 0.7-0.6 0.7-0.3 0-0.4-0.5-0.4-0.8-0.1-1.1 0.3-2 0.4-2.2 0.1-0.3 0.2-0.2 0.2 0z"/>
		<path id="&lt;Compound Path&gt;" fill-rule="evenodd" class="s0" d="m64.9 17.5c-0.1 0.2-0.3 1.2-1.6 0.9-0.4-0.1-1-0.2-1.3-0.9-0.3 0.4-1.1 1.6-2.6 1.4-0.3-0.1-1.4-0.4-1.4-1.8 0 0-1.3 1-1.8 1.3 0 0.5 0 1.1-0.2 1.7-0.3 0.6-2.9 3.6-5.1 4-0.7 0.2-3.5 0.7-3.6-2.4q0-0.9 0.1-1.5c-1.7 1.4-3.8 2.4-4.4 2.7-0.9 0.4-4.1 0.9-4.6 1-0.4 0.1-0.5 0-0.2-0.1 0.2-0.2 7.2-2.5 10.9-6.4q0.1-0.2-0.1-0.4c-0.1-0.2-1.2-2.4-1.3-2.7-0.1-0.3-0.3-0.7-0.3-0.8q-0.1-0.1-0.1-0.3c0.1-0.1 0.2-0.7 0.2-0.8 0-0.2 0.1-0.1 0.2 0 0 0.1 1.2 1.2 1.3 1.4 0.2 0.1 0.1 0.2 0 0.2 0 0-0.6 0-0.6 0 0 0 0.7 1.3 1 1.7 0.4 1.1 0.2 1.9 0 2.3-0.3 0.7-0.9 1.3-1.6 1.9-0.2 0.6-0.4 3.1 2 3.2 0.4 0 1.6 0.1 4-1.8 0.5-0.5 1.1-1 1.7-1.8 0.2-0.3 0.3-0.8-0.1-0.8-0.4 0.1-2.8 1-3.2-0.5-0.1-0.4 0.1-4 2.6-2.2 0.2 0.2 0.7 0.6 1 1.3 0.4-0.2 1.2-0.6 2.1-1.4 0.3-0.2 0.6-0.3 0.6 0 0 0.3-0.2 2.4 2 1.8 0.2-0.1 1.2-0.3 1.9-2.1 0.2-0.4 0.4-0.3 0.3 0-0.2 0.5-0.4 0.9-0.2 1.1 0.2 0.2 0.8 0.6 1.6 0.5 0.3 0 0.5-0.1 0.4-0.4-0.1-0.2-0.4-0.6-0.4-0.6 0.1-0.3 0.2-0.8 0.2-0.9 0-0.1 0.1-0.2 0.2-0.1 0.1 0.1 0.8 1 0.4 2.3zm-10.1 0.1c-0.8-1-1.8-0.4-1.9-0.3-0.1 0.1-0.1 0.4 0.6 0.4 0.9 0.1 1.3-0.1 1.3-0.1z"/>
		<path id="&lt;Path&gt;" class="s0" d="m27.2 16.4c0.1 0.2 0.1 0.5 0 0.8-0.1 0.1-0.2 0-0.3-0.2 0 0-0.1-0.1-0.2-0.2-0.5-0.4-0.7 0.4-0.7 0.8 0 0.3-0.1 1.2-0.1 1.7 0 0.2-0.2 0.2-0.2 0.1-0.4-1.1-1-1.6-1.1-1.7-0.1-0.2-0.2 0-0.2 0.1-0.1 0.1-0.1 0.1-0.2 0 0 0-0.4-0.2-0.5-0.3-0.1-0.2-0.1-0.6-0.1-0.8 0-0.3 0.2-0.4 0.3-0.3 1.3 0.7 1.7 1.9 1.8 2.1 0-0.9 0-1.8 0.5-2.4 0.4-0.6 1 0.2 1 0.3z"/>
		<path id="&lt;Path&gt;" class="s0" d="m31.9 13.1l1 0.7q0 0.1 0 0.1l-0.6 0.8q0 0.1-0.1 0l-1-0.7-0.5 0.7q0 0.1 0 0l-1-0.7q-0.1 0 0-0.1l0.5-0.8q0.1 0 0.1 0l1 0.7 0.5-0.7q0 0 0.1 0z"/>
		<path id="&lt;Path&gt;" class="s0" d="m43.7 11.1l1 0.7q0 0 0 0.1l-0.6 0.8q-0.1 0-0.1 0l-1-0.7-0.5 0.7q0 0 0 0l-1-0.7q-0.1-0.1-0.1-0.1l0.6-0.8q0.1 0 0.1 0l1 0.7 0.5-0.7q0 0 0.1 0z"/>
		<path id="&lt;Path&gt;" class="s0" d="m62.3 11.1c0 0 0 0.3-0.1 0.5-0.3 0.8-0.1 1.2-0.1 1.3 0.3 0.5 0.6 0.2 0.7-0.1 0.1-0.2 0.1-0.1 0.1 0q0 0.1-0.1 0.3c-0.1 0.5-0.3 0.6-0.5 0.6-0.3 0-0.5-0.4-0.5-0.6-0.1-1 0.3-1.8 0.4-2 0.1-0.3 0.2-0.2 0.1 0z"/>
		<path id="&lt;Path&gt;" class="s0" d="m52.4 10.6c0 0-0.1 0.3-0.1 0.5-0.4 0.9-0.2 1.4-0.1 1.5 0.2 0.4 0.6 0.2 0.7-0.2 0.1-0.2 0.1-0.1 0.1 0q0 0.1-0.1 0.3c-0.1 0.6-0.4 0.7-0.5 0.7-0.4 0-0.6-0.5-0.6-0.7 0-1 0.4-1.9 0.5-2.1 0.1-0.3 0.2-0.2 0.1 0z"/>
		<path id="&lt;Path&gt;" class="s0" d="m32.7 8.4c-0.1 0.1-0.1 0.1-0.2 0.3-0.1 0.3-0.2 0.3-0.5 0.4-0.2 0.2-10.3 4.9-10.4 4.9-0.4 0.2-0.4 0.1-0.3 0q0-0.1 0.1-0.4c0-0.2 0.1-0.3 0.4-0.4 0.3-0.1 10.3-4.8 10.6-5 0.4-0.1 0.4 0 0.3 0.2z"/>
		<path id="&lt;Path&gt;" class="s0" d="m19.2 7.5c0.6 0.1 0.4 0.3 0.3 0.5-0.4 0.6-1 0.9-1.4 1.1-0.4 0.2-0.2-0.2 0.1-0.3 0 0 0.2-0.2 0.6-0.5 0.3-0.2-0.6-0.2-1.1-0.2-0.4 0-0.5 0.1-0.6 0.3-0.1 0.1-0.3 0.1-0.2-0.1 0.1-0.2 0.2-0.4 0.5-0.7 0.3-0.4 1.2-0.2 1.8-0.1z"/>
		<path id="&lt;Path&gt;" class="s0" d="m15.1 7.3c0.1 0.2 0 0.6-0.1 0.8 0 0.2-0.2 0-0.3-0.1 0 0-0.1-0.1-0.2-0.2-0.4-0.4-0.6 0.4-0.7 0.7 0 0.3-0.1 1.2-0.1 1.7-0.1 0.2-0.2 0.2-0.3 0.1-0.3-1.1-0.9-1.7-1-1.8-0.1-0.1-0.2 0.1-0.2 0.1 0 0.1-0.1 0.1-0.2 0.1 0-0.1-0.4-0.3-0.5-0.4-0.1-0.1-0.1-0.6 0-0.7 0-0.3 0.2-0.4 0.3-0.4 1.2 0.8 1.6 2 1.7 2.2 0-0.9 0.1-1.8 0.6-2.4 0.4-0.5 1 0.2 1 0.3z"/>
		<path id="&lt;Path&gt;" class="s0" d="m26.2 7.3c0.1 0.2 0 0.6-0.1 0.8 0 0.1-0.2 0-0.3-0.1 0 0-0.1-0.2-0.2-0.2-0.5-0.4-0.6 0.4-0.7 0.7 0 0.3 0 1.2-0.1 1.7 0 0.2-0.1 0.2-0.2 0.1-0.4-1.1-1-1.6-1.1-1.7-0.1-0.1-0.2 0-0.2 0.1 0 0.1-0.1 0.1-0.1 0-0.1 0-0.5-0.2-0.6-0.3-0.1-0.1-0.1-0.6-0.1-0.7 0-0.3 0.2-0.4 0.3-0.4 1.3 0.7 1.7 1.9 1.8 2.1 0-0.9 0-1.8 0.5-2.4 0.4-0.6 1 0.2 1.1 0.3z"/>
		<path id="&lt;Compound Path&gt;" fill-rule="evenodd" class="s0" d="m36.2 20.5c-0.5 2.1-2.7 2-3 2-0.9-0.1-1.5-0.8-1.9-1.6q-0.3 0.2-0.5 0.2c-4 2.5-7.5 1.8-8 1.6-2.5-0.8-2.6-3.3-2.6-3.3-0.1 0.2-0.6 1.1-1 1.5-3.1 3-4.4 2.9-4.9 2.8-2.3-0.5-1.5-3.3-1.2-4.3-1.6 1.3-3.6 2.2-4.1 2.5-0.9 0.4-4.1 1-4.7 1.1-0.3 0-0.4-0.1-0.2-0.2 0.3-0.1 7.3-2.5 10.9-6.3q0.2-0.2 0-0.5c-0.1-0.2-1.2-2.4-1.3-2.7-0.1-0.3-0.3-0.6-0.4-0.7q0-0.2 0-0.4c0-0.1 0.1-0.7 0.2-0.8 0-0.1 0.1-0.1 0.1 0 0.1 0.1 1.3 1.3 1.4 1.4 0.1 0.2 0 0.2 0 0.2-0.1 0-0.6 0-0.6 0 0 0 0.7 1.3 1 1.8 0.4 1 0.2 1.9 0 2.2-0.4 0.7-1 1.4-1.8 2q0 0.1 0 0.2c-0.5 1.1-0.4 2-0.3 2.3 0.5 1.7 2.1 0.9 2.5 0.7 1.1-0.5 3-2 3.6-2.6 0.5-0.5 0.6-1.1 0.5-1.3-0.2-1.6-1.6-5-1.8-5.5 0 0 0.1-1.3 0.2-1.2 2.1 2.5 2.3 6.8 2.5 7.5 0.2 1.1 0.7 1.6 1.1 1.9 1.1 0.7 3 0.8 4.1 0.7 1.9-0.3 3.6-1.1 4-1.2q0.5-0.2 0.9-0.5c-0.1-0.4-0.2-0.7-0.2-0.8-0.4-1.1-0.1-2.4 0.2-2.9 0.8-1 1.5-0.4 1.7-0.2 0.9 1.1 0.7 1.9 0.7 2.3-0.3 1-0.8 1.6-1.3 2 0.5 0.7 1 0.7 1.1 0.8 1.2 0.3 2.5-0.8 2.6-0.9 0.1-0.2-1.8-11.7-1.9-12.2-0.1-0.4-0.2-0.6-0.2-0.7 0 0 0.4-0.8 0.5-0.9 0-0.1 0.1-0.1 0.1 0 0 0.1 1.2 3 1.3 3.2 0.1 0.1-0.1 0.2-0.2 0.1-0.1-0.1-0.6-0.7-0.6-0.7 0 0 1.3 8 1.4 8.8 0.1 0.8 0.2 2 0.1 2.6zm-4.6-0.9c0.6-0.4 1-0.8 1.2-1 0.3-0.3-0.3-1-0.7-1.4-0.4-0.5-0.8-0.1-0.9 0-0.4 0.4 0 1.4 0.1 1.8q0.1 0.3 0.3 0.6z"/>
		<path id="&lt;Path&gt;" class="s0" d="m37.4 6.5c0 0.1 1.2 3 1.3 3.2 0.1 0.1-0.1 0.2-0.2 0.1 0-0.1-0.6-0.7-0.6-0.7 0 0 1.1 7.8 1.1 8q0.3 2.3 0.2 3.4c0 1-0.2 1.4-0.3 1.4 0 0.2-0.1 0.1-0.1 0 0-0.6-0.1-1.6-0.3-2.8-0.3-2.3-1.3-9.8-1.5-11.1 0-0.1-0.1-0.5-0.1-0.5 0 0 0.3-0.9 0.4-1 0-0.1 0.1-0.1 0.1 0z"/>
		<path id="&lt;Path&gt;" class="s0" d="m51.5 6.6c0 0.1 0 0.1-0.1 0.3-0.1 0.1-0.2 0.2-0.3 0.3-0.2 0.1-5.4 3.1-5.5 3.2-0.3 0.2-0.3 0-0.3-0.1q0.1 0 0.1-0.2c0-0.2 0.1-0.2 0.3-0.4 0.2-0.1 5.4-3.1 5.6-3.2 0.3-0.2 0.3-0.1 0.2 0.1z"/>
		<path id="&lt;Path&gt;" class="s0" d="m57.9 6.9c0.1 0.2 0 0.6-0.1 0.8-0.1 0.2-0.2 0-0.3-0.1 0 0-0.2-0.1-0.3-0.2-0.5-0.5-0.7 0.4-0.8 0.8 0 0.3-0.1 1.3-0.1 1.8-0.1 0.3-0.2 0.2-0.3 0.1-0.3-1.2-1-1.8-1.1-1.9-0.2-0.1-0.3 0-0.3 0.1 0 0.1-0.1 0.1-0.1 0.1-0.1-0.1-0.5-0.3-0.6-0.5-0.2-0.1-0.1-0.6-0.1-0.7 0-0.4 0.2-0.5 0.3-0.4 1.4 0.8 1.9 2.1 2 2.4 0-1.1 0.1-2 0.6-2.7 0.5-0.5 1.1 0.3 1.2 0.4z"/>
		<path id="&lt;Compound Path&gt;" fill-rule="evenodd" class="s0" d="m63 9.1c-0.1 0.1-0.1 0-0.2-0.1-0.1-0.1-0.2-0.3-0.4-0.4-0.2 0.5-0.2 0.5-1.1 1.3-1.9 1.6-4 2.2-4.1 2.2-0.1 0.1-0.2 0 0-0.2 0.7-0.5 3.4-1.7 4.8-3.4 0 0-0.4-0.2-0.7-0.4-0.3-0.2-0.2-1 0.1-1.3 0.5-0.8 1-0.4 1-0.3 0.5 0.8 0.3 1.6 0.3 1.6 0.2 0.2 0.5 0.5 0.3 1zm-0.9-2.1c-0.1 0-0.3-0.1-0.5 0.3-0.1 0.1 0 0.3 0.2 0.3 0.1 0.1 0.5 0.3 0.5 0.3 0.1-0.1 0.1-0.6-0.2-0.9z"/>
		<path id="&lt;Compound Path&gt;" fill-rule="evenodd" class="s0" d="m43.4 8.8c-0.1 0.1-0.1 0-0.2-0.1-0.1-0.1-0.4-0.4-0.4-0.4 0 0-0.4 0.9-1.1 1.5-1.3 1-2.4 1.1-2.5 1.1-0.1 0.1-0.2 0 0.1-0.2 0.8-0.4 1.7-0.8 3.1-2.5 0 0-0.4-0.2-0.7-0.4-0.3-0.2-0.2-1 0.1-1.3 0.5-0.8 1-0.4 1-0.3 0.5 0.8 0.3 1.6 0.3 1.6 0.2 0.2 0.5 0.5 0.3 1zm-0.9-2.1c-0.1 0-0.3-0.1-0.5 0.3-0.1 0.2 0 0.3 0.2 0.3 0.1 0.1 0.5 0.3 0.5 0.3 0.1-0.1 0.1-0.6-0.2-0.9z"/>
		<path id="&lt;Path&gt;" class="s0" d="m8.8 7.4c0.1 0.2 0.1 0.7 0 1-0.1 0.2-0.3 0-0.4-0.2 0 0-0.2-0.1-0.3-0.2-0.6-0.5-0.8 0.5-0.8 1-0.1 0.3 0 2-0.5 3.1-0.5 1.4-0.2 2-0.2 2.1 0.3 0.7 0.8 0.4 1-0.1 0.1-0.3 0.2-0.1 0.1 0q0 0.1-0.1 0.4c-0.2 0.8-0.5 1-0.8 1-0.5 0-0.6-0.7-0.6-1.1-0.1-1.5 0.9-2.9 0.5-3.7-0.5-1-1.1-1.5-1.3-1.6-0.1-0.1-0.2 0.1-0.2 0.2 0 0.1-0.1 0.1-0.2 0-0.1 0-0.5-0.3-0.7-0.4-0.2-0.1-0.1-0.7-0.1-0.9 0-0.4 0.2-0.5 0.3-0.5 1.7 0.8 2.3 2.4 2.4 2.6 0-1.1 0-2.2 0.6-3.1 0.4-0.6 1.2 0.3 1.3 0.4z"/>
	</g>
</svg>