<svg version="1.2" xmlns="http://www.w3.org/2000/svg" viewBox="0 0 70 30" width="70" height="30">
	<title>New Project</title>
	<style>
		.s0 { fill: #191c4f } 
	</style>
	<g id="البينة">
		<path id="&lt;Path&gt;" class="s0" d="m26.8 24c0 0.1 0 0.1-0.1 0.3-0.1 0.2-0.3 0.2-0.5 0.3-0.2 0.1-5 1.7-5.1 1.8-0.4 0.1-0.3 0-0.3-0.1q0.1 0 0.1-0.3c0.1-0.2 0.2-0.2 0.4-0.3 0.3-0.1 5-1.7 5.3-1.8 0.4-0.1 0.3 0 0.2 0.1z"/>
		<path id="&lt;Path&gt;" class="s0" d="m29.3 22l1.1 0.8q0 0 0 0.1l-0.6 0.9q-0.1 0-0.1 0l-1.1-0.8q-0.1 0 0-0.1l0.6-0.9q0 0 0.1 0z"/>
		<path id="&lt;Path&gt;" class="s0" d="m24.3 21.9l1.1 0.8q0.1 0 0 0.1l-0.6 0.8q-0.1 0.1-0.1 0.1l-1.1-0.8-0.5 0.7q-0.1 0.1-0.1 0.1l-1.1-0.8q-0.1-0.1 0-0.1l0.6-0.9q0.1-0.1 0.1 0l1.1 0.7 0.5-0.7q0.1-0.1 0.1 0z"/>
		<path id="&lt;Path&gt;" class="s0" d="m13.7 22c0 0.1-0.1 0.1-0.2 0.3 0 0.2-0.2 0.2-0.4 0.4-0.2 0.1-4 1.6-4.1 1.6-0.3 0.2-0.3 0.1-0.2 0q0-0.1 0-0.3c0.1-0.2 0.2-0.3 0.4-0.4 0.3-0.1 4-1.6 4.3-1.7 0.3-0.2 0.3 0 0.2 0.1z"/>
		<path id="&lt;Path&gt;" class="s0" d="m18.8 21.4c0.4 0.1 0.4 0.6 0.4 0.8-0.2 1-0.8 1.7-1 1.9-0.1 0.2-0.2 0-0.1-0.1 0 0 0.2-0.3 0.3-0.4 0.5-0.8 0.4-1.2 0.4-1.3-0.1-0.5-0.5-0.4-0.7-0.1-0.1 0.2-0.1 0.1-0.1 0q0-0.1 0.1-0.3c0.3-0.5 0.6-0.5 0.7-0.5z"/>
		<path id="&lt;Path&gt;" class="s0" d="m64.1 19.5c0 0 0 0.3 0 0.6 0 0.2-0.1 0.5-0.2 0.9-0.1 0.3-0.9 0.5-1.3 0.1-0.8 1.3-1.6 0.7-2 0.5-0.7-0.3-0.9 0.2-1.1 0.4-0.9 1-2.6 1-3 1-0.3 0.1 0-0.2 0.1-0.3 1.4-0.4 2.2-0.5 3.3-1.6 0.5-0.5 0.9-0.3 1.1-0.2 1.1 0.5 1.2 0 1.4-0.1 0.1-0.1 0.3-0.7 0.4-0.9 0.1-0.2 0.2-0.1 0.1 0.1 0 0.1-0.1 0.3-0.1 0.4 0.5 0.4 0.9 0.1 1 0 0 0 0-0.4 0-0.5q0-0.1 0.1-0.6c0.1-0.2 0.2 0 0.2 0.2z"/>
		<path id="&lt;Path&gt;" class="s0" d="m17.9 13.3l1.1 0.8q0 0 0 0.1l-0.6 0.8q-0.1 0.1-0.1 0.1l-1.1-0.8q-0.1-0.1 0-0.1l0.6-0.9q0-0.1 0.1 0z"/>
		<path id="&lt;Path&gt;" class="s0" d="m11.6 12.6l1.1 0.8q0 0 0 0.1l-0.7 0.9q0 0-0.1 0l-1-0.8-0.6 0.8q0 0-0.1 0l-1.1-0.8q0-0.1 0-0.1l0.7-0.9q0 0 0 0l1.1 0.8 0.6-0.8q0 0 0.1 0z"/>
		<path id="&lt;Compound Path&gt;" fill-rule="evenodd" class="s0" d="m43.8 18c-0.3 1.1-1.9 1.7-2.2 1.8-1.4 0.4-1.5-1-1.4-2 0.1-1 0.8-2.2 0.8-2.2-0.1-0.1-1.5-1.2-1.6-1.3-0.2-0.1-0.3-0.3-0.4-0.4-0.2-0.1-0.1-0.1-0.1-0.1 0 0 0-1.1 0-1.2 0-0.1 0-0.1 0.2 0 0.1 0 1.6 0.7 1.8 0.7 0.2 0.1 0.1 0.2 0 0.3-0.1 0-0.6 0.1-0.6 0.1l1.3 1c0 0 1.8-2.4 2-2.6 0.1-0.2 0.1-0.1 0.1 0.1-0.1 0.3-0.4 1.3-0.5 1.4-0.1 0.2-1 1.4-1 1.4 0 0 1.2 0.7 1.5 1.2 0.5 0.7 0.2 1.4 0.1 1.8zm-2.3-2.1c0 0-0.8 1.4-0.9 1.6-0.3 0.9 0.5 1 0.8 1 0.3-0.1 1.3-0.6 1.8-1 0.6-0.4-1.4-1.4-1.7-1.6z"/>
		<path id="&lt;Compound Path&gt;" fill-rule="evenodd" class="s0" d="m65.7 16.7c0 0.2-0.3 1.3-1.8 1-0.3-0.1-1.1-0.2-1.4-1-0.3 0.4-1.2 1.8-2.8 1.5-0.4 0-1.6-0.5-1.6-1.9 0 0-1.4 1.1-2 1.4 0.1 0.6 0 1.2-0.2 1.8-0.3 0.7-3.2 4-5.6 4.5-0.8 0.2-3.9 0.8-4-2.6 0-0.8 0-1.3 0.1-1.7-1.9 1.5-4.2 2.6-4.8 2.9-1 0.5-4.5 1.1-5.1 1.2-0.5 0.1-0.5-0.1-0.3-0.2 0.3-0.1 8-2.7 12.1-7q0.1-0.2-0.1-0.5c-0.1-0.2-1.3-2.6-1.5-3-0.1-0.3-0.2-0.7-0.3-0.8q-0.1-0.2-0.1-0.4c0.1-0.1 0.2-0.7 0.2-0.9 0.1-0.1 0.1-0.1 0.2 0 0.1 0.1 1.4 1.4 1.5 1.6 0.2 0.1 0 0.2 0 0.2-0.1 0-0.7 0-0.7 0 0 0 0.8 1.4 1.1 1.9 0.5 1.2 0.2 2.1 0.1 2.5-0.4 0.8-1.1 1.5-1.9 2.2-0.1 0.6-0.4 3.4 2.2 3.4 0.5 0 1.8 0.2 4.4-1.9 0.7-0.6 1.3-1.1 1.9-2 0.3-0.3 0.4-0.9 0-0.8-0.4 0-3.2 1-3.6-0.6-0.1-0.5 0.2-4.4 2.8-2.4 0.3 0.1 0.8 0.6 1.2 1.4 0.5-0.2 1.3-0.7 2.4-1.6 0.3-0.2 0.5-0.4 0.5 0 0 0.4-0.2 2.7 2.3 2 0.2-0.1 1.3-0.3 2-2.3 0.3-0.4 0.5-0.4 0.4 0-0.2 0.5-0.5 0.9-0.2 1.2 0.2 0.2 0.9 0.7 1.8 0.6 0.3 0 0.5-0.2 0.4-0.4-0.2-0.3-0.5-0.8-0.5-0.8 0.1-0.3 0.2-0.8 0.3-0.9 0-0.2 0.1-0.3 0.2-0.2 0.1 0.2 0.9 1.2 0.4 2.6zm-11.1 0.1c-0.9-1.1-2-0.5-2.1-0.4-0.1 0.2-0.2 0.5 0.7 0.6 1 0 1.4-0.2 1.4-0.2z"/>
		<path id="&lt;Path&gt;" class="s0" d="m6.1 10.6c0 0-0.1 0.5-0.2 0.9-0.7 1.8-0.4 2.7-0.4 2.9 0.4 1 1 0.5 1.2-0.2 0.2-0.4 0.2-0.2 0.2 0q0 0.2-0.1 0.6c-0.3 1.1-0.7 1.4-1 1.4-0.6-0.1-0.8-1-0.8-1.5 0-2.1 0.8-3.8 1-4.3 0.2-0.5 0.3-0.3 0.1 0.2z"/>
		<path id="&lt;Path&gt;" class="s0" d="m29.5 10.4c0 0-0.1 0.6-0.3 0.9-0.6 1.9-0.3 2.8-0.3 3 0.4 0.9 1 0.5 1.2-0.2 0.1-0.4 0.2-0.2 0.2 0q-0.1 0.1-0.2 0.5c-0.3 1.2-0.7 1.4-1 1.4-0.5 0-0.7-1-0.7-1.4 0-2.1 0.7-3.8 0.9-4.3 0.2-0.5 0.3-0.3 0.2 0.1z"/>
		<path id="&lt;Path&gt;" class="s0" d="m42.3 9.6l1.1 0.8q0 0.1 0 0.1l-0.6 0.9q-0.1 0-0.1 0l-1.1-0.8-0.6 0.8q0 0 0 0l-1.1-0.8q-0.1 0-0.1-0.1l0.7-0.9q0 0 0.1 0l1 0.8 0.6-0.8q0 0 0.1 0z"/>
		<path id="&lt;Path&gt;" class="s0" d="m62.9 9.7c0 0-0.1 0.2-0.1 0.4-0.4 1-0.2 1.4-0.2 1.5 0.3 0.5 0.7 0.3 0.8-0.1 0.1-0.2 0.1-0.1 0.1 0q0 0.1 0 0.3c-0.2 0.6-0.5 0.7-0.6 0.7-0.4 0-0.6-0.5-0.6-0.7-0.1-1 0.4-1.9 0.5-2.2 0.1-0.3 0.2-0.1 0.1 0.1z"/>
		<path id="&lt;Path&gt;" class="s0" d="m52 9.1c0 0-0.1 0.3-0.2 0.5-0.4 1.1-0.2 1.5-0.1 1.6 0.3 0.6 0.6 0.3 0.8-0.1 0.1-0.2 0.1-0.1 0.1 0q0 0.1-0.1 0.3c-0.1 0.6-0.4 0.8-0.6 0.8-0.4 0-0.6-0.5-0.6-0.8-0.1-1.1 0.4-2.1 0.5-2.4 0.1-0.3 0.2-0.1 0.2 0.1z"/>
		<path id="&lt;Path&gt;" class="s0" d="m23.1 8.6c0 0 0.1 0.4 0.3 0.7 0.1 0.2 0.2 0.5 0.2 0.9-0.1 0.4-0.3 0.7-0.5 0.8-0.2 0-0.6 0-0.9-0.4-0.4 0.7-0.9 0.9-1.2 0.7-0.3-0.1-0.3-0.7-0.3-0.9 0-0.1 0-0.7 0-0.8 0-0.1 0-0.2 0.1-0.4 0.1-0.1 0.1 0 0.1 0.1 0 0.2-0.1 0.9 0.1 1.2 0.3 0.5 0.9 0.1 1-0.2 0.2-0.2-0.1-1-0.1-1q-0.1-0.1-0.1-0.2c0 0 0.1-0.2 0.1-0.4q0.1-0.1 0.2 0c0.1 0.2 0.1 0.4 0.2 1.1 0.1 0.7 0.8 0.6 0.9 0.5 0.2 0 0.2-0.1 0.1-0.2 0-0.1-0.3-0.7-0.4-1-0.1-0.2 0-0.4 0-0.6 0.1-0.3 0.2-0.1 0.2 0.1z"/>
		<path id="&lt;Path&gt;" class="s0" d="m31.4 7.9c-0.1 0.1-0.1 0.1-0.2 0.3-0.1 0.2-0.2 0.2-0.4 0.3-0.2 0.1-5.5 1.8-5.6 1.9-0.3 0.1-0.3 0-0.2-0.1q0 0 0.1-0.3c0-0.2 0.1-0.2 0.4-0.3 0.2-0.1 5.4-1.9 5.6-1.9 0.4-0.2 0.3-0.1 0.3 0.1z"/>
		<path id="&lt;Path&gt;" class="s0" d="m20 7.7c-0.1 0.1-0.1 0.2-0.2 0.4-0.1 0.1-0.2 0.2-0.4 0.3-0.7 0.3-5.7 2-6 2.1h-0.1l-0.1 0.1c-0.2 0-0.2-0.1-0.1-0.2q0 0 0.1-0.3c0.1-0.2 0.1-0.2 0.4-0.3 0.7-0.2 6.5-2.3 6.1-2.2 0.4-0.1 0.4 0 0.3 0.1z"/>
		<path id="&lt;Path&gt;" class="s0" d="m13.4 5c0 0-0.1 0.4-0.1 0.6-0.4 1.1-0.2 1.6-0.2 1.7 0.3 0.6 0.7 0.3 0.9-0.2 0.1-0.2 0.1-0.1 0.1 0q0 0.1 0 0.4c-0.2 0.6-0.5 0.8-0.7 0.8-0.5 0-0.6-0.5-0.7-0.8 0-1.2 0.5-2.2 0.6-2.5 0.1-0.3 0.2-0.2 0.1 0z"/>
		<path id="&lt;Path&gt;" class="s0" d="m11.1 5.2c0.2 0.2 0.1 0.6 0 0.8 0 0.2-0.2 0-0.3-0.1 0 0-0.1-0.1-0.3-0.2-0.5-0.4-0.7 0.5-0.7 0.9 0 0.3 0 1.2 0 1.8-0.1 0.2-0.2 0.2-0.3 0.1-0.4-1.2-1.1-1.7-1.3-1.8-0.1-0.2-0.2 0-0.2 0.1 0 0.1-0.1 0.1-0.1 0.1-0.1-0.1-0.5-0.3-0.6-0.4-0.2-0.1-0.2-0.6-0.2-0.8 0-0.3 0.2-0.4 0.3-0.4 1.5 0.7 2 2 2.1 2.2 0-1 0-1.9 0.5-2.6 0.4-0.6 1.1 0.2 1.1 0.3z"/>
		<path id="&lt;Path&gt;" class="s0" d="m27.7 4.8c0 0-0.1 0.2-0.2 0.4-0.3 0.9-0.1 1.4-0.1 1.5 0.3 0.4 0.6 0.2 0.7-0.2 0.1-0.1 0.2-0.1 0.1 0q0 0.1 0 0.3c-0.2 0.6-0.4 0.7-0.6 0.7-0.4 0-0.5-0.5-0.5-0.7-0.1-1 0.3-1.9 0.4-2.1 0.1-0.2 0.2-0.1 0.2 0.1z"/>
		<path id="&lt;Path&gt;" class="s0" d="m51 4.6c-0.1 0.1-0.1 0.2-0.2 0.4 0 0.1-0.1 0.2-0.3 0.3-0.2 0.1-6 3.5-6.1 3.5-0.3 0.2-0.3 0.1-0.3 0q0.1-0.1 0.1-0.3c0.1-0.2 0.1-0.2 0.4-0.4 0.2-0.1 5.9-3.4 6.1-3.6 0.4-0.2 0.3 0 0.3 0.1z"/>
		<path id="&lt;Path&gt;" class="s0" d="m58 5c0.1 0.2 0 0.7-0.1 0.9-0.1 0.2-0.3 0-0.4-0.1 0 0-0.1-0.2-0.2-0.3-0.6-0.5-0.8 0.5-0.9 0.9-0.1 0.4-0.1 1.4-0.2 2 0 0.3-0.2 0.3-0.3 0.1-0.4-1.3-1.1-2-1.3-2.1-0.1-0.1-0.2 0.1-0.2 0.2 0 0-0.1 0-0.2 0-0.1 0-0.5-0.3-0.6-0.5-0.2-0.1-0.1-0.6-0.1-0.8 0-0.4 0.2-0.5 0.3-0.4 1.6 0.8 2.1 2.4 2.2 2.6 0-1.1 0.1-2.2 0.7-2.9 0.5-0.7 1.2 0.3 1.3 0.4z"/>
		<path id="&lt;Compound Path&gt;" fill-rule="evenodd" class="s0" d="m63.6 7.4c0 0.1-0.1 0-0.2-0.1-0.1-0.1-0.2-0.3-0.5-0.4-0.2 0.5-0.2 0.6-1.1 1.4-2.2 1.8-4.5 2.5-4.6 2.5-0.1 0-0.2-0.1 0.1-0.2 0.7-0.6 3.7-1.9 5.3-3.8 0 0-0.5-0.2-0.9-0.5-0.3-0.2-0.1-1.1 0.1-1.4 0.6-0.9 1.1-0.5 1.2-0.3 0.5 0.8 0.3 1.7 0.3 1.7 0.2 0.2 0.5 0.5 0.3 1.1zm-1-2.3c-0.1 0-0.2-0.1-0.5 0.4-0.1 0.1 0 0.2 0.2 0.3 0.2 0.1 0.6 0.3 0.6 0.3 0-0.1 0.1-0.7-0.3-1z"/>
		<path id="&lt;Path&gt;" class="s0" d="m32.2 4.2c0 0.1 1.2 3.3 1.3 3.4 0.1 0.2-0.1 0.3-0.2 0.2-0.1-0.2-0.6-0.7-0.6-0.7 0 0 0.6 4.7 1 8.1 0.2 2.2 0.1 3.3 0.1 3.5-0.2 1.7-0.9 1.9-1.3 2.1-2.1 0.7-2.8-0.9-3-1.5-0.8 1.6-2.3 1.9-2.7 1.9-2.3 0.1-3-1.5-3.3-2.1-0.4 1.6-1.7 1.9-2.2 1.9-1.8 0-2.1-1.2-2.3-2-1.4 2.4-3 2.1-3.3 2.1-2.3-0.1-2.9-2.7-3.1-3.2-0.2-0.5-0.6-0.3-1-0.1-1.7 0.6-2.8 3.8-3 4.2-0.6 1.3-1.5 0.9-1.8 0.8-1.9-0.9-1.6-5.2-1.5-5.7 0.1-0.4 0.2-0.2 0.2 0 0 2.6 0.4 3.3 0.6 3.5 1 1.7 1.9 0.9 2.1 0.6 0.2-0.2 0.7-1.5 0.9-1.8 0.6-1.7 1.4-2.3 2.6-3 1.1-0.6 1.5 0.7 1.6 1.1 0.8 2.3 2.4 2.3 2.6 2.3 2.1 0 3.3-2.2 3.5-2.5 0.2-0.2 0.2 0.2 0.2 0.3 0 0.1-0.1 0.2-0.1 0.4 0 1.7 1.6 1.6 1.8 1.6 1.7-0.1 1.9-0.9 1.9-1.2 0.1-1.2-0.7-4.1-0.8-4.3 0 0 0.3-0.9 0.4-1 0-0.1 0.1-0.2 0.1-0.1 0.4 0.6 0.8 3.2 0.9 3.7 0.3 1.8 1 2.5 1.4 2.7 1.2 0.9 2.9 0.4 3.5-0.3 0.2-0.2 1-1.3 1.1-1.4 0.2-0.2 0.2 0 0.2 0.1 0 0.2 0.1 0.4 0.1 0.5 0.1 0.8 0.9 1.2 1 1.2 1.2 0.4 1.9-0.3 2.1-0.5 0.2-0.2-1.4-12.5-1.5-13 0-0.5-0.1-0.7-0.2-0.8 0 0 0.5-0.9 0.5-1.1 0.1-0.1 0.1 0 0.2 0.1z"/>
		<path id="&lt;Path&gt;" class="s0" d="m35.4 4.2c0 0.1 1.4 3.3 1.4 3.5 0.1 0.2 0 0.3-0.2 0.1-0.1-0.1-0.7-0.7-0.7-0.7 0 0 1.2 8.8 1.2 9 0.3 1.8 0.3 3 0.3 3.8-0.1 1.1-0.3 1.5-0.3 1.6-0.1 0.2-0.2 0.2-0.2 0 0-0.7-0.1-1.8-0.3-3.1-0.3-2.7-1.5-11.1-1.7-12.5 0-0.2-0.1-0.6-0.1-0.7 0 0 0.4-0.9 0.4-1.1 0.1-0.1 0.1 0 0.2 0.1z"/>
		<path id="&lt;Compound Path&gt;" fill-rule="evenodd" class="s0" d="m42 7.1c-0.1 0.1-0.1 0-0.3-0.1 0-0.1-0.4-0.4-0.4-0.4 0 0-0.5 1-1.2 1.6-1.4 1-2.7 1.2-2.7 1.3-0.2 0-0.2-0.1 0-0.3 0.9-0.5 2-0.9 3.5-2.8 0 0-0.5-0.1-0.8-0.4-0.3-0.2-0.1-1.1 0.1-1.4 0.6-1 1.1-0.5 1.2-0.3 0.5 0.8 0.2 1.7 0.2 1.7 0.3 0.2 0.6 0.5 0.4 1.1zm-1-2.3c-0.1-0.1-0.3-0.1-0.6 0.4-0.1 0.1 0 0.2 0.2 0.3 0.2 0.1 0.7 0.3 0.7 0.3 0-0.1 0-0.7-0.3-1z"/>
	</g>
</svg>