<svg version="1.2" xmlns="http://www.w3.org/2000/svg" viewBox="0 0 70 30" width="70" height="30">
	<title>New Project</title>
	<style>
		.s0 { fill: #191c4f } 
	</style>
	<g id="الزلزلة">
		<path id="&lt;Path&gt;" class="s0" d="m12.4 24c-0.1 0.1-0.1 0.1-0.1 0.3-0.1 0.1-0.2 0.2-0.3 0.3-0.2 0.1-3.8 1.8-3.9 1.8-0.3 0.1-0.3 0.1-0.2 0q0-0.1 0-0.3c0.1-0.1 0.1-0.2 0.3-0.3 0.2-0.1 3.8-1.8 4-1.9 0.3-0.1 0.2 0 0.2 0.1z"/>
		<path id="&lt;Path&gt;" class="s0" d="m33.5 21.6c0 0-0.1 0.3-0.2 0.5-0.5 1-0.3 1.4-0.2 1.5 0.2 0.5 0.6 0.3 0.8-0.1 0.1-0.1 0.1 0 0.1 0q0 0.1-0.1 0.3c-0.2 0.6-0.5 0.7-0.7 0.7-0.4 0-0.5-0.5-0.5-0.8 0-1 0.5-1.9 0.6-2.1 0.2-0.3 0.3-0.2 0.2 0z"/>
		<path id="&lt;Path&gt;" class="s0" d="m64.1 21.1c0 0 0 0.3 0 0.5 0 0.2-0.1 0.6-0.3 0.9-0.1 0.3-0.7 0.5-1.2 0.2-0.7 1.1-1.4 0.5-1.8 0.4-0.7-0.3-0.9 0.2-1.1 0.4-0.8 0.9-2.4 0.9-2.8 0.9-0.4 0.1 0-0.2 0.1-0.2 1.2-0.5 2-0.5 3.1-1.6 0.5-0.5 0.8-0.2 1-0.2 1 0.5 1.2 0 1.3-0.1 0.1-0.1 0.3-0.7 0.4-0.8 0.1-0.2 0.2-0.1 0.1 0.1 0 0.1 0 0.3-0.1 0.4 0.5 0.3 0.9 0 1-0.1 0 0 0-0.3 0-0.4q-0.1-0.1 0.1-0.6c0.1-0.2 0.1 0 0.2 0.2z"/>
		<path id="&lt;Path&gt;" class="s0" d="m11.3 14.6l1 0.7q0.1 0.1 0 0.1l-0.6 0.8q0 0.1-0.1 0.1l-1-0.8-0.5 0.7q0 0.1-0.1 0.1l-1-0.8q-0.1 0 0-0.1l0.6-0.8q0-0.1 0.1 0l1 0.7 0.5-0.7q0-0.1 0.1 0z"/>
		<path id="&lt;Compound Path&gt;" fill-rule="evenodd" class="s0" d="m44.8 19.7c-0.3 1-1.7 1.6-2.1 1.7-1.3 0.4-1.4-0.9-1.3-1.9 0.1-0.9 0.8-2.1 0.8-2.1-0.1-0.1-1.4-1.1-1.5-1.3-0.1-0.1-0.3-0.2-0.4-0.3-0.1-0.1-0.1-0.1-0.1-0.1 0 0 0-1 0-1.1 0-0.1 0.1-0.1 0.2 0 0.1 0 1.6 0.6 1.7 0.7 0.2 0.1 0.1 0.2 0 0.2 0 0-0.5 0.1-0.5 0.1l1.2 0.9c0 0 1.7-2.2 1.8-2.4 0.2-0.2 0.2-0.1 0.2 0.1-0.1 0.2-0.4 1.2-0.5 1.3-0.1 0.2-0.9 1.4-0.9 1.4 0 0 1.1 0.6 1.4 1 0.5 0.7 0.2 1.4 0 1.8zm-2.1-2c0 0-0.7 1.3-0.8 1.6-0.4 0.7 0.4 0.9 0.7 0.8 0.2 0 1.3-0.5 1.7-0.9 0.5-0.4-1.3-1.3-1.6-1.5z"/>
		<path id="&lt;Compound Path&gt;" fill-rule="evenodd" class="s0" d="m65.6 18.5c-0.1 0.2-0.3 1.1-1.7 0.9-0.4-0.1-1-0.2-1.3-1-0.4 0.4-1.2 1.7-2.7 1.5-0.4-0.1-1.5-0.5-1.5-1.8 0 0-1.3 1-1.9 1.3 0 0.5 0 1.1-0.2 1.7-0.3 0.6-3 3.8-5.3 4.3-0.8 0.1-3.6 0.7-3.8-2.6 0-0.6 0.1-1.1 0.1-1.5-1.8 1.4-3.9 2.4-4.6 2.7-0.9 0.5-4.2 1-4.8 1.1-0.4 0.1-0.4 0-0.2-0.1 0.2-0.2 7.6-2.6 11.4-6.6 0.1-0.2 0.1-0.3 0-0.5-0.2-0.2-1.3-2.5-1.5-2.8-0.1-0.3-0.2-0.7-0.3-0.8q-0.1-0.2 0-0.3c0-0.2 0.1-0.8 0.1-0.9 0.1-0.2 0.1-0.1 0.2 0 0.1 0.1 1.3 1.3 1.4 1.4 0.2 0.2 0.1 0.3 0 0.3 0 0-0.6-0.1-0.6-0.1 0 0 0.8 1.4 1 1.9 0.5 1.1 0.2 2 0.1 2.3-0.4 0.7-1 1.4-1.8 2.1-0.1 0.5-0.3 3.2 2.1 3.3 0.4 0 1.7 0.1 4.2-1.9 0.6-0.5 1.2-1.1 1.8-1.8 0.2-0.4 0.3-0.9-0.1-0.9-0.4 0.1-3 1.1-3.4-0.5 0-0.4 0.2-4.2 2.7-2.3 0.2 0.1 0.8 0.6 1.1 1.3 0.5-0.2 1.3-0.6 2.2-1.4 0.3-0.3 0.6-0.4 0.6 0 0 0.3-0.2 2.5 2.1 1.8 0.3-0.1 1.3-0.3 2-2.1 0.2-0.4 0.4-0.4 0.3 0-0.2 0.5-0.4 0.8-0.2 1.1 0.2 0.2 0.9 0.7 1.7 0.6 0.3-0.1 0.5-0.2 0.3-0.4-0.1-0.3-0.3-0.7-0.3-0.7 0-0.3 0.1-0.8 0.2-0.9 0-0.2 0.1-0.3 0.2-0.2 0.1 0.1 0.8 1.1 0.4 2.5zm-10.6 0.1c-0.8-1.1-1.8-0.5-1.9-0.4-0.1 0.1-0.2 0.4 0.6 0.5 1 0.1 1.3-0.1 1.3-0.1z"/>
		<path id="&lt;Path&gt;" class="s0" d="m6.2 12.7c0 0-0.1 0.6-0.3 0.9-0.6 1.9-0.4 2.9-0.3 3.1 0.4 1 1 0.5 1.3-0.2 0.1-0.4 0.2-0.2 0.2 0q-0.1 0.1-0.2 0.5c-0.3 1.2-0.8 1.5-1.1 1.5-0.6-0.1-0.8-1.1-0.8-1.5 0-2.2 0.8-3.9 1-4.5 0.3-0.5 0.4-0.2 0.2 0.2z"/>
		<path id="&lt;Path&gt;" class="s0" d="m43.4 11.7l1.1 0.8q0 0 0 0.1l-0.6 0.8q-0.1 0.1-0.1 0l-1-0.7-0.5 0.7q-0.1 0.1-0.1 0l-1.1-0.7q0 0 0-0.1l0.6-0.8q0.1-0.1 0.1-0.1l1 0.8 0.6-0.7q0-0.1 0-0.1z"/>
		<path id="&lt;Path&gt;" class="s0" d="m14.4 11.8c0 0-0.1 0.3-0.1 0.5-0.3 0.9-0.2 1.4-0.1 1.5 0.2 0.4 0.6 0.2 0.7-0.2 0.1-0.1 0.1-0.1 0.1 0q0 0.1 0 0.3c-0.2 0.6-0.4 0.7-0.6 0.7-0.4 0-0.5-0.4-0.6-0.7 0-1 0.4-1.9 0.5-2.1 0.1-0.3 0.2-0.2 0.1 0z"/>
		<path id="&lt;Path&gt;" class="s0" d="m62.9 11.8c0 0 0 0.3-0.1 0.4-0.3 1-0.2 1.4-0.1 1.5 0.2 0.4 0.6 0.2 0.7-0.2 0.1-0.1 0.1 0 0.1 0q0 0.1-0.1 0.3c-0.1 0.6-0.3 0.7-0.5 0.7-0.4 0-0.5-0.4-0.5-0.7-0.1-1 0.3-1.8 0.4-2.1 0.1-0.2 0.2-0.1 0.1 0.1z"/>
		<path id="&lt;Path&gt;" class="s0" d="m52.6 11.3c0 0-0.1 0.3-0.2 0.4-0.3 1-0.1 1.5-0.1 1.6 0.3 0.5 0.6 0.2 0.8-0.2 0-0.1 0.1 0 0.1 0q0 0.1-0.1 0.3c-0.2 0.6-0.4 0.8-0.6 0.8-0.4 0-0.5-0.5-0.5-0.8-0.1-1 0.3-1.9 0.4-2.2 0.2-0.3 0.2-0.2 0.2 0.1z"/>
		<path id="&lt;Path&gt;" class="s0" d="m51.7 7c-0.1 0.1-0.1 0.2-0.2 0.3-0.1 0.2-0.2 0.3-0.3 0.4-0.2 0.1-5.7 3.2-5.8 3.3-0.3 0.2-0.3 0.1-0.2 0q0-0.1 0.1-0.3c0-0.2 0.1-0.2 0.3-0.4 0.2-0.1 5.6-3.2 5.8-3.4 0.3-0.1 0.3 0 0.3 0.1z"/>
		<path id="&lt;Path&gt;" class="s0" d="m58.3 7.4c0.1 0.2 0 0.6-0.1 0.9-0.1 0.1-0.2 0-0.4-0.2 0 0-0.1-0.1-0.2-0.2-0.6-0.5-0.8 0.4-0.8 0.8-0.1 0.3-0.1 1.4-0.2 1.9-0.1 0.3-0.2 0.3-0.3 0.1-0.4-1.3-1.1-1.9-1.2-2-0.1-0.1-0.2 0.1-0.2 0.2-0.1 0-0.1 0-0.2 0-0.1 0-0.5-0.3-0.6-0.4-0.2-0.2-0.1-0.7-0.1-0.8 0-0.4 0.3-0.5 0.4-0.4 1.4 0.8 1.9 2.2 2 2.4 0-1 0.1-2 0.7-2.7 0.4-0.6 1.1 0.3 1.2 0.4z"/>
		<path id="&lt;Compound Path&gt;" fill-rule="evenodd" class="s0" d="m63.6 9.6c-0.1 0.2-0.1 0.1-0.2-0.1-0.1 0-0.2-0.2-0.4-0.3-0.3 0.5-0.2 0.5-1.2 1.3-2 1.7-4.1 2.3-4.3 2.4-0.1 0-0.1-0.1 0.1-0.3 0.7-0.5 3.5-1.8 5-3.6 0 0-0.5-0.1-0.8-0.4-0.3-0.2-0.1-1 0.1-1.3 0.6-0.9 1.1-0.5 1.1-0.3 0.5 0.8 0.3 1.6 0.3 1.6 0.2 0.2 0.5 0.5 0.3 1zm-0.9-2.1c-0.1-0.1-0.3-0.1-0.6 0.3-0.1 0.1 0 0.3 0.2 0.3 0.2 0.1 0.6 0.3 0.6 0.3 0-0.1 0.1-0.6-0.2-0.9z"/>
		<path id="&lt;Path&gt;" class="s0" d="m33.5 6.6c0.1 0.1 1.3 3.1 1.4 3.2 0 0.2-0.1 0.3-0.2 0.1-0.1-0.1-0.6-0.6-0.6-0.6l1 7.9c0 1.6-0.3 2.1-0.6 2.5-0.4 0.8-2.1 1.4-2.9 1.7-2.7 0.8-4.1 2.1-4.5 2.6-1.1 1.3-1.9 2-2.4 2.3-1.9 0.9-2.6-0.8-2.7-1.6 0-1.2 0.4-2.4 0.7-3q0.1-0.2 0.2-0.4 0 0.1 0 0.1c-2.7 0.8-4.1 2.1-4.5 2.6-1.1 1.3-1.8 2-2.4 2.3-1.9 0.9-2.6-0.8-2.6-1.6-0.1-1.1 0.3-2.3 0.6-2.9-1.2-0.5-1.7-1.6-1.9-2-0.3-0.8-1.2-0.1-1.4 0.1-0.6 0.5-1.2 1.5-1.3 1.8-0.1 0.3-1 2.3-1.2 2.7-0.2 0.4-1 0.8-1.7 0.1-1.9-2.1-1.1-4.7-1-5.1 0.2-0.4 0.3-0.3 0.3 0.1-0.2 0.6-0.1 1.7 0 2 0.3 1.7 1.4 2.1 1.6 2.1 0.8 0.1 1.4-2.1 1.6-2.5 0.5-1.6 1.6-2.5 1.9-2.7 0.4-0.2 1.2-0.7 1.7 0.3 0.7 1.7 1.7 1.9 2 2 2 0.4 2.9-1 2.9-1.2 0.1-0.2 0-1.2-0.1-1.8-0.1-0.6-1.2-7.6-1.2-7.6-0.1-0.7-0.2-1.3-0.3-1.8 0-0.4-0.1-0.7-0.1-0.7 0 0 0.4-0.9 0.4-1 0.1-0.2 0.1-0.1 0.2 0 0 0.1 1.3 3.2 1.3 3.4 0.1 0.1 0 0.2-0.1 0.1-0.1-0.1-0.7-0.7-0.7-0.7 0 0 1.1 8 1.2 8.4 0.1 1.4-0.2 2.6-0.3 2.8-0.7 1.1-1.9 1.3-2.4 1.4q-0.6 0-1-0.1c-0.4 0.8-0.9 2.3-0.6 3.1 0.2 0.4 0.6 0.8 1.3 0.6 1-0.2 1.7-1.3 2-1.7 0.9-1 2.1-2 2.8-2.5 1.4-0.8 4.1-1.6 5.6-2.4 0.4-0.2 0.3-0.5 0.2-1 0-0.5-1.2-9.2-1.2-9.7-0.1-0.4-0.2-0.7-0.2-0.7 0 0 0.4-0.9 0.4-1 0.1-0.2 0.1-0.1 0.2 0 0 0.1 1.2 3.1 1.3 3.2 0 0.2-0.1 0.3-0.2 0.1-0.1-0.1-0.6-0.6-0.6-0.6l1 7.9c0 1.6-0.3 2.1-0.5 2.5-0.4 0.7-1.7 1.2-2.6 1.5q0 0.1 0 0.1c-0.2 0.4-1.2 2.7-0.8 3.7 0.2 0.4 0.5 0.8 1.3 0.6 1-0.2 1.6-1.3 2-1.7 0.9-1 2-2 2.8-2.5 1.4-0.8 4.1-1.6 5.6-2.4 0.4-0.2 0.2-0.5 0.2-1 0-0.5-1.2-9.2-1.3-9.7 0-0.4-0.1-0.7-0.1-0.7 0 0 0.4-0.9 0.4-1 0.1-0.2 0.1-0.1 0.1 0z"/>
		<path id="&lt;Path&gt;" class="s0" d="m36.9 6.6c0 0.1 1.3 3.2 1.4 3.4 0 0.1-0.1 0.2-0.2 0.1-0.1-0.1-0.7-0.7-0.7-0.7 0 0 1.1 8.3 1.2 8.5q0.3 2.5 0.2 3.6c-0.1 1-0.3 1.4-0.3 1.5-0.1 0.2-0.2 0.1-0.1 0-0.1-0.6-0.2-1.7-0.3-3-0.4-2.5-1.5-10.4-1.6-11.8-0.1-0.1-0.2-0.5-0.2-0.6 0 0 0.4-0.9 0.5-1 0-0.2 0.1-0.1 0.1 0z"/>
		<path id="&lt;Path&gt;" class="s0" d="m21.4 16.6l1.1 0.8q0 0 0 0.1l-0.6 0.8q-0.1 0.1-0.1 0l-1-0.7q-0.1-0.1-0.1-0.1l0.7-0.8q0-0.1 0-0.1z"/>
		<path id="&lt;Path&gt;" class="s0" d="m23.7 13.5c0 0 0 0.2-0.1 0.4-0.3 1-0.2 1.4-0.1 1.5 0.2 0.5 0.6 0.2 0.7-0.1 0.1-0.2 0.2-0.1 0.1-0.1q0 0.1 0 0.3c-0.2 0.6-0.4 0.7-0.6 0.7-0.4 0-0.5-0.4-0.5-0.7-0.1-1 0.3-1.9 0.4-2.1 0.1-0.3 0.2-0.2 0.1 0.1z"/>
		<path id="&lt;Path&gt;" class="s0" d="m24.4 11.3c0 0.1 0 0.2-0.1 0.3 0 0.2-0.1 0.2-0.3 0.3-0.2 0.1-4.9 2.2-5 2.3-0.3 0.1-0.3 0-0.2-0.1q0 0 0-0.2c0-0.1 0.1-0.2 0.3-0.3 0.2-0.1 4.9-2.2 5.1-2.3 0.3-0.2 0.3-0.1 0.2 0z"/>
		<path id="&lt;Path&gt;" class="s0" d="m22.4 7c0.1 0.2 0 0.6 0 0.8-0.1 0.2-0.2 0-0.3-0.1 0 0-0.1-0.1-0.2-0.2-0.5-0.4-0.7 0.4-0.7 0.8 0 0.2 0 1.1-0.1 1.6 0 0.2-0.1 0.1-0.2 0-0.3-1-1-1.5-1.1-1.6-0.1-0.1-0.1 0.1-0.2 0.1 0 0.1 0 0.1-0.1 0.1-0.1-0.1-0.4-0.3-0.5-0.4-0.1-0.1-0.1-0.5-0.1-0.6 0-0.3 0.2-0.4 0.3-0.4 1.2 0.6 1.6 1.8 1.7 2 0-0.9 0-1.7 0.5-2.3 0.3-0.5 0.9 0.2 1 0.2z"/>
		<path id="&lt;Path&gt;" class="s0" d="m30.2 16.3l1.1 0.7q0 0.1 0 0.1l-0.6 0.8q-0.1 0.1-0.1 0.1l-1.1-0.8q0 0 0-0.1l0.6-0.8q0.1-0.1 0.1 0z"/>
		<path id="&lt;Path&gt;" class="s0" d="m31 11.6c0 0 0.2 0.5 0.4 0.8 0.1 0.3 0.2 0.6 0.1 1 0 0.4-0.3 0.7-0.5 0.8-0.2 0.1-0.7 0.1-1-0.3-0.4 0.7-0.9 0.9-1.2 0.7-0.4-0.2-0.4-0.8-0.4-1 0-0.1 0-0.7 0-0.9 0-0.1 0-0.2 0.1-0.4 0.1-0.1 0.2 0 0.2 0.1 0 0.2-0.1 1 0 1.4 0.4 0.4 1 0 1.2-0.3 0.1-0.2-0.2-1.1-0.2-1.1q-0.1-0.1-0.1-0.2c0.1 0 0.1-0.3 0.1-0.4q0.1-0.2 0.2 0c0.1 0.1 0.1 0.4 0.2 1.2 0.2 0.7 0.9 0.6 1.1 0.5 0.1-0.1 0.1-0.2 0.1-0.3-0.1 0-0.4-0.7-0.5-1-0.1-0.3 0-0.4 0.1-0.7 0-0.2 0.1-0.1 0.1 0.1z"/>
		<path id="&lt;Path&gt;" class="s0" d="m32.4 7.8c0 0.1 0 0.1-0.1 0.3-0.1 0.1-0.2 0.2-0.3 0.3-0.2 0.1-4.9 2.4-5 2.4-0.3 0.1-0.3 0.1-0.2 0q0-0.1 0-0.3c0.1-0.1 0.1-0.2 0.3-0.3 0.2-0.1 4.9-2.4 5.1-2.4 0.3-0.2 0.2-0.1 0.2 0z"/>
		<path id="&lt;Path&gt;" class="s0" d="m10.4 7c0.1 0.2 0.1 0.6 0 0.9-0.1 0.1-0.2 0-0.3-0.2 0 0-0.1-0.1-0.2-0.2-0.6-0.4-0.7 0.5-0.7 0.9 0 0.3 0 1.3 0 1.9q-0.1 0.1-0.1 0.1c0 0.5-0.1 1.1-0.8 1.7-0.9 0.7-0.9 0.7-1 0.8-0.1 0-0.2-0.1 0-0.2 0.1-0.1 1.8-1.8 1.5-2.6-0.2-0.9-1-1.5-1.1-1.6-0.1-0.1-0.2 0.1-0.2 0.1 0 0.1-0.1 0.1-0.1 0.1-0.1 0-0.5-0.3-0.6-0.4-0.1-0.1-0.1-0.6-0.1-0.8 0-0.3 0.2-0.4 0.3-0.4 1.3 0.7 1.8 2.1 1.9 2.3 0-1 0-2 0.4-2.7 0.4-0.6 1.1 0.2 1.1 0.3z"/>
		<path id="&lt;Compound Path&gt;" fill-rule="evenodd" class="s0" d="m43.1 9.3c0 0.2-0.1 0.1-0.2-0.1 0 0-0.4-0.3-0.4-0.3 0 0-0.4 0.9-1.2 1.5-1.3 1-2.4 1.2-2.5 1.2-0.1 0-0.2-0.1 0-0.2 0.9-0.5 1.9-0.9 3.3-2.6 0 0-0.4-0.2-0.7-0.5-0.3-0.2-0.2-1 0-1.3 0.6-0.9 1.1-0.5 1.2-0.3 0.5 0.8 0.2 1.6 0.2 1.6 0.3 0.2 0.5 0.5 0.3 1zm-0.9-2.1c-0.1-0.1-0.2-0.1-0.5 0.3-0.1 0.1 0 0.3 0.2 0.3 0.2 0.1 0.6 0.3 0.6 0.3 0-0.1 0-0.6-0.3-0.9z"/>
		<path id="&lt;Path&gt;" class="s0" d="m19.3 4.3c0 0-0.1 0.4-0.1 0.5q-0.1 0-0.1 0c-0.1 0.1-1.8 0.8-4.8 2.1-1.1 0.4-2.4 1.1-2.2 1.4 0.3 0.4 1 0.3 0.5 1.2-0.1-0.1-0.2-0.3-0.5-0.5-0.2-0.1-0.4-0.5 0.1-1.3 0.4-0.7 1.7-1.2 1.8-1.2 1.4-0.6 5.1-2.2 5.1-2.2 0.1-0.1 0.2-0.1 0.2 0z"/>
		<path id="&lt;Path&gt;" class="s0" d="m25.5 4.1c0.6 0.1 0.5 0.4 0.3 0.5-0.4 0.7-1 1-1.4 1.2-0.5 0.2-0.2-0.2 0-0.3 0 0 0.3-0.2 0.6-0.5 0.4-0.3-0.6-0.2-1-0.2-0.4 0-0.5 0.1-0.7 0.3-0.1 0.1-0.3 0-0.2-0.2 0.1-0.1 0.2-0.3 0.5-0.7 0.3-0.3 1.3-0.2 1.9-0.1z"/>
	</g>
</svg>