<svg version="1.2" xmlns="http://www.w3.org/2000/svg" viewBox="0 0 70 30" width="70" height="30">
	<title>New Project</title>
	<style>
		.s0 { fill: #191c4f } 
	</style>
	<g id="العاديات">
		<path id="&lt;Path&gt;" class="s0" d="m18.8 21.1l0.9 0.7q0 0 0 0l-0.5 0.7q-0.1 0.1-0.1 0.1l-0.8-0.7-0.5 0.6q0 0.1 0 0.1l-0.9-0.7q-0.1 0 0 0l0.5-0.8q0 0 0 0l0.9 0.7 0.4-0.7q0.1 0 0.1 0z"/>
		<path id="&lt;Path&gt;" class="s0" d="m29 21c0 0.1 0 0.1-0.1 0.3-0.1 0.1-0.1 0.1-0.3 0.2-0.2 0.1-2.5 1-2.6 1.1-0.3 0.1-0.3 0-0.2-0.1q0 0 0.1-0.2c0-0.1 0.1-0.2 0.2-0.3 0.2-0.1 2.6-1 2.7-1.1 0.3-0.1 0.3 0 0.2 0.1z"/>
		<path id="&lt;Path&gt;" class="s0" d="m13.9 20.8c-0.1 0.1-0.1 0.1-0.1 0.2-0.1 0.2-0.2 0.2-0.4 0.3-0.1 0.1-4.2 1.7-4.3 1.7-0.3 0.2-0.2 0.1-0.2 0q0-0.1 0.1-0.3c0-0.1 0.1-0.1 0.3-0.2 0.2-0.1 4.2-1.7 4.4-1.8 0.3-0.2 0.2-0.1 0.2 0.1z"/>
		<path id="&lt;Path&gt;" class="s0" d="m64.4 19.4c0 0 0 0.3 0 0.5 0 0.2-0.1 0.4-0.2 0.7-0.1 0.3-0.6 0.4-1 0.1-0.6 1-1.2 0.5-1.5 0.4-0.6-0.2-0.8 0.2-0.9 0.3-0.7 0.8-2.1 0.8-2.4 0.8-0.3 0.1 0-0.1 0.1-0.2 1-0.4 1.7-0.4 2.6-1.3 0.4-0.4 0.7-0.2 0.8-0.2 0.9 0.4 1 0.1 1.1-0.1 0.1-0.1 0.3-0.5 0.4-0.7 0-0.1 0.1 0 0.1 0.1 0 0.1-0.1 0.3-0.1 0.4 0.3 0.2 0.7 0 0.8-0.1 0 0 0-0.2 0-0.3q-0.1-0.2 0.1-0.5c0-0.2 0.1 0 0.1 0.1z"/>
		<path id="&lt;Path&gt;" class="s0" d="m10.8 15.3l0.9 0.6q0 0.1 0 0.1l-0.5 0.7q-0.1 0.1-0.1 0l-0.8-0.6-0.5 0.6q0 0.1-0.1 0l-0.8-0.6q-0.1 0 0-0.1l0.5-0.7q0 0 0 0l0.9 0.6 0.4-0.6q0.1 0 0.1 0z"/>
		<path id="&lt;Path&gt;" class="s0" d="m20.4 13.9c0.1 0.2 0 0.5 0 0.7-0.1 0.1-0.2 0-0.3-0.1 0 0-0.1-0.1-0.1-0.2-0.5-0.3-0.5 0.4-0.6 0.7 0 0.2 0.1 0.9 0 1.3 0 0.1-0.1 0.1-0.1 0-0.4-0.8-0.9-1.2-1-1.3-0.1 0-0.1 0.1-0.1 0.2q-0.1 0-0.2 0c0 0-0.3-0.2-0.4-0.3-0.1-0.1-0.1-0.4-0.1-0.5 0-0.3 0.1-0.3 0.2-0.3 1.1 0.5 1.5 1.4 1.5 1.6 0-0.8 0-1.4 0.3-2 0.3-0.4 0.8 0.2 0.9 0.2z"/>
		<path id="&lt;Compound Path&gt;" fill-rule="evenodd" class="s0" d="m48.3 18.2c-0.3 0.9-1.5 1.4-1.8 1.4-1 0.4-1.1-0.7-1.1-1.5 0.1-0.8 0.7-1.8 0.7-1.8-0.1 0-1.2-0.9-1.3-1-0.1-0.1-0.2-0.2-0.3-0.3-0.1-0.1-0.1-0.1-0.1-0.1 0 0 0-0.8 0-0.9 0-0.1 0.1-0.1 0.2-0.1 0.1 0.1 1.3 0.6 1.4 0.6 0.2 0.1 0.1 0.2 0 0.2 0 0-0.4 0.2-0.4 0.2l1 0.7c0 0 1.4-1.9 1.5-2 0.2-0.2 0.2-0.1 0.1 0.1 0 0.2-0.3 0.9-0.3 1.1-0.1 0.1-0.8 1.1-0.8 1.1 0 0 0.9 0.6 1.1 0.9 0.5 0.6 0.2 1.1 0.1 1.4zm-1.8-1.6c0 0-0.6 1.1-0.7 1.3-0.3 0.6 0.4 0.7 0.6 0.7 0.2 0 1.1-0.4 1.5-0.8 0.4-0.3-1.1-1.1-1.4-1.2z"/>
		<path id="&lt;Compound Path&gt;" fill-rule="evenodd" class="s0" d="m65.7 17.2c-0.1 0.2-0.3 1-1.4 0.8-0.3-0.1-0.9-0.2-1.1-0.8-0.3 0.3-1 1.4-2.3 1.2-0.3 0-1.2-0.4-1.3-1.5 0 0-1 0.9-1.5 1.1 0 0.4 0 0.9-0.2 1.4-0.2 0.6-2.5 3.2-4.4 3.6-0.7 0.1-3.1 0.6-3.2-2.1q0-0.8 0.1-1.3c-1.5 1.2-3.3 2-3.8 2.3-0.8 0.4-3.6 0.8-4.1 0.9-0.3 0.1-0.4 0-0.2-0.1 0.2-0.1 6.4-2.2 9.6-5.6q0.1-0.1-0.1-0.4c-0.1-0.1-1-2.1-1.1-2.3-0.1-0.3-0.3-0.6-0.3-0.7q-0.1-0.1-0.1-0.3c0.1-0.1 0.1-0.6 0.2-0.7 0-0.1 0.1-0.1 0.1 0 0.1 0.1 1.1 1.1 1.2 1.2 0.1 0.2 0 0.2 0 0.2 0 0-0.5 0-0.5 0 0 0 0.6 1.1 0.8 1.5 0.4 1 0.2 1.7 0.1 2-0.3 0.6-0.9 1.2-1.5 1.7-0.1 0.5-0.3 2.7 1.8 2.8 0.3 0 1.4 0.1 3.5-1.6 0.4-0.4 1-0.9 1.5-1.5 0.2-0.3 0.3-0.7-0.1-0.7-0.3 0-2.5 0.8-2.8-0.5-0.1-0.3 0.1-3.4 2.2-1.9 0.2 0.1 0.7 0.5 1 1.1 0.3-0.1 1-0.5 1.8-1.2 0.3-0.2 0.5-0.3 0.5 0 0 0.3-0.2 2.1 1.7 1.5 0.3 0 1.1-0.2 1.7-1.7 0.2-0.4 0.4-0.3 0.3 0-0.2 0.4-0.4 0.7-0.2 0.9 0.2 0.2 0.7 0.6 1.4 0.5 0.3-0.1 0.4-0.2 0.3-0.4-0.1-0.2-0.3-0.6-0.3-0.6 0.1-0.2 0.1-0.6 0.2-0.7 0-0.1 0-0.2 0.1-0.1 0.1 0.1 0.8 0.9 0.4 2zm-8.9 0.1c-0.6-0.9-1.5-0.4-1.6-0.3-0.1 0.1-0.1 0.4 0.6 0.4 0.8 0.1 1-0.1 1-0.1z"/>
		<path id="&lt;Path&gt;" class="s0" d="m5.9 12.4c0 0-0.1 0.4-0.2 0.7-0.5 1.4-0.3 2.1-0.2 2.2 0.3 0.8 0.8 0.4 1-0.1 0.1-0.3 0.1-0.1 0.1 0q0 0.1-0.1 0.4c-0.2 0.6-0.4 0.9-0.6 1-0.2 0.5-0.4 1.2-0.4 1.4-0.1 1.7 2 1.7 2.5 1.7 4-0.2 5.7-1.7 5.9-1.9 0.2-0.2-0.5-1.1-0.7-1.3 0 0 0.2-0.8 0.2-1q0.1-0.2 0.3 0c0.1 0.2 0.6 1 0.7 1.3 0.3 0.7-0.1 1.5-0.2 1.7-0.7 0.9-2.1 1.5-3.1 1.7-4.2 1.3-5.3 0.1-5.5 0-1-1.2-0.3-2.9 0-3.5-0.4-0.1-0.6-0.8-0.6-1.1 0-1.6 0.6-2.9 0.8-3.3 0.1-0.4 0.2-0.2 0.1 0.1z"/>
		<path id="&lt;Path&gt;" class="s0" d="m9 11.9c0 0-0.1 0.2-0.1 0.4-0.3 0.8-0.2 1.2-0.1 1.2 0.2 0.5 0.5 0.2 0.6-0.1 0.1-0.1 0.1 0 0.1 0q0 0.1-0.1 0.3c-0.1 0.5-0.3 0.6-0.5 0.6-0.3 0-0.4-0.4-0.4-0.6-0.1-0.9 0.3-1.6 0.4-1.9 0.1-0.2 0.1-0.1 0.1 0.1z"/>
		<path id="&lt;Path&gt;" class="s0" d="m47.1 11.6l0.9 0.6q0 0.1 0 0.1l-0.5 0.7q0 0-0.1 0l-0.8-0.6-0.5 0.6q0 0 0 0l-0.9-0.6q0 0 0-0.1l0.5-0.7q0 0 0.1 0l0.8 0.6 0.5-0.6q0 0 0 0z"/>
		<path id="&lt;Path&gt;" class="s0" d="m63.5 11.6c0 0-0.1 0.3-0.2 0.4-0.2 0.8-0.1 1.1 0 1.2 0.2 0.4 0.5 0.2 0.6-0.1 0-0.1 0.1-0.1 0 0q0 0.1 0 0.2c-0.1 0.5-0.3 0.6-0.5 0.6-0.3 0-0.4-0.4-0.4-0.6-0.1-0.8 0.3-1.5 0.4-1.7 0.1-0.2 0.1-0.1 0.1 0z"/>
		<path id="&lt;Path&gt;" class="s0" d="m54.8 11.2c0 0-0.1 0.2-0.1 0.4-0.3 0.8-0.2 1.2-0.1 1.3 0.2 0.4 0.5 0.2 0.6-0.1 0.1-0.2 0.1-0.1 0.1 0q0 0 0 0.2c-0.2 0.5-0.4 0.6-0.6 0.6-0.3 0-0.4-0.4-0.4-0.6-0.1-0.9 0.3-1.6 0.4-1.9 0.1-0.2 0.1-0.1 0.1 0.1z"/>
		<path id="&lt;Path&gt;" class="s0" d="m26 10.7c0 0 0 0.3-0.1 0.5-0.2 1 0 1.4 0 1.5 0.3 0.5 0.6 0.2 0.7-0.2 0-0.2 0.1-0.1 0.1 0q0 0.1-0.1 0.3c-0.1 0.6-0.3 0.7-0.5 0.8-0.3 0-0.5-0.5-0.5-0.7-0.1-1.1 0.2-2 0.3-2.2 0.1-0.3 0.2-0.2 0.1 0z"/>
		<path id="&lt;Path&gt;" class="s0" d="m25.6 8.6c-0.1 0.1-0.1 0.1-0.1 0.3-0.1 0.1-0.2 0.2-0.4 0.3-0.2 0.1-7.7 3.6-7.8 3.7-0.3 0.1-0.3 0-0.2-0.1q0 0 0-0.2c0-0.2 0.1-0.3 0.3-0.4 0.3-0.1 7.7-3.6 7.9-3.7 0.4-0.2 0.3-0.1 0.3 0.1z"/>
		<path id="&lt;Path&gt;" class="s0" d="m13.3 8.1c0 0-0.1 0.4-0.2 0.7-0.5 1.4-0.3 2.1-0.2 2.2 0.3 0.8 0.8 0.4 1-0.1 0.1-0.3 0.1-0.2 0.1 0q0 0.1-0.1 0.4c-0.3 0.9-0.6 1.1-0.8 1-0.5 0-0.7-0.7-0.7-1.1 0-1.5 0.6-2.9 0.8-3.2 0.1-0.4 0.2-0.2 0.1 0.1z"/>
		<path id="&lt;Path&gt;" class="s0" d="m10.2 8c0.1 0.2 0 0.5 0 0.7-0.1 0.1-0.2 0-0.3-0.1 0 0-0.1-0.1-0.2-0.2-0.4-0.3-0.5 0.4-0.6 0.7 0 0.2 0 1-0.1 1.4 0 0.2-0.1 0.2-0.2 0.1-0.3-0.9-0.8-1.4-0.9-1.4-0.1-0.1-0.2 0-0.2 0.1q0 0-0.1 0c-0.1 0-0.4-0.2-0.5-0.3-0.1-0.1-0.1-0.5-0.1-0.6 0-0.3 0.2-0.4 0.3-0.3 1.1 0.6 1.5 1.6 1.6 1.8 0-0.8 0-1.5 0.4-2.1 0.3-0.5 0.9 0.2 0.9 0.2z"/>
		<path id="&lt;Path&gt;" class="s0" d="m54 7.6c0 0.1 0 0.2-0.1 0.3-0.1 0.2-0.1 0.2-0.3 0.3-0.2 0.1-4.7 2.7-4.8 2.8-0.3 0.1-0.2 0-0.2-0.1q0 0 0.1-0.2c0-0.1 0-0.2 0.2-0.3 0.2-0.1 4.7-2.7 4.9-2.8 0.3-0.2 0.3-0.1 0.2 0z"/>
		<path id="&lt;Path&gt;" class="s0" d="m59.5 7.9c0.1 0.2 0.1 0.6 0 0.8-0.1 0.1-0.2 0-0.3-0.1 0 0-0.1-0.2-0.2-0.2-0.5-0.4-0.6 0.3-0.7 0.7 0 0.2-0.1 1.1-0.2 1.6 0 0.2-0.1 0.2-0.2 0-0.3-1-0.9-1.5-1-1.6-0.1-0.2-0.2 0-0.2 0.1 0 0-0.1 0-0.1 0-0.1 0-0.4-0.2-0.5-0.4-0.2-0.1-0.1-0.5-0.1-0.6 0-0.3 0.2-0.4 0.3-0.4 1.2 0.7 1.6 1.9 1.7 2.1 0-0.9 0.1-1.7 0.5-2.3 0.4-0.5 1 0.2 1 0.3z"/>
		<path id="&lt;Compound Path&gt;" fill-rule="evenodd" class="s0" d="m64 9.8c0 0.2-0.1 0.1-0.2 0 0-0.1-0.1-0.3-0.3-0.4-0.2 0.4-0.2 0.5-1 1.2-1.6 1.4-3.5 1.9-3.6 1.9-0.1 0.1-0.1 0 0.1-0.1 0.6-0.5 3-1.6 4.2-3.1 0 0-0.4-0.1-0.7-0.3-0.2-0.2-0.1-0.9 0.1-1.2 0.5-0.7 0.9-0.3 1-0.2 0.4 0.7 0.1 1.4 0.1 1.4 0.3 0.1 0.5 0.4 0.3 0.8zm-0.8-1.8c-0.1 0-0.2 0-0.4 0.3-0.1 0.1 0 0.2 0.2 0.3 0.1 0 0.5 0.2 0.5 0.2 0-0.1 0-0.5-0.3-0.8z"/>
		<path id="&lt;Path&gt;" class="s0" d="m41.7 7.5c0 0.1 1 2.6 1.1 2.8 0 0.1-0.1 0.2-0.1 0.1-0.1-0.1-0.6-0.6-0.6-0.6 0 0 0.9 6.9 0.9 7.1q0.3 2.1 0.2 3.1c0 0.8-0.2 1.1-0.2 1.2-0.1 0.2-0.1 0.1-0.1 0 0-0.5-0.1-1.5-0.3-2.5-0.2-2.1-1.2-8.8-1.3-9.9 0-0.1-0.1-0.4-0.1-0.5 0 0 0.3-0.8 0.3-0.9 0.1-0.1 0.1 0 0.2 0.1z"/>
		<path id="&lt;Path&gt;" class="s0" d="m15.4 7.5c0 0.2 0.4 2.3 0.4 3 0.1 0.6 0.4 5.9 0.5 6.4 0.1 1.4 0.7 1.9 0.8 2 1.2 0.7 3.5 0.2 4.2-0.1 0.8-0.3 0.6-0.6 0.6-0.9-0.1-0.2-0.8-0.9-0.9-1.1 0 0 0.2-0.8 0.2-0.8 0-0.1 0-0.2 0.1-0.1 1.2 1.1 1.1 2.3 1 2.6-0.1 0.7-0.6 1.1-1 1.3q0 0 0 0.1c-0.1 0.2-0.1 0.8-0.1 0.9-0.1 1.4 1.3 0.7 1.5 0.6 2.6-1 4.7-2.7 4.9-2.9 0.2-0.2 0.2-0.3 0.1-0.5-0.2-0.4-1.4-0.9-1.7-1-1.6-0.4-2.4-1.1-2.7-1.4-0.2-0.2-0.6-0.5-0.7-0.6 0 0 0-0.9 0.1-1 0-0.1 0.1-0.1 0.2 0 0.1 0 1.4 0.5 1.5 0.5 0.1 0.1 0 0.2-0.1 0.2 0 0-0.5 0.1-0.5 0.1 0 0 0.3 0.3 1.1 0.7 0.3 0.1 1.8 0.6 2.3 0.8 0.5 0.3 0.8 0.7 0.9 1.1 0.4 1.7 0.1 1.8-0.3 2.1-2.1 1.7-4.5 2.8-4.8 2.9-2.2 0.9-2.2-0.8-2.2-1.1 0.1-0.3 0.1-1.2 0.1-1.3-0.3 0.1-0.6 0.1-0.8 0.2-2.5 0.3-3.1-0.2-3.5-0.6-1.1-1-0.9-3-1.1-5.4-0.1-2.1-0.3-4.5-0.6-5.7-0.1-0.4 0.1-0.8 0.2-1 0.1-0.2 0.2-0.1 0.3 0z"/>
		<path id="&lt;Path&gt;" class="s0" d="m32.1 14.1c0 0-0.1 0.3-0.1 0.5-0.3 0.9-0.2 1.3-0.1 1.3 0.2 0.5 0.6 0.3 0.7-0.1 0-0.1 0.1-0.1 0.1 0q0 0.1-0.1 0.3c-0.1 0.5-0.4 0.7-0.5 0.7-0.4-0.1-0.5-0.5-0.5-0.7-0.1-1 0.3-1.8 0.4-2 0.1-0.3 0.2-0.1 0.1 0z"/>
		<path id="&lt;Path&gt;" class="s0" d="m36.8 12c0 0-0.1 0.3-0.2 0.6-0.4 1.2-0.2 1.7-0.1 1.8 0.3 0.7 0.7 0.3 0.8-0.1 0.1-0.2 0.2-0.1 0.2 0q-0.1 0.1-0.1 0.4c-0.2 0.7-0.5 0.9-0.7 0.9-0.4-0.1-0.6-0.6-0.6-1-0.1-1.3 0.4-2.4 0.6-2.7 0.1-0.3 0.2-0.2 0.1 0.1z"/>
		<path id="&lt;Path&gt;" class="s0" d="m38.2 9.7c0 0.1 0 0.1-0.1 0.3-0.1 0.2-0.2 0.2-0.3 0.3-0.2 0.1-7.7 3.7-7.8 3.7-0.4 0.2-0.3 0.1-0.3 0q0-0.1 0.1-0.3c0-0.2 0.1-0.2 0.3-0.3 0.2-0.1 7.7-3.7 7.9-3.8 0.3-0.1 0.3 0 0.2 0.1z"/>
		<path id="&lt;Compound Path&gt;" fill-rule="evenodd" class="s0" d="m39.9 20.2c-0.9 1.3-2.5 0.8-2.8 0.5-0.3-0.2-0.7-0.6-1.1-1-1.4 0.6-2.8 1.3-3.7 1.4-3.1 0.3-3.3-1.9-3.5-2.7-0.2-0.8-0.4-4.3-0.4-5-0.1-0.4-0.5-3.8-0.8-5-0.1-0.5 0.2-1 0.3-1.1 0-0.1 0-0.2 0.1 0.1 0.7 1.9 1.1 8.5 1.2 9 0.1 2.7 1 3.2 1.2 3.4 1.8 0.9 4.4-0.6 4.6-0.7q0.1 0 0.3-0.1c-0.4-0.3-0.8-0.6-1-0.7-0.6-0.3-1.2 0-1.2 0-0.2 0-0.2-0.1-0.2-0.2 0.1-0.6 0.3-0.8 0.4-0.9 2.5-1.4 5.4 0.1 5.6 0.2 0 0-0.1 0.6-0.2 0.7 0 0.1-0.8 0.6-1.9 1.1q0.3 0.3 0.5 0.4c1.3 1 2.5-0.2 2.5-0.2 0.1-0.1 0-0.4 0-0.8 0-0.4-1.1-8.7-1.1-8.7q-0.1-0.6-0.1-1c-0.1-0.4-0.2-0.6-0.2-0.6 0 0 0.4-0.8 0.4-0.9 0.1-0.1 0.1 0 0.1 0.1 0.1 0.1 1.1 2.6 1.2 2.8 0 0.1-0.1 0.2-0.2 0.1 0-0.1-0.5-0.6-0.5-0.6 0 0 0.9 7.4 0.9 8 0.1 1.4-0.2 2-0.4 2.4zm-3.8-1.6c0.6-0.3 1.1-0.6 1.2-0.7-0.7-0.2-1.4-0.2-2-0.2q0.2 0.2 0.3 0.3c0.1 0.1 0.3 0.3 0.5 0.6z"/>
		<path id="&lt;Compound Path&gt;" fill-rule="evenodd" class="s0" d="m46.9 9.6c-0.1 0.1-0.1 0-0.2-0.1 0 0-0.3-0.3-0.3-0.3 0 0-0.4 0.8-1 1.2-1.1 0.9-2.1 1.1-2.2 1.1-0.1 0-0.1-0.1 0.1-0.2 0.7-0.4 1.5-0.7 2.7-2.2 0 0-0.3-0.2-0.6-0.4-0.3-0.2-0.1-0.8 0.1-1.1 0.4-0.7 0.8-0.4 0.9-0.3 0.4 0.7 0.2 1.4 0.2 1.4 0.2 0.2 0.4 0.4 0.3 0.9zm-0.8-1.8c-0.1-0.1-0.2-0.1-0.5 0.3 0 0.1 0.1 0.2 0.2 0.2 0.2 0.1 0.5 0.3 0.5 0.3 0-0.1 0.1-0.6-0.2-0.8z"/>
		<path id="&lt;Path&gt;" class="s0" d="m19 7.3c0 0-0.1 0.2-0.1 0.4-0.3 0.8-0.2 1.2-0.1 1.3 0.2 0.4 0.5 0.1 0.6-0.2 0.1-0.1 0.1 0 0.1 0q0 0.1 0 0.3c-0.2 0.5-0.4 0.6-0.6 0.6-0.3 0-0.4-0.4-0.4-0.6-0.1-0.9 0.3-1.6 0.4-1.9 0.1-0.2 0.2-0.1 0.1 0.1z"/>
		<path id="&lt;Path&gt;" class="s0" d="m33.6 7.4c0.1 0.1 0 0.5 0 0.7-0.1 0.1-0.2 0-0.3-0.1 0 0-0.1-0.1-0.2-0.2-0.4-0.3-0.5 0.4-0.6 0.7 0 0.2 0.1 1 0 1.4 0 0.2-0.1 0.2-0.2 0.1-0.3-0.9-0.9-1.3-1-1.4-0.1-0.1-0.1 0.1-0.2 0.1q0 0.1-0.1 0.1c0-0.1-0.4-0.2-0.5-0.3-0.1-0.1-0.1-0.5-0.1-0.6 0-0.3 0.2-0.4 0.3-0.3 1.1 0.5 1.5 1.5 1.6 1.7 0-0.8 0-1.5 0.4-2.1 0.3-0.5 0.8 0.1 0.9 0.2z"/>
	</g>
</svg>