<svg version="1.2" xmlns="http://www.w3.org/2000/svg" viewBox="0 0 70 30" width="70" height="30">
	<title>New Project</title>
	<style>
		.s0 { fill: #191c4f } 
	</style>
	<g id="القارعة">
		<path id="&lt;Path&gt;" class="s0" d="m13 21c-0.1 0.1-0.1 0.1-0.2 0.3 0 0.1-0.1 0.1-0.3 0.2-0.2 0.1-2.6 1.1-2.7 1.1-0.3 0.2-0.3 0.1-0.2 0q0-0.1 0-0.3c0.1-0.2 0.2-0.2 0.4-0.3 0.2-0.1 2.5-1 2.7-1.1 0.4-0.2 0.3-0.1 0.3 0.1z"/>
		<path id="&lt;Path&gt;" class="s0" d="m24.7 20.9c-0.1 0.1-0.1 0.1-0.2 0.3 0 0.2-0.1 0.2-0.3 0.3-0.2 0.1-2.6 1-2.6 1.1-0.4 0.1-0.3 0-0.3-0.1q0 0 0.1-0.2c0-0.2 0.1-0.2 0.3-0.3 0.2-0.2 2.6-1.1 2.8-1.2 0.3-0.1 0.2 0 0.2 0.1z"/>
		<path id="&lt;Path&gt;" class="s0" d="m64.2 19.5c0 0 0 0.2 0 0.4 0 0.2-0.1 0.5-0.2 0.8-0.1 0.3-0.7 0.5-1.1 0.2-0.7 1.1-1.4 0.5-1.7 0.4-0.6-0.3-0.8 0.2-1 0.3-0.8 0.9-2.2 0.9-2.6 0.9-0.3 0.1 0-0.2 0.1-0.2 1.2-0.4 1.9-0.5 2.9-1.4 0.4-0.5 0.7-0.3 0.9-0.2 0.9 0.4 1.1 0 1.2-0.1 0.1-0.1 0.3-0.6 0.3-0.8 0.1-0.1 0.2 0 0.2 0.1 0 0.1-0.1 0.3-0.1 0.4 0.4 0.2 0.8 0 0.9-0.1 0 0-0.1-0.3-0.1-0.4q0-0.1 0.1-0.5c0.1-0.2 0.2 0 0.2 0.2z"/>
		<path id="&lt;Path&gt;" class="s0" d="m21.8 13.6c0.1 0.1 1.1 1.1 1.2 1.3 0.1 0.1 0 0.2 0 0.2-0.1 0-0.6-0.1-0.6-0.1 0 0 0.7 1.3 0.9 1.7 0.4 1 0.1 1.7 0 2-1.2 2.1-4.9 3.5-5.7 3.9-0.8 0.4-3.7 0.8-4.3 0.9-0.3 0-0.4-0.1-0.2-0.2 0.3-0.1 6-1.9 9.8-5 0.1-0.1 0.1-0.3 0-0.5 0-0.2-1-2.2-1.1-2.5-0.1-0.2-0.2-0.6-0.3-0.7q-0.1-0.1 0-0.3c0-0.1 0.1-0.6 0.2-0.7 0-0.2 0.1-0.1 0.1 0z"/>
		<path id="&lt;Compound Path&gt;" fill-rule="evenodd" class="s0" d="m46.6 18.1c-0.3 1-1.7 1.5-2 1.6-1.2 0.4-1.3-0.8-1.2-1.7 0.1-0.9 0.7-2 0.7-2 0 0-1.3-1-1.4-1.1-0.1-0.1-0.2-0.2-0.3-0.3-0.1-0.1-0.1-0.1-0.1-0.1 0 0 0-0.9 0-1 0-0.1 0.1-0.1 0.2-0.1 0.1 0.1 1.4 0.6 1.6 0.7 0.1 0.1 0.1 0.2 0 0.2-0.1 0-0.6 0.1-0.6 0.1l1.2 0.8c0 0 1.5-2 1.7-2.2 0.1-0.2 0.1-0.1 0.1 0.1-0.1 0.3-0.4 1.1-0.4 1.2-0.1 0.2-0.9 1.3-0.9 1.3 0 0 1 0.6 1.3 1 0.4 0.6 0.2 1.2 0.1 1.5zm-2-1.8c0 0-0.7 1.2-0.8 1.5-0.3 0.7 0.4 0.8 0.7 0.8 0.2-0.1 1.1-0.5 1.6-0.9 0.4-0.4-1.2-1.2-1.5-1.4z"/>
		<path id="&lt;Path&gt;" class="s0" d="m10.6 12.9l1 0.7q0 0 0 0.1l-0.6 0.7q0 0.1 0 0.1l-1-0.7-0.4 0.6q-0.1 0.1-0.1 0.1l-1-0.7q0-0.1 0-0.1l0.6-0.8q0 0 0 0l1 0.7 0.5-0.7q0 0 0 0z"/>
		<path id="&lt;Path&gt;" class="s0" d="m5.6 12.6c0 0-0.1 0.5-0.1 0.8-0.4 1.6-0.1 2.3 0 2.5 0.4 0.7 0.8 0.3 0.9-0.3 0.1-0.3 0.2-0.2 0.2 0q-0.1 0.1-0.1 0.4c-0.2 1-0.5 1.3-0.7 1.3q-0.2 0-0.3-0.2 0 0.1 0 0.3c0 2.7 1.3 3.7 2 3.7 0.6 0 0.8-0.9 1.1-1.7 0.4-1.5 1.2-2.5 1.9-3 0.8-0.5 1.1-0.1 1.3 0.3 1 2.1 2.7 2 3.1 1.9-0.5-0.3-0.9-1.1-1.1-1.4-0.7-1.1-0.2-2.4-0.1-2.7 0.5-1.2 1.7-1.4 2.4-1.5 0.8-0.1 2.3 0.1 2.8 0.6 0.2 0.2 0 0.4-0.1 0.3-0.5-0.3-1.1-0.3-1.7-0.3-1.3 0.2-2.6 0.9-2.8 1-0.2 0.2-0.3 0.4-0.3 0.7 0.2 1.1 0.9 1.8 1.2 2.1 1 0.9 2.1 0.5 2.5 0.3 1.1-0.5 2.3-1.6 2.7-1.9 0.3-0.3 0.1 0.2 0 0.6 0 0-0.2 0.3-0.3 0.6-0.5 0.9-3.7 2.5-4.3 2.6-3.7 0.9-4.1-1.5-4.3-2-0.3-0.4-0.7-0.3-0.9-0.1-1.4 1-1.9 3.2-2 3.7-0.4 1.1-1.1 1.1-1.5 0.9-1.9-0.9-1.9-4.2-1.9-4.7q0.1-0.4 0.2-0.4c-0.2-0.2-0.3-0.6-0.4-0.9-0.1-1.7 0.3-3.2 0.5-3.6 0.1-0.4 0.2-0.3 0.1 0.1z"/>
		<path id="&lt;Compound Path&gt;" fill-rule="evenodd" class="s0" d="m65.6 17c-0.1 0.2-0.3 1.1-1.6 0.9-0.3-0.1-0.9-0.2-1.2-0.9-0.3 0.4-1 1.6-2.5 1.4-0.3-0.1-1.3-0.5-1.3-1.7 0 0-1.2 0.9-1.8 1.2 0.1 0.5 0.1 1-0.2 1.6-0.2 0.5-2.7 3.4-4.8 3.9-0.7 0.1-3.3 0.6-3.5-2.3q0-1 0.1-1.5c-1.6 1.3-3.6 2.3-4.2 2.6-0.8 0.4-3.9 0.9-4.4 1-0.4 0-0.4-0.1-0.2-0.2 0.2-0.1 6.9-2.4 10.4-6.1q0.2-0.1 0-0.4c-0.1-0.2-1.2-2.3-1.3-2.6-0.1-0.2-0.2-0.6-0.3-0.7q-0.1-0.1 0-0.3c0-0.1 0.1-0.7 0.1-0.8 0.1-0.1 0.1-0.1 0.2 0 0.1 0.1 1.2 1.2 1.3 1.3 0.1 0.2 0 0.2 0 0.2-0.1 0-0.6 0-0.6 0 0 0 0.7 1.3 0.9 1.7 0.5 1 0.2 1.8 0.1 2.2-0.3 0.6-0.9 1.2-1.6 1.8-0.1 0.5-0.3 3 1.9 3 0.4 0.1 1.5 0.2 3.8-1.7 0.6-0.4 1.2-0.9 1.7-1.7 0.2-0.2 0.3-0.7-0.1-0.7-0.3 0.1-2.7 0.9-3.1-0.5 0-0.4 0.2-3.8 2.5-2.1 0.2 0.1 0.7 0.6 1 1.2 0.4-0.2 1.1-0.6 2-1.3 0.3-0.2 0.5-0.3 0.5 0 0 0.3-0.2 2.3 2 1.7 0.2-0.1 1.1-0.3 1.8-2 0.2-0.3 0.4-0.3 0.3 0-0.2 0.5-0.4 0.8-0.2 1 0.2 0.2 0.8 0.7 1.6 0.6 0.2-0.1 0.4-0.2 0.3-0.4-0.1-0.2-0.4-0.7-0.4-0.7 0.1-0.2 0.2-0.7 0.2-0.8 0.1-0.1 0.1-0.2 0.2-0.1 0.1 0.1 0.8 1 0.4 2.2zm-9.7 0.1c-0.8-1-1.7-0.4-1.8-0.3-0.1 0.1-0.1 0.4 0.6 0.4 0.9 0.1 1.2-0.1 1.2-0.1z"/>
		<path id="&lt;Path&gt;" class="s0" d="m45.3 10.9l0.9 0.7q0 0 0 0l-0.5 0.8q-0.1 0.1-0.1 0l-0.9-0.6-0.5 0.6q-0.1 0.1-0.1 0l-1-0.7q0 0 0 0l0.6-0.8q0-0.1 0.1 0l0.9 0.7 0.5-0.7q0-0.1 0.1 0z"/>
		<path id="&lt;Path&gt;" class="s0" d="m63.2 10.9c0 0-0.1 0.3-0.2 0.4-0.3 0.9-0.1 1.3-0.1 1.3 0.3 0.5 0.6 0.2 0.7-0.1 0.1-0.1 0.1-0.1 0.1 0q0 0.1-0.1 0.3c-0.1 0.5-0.3 0.6-0.5 0.6-0.3 0-0.5-0.4-0.5-0.6 0-0.9 0.4-1.7 0.5-1.9 0-0.3 0.1-0.2 0.1 0z"/>
		<path id="&lt;Path&gt;" class="s0" d="m53.6 10.4c0 0 0 0.3-0.1 0.5-0.3 0.9-0.1 1.3-0.1 1.4 0.3 0.4 0.6 0.2 0.7-0.1 0.1-0.2 0.1-0.1 0.1 0q0 0 0 0.2c-0.2 0.6-0.4 0.7-0.6 0.7-0.4 0-0.5-0.4-0.5-0.7-0.1-1 0.3-1.8 0.4-2 0.1-0.3 0.2-0.2 0.1 0z"/>
		<path id="&lt;Path&gt;" class="s0" d="m21.5 8.7c0 0 0 0.3-0.1 0.5-0.3 1.1-0.2 1.6-0.1 1.7 0.3 0.6 0.6 0.3 0.7-0.1 0.1-0.3 0.2-0.1 0.1-0.1q0 0.1 0 0.4c-0.2 0.6-0.4 0.8-0.6 0.8-0.4 0-0.5-0.5-0.6-0.8 0-1.2 0.4-2.2 0.5-2.5 0.1-0.3 0.2-0.2 0.1 0.1z"/>
		<path id="&lt;Path&gt;" class="s0" d="m6.3 8.6c0 0-0.1 0.2-0.2 0.4-0.2 0.8-0.1 1.1-0.1 1.2 0.3 0.4 0.6 0.2 0.7-0.1 0-0.1 0.1-0.1 0.1 0q0 0.1-0.1 0.2c-0.1 0.5-0.3 0.7-0.5 0.7-0.3-0.1-0.4-0.4-0.4-0.6-0.1-0.9 0.3-1.7 0.4-1.9 0-0.2 0.1-0.1 0.1 0.1z"/>
		<path id="&lt;Path&gt;" class="s0" d="m12.3 7.5c0.1 0.2 0.1 0.5 0 0.8-0.1 0.1-0.2 0-0.3-0.2 0 0-0.1-0.1-0.2-0.2-0.5-0.4-0.6 0.4-0.7 0.7 0 0.3-0.1 1.1-0.2 1.6 0 0.2-0.1 0.2-0.2 0.1-0.3-1.1-0.9-1.6-1-1.7-0.1-0.1-0.2 0.1-0.2 0.1 0 0.1 0 0.1-0.1 0.1-0.1 0-0.4-0.3-0.5-0.4-0.1-0.1-0.1-0.5-0.1-0.7 0-0.2 0.2-0.3 0.3-0.3 1.2 0.7 1.6 1.9 1.7 2.1 0-0.9 0.1-1.7 0.5-2.3 0.4-0.5 1 0.2 1 0.3z"/>
		<path id="&lt;Path&gt;" class="s0" d="m20.8 7.1c-0.1 0.1-0.1 0.1-0.2 0.3 0 0.1-0.1 0.2-0.3 0.3-0.1 0-7.1 3.4-7.6 3.7-0.6 0.4-0.5 0.6-0.3 0.6 0.3 0.2 0.5 0.4 0.3 0.9q0 0-0.1 0c0-0.1-0.1-0.2-0.3-0.2-0.3-0.1-0.4-0.5-0.3-0.9 0-0.3 0.2-0.6 0.4-0.8 0.5-0.3 8-3.9 8.1-4 0.3-0.2 0.3 0 0.3 0.1z"/>
		<path id="&lt;Path&gt;" class="s0" d="m29.6 15.5c0 0-0.1 0.3-0.2 0.5-0.3 1.1-0.1 1.6 0 1.7 0.3 0.5 0.7 0.2 0.9-0.2 0-0.2 0.1-0.1 0.1 0q0 0-0.1 0.3c-0.1 0.6-0.4 0.8-0.6 0.8-0.5 0-0.7-0.5-0.7-0.7-0.2-1.2 0.3-2.2 0.4-2.5 0.1-0.2 0.2-0.1 0.2 0.1z"/>
		<path id="&lt;Path&gt;" class="s0" d="m32.1 12.9l1 0.7 0.4-0.7q0.1 0 0.1 0l1 0.7q0 0 0 0.1l-0.6 0.8q0 0-0.1 0l-0.9-0.7-0.5 0.7q0 0 0 0l-1-0.7q0-0.1 0-0.1l0.5-0.8q0.1 0 0.1 0z"/>
		<path id="&lt;Path&gt;" class="s0" d="m35.4 8.5c-0.1 0.1-0.1 0.1-0.1 0.3-0.1 0.1-0.2 0.2-0.3 0.3-0.2 0.1-7 3.2-7.5 3.5-0.6 0.4-0.5 0.6-0.3 0.7 0.3 0.1 0.5 0.3 0.3 0.8q0 0 0 0c-0.1-0.1-0.2-0.2-0.4-0.2-0.3-0.1-0.4-0.5-0.3-0.9 0.1-0.3 0.2-0.6 0.5-0.8 0.4-0.3 7.7-3.7 7.9-3.8 0.2-0.2 0.2 0 0.2 0.1z"/>
		<path id="&lt;Path&gt;" class="s0" d="m30.1 6.9c0.1 0.2 0.1 0.5 0 0.8-0.1 0.1-0.2 0-0.3-0.1 0 0-0.1-0.2-0.2-0.2-0.5-0.4-0.6 0.4-0.7 0.7 0 0.3 0 1.1 0 1.6 0 0.2-0.1 0.2-0.2 0.1-0.4-1-1-1.5-1.1-1.6-0.1-0.1-0.2 0.1-0.2 0.1 0 0.1-0.1 0.1-0.1 0.1-0.1 0-0.5-0.2-0.6-0.3-0.1-0.1-0.1-0.5-0.1-0.7 0-0.3 0.2-0.4 0.3-0.4 1.2 0.6 1.7 1.8 1.8 2 0-0.9 0-1.7 0.4-2.3 0.3-0.6 0.9 0.1 1 0.2z"/>
		<path id="&lt;Path&gt;" class="s0" d="m52.8 6.5c0 0.1-0.1 0.2-0.1 0.3-0.1 0.2-0.2 0.2-0.4 0.3-0.1 0.2-5.1 3-5.2 3.1-0.3 0.2-0.3 0.1-0.2 0q0-0.1 0-0.3c0.1-0.2 0.1-0.2 0.3-0.3 0.2-0.2 5.2-3 5.4-3.1 0.3-0.2 0.2-0.1 0.2 0z"/>
		<path id="&lt;Path&gt;" class="s0" d="m58.9 6.8c0.1 0.2 0 0.6-0.1 0.9-0.1 0.1-0.2 0-0.3-0.2 0 0-0.1-0.1-0.3-0.2-0.5-0.4-0.6 0.4-0.7 0.8 0 0.3-0.1 1.2-0.2 1.8 0 0.2-0.1 0.2-0.2 0-0.4-1.2-1-1.7-1.1-1.8-0.1-0.1-0.2 0-0.2 0.1-0.1 0.1-0.1 0.1-0.2 0.1-0.1-0.1-0.4-0.3-0.6-0.4-0.1-0.2 0-0.6 0-0.8 0-0.3 0.2-0.4 0.3-0.3 1.3 0.7 1.8 2 1.8 2.2 0.1-1 0.1-1.8 0.7-2.5 0.4-0.5 1 0.2 1.1 0.3z"/>
		<path id="&lt;Compound Path&gt;" fill-rule="evenodd" class="s0" d="m63.8 8.9c-0.1 0.2-0.1 0.1-0.2 0-0.1-0.1-0.2-0.3-0.4-0.4-0.2 0.5-0.2 0.5-1 1.2-1.9 1.6-3.9 2.2-4 2.2-0.1 0-0.1-0.1 0.1-0.2 0.6-0.5 3.2-1.7 4.6-3.3 0 0-0.5-0.2-0.8-0.4-0.2-0.2-0.1-0.9 0.1-1.2 0.5-0.8 1-0.4 1.1-0.3 0.4 0.7 0.2 1.5 0.2 1.5 0.2 0.2 0.4 0.5 0.3 0.9zm-0.9-1.9c-0.1-0.1-0.2-0.1-0.5 0.3-0.1 0.1 0 0.2 0.2 0.3 0.2 0 0.6 0.2 0.6 0.2 0-0.1 0-0.6-0.3-0.8z"/>
		<path id="&lt;Compound Path&gt;" fill-rule="evenodd" class="s0" d="m36.3 20.7c-1.8 0.9-2.7 0.1-3-0.3q-0.2-0.2-0.3-0.4c-1.3 0.7-3.1 1.1-3.3 1.1-4 0.6-4.2-1.2-4.5-2.2-0.3-1.1-0.8-8.8-1.5-11.1 0-0.1 0.3-0.8 0.3-1 0.1-0.1 0.1-0.4 0.3 0.1 0.6 1.9 1.1 8.8 1.2 9.8 0.2 2.2 1 2.8 1.3 3 2.2 1.1 5.1-0.3 5.6-0.5q0.1 0 0.2-0.1c-0.5-1.7 0.3-2.8 0.6-3.2 0.5-0.5 1-0.2 1.2 0.1 0.8 1.3 0.4 2.4 0.1 2.8q-0.3 0.4-0.8 0.8c0.4 0.2 0.6 0.3 0.8 0.3 1.6 0.2 2.4-0.7 2.5-0.8 0-0.1 0-0.1 0-0.4 0-0.8-1.1-10.4-1.2-10.8-0.1-0.4-0.2-0.6-0.2-0.7 0 0 0.4-0.8 0.5-0.9 0-0.1 0 0 0.1 0 0 0.1 1.1 2.8 1.1 3 0.1 0.2 0 0.2-0.1 0.1-0.1-0.1-0.6-0.6-0.6-0.6 0 0 1 8 1 8.8 0.2 2-0.6 2.8-1.3 3.1zm-1.9-2.9c0 0 0.1-0.1-0.4-0.7-0.4-0.7-0.9-0.2-1.1 0.2-0.1 0.3 0.1 1 0.3 1.5 0.8-0.4 1.2-0.9 1.2-1z"/>
		<path id="&lt;Path&gt;" class="s0" d="m39.3 6.4c0 0.1 1.2 2.9 1.2 3 0.1 0.2-0.1 0.2-0.1 0.1-0.1-0.1-0.7-0.6-0.7-0.6 0 0 0.9 6.9 0.9 7.1q0.3 2.2 0.3 3.3c-0.1 0.9-0.3 1.3-0.3 1.4-0.1 0.1-0.2 0.1-0.1-0.1-0.1-0.5-0.2-1.6-0.3-2.7-0.3-2.3-1.2-8.8-1.3-10.1-0.1-0.1-0.2-0.5-0.2-0.5 0 0 0.4-0.9 0.4-1 0.1-0.1 0.1 0 0.2 0.1z"/>
		<path id="&lt;Compound Path&gt;" fill-rule="evenodd" class="s0" d="m45 8.7c-0.1 0.1-0.1 0-0.2-0.1-0.1-0.1-0.4-0.4-0.4-0.4 0 0-0.4 0.9-1.1 1.4-1.2 0.9-2.3 1.1-2.3 1.1-0.1 0.1-0.2 0 0-0.2 0.8-0.4 1.7-0.7 3.1-2.4 0 0-0.4-0.2-0.7-0.4-0.3-0.2-0.2-0.9 0-1.2 0.5-0.8 1-0.4 1.1-0.3 0.4 0.8 0.2 1.5 0.2 1.5 0.2 0.2 0.5 0.5 0.3 1zm-0.9-2c-0.1-0.1-0.2-0.1-0.5 0.3 0 0.1 0 0.2 0.2 0.3 0.2 0.1 0.6 0.2 0.6 0.2 0-0.1 0-0.5-0.3-0.8z"/>
	</g>
</svg>