<svg version="1.2" xmlns="http://www.w3.org/2000/svg" viewBox="0 0 70 30" width="70" height="30">
	<title>New Project</title>
	<style>
		.s0 { fill: #191c4f } 
	</style>
	<g id="التكاثر">
		<path id="&lt;Path&gt;" class="s0" d="m15.4 22.5c-0.1 0.1-0.1 0.1-0.2 0.3 0 0.1-0.1 0.2-0.3 0.3-0.2 0.1-2.7 1-2.8 1-0.3 0.2-0.2 0.1-0.2 0q0 0 0.1-0.3c0-0.1 0.1-0.2 0.3-0.3 0.2-0.1 2.7-1 2.9-1.1 0.3-0.2 0.2-0.1 0.2 0.1z"/>
		<path id="&lt;Path&gt;" class="s0" d="m26.6 21.2c0 0-0.1 0.2-0.1 0.4-0.3 0.8-0.2 1.2-0.1 1.3 0.2 0.4 0.5 0.2 0.6-0.1 0.1-0.2 0.2-0.1 0.1 0q0 0 0 0.2c-0.2 0.5-0.4 0.7-0.5 0.7-0.4-0.1-0.5-0.5-0.5-0.7-0.1-0.9 0.3-1.7 0.4-1.9 0.1-0.2 0.2-0.1 0.1 0.1z"/>
		<path id="&lt;Path&gt;" class="s0" d="m32.2 20.7c0 0-0.1 0.3-0.1 0.4-0.3 0.9-0.2 1.3-0.1 1.3 0.2 0.5 0.5 0.2 0.6-0.1 0.1-0.1 0.1-0.1 0.1 0q0 0.1 0 0.3c-0.2 0.5-0.4 0.6-0.6 0.6-0.3 0-0.4-0.4-0.4-0.6-0.1-0.9 0.3-1.7 0.4-1.9 0.1-0.3 0.2-0.2 0.1 0z"/>
		<path id="&lt;Path&gt;" class="s0" d="m64.1 20.1c0 0 0 0.3 0 0.5 0 0.2-0.1 0.5-0.2 0.9-0.1 0.3-0.7 0.4-1.2 0.1-0.7 1.1-1.4 0.6-1.7 0.4-0.7-0.2-0.9 0.2-1.1 0.4-0.8 0.9-2.3 0.9-2.7 0.9-0.3 0.1 0-0.2 0.1-0.2 1.2-0.5 2-0.5 3-1.5 0.5-0.5 0.8-0.3 1-0.2 1 0.4 1.1 0 1.2-0.1 0.2-0.1 0.3-0.7 0.4-0.8 0.1-0.2 0.2-0.1 0.1 0.1 0 0.1 0 0.3-0.1 0.3 0.5 0.3 0.9 0.1 1 0 0 0-0.1-0.3-0.1-0.4q0-0.2 0.1-0.5c0.1-0.3 0.2-0.1 0.2 0.1z"/>
		<path id="&lt;Path&gt;" class="s0" d="m16.8 20c0 0-0.1 0.3-0.1 0.5-0.4 1.2-0.1 1.6-0.1 1.8 0.4 0.5 0.8 0.2 0.9-0.2 0.1-0.3 0.1-0.2 0.1-0.1q0 0.1 0 0.4c-0.2 0.7-0.5 0.9-0.7 0.9-0.4 0-0.6-0.6-0.7-0.8-0.1-1.2 0.3-2.3 0.5-2.6 0.1-0.3 0.2-0.2 0.1 0.1z"/>
		<path id="&lt;Path&gt;" class="s0" d="m10.3 13.6c0 0-0.1 0.2-0.1 0.4-0.2 1-0.1 1.4 0 1.5 0.2 0.4 0.5 0.2 0.6-0.2 0.1-0.2 0.1-0.1 0.1 0q0 0.1 0 0.3c-0.2 0.6-0.3 0.7-0.5 0.7-0.3 0-0.5-0.4-0.5-0.7-0.1-1 0.2-1.8 0.3-2.1 0.1-0.2 0.1-0.1 0.1 0.1z"/>
		<path id="&lt;Path&gt;" class="s0" d="m7 16c0 0-0.1 0.5-0.2 0.9-0.4 1.8-0.1 2.6 0 2.7 0.5 0.9 1 0.4 1.2-0.3 0.1-0.3 0.2-0.1 0.2 0q0 0.2-0.1 0.6c-0.2 1.1-0.6 1.3-0.9 1.4-0.6 0-0.9-0.9-0.9-1.3-0.3-2 0.4-3.7 0.5-4.1 0.2-0.5 0.3-0.3 0.2 0.1z"/>
		<path id="&lt;Path&gt;" class="s0" d="m16.1 13.7c1 1.3 0.6 2.3 0.6 2.5-0.3 1.1-1.5 1.3-2 1.3 0.2 0.8 0.1 1.4 0.1 1.7 0 0-0.1 0.7-1 1.6-1.7 1.7-4 2.7-4.3 2.9-0.4 0.1-4 0.7-4.3 0.7-0.3 0-0.2-0.1 0-0.2 0.2-0.1 2.2-0.8 2.7-1 5-2.1 6.4-4.2 6.6-4.5 0.1-0.4-0.6-1.5-0.7-1.9-0.2-0.3-0.3-0.6-0.3-1.2 0.1-0.5 0.4 0.1 0.5 0.3q0.2 0.2 0.3 0.5c1.1 0.1 1.7-0.2 1.9-0.4 0.3-0.3-0.2-1-0.4-1.2-0.1-0.2 0-1 0.1-1.1q0.1-0.2 0.2 0z"/>
		<path id="&lt;Compound Path&gt;" fill-rule="evenodd" class="s0" d="m45.6 18.7c-0.3 1-1.7 1.6-2 1.6-1.2 0.4-1.3-0.8-1.3-1.7 0.1-0.9 0.8-2.1 0.8-2.1-0.1 0-1.4-1.1-1.5-1.2-0.1-0.1-0.2-0.2-0.3-0.3-0.2-0.1-0.1-0.1-0.1-0.1 0 0 0-1 0-1.1 0-0.1 0 0 0.1 0 0.1 0.1 1.6 0.6 1.7 0.7 0.2 0.1 0.1 0.2 0 0.2 0 0-0.5 0.2-0.5 0.2l1.1 0.8c0 0 1.7-2.1 1.8-2.3 0.2-0.2 0.2-0.1 0.1 0.1 0 0.2-0.3 1.1-0.4 1.2-0.1 0.2-0.9 1.3-0.9 1.3 0 0 1.1 0.7 1.4 1.1 0.4 0.6 0.1 1.3 0 1.6zm-2-1.8c0 0-0.7 1.2-0.8 1.4-0.4 0.8 0.4 0.9 0.6 0.9 0.3-0.1 1.3-0.6 1.7-0.9 0.5-0.4-1.2-1.3-1.5-1.4z"/>
		<path id="&lt;Compound Path&gt;" fill-rule="evenodd" class="s0" d="m65.6 17.6c-0.1 0.2-0.3 1.1-1.6 0.8-0.4 0-1-0.2-1.3-0.9-0.3 0.4-1.1 1.7-2.6 1.5-0.3-0.1-1.4-0.5-1.4-1.8 0 0-1.3 1-1.9 1.3 0.1 0.5 0.1 1-0.2 1.6-0.2 0.6-2.9 3.6-5 4.1-0.8 0.2-3.6 0.7-3.7-2.4 0-0.7 0.1-1.2 0.1-1.5-1.7 1.3-3.8 2.4-4.4 2.6-0.9 0.5-4.1 1-4.6 1.1-0.4 0.1-0.5 0-0.2-0.2 0.2-0.1 7.2-2.5 10.9-6.3 0.1-0.2 0.1-0.3 0-0.5-0.1-0.2-1.3-2.4-1.4-2.7-0.1-0.3-0.2-0.6-0.3-0.7q-0.1-0.2 0-0.4c0-0.1 0.1-0.7 0.1-0.8 0.1-0.2 0.1-0.1 0.2 0 0.1 0.1 1.2 1.2 1.4 1.4 0.1 0.2 0 0.2-0.1 0.2 0 0-0.6 0-0.6 0 0 0 0.8 1.3 1 1.8 0.5 1 0.2 1.9 0.1 2.2-0.4 0.7-1 1.4-1.7 2-0.1 0.5-0.4 3.1 2 3.1 0.4 0 1.6 0.2 4-1.8 0.6-0.4 1.2-1 1.7-1.7 0.3-0.3 0.4-0.8 0-0.8-0.4 0-2.9 1-3.3-0.6 0-0.3 0.2-3.9 2.6-2.1 0.2 0.1 0.7 0.5 1.1 1.2 0.4-0.1 1.2-0.6 2.1-1.4 0.3-0.2 0.5-0.3 0.5 0 0 0.4-0.2 2.4 2.1 1.8 0.2 0 1.2-0.2 1.9-2 0.2-0.4 0.4-0.4 0.3 0-0.2 0.4-0.4 0.8-0.2 1 0.2 0.2 0.8 0.7 1.6 0.6 0.3-0.1 0.5-0.2 0.4-0.4-0.1-0.2-0.4-0.7-0.4-0.7 0.1-0.3 0.2-0.7 0.2-0.8 0-0.2 0.1-0.3 0.2-0.2 0.1 0.1 0.8 1.1 0.4 2.4zm-10.2 0.1c-0.8-1.1-1.7-0.5-1.8-0.4-0.1 0.1-0.2 0.4 0.6 0.5 0.9 0.1 1.2-0.1 1.2-0.1z"/>
		<path id="&lt;Path&gt;" class="s0" d="m15.7 11.2l1 0.7q0.1 0.1 0 0.1l-0.5 0.8q-0.1 0.1-0.1 0l-1-0.7-0.5 0.7q0 0.1-0.1 0l-1-0.7q0 0 0-0.1l0.6-0.8q0 0 0.1 0l0.9 0.7 0.6-0.7q0 0 0 0z"/>
		<path id="&lt;Path&gt;" class="s0" d="m44.3 11.1l1 0.7q0 0.1 0 0.1l-0.6 0.8q0 0.1-0.1 0l-1-0.7-0.5 0.7q0 0.1 0 0l-1-0.7q-0.1 0-0.1-0.1l0.6-0.8q0.1 0 0.1 0l1 0.7 0.5-0.7q0 0 0.1 0z"/>
		<path id="&lt;Path&gt;" class="s0" d="m63 11.2c0 0 0 0.2-0.1 0.4-0.3 0.9-0.1 1.3-0.1 1.4 0.2 0.4 0.6 0.2 0.7-0.2 0.1-0.1 0.1 0 0.1 0q0 0.1-0.1 0.3c-0.1 0.5-0.3 0.7-0.5 0.7-0.4 0-0.5-0.5-0.5-0.7-0.1-1 0.3-1.8 0.4-2 0.1-0.2 0.2-0.1 0.1 0.1z"/>
		<path id="&lt;Path&gt;" class="s0" d="m53.1 10.6c0 0-0.1 0.3-0.2 0.5-0.3 0.9-0.1 1.4-0.1 1.5 0.3 0.5 0.6 0.2 0.8-0.1 0-0.2 0.1-0.1 0.1-0.1q-0.1 0.1-0.1 0.3c-0.2 0.6-0.4 0.8-0.6 0.8-0.4-0.1-0.5-0.5-0.5-0.8-0.1-1 0.3-1.9 0.4-2.1 0.1-0.3 0.2-0.2 0.2 0z"/>
		<path id="&lt;Path&gt;" class="s0" d="m14.6 9.6l1 0.7q0.1 0 0 0.1l-0.5 0.8q-0.1 0-0.1 0l-1-0.7q-0.1-0.1 0-0.1l0.5-0.8q0.1-0.1 0.1 0z"/>
		<path id="&lt;Path&gt;" class="s0" d="m9 8.2c0.1 0.2 0 0.6-0.1 0.8 0 0.2-0.2 0-0.3-0.1 0 0-0.1-0.1-0.2-0.2-0.4-0.4-0.6 0.4-0.7 0.7 0 0.3-0.1 1.2-0.1 1.7q0 0-0.1 0.1c0 0.4-0.2 0.9-0.9 1.4-0.9 0.6-0.9 0.6-1 0.6-0.1 0.1-0.1 0 0-0.1 0.1-0.1 1.8-1.5 1.7-2.2-0.2-0.8-0.9-1.4-1-1.5-0.1-0.1-0.2 0.1-0.2 0.1 0 0.1-0.1 0.1-0.1 0.1-0.1 0-0.4-0.3-0.6-0.4-0.1-0.1 0-0.5 0-0.7 0-0.3 0.2-0.4 0.3-0.3 1.2 0.7 1.6 1.9 1.7 2.1 0-0.9 0.1-1.7 0.6-2.4 0.4-0.5 0.9 0.3 1 0.3z"/>
		<path id="&lt;Path&gt;" class="s0" d="m33.1 14.8l1 0.8q0 0 0 0.1l-0.6 0.8q0 0-0.1 0l-0.9-0.7-0.6 0.7q0 0 0 0l-1-0.8q-0.1 0 0 0l0.5-0.8q0.1-0.1 0.1-0.1l1 0.8 0.5-0.7q0-0.1 0.1-0.1z"/>
		<path id="&lt;Path&gt;" class="s0" d="m28.2 14.7c0 0 0 0.4-0.1 0.6-0.4 1.3-0.1 1.9 0 2 0.3 0.6 0.8 0.2 0.9-0.2 0.1-0.3 0.2-0.2 0.2-0.1q0 0.2-0.1 0.4c-0.2 0.8-0.5 1-0.7 1-0.5 0-0.7-0.6-0.8-0.9-0.1-1.3 0.4-2.5 0.5-2.9 0.1-0.3 0.2-0.2 0.1 0.1z"/>
		<path id="&lt;Path&gt;" class="s0" d="m24.9 12.2c0 0-0.1 0.2-0.1 0.4-0.3 0.8-0.1 1.2-0.1 1.3 0.2 0.4 0.5 0.2 0.7-0.1 0-0.2 0.1-0.1 0 0q0 0 0 0.2c-0.2 0.5-0.4 0.6-0.5 0.7-0.4-0.1-0.5-0.5-0.5-0.7-0.1-0.9 0.3-1.7 0.4-1.9 0.1-0.2 0.2-0.1 0.1 0.1z"/>
		<path id="&lt;Path&gt;" class="s0" d="m33.1 11.8c0 0 0.1 0.4 0.3 0.7 0.1 0.2 0.2 0.4 0.1 0.8 0 0.3-0.2 0.6-0.4 0.7-0.2 0-0.6 0-0.8-0.3-0.4 0.6-0.8 0.7-1.1 0.6-0.3-0.2-0.3-0.7-0.3-0.8 0-0.2 0-0.7 0-0.8 0-0.1 0-0.2 0.1-0.3 0.1-0.1 0.1-0.1 0.1 0.1 0 0.1-0.1 0.8 0.1 1.1 0.3 0.3 0.8 0 0.9-0.2 0.1-0.2-0.1-0.9-0.1-1q-0.1 0 0-0.1c0 0 0-0.3 0-0.4q0.1-0.1 0.2 0c0 0.2 0 0.3 0.2 1 0.1 0.7 0.7 0.5 0.8 0.5 0.2-0.1 0.1-0.2 0.1-0.3 0 0-0.3-0.6-0.4-0.8-0.1-0.2 0-0.4 0.1-0.6 0-0.2 0.1-0.1 0.1 0.1z"/>
		<path id="&lt;Path&gt;" class="s0" d="m33.6 9.4c0 0.2 0 0.2-0.1 0.3-0.1 0.2-0.2 0.2-0.4 0.4-0.1 0.1-2.6 1-2.7 1-0.3 0.2-0.3 0.1-0.2 0q0-0.1 0-0.3c0.1-0.2 0.2-0.2 0.4-0.3 0.2-0.1 2.6-1 2.8-1.1 0.3-0.2 0.3-0.1 0.2 0z"/>
		<path id="&lt;Path&gt;" class="s0" d="m24.7 7c0 0.2 0 0.2-0.1 0.4-0.1 0.1-0.2 0.2-0.3 0.3-0.2 0.1-4.8 2.2-4.9 2.3-0.3 0.2-0.2 0.1-0.2 0q0-0.1 0.1-0.3c0-0.2 0-0.3 0.3-0.4 0.2-0.1 4.7-2.2 4.9-2.3 0.3-0.2 0.3-0.1 0.2 0z"/>
		<path id="&lt;Compound Path&gt;" fill-rule="evenodd" class="s0" d="m35.4 20.9c-2.1 0.7-2.7-0.9-3-1.6-2.2 3.3-5 1.4-5.3 1.1-0.3-0.2-2.1-2.1-3.2-2.5 1 1.9 0.3 2.9 0 3.3-1.3 1.3-2.5 1.3-3 1.2-2.2-0.5-2.3-3.7-2.4-4.4-0.1-2.6-1.4-9.2-1.5-9.6-0.2-0.5-0.1-0.8 0.1-1.1 0.1-0.3 0.2-0.2 0.3 0.1 0.5 1.7 1 4.4 1.3 6.8q0-0.3 0.1-0.4c0-0.3 0.1-0.5 0.6-0.9 2.2-2.1 7.6-5.1 9.4-5.6 1.7-0.5 1.6 1.1 0.6 2.8-0.2 0.4-1.8 2.5-2.1 3-0.2 0.4-0.2 0.1-0.1-0.2 0-0.2 0.3-0.9 0.5-1.2 0.1-0.2 0.9-1.2 1.7-2.5 0.8-1.2-1.4-0.6-1.7-0.4-4.4 1.9-8.2 5.1-8.4 5.4-0.3 0.2 0.1 0.3 0.4 0.4 2.7 0.7 5.7 2.9 6.3 3.4 0.8 0.9 1.4 1.3 1.7 1.5 1.4 0.9 2.8 0.4 3.1 0.2 1-0.4 1.6-1.5 1.8-1.7 0.1-0.1 0.2 0 0.2 0.2 0.1 0.5 0.4 1 0.5 1.1 0.8 1 2.4 0.3 2.7 0 0.2-0.4-1.3-9.5-1.3-9.5-0.1-0.6-0.2-1.2-0.2-1.6-0.1-0.4-0.2-0.6-0.2-0.7 0 0 0.4-0.9 0.4-1 0.1-0.1 0.1 0 0.2 0.1 0 0.1 1.2 3 1.3 3.2 0 0.2-0.1 0.2-0.2 0.1-0.1-0.1-0.7-0.7-0.7-0.7 0 0 1.3 8.5 1.3 9.1 0.1 2.3-0.9 2.5-1.2 2.6zm-11.5-1.8c-1.2-1.5-4.1-3-4.9-3.4q-0.1-0.1-0.2-0.2c0.2 1.5 0.3 2.6 0.4 3 0.4 2.7 1.6 2.8 2.3 2.7 0.7-0.1 1.9-0.8 2.2-1.1 0.4-0.4 0.4-0.6 0.2-1z"/>
		<path id="&lt;Path&gt;" class="s0" d="m38 6.6c0 0.1 1.2 3 1.3 3.2 0.1 0.1-0.1 0.2-0.2 0.1-0.1-0.1-0.7-0.7-0.7-0.7 0 0 1.2 8 1.2 8.2q0.3 2.4 0.2 3.5c0 1-0.2 1.4-0.3 1.5-0.1 0.1-0.1 0.1-0.1-0.1 0-0.6-0.1-1.6-0.3-2.8-0.3-2.4-1.4-10.1-1.5-11.4 0-0.1-0.1-0.5-0.2-0.6 0 0 0.4-0.9 0.5-1 0-0.1 0 0 0.1 0.1z"/>
		<path id="&lt;Path&gt;" class="s0" d="m52.2 6.6c-0.1 0.1-0.1 0.1-0.1 0.3-0.1 0.1-0.2 0.2-0.4 0.3-0.2 0.1-5.4 3.1-5.5 3.2-0.3 0.2-0.3 0.1-0.2 0q0-0.1 0-0.3c0.1-0.2 0.1-0.2 0.3-0.4 0.3-0.1 5.4-3.1 5.6-3.2 0.4-0.2 0.3-0.1 0.3 0.1z"/>
		<path id="&lt;Compound Path&gt;" fill-rule="evenodd" class="s0" d="m14.6 8.8c-0.1 0.1-0.1 0-0.2-0.1 0-0.1-0.3-0.3-0.3-0.3 0 0-0.9 1.4-1.9 2.1-1.1 0.8-2.1 1.1-2.1 1.1-0.1 0-0.1-0.1 0-0.2 0.7-0.4 2.4-1.7 3.7-3.1 0 0-0.4-0.2-0.6-0.4-0.3-0.2-0.1-0.8 0-1.1 0.5-0.7 0.9-0.3 1-0.2 0.4 0.7 0.1 1.3 0.1 1.3 0.2 0.2 0.5 0.4 0.3 0.9zm-0.7-1.8c-0.1-0.1-0.2-0.1-0.5 0.2-0.1 0.1 0 0.2 0.2 0.3 0.1 0.1 0.5 0.3 0.5 0.3 0-0.1 0-0.6-0.2-0.8z"/>
		<path id="&lt;Path&gt;" class="s0" d="m58.5 6.9c0.1 0.2 0.1 0.6 0 0.9-0.1 0.1-0.3 0-0.4-0.2 0 0-0.1-0.1-0.2-0.2-0.5-0.5-0.7 0.4-0.8 0.8 0 0.3-0.1 1.3-0.2 1.8 0 0.3-0.2 0.3-0.2 0.1-0.4-1.2-1.1-1.8-1.2-1.9-0.1-0.1-0.2 0-0.2 0.1 0 0.1-0.1 0.1-0.2 0.1 0-0.1-0.4-0.3-0.6-0.5-0.1-0.1-0.1-0.5 0-0.7 0-0.4 0.2-0.5 0.3-0.4 1.4 0.8 1.8 2.2 1.9 2.4 0.1-1.1 0.1-2 0.7-2.7 0.4-0.6 1.1 0.3 1.1 0.4z"/>
		<path id="&lt;Compound Path&gt;" fill-rule="evenodd" class="s0" d="m63.7 9.1c-0.1 0.1-0.1 0-0.2-0.1-0.1-0.1-0.2-0.3-0.4-0.4-0.3 0.5-0.2 0.6-1.1 1.3-1.9 1.7-4 2.3-4.2 2.3-0.1 0-0.1-0.1 0.1-0.2 0.7-0.5 3.4-1.8 4.8-3.5 0 0-0.4-0.2-0.7-0.4-0.3-0.2-0.2-1 0-1.3 0.6-0.8 1.1-0.4 1.1-0.3 0.5 0.8 0.3 1.6 0.3 1.6 0.2 0.2 0.5 0.5 0.3 1zm-0.9-2.1c-0.1 0-0.3-0.1-0.5 0.3-0.1 0.2 0 0.3 0.1 0.3 0.2 0.1 0.6 0.3 0.6 0.3 0-0.1 0.1-0.6-0.2-0.9z"/>
		<path id="&lt;Compound Path&gt;" fill-rule="evenodd" class="s0" d="m44 8.8c-0.1 0.1-0.1 0-0.2-0.1-0.1-0.1-0.4-0.3-0.4-0.3 0 0-0.4 0.9-1.1 1.4-1.3 1-2.4 1.1-2.5 1.2-0.1 0-0.2-0.1 0-0.2 0.9-0.5 1.8-0.8 3.2-2.6 0 0-0.4-0.1-0.7-0.4-0.3-0.2-0.2-1 0.1-1.3 0.5-0.8 1-0.4 1.1-0.3 0.4 0.8 0.2 1.6 0.2 1.6 0.2 0.2 0.5 0.5 0.3 1zm-0.9-2.1c-0.1 0-0.2 0-0.5 0.3-0.1 0.2 0 0.3 0.2 0.4 0.1 0 0.6 0.2 0.6 0.2 0-0.1 0-0.6-0.3-0.9z"/>
	</g>
</svg>