<svg version="1.2" xmlns="http://www.w3.org/2000/svg" viewBox="0 0 70 30" width="70" height="30">
	<title>New Project</title>
	<style>
		.s0 { fill: #191c4f } 
	</style>
	<g id="العصر">
		<path id="&lt;Path&gt;" class="s0" d="m20.6 21.4c0.3 0.1 0.3 0.5 0.3 0.7-0.3 0.9-0.9 1.5-1.1 1.7-0.1 0.2-0.2 0.1 0-0.1 0 0 0.1-0.2 0.2-0.3 0.6-0.7 0.5-1.1 0.5-1.2 0-0.5-0.4-0.4-0.6-0.2-0.1 0.2-0.2 0.1-0.1 0q0 0 0.1-0.2c0.3-0.4 0.6-0.5 0.7-0.4z"/>
		<path id="&lt;Path&gt;" class="s0" d="m15.5 21.1c-0.1 0.1-0.1 0.2-0.2 0.3-0.1 0.2-0.2 0.3-0.4 0.4-0.2 0.1-2.9 1.1-3 1.2-0.3 0.2-0.3 0-0.2-0.1q0 0 0.1-0.3c0-0.1 0.1-0.2 0.3-0.3 0.2-0.1 2.9-1.2 3.1-1.3 0.4-0.1 0.3 0 0.3 0.1z"/>
		<path id="&lt;Path&gt;" class="s0" d="m27.9 19.8c0 0-0.1 0.3-0.2 0.5-0.4 1-0.2 1.5-0.1 1.6 0.3 0.5 0.7 0.2 0.9-0.2 0-0.2 0.1-0.1 0.1 0q0 0.1-0.1 0.3c-0.2 0.6-0.4 0.8-0.7 0.8-0.4 0-0.6-0.5-0.6-0.8-0.1-1 0.4-2 0.5-2.2 0.1-0.3 0.2-0.2 0.2 0z"/>
		<path id="&lt;Path&gt;" class="s0" d="m35.5 19.8c0 0-0.1 0.3-0.2 0.5-0.3 1-0.1 1.4-0.1 1.5 0.3 0.5 0.7 0.2 0.9-0.1 0.1-0.2 0.1-0.1 0.1-0.1q0 0.1-0.1 0.4c-0.1 0.6-0.4 0.7-0.6 0.7-0.5 0-0.6-0.5-0.7-0.7-0.1-1.1 0.4-2 0.5-2.3 0.2-0.3 0.3-0.2 0.2 0.1z"/>
		<path id="&lt;Path&gt;" class="s0" d="m64.1 19.7c0 0 0.1 0.3 0.1 0.6 0 0.2-0.2 0.5-0.3 0.8-0.1 0.4-0.8 0.5-1.2 0.2-0.8 1.2-1.5 0.6-1.8 0.4-0.7-0.2-0.9 0.2-1.1 0.4-0.8 1-2.4 0.9-2.8 1-0.4 0 0-0.2 0.1-0.3 1.2-0.4 2-0.5 3.1-1.6 0.5-0.4 0.8-0.2 1-0.1 1 0.4 1.2 0 1.3-0.2 0.1-0.1 0.3-0.6 0.4-0.8 0.1-0.2 0.2 0 0.1 0.1 0 0.1 0 0.3-0.1 0.4 0.5 0.3 0.9 0 1 0 0 0-0.1-0.4-0.1-0.5q0-0.1 0.2-0.5c0.1-0.3 0.1 0 0.1 0.1z"/>
		<path id="&lt;Compound Path&gt;" fill-rule="evenodd" class="s0" d="m45 18.3c-0.3 1-1.8 1.6-2.1 1.7-1.3 0.4-1.4-0.9-1.3-1.8 0-1 0.7-2.2 0.7-2.2 0 0-1.4-1.1-1.5-1.2-0.1-0.1-0.2-0.3-0.4-0.3-0.1-0.1-0.1-0.2-0.1-0.2 0 0 0-1 0.1-1.1 0-0.1 0 0 0.1 0 0.1 0.1 1.6 0.6 1.8 0.7 0.1 0.1 0.1 0.2 0 0.2-0.1 0.1-0.6 0.2-0.6 0.2l1.2 0.9c0 0 1.7-2.2 1.9-2.5 0.1-0.2 0.1 0 0.1 0.2-0.1 0.2-0.4 1.1-0.5 1.3 0 0.1-0.9 1.3-0.9 1.3 0 0 1.1 0.7 1.4 1.1 0.5 0.7 0.2 1.3 0.1 1.7zm-2.1-1.9c0 0-0.8 1.2-0.9 1.5-0.3 0.8 0.4 0.9 0.7 0.9 0.3-0.1 1.3-0.6 1.8-1 0.4-0.4-1.4-1.3-1.6-1.4z"/>
		<path id="&lt;Path&gt;" class="s0" d="m10.3 15.5c0 0-0.1 0.2-0.1 0.4-0.4 1-0.2 1.4-0.1 1.5 0.2 0.5 0.6 0.2 0.7-0.1 0.1-0.2 0.1-0.1 0.1 0q0 0.1 0 0.3c-0.2 0.6-0.4 0.7-0.6 0.7-0.4 0-0.6-0.5-0.6-0.7 0-1.1 0.4-2 0.5-2.2 0.1-0.3 0.2-0.2 0.1 0.1z"/>
		<path id="&lt;Path&gt;" class="s0" d="m17.3 12.6c0.1 0.2 0 0.7-0.1 0.9-0.1 0.2-0.2 0-0.3-0.1 0 0-0.1-0.2-0.2-0.3-0.6-0.4-0.8 0.4-0.8 0.8-0.1 0.3-0.1 1.3-0.2 1.9 0 0.2-0.2 0.2-0.2 0-0.4-1.2-1.1-1.8-1.2-1.9-0.1-0.1-0.2 0.1-0.2 0.2 0 0-0.1 0-0.2 0 0 0-0.4-0.3-0.6-0.4-0.1-0.1 0-0.6 0-0.8 0-0.3 0.2-0.4 0.3-0.4 1.4 0.8 1.8 2.2 1.9 2.4 0.1-1 0.1-1.9 0.6-2.6 0.5-0.6 1.1 0.2 1.2 0.3z"/>
		<path id="&lt;Compound Path&gt;" fill-rule="evenodd" class="s0" d="m65.7 17.1c-0.1 0.2-0.4 1.2-1.7 0.9-0.4-0.1-1.1-0.2-1.3-1-0.4 0.5-1.2 1.8-2.8 1.5-0.3 0-1.4-0.4-1.4-1.8 0 0-1.3 1-1.9 1.4 0 0.5 0 1-0.2 1.6-0.3 0.7-3 3.8-5.3 4.3-0.7 0.2-3.6 0.7-3.7-2.5-0.1-0.7 0-1.2 0-1.6-1.7 1.4-3.9 2.5-4.5 2.8-1 0.4-4.2 1-4.8 1.1-0.4 0-0.5-0.1-0.3-0.2 0.3-0.1 7.6-2.6 11.4-6.6 0.1-0.1 0.1-0.3 0-0.5-0.1-0.2-1.3-2.5-1.4-2.8-0.2-0.3-0.3-0.6-0.4-0.7q-0.1-0.2 0-0.4c0-0.1 0.1-0.7 0.2-0.9 0-0.1 0.1-0.1 0.1 0 0.1 0.1 1.3 1.3 1.4 1.5 0.2 0.2 0.1 0.2 0 0.2 0 0-0.6 0-0.6 0 0 0 0.8 1.4 1 1.8 0.5 1.1 0.2 2 0.1 2.4-0.4 0.7-1 1.4-1.8 2-0.1 0.6-0.3 3.2 2.1 3.3 0.4 0 1.7 0.2 4.2-1.9 0.6-0.5 1.2-1 1.8-1.8 0.2-0.3 0.3-0.9-0.1-0.8-0.4 0-3 1-3.3-0.6-0.1-0.4 0.1-4.1 2.6-2.3 0.2 0.2 0.8 0.6 1.1 1.4 0.5-0.2 1.2-0.7 2.2-1.5 0.3-0.2 0.6-0.3 0.6 0 0 0.4-0.2 2.5 2.1 1.9 0.3-0.1 1.2-0.3 1.9-2.2 0.2-0.4 0.5-0.3 0.4 0-0.2 0.5-0.5 0.9-0.2 1.1 0.2 0.2 0.9 0.7 1.7 0.6 0.3 0 0.4-0.2 0.3-0.4-0.1-0.2-0.4-0.7-0.4-0.7 0.1-0.3 0.2-0.8 0.3-0.9 0-0.1 0-0.2 0.1-0.1 0.1 0.1 0.9 1.1 0.5 2.4zm-10.6 0.1c-0.8-1.1-1.8-0.5-1.9-0.3-0.1 0.1-0.2 0.4 0.6 0.4 1 0.1 1.3-0.1 1.3-0.1z"/>
		<path id="&lt;Path&gt;" class="s0" d="m31.6 10.8c0 0-0.1 0.3-0.2 0.5-0.3 0.9-0.1 1.4-0.1 1.5 0.3 0.4 0.6 0.2 0.8-0.2 0-0.1 0.1 0 0.1 0q-0.1 0.1-0.1 0.3c-0.2 0.6-0.4 0.7-0.6 0.7-0.3 0-0.5-0.4-0.5-0.7-0.1-1 0.4-1.9 0.5-2.1 0.1-0.3 0.1-0.2 0.1 0z"/>
		<path id="&lt;Path&gt;" class="s0" d="m43.6 10.4l1 0.8q0 0 0 0l-0.6 0.9q0 0-0.1 0l-1-0.7-0.5 0.7q-0.1 0-0.1 0l-1-0.8q-0.1 0 0 0l0.6-0.9q0 0 0 0l1.1 0.7 0.5-0.7q0 0 0.1 0z"/>
		<path id="&lt;Path&gt;" class="s0" d="m63 10.5c0 0-0.1 0.2-0.1 0.4-0.3 0.9-0.2 1.3-0.1 1.4 0.2 0.5 0.6 0.2 0.7-0.1 0.1-0.2 0.1-0.1 0.1 0q0 0.1-0.1 0.3c-0.1 0.5-0.4 0.7-0.5 0.7-0.4-0.1-0.5-0.5-0.6-0.7 0-1 0.4-1.9 0.5-2.1 0.1-0.3 0.2-0.1 0.1 0.1z"/>
		<path id="&lt;Path&gt;" class="s0" d="m10.8 10.2c0 0-0.1 0.3-0.2 0.5-0.3 0.9-0.1 1.4-0.1 1.5 0.3 0.4 0.7 0.2 0.8-0.2 0.1-0.2 0.1-0.1 0.1 0q0 0.1-0.1 0.3c-0.1 0.6-0.4 0.7-0.6 0.7-0.3 0-0.5-0.4-0.5-0.7-0.1-1 0.4-1.9 0.5-2.2 0.1-0.2 0.2-0.1 0.1 0.1z"/>
		<path id="&lt;Path&gt;" class="s0" d="m6.3 6.5c0 0-0.1 0.3-0.2 0.4-0.3 1-0.1 1.4-0.1 1.5 0.3 0.5 0.7 0.3 0.8-0.1 0.1-0.2 0.1-0.1 0.1 0q0 0.1-0.1 0.3c-0.1 0.6-0.4 0.7-0.6 0.7-0.3 0-0.5-0.5-0.5-0.7-0.1-1.1 0.4-1.9 0.5-2.2 0.1-0.2 0.2-0.1 0.1 0.1z"/>
		<path id="&lt;Path&gt;" class="s0" d="m52.7 9.9c0 0-0.1 0.3-0.2 0.5-0.3 1-0.1 1.4-0.1 1.5 0.3 0.5 0.7 0.3 0.8-0.1 0.1-0.2 0.1-0.1 0.1 0q0 0.1-0.1 0.3c-0.1 0.6-0.4 0.7-0.6 0.7-0.4 0-0.5-0.5-0.5-0.7-0.1-1.1 0.3-2 0.5-2.3 0.1-0.2 0.2-0.1 0.1 0.1z"/>
		<path id="&lt;Path&gt;" class="s0" d="m20.8 8.9c0.8 0.1 0.6 0.4 0.4 0.7-0.5 0.8-1.3 1.2-1.8 1.4-0.6 0.2-0.3-0.2 0-0.4 0 0 0.3-0.2 0.8-0.6 0.5-0.3-0.8-0.3-1.3-0.3-0.5 0-0.7 0.2-0.9 0.4-0.1 0.2-0.3 0.1-0.2-0.2 0.1-0.2 0.3-0.5 0.7-0.9 0.4-0.4 1.6-0.2 2.3-0.1z"/>
		<path id="&lt;Path&gt;" class="s0" d="m32.3 8.1c0 0.2 0 0.2-0.1 0.4-0.1 0.2-0.3 0.2-0.5 0.4-0.2 0.1-8.7 3.5-8.8 3.6-0.4 0.2-0.4 0-0.3-0.1q0 0 0.1-0.3c0.1-0.2 0.2-0.3 0.4-0.4 0.3-0.2 8.7-3.6 9-3.7 0.4-0.2 0.3 0 0.2 0.1z"/>
		<path id="&lt;Path&gt;" class="s0" d="m15.4 7.4c0 0-0.1 0.2-0.1 0.4-0.4 1-0.2 1.4-0.1 1.5 0.2 0.5 0.6 0.2 0.7-0.1 0.1-0.2 0.1-0.1 0.1 0q0 0.1 0 0.3c-0.2 0.6-0.4 0.7-0.6 0.7-0.4 0-0.6-0.5-0.6-0.7 0-1.1 0.4-2 0.5-2.2 0.1-0.3 0.2-0.2 0.1 0.1z"/>
		<path id="&lt;Path&gt;" class="s0" d="m51.8 5.7c-0.1 0.1-0.1 0.1-0.2 0.3 0 0.2-0.1 0.2-0.3 0.3-0.2 0.2-5.6 3.3-5.7 3.4-0.4 0.2-0.3 0-0.3-0.1q0 0 0.1-0.3c0-0.1 0.1-0.2 0.3-0.3 0.2-0.2 5.6-3.3 5.8-3.4 0.3-0.2 0.3 0 0.3 0.1z"/>
		<path id="&lt;Path&gt;" class="s0" d="m58.3 6c0.2 0.2 0.1 0.7 0 0.9-0.1 0.2-0.2 0-0.4-0.1 0 0-0.1-0.2-0.2-0.3-0.6-0.4-0.8 0.5-0.8 0.9-0.1 0.3-0.1 1.3-0.2 1.9-0.1 0.2-0.2 0.2-0.3 0.1-0.3-1.3-1.1-1.9-1.2-2-0.1-0.2-0.2 0-0.2 0.1 0 0.1-0.1 0.1-0.2 0.1-0.1-0.1-0.5-0.3-0.6-0.5-0.1-0.1-0.1-0.6-0.1-0.8 0-0.3 0.3-0.4 0.4-0.4 1.4 0.8 1.9 2.3 2 2.5 0-1.1 0.1-2 0.7-2.8 0.4-0.5 1.1 0.3 1.1 0.4z"/>
		<path id="&lt;Compound Path&gt;" fill-rule="evenodd" class="s0" d="m63.7 8.3c-0.1 0.1-0.1 0-0.2-0.1-0.1-0.1-0.3-0.2-0.5-0.4-0.2 0.5-0.2 0.6-1.1 1.4-2 1.7-4.1 2.3-4.3 2.3-0.1 0-0.1 0 0.1-0.2 0.7-0.5 3.5-1.8 5-3.6 0 0-0.5-0.2-0.8-0.4-0.3-0.2-0.1-1 0.1-1.4 0.6-0.8 1-0.4 1.1-0.3 0.5 0.9 0.2 1.7 0.2 1.7 0.3 0.2 0.6 0.5 0.4 1zm-1-2.1c-0.1-0.1-0.2-0.1-0.5 0.3-0.1 0.1 0 0.2 0.2 0.3 0.2 0.1 0.6 0.3 0.6 0.3 0-0.1 0.1-0.6-0.3-0.9z"/>
		<path id="&lt;Compound Path&gt;" fill-rule="evenodd" class="s0" d="m43.3 8c-0.1 0.1-0.1 0-0.3-0.1 0 0-0.4-0.4-0.4-0.4 0 0-0.4 1-1.1 1.5-1.4 1.1-2.5 1.2-2.6 1.3-0.1 0-0.2-0.1 0.1-0.3 0.8-0.5 1.8-0.8 3.3-2.6 0 0-0.5-0.2-0.8-0.4-0.3-0.2-0.1-1 0.1-1.4 0.5-0.8 1-0.4 1.1-0.3 0.5 0.9 0.2 1.7 0.2 1.7 0.3 0.2 0.6 0.5 0.4 1zm-1-2.1c-0.1-0.1-0.2-0.1-0.5 0.3-0.1 0.1 0 0.2 0.2 0.3 0.2 0.1 0.6 0.3 0.6 0.3 0-0.1 0.1-0.6-0.3-0.9z"/>
		<path id="&lt;Path&gt;" class="s0" d="m27.7 5.6c0.2 0.3 0.1 0.7 0 0.9-0.1 0.2-0.2 0-0.3-0.1 0 0-0.2-0.2-0.3-0.3-0.5-0.4-0.7 0.4-0.8 0.9 0 0.2-0.1 1.2-0.1 1.8-0.1 0.2-0.2 0.2-0.3 0-0.3-1.2-1-1.8-1.1-1.9-0.2-0.1-0.2 0.1-0.3 0.2 0 0-0.1 0-0.1 0-0.1 0-0.5-0.3-0.6-0.4-0.1-0.1-0.1-0.6-0.1-0.8 0.1-0.3 0.3-0.4 0.4-0.4 1.3 0.8 1.8 2.2 1.9 2.4 0-1 0.1-1.9 0.6-2.6 0.5-0.6 1.1 0.2 1.1 0.3z"/>
		<path id="&lt;Compound Path&gt;" fill-rule="evenodd" class="s0" d="m35 16.4c0 1.7-0.6 2.7-0.8 2.9-2 2-4 0.3-4.2 0.1q-0.4-0.4-0.8-0.8c-1 0.6-3.3 1.8-9.2 2.1-1.1 0-1.8-0.1-2.4-0.4-0.1 0.2-0.2 0.3-0.2 0.3-0.2 0.4-0.7 0.7-0.4 0.2 0-0.1 0.1-0.3 0.3-0.6-0.6-0.4-0.8-0.8-1-1.1-0.9-1-2.2-0.5-3-0.2-1.4 0.7-3.5 2.7-4.2 3.3-1.3 1.4-2.4 1.4-2.9 1.2-2.6-0.8-0.4-5.2 0.2-6.2-0.3-0.3-0.5-0.9-0.5-1.2 0-2 0.8-3.6 1-4.1 0.2-0.4 0.3-0.2 0.2 0.2 0 0-0.2 0.5-0.3 0.8-0.6 1.8-0.4 2.6-0.3 2.8 0.4 0.9 1 0.5 1.2-0.2 0.1-0.3 0.2-0.1 0.2 0q0 0.2-0.1 0.6c-0.3 1-0.8 1.3-1.1 1.3q0 0 0 0c-0.2 0.3-0.7 1.3-0.9 1.8-0.8 2-0.2 2.9 0.1 3 1.1 0.6 2.5-0.6 3-1 1.9-1.8 3.6-3.1 4.3-3.5 1.9-0.9 3.1-0.2 3.4 0.2 0.3 0.3 0.5 0.7 0.8 0.9q0.3 0.2 0.6 0.3c0.6-0.8 1.1-1.6 1.3-1.8 0.3-0.4 1.9-2.7 4-2.2 0.6 0.1 2 0.5 2.1 1.9 0 0.4-0.4 1.4-0.6 1.9q0.1 0 0.2 0c1.1-0.2 2.3-0.7 3.4-1.1-0.7-0.5-1.2-0.8-1.3-0.9-0.5-0.3-1.1 0-1.1 0.1-0.2 0.1-0.3-0.1-0.3-0.2 0.1-0.6 0.5-1.1 0.7-1.2 3.3-1.4 5.8 0.1 6.2 0.3 0.3 0.2-0.3 1-0.4 1.2-0.3 0.1-1.1 0.5-1.9 0.9q0.3 0.3 0.4 0.4c1.4 1.2 3.2 0.2 3.5-0.2 0.3-0.5 0-2.5-0.1-3.1 0-0.6-0.7-7-0.7-7q0-0.7-0.1-1.3c-0.1-0.4-0.1-0.6-0.2-0.7 0 0 0.5-0.9 0.5-1 0.1-0.1 0.1-0.1 0.2 0.1 0 0.1 1 2.8 1.1 3 0 0.2-0.1 0.2-0.2 0.1-0.1-0.1-0.6-0.6-0.6-0.6 0 0 0.5 4.7 0.6 5.3 0.1 0.6 0.3 2.8 0.3 3.4zm-10.5 0.9c-0.2-0.3-1.2-1.5-2.6-1.1-0.8 0.1-1.7 0.7-3 2.4-0.1 0.1-0.3 0.3-0.5 0.6 0.7 0.1 4.1 0.4 6.1-1.2 0.2-0.2 0.3-0.4 0-0.7zm6.6-0.7c-0.9-0.4-1.9-0.4-2.8-0.3 0.5 0.2 0.9 0.6 1.3 1 0.9-0.4 1.4-0.7 1.5-0.7z"/>
		<path id="&lt;Path&gt;" class="s0" d="m37.1 5.1c0 0.1 1.2 3.2 1.3 3.4 0 0.2-0.1 0.2-0.2 0.1-0.1-0.1-0.7-0.7-0.7-0.7 0 0 0.9 8.3 0.9 8.6 0.2 1.6 0.2 2.8 0.1 3.6 0 1-0.2 1.4-0.3 1.5-0.1 0.1-0.2 0.1-0.1-0.1 0-0.6-0.1-1.7-0.2-3-0.3-2.5-1.1-10.4-1.3-11.8 0-0.1-0.1-0.5-0.1-0.6 0 0 0.4-0.9 0.5-1 0-0.1 0.1-0.1 0.1 0z"/>
		<path id="&lt;Path&gt;" class="s0" d="m18.5 5.2c0 0-0.1 0.2-0.1 0.4-0.3 0.9-0.2 1.3-0.1 1.4 0.2 0.4 0.5 0.2 0.7-0.1 0-0.2 0.1-0.1 0.1 0q-0.1 0-0.1 0.2c-0.1 0.6-0.4 0.7-0.5 0.7-0.4 0-0.5-0.5-0.5-0.7-0.1-0.9 0.3-1.7 0.4-2 0.1-0.2 0.2-0.1 0.1 0.1z"/>
		<path id="&lt;Path&gt;" class="s0" d="m13.2 6c0.1 0.3 0 0.7-0.1 0.9 0 0.2-0.2 0-0.3-0.1 0 0-0.1-0.2-0.2-0.3-0.6-0.4-0.8 0.4-0.8 0.9-0.1 0.2-0.1 1.2-0.2 1.8 0 0.2-0.2 0.2-0.2 0-0.4-1.2-1.1-1.7-1.2-1.9q0 0 0 0 0 0.1 0 0.4c-0.2 1.6-1.8 2.2-2 2.3-0.3 0.1-0.3 0.1 0-0.2 0.2-0.3 1.4-1.5 1.6-1.7 0.5-0.6-0.4-0.9-0.6-1-0.1-0.1 0-0.6 0-0.8 0-0.3 0.2-0.4 0.3-0.3 1.4 0.7 1.8 2.1 1.9 2.3 0.1-1 0.1-1.9 0.7-2.6 0.4-0.6 1 0.2 1.1 0.3z"/>
	</g>
</svg>