<svg version="1.2" xmlns="http://www.w3.org/2000/svg" viewBox="0 0 70 30" width="70" height="30">
	<title>New Project</title>
	<style>
		.s0 { fill: #191c4f } 
	</style>
	<g id="الهمزة">
		<path id="&lt;Path&gt;" class="s0" d="m29.7 21.3c0 0-0.1 0.2-0.2 0.4-0.4 0.9-0.2 1.3-0.2 1.4 0.3 0.5 0.7 0.3 0.8 0 0.1-0.2 0.2-0.1 0.2 0q-0.1 0.1-0.1 0.3c-0.3 0.5-0.5 0.6-0.7 0.6-0.4 0-0.6-0.5-0.6-0.7 0-1.1 0.6-1.9 0.7-2.1 0.1-0.3 0.2-0.1 0.1 0.1z"/>
		<path id="&lt;Path&gt;" class="s0" d="m7.8 20.9c0 0.1 0 0.1-0.1 0.2-0.1 0.2-0.2 0.2-0.3 0.3-0.2 0.1-2.1 0.8-2.2 0.9-0.2 0.1-0.2 0-0.2-0.1q0 0 0.1-0.2c0-0.1 0.1-0.2 0.3-0.3 0.1-0.1 2-0.8 2.2-0.9 0.3-0.1 0.2 0 0.2 0.1z"/>
		<path id="&lt;Path&gt;" class="s0" d="m17.2 20.8c0 0-0.2 0.3-0.3 0.5-0.4 1-0.3 1.5-0.2 1.7 0.2 0.5 0.6 0.3 0.8-0.1 0.1-0.2 0.2-0.1 0.2 0q-0.1 0.1-0.2 0.3c-0.2 0.7-0.5 0.8-0.7 0.8-0.4-0.1-0.6-0.6-0.6-0.9 0.1-1.2 0.7-2.2 0.8-2.4 0.2-0.3 0.3-0.2 0.2 0.1z"/>
		<path id="&lt;Path&gt;" class="s0" d="m64.2 20.2c0 0 0 0.3 0.1 0.5 0 0.2-0.2 0.6-0.3 0.9-0.1 0.3-0.8 0.5-1.3 0.2-0.7 1.2-1.5 0.6-1.9 0.4-0.7-0.3-0.9 0.2-1 0.4-0.9 1-2.6 1-2.9 1-0.4 0-0.1-0.2 0.1-0.3 1.2-0.4 2-0.5 3.2-1.6 0.5-0.5 0.8-0.2 1-0.2 1 0.5 1.2 0 1.3-0.1 0.2-0.1 0.4-0.7 0.4-0.9 0.1-0.1 0.2 0 0.2 0.2 0 0.1-0.1 0.3-0.1 0.4 0.4 0.3 0.9 0 1-0.1 0 0-0.1-0.3-0.1-0.4q0-0.2 0.1-0.6c0.1-0.3 0.2 0 0.2 0.2z"/>
		<path id="&lt;Compound Path&gt;" fill-rule="evenodd" class="s0" d="m44.4 18.7c-0.3 1-1.8 1.6-2.2 1.7-1.3 0.5-1.4-0.9-1.3-1.9 0.1-0.9 0.8-2.2 0.8-2.2-0.1 0-1.5-1.1-1.6-1.2-0.1-0.2-0.3-0.3-0.4-0.4-0.1-0.1-0.1-0.1-0.1-0.1 0 0 0-1 0-1.2 0-0.1 0.1 0 0.2 0 0.1 0.1 1.6 0.7 1.8 0.7 0.2 0.1 0.1 0.2 0 0.3-0.1 0-0.6 0.1-0.6 0.1l1.3 0.9c0 0 1.7-2.3 1.9-2.5 0.2-0.2 0.1-0.1 0.1 0.2 0 0.2-0.4 1.2-0.4 1.3-0.1 0.2-1 1.4-1 1.4 0 0 1.1 0.7 1.4 1.1 0.5 0.7 0.2 1.4 0.1 1.8zm-2.2-2c0 0-0.8 1.3-0.9 1.6-0.3 0.7 0.5 0.9 0.8 0.9 0.2-0.1 1.3-0.6 1.8-1 0.5-0.4-1.4-1.4-1.7-1.5z"/>
		<path id="&lt;Path&gt;" class="s0" d="m14.6 15l1.1 0.8q0 0 0 0.1l-0.6 0.8q-0.1 0.1-0.1 0l-1.1-0.7q0-0.1 0-0.1l0.6-0.9q0.1 0 0.1 0z"/>
		<path id="&lt;Compound Path&gt;" fill-rule="evenodd" class="s0" d="m65.8 17.4c-0.1 0.3-0.3 1.3-1.7 1-0.4-0.1-1.1-0.2-1.4-1-0.4 0.4-1.2 1.8-2.8 1.5-0.4 0-1.5-0.5-1.5-1.9 0 0-1.4 1.1-2 1.4 0.1 0.5 0 1.1-0.2 1.8-0.2 0.6-3.1 3.9-5.4 4.4-0.8 0.1-3.8 0.7-3.9-2.6-0.1-0.7 0-1.3 0-1.6-1.8 1.4-4 2.5-4.7 2.8-0.9 0.5-4.3 1-4.9 1.1-0.5 0.1-0.5 0-0.3-0.1 0.3-0.2 7.9-2.7 11.8-6.9q0.1-0.2-0.1-0.5c-0.1-0.2-1.3-2.5-1.4-2.8-0.1-0.4-0.3-0.7-0.3-0.9q-0.1-0.1-0.1-0.3c0-0.1 0.1-0.8 0.2-0.9 0-0.2 0.1-0.1 0.2 0 0 0.1 1.3 1.3 1.4 1.5 0.2 0.2 0.1 0.2 0 0.2-0.1 0-0.6 0-0.6 0 0 0 0.8 1.4 1 1.9 0.5 1.1 0.2 2 0.1 2.4-0.4 0.8-1.1 1.5-1.8 2.1-0.2 0.6-0.4 3.3 2.1 3.4 0.4 0 1.7 0.2 4.3-1.9 0.6-0.5 1.3-1.1 1.9-1.9 0.2-0.3 0.4-0.9-0.1-0.8-0.4 0-3.1 1-3.5-0.6 0-0.4 0.2-4.3 2.8-2.4 0.2 0.2 0.8 0.6 1.2 1.4 0.4-0.2 1.2-0.7 2.2-1.5 0.3-0.2 0.6-0.4 0.6 0 0 0.3-0.2 2.6 2.2 1.9 0.3-0.1 1.3-0.3 2-2.2 0.2-0.4 0.5-0.4 0.3 0-0.2 0.5-0.4 0.9-0.2 1.1 0.3 0.2 0.9 0.7 1.8 0.6 0.3 0 0.5-0.1 0.4-0.4-0.2-0.2-0.4-0.7-0.4-0.7 0-0.3 0.1-0.8 0.2-0.9 0-0.2 0.1-0.3 0.2-0.2 0.1 0.1 0.9 1.2 0.4 2.5zm-10.9 0.1c-0.8-1.1-1.9-0.5-2-0.3-0.1 0.1-0.2 0.4 0.7 0.5 1 0.1 1.3-0.2 1.3-0.2z"/>
		<path id="&lt;Compound Path&gt;" fill-rule="evenodd" class="s0" d="m28.7 13.8c-0.1 0.1-0.1 0-0.2-0.2 0 0-0.4-0.4-0.4-0.4 0 0-1.3 1.7-2.7 2.5-1.5 0.9-2.8 1.2-2.8 1.2-0.2 0-0.2-0.1 0-0.2 1-0.5 3.4-2 5.1-3.7 0 0-0.4-0.3-0.7-0.5-0.3-0.3 0-1.1 0.2-1.5 0.7-0.8 1.2-0.3 1.3-0.1 0.4 0.9 0 1.7 0 1.7 0.2 0.2 0.5 0.6 0.2 1.2zm-0.7-2.4c-0.1-0.1-0.2-0.2-0.6 0.2-0.1 0.2 0 0.3 0.2 0.4 0.2 0.1 0.6 0.4 0.6 0.4 0-0.1 0.1-0.7-0.2-1z"/>
		<path id="&lt;Path&gt;" class="s0" d="m42.9 10.5l1.1 0.8q0.1 0 0 0.1l-0.6 0.8q0 0.1-0.1 0.1l-1-0.8-0.6 0.7q0 0.1-0.1 0.1l-1-0.8q-0.1-0.1 0-0.1l0.6-0.9q0 0 0.1 0l1 0.8 0.6-0.8q0 0 0 0z"/>
		<path id="&lt;Path&gt;" class="s0" d="m24.7 10.7c-0.1 0.1-0.1 0.1-0.1 0.3-0.1 0.2-0.2 0.2-0.4 0.3-0.2 0.2-6.5 3-6.6 3.1-0.3 0.2-0.3 0.1-0.2-0.1q0 0 0-0.3c0-0.1 0.1-0.2 0.3-0.3 0.3-0.2 6.5-3 6.7-3.1 0.4-0.2 0.3-0.1 0.3 0.1z"/>
		<path id="&lt;Path&gt;" class="s0" d="m63.1 10.6c0 0-0.1 0.2-0.2 0.4-0.3 1-0.1 1.4-0.1 1.5 0.3 0.5 0.6 0.2 0.8-0.1 0-0.2 0.1-0.1 0.1 0q-0.1 0-0.1 0.2c-0.2 0.6-0.4 0.8-0.6 0.8-0.3-0.1-0.5-0.5-0.5-0.8-0.1-1 0.3-1.8 0.5-2.1 0.1-0.3 0.1-0.1 0.1 0.1z"/>
		<path id="&lt;Path&gt;" class="s0" d="m8.9 10l1.1 0.8q0 0 0 0.1l-0.7 0.8q0 0.1 0 0.1l-1.1-0.8-0.5 0.7q-0.1 0.1-0.1 0.1l-1.1-0.8q0-0.1 0-0.1l0.6-0.9q0.1 0 0.1 0l1.1 0.8 0.5-0.8q0 0 0.1 0z"/>
		<path id="&lt;Path&gt;" class="s0" d="m34 10.1c0 0-0.1 0.4-0.2 0.6-0.3 1.2 0 1.7 0 1.9 0.4 0.5 0.8 0.2 0.9-0.3 0-0.2 0.1-0.1 0.1 0q0 0.1 0 0.4c-0.2 0.7-0.5 0.9-0.7 0.9-0.4 0-0.6-0.5-0.7-0.8-0.1-1.3 0.3-2.4 0.4-2.7 0.1-0.4 0.3-0.2 0.2 0z"/>
		<path id="&lt;Path&gt;" class="s0" d="m52.4 10c0 0-0.1 0.3-0.2 0.5-0.3 1-0.1 1.5-0.1 1.6 0.3 0.5 0.7 0.2 0.8-0.1 0.1-0.2 0.1-0.1 0.1-0.1q0 0.1 0 0.4c-0.2 0.6-0.5 0.7-0.7 0.7-0.4 0-0.5-0.5-0.6-0.7 0-1.1 0.4-2.1 0.5-2.4 0.2-0.2 0.3-0.1 0.2 0.1z"/>
		<path id="&lt;Path&gt;" class="s0" d="m22.7 7.7c0 0.2 0 0.2-0.1 0.4-0.1 0.2-0.3 0.3-0.5 0.4-0.2 0.1-9 4.1-9.1 4.2-0.4 0.2-0.3 0.1-0.3-0.1q0 0 0.1-0.3c0.1-0.2 0.2-0.3 0.4-0.4 0.3-0.2 9-4.1 9.2-4.3 0.5-0.2 0.4 0 0.3 0.1z"/>
		<path id="&lt;Path&gt;" class="s0" d="m8.3 5.8c0 0 0 0.3-0.1 0.4-0.3 0.9-0.1 1.3-0.1 1.4 0.2 0.5 0.6 0.3 0.7-0.1 0.1-0.2 0.1-0.1 0.1 0q0 0.1 0 0.3c-0.2 0.5-0.4 0.7-0.6 0.7-0.4 0-0.5-0.5-0.5-0.7-0.1-1 0.3-1.8 0.4-2.1 0.1-0.2 0.2-0.1 0.1 0.1z"/>
		<path id="&lt;Path&gt;" class="s0" d="m26.8 5.7c0 0-0.1 0.3-0.2 0.5-0.3 0.9-0.1 1.3-0.1 1.4 0.3 0.4 0.6 0.2 0.7-0.2 0.1-0.1 0.2 0 0.1 0q0 0.1 0 0.3c-0.2 0.6-0.4 0.7-0.6 0.7-0.3 0-0.5-0.5-0.5-0.7-0.1-1 0.4-1.8 0.5-2.1 0.1-0.2 0.1-0.1 0.1 0.1z"/>
		<path id="&lt;Path&gt;" class="s0" d="m51.4 5.6c0 0.2 0 0.2-0.1 0.4-0.1 0.1-0.2 0.2-0.4 0.3-0.2 0.1-5.8 3.4-5.9 3.4-0.3 0.3-0.3 0.1-0.2 0q0 0 0-0.3c0.1-0.2 0.1-0.2 0.4-0.4 0.2-0.1 5.8-3.3 6-3.4 0.3-0.2 0.3-0.1 0.2 0z"/>
		<path id="&lt;Path&gt;" class="s0" d="m58.2 6c0.2 0.2 0.1 0.6 0 0.9-0.1 0.2-0.3 0-0.4-0.1 0 0-0.1-0.2-0.2-0.3-0.6-0.5-0.8 0.5-0.9 0.9 0 0.3-0.1 1.4-0.2 2 0 0.2-0.2 0.2-0.2 0-0.4-1.3-1.2-1.9-1.3-2-0.1-0.2-0.2 0-0.3 0.1 0 0.1 0 0.1-0.1 0.1-0.1-0.1-0.5-0.3-0.7-0.5-0.1-0.1 0-0.6 0-0.8 0-0.4 0.2-0.5 0.3-0.4 1.5 0.8 2 2.3 2.1 2.5 0.1-1.1 0.1-2.1 0.7-2.8 0.5-0.6 1.2 0.3 1.2 0.4z"/>
		<path id="&lt;Compound Path&gt;" fill-rule="evenodd" class="s0" d="m63.8 8.3c-0.1 0.2-0.2 0.1-0.3-0.1-0.1-0.1-0.2-0.2-0.4-0.3-0.2 0.5-0.2 0.5-1.2 1.3-2 1.8-4.3 2.4-4.4 2.5-0.1 0-0.2-0.1 0.1-0.3 0.7-0.5 3.6-1.8 5.1-3.7 0 0-0.4-0.2-0.8-0.4-0.3-0.2-0.1-1.1 0.1-1.4 0.6-0.9 1.1-0.5 1.2-0.3 0.5 0.8 0.2 1.7 0.2 1.7 0.3 0.2 0.6 0.5 0.4 1zm-1-2.2c-0.1 0-0.3-0.1-0.6 0.4-0.1 0.1 0 0.2 0.2 0.3 0.2 0.1 0.7 0.3 0.7 0.3 0-0.1 0-0.7-0.3-1z"/>
		<path id="&lt;Path&gt;" class="s0" d="m16.1 5.8c0.1 0.2 0 0.6-0.1 0.9-0.1 0.1-0.2 0-0.3-0.2 0 0-0.1-0.1-0.3-0.2-0.5-0.5-0.7 0.4-0.8 0.8 0 0.3-0.1 1.3-0.2 1.9 0 0.2-0.1 0.2-0.2 0-0.4-1.2-1.1-1.8-1.2-1.9-0.1-0.1-0.2 0.1-0.2 0.1-0.1 0.1-0.1 0.1-0.2 0.1-0.1-0.1-0.5-0.3-0.6-0.5-0.1-0.1-0.1-0.6-0.1-0.7 0-0.4 0.3-0.5 0.4-0.4 1.4 0.8 1.9 2.2 1.9 2.4 0.1-1 0.1-2 0.7-2.7 0.5-0.6 1.1 0.3 1.2 0.4z"/>
		<path id="&lt;Path&gt;" class="s0" d="m36 5.3c0 0.1 1.3 3.3 1.3 3.5 0.1 0.1 0 0.2-0.1 0.1-0.1-0.1-0.8-0.7-0.8-0.7 0 0 1 8.5 1 8.8 0.2 1.7 0.3 2.9 0.2 3.7-0.1 1.1-0.3 1.5-0.3 1.6-0.1 0.1-0.2 0.1-0.2-0.1 0-0.6-0.1-1.8-0.2-3.1-0.3-2.6-1.2-10.8-1.4-12.2 0-0.1-0.1-0.5-0.1-0.6 0 0 0.4-1 0.5-1.1 0-0.1 0.1 0 0.1 0.1z"/>
		<path id="&lt;Compound Path&gt;" fill-rule="evenodd" class="s0" d="m42.6 8c0 0.2-0.1 0.1-0.2-0.1 0 0-0.4-0.3-0.4-0.3 0 0-0.5 0.9-1.2 1.5-1.4 1-2.6 1.2-2.6 1.2-0.2 0.1-0.2 0 0-0.2 0.9-0.5 1.9-0.8 3.4-2.7 0 0-0.5-0.2-0.8-0.4-0.3-0.2-0.1-1.1 0.1-1.4 0.6-0.9 1.1-0.5 1.2-0.3 0.5 0.8 0.2 1.7 0.2 1.7 0.3 0.1 0.5 0.5 0.3 1zm-0.9-2.2c-0.1-0.1-0.3-0.1-0.6 0.4-0.1 0.1 0 0.2 0.2 0.3 0.2 0.1 0.7 0.3 0.7 0.3 0-0.1 0-0.7-0.3-1z"/>
		<path id="&lt;Compound Path&gt;" fill-rule="evenodd" class="s0" d="m35.2 19.4c-0.3 1-0.7 1-1.2 1.2-1.9 0.5-3.3 0.4-3.7 0.3q-0.4-0.2-0.7-0.3c-4.1 1.7-7.2 0.6-7.9 0.3q0 0 0 0c0 0.7-0.1 1.2-0.2 1.4-0.1 0.3-0.4 1-1.7-0.1-0.6-0.6-0.7-1.7-0.7-2.6-0.3 0-0.6 0-0.6 0 0 0-1.2 0-2.7 0.9-1 0.6-2.2 1.8-2.7 2.3-1.9 2.1-2.9 2.1-3.5 2.1-2.8-0.4-1.7-3.9-1.1-5q0.1-0.1 0.2-0.2-0.4 0.2-0.5 0.2c-1.4 0.4-1.5-0.9-1.4-1.9 0.1-1 0.8-2.2 0.8-2.2-0.1 0-1.5-1.2-1.6-1.3-0.1-0.1-0.2-0.2-0.4-0.3-0.1-0.1-0.1-0.2-0.1-0.2 0 0 0.1-1 0.1-1.1 0-0.1 0-0.1 0.1 0 0.1 0 1.7 0.7 1.8 0.7 0.2 0.1 0.1 0.2 0.1 0.3-0.1 0-0.6 0.1-0.6 0.1l1.2 0.9c0 0 1.7-2.3 1.9-2.5 0.2-0.2 0.2-0.1 0.1 0.2 0 0.2-0.3 1.1-0.4 1.3-0.1 0.1-1 1.4-1 1.4 0 0 1.2 0.7 1.5 1.1 0.5 0.7 0.2 1.4 0 1.8-0.1 0.5-0.6 0.9-1.1 1.2 0 0.1 0 0.2-0.1 0.3-1.3 2.1-0.9 3.5-0.6 3.8 0.7 0.7 1.9 0.3 2.4-0.2 0.4-0.3 3-2.7 3.7-3.3 2.2-1.7 3.4-1.7 4.1-1.7q0.5 0 0.8 0 0-0.2 0.1-0.3c0.1-0.2 0.1-0.2 0.3 0.1 2.3 2.6 7.2 2 7.9 2q0.4-0.1 0.8-0.2c-0.5-0.7-0.3-1.5-0.2-2 0.3-1.7 1.5-2.6 1.8-2.7 0.1-0.1 0.3-0.1 0.6-0.1-0.2-0.5-0.2-0.9-0.3-1-0.1-0.6-0.6-4.9-0.7-5.4-0.1-0.7-0.1-1.4-0.2-1.8 0-0.5-0.1-0.7-0.1-0.8 0 0 0.4-0.9 0.5-1 0-0.2 0-0.1 0.1 0 0 0.1 1.2 3 1.2 3.2 0.1 0.2 0 0.2-0.1 0.1-0.1-0.1-0.7-0.7-0.7-0.7 0 0 0.8 6.2 1 7 0.7 2 2.1 1.9 3 2.3 0.9 0.5 0.9 1.5 0.7 2.4zm-25.4-1.7c0.5-0.4-1.4-1.4-1.7-1.5 0 0-0.7 1.3-0.8 1.5-0.4 0.8 0.4 1 0.7 0.9 0.3 0 1.3-0.5 1.8-0.9zm21.6 0.5c0.2-0.3 0-0.9-0.2-1.3-0.5-1-1.3-0.7-2.2 0.8-0.5 1 0.3 1.3 0.7 1.6q0.2 0 0.3 0.1c1-0.5 1.3-1.1 1.4-1.2zm2.9 0.2c-0.3-0.1-1-0.4-1.6-0.6q-0.3-0.2-0.6-0.4c-0.2 1.2-0.5 1.8-0.8 2.2 1.4 0.1 2.9-0.3 3.3-0.5 0.5-0.1-0.1-0.6-0.3-0.7z"/>
	</g>
</svg>