<svg version="1.2" xmlns="http://www.w3.org/2000/svg" viewBox="0 0 70 30" width="70" height="30">
	<title>New Project</title>
	<style>
		.s0 { fill: #191c4f } 
	</style>
	<g id="قريش">
		<path id="&lt;Path&gt;" class="s0" d="m21.1 22.3c-0.1 0.2-0.1 0.2-0.2 0.4-0.1 0.2-0.2 0.2-0.4 0.3-0.2 0.1-3.4 1.4-3.5 1.4-0.4 0.3-0.4 0.1-0.3 0q0-0.1 0.1-0.3c0-0.2 0.1-0.2 0.4-0.4 0.2-0.1 3.4-1.4 3.6-1.5 0.4-0.2 0.3 0 0.3 0.1z"/>
		<path id="&lt;Path&gt;" class="s0" d="m20.8 21c-0.1 0.1-0.1 0.1-0.2 0.3-0.1 0.2-0.2 0.2-0.4 0.4-0.2 0.1-3.4 1.3-3.5 1.4-0.4 0.2-0.3 0-0.3-0.1q0 0 0.1-0.3c0.1-0.2 0.2-0.2 0.4-0.4 0.3-0.1 3.4-1.3 3.6-1.4 0.4-0.2 0.3-0.1 0.3 0.1z"/>
		<path id="&lt;Path&gt;" class="s0" d="m63.9 20.4c0 0 0 0.3 0 0.6 0 0.2-0.1 0.6-0.2 0.9-0.2 0.4-0.9 0.5-1.4 0.2-0.8 1.3-1.6 0.7-2 0.5-0.7-0.3-1 0.2-1.2 0.4-0.9 1.1-2.6 1-3 1.1-0.4 0-0.1-0.2 0.1-0.3 1.3-0.5 2.2-0.6 3.4-1.7 0.5-0.6 0.9-0.3 1.1-0.2 1.1 0.5 1.2 0 1.4-0.2 0.1-0.1 0.3-0.7 0.4-0.9 0.1-0.2 0.2 0 0.2 0.1 0 0.2-0.1 0.4-0.1 0.5 0.4 0.3 0.9 0 1-0.1 0 0 0-0.3 0-0.4q-0.1-0.2 0.1-0.7c0.1-0.2 0.2 0 0.2 0.2z"/>
		<path id="&lt;Path&gt;" class="s0" d="m25.8 19.3l1.2 0.8q0 0.1 0 0.1l-0.7 0.9q0 0.1-0.1 0.1l-1.1-0.9-0.6 0.8q0 0.1-0.1 0.1l-1.1-0.9q0 0 0-0.1l0.7-0.9q0 0 0 0l1.2 0.8 0.5-0.8q0.1 0 0.1 0z"/>
		<path id="&lt;Path&gt;" class="s0" d="m34.1 19.5c0 0-0.1 0.3-0.2 0.6-0.4 1.2-0.1 1.8 0 1.9 0.4 0.6 0.9 0.3 1-0.2 0.1-0.3 0.2-0.1 0.2 0q0 0.1-0.1 0.4c-0.2 0.7-0.5 0.9-0.8 1-0.5 0-0.8-0.6-0.8-0.9-0.2-1.4 0.4-2.6 0.5-2.9 0.1-0.4 0.3-0.2 0.2 0.1z"/>
		<path id="&lt;Compound Path&gt;" fill-rule="evenodd" class="s0" d="m42.9 18.8c-0.4 1.2-2 1.8-2.3 1.9-1.4 0.4-1.6-1-1.5-2 0.1-1 0.9-2.4 0.9-2.4-0.1 0-1.6-1.2-1.7-1.3-0.1-0.1-0.3-0.3-0.4-0.4-0.1-0.1-0.1-0.1-0.1-0.1 0 0 0-1.1 0-1.2 0-0.1 0.1-0.1 0.2 0 0.1 0 1.7 0.6 1.9 0.7 0.2 0.1 0.1 0.2 0 0.3-0.1 0-0.6 0.1-0.6 0.1l1.3 1c0 0 1.9-2.4 2-2.6 0.2-0.3 0.2-0.2 0.2 0.1-0.1 0.2-0.4 1.3-0.5 1.4-0.1 0.2-1.1 1.5-1.1 1.5 0 0 1.3 0.7 1.6 1.2 0.5 0.7 0.2 1.4 0.1 1.8zm-2.4-2.1c0 0-0.8 1.4-0.9 1.7-0.4 0.8 0.5 1 0.8 1 0.3-0.1 1.4-0.6 1.9-1.1 0.5-0.4-1.4-1.4-1.8-1.6z"/>
		<path id="&lt;Compound Path&gt;" fill-rule="evenodd" class="s0" d="m36.3 16.8c-0.3 1.2-1.4 1.5-2.4 1.7-0.7 0.2-1.5 0.2-1.9 0.1q0 0.2 0 0.2c0 1.9-0.8 2.5-0.9 2.7 0 0-2.3 2.2-7 3.6 0 0-4 0.4-4.5 0.4-0.5 0-0.3-0.3 0-0.4 7.3-1.7 10.5-4.1 11.3-4.7 0.8-0.7 0.6-1.1 0.5-1.5-0.1-0.4-0.7-1.9-0.7-1.9 0 0 0.1-0.7 0.2-0.9 0.1-0.2 0.1-0.3 0.2 0q0.1 0.3 0.3 0.8c1.7 1.1 4-0.2 4.3-0.4 0.2-0.2 0.1-0.9-1.3-0.9-1.7 0.2-2-0.3-2.3-0.6-0.4-0.6-0.1-2.3 1.2-2.9 1.7-0.7 2.9 1.9 3 2.9 0 0 0.2 0.8 0 1.8zm-1.4-2.4q-0.2-0.3-0.4-0.6c-0.4-0.5-1.2-0.5-1.5-0.2-0.4 0.3-0.1 0.7 0.7 0.7 0.4 0 0.9 0 1.2 0.1z"/>
		<path id="&lt;Path&gt;" class="s0" d="m31.3 11.9c0 0.1-0.1 0.1-0.2 0.3 0 0.2-0.2 0.2-0.4 0.4-0.2 0.1-3.5 1.4-3.6 1.5-0.4 0.2-0.4 0-0.3-0.1q0-0.1 0.1-0.3c0-0.2 0.1-0.2 0.4-0.4 0.2-0.1 3.5-1.4 3.8-1.5 0.3-0.2 0.3-0.1 0.2 0.1z"/>
		<path id="&lt;Compound Path&gt;" fill-rule="evenodd" class="s0" d="m65.6 17.5c-0.1 0.3-0.4 1.3-1.9 1-0.4 0-1.1-0.2-1.4-1-0.4 0.4-1.3 1.9-3 1.6-0.4 0-1.6-0.5-1.6-2 0 0-1.4 1.1-2.1 1.5 0.1 0.5 0 1.1-0.2 1.8-0.3 0.7-3.3 4.1-5.8 4.7-0.8 0.2-4 0.8-4.1-2.8 0-0.7 0-1.3 0.1-1.7-2 1.5-4.3 2.7-5 3-1.1 0.5-4.7 1.1-5.3 1.2-0.4 0.1-0.5 0-0.3-0.1 0.3-0.2 8.3-2.9 12.5-7.3q0.2-0.2 0-0.5c-0.1-0.2-1.4-2.7-1.6-3.1-0.1-0.3-0.3-0.7-0.3-0.8q-0.1-0.2-0.1-0.4c0.1-0.1 0.2-0.8 0.2-1 0.1-0.1 0.1-0.1 0.2 0.1 0.1 0.1 1.4 1.4 1.6 1.5 0.1 0.2 0 0.3-0.1 0.3 0 0-0.7 0-0.7 0 0 0 0.9 1.5 1.2 2 0.5 1.2 0.2 2.1 0 2.6-0.4 0.7-1.1 1.5-1.9 2.2-0.1 0.6-0.4 3.5 2.3 3.6 0.4 0 1.8 0.2 4.6-2.1 0.6-0.5 1.3-1.1 1.9-2 0.3-0.3 0.4-0.9 0-0.9-0.5 0.1-3.3 1.1-3.7-0.6-0.1-0.4 0.1-4.5 2.9-2.5 0.2 0.2 0.8 0.7 1.2 1.5 0.5-0.2 1.4-0.8 2.4-1.6 0.4-0.3 0.6-0.4 0.6 0 0 0.4-0.2 2.7 2.4 2 0.2-0.1 1.3-0.3 2.1-2.3 0.2-0.5 0.5-0.4 0.4 0-0.2 0.5-0.5 0.9-0.3 1.2 0.3 0.2 1 0.7 1.9 0.6 0.3 0 0.5-0.2 0.4-0.4-0.1-0.3-0.4-0.8-0.4-0.8 0-0.3 0.2-0.9 0.2-1 0-0.1 0.1-0.2 0.2-0.1 0.1 0.1 1 1.2 0.5 2.6zm-11.6 0.1c-0.9-1.2-2-0.5-2.1-0.3-0.1 0.1-0.2 0.4 0.7 0.5 1 0.1 1.4-0.2 1.4-0.2z"/>
		<path id="&lt;Path&gt;" class="s0" d="m11.4 14.6c0 0-0.1 0.4-0.2 0.8-0.6 1.6-0.4 2.4-0.3 2.6 0.4 0.8 0.9 0.4 1.1-0.2 0.2-0.3 0.2-0.2 0.2 0q0 0.1-0.1 0.5c-0.3 1-0.7 1.2-1 1.2-0.5 0-0.7-0.9-0.7-1.3-0.1-1.8 0.7-3.3 0.9-3.8 0.1-0.4 0.3-0.2 0.1 0.2z"/>
		<path id="&lt;Path&gt;" class="s0" d="m20.6 10.8l1.2 0.8q0 0.1 0 0.1l-0.7 0.9q0 0.1-0.1 0.1l-1.1-0.9-0.6 0.8q0 0.1-0.1 0.1l-1.1-0.9q0 0 0-0.1l0.7-0.9q0 0 0.1 0l1.1 0.8 0.5-0.8q0.1 0 0.1 0z"/>
		<path id="&lt;Path&gt;" class="s0" d="m41.3 10.2l1.2 0.8q0 0.1 0 0.1l-0.7 0.9q0 0.1-0.1 0l-1.1-0.8-0.6 0.8q0 0.1-0.1 0l-1.1-0.8q0 0 0-0.1l0.7-0.9q0 0 0 0l1.2 0.8 0.5-0.8q0.1 0 0.1 0z"/>
		<path id="&lt;Path&gt;" class="s0" d="m62.7 10.2c0 0-0.1 0.3-0.2 0.5-0.3 1-0.1 1.5-0.1 1.6 0.3 0.5 0.6 0.2 0.8-0.2 0.1-0.1 0.1 0 0.1 0q0 0.1-0.1 0.3c-0.1 0.7-0.4 0.8-0.6 0.8-0.4 0-0.5-0.5-0.6-0.8 0-1 0.4-2 0.5-2.2 0.1-0.3 0.2-0.2 0.2 0z"/>
		<path id="&lt;Path&gt;" class="s0" d="m24.5 9.7c0.1 0.2 1.2 1.6 1.4 1.9 0.1 0.3 0 0.4 0 0.4-0.1-0.1-0.7-0.4-0.7-0.4 0 0 0.8 2.2 0.9 2.6 0.5 1.6-0.2 2.8-0.3 3-0.5 0.5-1.4 0.5-1.6 0.4-1.3-0.1-1.7-1-1.7-1 0 0.1-0.3 0.7-0.5 1-0.6 0.6-1.4 0.5-1.6 0.4-0.7-0.3-1.1-1.1-1.1-1.1q0 0-0.1 0.1c-0.6 1-1.9 1.1-2.5 1 0.1 0.7 0.1 1.4-0.2 2.1-0.2 0.8-2.6 2.3-3.6 2.8-3.5 1.9-5.8 0.8-6.3 0.5-2.7-1.8-1.2-5.5-1-6.1q0 0 0-0.1c-0.4-0.3-0.6-1-0.6-1.4 0-2.1 0.9-3.9 1.1-4.4 0.2-0.5 0.4-0.3 0.2 0.1 0 0-0.2 0.6-0.3 0.9-0.7 2-0.4 2.9-0.3 3.1 0.4 1 1 0.5 1.3-0.2 0.1-0.4 0.2-0.2 0.2 0q0 0.2-0.1 0.6c-0.4 1.2-0.8 1.4-1.2 1.4q0 0 0 0 0 0.1-0.1 0.1c-0.2 0.7-0.4 2-0.3 2.5 0.3 2.5 3 2.6 3.6 2.7 3.9-0.1 7-3.1 7.1-3.3 0.2-0.2 0.1-0.5 0-0.8 0-0.2-0.5-1.3-0.6-1.4-0.1-0.1 0 0-0.3-0.7 0 0 0.2-1 0.2-1.1 0.1-0.1 0.2 0 0.3 0.1q0.2 0.4 0.4 1c2.3 1.3 3.6-1.2 3.8-1.4 0.2-0.2 0.2 0.1 0.2 0.2 0 0.1-0.2 0.4-0.2 0.5 0.1 0.6 0.6 0.9 0.8 0.9 0.7 0.2 1.1-0.1 1.3-0.4 0.2-0.3 0.6-1.3 0.7-1.5 0.2-0.1 0.3 0 0.2 0.1q0 0.2-0.1 0.4c0.7 1.5 2.4 1 2.7 0.9 0.3-0.2 0-0.7-0.1-1.1-0.2-0.4-1-2.9-1.3-3.6-0.2-0.7 0-1.4 0.1-1.6 0.1-0.2 0.1-0.2 0.2-0.1z"/>
		<path id="&lt;Path&gt;" class="s0" d="m51.3 9.6c0 0-0.1 0.4-0.1 0.6-0.4 1.1-0.2 1.5-0.2 1.7 0.3 0.5 0.7 0.2 0.9-0.2 0.1-0.2 0.1-0.1 0.1 0q0 0.1-0.1 0.3c-0.2 0.7-0.4 0.8-0.6 0.9-0.5-0.1-0.6-0.6-0.7-0.9 0-1.1 0.5-2.1 0.6-2.4 0.1-0.3 0.2-0.2 0.1 0z"/>
		<path id="&lt;Path&gt;" class="s0" d="m34.1 9.2l1.2 0.8q0 0.1 0 0.1l-0.7 0.9q0 0.1-0.1 0l-1.1-0.8-0.6 0.8q0 0.1-0.1 0l-1.1-0.8q0 0 0-0.1l0.7-0.9q0 0 0 0l1.2 0.8 0.5-0.8q0.1 0 0.1 0z"/>
		<path id="&lt;Path&gt;" class="s0" d="m19.4 8.8l1.1 0.9q0.1 0 0 0l-0.6 1q-0.1 0-0.1 0l-1.2-0.9q0 0 0 0l0.7-1q0 0 0.1 0z"/>
		<path id="&lt;Path&gt;" class="s0" d="m14.6 6.9c0 0-0.1 0.6-0.3 1-0.6 1.9-0.4 2.8-0.3 3 0.4 1 1.1 0.5 1.4-0.2 0.1-0.4 0.2-0.2 0.1 0q0 0.2-0.1 0.6c-0.3 1.2-0.8 1.5-1.1 1.4-0.7 0-0.9-1-0.9-1.5 0-2.1 0.8-3.9 1-4.4 0.2-0.5 0.4-0.3 0.2 0.1z"/>
		<path id="&lt;Path&gt;" class="s0" d="m26.2 5.5c0.8 0.1 0.6 0.5 0.4 0.7-0.6 0.9-1.3 1.3-1.9 1.5-0.5 0.2-0.3-0.2 0.1-0.4 0 0 0.3-0.2 0.8-0.6 0.5-0.4-0.8-0.3-1.4-0.3-0.5 0-0.7 0.2-0.9 0.4-0.1 0.2-0.4 0.1-0.2-0.2 0.1-0.2 0.3-0.5 0.7-0.9 0.4-0.5 1.6-0.3 2.4-0.2z"/>
		<path id="&lt;Path&gt;" class="s0" d="m11.7 5.5c0.2 0.2 0.1 0.7 0 1-0.1 0.2-0.2 0-0.4-0.2 0 0-0.1-0.1-0.3-0.2-0.6-0.5-0.7 0.5-0.8 1 0 0.4 0 1.5 0 2.1q0 0.1 0 0.1c0 0.5-0.2 1.2-1 1.9-1.1 0.8-1.2 0.8-1.2 0.9-0.1 0.1-0.2 0 0-0.2 0.1-0.1 2.1-2 1.8-2.9-0.3-1-1.2-1.7-1.3-1.8-0.2-0.1-0.3 0.1-0.3 0.2 0 0.1-0.1 0.1-0.2 0.1 0-0.1-0.5-0.3-0.7-0.5-0.1-0.1-0.1-0.6-0.1-0.8 0-0.4 0.2-0.5 0.3-0.5 1.7 0.8 2.3 2.3 2.4 2.5 0-1.1-0.1-2.2 0.5-3 0.4-0.7 1.2 0.2 1.3 0.3z"/>
		<path id="&lt;Path&gt;" class="s0" d="m50.3 5c0 0.1 0 0.2-0.1 0.4-0.1 0.2-0.2 0.2-0.4 0.3-0.2 0.2-6.2 3.6-6.3 3.7-0.3 0.2-0.3 0-0.3-0.1q0.1 0 0.1-0.3c0.1-0.2 0.1-0.2 0.4-0.4 0.2-0.1 6.1-3.5 6.4-3.7 0.3-0.2 0.3 0 0.2 0.1z"/>
		<path id="&lt;Path&gt;" class="s0" d="m57.5 5.4c0.2 0.2 0.1 0.7 0 1-0.1 0.1-0.3 0-0.4-0.2 0 0-0.2-0.1-0.3-0.3-0.6-0.5-0.8 0.5-0.9 1 0 0.3-0.1 1.4-0.2 2.1 0 0.2-0.2 0.2-0.3 0-0.4-1.4-1.2-2-1.3-2.1-0.1-0.2-0.2 0-0.3 0.1 0 0.1-0.1 0.1-0.1 0.1-0.1-0.1-0.6-0.4-0.7-0.5-0.2-0.2-0.1-0.7-0.1-0.9 0-0.4 0.3-0.5 0.4-0.4 1.6 0.9 2.1 2.4 2.2 2.7 0.1-1.2 0.1-2.2 0.7-3 0.5-0.7 1.3 0.3 1.3 0.4z"/>
		<path id="&lt;Compound Path&gt;" fill-rule="evenodd" class="s0" d="m63.4 7.9c-0.1 0.1-0.1 0-0.2-0.1-0.1-0.1-0.3-0.3-0.5-0.4-0.3 0.5-0.2 0.6-1.2 1.4-2.2 1.9-4.6 2.6-4.7 2.6-0.2 0-0.2-0.1 0-0.2 0.8-0.6 3.9-2 5.5-4 0 0-0.5-0.2-0.8-0.4-0.4-0.3-0.2-1.2 0-1.5 0.7-1 1.2-0.5 1.3-0.3 0.5 0.9 0.2 1.8 0.2 1.8 0.3 0.2 0.6 0.5 0.4 1.1zm-1-2.4c-0.2 0-0.3-0.1-0.6 0.4-0.1 0.1 0 0.3 0.2 0.3 0.2 0.1 0.7 0.3 0.7 0.3 0-0.1 0-0.6-0.3-1z"/>
		<path id="&lt;Path&gt;" class="s0" d="m19 4.7c0 0-0.1 0.3-0.2 0.5-0.3 1.1-0.1 1.6-0.1 1.7 0.3 0.5 0.7 0.2 0.9-0.2 0-0.2 0.1-0.1 0.1 0q0 0.1-0.1 0.4c-0.2 0.6-0.5 0.8-0.7 0.8-0.4 0-0.6-0.6-0.6-0.8 0-1.2 0.5-2.2 0.6-2.5 0.1-0.3 0.2-0.2 0.1 0.1z"/>
		<path id="&lt;Compound Path&gt;" fill-rule="evenodd" class="s0" d="m41 7.6c0 0.1-0.1 0-0.2-0.2-0.1 0-0.5-0.4-0.5-0.4 0 0-0.5 1.1-1.3 1.7-1.4 1.1-2.7 1.3-2.8 1.3-0.1 0.1-0.2-0.1 0.1-0.2 0.9-0.6 2-0.9 3.6-2.9 0 0-0.5-0.2-0.8-0.5-0.4-0.2-0.2-1.1 0-1.4 0.7-1 1.2-0.5 1.3-0.4 0.5 0.9 0.2 1.8 0.2 1.8 0.3 0.2 0.6 0.6 0.4 1.2zm-1-2.4c-0.1-0.1-0.3-0.1-0.6 0.4-0.1 0.1 0 0.2 0.2 0.3 0.2 0.1 0.7 0.3 0.7 0.3 0-0.1 0-0.7-0.3-1z"/>
		<path id="&lt;Compound Path&gt;" fill-rule="evenodd" class="s0" d="m33 7.1c-0.1 0.1-0.2 0-0.3-0.2 0 0-0.3-0.4-0.3-0.4 0 0-1.3 1.6-2.6 2.3-1.4 0.8-2.6 1.1-2.7 1.1-0.1 0-0.2-0.1 0.1-0.2 0.9-0.4 3.2-1.8 4.8-3.4 0 0-0.4-0.2-0.7-0.5-0.2-0.2 0-1 0.3-1.3 0.7-0.8 1.1-0.3 1.2-0.2 0.3 0.9 0 1.7 0 1.7 0.2 0.2 0.4 0.6 0.2 1.1zm-0.7-2.3c-0.1-0.1-0.2-0.1-0.6 0.3-0.1 0.1 0 0.2 0.2 0.3 0.2 0.1 0.6 0.4 0.6 0.4 0-0.2 0.1-0.6-0.2-1z"/>
		<path id="&lt;Path&gt;" class="s0" d="m36.1 4.2c0 0-0.1 0.4-0.2 0.6-0.4 1-0.2 1.6-0.2 1.7 0.3 0.5 0.8 0.3 1-0.2 0-0.2 0.1 0 0.1 0q0 0.1-0.1 0.4c-0.2 0.6-0.5 0.8-0.8 0.8-0.4 0-0.6-0.6-0.6-0.9-0.1-1.2 0.5-2.1 0.7-2.4 0.1-0.3 0.2-0.2 0.1 0z"/>
	</g>
</svg>