<svg version="1.2" xmlns="http://www.w3.org/2000/svg" viewBox="0 0 70 30" width="70" height="30">
	<title>New Project</title>
	<style>
		.s0 { fill: #191c4f } 
	</style>
	<g id="الماعون">
		<path id="&lt;Path&gt;" class="s0" d="m10.3 20.9c0 0.1 0 0.2-0.1 0.3-0.1 0.2-0.2 0.2-0.3 0.3-0.2 0.1-3.5 1.7-3.6 1.8-0.3 0.1-0.3 0-0.2-0.1q0 0 0-0.2c0.1-0.2 0.1-0.2 0.3-0.4 0.2-0.1 3.5-1.6 3.7-1.7 0.3-0.2 0.2-0.1 0.2 0z"/>
		<path id="&lt;Path&gt;" class="s0" d="m36.4 20.3c0 0 0 0.2-0.1 0.4-0.3 0.7-0.1 1.1-0.1 1.2 0.2 0.4 0.5 0.2 0.6-0.1 0.1-0.2 0.1-0.1 0.1 0q0 0 0 0.2c-0.2 0.5-0.4 0.6-0.5 0.6-0.3 0-0.4-0.4-0.5-0.6 0-0.8 0.4-1.6 0.4-1.8 0.1-0.2 0.2-0.1 0.1 0.1z"/>
		<path id="&lt;Path&gt;" class="s0" d="m21.7 19.5c0.1 0 0.2 0 0.2 0.1q0.1 0.1 0 0.1 0 0-0.1 0c-0.1-0.1-0.3 0-0.4 0q-0.2 0.1-0.3 0.1-0.1 0.1-0.1 0.1 0 0.1 0 0.1c0.1 0.1 0.3 0.3 0.4 0.3 0.3 0 0.5-0.1 0.7-0.2 0.1-0.1 0.3-0.2 0.2 0q0 0.1 0 0.1c0 0.1-0.1 0.1-0.1 0.1-0.5 0.2-1 0.5-1.2 1-0.1 0.2-0.1 0.5 0 0.7 0.1 0.2 0.3 0.4 0.5 0.5q0.4 0.1 0.8 0.1 0.2 0 0.4 0 0.1 0 0.2 0 0-0.1 0.1 0 0 0 0 0 0 0.1-0.1 0.1-0.1 0-0.3 0.1c-0.2 0-0.3 0.1-0.5 0.1-0.4 0-0.8-0.1-1.1-0.3-0.5-0.5-0.3-1.5 0.2-2-0.1-0.1-0.3-0.2-0.4-0.4 0-0.1 0-0.3 0.1-0.4 0.1-0.4 0.5-0.5 0.8-0.3z"/>
		<path id="&lt;Path&gt;" class="s0" d="m64.2 19.1c0 0 0 0.3 0 0.5 0 0.2-0.1 0.4-0.2 0.7-0.1 0.3-0.7 0.4-1.1 0.2-0.6 1-1.3 0.5-1.6 0.4-0.6-0.3-0.8 0.1-0.9 0.3-0.8 0.9-2.2 0.8-2.5 0.9-0.4 0-0.1-0.2 0-0.3 1.1-0.4 1.8-0.4 2.8-1.4 0.4-0.4 0.7-0.2 0.9-0.1 0.9 0.4 1 0 1.2-0.1 0.1-0.1 0.2-0.6 0.3-0.8 0.1-0.1 0.2 0 0.1 0.1 0 0.1 0 0.3-0.1 0.4 0.4 0.2 0.8 0 0.9-0.1 0 0 0-0.3 0-0.4q-0.1-0.1 0.1-0.4c0.1-0.3 0.1-0.1 0.1 0.1z"/>
		<path id="&lt;Path&gt;" class="s0" d="m26.2 18.8c0 0 0 0.4-0.1 0.6-0.3 1.2-0.1 1.7 0 1.8 0.3 0.6 0.7 0.3 0.9-0.2 0-0.2 0.1-0.1 0.1 0q0 0.1-0.1 0.4c-0.1 0.7-0.4 0.9-0.6 0.9-0.5 0-0.7-0.6-0.7-0.9-0.2-1.2 0.3-2.3 0.4-2.6 0.1-0.4 0.2-0.2 0.1 0z"/>
		<path id="&lt;Compound Path&gt;" fill-rule="evenodd" class="s0" d="m47.1 17.8c-0.3 0.9-1.6 1.4-1.9 1.5-1.2 0.4-1.2-0.8-1.2-1.6 0.1-0.9 0.7-1.9 0.7-1.9 0-0.1-1.3-1-1.4-1.1-0.1-0.1-0.2-0.3-0.3-0.3-0.1-0.1-0.1-0.2-0.1-0.2 0 0 0-0.8 0-0.9 0.1-0.1 0.1-0.1 0.2-0.1 0.1 0.1 1.4 0.6 1.6 0.7 0.1 0.1 0 0.2 0 0.2-0.1 0-0.6 0.1-0.6 0.1l1.1 0.8c0 0 1.5-2 1.7-2.2 0.1-0.1 0.1 0 0.1 0.2 0 0.2-0.3 1-0.4 1.1-0.1 0.1-0.8 1.2-0.8 1.2 0 0 1 0.6 1.2 1 0.4 0.6 0.2 1.2 0.1 1.5zm-1.9-1.7c0 0-0.7 1.1-0.8 1.3-0.3 0.7 0.4 0.8 0.6 0.8 0.3 0 1.2-0.5 1.6-0.8 0.5-0.4-1.2-1.2-1.4-1.3z"/>
		<path id="&lt;Compound Path&gt;" fill-rule="evenodd" class="s0" d="m65.6 16.7c-0.1 0.2-0.3 1.1-1.5 0.8-0.3 0-0.9-0.1-1.2-0.8-0.3 0.4-1 1.5-2.4 1.3-0.3 0-1.3-0.4-1.3-1.6 0 0-1.2 0.9-1.7 1.2 0 0.4 0 0.9-0.2 1.5-0.2 0.6-2.7 3.4-4.7 3.8-0.7 0.2-3.3 0.6-3.4-2.3 0-0.5 0-1 0.1-1.3-1.6 1.2-3.5 2.1-4.1 2.4-0.8 0.4-3.8 0.9-4.3 1-0.4 0.1-0.4 0-0.2-0.1 0.2-0.2 6.8-2.4 10.2-6q0.1-0.1-0.1-0.4c-0.1-0.2-1.1-2.2-1.2-2.5-0.1-0.3-0.3-0.6-0.3-0.7q-0.1-0.1-0.1-0.3c0.1-0.1 0.2-0.7 0.2-0.8 0-0.1 0.1 0 0.2 0 0 0.1 1.1 1.2 1.2 1.3 0.1 0.2 0 0.2 0 0.2-0.1 0-0.6 0-0.6 0 0 0 0.7 1.2 1 1.7 0.4 0.9 0.1 1.7 0 2.1-0.3 0.6-0.9 1.2-1.6 1.8-0.1 0.5-0.3 2.8 1.9 2.9 0.4 0 1.5 0.2 3.7-1.7 0.6-0.4 1.1-0.9 1.6-1.6 0.2-0.3 0.4-0.8 0-0.7-0.4 0-2.7 0.9-3-0.5-0.1-0.4 0.1-3.7 2.4-2.1 0.2 0.2 0.6 0.6 1 1.2 0.3-0.2 1-0.6 1.9-1.3 0.3-0.2 0.5-0.3 0.5 0 0 0.3-0.2 2.2 1.9 1.7 0.2-0.1 1.1-0.3 1.7-1.9 0.2-0.4 0.5-0.3 0.3 0-0.1 0.4-0.3 0.7-0.1 0.9 0.2 0.2 0.8 0.7 1.5 0.6 0.3-0.1 0.4-0.2 0.3-0.4-0.1-0.2-0.3-0.6-0.3-0.6 0-0.3 0.1-0.7 0.2-0.8 0-0.1 0-0.2 0.1-0.1 0.1 0.1 0.8 0.9 0.4 2.1zm-9.4 0.1c-0.8-1-1.6-0.4-1.8-0.3-0.1 0.1-0.1 0.4 0.6 0.4 0.9 0.1 1.2-0.1 1.2-0.1z"/>
		<path id="&lt;Path&gt;" class="s0" d="m10.2 14.4l1 0.7q0 0 0 0l-0.6 0.8q0 0 0 0l-1-0.7q0 0 0-0.1l0.6-0.7q0 0 0 0z"/>
		<path id="&lt;Path&gt;" class="s0" d="m45.8 10.7l0.9 0.7q0.1 0 0.1 0.1l-0.6 0.7q0 0.1-0.1 0.1l-0.9-0.7-0.4 0.6q-0.1 0.1-0.1 0.1l-0.9-0.7q-0.1-0.1-0.1-0.1l0.6-0.7q0-0.1 0.1-0.1l0.9 0.7 0.4-0.6q0.1-0.1 0.1-0.1z"/>
		<path id="&lt;Path&gt;" class="s0" d="m63.2 10.8c0 0 0 0.2-0.1 0.4-0.3 0.8-0.1 1.2-0.1 1.3 0.2 0.4 0.5 0.2 0.7-0.2 0-0.1 0.1 0 0 0q0 0.1 0 0.3c-0.2 0.5-0.4 0.6-0.5 0.6-0.3 0-0.5-0.4-0.5-0.6 0-0.9 0.3-1.7 0.4-1.9 0.1-0.2 0.2-0.1 0.1 0.1z"/>
		<path id="&lt;Path&gt;" class="s0" d="m54 10.3c0 0-0.1 0.3-0.2 0.4-0.3 0.9-0.1 1.3-0.1 1.4 0.3 0.5 0.6 0.2 0.7-0.1 0.1-0.2 0.1-0.1 0.1 0q0 0.1 0 0.3c-0.2 0.5-0.4 0.6-0.6 0.6-0.3 0-0.5-0.4-0.5-0.6 0-1 0.4-1.8 0.5-2.1 0.1-0.2 0.1-0.1 0.1 0.1z"/>
		<path id="&lt;Compound Path&gt;" fill-rule="evenodd" class="s0" d="m26.4 14.6c-0.1 0.3-0.3 0.9-0.3 0.9 0 0-3.7 1.9-4.3 2.2-1.1 0.5-2 0.8-2.6 1.1 0 0.3 0 0.5 0 0.5-0.2 1.6-2 2.9-2.4 3.3-2.8 2-4.3 1.1-4.7 0.8-1.4-0.9-0.9-3.6-0.6-4.4q0 0 0-0.1c-2.3 1.4-3.7 1.1-4.3 0.9-3.1-0.9-2.1-4.8-1.7-5.7-0.3-0.2-0.5-0.7-0.5-1-0.1-1.6 0.5-2.9 0.6-3.3 0.2-0.4 0.3-0.3 0.2 0.1 0 0-0.1 0.4-0.2 0.7-0.4 1.5-0.2 2.1-0.1 2.3 0.3 0.7 0.8 0.3 1-0.2 0.1-0.3 0.1-0.2 0.1 0 0 0 0 0.2-0.1 0.4-0.2 0.9-0.5 1.1-0.8 1.1q0 0 0 0c-0.7 2.2 0.1 3.3 0.2 3.5 1.1 1.5 3.1 1 3.5 0.9 3-0.8 4.7-2.6 4.9-2.9 0.2-0.3 0-0.6-0.1-0.8-0.1-0.2-0.7-1.4-1-2.2-0.1-0.3-0.3-1-0.3-1 0-0.1 0.2-0.8 0.3-0.9 0-0.1 0-0.1 0.1 0 0 0.1 0 0.1 0 0.2 0.1 0.1 0.9 1.1 1 1.2 0.2 0.2 0 0.3 0 0.2q-0.2 0-0.5-0.1c0 0 1 2.1 1.1 2.4 0.4 1.7-1.2 2.7-1.5 3q-0.8 0.6-1.5 1 0 0.1 0 0.2c-0.5 1.4-0.2 2.6-0.1 2.7 0.7 1.3 2 1.2 2.3 1.2 2.1-0.3 4.4-3 4.6-3.2 0.1-0.2 0.1-0.4 0-0.5q0 0-0.1-0.1-0.4 0.1-0.6 0.1c-1.2 0.3-1.8 0-2.1-0.4-0.5-0.8 0.1-1.9 0.5-2.2 1.1-0.7 1.9 0.4 2.1 0.6q0.3 0.4 0.4 0.7c0.6-0.2 1.5-0.6 1.5-0.6-1.2-0.5-1.9-1.6-2.2-2-0.5-1 0.1-2.1 0.3-2.5 0.3-0.6 1.5-1.2 2.6-1.3 0.4-0.1 0.9-0.1 1.3 0 0.7 0.1 1.3 0.4 1.5 0.5 0.2 0.3 0 0.3-0.3 0.2-2.5-0.6-4.9 1.2-5 1.4-0.1 0.1-0.2 0.1-0.1 0.4 0.3 0.8 1.3 1.6 1.5 1.8 1.4 0.9 2.4 0.6 2.8 0.5 0.4-0.1 3.3-1.8 3.5-1.9 0.2 0 0.2 0.1 0.1 0.3zm-8.5 3.4q-0.3-0.3-0.6-0.5c-0.3-0.1-0.6 0-0.8 0.1-0.2 0.1-0.1 0.3 0 0.4 0.2 0.1 0.9 0.1 1.4 0z"/>
		<path id="&lt;Path&gt;" class="s0" d="m10.6 7.4c0.1 0.2 0.1 0.5 0 0.8 0 0.1-0.2 0-0.3-0.1 0 0-0.1-0.2-0.2-0.2-0.4-0.4-0.6 0.3-0.6 0.7 0 0.2 0 1.1 0 1.5q-0.1 0.1-0.1 0.1c0 0.4-0.1 0.9-0.7 1.4-0.8 0.6-0.9 0.6-1 0.6 0 0.1-0.1 0 0.1-0.1 0-0.1 1.6-1.5 1.4-2.1-0.3-0.8-0.9-1.3-1-1.3-0.1-0.2-0.2 0-0.2 0.1 0 0-0.1 0-0.1 0-0.1 0-0.4-0.2-0.5-0.3-0.1-0.1-0.1-0.5-0.1-0.7 0-0.2 0.2-0.3 0.3-0.3 1.1 0.6 1.6 1.7 1.6 1.9 0.1-0.8 0-1.6 0.5-2.2 0.3-0.5 0.9 0.1 0.9 0.2z"/>
		<path id="&lt;Path&gt;" class="s0" d="m14.7 6.9c0 0-0.1 0.3-0.1 0.5-0.3 1.2-0.1 1.8-0.1 1.9 0.4 0.5 0.8 0.2 0.9-0.2 0.1-0.3 0.2-0.2 0.1-0.1q0 0.2 0 0.4c-0.2 0.7-0.4 0.9-0.7 0.9-0.4 0-0.6-0.5-0.6-0.8-0.2-1.3 0.3-2.4 0.4-2.7 0.1-0.3 0.2-0.2 0.1 0.1z"/>
		<path id="&lt;Path&gt;" class="s0" d="m25 6.9c0 0-0.1 0.3-0.2 0.5-0.3 1.2 0 1.8 0 1.9 0.4 0.5 0.8 0.2 0.9-0.2 0-0.3 0.1-0.2 0.1-0.1q0 0.2 0 0.4c-0.2 0.7-0.5 0.9-0.7 0.9-0.4 0-0.6-0.5-0.7-0.8-0.1-1.3 0.3-2.4 0.4-2.7 0.1-0.3 0.2-0.2 0.2 0.1z"/>
		<path id="&lt;Path&gt;" class="s0" d="m53.2 6.5c-0.1 0.1-0.1 0.2-0.2 0.3 0 0.2-0.1 0.2-0.3 0.3-0.2 0.1-5 2.9-5.1 3-0.3 0.2-0.3 0-0.2-0.1q0 0 0-0.2c0.1-0.2 0.1-0.2 0.3-0.3 0.2-0.2 5-2.9 5.2-3.1 0.3-0.1 0.3 0 0.3 0.1z"/>
		<path id="&lt;Path&gt;" class="s0" d="m59 6.8c0.2 0.2 0.1 0.6 0 0.8-0.1 0.2-0.2 0-0.3-0.1 0 0-0.1-0.1-0.2-0.2-0.5-0.4-0.7 0.4-0.8 0.7 0 0.3-0.1 1.2-0.1 1.8-0.1 0.2-0.2 0.2-0.3 0-0.3-1.1-1-1.7-1.1-1.8-0.1-0.1-0.2 0.1-0.2 0.2 0 0-0.1 0-0.1 0-0.1 0-0.4-0.3-0.6-0.4-0.1-0.1 0-0.5 0-0.7 0-0.3 0.2-0.4 0.3-0.4 1.3 0.8 1.7 2 1.8 2.2 0-0.9 0.1-1.8 0.6-2.4 0.4-0.5 1 0.2 1 0.3z"/>
		<path id="&lt;Compound Path&gt;" fill-rule="evenodd" class="s0" d="m63.8 8.9c0 0.1-0.1 0-0.2-0.1 0-0.1-0.2-0.3-0.3-0.3-0.3 0.4-0.2 0.4-1 1.1-1.8 1.6-3.8 2.1-3.9 2.1-0.1 0.1-0.1 0 0.1-0.2 0.6-0.4 3.1-1.6 4.4-3.2 0 0-0.4-0.1-0.7-0.3-0.2-0.2-0.1-1 0.1-1.3 0.5-0.7 0.9-0.3 1-0.2 0.5 0.7 0.2 1.5 0.2 1.5 0.3 0.1 0.5 0.4 0.3 0.9zm-0.8-2c-0.1 0-0.2 0-0.5 0.3-0.1 0.1 0 0.3 0.2 0.3 0.2 0.1 0.5 0.3 0.5 0.3 0-0.1 0.1-0.6-0.2-0.9z"/>
		<path id="&lt;Compound Path&gt;" fill-rule="evenodd" class="s0" d="m21.7 9.1c-0.1 0.1-0.1 0-0.2-0.1-0.1-0.1-0.5-0.4-0.5-0.4 0 0-1 1.8-2.1 2.6-1.4 1-2.5 1.4-2.5 1.4-0.2 0.1-0.2-0.1 0-0.2 0.8-0.5 2.9-2.1 4.3-3.9 0 0-0.5-0.2-0.8-0.4-0.3-0.2-0.1-1 0.1-1.4 0.6-0.8 1-0.4 1.1-0.3 0.5 0.9 0.2 1.7 0.2 1.7 0.3 0.1 0.6 0.4 0.4 1zm-1-2.1c-0.1-0.1-0.2-0.1-0.5 0.3-0.1 0.1 0 0.2 0.2 0.3 0.2 0.1 0.6 0.3 0.6 0.3 0-0.1 0.1-0.6-0.3-0.9z"/>
		<path id="&lt;Path&gt;" class="s0" d="m33.3 15.2c0 0-0.1 0.3-0.1 0.4-0.3 0.9-0.1 1.3-0.1 1.4 0.3 0.4 0.7 0.1 0.8-0.2 0-0.2 0.1-0.1 0.1 0q0 0.1-0.1 0.3c-0.1 0.5-0.3 0.6-0.5 0.7-0.4 0-0.6-0.5-0.6-0.7-0.1-0.9 0.3-1.7 0.4-1.9 0.1-0.3 0.1-0.2 0.1 0z"/>
		<path id="&lt;Path&gt;" class="s0" d="m35.6 12.4c-0.1 0.1-0.1 0.1-0.2 0.2-0.1 0.2-0.2 0.2-0.3 0.3-0.2 0.1-5.7 2.5-5.8 2.5-0.3 0.2-0.3 0.1-0.2 0q0 0 0-0.3c0.1-0.1 0.2-0.1 0.4-0.2 0.2-0.2 5.6-2.5 5.8-2.6 0.3-0.2 0.3-0.1 0.3 0.1z"/>
		<path id="&lt;Path&gt;" class="s0" d="m30.9 10.3c0 0-0.1 0.2-0.2 0.4-0.4 0.8-0.3 1.2-0.3 1.3 0.2 0.5 0.5 0.3 0.7 0 0.1-0.2 0.1-0.1 0.1 0q0 0-0.1 0.2c-0.2 0.5-0.4 0.6-0.6 0.6-0.3 0-0.4-0.5-0.4-0.7 0-0.9 0.5-1.7 0.7-1.9 0.1-0.2 0.1-0.1 0.1 0.1z"/>
		<path id="&lt;Path&gt;" class="s0" d="m33.4 6.8c0 0-0.1 0.4-0.2 0.6-0.3 1.2-0.1 1.7 0 1.8 0.3 0.6 0.7 0.3 0.9-0.2 0-0.2 0.1-0.1 0.1 0q0 0.1-0.1 0.4c-0.1 0.7-0.4 0.9-0.6 0.9-0.4 0-0.7-0.6-0.7-0.9-0.1-1.2 0.3-2.3 0.4-2.6 0.1-0.4 0.2-0.2 0.2 0z"/>
		<path id="&lt;Path&gt;" class="s0" d="m30.1 6.6c0 0 0 0.3-0.1 0.4-0.2 0.8-0.1 1.2-0.1 1.2 0.3 0.4 0.5 0.2 0.7-0.1 0-0.1 0.1 0 0 0q0 0.1 0 0.3c-0.2 0.5-0.3 0.6-0.5 0.6-0.3 0-0.4-0.4-0.4-0.6-0.1-0.9 0.3-1.6 0.3-1.8 0.1-0.2 0.2-0.1 0.1 0z"/>
		<path id="&lt;Compound Path&gt;" fill-rule="evenodd" class="s0" d="m39.9 20.2c-0.3 0.4-0.5 0.5-0.9 0.4-0.9-0.1-1.4-0.9-1.7-1.5q-0.2 0-0.3 0.1c-0.3 0.1-1.6 0.7-2.4 1-2.7 1-4.7 0.3-5 0-3-2.1-1.4-7.9-3-12.9 0 0 0.3-0.8 0.3-0.9 0.1-0.1 0.1-0.3 0.3 0 1.2 3.1 0.7 9.8 1.6 11.4 1.2 2.3 3.7 1.8 4.1 1.7 1.3-0.1 3.1-1 4-1.4-0.4-1.5-0.7-3.7-0.8-4.6-0.1-1-0.5-4.6-0.5-4.6q-0.1-0.7-0.2-1.2c0-0.4-0.1-0.6-0.1-0.7 0 0 0.3-0.8 0.4-0.9 0-0.1 0.1 0 0.1 0.1 0 0.1 1.1 2.7 1.2 2.9 0 0.1-0.1 0.2-0.2 0.1 0-0.1-0.6-0.7-0.6-0.7 0 0 0.4 3.6 0.5 4.1 0 0.5 0.5 3.7 0.6 4.3q0.2 0.5 0.3 0.9c1.6-0.7 2.3 0.1 2.4 0.3 0.5 0.7 0 1.9-0.1 2.1zm-0.3-1c-0.4-0.5-0.8-0.5-1-0.5q-0.2 0-0.4 0 0 0.2 0.1 0.2c0.3 0.4 0.9 0.6 1.2 0.6 0.2 0 0.2-0.2 0.1-0.3z"/>
		<path id="&lt;Path&gt;" class="s0" d="m40 6.2c0 0 1.1 2.8 1.2 2.9 0 0.2-0.1 0.2-0.1 0.1-0.1-0.1-0.7-0.6-0.7-0.6 0 0 1 7.4 1.1 7.6q0.2 2.2 0.2 3.3c-0.1 0.9-0.2 1.2-0.3 1.3-0.1 0.2-0.1 0.1-0.1-0.1 0-0.5-0.1-1.5-0.3-2.6-0.3-2.2-1.2-9.3-1.4-10.5 0-0.1-0.1-0.5-0.1-0.6 0 0 0.3-0.8 0.4-0.9 0-0.1 0 0 0.1 0.1z"/>
		<path id="&lt;Compound Path&gt;" fill-rule="evenodd" class="s0" d="m45.6 8.6c-0.1 0.1-0.1 0-0.2-0.1-0.1 0-0.4-0.3-0.4-0.3 0 0-0.4 0.8-1.1 1.3-1.1 0.9-2.2 1.1-2.2 1.1-0.2 0-0.2-0.1 0-0.2 0.8-0.4 1.7-0.7 3-2.3 0 0-0.4-0.2-0.7-0.4-0.3-0.2-0.2-0.9 0-1.2 0.5-0.8 1-0.4 1.1-0.3 0.4 0.7 0.2 1.5 0.2 1.5 0.2 0.1 0.4 0.4 0.3 0.9zm-0.9-1.9c-0.1-0.1-0.2-0.1-0.5 0.3 0 0.1 0 0.2 0.2 0.3 0.2 0 0.6 0.2 0.6 0.2 0-0.1 0-0.5-0.3-0.8z"/>
	</g>
</svg>