<svg version="1.2" xmlns="http://www.w3.org/2000/svg" viewBox="0 0 70 30" width="70" height="30">
	<title>New Project</title>
	<style>
		.s0 { fill: #191c4f } 
	</style>
	<g id="التكوير">
		<path id="&lt;Path&gt;" class="s0" d="m15.1 23.1c0 0.1-0.1 0.2-0.2 0.3 0 0.2-0.1 0.2-0.3 0.3-0.2 0.2-2.9 1.2-3 1.3-0.4 0.2-0.3 0-0.3-0.1q0 0 0.1-0.3c0-0.1 0.1-0.2 0.3-0.3 0.3-0.1 2.9-1.2 3.2-1.3 0.3-0.1 0.2 0 0.2 0.1z"/>
		<path id="&lt;Path&gt;" class="s0" d="m29.4 21.5c0.1 0.2 0.1 0.5 0 0.7 0 0.2-0.2 0-0.3-0.1 0 0-0.1-0.1-0.2-0.2-0.5-0.4-0.6 0.4-0.7 0.8 0 0.2 0 1.1-0.1 1.6 0 0.2-0.1 0.2-0.2 0-0.3-1-0.9-1.5-1-1.6-0.2-0.1-0.2 0.1-0.2 0.1-0.1 0.1-0.1 0.1-0.2 0.1 0-0.1-0.4-0.3-0.5-0.4-0.1-0.1-0.1-0.5-0.1-0.7 0-0.2 0.2-0.4 0.3-0.3 1.2 0.6 1.7 1.8 1.7 2 0.1-0.9 0.1-1.7 0.5-2.3 0.4-0.5 1 0.2 1 0.3z"/>
		<path id="&lt;Path&gt;" class="s0" d="m64 21.1c0 0 0.1 0.3 0.1 0.5 0 0.2-0.2 0.5-0.3 0.9-0.1 0.3-0.8 0.4-1.2 0.1-0.8 1.2-1.5 0.6-1.8 0.5-0.7-0.3-0.9 0.1-1.1 0.3-0.9 1-2.5 1-2.8 1-0.4 0-0.1-0.2 0.1-0.3 1.2-0.4 2-0.5 3.1-1.5 0.5-0.5 0.8-0.3 1-0.2 1 0.5 1.2 0 1.3-0.1 0.1-0.2 0.3-0.7 0.4-0.9 0.1-0.1 0.2 0 0.1 0.1 0 0.1 0 0.3-0.1 0.4 0.5 0.3 0.9 0.1 1 0 0 0 0-0.3-0.1-0.5q0-0.1 0.2-0.5c0.1-0.3 0.1 0 0.1 0.2z"/>
		<path id="&lt;Path&gt;" class="s0" d="m35.9 20.5c0 0-0.1 0.3-0.1 0.5-0.4 1.1-0.2 1.6-0.2 1.7 0.3 0.5 0.7 0.2 0.9-0.2 0-0.2 0.1-0.1 0.1 0q-0.1 0.1-0.1 0.3c-0.2 0.7-0.5 0.8-0.7 0.8-0.4 0-0.6-0.5-0.6-0.8 0-1.1 0.5-2.1 0.6-2.4 0.1-0.3 0.2-0.1 0.1 0.1z"/>
		<path id="&lt;Path&gt;" class="s0" d="m22 14.6c0.5 0.1 0.3 0.3 0.2 0.4-0.3 0.5-0.7 0.8-1.1 0.9-0.3 0.1-0.1-0.1 0.1-0.2 0 0 0.1-0.2 0.4-0.4 0.3-0.2-0.4-0.2-0.8-0.2-0.3 0-0.4 0.1-0.5 0.3-0.1 0.1-0.2 0-0.1-0.1 0-0.2 0.1-0.3 0.4-0.6 0.2-0.3 0.9-0.2 1.4-0.1z"/>
		<path id="&lt;Compound Path&gt;" fill-rule="evenodd" class="s0" d="m44.7 19.6c-0.3 1-1.7 1.6-2.1 1.7-1.3 0.4-1.4-0.9-1.3-1.8 0.1-1 0.8-2.2 0.8-2.2-0.1 0-1.5-1.1-1.6-1.2-0.1-0.1-0.2-0.3-0.3-0.4-0.2 0-0.2-0.1-0.2-0.1 0 0 0.1-1 0.1-1.1 0-0.1 0-0.1 0.1 0 0.1 0 1.6 0.6 1.8 0.7 0.1 0.1 0.1 0.2 0 0.2-0.1 0-0.6 0.2-0.6 0.2l1.3 0.8c0 0 1.6-2.2 1.8-2.4 0.2-0.2 0.2-0.1 0.1 0.1 0 0.3-0.3 1.2-0.4 1.3-0.1 0.2-1 1.4-1 1.4 0 0 1.2 0.7 1.4 1.1 0.5 0.7 0.2 1.3 0.1 1.7zm-2.1-2c0 0-0.8 1.3-0.9 1.6-0.3 0.8 0.4 0.9 0.7 0.9 0.3-0.1 1.3-0.6 1.8-1 0.5-0.4-1.3-1.3-1.6-1.5z"/>
		<path id="&lt;Path&gt;" class="s0" d="m9.3 8.6c0.2 0.2 0.1 0.6 0 0.9-0.1 0.2-0.2 0-0.4-0.1 0 0-0.1-0.2-0.2-0.3-0.6-0.5-0.8 0.4-0.8 0.9-0.1 0.3-0.1 1.3-0.2 1.9q0 0 0 0.1c-0.1 0.5-0.3 1.1-1.1 1.6-1 0.7-1.1 0.7-1.2 0.8-0.1 0-0.1-0.1 0-0.2 0.1-0.1 2.1-1.7 1.9-2.5-0.2-1-1-1.6-1.1-1.7-0.1-0.2-0.2 0-0.2 0.1 0 0.1-0.1 0.1-0.2 0 0 0-0.4-0.3-0.6-0.4-0.1-0.1-0.1-0.6-0.1-0.8 0.1-0.4 0.3-0.5 0.4-0.4 1.4 0.8 1.9 2.3 2 2.5 0.1-1.1 0.1-2.1 0.7-2.8 0.4-0.6 1.1 0.3 1.1 0.4z"/>
		<path id="&lt;Compound Path&gt;" fill-rule="evenodd" class="s0" d="m65.6 18.4c-0.1 0.2-0.3 1.2-1.7 0.9-0.4-0.1-1.1-0.2-1.4-1-0.3 0.5-1.1 1.8-2.7 1.6-0.3-0.1-1.4-0.5-1.5-1.9 0 0-1.3 1-1.9 1.4 0.1 0.5 0.1 1-0.2 1.7-0.2 0.6-3 3.7-5.3 4.2-0.8 0.2-3.7 0.8-3.8-2.5q0-1 0.1-1.6c-1.8 1.4-4 2.5-4.6 2.8-0.9 0.5-4.2 1-4.8 1.1-0.4 0.1-0.5 0-0.3-0.2 0.3-0.1 7.7-2.6 11.5-6.6 0.1-0.1 0.1-0.3 0-0.5-0.2-0.2-1.3-2.5-1.5-2.8-0.1-0.3-0.2-0.7-0.3-0.8q-0.1-0.2 0-0.3c0-0.2 0.1-0.8 0.1-0.9 0.1-0.2 0.1-0.1 0.2 0 0.1 0.1 1.3 1.3 1.4 1.5 0.2 0.1 0.1 0.2 0 0.2 0 0-0.6 0-0.6 0 0 0 0.8 1.3 1 1.8 0.5 1.1 0.2 2 0.1 2.4-0.4 0.7-1 1.4-1.8 2-0.1 0.6-0.4 3.2 2.1 3.3 0.4 0 1.7 0.2 4.2-1.9 0.6-0.4 1.2-1 1.8-1.8 0.2-0.3 0.4-0.9 0-0.8-0.4 0-3 1-3.4-0.6-0.1-0.4 0.1-4.1 2.6-2.3 0.3 0.2 0.8 0.6 1.2 1.4 0.4-0.2 1.2-0.7 2.2-1.5 0.3-0.2 0.5-0.4 0.5 0 0 0.3-0.2 2.5 2.2 1.9 0.2-0.1 1.2-0.3 1.9-2.2 0.2-0.4 0.5-0.3 0.4 0-0.2 0.5-0.5 0.9-0.2 1.1 0.2 0.2 0.9 0.7 1.7 0.6 0.3 0 0.4-0.2 0.3-0.4-0.1-0.2-0.3-0.7-0.3-0.7 0-0.3 0.1-0.8 0.2-0.9 0-0.1 0.1-0.3 0.2-0.1 0.1 0.1 0.8 1.1 0.4 2.4zm-10.6 0.1c-0.9-1.1-1.9-0.5-2-0.4-0.1 0.2-0.2 0.5 0.7 0.5 0.9 0.1 1.3-0.1 1.3-0.1z"/>
		<path id="&lt;Path&gt;" class="s0" d="m43.3 11.6l1.1 0.8q0 0 0 0.1l-0.6 0.8q-0.1 0.1-0.1 0l-1-0.7-0.6 0.7q0 0.1-0.1 0l-1-0.7q0-0.1 0-0.1l0.6-0.8q0-0.1 0.1-0.1l1 0.8 0.5-0.7q0.1-0.1 0.1-0.1z"/>
		<path id="&lt;Path&gt;" class="s0" d="m62.9 11.7c0 0-0.1 0.3-0.1 0.4-0.3 1-0.2 1.4-0.1 1.5 0.2 0.4 0.6 0.2 0.7-0.1 0.1-0.2 0.1-0.1 0.1-0.1q0 0.1-0.1 0.3c-0.1 0.6-0.4 0.7-0.5 0.7-0.4 0-0.5-0.4-0.6-0.7 0-1 0.4-1.8 0.5-2.1 0.1-0.2 0.2-0.1 0.1 0.1z"/>
		<path id="&lt;Path&gt;" class="s0" d="m52.5 11.2c0 0-0.1 0.2-0.2 0.4-0.3 1-0.1 1.5-0.1 1.6 0.3 0.5 0.7 0.2 0.8-0.1 0.1-0.2 0.1-0.1 0.1-0.1q0 0.1 0 0.3c-0.2 0.7-0.5 0.8-0.7 0.8-0.3 0-0.5-0.5-0.5-0.8-0.1-1 0.4-1.9 0.5-2.2 0.1-0.3 0.2-0.2 0.1 0.1z"/>
		<path id="&lt;Path&gt;" class="s0" d="m17.4 10.6l1.1 0.8q0 0 0 0l-0.6 0.9q-0.1 0-0.1 0l-1-0.7-0.6 0.7q0 0 0 0l-1.1-0.8q0 0 0-0.1l0.6-0.8q0.1 0 0.1 0l1 0.7 0.6-0.7q0 0 0 0z"/>
		<path id="&lt;Path&gt;" class="s0" d="m16.3 8.8l1.1 0.7q0 0.1 0 0.1l-0.6 0.9q0 0-0.1 0l-1-0.8q-0.1 0 0-0.1l0.6-0.8q0-0.1 0 0z"/>
		<path id="&lt;Path&gt;" class="s0" d="m6.5 16.9c0 0-0.1 0.5-0.2 0.8-0.6 1.7-0.3 2.5-0.2 2.6 0.5 0.9 1.1 0.4 1.3-0.2 0.1-0.3 0.2-0.2 0.2 0q0 0.1-0.1 0.5c-0.3 1-0.7 1.3-1.1 1.3-0.6-0.1-0.9-0.9-0.9-1.3-0.1-1.8 0.7-3.4 0.8-3.8 0.2-0.5 0.4-0.3 0.2 0.1z"/>
		<path id="&lt;Path&gt;" class="s0" d="m10.9 13.2c0 0-0.1 0.5-0.2 0.8-0.5 1.4-0.3 2.1-0.2 2.3 0.4 0.7 1 0.3 1.2-0.2 0.1-0.3 0.2-0.2 0.2 0q-0.1 0.1-0.1 0.4c-0.3 0.9-0.7 1.1-1 1.2-0.5-0.1-0.8-0.8-0.8-1.2-0.1-1.6 0.6-3 0.7-3.4 0.2-0.4 0.3-0.2 0.2 0.1z"/>
		<path id="&lt;Path&gt;" class="s0" d="m51.6 6.9c-0.1 0.1-0.1 0.1-0.2 0.3 0 0.2-0.1 0.2-0.3 0.4-0.2 0.1-5.7 3.2-5.8 3.3-0.3 0.2-0.3 0.1-0.2 0q0-0.1 0-0.3c0.1-0.2 0.1-0.2 0.4-0.4 0.2-0.1 5.6-3.3 5.8-3.4 0.4-0.2 0.3 0 0.3 0.1z"/>
		<path id="&lt;Path&gt;" class="s0" d="m58.2 7.2c0.1 0.3 0 0.7-0.1 0.9 0 0.2-0.2 0-0.3-0.1 0 0-0.1-0.1-0.3-0.3-0.5-0.4-0.7 0.5-0.8 0.9 0 0.3-0.1 1.3-0.2 1.9 0 0.3-0.2 0.3-0.2 0.1-0.4-1.3-1.1-1.9-1.2-2-0.2-0.1-0.3 0.1-0.3 0.1 0 0.1-0.1 0.1-0.2 0.1 0-0.1-0.4-0.3-0.6-0.5-0.1-0.1-0.1-0.6 0-0.8 0-0.3 0.2-0.4 0.3-0.4 1.5 0.9 1.9 2.3 2 2.5 0.1-1.1 0.1-2 0.7-2.8 0.5-0.5 1.2 0.3 1.2 0.4z"/>
		<path id="&lt;Compound Path&gt;" fill-rule="evenodd" class="s0" d="m63.6 9.5c-0.1 0.2-0.1 0.1-0.2-0.1-0.1-0.1-0.3-0.2-0.5-0.3-0.2 0.4-0.2 0.5-1.1 1.3-2 1.7-4.2 2.3-4.3 2.4-0.1 0-0.2-0.1 0-0.2 0.7-0.6 3.6-1.9 5.1-3.7 0 0-0.5-0.2-0.8-0.4-0.3-0.2-0.1-1 0.1-1.4 0.5-0.8 1-0.4 1.1-0.3 0.5 0.9 0.2 1.7 0.2 1.7 0.3 0.2 0.6 0.5 0.4 1zm-1-2.1c-0.1-0.1-0.2-0.1-0.5 0.3-0.1 0.1 0 0.2 0.2 0.3 0.2 0.1 0.6 0.3 0.6 0.3 0-0.1 0.1-0.6-0.3-0.9z"/>
		<path id="&lt;Path&gt;" class="s0" d="m37.2 6.6c0 0.1 1.2 3.2 1.3 3.4 0 0.1-0.1 0.2-0.2 0.1-0.1-0.1-0.7-0.7-0.7-0.7 0 0 0.9 8.3 1 8.6q0.2 2.4 0.1 3.6c-0.1 1-0.3 1.4-0.3 1.5-0.1 0.2-0.2 0.1-0.2-0.1 0-0.6-0.1-1.7-0.2-2.9-0.2-2.6-1.1-10.6-1.3-11.9 0-0.2-0.1-0.6-0.1-0.6 0 0 0.4-1 0.5-1.1 0-0.1 0.1 0 0.1 0.1z"/>
		<path id="&lt;Path&gt;" class="s0" d="m32.2 12.9c0.1 0.2 0 0.6 0 0.8-0.1 0.1-0.2 0-0.3-0.1 0 0-0.1-0.1-0.2-0.2-0.5-0.4-0.7 0.3-0.7 0.7 0 0.3 0 1.1-0.1 1.6 0 0.2-0.2 0.2-0.2 0.1-0.4-1.1-1-1.6-1.1-1.7-0.1-0.1-0.2 0.1-0.2 0.2 0 0-0.1 0-0.1 0-0.1 0-0.4-0.2-0.5-0.3-0.2-0.2-0.1-0.6-0.1-0.7 0-0.3 0.2-0.4 0.2-0.4 1.3 0.7 1.7 1.9 1.8 2.1 0-0.9 0-1.7 0.5-2.4 0.4-0.5 1 0.2 1 0.3z"/>
		<path id="&lt;Path&gt;" class="s0" d="m25.6 9.3c0 0 0 0.2-0.1 0.4-0.3 1-0.1 1.4 0 1.5 0.3 0.5 0.6 0.2 0.7-0.1 0.1-0.2 0.1-0.1 0.1-0.1q0 0.1 0 0.3c-0.2 0.6-0.4 0.8-0.6 0.8-0.3 0-0.5-0.5-0.6-0.7-0.1-1 0.3-1.9 0.4-2.2 0.1-0.3 0.2-0.1 0.1 0.1z"/>
		<path id="&lt;Compound Path&gt;" fill-rule="evenodd" class="s0" d="m43 9.2c0 0.2-0.1 0.1-0.2-0.1-0.1 0-0.4-0.3-0.4-0.3 0 0-0.5 0.9-1.2 1.5-1.3 1-2.5 1.2-2.6 1.2-0.1 0-0.1-0.1 0.1-0.2 0.8-0.5 1.8-0.9 3.3-2.7 0 0-0.5-0.2-0.8-0.4-0.3-0.2-0.1-1 0.1-1.4 0.6-0.8 1.1-0.4 1.1-0.3 0.5 0.9 0.3 1.7 0.3 1.7 0.2 0.2 0.5 0.5 0.3 1zm-0.9-2.1c-0.1-0.1-0.3-0.1-0.6 0.3-0.1 0.1 0 0.2 0.2 0.3 0.2 0.1 0.6 0.3 0.6 0.3 0.1-0.1 0.1-0.6-0.2-0.9z"/>
		<path id="&lt;Path&gt;" class="s0" d="m18.9 5.6c-0.1 0.1-0.1 0.1-0.2 0.3-0.1 0.2-0.2 0.2-0.3 0.3-0.2 0.1-5.5 2.4-6.1 2.7-0.7 0.4-0.6 0.7-0.5 0.7 0.5 0.2 0.7 0.5 0.4 1 0 0-0.1 0-0.1 0 0-0.1-0.1-0.2-0.4-0.3-0.3 0-0.4-0.5-0.3-1 0.1-0.4 0.4-0.7 0.6-0.9 0.5-0.3 6.5-2.8 6.6-2.9 0.4-0.2 0.3-0.1 0.3 0.1z"/>
		<path id="&lt;Path&gt;" class="s0" d="m23.1 5.4c0 0.1 0 0.2-0.1 0.3-0.1 0.2-0.2 0.3-0.4 0.4-0.2 0.1-4.1 1.9-4.2 2-0.3 0.1-0.3 0-0.2-0.1q0 0 0-0.3c0-0.1 0.1-0.2 0.3-0.3 0.3-0.1 4.2-2 4.4-2.1 0.3-0.1 0.3 0 0.2 0.1z"/>
		<path id="&lt;Compound Path&gt;" fill-rule="evenodd" class="s0" d="m35 19.2c-0.4 1.8-2.3 1.7-2.6 1.7-1.5-0.1-3.3-2.1-4.2-3-0.8-0.9-2.6-2.1-2.6-2.1 0.3 0.6 0.4 1.2 0.5 1.4 0.1 1.3-0.2 1.6-0.4 1.8-0.4 0.3-0.9 0.5-1.3 0.7 0.1 2-1.7 3.2-2.1 3.5-3 2.3-4.7 1.7-5.1 1.5-2-0.6-1.4-3.7-1.3-4.4q0 0 0 0c-1.7 1.6-5.9 3.3-6.1 3.4 0 0-4.2 0.6-4.6 0.6-0.3 0-0.2-0.1 0-0.2 7.6-2.2 10.8-5.1 11-5.3 0.2-0.3 0.2-0.6 0.1-0.9-0.1-0.4-0.8-1.7-1-2.1 0 0 0.2-0.8 0.2-0.9 0-0.1 0-0.3 0.1-0.1q0.3 0.3 0.5 0.7c1.1 0.7 1.9-0.1 2-0.3 0.1-0.1 0.5-0.6 0.8-0.9 0.4-0.3 0.6 0.2 0.6 0.5 0.1 0.4-0.2 1.8-0.2 1.9 0 0.2-0.2 0.2-0.2 0 0-0.1 0-0.8 0-1-0.1-0.3-0.2-0.3-0.4 0-0.6 1-1.6 1.3-2 1.3 0.2 1.2-0.1 2.1-0.1 2.4q-0.1 0.3-0.4 0.6 0.1 0.1 0 0.2c-0.7 4.7 3.3 3.3 3.9 3.1 1.7-0.7 3.6-2.5 3.8-3q0.1-0.2 0-0.5c-0.7 0.2-1.3 0.2-1.6 0.2-1.3 0.1-1.6-0.7-1.6-1.4 0-0.7 0.5-1.4 0.8-1.7 0.2-0.3 1.3-0.8 2.3 1.1q0.1 0.2 0.2 0.5c1.9-0.5 1.6-1.1 1.5-1.2-1.1-1.9-5.8-5.4-6.3-5.9-0.5-0.4 0-1.6 0.1-1.8 0-0.1 0.2-0.4 0.5-0.6 3.8-2.2 9.5-3.9 10.8-4 1.4-0.1 1.5 0.6 1.5 1-0.2 1.3-3.4 4.2-3.9 4.6-0.5 0.5-0.6 0.4-0.3-0.1 0.7-1.2 2.4-2.5 3.4-3.6 0.9-1.1-1.8-0.7-2.8-0.4-4.1 1.2-8.4 3.5-8.8 3.7-0.4 0.2-0.1 0.4 0.2 0.6 6 3.6 8.5 5.9 9 6.4 0.9 0.9 2.2 2 2.5 2.2 1.1 0.6 2.8-0.2 2.9-0.3 0.2-0.1 0.1-0.2 0.1-0.4 0-0.2-1-10.3-1-10.5-0.1-0.5-0.2-0.7-0.2-0.8 0 0 0.4-0.9 0.5-1 0-0.1 0.1 0 0.1 0.1 0.1 0.1 1.2 2.9 1.2 3 0.1 0.2 0 0.3-0.1 0.1-0.1-0.1-0.7-0.6-0.7-0.6 0 0 0.7 6.7 0.8 7.4 0.1 1.2 0 2.3 0 2.8zm-11.9-0.5q-0.2-0.2-0.2-0.3c-0.7-0.8-1.4-0.2-1.4-0.1-0.1 0.2 0 0.5 1.3 0.4q0.2 0 0.3 0z"/>
	</g>
</svg>