<svg version="1.2" xmlns="http://www.w3.org/2000/svg" viewBox="0 0 70 30" width="70" height="30">
	<title>New Project</title>
	<style>
		.s0 { fill: #191c4f } 
	</style>
	<g id="النصر">
		<path id="&lt;Path&gt;" class="s0" d="m16.5 22.6c0 0.1-0.1 0.1-0.2 0.3 0 0.2-0.2 0.2-0.4 0.3-0.2 0.1-4 1.7-4.1 1.7-0.3 0.2-0.3 0.1-0.2 0q0-0.1 0.1-0.4c0-0.1 0.1-0.2 0.3-0.3 0.3-0.1 4-1.6 4.3-1.7 0.3-0.2 0.3-0.1 0.2 0.1z"/>
		<path id="&lt;Path&gt;" class="s0" d="m26.9 21c0 0-0.1 0.2-0.2 0.4-0.3 1-0.2 1.4-0.1 1.5 0.3 0.5 0.6 0.3 0.8-0.1 0-0.2 0.1-0.1 0.1 0q-0.1 0.1-0.1 0.3c-0.2 0.6-0.4 0.7-0.6 0.7-0.4 0-0.5-0.5-0.6-0.7 0-1.1 0.4-2 0.5-2.2 0.1-0.3 0.2-0.2 0.2 0.1z"/>
		<path id="&lt;Path&gt;" class="s0" d="m34.3 20.2c0 0-0.1 0.3-0.1 0.5-0.4 0.9-0.2 1.4-0.1 1.5 0.2 0.5 0.6 0.2 0.7-0.1 0.1-0.2 0.2-0.1 0.1-0.1q0 0.1 0 0.3c-0.2 0.6-0.4 0.8-0.6 0.8-0.4 0-0.6-0.5-0.6-0.8 0-1 0.4-1.9 0.5-2.2 0.1-0.2 0.2-0.1 0.1 0.1z"/>
		<path id="&lt;Path&gt;" class="s0" d="m64 19.4c0 0 0 0.3 0 0.5 0 0.3-0.1 0.6-0.3 1-0.1 0.3-0.8 0.4-1.2 0.1-0.8 1.3-1.6 0.6-2 0.5-0.7-0.3-0.9 0.2-1.1 0.4-0.9 1-2.5 1-2.9 1-0.4 0-0.1-0.2 0.1-0.3 1.3-0.4 2.1-0.5 3.2-1.6 0.5-0.5 0.9-0.3 1.1-0.2 1 0.5 1.2 0 1.3-0.1 0.2-0.2 0.4-0.7 0.5-0.9 0-0.2 0.1-0.1 0.1 0.1 0 0.1-0.1 0.3-0.1 0.4 0.4 0.3 0.9 0.1 1 0 0 0 0-0.4 0-0.5q-0.1-0.1 0.1-0.6c0.1-0.3 0.2 0 0.2 0.2z"/>
		<path id="&lt;Path&gt;" class="s0" d="m28.7 13.5l1 0.8q0.1 0 0.1 0l-0.7 0.9q0 0.1-0.1 0l-1.1-0.8q0 0 0-0.1l0.7-0.8q0-0.1 0.1 0z"/>
		<path id="&lt;Path&gt;" class="s0" d="m15.5 13.2c0 0-0.1 0.3-0.2 0.5-0.3 1-0.2 1.5-0.1 1.6 0.3 0.5 0.7 0.3 0.8-0.1 0.1-0.2 0.1-0.1 0.1 0q0 0 0 0.3c-0.2 0.6-0.5 0.7-0.7 0.7-0.4 0-0.6-0.5-0.6-0.7 0-1.1 0.4-2.1 0.5-2.4 0.2-0.2 0.3-0.1 0.2 0.1z"/>
		<path id="&lt;Path&gt;" class="s0" d="m10.8 12.6c0 0 0 0.3-0.1 0.6-0.3 1.2-0.1 1.7 0 1.9 0.3 0.5 0.8 0.2 0.9-0.3 0.1-0.2 0.1-0.1 0.1 0q0 0.1 0 0.4c-0.2 0.7-0.5 0.9-0.7 0.9-0.5 0-0.7-0.5-0.7-0.8-0.2-1.3 0.3-2.5 0.4-2.8 0.1-0.3 0.2-0.2 0.1 0.1z"/>
		<path id="&lt;Path&gt;" class="s0" d="m20.6 12.3c0.8 0.1 0.6 0.4 0.4 0.7-0.6 0.9-1.3 1.2-1.9 1.5-0.5 0.2-0.2-0.2 0.1-0.5 0 0 0.3-0.2 0.8-0.5 0.5-0.4-0.8-0.3-1.4-0.3-0.5-0.1-0.6 0.1-0.8 0.3-0.2 0.2-0.4 0.1-0.3-0.1 0.2-0.2 0.3-0.5 0.7-1 0.4-0.4 1.6-0.2 2.4-0.1z"/>
		<path id="&lt;Compound Path&gt;" fill-rule="evenodd" class="s0" d="m43.8 17.9c-0.3 1-1.9 1.6-2.2 1.7-1.4 0.5-1.5-0.9-1.4-1.9 0.1-1 0.8-2.2 0.8-2.2 0-0.1-1.5-1.2-1.6-1.3-0.1-0.1-0.2-0.3-0.4-0.4-0.1 0-0.1-0.1-0.1-0.1 0 0 0-1 0-1.2 0.1-0.1 0.1 0 0.2 0 0.1 0.1 1.7 0.7 1.8 0.8 0.2 0 0.2 0.2 0.1 0.2-0.1 0-0.7 0.2-0.7 0.2l1.3 0.9c0 0 1.8-2.4 2-2.6 0.2-0.2 0.1-0.1 0.1 0.2 0 0.2-0.4 1.2-0.5 1.3-0.1 0.2-1 1.4-1 1.4 0 0 1.2 0.8 1.5 1.2 0.5 0.7 0.2 1.4 0.1 1.8zm-2.2-2.1c0 0-0.8 1.4-0.9 1.6-0.4 0.8 0.4 1 0.7 1 0.3-0.1 1.4-0.6 1.9-1 0.5-0.4-1.4-1.4-1.7-1.6z"/>
		<path id="&lt;Compound Path&gt;" fill-rule="evenodd" class="s0" d="m65.6 16.6c-0.1 0.2-0.4 1.3-1.8 1-0.4-0.1-1.1-0.3-1.4-1-0.3 0.4-1.2 1.8-2.8 1.5-0.4 0-1.5-0.5-1.6-1.9 0 0-1.3 1.1-2 1.4 0.1 0.5 0 1.1-0.2 1.8-0.2 0.7-3.2 3.9-5.5 4.5-0.8 0.1-3.9 0.7-4-2.7 0-0.7 0-1.2 0.1-1.6-1.9 1.4-4.2 2.6-4.8 2.9-1 0.5-4.5 1-5.1 1.1-0.4 0.1-0.5 0-0.2-0.1 0.2-0.2 7.9-2.8 11.9-7q0.2-0.2 0-0.5c-0.1-0.2-1.3-2.6-1.5-2.9-0.1-0.3-0.2-0.7-0.3-0.8q-0.1-0.2-0.1-0.4c0.1-0.2 0.2-0.8 0.2-0.9 0.1-0.2 0.1-0.1 0.2 0 0.1 0.1 1.3 1.3 1.5 1.5 0.1 0.2 0 0.2 0 0.2-0.1 0-0.7 0-0.7 0 0 0 0.8 1.4 1.1 1.9 0.5 1.2 0.2 2.1 0 2.5-0.3 0.8-1 1.5-1.8 2.1-0.1 0.6-0.4 3.4 2.2 3.5 0.4 0 1.7 0.2 4.4-2 0.6-0.5 1.3-1.1 1.9-1.9 0.2-0.3 0.3-0.9-0.1-0.8-0.4 0-3.1 1-3.5-0.6-0.1-0.5 0.1-4.4 2.8-2.4 0.2 0.1 0.8 0.6 1.2 1.4 0.4-0.2 1.2-0.7 2.3-1.6 0.3-0.2 0.5-0.3 0.5 0 0 0.4-0.2 2.6 2.3 2 0.2-0.1 1.3-0.3 2-2.2 0.2-0.5 0.5-0.4 0.4 0-0.2 0.4-0.5 0.9-0.2 1.1 0.2 0.2 0.9 0.7 1.8 0.6 0.3 0 0.4-0.2 0.3-0.4-0.1-0.3-0.4-0.8-0.4-0.8 0.1-0.3 0.2-0.8 0.2-0.9 0.1-0.1 0.1-0.2 0.2-0.1 0.1 0.1 0.9 1.1 0.5 2.5zm-11.1 0.1c-0.9-1.1-1.9-0.5-2-0.3-0.2 0.1-0.2 0.4 0.6 0.5 1 0 1.4-0.2 1.4-0.2z"/>
		<path id="&lt;Path&gt;" class="s0" d="m42.3 9.6l1.1 0.8q0.1 0 0 0.1l-0.6 0.8q-0.1 0.1-0.1 0.1l-1.1-0.8-0.5 0.7q-0.1 0.1-0.1 0.1l-1.1-0.8q0-0.1 0-0.1l0.6-0.9q0.1-0.1 0.1 0l1.1 0.7 0.5-0.7q0.1-0.1 0.1 0z"/>
		<path id="&lt;Path&gt;" class="s0" d="m62.8 9.6c0 0-0.1 0.3-0.2 0.5-0.3 1-0.1 1.4-0.1 1.5 0.3 0.5 0.7 0.2 0.8-0.1 0.1-0.2 0.1-0.1 0.1 0q0 0-0.1 0.2c-0.1 0.6-0.4 0.8-0.6 0.8-0.3 0-0.5-0.5-0.5-0.8-0.1-1 0.4-1.9 0.5-2.1 0.1-0.3 0.2-0.2 0.1 0z"/>
		<path id="&lt;Path&gt;" class="s0" d="m51.9 9.1c0 0-0.1 0.3-0.2 0.5-0.3 1-0.1 1.5-0.1 1.6 0.3 0.5 0.7 0.2 0.9-0.2 0-0.2 0.1-0.1 0.1 0q-0.1 0.1-0.1 0.3c-0.2 0.7-0.5 0.8-0.7 0.8-0.3 0-0.5-0.5-0.5-0.7-0.1-1.2 0.4-2.1 0.5-2.4 0.1-0.3 0.2-0.2 0.1 0.1z"/>
		<path id="&lt;Path&gt;" class="s0" d="m29.2 9c0 0 0.1 0.4 0.3 0.7 0.1 0.2 0.2 0.5 0.1 0.9 0 0.4-0.2 0.7-0.4 0.8-0.3 0-0.7 0-1-0.4-0.3 0.7-0.8 0.9-1.1 0.7-0.3-0.2-0.3-0.7-0.3-0.9 0-0.1 0-0.7 0-0.8 0-0.1 0-0.2 0.1-0.4 0-0.1 0.1-0.1 0.1 0.1 0 0.2-0.1 0.9 0.1 1.2 0.3 0.4 0.9 0 1-0.2 0.1-0.2-0.1-1-0.2-1q0-0.1 0-0.2c0 0 0-0.3 0.1-0.4q0.1-0.2 0.2 0c0 0.2 0 0.4 0.2 1.1 0.1 0.7 0.8 0.6 0.9 0.5 0.2-0.1 0.1-0.2 0.1-0.2 0-0.1-0.3-0.7-0.4-1-0.1-0.2-0.1-0.4 0-0.6 0.1-0.3 0.1-0.1 0.2 0.1z"/>
		<path id="&lt;Path&gt;" class="s0" d="m11 7c0.1 0.2 0 0.6-0.1 0.9 0 0.2-0.2 0-0.3-0.2 0 0-0.1-0.1-0.3-0.2-0.5-0.4-0.7 0.5-0.8 0.9 0 0.3 0 1.3-0.1 1.9 0 0.3-0.1 0.3-0.2 0.1-0.4-1.3-1.2-1.8-1.3-1.9q0-0.1-0.1-0.1 0.1 0.2 0.1 0.5c-0.2 1.6-1.8 2.3-2 2.5-0.3 0.1-0.3 0.1 0-0.2 0.2-0.4 1.4-1.7 1.6-1.9 0.5-0.6-0.5-0.9-0.6-1-0.2-0.2-0.1-0.7-0.1-0.9 0-0.3 0.2-0.4 0.3-0.4 1.5 0.8 2 2.2 2.1 2.4 0-1 0-2 0.6-2.8 0.4-0.6 1.1 0.3 1.2 0.4z"/>
		<path id="&lt;Path&gt;" class="s0" d="m19 5.9c0 0-0.1 0.3-0.2 0.5-0.3 1-0.2 1.5-0.1 1.6 0.3 0.5 0.7 0.2 0.8-0.1 0.1-0.2 0.1-0.1 0.1-0.1q0 0.1 0 0.4c-0.2 0.6-0.5 0.7-0.7 0.7-0.4 0-0.6-0.5-0.6-0.7 0-1.2 0.4-2.1 0.5-2.4 0.2-0.2 0.2-0.1 0.2 0.1z"/>
		<path id="&lt;Path&gt;" class="s0" d="m30.9 5.9c-0.1 0.1-0.1 0.1-0.2 0.3-0.1 0.3-0.3 0.3-0.5 0.4-0.2 0.2-9.5 3.8-9.6 3.9-0.4 0.2-0.4 0.1-0.3-0.1q0 0 0.1-0.3c0-0.2 0.1-0.3 0.4-0.4 0.3-0.2 9.5-3.8 9.8-4 0.4-0.2 0.3 0 0.3 0.2z"/>
		<path id="&lt;Path&gt;" class="s0" d="m14.9 5.9c0 0-0.1 0.5-0.2 0.9-0.6 1.9-0.3 2.7-0.2 2.9 0.5 1 1.1 0.5 1.3-0.2 0.1-0.4 0.2-0.2 0.2-0.1q-0.1 0.2-0.1 0.6c-0.3 1.2-0.7 1.4-1 1.5-0.7-0.1-0.9-1-1-1.5-0.1-2 0.6-3.7 0.8-4.3 0.2-0.5 0.3-0.2 0.2 0.2z"/>
		<path id="&lt;Path&gt;" class="s0" d="m22.6 5.4c0 0-0.1 0.2-0.1 0.4-0.3 0.8-0.2 1.1-0.1 1.2 0.2 0.4 0.5 0.2 0.6-0.1 0.1-0.2 0.1-0.1 0.1 0q0 0-0.1 0.2c-0.1 0.5-0.3 0.6-0.5 0.6-0.2 0-0.4-0.4-0.4-0.6 0-0.8 0.3-1.5 0.4-1.8 0.1-0.2 0.2-0.1 0.1 0.1z"/>
		<path id="&lt;Compound Path&gt;" fill-rule="evenodd" class="s0" d="m33.8 18.4c-0.2 2.3-1.9 2.5-2.4 2.5-1.8 0-2.1-1.5-2.2-2.2-4.1 2-6.7 2.4-7.5 2.5-1.8 0.3-2.9 0.1-3.6-0.1q-0.1 0.1-0.1 0.2c-0.3 0.4-0.5 0.6-0.5 0.5-0.1-0.1-0.1-0.3 0.1-0.7q0-0.1 0.1-0.2c-0.5-0.3-0.9-0.6-1.1-0.9-1.7-1.5-3.9 0.3-4.4 0.7-1.1 1-2.4 2.5-2.6 2.8-1.2 1.7-2.2 1.8-2.7 1.7-1.8-0.2-2-1.8-1.9-3.1 0.2-1.5 1-2.9 1.2-3.3-0.2-0.3-0.3-0.8-0.3-1.1-0.1-2 0.6-3.7 0.8-4.3 0.1-0.5 0.3-0.2 0.2 0.2 0 0-0.2 0.5-0.3 0.9-0.5 1.9-0.2 2.7-0.1 2.9 0.4 1 1 0.5 1.3-0.2 0.1-0.4 0.2-0.2 0.1-0.1q0 0.2-0.1 0.6c-0.2 1.2-0.7 1.4-1 1.4q-0.1 0-0.3 0c-1.8 3.7-0.9 4.8-0.3 5 1.4 0.3 2.7-1.2 3.1-1.8 1.7-2.2 3.1-3.2 3.9-3.7 0.9-0.5 2.4-1.3 4.5 0.8q0.3 0.3 0.6 0.4c0.3-0.5 0.6-1 0.7-1.2 0.3-0.4 2-3.7 3.9-4 0.3-0.1 1.3-0.4 2.9 0.8 0.4 0.3 1 0.9 0.7 1.9-0.2 0.4-0.6 1.3-1 1.9q0.5-0.1 0.7-0.2c1-0.3 2.8-1.3 3.3-1.5 0.5-0.3 0.3 0.2 0.3 0.3 0.1 1.3 0.6 1.4 0.8 1.6 1.3 0.5 2.3-0.2 2.4-0.4 0.2-0.2 0.2-0.7 0.1-1.2 0-0.4-1.4-11-1.5-11.4-0.1-0.5-0.2-0.7-0.2-0.8 0 0 0.5-0.9 0.5-1 0.1-0.2 0.1-0.1 0.1 0 0.1 0.1 1.3 3.2 1.4 3.4 0 0.1-0.1 0.2-0.2 0.1-0.1-0.1-0.8-0.7-0.8-0.7 0 0 1.5 9.9 1.4 11zm-8.3-0.6c0.2-0.2 0.6-0.4 0.2-0.8-2.2-1.9-3.6-1.1-4.1-0.7-1 0.8-2.1 2.4-2.8 3.6q0.1 0.1 0.2 0.1c1.3 0.1 3.7-0.1 6.5-2.2z"/>
		<path id="&lt;Path&gt;" class="s0" d="m35.5 4.6c0 0.1 1.3 3.4 1.4 3.5 0 0.2-0.1 0.3-0.2 0.2-0.1-0.2-0.7-0.8-0.7-0.8 0 0 1.2 8.7 1.2 9 0.2 1.7 0.3 3 0.2 3.8 0 1.1-0.2 1.5-0.3 1.6 0 0.2-0.1 0.1-0.1-0.1 0-0.6-0.2-1.8-0.3-3.1-0.4-2.6-1.5-11-1.7-12.4 0-0.1-0.1-0.6-0.1-0.6 0 0 0.4-1 0.4-1.1 0.1-0.2 0.1-0.1 0.2 0z"/>
		<path id="&lt;Path&gt;" class="s0" d="m50.9 4.6c0 0.1 0 0.2-0.1 0.3-0.1 0.2-0.2 0.3-0.4 0.4-0.2 0.1-5.9 3.4-6 3.5-0.3 0.2-0.3 0.1-0.2-0.1q0 0 0-0.3c0.1-0.1 0.1-0.2 0.4-0.3 0.2-0.2 5.9-3.4 6.1-3.6 0.3-0.2 0.3 0 0.2 0.1z"/>
		<path id="&lt;Path&gt;" class="s0" d="m57.9 5c0.1 0.2 0 0.6-0.1 0.9-0.1 0.2-0.2 0-0.4-0.1 0 0-0.1-0.2-0.2-0.3-0.6-0.5-0.8 0.5-0.9 0.9 0 0.3-0.1 1.4-0.2 2 0 0.3-0.2 0.2-0.2 0.1-0.4-1.4-1.2-2-1.3-2.1-0.2-0.1-0.3 0.1-0.3 0.1 0 0.1-0.1 0.1-0.1 0.1-0.1-0.1-0.6-0.3-0.7-0.5-0.1-0.1-0.1-0.6-0.1-0.8 0.1-0.4 0.3-0.5 0.4-0.4 1.5 0.8 2 2.3 2.1 2.6 0.1-1.2 0.1-2.2 0.7-2.9 0.5-0.7 1.2 0.2 1.3 0.4z"/>
		<path id="&lt;Compound Path&gt;" fill-rule="evenodd" class="s0" d="m63.5 7.4c-0.1 0.1-0.1 0-0.2-0.1-0.1-0.1-0.3-0.3-0.5-0.4-0.2 0.5-0.2 0.5-1.2 1.4-2.1 1.8-4.4 2.4-4.5 2.4-0.1 0.1-0.1 0 0.1-0.2 0.7-0.5 3.7-1.9 5.2-3.8 0 0-0.4-0.2-0.8-0.4-0.3-0.2-0.1-1.1 0.1-1.4 0.6-1 1.1-0.5 1.2-0.3 0.5 0.8 0.2 1.7 0.2 1.7 0.3 0.2 0.6 0.5 0.4 1.1zm-1-2.3c-0.1-0.1-0.3-0.1-0.6 0.3-0.1 0.2 0.1 0.3 0.2 0.4 0.2 0.1 0.7 0.3 0.7 0.3 0-0.1 0.1-0.7-0.3-1z"/>
		<path id="&lt;Compound Path&gt;" fill-rule="evenodd" class="s0" d="m42 7c0 0.2-0.1 0.1-0.2-0.1-0.1 0-0.5-0.3-0.5-0.3 0 0-0.4 0.9-1.2 1.5-1.4 1.1-2.6 1.3-2.7 1.3-0.1 0-0.1-0.1 0.1-0.2 0.9-0.5 1.9-0.9 3.5-2.8 0 0-0.5-0.2-0.8-0.4-0.4-0.3-0.2-1.1 0-1.4 0.6-1 1.1-0.5 1.2-0.4 0.5 0.9 0.3 1.8 0.3 1.8 0.2 0.1 0.5 0.5 0.3 1zm-1-2.2c-0.1-0.1-0.2-0.1-0.5 0.3-0.1 0.2 0 0.3 0.2 0.4 0.2 0.1 0.6 0.3 0.6 0.3 0-0.2 0.1-0.7-0.3-1z"/>
	</g>
</svg>