<svg version="1.2" xmlns="http://www.w3.org/2000/svg" viewBox="0 0 70 30" width="70" height="30">
	<title>New Project</title>
	<style>
		.s0 { fill: #191c4f } 
	</style>
	<g id="الإخلاص">
		<path id="&lt;Path&gt;" class="s0" d="m40.7 23.1c-0.1 0.1-0.1 0.1-0.1 0.2-0.1 0.1-0.2 0.1-0.3 0.2-0.1 0-1.6 0.5-1.7 0.5-0.2 0.1-0.1 0-0.1 0q0-0.1 0.1-0.2c0-0.1 0-0.1 0.2-0.2 0.1-0.1 1.6-0.5 1.7-0.6 0.3 0 0.2 0 0.2 0.1z"/>
		<path id="&lt;Path&gt;" class="s0" d="m39.9 21.3c0.1 0.1 0 0.2 0 0.2 0 0.1-0.1 0.2-0.2 0.3q-0.1 0.1-0.1 0c-0.1-0.2-0.3-0.2-0.5-0.1-0.2 0.1-0.2 0.2-0.1 0.3 0 0.1 0.3 0.3 0.5 0.4 0.2 0 0.7-0.1 0.9-0.2 0.2-0.2 0.1 0.1 0 0.2 0 0-0.1 0.2-0.2 0.2-1 0.2-1.3 0.6-1.5 0.6-0.1 0.1-0.1 0-0.1 0 0-0.1 0-0.1 0.1-0.2q0.1-0.2 0.2-0.2 0 0-0.3-0.3c-0.3-0.3 0.4-1 0.8-1.2 0.3-0.3 0.5 0 0.5 0z"/>
		<path id="&lt;Path&gt;" class="s0" d="m32.6 20.1c0 0-0.1 0.2-0.2 0.3-0.3 0.8-0.1 1.2-0.1 1.3 0.2 0.4 0.5 0.2 0.7-0.1 0-0.2 0.1-0.1 0 0q0 0.1 0 0.2c-0.2 0.5-0.4 0.6-0.5 0.6-0.3 0-0.5-0.4-0.5-0.6 0-0.9 0.4-1.6 0.5-1.8 0-0.2 0.1-0.1 0.1 0.1z"/>
		<path id="&lt;Path&gt;" class="s0" d="m26.5 20.1c0 0-0.1 0.2-0.2 0.3-0.4 0.8-0.2 1.2-0.2 1.3 0.2 0.4 0.6 0.3 0.7-0.1 0.1-0.1 0.2 0 0.1 0q0 0.1 0 0.3c-0.2 0.5-0.5 0.6-0.6 0.6-0.4 0-0.5-0.5-0.5-0.7 0-0.9 0.4-1.6 0.6-1.8 0.1-0.2 0.1-0.1 0.1 0.1z"/>
		<path id="&lt;Path&gt;" class="s0" d="m64.3 19.3c0 0 0 0.2 0 0.4 0 0.2-0.1 0.5-0.2 0.8-0.1 0.2-0.6 0.3-1 0.1-0.6 1-1.2 0.5-1.5 0.4-0.6-0.3-0.8 0.1-0.9 0.3-0.7 0.8-2.1 0.8-2.4 0.8-0.3 0 0-0.2 0.1-0.2 1-0.4 1.7-0.5 2.6-1.3 0.4-0.4 0.7-0.3 0.8-0.2 0.9 0.4 1 0 1.1-0.1 0.2-0.1 0.3-0.6 0.4-0.7 0-0.1 0.1 0 0.1 0.1 0 0.1-0.1 0.2-0.1 0.3 0.4 0.3 0.7 0.1 0.8 0 0 0 0-0.3 0-0.4q-0.1-0.1 0.1-0.4c0.1-0.3 0.1-0.1 0.1 0.1z"/>
		<path id="&lt;Path&gt;" class="s0" d="m20.7 19c-0.1 0.1-0.1 0.2-0.2 0.3-0.1 0.2-0.2 0.2-0.3 0.3-0.2 0.1-4.5 1.8-5 2-0.6 0.3-0.6 0.6-0.4 0.6 0.3 0.2 0.5 0.5 0.2 0.9q0 0.1 0 0c-0.1-0.1-0.2-0.2-0.4-0.2-0.3-0.1-0.3-0.6-0.2-1 0.1-0.3 0.3-0.6 0.6-0.7 0.5-0.3 5.3-2.2 5.4-2.2 0.4-0.2 0.3-0.1 0.3 0z"/>
		<path id="&lt;Compound Path&gt;" fill-rule="evenodd" class="s0" d="m48.2 18.1c-0.3 0.8-1.5 1.3-1.8 1.4-1.1 0.3-1.1-0.7-1.1-1.5 0.1-0.8 0.7-1.8 0.7-1.8-0.1-0.1-1.2-1-1.3-1.1-0.1-0.1-0.2-0.2-0.3-0.3-0.1 0-0.1-0.1-0.1-0.1 0 0 0-0.8 0-0.9 0-0.1 0.1 0 0.1 0 0.1 0 1.4 0.5 1.5 0.6 0.1 0.1 0.1 0.2 0 0.2 0 0-0.5 0.1-0.5 0.1l1.1 0.7c0 0 1.4-1.8 1.5-2 0.2-0.2 0.1-0.1 0.1 0.1 0 0.2-0.3 1-0.4 1.1 0 0.1-0.8 1.1-0.8 1.1 0 0 1 0.6 1.2 0.9 0.4 0.6 0.2 1.2 0.1 1.5zm-1.8-1.7c0 0-0.6 1.1-0.7 1.3-0.3 0.7 0.3 0.8 0.6 0.8 0.2-0.1 1.1-0.5 1.5-0.8 0.4-0.4-1.2-1.1-1.4-1.3z"/>
		<path id="&lt;Path&gt;" class="s0" d="m10.2 17.1c0 0-0.1 0.2-0.2 0.4-0.3 0.8-0.2 1.2-0.2 1.3 0.3 0.4 0.6 0.2 0.8-0.1 0-0.2 0.1-0.1 0.1 0q-0.1 0.1-0.1 0.2c-0.2 0.5-0.4 0.6-0.6 0.6-0.4 0-0.5-0.4-0.5-0.6 0-0.9 0.5-1.7 0.6-1.9 0.1-0.2 0.2-0.1 0.1 0.1z"/>
		<path id="&lt;Path&gt;" class="s0" d="m33.3 12.9c0 0 0 0.2-0.1 0.4-0.2 0.7-0.1 1-0.1 1.1 0.2 0.3 0.5 0.1 0.6-0.1 0-0.2 0.1-0.1 0 0q0 0 0 0.2c-0.1 0.4-0.3 0.5-0.4 0.5-0.3 0-0.4-0.4-0.4-0.5-0.1-0.8 0.3-1.4 0.3-1.6 0.1-0.2 0.2-0.1 0.1 0z"/>
		<path id="&lt;Compound Path&gt;" fill-rule="evenodd" class="s0" d="m65.6 17.1c0 0.2-0.3 1-1.4 0.7-0.3 0-0.9-0.1-1.1-0.8-0.3 0.4-1 1.5-2.3 1.3-0.3-0.1-1.2-0.4-1.2-1.6 0 0-1.1 0.9-1.6 1.2 0 0.4 0 0.9-0.2 1.4-0.2 0.5-2.5 3.2-4.4 3.6-0.7 0.1-3.1 0.6-3.2-2.1q0-0.9 0.1-1.4c-1.5 1.2-3.3 2.1-3.9 2.4-0.8 0.3-3.5 0.8-4 0.9-0.4 0-0.4 0-0.2-0.2 0.2-0.1 6.4-2.1 9.5-5.5q0.2-0.2 0-0.4c-0.1-0.2-1.1-2.1-1.2-2.4-0.1-0.2-0.2-0.5-0.2-0.6q-0.1-0.2-0.1-0.3c0-0.1 0.1-0.6 0.2-0.8 0-0.1 0.1 0 0.1 0.1 0.1 0 1.1 1 1.2 1.2 0.1 0.1 0 0.2 0 0.2-0.1 0-0.5 0-0.5 0 0 0 0.6 1.1 0.8 1.5 0.4 0.9 0.2 1.7 0.1 2-0.3 0.6-0.9 1.1-1.5 1.7-0.1 0.4-0.3 2.7 1.8 2.7 0.3 0 1.3 0.2 3.5-1.5 0.4-0.4 1-0.9 1.5-1.6 0.2-0.2 0.3-0.7-0.1-0.7-0.3 0.1-2.5 0.9-2.8-0.4-0.1-0.4 0.1-3.5 2.2-2 0.2 0.2 0.7 0.6 1 1.2 0.3-0.2 1-0.6 1.8-1.2 0.3-0.2 0.5-0.3 0.5-0.1 0 0.3-0.2 2.1 1.8 1.6 0.2-0.1 1-0.2 1.6-1.8 0.2-0.3 0.4-0.3 0.3 0-0.2 0.4-0.4 0.7-0.2 0.9 0.2 0.2 0.8 0.6 1.4 0.5 0.3 0 0.4-0.1 0.3-0.3 0-0.2-0.3-0.6-0.3-0.6 0.1-0.3 0.2-0.7 0.2-0.8 0-0.1 0.1-0.2 0.1-0.1 0.1 0.1 0.8 1 0.4 2.1zm-8.9 0.1c-0.6-1-1.5-0.5-1.6-0.3-0.1 0.1-0.1 0.3 0.5 0.4 0.9 0 1.1-0.1 1.1-0.1z"/>
		<path id="&lt;Path&gt;" class="s0" d="m29.6 12.5l0.9 0.6q0 0 0 0.1l-0.5 0.7q0 0-0.1 0l-0.8-0.6q-0.1-0.1-0.1-0.1l0.6-0.7q0 0 0 0z"/>
		<path id="&lt;Path&gt;" class="s0" d="m9.9 12.3c0 0-0.1 0.2-0.2 0.4-0.4 0.8-0.2 1.2-0.2 1.3 0.3 0.4 0.6 0.2 0.8-0.1 0-0.1 0.1-0.1 0 0q0 0.1 0 0.3c-0.2 0.4-0.5 0.6-0.6 0.5-0.4 0-0.5-0.4-0.5-0.6 0-0.9 0.4-1.6 0.6-1.9 0.1-0.2 0.1-0.1 0.1 0.1z"/>
		<path id="&lt;Compound Path&gt;" fill-rule="evenodd" class="s0" d="m21.4 15.4c-0.1 0.5-0.3 1-0.5 1.2-0.2 0.1-3 2.1-6.5 1.1q0 0.3 0 0.4c-0.1 1.3-0.6 1.8-0.9 2 0 0-2.7 2.2-5.2 2.3-2.9 0.1-3.3-2.3-3.3-2.7-0.1-1.6 0.4-2.9 0.7-3.5q0-0.1 0-0.1-0.1-0.3-0.1-0.4c-0.2-1.7 0.4-3.1 0.5-3.5 0.1-0.4 0.2-0.2 0.2 0.1 0 0-0.1 0.5-0.2 0.8-0.4 1.5-0.1 2.2 0 2.3 0.4 0.7 0.8 0.3 1-0.3 0.1-0.3 0.2-0.1 0.1 0q0 0.2 0 0.5c-0.2 0.9-0.5 1.2-0.8 1.2-0.2 0-0.4-0.2-0.5-0.3q0 0 0 0.1c-0.2 0.5-0.3 0.8-0.4 1.3-0.3 2.1 0.9 2.9 1.2 3 2.2 1.2 5-0.6 5.4-0.8 1.7-0.9 1.8-1.5 1.9-1.8 0-0.4-0.6-1.8-0.9-2.3 0 0 0.1-0.5 0.2-0.7 0-0.1 0-0.3 0.1-0.1q0.3 0.5 0.6 1.1c0.1 0.1 0.4 0.3 0.9 0.5 0.5-0.8 1.3-1.9 1.5-2.2 0.3-0.3 1.5-1.9 3-1.5 0.7 0.2 1.5 0.8 1.9 1.3 0.1 0.3 0.3 0.6 0.1 1zm-0.7 0c-1.4-1.7-2.4-1.4-2.9-1.2-0.5 0.2-1.7 1.1-2.4 2.7 0.8 0.1 2 0.1 3.7-0.4 0.7-0.2 2-0.7 1.6-1.1z"/>
		<path id="&lt;Path&gt;" class="s0" d="m47 11.4l0.9 0.7q0 0 0 0l-0.5 0.7q-0.1 0.1-0.1 0.1l-0.8-0.7-0.5 0.6q0 0.1-0.1 0.1l-0.8-0.7q-0.1 0 0 0l0.5-0.8q0 0 0 0l0.9 0.7 0.4-0.7q0.1 0 0.1 0z"/>
		<path id="&lt;Path&gt;" class="s0" d="m63.4 11.5c0 0-0.1 0.2-0.1 0.3-0.3 0.8-0.2 1.2-0.1 1.2 0.2 0.4 0.5 0.2 0.6-0.1 0-0.1 0.1 0 0.1 0q-0.1 0.1-0.1 0.3c-0.1 0.4-0.3 0.6-0.5 0.6-0.3-0.1-0.4-0.4-0.4-0.6-0.1-0.9 0.3-1.6 0.4-1.8 0.1-0.2 0.1-0.1 0.1 0.1z"/>
		<path id="&lt;Path&gt;" class="s0" d="m54.7 11c0 0-0.1 0.3-0.2 0.4-0.2 0.9-0.1 1.2-0.1 1.3 0.3 0.4 0.6 0.2 0.7-0.1 0.1-0.1 0.1-0.1 0.1 0q0 0.1-0.1 0.3c-0.1 0.5-0.3 0.6-0.5 0.6-0.3 0-0.4-0.4-0.4-0.6-0.1-0.9 0.3-1.7 0.4-1.9 0.1-0.3 0.1-0.2 0.1 0z"/>
		<path id="&lt;Path&gt;" class="s0" d="m29.9 10c0.5 0.1 0.4 0.3 0.3 0.5-0.4 0.5-0.9 0.8-1.3 0.9-0.3 0.2-0.1-0.1 0.1-0.2 0 0 0.2-0.2 0.5-0.4 0.3-0.2-0.5-0.2-0.9-0.2-0.4 0-0.4 0.1-0.6 0.2-0.1 0.2-0.2 0.1-0.1-0.1 0.1-0.1 0.2-0.3 0.4-0.6 0.3-0.3 1.1-0.2 1.6-0.1z"/>
		<path id="&lt;Path&gt;" class="s0" d="m14.7 8.2c0 0-0.1 0.4-0.2 0.6-0.3 1.2-0.1 1.7 0 1.8 0.4 0.6 0.9 0.3 1-0.2 0.1-0.2 0.2-0.1 0.2 0q-0.1 0.1-0.1 0.4c-0.2 0.7-0.5 0.9-0.8 0.9-0.5 0-0.7-0.5-0.7-0.8-0.2-1.3 0.3-2.4 0.4-2.8 0.2-0.3 0.3-0.1 0.2 0.1z"/>
		<path id="&lt;Path&gt;" class="s0" d="m36 7.7c0 0-0.1 0.2-0.1 0.4-0.3 0.8-0.2 1.2-0.2 1.3 0.3 0.4 0.6 0.2 0.7-0.1 0.1-0.2 0.1-0.1 0.1 0q0 0.1 0 0.2c-0.2 0.6-0.4 0.7-0.6 0.7-0.3 0-0.4-0.5-0.5-0.7 0-0.9 0.4-1.7 0.5-1.9 0.1-0.2 0.2-0.1 0.1 0.1z"/>
		<path id="&lt;Path&gt;" class="s0" d="m53.9 7.5c0 0.1 0 0.1-0.1 0.2-0.1 0.2-0.2 0.2-0.3 0.3-0.2 0.1-4.7 2.8-4.8 2.8-0.3 0.2-0.3 0.1-0.2 0q0-0.1 0-0.3c0.1-0.1 0.1-0.1 0.3-0.3 0.2-0.1 4.7-2.7 4.9-2.8 0.3-0.2 0.2 0 0.2 0.1z"/>
		<path id="&lt;Path&gt;" class="s0" d="m59.4 7.7c0.1 0.2 0.1 0.6 0 0.8-0.1 0.1-0.2 0-0.3-0.1 0 0-0.1-0.1-0.2-0.2-0.5-0.4-0.7 0.3-0.7 0.7 0 0.3-0.1 1.1-0.2 1.6 0 0.2-0.1 0.2-0.2 0.1-0.3-1.1-0.9-1.6-1-1.7-0.1-0.1-0.2 0-0.2 0.1 0 0.1-0.1 0.1-0.1 0-0.1 0-0.4-0.2-0.6-0.3-0.1-0.1 0-0.5 0-0.7 0-0.3 0.2-0.4 0.3-0.3 1.2 0.7 1.6 1.9 1.7 2 0-0.9 0.1-1.7 0.5-2.3 0.4-0.5 1 0.3 1 0.3z"/>
		<path id="&lt;Path&gt;" class="s0" d="m11 7.7c0.1 0.2 0.1 0.5 0 0.7-0.1 0.2-0.2 0-0.3-0.1 0 0-0.1-0.1-0.2-0.2-0.4-0.4-0.6 0.4-0.6 0.7-0.1 0.3-0.1 1.1-0.2 1.5 0 0.2-0.1 0.2-0.2 0.1-0.3-1-0.9-1.5-1-1.6q0 0 0 0 0.1 0.1 0 0.3c-0.2 1.3-1.5 1.8-1.7 1.9q-0.3 0.2 0-0.1c0.2-0.3 1.2-1.3 1.4-1.5 0.4-0.4-0.4-0.7-0.5-0.8-0.1-0.1 0-0.5 0-0.7 0-0.2 0.2-0.3 0.2-0.3 1.2 0.7 1.6 1.8 1.6 2 0.1-0.8 0.1-1.6 0.6-2.2 0.4-0.5 0.9 0.2 0.9 0.3z"/>
		<path id="&lt;Compound Path&gt;" fill-rule="evenodd" class="s0" d="m63.9 9.7c0 0.1-0.1 0-0.1-0.1-0.1-0.1-0.2-0.2-0.4-0.3-0.2 0.4-0.2 0.4-0.9 1.1-1.7 1.4-3.6 1.9-3.6 2-0.2 0-0.2-0.1 0-0.2 0.6-0.5 3-1.5 4.2-3 0 0-0.4-0.2-0.6-0.4-0.3-0.2-0.2-0.8 0-1.1 0.5-0.8 0.9-0.4 1-0.3 0.4 0.7 0.2 1.4 0.2 1.4 0.2 0.2 0.4 0.4 0.2 0.9zm-0.7-1.8c-0.1-0.1-0.3-0.1-0.5 0.2-0.1 0.1 0 0.2 0.2 0.3 0.1 0.1 0.5 0.2 0.5 0.2 0-0.1 0-0.5-0.2-0.7z"/>
		<path id="&lt;Path&gt;" class="s0" d="m41.8 7.1c0.1 0.1 1 2.7 1.1 2.9 0 0.1-0.1 0.2-0.2 0.1 0-0.1-0.5-0.6-0.5-0.6 0 0 0.7 7 0.7 7.2q0.2 2 0.1 3c-0.1 0.8-0.2 1.2-0.3 1.2 0 0.2-0.1 0.1-0.1 0 0-0.5-0.1-1.5-0.2-2.5-0.2-2.1-0.9-8.8-1-9.9 0-0.2-0.1-0.5-0.1-0.6 0 0 0.4-0.7 0.4-0.8 0.1-0.1 0.1-0.1 0.1 0z"/>
		<path id="&lt;Compound Path&gt;" fill-rule="evenodd" class="s0" d="m46.8 9.4c-0.1 0.1-0.1 0.1-0.2-0.1-0.1 0-0.4-0.3-0.4-0.3 0 0-0.3 0.8-0.9 1.3-1.2 0.8-2.1 1-2.2 1-0.1 0-0.1-0.1 0-0.2 0.8-0.4 1.6-0.7 2.8-2.2 0 0-0.4-0.1-0.6-0.3-0.3-0.2-0.1-0.9 0-1.2 0.5-0.7 0.9-0.3 1-0.2 0.4 0.7 0.2 1.4 0.2 1.4 0.2 0.1 0.4 0.4 0.3 0.8zm-0.8-1.8c-0.1 0-0.2-0.1-0.5 0.3-0.1 0.1 0 0.2 0.2 0.3 0.1 0 0.5 0.2 0.5 0.2 0-0.1 0.1-0.5-0.2-0.8z"/>
		<path id="&lt;Compound Path&gt;" fill-rule="evenodd" class="s0" d="m36.3 16.7l-0.3 1c0 0-1.1-0.2-3 1.1-1.6 1-3.1 1.3-3.8 1.4q-0.2 0-0.4-0.1c0 0.5-0.2 0.7-0.2 0.8-0.1 0.1-0.2 0.1-0.1-0.2q0-0.2-0.2-0.6c-1.9-0.5-2.2-2.8-2.2-2.8-0.6 2.4-2.5 3.5-3.1 3.7-0.5 0.3-2.4 0.8-2.7 0.9-0.4 0.1-0.3 0-0.1-0.2 3.3-1.7 4.6-3.1 5.2-4.1q0-0.5-0.3-1c-0.9-1.8-3.4-3.6-3.6-3.8-1.4-1.1-3-3.4-3.1-3.6-0.1-0.1-0.2-0.2-0.3-0.2-0.1-0.1-0.1-0.2-0.1-0.4 0-0.1-0.1-0.7 0-0.9 0-0.1 0-0.1 0.1 0 0.1 0.2 1.8 1.4 2 1.6 0.3 0.2 0.1 0.2-0.1 0.2-0.1 0-0.4-0.1-0.6-0.2 0 0 0.4 0.5 0.7 1 0.7 0.8 2 2 2.3 2.2 0.3 0.4 1.8 1.5 2.5 2.5 0.6 0.7 0.7 1.5 0.7 2.1 0.3-0.7 0.2-1.1 0.2-1.3 0-0.4-0.8-6.7-0.9-7.2-0.1-0.5 0.1-1.3 0.2-1.4 0.1-0.2 0.1-0.4 0.2-0.1 0.3 0.9 0.8 5.3 0.9 6.1 0.1 0.7 0.5 3.8 0.6 4.3 0.2 0.6 0.6 1 1.1 1.3q-0.1-0.3-0.2-0.5c-0.4-1.1-0.3-1.3 0.2-2.1 0.5-0.9 0.9-0.9 1.2-1 1.3-0.1 3.9 0.7 4.9 1.1 1 0.3 2.3 0.4 2.3 0.4zm-2.4 0.6c0 0-2.9-1.2-5.2-1-0.7 0.1-0.7 0.7-0.7 0.9 0.1 0.2 0.5 1.2 0.6 1.7q0 0 0.1 0.1c0.6 0.1 1.2 0 1.6-0.1 0.8-0.2 3.1-1.3 3.6-1.6z"/>
		<path id="&lt;Path&gt;" class="s0" d="m38.8 7c0.1 0.1 1.1 2.8 1.1 2.9 0 0.2-0.1 0.2-0.1 0.1-0.1-0.1-0.6-0.6-0.6-0.6 0 0 0.6 4.7 0.7 5.8 0.4 2.7-0.2 3.8-0.5 4.4-1.2 2.7-4.3 2.8-4.8 3-0.6 0.1-0.6-0.1-0.3-0.2 2.9-1.1 4.2-2.4 4.8-3.3q0-0.6-0.3-1.2c-0.9-1.9-3.4-3.9-3.6-4.1-1.4-1.3-2.9-3.7-3-3.9-0.1-0.1-0.2-0.2-0.3-0.3-0.1-0.1-0.1-0.1-0.1-0.3 0-0.2 0-0.9 0-1 0-0.1 0-0.1 0.2 0 0.1 0.2 1.8 1.5 2 1.8 0.2 0.2 0.1 0.2-0.1 0.2-0.1-0.1-0.4-0.2-0.6-0.3 0 0 0.3 0.6 0.6 1 0.7 1 2 2.3 2.3 2.6 0.3 0.3 1.8 1.6 2.5 2.6 0.6 0.9 0.7 1.8 0.7 2.4q0.1-0.2 0.1-0.3c0.2-0.7-0.9-8.2-0.9-8.2 0-0.6-0.1-1.2-0.2-1.6 0-0.4-0.1-0.6-0.1-0.7 0 0 0.4-0.7 0.4-0.8 0.1-0.1 0.1-0.1 0.1 0z"/>
		<path id="&lt;Path&gt;" class="s0" d="m27.5 5.2c0 0.1 0 0.1-0.1 0.2-0.1 0.2-0.2 0.2-0.4 0.3-0.1 0.1-4 1.6-4.6 1.8-0.6 0.3-0.5 0.5-0.4 0.6 0.4 0.2 0.5 0.5 0.3 0.9q-0.1 0-0.1 0c0-0.1-0.1-0.2-0.3-0.3-0.3 0-0.4-0.5-0.2-0.9 0.1-0.3 0.3-0.6 0.5-0.7 0.5-0.3 4.9-2 5.1-2 0.3-0.2 0.3-0.1 0.2 0.1z"/>
	</g>
</svg>