<svg version="1.2" xmlns="http://www.w3.org/2000/svg" viewBox="0 0 70 30" width="70" height="30">
	<title>New Project</title>
	<style>
		.s0 { fill: #191c4f } 
	</style>
	<g id="الناس">
		<path id="&lt;Path&gt;" class="s0" d="m30.7 21.5c0 0-0.1 0.3-0.2 0.4-0.3 0.9-0.1 1.3-0.1 1.4 0.3 0.4 0.6 0.2 0.7-0.1 0.1-0.2 0.1-0.1 0.1 0q0 0-0.1 0.2c-0.1 0.5-0.3 0.7-0.5 0.7-0.3-0.1-0.5-0.5-0.5-0.7 0-0.9 0.4-1.7 0.5-1.9 0.1-0.3 0.1-0.1 0.1 0z"/>
		<path id="&lt;Path&gt;" class="s0" d="m20.7 20.2c-0.1 0.1-0.1 0.2-0.2 0.3-0.1 0.2-0.2 0.2-0.3 0.3-0.2 0.1-5.7 2.5-5.8 2.6-0.3 0.1-0.3 0-0.2-0.1q0 0 0.1-0.3c0-0.1 0.1-0.2 0.3-0.3 0.2-0.1 5.6-2.5 5.8-2.6 0.4-0.1 0.3 0 0.3 0.1z"/>
		<path id="&lt;Path&gt;" class="s0" d="m64.1 20.3c0 0 0 0.2 0 0.5 0 0.2-0.1 0.5-0.2 0.8-0.1 0.3-0.8 0.4-1.2 0.2-0.7 1.1-1.4 0.5-1.8 0.4-0.6-0.3-0.8 0.2-1 0.3-0.8 1-2.4 1-2.7 1-0.4 0-0.1-0.2 0.1-0.3 1.2-0.4 1.9-0.5 3-1.5 0.4-0.5 0.8-0.2 0.9-0.2 1 0.5 1.2 0 1.3-0.1 0.1-0.1 0.3-0.6 0.4-0.8 0.1-0.1 0.2 0 0.1 0.1 0 0.1-0.1 0.3-0.1 0.4 0.4 0.3 0.9 0 0.9 0 0 0 0-0.4 0-0.5q0-0.1 0.1-0.5c0.1-0.3 0.2 0 0.2 0.2z"/>
		<path id="&lt;Path&gt;" class="s0" d="m10.2 17.6c0 0-0.1 0.2-0.1 0.4-0.3 0.8-0.2 1.2-0.1 1.3 0.2 0.4 0.5 0.2 0.6-0.1 0.1-0.2 0.1-0.1 0.1 0q0 0.1 0 0.3c-0.2 0.5-0.4 0.6-0.6 0.6-0.3 0-0.4-0.4-0.4-0.6-0.1-1 0.3-1.8 0.4-2 0.1-0.2 0.2-0.1 0.1 0.1z"/>
		<path id="&lt;Compound Path&gt;" fill-rule="evenodd" class="s0" d="m45.4 18.9c-0.3 0.9-1.7 1.5-2 1.6-1.3 0.4-1.4-0.9-1.3-1.8 0.1-0.9 0.8-2.1 0.8-2.1-0.1 0-1.4-1.1-1.5-1.2-0.1-0.1-0.3-0.2-0.4-0.3-0.1-0.1-0.1-0.1-0.1-0.1 0 0 0-1 0-1.1 0.1-0.1 0.1-0.1 0.2 0 0.1 0 1.5 0.6 1.7 0.7 0.1 0.1 0.1 0.2 0 0.2-0.1 0-0.6 0.1-0.6 0.1l1.2 0.9c0 0 1.7-2.2 1.8-2.4 0.2-0.2 0.2-0.1 0.1 0.2 0 0.2-0.3 1.1-0.4 1.2-0.1 0.2-0.9 1.3-0.9 1.3 0 0 1.1 0.7 1.4 1.1 0.4 0.6 0.1 1.3 0 1.7zm-2-1.9c0 0-0.8 1.2-0.9 1.4-0.3 0.8 0.5 0.9 0.7 0.9 0.3 0 1.3-0.5 1.7-0.9 0.5-0.4-1.3-1.3-1.5-1.4z"/>
		<path id="&lt;Compound Path&gt;" fill-rule="evenodd" class="s0" d="m65.6 17.7c-0.1 0.2-0.3 1.1-1.6 0.9-0.4-0.1-1.1-0.2-1.3-1-0.4 0.4-1.1 1.7-2.7 1.5-0.3-0.1-1.4-0.5-1.4-1.8 0 0-1.3 1-1.8 1.3 0 0.5 0 1-0.3 1.7-0.2 0.6-2.9 3.6-5.1 4.1-0.7 0.2-3.5 0.7-3.6-2.5q-0.1-0.9 0-1.5c-1.7 1.4-3.8 2.4-4.4 2.7-0.9 0.4-4.1 1-4.7 1.1-0.4 0-0.4-0.1-0.2-0.2 0.2-0.1 7.4-2.5 11-6.4q0.2-0.2 0-0.5c-0.1-0.2-1.2-2.4-1.3-2.7-0.2-0.3-0.3-0.7-0.4-0.8q-0.1-0.1 0-0.3c0-0.1 0.1-0.7 0.2-0.9 0-0.1 0.1 0 0.1 0.1 0.1 0.1 1.3 1.2 1.4 1.4 0.1 0.1 0 0.2 0 0.2-0.1 0-0.6 0-0.6 0 0 0 0.7 1.3 1 1.8 0.4 1 0.2 1.9 0 2.3-0.3 0.6-1 1.3-1.7 1.9-0.1 0.6-0.3 3.1 2.1 3.2 0.3 0 1.6 0.2 4-1.8 0.6-0.5 1.2-1 1.7-1.8 0.3-0.3 0.4-0.8 0-0.8-0.4 0.1-2.9 1-3.3-0.5-0.1-0.4 0.1-4 2.6-2.2 0.2 0.1 0.7 0.6 1.1 1.2 0.4-0.1 1.2-0.6 2.1-1.4 0.3-0.2 0.6-0.3 0.6 0 0 0.4-0.2 2.5 2 1.8 0.3 0 1.2-0.2 1.9-2 0.2-0.4 0.5-0.4 0.4 0-0.2 0.4-0.5 0.8-0.2 1 0.2 0.2 0.8 0.7 1.6 0.6 0.3 0 0.5-0.2 0.4-0.4-0.1-0.2-0.4-0.7-0.4-0.7 0.1-0.3 0.2-0.7 0.2-0.9 0-0.1 0.1-0.2 0.2-0.1 0.1 0.1 0.8 1.1 0.4 2.4zm-10.3 0.1c-0.8-1.1-1.7-0.5-1.8-0.4-0.2 0.2-0.2 0.5 0.6 0.5 0.9 0.1 1.2-0.1 1.2-0.1z"/>
		<path id="&lt;Path&gt;" class="s0" d="m10.6 12.4c0 0-0.1 0.3-0.2 0.5-0.3 1.1-0.1 1.6 0 1.7 0.3 0.5 0.7 0.2 0.9-0.2 0.1-0.2 0.1-0.1 0.1 0q0 0.1 0 0.3c-0.2 0.7-0.5 0.8-0.7 0.8-0.5 0.1-0.7-0.5-0.7-0.7-0.2-1.2 0.3-2.2 0.4-2.5 0.1-0.3 0.2-0.2 0.2 0.1z"/>
		<path id="&lt;Path&gt;" class="s0" d="m6.3 11.7c0 0-0.1 0.5-0.2 0.8-0.5 1.7-0.2 2.5-0.1 2.7 0.4 0.8 0.9 0.4 1.2-0.3 0-0.3 0.1-0.1 0.1 0q0 0.1-0.1 0.5c-0.2 1.1-0.6 1.3-0.9 1.3q-0.1 0-0.3-0.1 0 0.1 0 0.2c-0.3 0.7-0.5 2.1-0.4 2.7 0.3 1.9 1.9 2.3 3.2 2.4 2.8 0 5.6-2.7 5.9-3.1 0.4-0.5-0.5-2.1-0.8-2.7 0 0 0.1-0.8 0.1-0.9 0-0.1 0.1-0.2 0.3 0q0.2 0.4 0.4 0.8c1.9 0.6 2.7-1.5 2.9-1.9 0.2-0.3 0.2 0 0.2 0.2-0.1 0.3-0.2 0.7-0.2 0.7 0.7 1 1.5 0.8 1.6 0.7 0.2 0 0-0.6-0.1-0.9 0 0 0.2-0.8 0.2-0.9 0.1-0.1 0.1-0.2 0.2-0.1 0.5 0.8 0.4 1.7 0.4 1.9-0.3 1.2-1 1.3-1.6 1.2-0.7-0.1-1.1-0.9-1.1-0.9-0.7 1.3-1.8 1.3-2.1 1.3 0.2 0.7 0.1 1.2 0 1.4 0 0 0 1.1-1 1.9-3 2.8-5.9 2.7-7.2 2.2-3.2-1.3-1.4-5.6-1.2-6.2q0.1-0.1 0.1-0.2c-0.2-0.2-0.4-0.7-0.4-1-0.1-1.8 0.6-3.4 0.7-3.8 0.2-0.5 0.3-0.3 0.2 0.1z"/>
		<path id="&lt;Path&gt;" class="s0" d="m44.1 11.2l1 0.7q0 0 0 0.1l-0.6 0.8q0 0-0.1 0l-1-0.7-0.5 0.7q0 0-0.1 0l-1-0.7q0-0.1 0-0.1l0.6-0.8q0-0.1 0.1 0l1 0.7 0.5-0.7q0-0.1 0.1 0z"/>
		<path id="&lt;Path&gt;" class="s0" d="m63 11.2c0 0-0.1 0.3-0.1 0.4-0.3 0.9-0.2 1.3-0.1 1.4 0.2 0.5 0.5 0.2 0.7-0.1 0-0.2 0.1-0.1 0.1 0q-0.1 0.1-0.1 0.3c-0.2 0.5-0.4 0.6-0.5 0.6-0.4 0-0.5-0.4-0.5-0.6-0.1-1 0.3-1.8 0.4-2.1 0.1-0.2 0.2-0.1 0.1 0.1z"/>
		<path id="&lt;Path&gt;" class="s0" d="m52.9 10.7c0 0 0 0.3-0.1 0.5-0.3 0.9-0.2 1.4-0.1 1.4 0.2 0.5 0.6 0.3 0.7-0.1 0.1-0.2 0.2-0.1 0.1 0q0 0.1 0 0.3c-0.2 0.6-0.4 0.7-0.6 0.7-0.4 0-0.5-0.5-0.6-0.7 0-1 0.4-1.9 0.5-2.2 0.1-0.2 0.2-0.1 0.1 0.1z"/>
		<path id="&lt;Path&gt;" class="s0" d="m11.9 7.4c0.1 0.2 0.1 0.6 0 0.9-0.1 0.1-0.2 0-0.3-0.1 0 0-0.2-0.1-0.3-0.2-0.5-0.4-0.6 0.4-0.7 0.8 0 0.3 0 1.3 0 1.8 0 0.2-0.2 0.2-0.2 0.1-0.5-1.2-1.2-1.7-1.3-1.8-0.1-0.1-0.2 0.1-0.2 0.2 0 0.1-0.1 0.1-0.2 0 0 0-0.4-0.2-0.6-0.3-0.1-0.1-0.1-0.6-0.1-0.8 0-0.3 0.2-0.4 0.3-0.4 1.4 0.7 1.9 2 2 2.2 0-1 0-1.9 0.5-2.6 0.3-0.6 1 0.2 1.1 0.2z"/>
		<path id="&lt;Path&gt;" class="s0" d="m16.4 6.9c0 0-0.1 0.5-0.2 0.8-0.5 1.6-0.2 2.3-0.1 2.5 0.4 0.8 0.9 0.3 1.1-0.3 0.1-0.3 0.1-0.1 0.1 0q0 0.2-0.1 0.5c-0.2 1-0.6 1.2-0.8 1.2-0.6 0-0.8-0.8-0.8-1.2-0.2-1.7 0.5-3.2 0.6-3.6 0.1-0.4 0.3-0.2 0.2 0.1z"/>
		<path id="&lt;Path&gt;" class="s0" d="m52 6.6c0 0.1 0 0.1-0.1 0.3-0.1 0.2-0.2 0.2-0.3 0.3-0.2 0.1-5.5 3.2-5.6 3.2-0.3 0.2-0.3 0.1-0.2 0q0 0 0-0.3c0.1-0.2 0.1-0.2 0.3-0.3 0.3-0.2 5.5-3.2 5.7-3.3 0.3-0.2 0.3-0.1 0.2 0.1z"/>
		<path id="&lt;Path&gt;" class="s0" d="m58.5 6.9c0.1 0.2 0 0.6-0.1 0.9-0.1 0.1-0.2 0-0.3-0.2 0 0-0.2-0.1-0.3-0.2-0.5-0.5-0.7 0.4-0.8 0.8 0 0.3-0.1 1.3-0.2 1.9 0 0.2-0.1 0.2-0.2 0-0.4-1.2-1.1-1.8-1.2-1.9-0.1-0.1-0.2 0.1-0.2 0.2 0 0-0.1 0-0.2 0-0.1 0-0.5-0.3-0.6-0.4-0.1-0.2-0.1-0.6-0.1-0.8 0.1-0.4 0.3-0.5 0.4-0.4 1.4 0.8 1.8 2.2 1.9 2.4 0.1-1 0.1-2 0.7-2.7 0.4-0.5 1.1 0.3 1.2 0.4z"/>
		<path id="&lt;Compound Path&gt;" fill-rule="evenodd" class="s0" d="m63.7 9.1c-0.1 0.2-0.2 0.1-0.3-0.1 0-0.1-0.2-0.2-0.4-0.3-0.2 0.4-0.2 0.5-1.1 1.3-1.9 1.6-4 2.2-4.1 2.2-0.2 0.1-0.2 0 0-0.2 0.7-0.5 3.5-1.7 4.9-3.5 0 0-0.5-0.1-0.8-0.4-0.3-0.2-0.1-1 0.1-1.3 0.6-0.8 1-0.4 1.1-0.3 0.5 0.8 0.2 1.6 0.2 1.6 0.3 0.2 0.5 0.5 0.4 1zm-1-2.1c-0.1 0-0.2 0-0.5 0.4-0.1 0.1 0 0.2 0.2 0.3 0.2 0 0.6 0.2 0.6 0.2 0-0.1 0.1-0.6-0.3-0.9z"/>
		<path id="&lt;Path&gt;" class="s0" d="m26.4 16c0 0-0.1 0.3-0.2 0.6-0.4 1.1-0.1 1.6 0 1.7 0.3 0.5 0.8 0.2 0.9-0.2 0.1-0.2 0.2-0.1 0.1 0q0 0.1 0 0.3c-0.2 0.7-0.5 0.9-0.7 0.9-0.5 0-0.7-0.5-0.8-0.8-0.1-1.2 0.4-2.3 0.5-2.6 0.1-0.3 0.2-0.1 0.2 0.1z"/>
		<path id="&lt;Path&gt;" class="s0" d="m30.7 15.1l1.1 0.7q0 0.1 0 0.1l-0.6 0.8q-0.1 0.1-0.1 0l-1-0.7q-0.1 0 0-0.1l0.6-0.8q0 0 0 0z"/>
		<path id="&lt;Path&gt;" class="s0" d="m30.9 11.3c0 0 0.2 0.4 0.3 0.7 0.2 0.3 0.3 0.6 0.2 1-0.1 0.4-0.3 0.7-0.5 0.8-0.2 0.1-0.7 0.1-1-0.4-0.3 0.8-0.8 0.9-1.2 0.7-0.3-0.1-0.3-0.7-0.3-0.9 0-0.2 0-0.7 0-0.9 0-0.1 0-0.2 0.1-0.3 0.1-0.2 0.1-0.1 0.1 0.1 0 0.1-0.1 0.9 0.1 1.2 0.3 0.5 1 0 1.1-0.2 0.1-0.2-0.2-1.1-0.2-1.1q0-0.1 0-0.1c0-0.1 0-0.3 0.1-0.5q0-0.2 0.1 0c0.1 0.2 0.1 0.4 0.3 1.2 0.1 0.7 0.8 0.6 1 0.5 0.1-0.1 0.1-0.2 0.1-0.3-0.1-0.1-0.4-0.7-0.5-1-0.1-0.2 0-0.4 0.1-0.7 0-0.2 0.1 0 0.1 0.2z"/>
		<path id="&lt;Path&gt;" class="s0" d="m33.2 7.5c0 0.1 0 0.1-0.1 0.3-0.1 0.2-0.2 0.3-0.4 0.4-0.2 0.1-8.4 3.6-9.1 4-0.7 0.4-0.6 0.7-0.4 0.7 0.4 0.2 0.7 0.5 0.4 1.1-0.1 0-0.1 0-0.1 0-0.1-0.1-0.2-0.3-0.5-0.3-0.3-0.1-0.4-0.6-0.3-1.1 0.1-0.4 0.4-0.7 0.6-0.9 0.6-0.4 9.5-4.2 9.7-4.3 0.3-0.2 0.3-0.1 0.2 0.1z"/>
		<path id="&lt;Path&gt;" class="s0" d="m26.8 6.6c0.2 0.2 0.1 0.6 0 0.9 0 0.1-0.2 0-0.3-0.1 0 0-0.1-0.2-0.2-0.2-0.6-0.4-0.7 0.4-0.7 0.8 0 0.3 0 1.2 0 1.8-0.1 0.2-0.2 0.2-0.3 0.1-0.4-1.2-1.1-1.7-1.2-1.8-0.2-0.1-0.2 0.1-0.3 0.2 0 0 0 0-0.1 0-0.1 0-0.5-0.2-0.6-0.3-0.1-0.2-0.1-0.6-0.1-0.8 0-0.3 0.2-0.4 0.3-0.4 1.4 0.7 1.9 2 2 2.2 0-1-0.1-1.9 0.4-2.6 0.4-0.6 1.1 0.1 1.1 0.2z"/>
		<path id="&lt;Path&gt;" class="s0" d="m34.7 6.2c0 0.1 1.2 3.1 1.2 3.3 0.1 0.2 0 0.2-0.1 0.1-0.1-0.1-0.7-0.7-0.7-0.7 0 0 0.8 6.5 0.9 7.4 0.1 0.9 0.3 2.7 0.2 3.4-0.2 1.9-1.7 2.1-2.3 2.2-1.8-0.1-2-1.9-2-1.9 0 0-3.5 2.4-6.2 2.4-4.2 0-4.3-3.1-4.4-3.9-0.2-0.9-0.8-9.7-1.2-11.2 0 0 0.2-0.7 0.2-0.8 0.1 0 0.1-0.5 0.3-0.2 0.6 1.9 1.2 10.7 1.3 11.3 0.1 3.6 3.4 3.6 3.9 3.6 3-0.1 6.2-2.5 6.4-2.6q0.2-0.1 0.2 0.1c0 0.2 0 0.4 0 0.7 0.1 0.7 0.7 1.1 1 1.2 1.3 0.4 2.3-0.7 2.3-0.8 0-0.2-0.1-1.5-0.2-2 0-0.5-1.2-9.5-1.2-9.9-0.1-0.5-0.2-0.7-0.2-0.8 0 0 0.4-0.8 0.5-0.9 0-0.2 0.1-0.1 0.1 0z"/>
		<path id="&lt;Path&gt;" class="s0" d="m37.7 6.2c0.1 0.1 1.3 3.1 1.4 3.2 0 0.2-0.1 0.2-0.2 0.1-0.1-0.1-0.7-0.6-0.7-0.6 0 0 1.1 8 1.1 8.3q0.3 2.3 0.2 3.5c0 1-0.2 1.3-0.3 1.4 0 0.2-0.1 0.1-0.1 0 0-0.6-0.1-1.7-0.3-2.9-0.3-2.4-1.3-10.2-1.5-11.5 0-0.1-0.1-0.5-0.1-0.6 0 0 0.4-0.9 0.4-1 0.1-0.1 0.1 0 0.1 0.1z"/>
		<path id="&lt;Compound Path&gt;" fill-rule="evenodd" class="s0" d="m43.8 8.8c-0.1 0.2-0.1 0.1-0.2-0.1-0.1 0-0.4-0.3-0.4-0.3 0 0-0.5 0.9-1.2 1.4-1.3 1-2.4 1.2-2.5 1.2-0.1 0-0.1-0.1 0.1-0.2 0.8-0.5 1.8-0.8 3.2-2.6 0 0-0.4-0.1-0.7-0.4-0.3-0.2-0.2-1 0-1.3 0.6-0.8 1.1-0.4 1.1-0.3 0.5 0.8 0.3 1.6 0.3 1.6 0.2 0.2 0.5 0.5 0.3 1zm-0.9-2.1c-0.1 0-0.3 0-0.6 0.4 0 0.1 0.1 0.2 0.2 0.3 0.2 0 0.6 0.2 0.6 0.2 0-0.1 0.1-0.6-0.2-0.9z"/>
	</g>
</svg>