<svg width="26" height="26" viewBox="0 0 26 26" fill="none" xmlns="http://www.w3.org/2000/svg">
<g id="search 1" clip-path="url(#clip0_2_26)">
<path id="Vector" d="M10.9208 0C11.2037 0.0407095 11.4879 0.0731498 11.7689 0.122765C14.2509 0.559755 16.3228 1.72697 17.9491 3.65368C19.0992 5.01681 19.8417 6.58985 20.1501 8.34672C20.6046 10.9337 20.1304 13.3514 18.7387 15.5841C18.7075 15.6337 18.6796 15.6852 18.5842 15.8099C18.6707 15.8627 18.7717 15.9009 18.8417 15.9708C20.9015 18.026 22.9544 20.0889 25.0187 22.139C25.4631 22.5804 25.8662 23.0327 25.9997 23.6668V24.2762C25.8624 24.7825 25.6462 25.2361 25.2177 25.5719C24.4961 26.138 23.4395 26.1463 22.7262 25.5719C22.6016 25.4714 22.4833 25.3607 22.3701 25.2475C20.234 23.1122 18.0985 20.9762 15.9642 18.8389C15.8988 18.7734 15.846 18.6958 15.8148 18.6577C15.1733 18.9757 14.5916 19.3046 13.9788 19.5603C12.322 20.2517 10.594 20.4699 8.81512 20.2212C6.19898 19.856 4.03739 18.6475 2.34564 16.6305C1.11417 15.1624 0.370336 13.4596 0.103318 11.5551C-0.202482 9.37463 0.175158 7.30926 1.20827 5.3762C2.21213 3.49783 3.67755 2.06919 5.58038 1.10106C6.73683 0.512685 7.95939 0.152024 9.2538 0.0413456C9.30275 0.036893 9.3498 0.0139939 9.39748 0C9.90545 0 10.4128 0 10.9208 0ZM10.4433 19.288C15.5701 19.1366 19.7584 14.6694 19.2473 9.26713C18.8105 4.65106 14.7175 0.580746 9.26842 1.07053C4.64963 1.48653 0.575687 5.60137 1.07794 11.0482C1.5147 15.7845 5.57975 19.4191 10.4433 19.288ZM18.8118 20.2396C18.8073 20.2345 18.8398 20.2727 18.8754 20.3083C20.3039 21.737 21.7325 23.1656 23.161 24.5936C23.2265 24.6591 23.2952 24.7227 23.3689 24.7794C23.7427 25.0643 24.2475 25.0497 24.608 24.7469C25.109 24.3265 25.1096 23.6859 24.5991 23.1739C23.1731 21.7433 21.7433 20.3159 20.3147 18.8873C20.274 18.8466 20.2289 18.8103 20.234 18.8148C19.7597 19.2899 19.2956 19.7549 18.8112 20.2402L18.8118 20.2396ZM19.4482 18.089C18.9339 17.5725 18.4666 17.1031 18.0686 16.7036C17.6153 17.1565 17.148 17.624 16.689 18.0833C17.0952 18.4878 17.5606 18.9509 18.087 19.475C18.5403 19.0139 19.0044 18.5413 19.4482 18.089Z" fill="#77554C"/>
<path id="Vector_2" d="M18.2812 10.1793C18.2679 14.6618 14.6021 18.3034 10.1245 18.2824C5.65253 18.2614 2.02299 14.6058 2.03634 10.136C2.04969 5.65353 5.71547 2.01194 10.1931 2.03293C14.6651 2.05392 18.2946 5.7095 18.2812 10.1793ZM17.2526 10.4204C17.4071 6.75078 14.576 3.24085 10.4207 3.06275C6.7524 2.905 3.24364 5.7394 3.065 9.89558C2.90733 13.5652 5.74091 17.0751 9.89623 17.2532C13.5646 17.4109 17.0714 14.5765 17.2526 10.4204Z" fill="#77554C"/>
<path id="Vector_3" d="M10.3368 4.06522C12.7018 4.09957 15.0046 5.72795 15.8202 7.90018C15.9417 8.22331 15.8418 8.51018 15.5685 8.62532C15.2798 8.74681 15.0198 8.62277 14.8698 8.27165C14.2613 6.84809 13.2365 5.85771 11.7711 5.36474C11.2974 5.20572 10.7837 5.15165 10.284 5.08868C9.87143 5.03716 9.64256 4.87241 9.654 4.55119C9.66608 4.23251 9.90131 4.0614 10.3235 4.06522C10.3489 4.06522 10.3743 4.06522 10.3368 4.06522Z" fill="#77554C"/>
<path id="Vector_4" d="M15.7331 9.6526C16.0154 9.64688 16.25 9.8765 16.2487 10.1596C16.2481 10.4318 16.0268 10.657 15.7547 10.6627C15.4718 10.6684 15.2379 10.4388 15.2391 10.1557C15.2398 9.8835 15.461 9.65833 15.7331 9.6526Z" fill="#77554C"/>
</g>
<defs>
<clipPath id="clip0_2_26">
<rect width="26" height="26" fill="white"/>
</clipPath>
</defs>
</svg>
