<svg width="46" height="45" viewBox="0 0 46 45" fill="none" xmlns="http://www.w3.org/2000/svg">
<g id="ic_fram 1" clip-path="url(#clip0_2_46)">
<path id="Vector" d="M38.9563 6.89062V18.3164L37.2852 16.6816V8.52539H28.9477L27.2766 6.89062H38.9563ZM18.8313 6.89062L17.1512 8.52539H8.81367V16.6816L7.12461 18.334V6.89062H18.8313ZM7.1336 26.5605L8.82266 28.2129V36.3691H17.1602L18.8492 38.0215H7.1336V26.5605ZM28.9477 36.3691H37.2852V28.2129L38.9563 26.5781V38.0303H27.2586L28.9477 36.3691Z" fill="#77554C"/>
<path id="Vector_2" d="M45.5508 22.4561L37.2852 30.542V28.2305L43.1789 22.4561L37.2852 16.6904V14.3701L45.5508 22.4561ZM31.3105 8.52539H28.9387L23.0539 2.76855L17.1691 8.52539H14.7793L23.0449 0.439453L31.3105 8.52539ZM8.82266 14.3525V16.6904L2.92891 22.4561L8.82266 28.2217V30.5596L0.539062 22.4561L8.82266 14.3525ZM17.1512 36.3691L23.0539 42.1436L28.9566 36.3691H31.3285L23.0449 44.4727L14.7613 36.3691H17.1512Z" fill="#77554C"/>
<path id="Vector_3" d="M40.8969 22.4473L37.2852 25.9805V18.9141L40.8969 22.4473ZM26.6656 8.52539H19.4422L23.0539 4.99219L26.6656 8.52539ZM8.82266 18.9141V25.9805L5.21094 22.4473L8.82266 18.9141ZM26.6656 36.3691L23.0539 39.9023L19.4422 36.3691H26.6656Z" fill="#C39B7B"/>
</g>
<defs>
<clipPath id="clip0_2_46">
<rect width="46" height="45" fill="white"/>
</clipPath>
</defs>
</svg>
