<svg width="378" height="49" viewBox="0 0 378 49" fill="none" xmlns="http://www.w3.org/2000/svg">
<rect x="37" y="2" width="304" height="44" rx="2" fill="#77554B" stroke="white" stroke-width="2"/>
<path d="M38.102 1.26294C38.102 1.26294 34.78 2.52583 34.4277 5.30418C34.4277 5.30418 31.0554 6.11242 30.9547 9.49696C30.9547 9.49696 25.9718 11.9217 26.3745 17.832C26.3745 17.832 23.9081 19.7011 23.9081 23.9949C23.9081 28.3392 26.3745 30.2083 26.3745 30.2083C25.9718 36.1186 30.9547 38.5434 30.9547 38.5434C31.0554 41.9279 34.4277 42.7361 34.4277 42.7361C34.78 45.5145 38.102 47.03 38.102 47.03V1.26294Z" fill="white"/>
<path d="M38.102 44.4537C38.102 44.4537 36.0383 44.3527 35.233 41.3217C35.233 41.3217 32.7667 41.3722 31.9614 37.1795C31.9614 37.1795 27.6327 35.765 27.7837 29.4001C27.7837 29.4001 25.2671 27.5815 25.2671 23.9949C25.2671 20.4588 27.7837 18.6403 27.7837 18.6403C27.6327 12.2753 31.9614 10.8609 31.9614 10.8609C32.7667 6.6176 35.233 6.71863 35.233 6.71863C36.0383 3.6877 38.102 3.58667 38.102 3.58667V44.4537Z" fill="#77554B"/>
<path d="M6.79496 15.8114C7.29829 16.0135 7.49962 16.6197 7.80162 17.1753C8.05328 17.4279 8.25462 17.63 8.40561 17.9331H8.35528C10.0163 19.9537 11.8283 21.7722 12.9859 24.197C12.9859 24.0959 12.5832 24.0959 12.0296 24.0959C12.0296 24.1633 12.0296 24.2138 12.0296 24.2475C12.4322 24.2475 12.8517 24.2643 13.2879 24.298C13.1872 24.9042 13.0362 25.5104 12.7846 26.066C12.4322 26.7733 11.9792 26.9248 11.3753 27.0258C11.1739 27.5815 10.7713 28.0362 10.3183 28.4908C10.2176 28.4908 10.1002 28.5076 9.96593 28.5413C8.85861 30.1073 7.60029 31.5722 6.94596 32.3805C7.85195 32.431 8.40561 32.5825 8.40561 32.5825C8.40561 32.5825 8.25462 31.4207 9.36194 31.6733C10.4693 31.8753 9.81494 32.9362 9.81494 32.9362C11.6773 33.4413 14.4959 35.8155 17.1635 35.8155C20.3848 35.8155 21.5425 32.8856 21.5425 32.8856C21.5425 32.8856 20.4352 32.9362 20.7875 32.0269C21.2405 30.865 21.9955 31.7743 21.9955 31.7743C22.3478 30.663 22.1968 28.7939 22.1968 28.7939C23.6565 28.9959 24.7638 27.7836 24.7638 27.7836C24.2605 27.8846 23.8075 27.3289 24.5625 26.6722C25.5691 25.763 25.8711 26.9248 25.8711 26.9248C28.3878 24.298 29.6461 23.9444 29.6461 23.9444C29.6461 23.9444 28.3878 23.6413 25.8711 21.0145C25.8711 21.0145 25.5691 22.1764 24.5625 21.2671C23.8075 20.6104 24.2605 20.0547 24.7638 20.1557C24.7638 20.1557 23.6565 18.9434 22.1968 19.1454C22.1968 19.1454 22.3478 17.2764 21.9955 16.165C21.9955 16.165 21.2405 17.0743 20.7875 15.9124C20.4352 14.9526 21.5425 15.0537 21.5425 15.0537C21.5425 15.0537 20.3848 12.1238 17.1635 12.1238C14.4959 12.1238 11.6773 14.498 9.81494 15.0032C9.81494 15.0032 10.4693 16.0135 9.36194 16.266C8.25462 16.5186 8.40561 15.3568 8.40561 15.3568C8.40561 15.3568 7.75129 15.5083 6.74463 15.6093C6.74463 15.6767 6.74463 15.7441 6.74463 15.8114C6.74463 15.8114 6.76141 15.8114 6.79496 15.8114Z" fill="#77554B"/>
<path d="M12.0295 24.0959C12.0295 24.1632 12.0295 24.2137 12.0295 24.2474C12.4322 24.2474 12.8516 24.2642 13.2879 24.2979C13.1872 24.9041 13.0362 25.5103 12.7845 26.066C12.4322 26.7732 11.9792 26.9247 11.3752 27.0258C11.2242 27.3794 11.0229 27.733 10.7712 28.0361C16.1568 29.7031 16.1568 36.0175 16.1568 36.0175C18.9755 30.1072 17.9688 27.6825 17.9688 27.6825C21.3915 28.9453 22.9518 25.4598 22.9518 25.4598C25.4684 25.3082 26.2737 24.1969 26.2737 24.1969C25.2168 22.3278 22.9518 22.6814 22.9518 22.6814C20.6868 18.6907 17.8682 20.6103 17.8682 20.6103C18.7238 16.2154 16.1065 11.9216 16.1065 11.9216C16.0058 15.9629 13.5899 18.6907 13.5899 18.6907C12.7845 18.8928 11.5765 19.4989 10.2679 20.2062C11.2745 21.4185 12.2812 22.6814 12.9859 24.1969C12.9859 24.0959 12.5832 24.0959 12.0295 24.0959Z" fill="white"/>
<path d="M11.1739 27.4299C11.2074 27.4636 11.241 27.4805 11.2746 27.4805C14.6972 29.198 14.6972 31.8248 14.6972 31.8248C14.2442 31.7743 13.5899 32.1279 13.8919 32.9361C14.1939 33.6939 15.0999 33.2897 15.0999 33.2897C16.1065 34.4011 15.6535 36.9268 15.6535 36.9268C16.7608 33.2897 15.4522 31.067 15.4522 31.067C15.4522 31.067 16.0058 30.9155 15.8045 30.1578C15.5025 29.2485 14.7979 29.7031 14.7979 29.7031C14.5965 29.0969 13.3885 28.0361 13.3885 28.0361C14.7475 27.9351 14.7475 26.8237 14.7475 26.8237C15.0495 26.8237 15.7542 26.7227 16.6098 26.3691C17.5662 25.965 18.5225 25.1062 18.5225 25.1062C18.5225 25.1062 18.7238 25.6114 19.0258 25.6114C19.3278 25.6114 19.6801 25.4093 19.6298 24.9547C19.5795 24.5506 19.1768 23.8939 18.0695 24.6516C16.3078 25.9145 14.1435 26.167 14.1435 26.167C14.1435 26.167 13.3885 27.632 12.3819 26.6217C12.1302 26.8743 11.7779 26.9753 11.3752 27.0258C11.3081 27.1605 11.241 27.2952 11.1739 27.4299Z" fill="#CD9974"/>
<path d="M10.5196 28.3393C10.6203 28.373 10.7209 28.4067 10.8216 28.4403C14.3449 29.6527 14.6972 31.8249 14.6972 31.8249C14.6972 31.8249 14.8482 29.1476 11.0229 27.6826C10.8551 27.8847 10.6874 28.1036 10.5196 28.3393Z" fill="#CD9974"/>
<path d="M10.5196 20.5094C14.8482 19.0949 14.6972 16.165 14.6972 16.165C14.6972 16.165 14.3449 18.3372 10.8216 19.5496C10.5196 19.6506 10.2511 19.7516 10.0162 19.8527C10.184 20.0547 10.3518 20.2736 10.5196 20.5094Z" fill="#CD9974"/>
<path d="M11.6772 21.9743C11.9121 21.8396 12.147 21.6544 12.3819 21.4187C13.3885 20.3073 14.1435 21.8228 14.1435 21.8228C14.1435 21.8228 16.3078 22.0754 18.0695 23.3382C19.1768 24.096 19.5795 23.4393 19.6298 23.0352C19.6801 22.5805 19.3278 22.3785 19.0258 22.3785C18.7238 22.3785 18.5225 22.8836 18.5225 22.8836C18.5225 22.8836 17.5662 22.0248 16.6098 21.6207C15.7542 21.2671 15.0495 21.1661 14.7475 21.1661C14.7475 21.1661 14.7475 20.0547 13.3885 19.9537C13.3885 19.9537 14.5965 18.8929 14.7979 18.2867C14.7979 18.2867 15.5025 18.7413 15.8045 17.8321C16.0058 17.0743 15.4522 16.9228 15.4522 16.9228C15.4522 16.9228 16.7608 14.7001 15.6535 11.063C15.6535 11.063 16.1065 13.5888 15.0998 14.7001C15.0998 14.7001 14.1939 14.296 13.8919 15.0537C13.5899 15.862 14.2442 16.2156 14.6972 16.1651C14.6972 16.1651 14.6972 18.8424 11.2745 20.5094C11.0732 20.6104 10.8887 20.6946 10.7209 20.762C11.0564 21.1661 11.3752 21.5702 11.6772 21.9743Z" fill="#CD9974"/>
<path d="M13.4389 23.4897C19.0762 21.1155 18.1702 17.5794 18.2205 16.266C18.2709 14.9526 19.6802 14.801 19.6802 14.801C19.6802 14.801 18.7742 15.2051 19.0259 16.6701C19.3782 18.5897 18.2709 20.1051 18.2709 20.1051C18.2709 20.1051 19.7808 18.8928 22.2472 21.0649C22.2472 21.0649 19.6298 19.4484 18.2205 20.8124C17.5662 21.4691 16.2072 23.6412 13.7409 23.9948C16.2072 24.3484 17.5662 26.5206 18.2205 27.1773C19.6298 28.5412 22.2472 26.9247 22.2472 26.9247C19.7808 29.0969 18.2709 27.8845 18.2709 27.8845C18.2709 27.8845 19.3782 29.4 19.0259 31.3196C18.7742 32.7845 19.6802 33.2392 19.6802 33.2392C19.6802 33.2392 18.2709 33.0371 18.2205 31.7237C18.1702 30.4103 19.0762 26.8742 13.4389 24.5V23.4897Z" fill="#CD9974"/>
<path d="M25.6698 23.9949C24.7135 22.7825 22.6498 23.0351 22.6498 23.0351C22.5995 21.267 20.7875 21.2165 20.7875 21.2165C20.7875 21.2165 20.7875 21.7217 20.2338 21.8227C19.6802 21.9237 19.5292 21.6712 19.3782 21.3176C19.2775 21.065 19.4285 20.3073 20.0828 20.3073C20.7372 20.3073 22.6498 20.7114 23.3041 22.3784C23.3041 22.3784 25.5691 22.1258 26.7771 23.9949C25.5691 25.864 23.3041 25.6114 23.3041 25.6114C22.6498 27.3289 20.7372 27.6825 20.0828 27.6825C19.4285 27.6825 19.2775 26.9248 19.3782 26.6217C19.5292 26.3691 19.6802 26.066 20.2338 26.167C20.7875 26.2681 20.7875 26.7732 20.7875 26.7732C20.7875 26.7732 22.5995 26.7227 22.6498 24.9547C22.6498 24.9547 24.7135 25.2073 25.6698 23.9949Z" fill="#CD9974"/>
<path d="M12.5832 23.3887C13.2376 22.9341 13.2879 22.0248 13.2879 22.0248C13.2879 22.0248 12.6839 22.2268 12.0799 22.631C12.2477 22.8667 12.4154 23.1193 12.5832 23.3887Z" fill="#77554B"/>
<path d="M13.2879 24.298C13.2543 24.399 13.2375 24.4832 13.2375 24.5505C13.6402 24.5505 14.1435 24.399 14.6469 23.9949C13.8919 23.2876 13.0362 23.3382 12.6335 23.4392C12.7678 23.6749 12.8852 23.9275 12.9859 24.1969C12.9859 24.0959 12.5832 24.0959 12.0295 24.0959C12.0295 24.1632 12.0295 24.2138 12.0295 24.2474C12.4322 24.2474 12.8516 24.2643 13.2879 24.298Z" fill="#77554B"/>
<path d="M38.102 31.1681C38.0516 31.9763 36.743 35.4619 34.2263 35.4619C31.6594 35.4619 30.8037 33.0877 30.8037 33.0877C30.8037 33.0877 31.6594 34.4011 33.2197 34.4011C34.025 34.4011 34.025 33.6433 34.6793 33.6433C35.3337 33.6433 35.4343 34.4011 35.0317 34.7547C35.0317 34.7547 36.9947 34.2495 37.9006 31.1681H38.102Z" fill="#CD9974"/>
<path d="M38.102 35.3104C38.102 35.3104 35.5854 33.9465 35.7364 31.8248C35.7364 31.8248 32.9177 31.9258 32.9177 30.4609C32.9177 28.9454 35.7867 28.8444 35.233 27.8846C34.7297 27.0258 33.9244 28.1372 32.6157 28.2382C31.0051 28.3393 29.7971 27.3289 29.8977 25.9145C29.8977 25.9145 28.1864 25.6619 27.8844 25.0052C27.4818 24.2475 26.8274 23.9949 26.8274 23.9949C26.8274 23.9949 27.4818 23.6918 27.8844 22.9846C28.1864 22.3279 29.8977 22.0753 29.8977 22.0753C29.7971 20.6609 31.0051 19.6506 32.6157 19.7516C33.9244 19.8527 34.7297 20.964 35.233 20.1052C35.7867 19.1454 32.9177 19.0444 32.9177 17.5795C32.9177 16.064 35.7364 16.165 35.7364 16.165C35.5854 14.0434 38.102 12.6795 38.102 12.6795L37.8503 12.4269C37.8503 12.4269 35.4847 13.3867 35.1827 15.5588C35.1827 15.5588 31.3574 15.3568 32.1124 19.2465C32.1124 19.2465 29.4951 18.9939 29.3944 21.6712C29.3944 21.6712 27.7838 21.9238 27.3308 22.9341C26.8274 23.9444 25.9214 23.9949 25.9214 23.9949C25.9214 23.9949 26.8274 24.0454 27.3308 25.0557C27.7838 26.0661 29.3944 26.3186 29.3944 26.3186C29.4951 28.996 32.1124 28.7434 32.1124 28.7434C31.3574 32.6331 35.1827 32.431 35.1827 32.431C35.4847 34.6032 37.8503 35.563 37.8503 35.563L38.102 35.3104Z" fill="#CD9974"/>
<path d="M38.102 16.8216C38.0516 16.0134 36.743 12.5278 34.2263 12.5278C31.6594 12.5278 30.8037 14.9526 30.8037 14.9526C30.8037 14.9526 31.6594 13.6392 33.2197 13.6392C34.025 13.6392 34.025 14.3464 34.6793 14.3464C35.3337 14.3464 35.4343 13.6392 35.0317 13.235C35.0317 13.235 36.9947 13.7402 37.9006 16.8216H38.102Z" fill="#CD9974"/>
<path d="M32.7164 23.9444C32.6157 25.5103 30.401 25.7629 30.401 25.7629C30.401 24.8536 31.4077 24.5505 31.4077 24.5505C30.099 24.9041 29.3441 23.8433 29.3441 23.8433C29.3441 23.8433 30.099 23.0856 31.4077 23.4897C31.4077 23.4897 30.401 23.1866 30.401 22.2773C30.401 22.2773 32.6157 22.3279 32.7164 23.9444Z" fill="#77554B"/>
<path d="M6.09026 13.5887C6.09026 13.5887 5.73793 15.6094 6.54325 16.5692C6.54325 16.5692 7.29825 16.2156 7.54991 16.8723C7.80158 17.4784 7.24791 17.7815 6.89558 17.731C6.89558 17.731 6.89558 19.9032 9.71423 21.2671C10.5196 21.6712 10.9725 21.8733 10.8215 22.3784C10.6706 22.9341 9.66389 22.8836 8.80823 22.0248C7.95257 21.1155 7.34858 22.3279 7.34858 22.3279C7.34858 22.3279 5.58693 22.5805 4.17761 23.5908C3.27162 24.197 2.91929 23.6413 2.86895 23.3382C2.81862 22.9846 3.12062 22.7826 3.37228 22.7826C3.62395 22.7826 3.77494 23.2372 3.77494 23.2372C3.77494 23.2372 4.58027 22.53 5.33526 22.1764C6.03993 21.8733 6.59359 21.8228 6.84525 21.8228C6.84525 21.8228 6.84525 20.9135 7.95258 20.8125C7.95258 20.8125 6.94592 19.9537 6.79492 19.4991C6.79492 19.4991 6.24126 19.8527 5.98959 19.0949C5.83859 18.4887 6.24126 18.3372 6.24126 18.3372C6.24126 18.3372 5.2346 16.5692 6.09026 13.5887Z" fill="#CD9974"/>
<path d="M11.9792 24.0959C12.2812 24.0454 12.6839 23.9444 12.8852 22.9846C13.1369 21.9743 12.3315 21.267 10.0666 20.5093C7.14726 19.499 6.8956 17.731 6.8956 17.731C6.8956 17.731 6.79493 20.2062 10.4692 21.3176C12.0296 21.8227 12.1302 22.2268 12.1302 22.833C12.1302 23.4897 11.2746 23.9444 10.0666 23.7423V24.5C11.2746 24.298 12.1302 24.7526 12.1302 25.4093C12.1302 26.0155 12.0296 26.4196 10.4692 26.9248C6.79493 28.0361 6.8956 30.5114 6.8956 30.5114C6.8956 30.5114 7.14726 28.7433 10.0666 27.733C12.3315 26.9753 13.1369 26.2681 12.8852 25.2578C12.6839 24.298 12.2812 24.1969 11.9792 24.0959Z" fill="#CD9974"/>
<path d="M6.09026 34.6537C6.09026 34.6537 5.73793 32.633 6.54325 31.6732C6.54325 31.6732 7.29825 32.0269 7.54991 31.4207C7.80158 30.764 7.24791 30.4609 6.89558 30.5114C6.89558 30.5114 6.89558 28.3392 9.71423 26.9753C10.5196 26.5712 10.9725 26.3691 10.8215 25.864C10.6706 25.3083 9.66389 25.3588 8.80823 26.2176C7.95257 27.1269 7.34858 25.9145 7.34858 25.9145C7.34858 25.9145 5.58693 25.6619 4.17761 24.7021C3.27162 24.0454 2.91929 24.6011 2.86895 24.9042C2.81862 25.2578 3.12062 25.4598 3.37228 25.4598C3.62395 25.4598 3.77494 25.0052 3.77494 25.0052C3.77494 25.0052 4.58027 25.7124 5.33526 26.066C6.03993 26.3691 6.59359 26.4196 6.84525 26.4196C6.84525 26.4196 6.84525 27.3289 7.95258 27.4299C7.95258 27.4299 6.94592 28.2887 6.79492 28.7433C6.79492 28.7433 6.24126 28.3897 5.98959 29.1475C5.83859 29.7537 6.24126 29.9052 6.24126 29.9052C6.24126 29.9052 5.2346 31.6732 6.09026 34.6537Z" fill="#CD9974"/>
<path d="M16.3582 24.0959C14.9488 25.6619 12.7342 26.2176 12.7342 26.2176C12.9355 25.965 12.9355 25.3588 12.9355 25.3588C12.9355 25.3588 14.1938 25.2073 15.4522 24.0959C14.1938 23.0351 12.9355 22.8835 12.9355 22.8835C12.9355 22.8835 12.9355 22.2774 12.7342 22.0248C12.7342 22.0248 14.9488 22.5805 16.3582 24.0959Z" fill="#CD9974"/>
<path d="M9.8149 24.096C9.8149 25.2074 8.05325 25.7125 8.05325 25.7125C8.05325 25.7125 8.10358 24.8032 8.80824 24.5001C8.80824 24.5001 7.80158 24.9043 6.94592 24.096C7.85191 23.3888 8.80824 23.7424 8.80824 23.7424C8.10358 23.4393 8.05325 22.53 8.05325 22.53C8.05325 22.53 9.8149 22.9847 9.8149 24.096Z" fill="#77554B"/>
<path d="M9.36194 23.5909C9.36194 22.9847 10.0163 22.9847 10.0163 23.5909V24.9043C10.0163 25.5105 9.36194 25.5105 9.36194 24.9043V23.5909Z" fill="#CD9974"/>
<path d="M33.1191 23.8434C37.2464 25.1063 38.102 28.5413 38.102 28.5413L37.7497 28.5918C37.7497 28.5918 36.6424 25.4599 33.0687 24.2475L33.1191 23.8434Z" fill="#CD9974"/>
<path d="M35.686 25.763L35.1827 25.4094C34.931 27.7331 31.8607 28.2383 31.8607 28.2383C31.8607 28.2383 35.1324 28.4404 35.686 25.763Z" fill="#CD9974"/>
<path d="M33.1191 24.1464C37.2464 22.8835 38.102 19.4485 38.102 19.4485L37.7497 19.3979C37.7497 19.3979 36.6424 22.5299 33.0687 23.7423L33.1191 24.1464Z" fill="#CD9974"/>
<path d="M35.686 22.2268L35.1827 22.5804C34.931 20.2567 31.8607 19.7515 31.8607 19.7515C31.8607 19.7515 35.1324 19.5495 35.686 22.2268Z" fill="#CD9974"/>
<path d="M37.5986 23.8938C37.045 22.631 36.3403 22.2773 36.3403 22.2773L35.988 22.5804C35.988 22.5804 36.6927 22.9846 37.045 23.8938C36.6927 24.8031 35.8873 25.3588 35.8873 25.3588L36.29 25.7124C36.29 25.7124 37.045 25.1567 37.5986 23.8938Z" fill="#CD9974"/>
<path d="M38.102 35.6135C36.3403 36.6238 35.8873 38.7455 35.8873 38.7455C36.8437 38.8465 37.2463 37.7857 37.2463 37.7857C36.9947 38.9981 38.102 40.362 38.102 40.362V35.6135Z" fill="#77554B"/>
<path d="M38.102 28.5413C36.441 28.6423 36.1893 30.8145 36.1893 30.8145C37.0953 30.8145 37.3973 29.8547 37.3973 29.8547C37.045 31.067 38.102 31.8753 38.102 31.8753V28.5413Z" fill="#77554B"/>
<path d="M38.102 12.3764C36.3403 11.3156 35.8873 9.24442 35.8873 9.24442C36.8437 9.14339 37.2463 10.2042 37.2463 10.2042C36.9947 8.99185 38.102 7.62793 38.102 7.62793V12.3764Z" fill="#77554B"/>
<path d="M38.102 19.4485C36.441 19.3475 36.1893 17.1753 36.1893 17.1753C37.0953 17.1753 37.3973 18.1351 37.3973 18.1351C37.045 16.9228 38.102 16.1145 38.102 16.1145V19.4485Z" fill="#77554B"/>
<path d="M33.1694 24.7527C33.1694 25.5104 32.3641 25.5609 32.3641 24.7527V23.1867C32.3641 22.429 33.1694 22.429 33.1694 23.1867V24.7527Z" fill="#CD9974"/>
<path d="M38.102 36.2701H36.9947C36.0887 36.2701 36.139 35.3103 36.9947 35.3103H38.102V36.2701Z" fill="#CD9974"/>
<path d="M38.102 19.8527H37.196C36.3907 19.8527 36.3907 19.0444 37.196 19.0444H38.102V19.8527Z" fill="#CD9974"/>
<path d="M38.102 28.8444H37.196C36.3907 28.8444 36.3907 28.0361 37.196 28.0361H38.102V28.8444Z" fill="#CD9974"/>
<path d="M38.102 11.6692H36.9947C36.0887 11.6692 36.139 12.5785 36.9947 12.5785H38.102V11.6692Z" fill="#CD9974"/>
<path d="M339.747 1.26294C339.747 1.26294 343.069 2.52583 343.421 5.30418C343.421 5.30418 346.743 6.11242 346.844 9.49696C346.844 9.49696 351.827 11.9217 351.475 17.832C351.475 17.832 353.941 19.7011 353.941 23.9949C353.941 28.3392 351.475 30.2083 351.475 30.2083C351.827 36.1186 346.844 38.5434 346.844 38.5434C346.743 41.9279 343.421 42.7361 343.421 42.7361C343.069 45.5145 339.747 47.03 339.747 47.03V1.26294Z" fill="white"/>
<path d="M339.747 44.4537C339.747 44.4537 341.76 44.3527 342.566 41.3217C342.566 41.3217 345.032 41.3722 345.837 37.1795C345.837 37.1795 350.216 35.765 350.015 29.4001C350.015 29.4001 352.582 27.5815 352.582 23.9949C352.582 20.4588 350.015 18.6403 350.015 18.6403C350.216 12.2753 345.837 10.8609 345.837 10.8609C345.032 6.6176 342.566 6.71863 342.566 6.71863C341.76 3.6877 339.747 3.58667 339.747 3.58667V44.4537Z" fill="#77554B"/>
<path d="M351.777 27.3289C351.777 27.3289 352.079 26.167 353.085 27.0763C353.84 27.733 353.387 28.2887 352.884 28.1876C352.884 28.1876 353.991 29.4505 355.451 29.1979C355.451 29.1979 355.3 31.1175 355.652 32.1783C355.652 32.1783 356.407 31.2691 356.86 32.4309C357.212 33.3907 356.105 33.2897 356.105 33.2897C356.105 33.2897 357.263 36.2196 360.484 36.2196C363.152 36.2196 365.97 33.8454 367.833 33.3402C367.833 33.3402 367.178 32.3299 368.286 32.0773C369.393 31.8753 369.242 32.9866 369.242 32.9866C369.242 32.9866 369.997 32.8351 371.205 32.734C371.171 32.6667 371.138 32.5993 371.104 32.532C370.651 31.7237 370.047 30.966 369.393 30.2588C367.732 28.3392 366.021 26.4701 364.46 24.5C364.158 24.5 364.007 24.5 364.007 24.5C364.007 24.4663 364.007 24.4495 364.007 24.4495C364.611 22.6309 366.121 21.267 367.48 20.0546C367.749 19.8189 368.051 19.5832 368.386 19.3474H367.883C368.386 18.6907 368.94 17.933 369.594 17.3773C369.829 17.0405 370.064 16.7206 370.299 16.4175C370.433 16.2828 370.584 16.1313 370.752 15.9629C369.796 15.9124 369.242 15.7608 369.242 15.7608C369.242 15.7608 369.393 16.9227 368.286 16.6701C367.178 16.468 367.833 15.4072 367.833 15.4072C365.97 14.9021 363.152 12.5278 360.484 12.5278C357.263 12.5278 356.105 15.4577 356.105 15.4577C356.105 15.4577 357.212 15.4072 356.86 16.3165C356.407 17.4783 355.652 16.5691 355.652 16.5691C355.3 17.6804 355.451 19.5495 355.451 19.5495C353.991 19.3474 352.884 20.5598 352.884 20.5598C353.387 20.4588 353.84 21.0144 353.085 21.6711C352.079 22.5804 351.777 21.4186 351.777 21.4186C349.26 24.0454 348.002 24.399 348.002 24.399C348.002 24.399 349.26 24.7526 351.777 27.3289Z" fill="#77554B"/>
<path d="M354.696 25.6619C356.961 29.6526 359.779 27.733 359.779 27.733C358.924 32.1279 361.541 36.4217 361.541 36.4217C361.642 32.3804 364.058 29.6526 364.058 29.6526C364.863 29.4506 366.172 28.8444 367.531 28.0866C366.474 26.9248 365.417 25.7124 364.46 24.5C364.158 24.5 364.007 24.5 364.007 24.5C364.007 24.4664 364.007 24.4495 364.007 24.4495C364.561 22.833 365.87 21.5196 367.128 20.4083C361.491 18.8423 361.491 12.3258 361.491 12.3258C358.672 18.2361 359.679 20.6609 359.679 20.6609C356.256 19.398 354.696 22.8835 354.696 22.8835C352.179 23.0351 351.374 24.1464 351.374 24.1464C352.431 26.0155 354.696 25.6619 354.696 25.6619Z" fill="white"/>
<path d="M358.018 23.3887C358.068 23.7928 358.471 24.4495 359.578 23.6918C361.34 22.4289 363.504 22.1763 363.504 22.1763C363.504 22.1763 364.259 20.6608 365.266 21.7722C365.366 21.8395 365.45 21.9069 365.517 21.9742C365.853 21.6038 366.188 21.2502 366.524 20.9134C366.49 20.9134 366.44 20.8966 366.373 20.8629C362.95 19.1959 362.95 16.5186 362.95 16.5186C363.403 16.5691 364.058 16.2155 363.756 15.4072C363.454 14.6495 362.548 15.0536 362.548 15.0536C361.541 13.9423 361.994 11.4165 361.994 11.4165C360.887 15.0536 362.195 17.2763 362.195 17.2763C362.195 17.2763 361.642 17.4278 361.843 18.1856C362.145 19.0949 362.85 18.6402 362.85 18.6402C363.051 19.2464 364.259 20.3072 364.259 20.3072C362.9 20.4083 362.9 21.5196 362.9 21.5196C362.598 21.5196 361.893 21.6206 361.038 21.9742C360.081 22.4289 359.125 23.2371 359.125 23.2371C359.125 23.2371 358.924 22.732 358.622 22.732C358.32 22.732 357.967 22.934 358.018 23.3887Z" fill="#CD9974"/>
<path d="M367.229 27.7836C362.799 29.198 362.95 32.1784 362.95 32.1784C362.95 32.1784 363.303 30.0062 366.826 28.7939C367.195 28.6592 367.531 28.5413 367.833 28.4403C367.631 28.2382 367.43 28.0193 367.229 27.7836Z" fill="#CD9974"/>
<path d="M366.725 20.7113C366.96 20.5093 367.195 20.3072 367.43 20.1052C367.229 20.0378 367.027 19.9704 366.826 19.9031C363.303 18.6907 362.95 16.5186 362.95 16.5186C362.95 16.5186 362.799 19.2969 366.725 20.7113Z" fill="#CD9974"/>
<path d="M358.622 25.965C358.924 25.965 359.125 25.4598 359.125 25.4598C359.125 25.4598 360.081 26.3186 361.038 26.7227C361.893 27.0763 362.598 27.1774 362.9 27.1774C362.9 27.1774 362.9 28.2887 364.259 28.3897C364.259 28.3897 363.051 29.4506 362.85 30.0568C362.85 30.0568 362.145 29.6021 361.843 30.5114C361.642 31.2691 362.195 31.4207 362.195 31.4207C362.195 31.4207 360.887 33.6434 361.994 37.2805C361.994 37.2805 361.541 34.7547 362.548 33.6434C362.548 33.6434 363.454 34.0475 363.756 33.2897C364.058 32.4815 363.403 32.1279 362.95 32.1784C362.95 32.1784 362.95 29.5516 366.373 27.8341C366.608 27.733 366.826 27.632 367.027 27.531C366.692 27.1605 366.356 26.7733 366.021 26.3691C365.786 26.5038 365.534 26.6891 365.266 26.9248C364.259 28.0361 363.504 26.5207 363.504 26.5207C363.504 26.5207 361.34 26.2681 359.578 25.0557C358.471 24.2475 358.068 24.9042 358.018 25.3083C357.967 25.7629 358.32 25.965 358.622 25.965Z" fill="#CD9974"/>
<path d="M355.401 21.4187C355.401 21.4187 358.018 19.8022 359.427 21.1661C360.081 21.8228 361.44 23.995 363.907 24.3486C361.44 24.7022 360.081 26.8744 359.427 27.5311C358.018 28.895 355.401 27.2785 355.401 27.2785C357.867 29.4506 359.377 28.2383 359.377 28.2383C359.377 28.2383 358.269 29.7537 358.622 31.6733C358.873 33.1383 357.968 33.5929 357.968 33.5929C357.968 33.5929 359.377 33.3908 359.427 32.0774C359.477 30.764 358.571 27.228 364.209 24.8537V24.5001C364.075 24.5001 364.007 24.5001 364.007 24.5001C364.007 24.5001 364.007 24.4833 364.007 24.4496C364.075 24.2812 364.142 24.1297 364.209 23.995V23.8434C358.571 21.4692 359.477 17.9331 359.427 16.6197C359.377 15.3063 357.968 15.1042 357.968 15.1042C357.968 15.1042 358.873 15.5589 358.622 17.0238C358.269 18.9434 359.377 20.4589 359.377 20.4589C359.377 20.4589 357.867 19.2465 355.401 21.4187Z" fill="#CD9974"/>
<path d="M351.978 24.3485C352.934 25.5609 354.998 25.3083 354.998 25.3083C355.048 27.0764 356.86 27.1269 356.86 27.1269C356.86 27.1269 356.86 26.6217 357.414 26.5207C357.968 26.4197 358.119 26.7227 358.27 27.0258C358.37 27.2784 358.219 28.0361 357.565 28.0361C356.911 28.0361 354.998 27.6825 354.344 25.965C354.344 25.965 352.079 26.2176 350.871 24.3485C352.079 22.4794 354.344 22.732 354.344 22.732C354.998 21.065 356.911 20.6609 357.565 20.6609C358.219 20.6609 358.37 21.4186 358.27 21.7217C358.119 21.9743 357.968 22.2774 357.414 22.1764C356.86 22.0753 356.86 21.5702 356.86 21.5702C356.86 21.5702 355.048 21.6207 354.998 23.3887C354.998 23.3887 352.934 23.1361 351.978 24.3485Z" fill="#CD9974"/>
<path d="M365.518 25.7629C365.316 25.5608 365.115 25.3419 364.914 25.1062C364.41 25.5608 364.36 26.3186 364.36 26.3186C364.36 26.3186 364.964 26.1165 365.518 25.7629Z" fill="#77554B"/>
<path d="M364.008 24.5001C364.008 24.4664 364.008 24.4495 364.008 24.4495C364.108 24.2138 364.192 23.9949 364.259 23.7928C363.907 23.8434 363.454 23.9949 363.001 24.3485C363.605 24.9547 364.309 25.0052 364.813 24.9547C364.679 24.7863 364.561 24.6348 364.46 24.5001C364.158 24.5001 364.008 24.5001 364.008 24.5001Z" fill="#77554B"/>
<path d="M339.747 35.7651C339.747 35.7651 342.264 34.3506 342.113 32.229C342.113 32.229 344.881 32.33 344.881 30.8651C344.881 29.3496 342.012 29.2486 342.566 28.2888C343.069 27.43 343.925 28.5414 345.183 28.6424C346.844 28.7434 348.052 27.7331 347.901 26.3187C347.901 26.3187 349.612 26.0661 349.965 25.4094C350.367 24.7022 350.971 24.3991 350.971 24.3991C350.971 24.3991 350.367 24.1465 349.965 23.3888C349.612 22.7321 347.901 22.53 347.901 22.53C348.052 21.0651 346.844 20.0548 345.183 20.2063C343.925 20.2568 343.069 21.3682 342.566 20.5599C342.012 19.5496 344.881 19.4486 344.881 17.9836C344.881 16.4682 342.113 16.6197 342.113 16.6197C342.264 14.4476 339.747 13.0836 339.747 13.0836L339.948 12.8311C339.948 12.8311 342.314 13.7908 342.666 16.0135C342.666 16.0135 346.441 15.761 345.737 19.6506C345.737 19.6506 348.354 19.3981 348.455 22.0754C348.455 22.0754 350.015 22.328 350.518 23.3383C350.971 24.3486 351.928 24.3991 351.928 24.3991C351.928 24.3991 350.971 24.4496 350.518 25.4599C350.015 26.4702 348.455 26.7228 348.455 26.7228C348.354 29.4001 345.737 29.1981 345.737 29.1981C346.441 33.0372 342.666 32.8352 342.666 32.8352C342.314 35.0073 339.948 36.0177 339.948 36.0177L339.747 35.7651Z" fill="#CD9974"/>
<path d="M371.255 34.8052C371.255 34.8052 371.608 32.7341 370.802 31.8248C370.802 31.8248 370.098 32.1279 369.846 31.5217C369.594 30.865 370.148 30.6124 370.45 30.663C370.45 30.663 370.5 28.4403 367.682 27.0764C366.876 26.7228 366.423 26.5207 366.574 25.965C366.725 25.4094 367.732 25.4599 368.588 26.3691C369.443 27.2279 370.047 26.0155 370.047 26.0155C370.047 26.0155 371.809 25.8135 373.218 24.8032C374.124 24.1465 374.477 24.7021 374.527 25.0557C374.577 25.3588 374.275 25.5609 374.024 25.5609C373.772 25.5609 373.621 25.1568 373.621 25.1568C373.621 25.1568 372.816 25.8135 372.061 26.1671C371.356 26.4702 370.752 26.5207 370.5 26.5712C370.5 26.5712 370.5 27.4805 369.443 27.531C369.443 27.531 370.4 28.3898 370.551 28.8949C370.551 28.8949 371.155 28.5413 371.356 29.299C371.557 29.9052 371.104 30.0063 371.104 30.0063C371.104 30.0063 372.161 31.8248 371.255 34.8052Z" fill="#CD9974"/>
<path d="M365.417 24.2475C365.115 24.3485 364.712 24.4496 364.46 25.3588C364.259 26.4197 365.014 27.0764 367.329 27.8846C370.198 28.8444 370.45 30.663 370.45 30.663C370.45 30.663 370.601 28.1372 366.927 27.0258C365.316 26.5712 365.215 26.1671 365.215 25.5104C365.215 24.9042 366.071 24.399 367.329 24.6011V23.8939C366.071 24.0959 365.215 23.5908 365.215 22.9846C365.215 22.3279 365.316 21.9238 366.927 21.4691C370.601 20.3073 370.45 17.832 370.45 17.832C370.45 17.832 370.198 19.6506 367.329 20.6104C365.014 21.4186 364.259 22.0753 364.46 23.0856C364.712 24.0454 365.115 24.1465 365.417 24.2475Z" fill="#CD9974"/>
<path d="M371.255 13.6897C371.255 13.6897 371.608 15.7608 370.802 16.6701C370.802 16.6701 370.098 16.3165 369.846 16.9732C369.594 17.5794 370.148 17.8825 370.45 17.832C370.45 17.832 370.5 20.0041 367.682 21.4186C366.876 21.7722 366.423 21.9742 366.574 22.5299C366.725 23.0351 367.732 22.9845 368.588 22.1258C369.443 21.267 370.047 22.4794 370.047 22.4794C370.047 22.4794 371.809 22.6814 373.218 23.6918C374.124 24.3485 374.477 23.7928 374.527 23.4392C374.577 23.0856 374.275 22.934 374.024 22.934C373.772 22.934 373.621 23.3382 373.621 23.3382C373.621 23.3382 372.816 22.6309 372.061 22.3278C371.356 22.0247 370.752 21.9237 370.5 21.9237C370.5 21.9237 370.5 21.0144 369.443 20.9639C369.443 20.9639 370.4 20.1052 370.551 19.6C370.551 19.6 371.155 19.9536 371.356 19.1959C371.557 18.5897 371.104 18.4887 371.104 18.4887C371.104 18.4887 372.161 16.6701 371.255 13.6897Z" fill="#CD9974"/>
<path d="M361.038 24.2474C362.447 22.6814 364.611 22.1763 364.611 22.1763C364.41 22.4288 364.41 22.9845 364.41 22.9845C364.41 22.9845 363.202 23.1866 361.944 24.2474C363.202 25.3082 364.41 25.5103 364.41 25.5103C364.41 25.5103 364.41 26.066 364.611 26.3185C364.611 26.3185 362.447 25.8134 361.038 24.2474Z" fill="#CD9974"/>
<path d="M367.581 24.2475C367.581 23.1867 369.343 22.631 369.343 22.631C369.343 22.631 369.242 23.5403 368.588 23.8434C368.588 23.8434 369.594 23.4392 370.45 24.2475C369.544 24.9547 368.588 24.6516 368.588 24.6516C369.242 24.9547 369.343 25.8135 369.343 25.8135C369.343 25.8135 367.581 25.3588 367.581 24.2475Z" fill="#77554B"/>
<path d="M368.034 24.7526C368.034 25.3588 367.329 25.3588 367.329 24.7526V23.4898C367.329 22.8331 368.034 22.8836 368.034 23.4898V24.7526Z" fill="#CD9974"/>
<path d="M339.747 31.5723C339.797 32.431 341.056 35.8661 343.623 35.8661C346.139 35.8661 346.995 33.4919 346.995 33.4919C346.995 33.4919 346.139 34.8053 344.579 34.8053C343.824 34.8053 343.824 34.098 343.119 34.098C342.465 34.098 342.415 34.8053 342.767 35.1589C342.767 35.1589 340.854 34.6537 339.948 31.5723H339.747Z" fill="#CD9974"/>
<path d="M344.73 24.298C340.603 25.5609 339.747 28.9454 339.747 28.9454L340.099 28.9959C340.099 28.9959 341.207 25.9145 344.78 24.6516L344.73 24.298Z" fill="#CD9974"/>
<path d="M342.163 26.2176L342.616 25.8135C342.868 28.1372 345.988 28.6423 345.988 28.6423C345.988 28.6423 342.717 28.8444 342.163 26.2176Z" fill="#CD9974"/>
<path d="M339.747 17.2763C339.797 16.4176 341.056 12.932 343.623 12.932C346.139 12.932 346.995 15.3567 346.995 15.3567C346.995 15.3567 346.139 14.0433 344.579 14.0433C343.824 14.0433 343.824 14.7506 343.119 14.7506C342.465 14.7506 342.415 14.0433 342.767 13.6897C342.767 13.6897 340.854 14.1444 339.948 17.2763H339.747Z" fill="#CD9974"/>
<path d="M344.73 24.5506C340.603 23.2877 339.747 19.8526 339.747 19.8526L340.099 19.8021C340.099 19.8021 341.207 22.9341 344.78 24.197L344.73 24.5506Z" fill="#CD9974"/>
<path d="M342.163 22.6311L342.616 23.0352C342.868 20.661 345.988 20.2063 345.988 20.2063C345.988 20.2063 342.717 19.9537 342.163 22.6311Z" fill="#CD9974"/>
<path d="M340.2 24.298C340.804 23.0351 341.458 22.6815 341.458 22.6815L341.811 22.9846C341.811 22.9846 341.106 23.3887 340.754 24.298C341.106 25.2073 341.962 25.763 341.962 25.763L341.559 26.1166C341.559 26.1166 340.804 25.5609 340.2 24.298Z" fill="#CD9974"/>
<path d="M339.747 36.0681C341.458 37.0784 341.962 39.2001 341.962 39.2001C341.005 39.3011 340.552 38.1898 340.552 38.1898C340.854 39.4021 339.747 40.7661 339.747 40.7661V36.0681Z" fill="#77554B"/>
<path d="M339.747 28.9454C341.358 29.0465 341.609 31.2186 341.609 31.2186C340.703 31.2186 340.401 30.2588 340.401 30.2588C340.804 31.5217 339.747 32.2795 339.747 32.2795V28.9454Z" fill="#77554B"/>
<path d="M345.082 24.3485C345.233 25.965 347.398 26.1671 347.398 26.1671C347.398 25.2578 346.441 24.9547 346.441 24.9547C347.7 25.3083 348.505 24.298 348.505 24.298C348.505 24.298 347.7 23.5403 346.441 23.8939C346.441 23.8939 347.398 23.5908 347.398 22.6815C347.398 22.6815 345.233 22.732 345.082 24.3485Z" fill="#77554B"/>
<path d="M339.747 12.7805C341.458 11.7701 341.962 9.6485 341.962 9.6485C341.005 9.54747 340.552 10.6588 340.552 10.6588C340.854 9.39592 339.747 8.08252 339.747 8.08252V12.7805Z" fill="#77554B"/>
<path d="M339.747 19.9031C341.358 19.7515 341.609 17.6299 341.609 17.6299C340.703 17.6299 340.401 18.5897 340.401 18.5897C340.804 17.3268 339.747 16.5186 339.747 16.5186V19.9031Z" fill="#77554B"/>
<path d="M344.68 25.2073C344.68 25.965 345.485 25.965 345.485 25.2073V23.6413C345.485 22.8836 344.68 22.8836 344.68 23.6413V25.2073Z" fill="#CD9974"/>
<path d="M339.747 36.7248H340.804C341.76 36.7248 341.71 35.765 340.804 35.765H339.747V36.7248Z" fill="#CD9974"/>
<path d="M339.747 20.3073H340.653C341.408 20.3073 341.458 19.499 340.653 19.499H339.747V20.3073Z" fill="#CD9974"/>
<path d="M339.747 29.299H340.653C341.408 29.299 341.458 28.4907 340.653 28.4907H339.747V29.299Z" fill="#CD9974"/>
<path d="M339.747 12.1238H340.804C341.76 12.1238 341.71 13.0331 340.804 13.0331H339.747V12.1238Z" fill="#CD9974"/>
<path d="M95 23.5L110.5 5H270.5L284 23.5L269.5 43H111L95 23.5Z" fill="white"/>
<path d="M84.6096 45.8034C86.9753 45.6551 96.7398 42.0459 96.7398 34.9759C96.7398 27.9059 89.9952 25.5822 89.9952 25.5822C89.9952 25.5822 93.7199 27.9059 93.7199 32.3061C93.7199 34.4815 91.7066 34.4815 91.7066 36.3108C91.7066 38.1895 93.7199 38.3378 94.7265 37.349C94.7265 37.349 93.3675 42.6886 84.6096 45.2595V45.8034Z" fill="white"/>
<path d="M64 31.5065C67.4699 44.2887 76.8045 47 76.8045 47L77 45.8933C77 45.8933 68.4474 42.4073 65.0263 31.3405L64 31.5065Z" fill="white"/>
<path d="M69.4594 39.0299L68.3521 37.7444C74.9457 37.0523 76.355 28.4001 76.355 28.4001C76.355 28.4001 76.959 37.4972 69.4594 39.0299Z" fill="white"/>
<path d="M96.3875 45.8034C96.3875 45.8034 92.5119 38.7828 86.4719 39.1783C86.4719 39.1783 86.8243 31.4656 82.5963 31.4656C78.3683 31.4656 78.1167 39.4255 75.3484 37.8434C72.9827 36.5085 76.1033 34.1354 76.355 30.6251C76.7073 26.0766 73.8384 22.7146 69.8117 23.0607C69.8117 23.0607 69.1071 18.2649 67.2448 17.3256C65.1811 16.2379 64.4261 14.458 64.4261 14.458C64.4261 14.458 63.6208 16.2379 61.5571 17.3256C59.7452 18.2649 59.0405 23.0607 59.0405 23.0607C55.0139 22.7146 52.1449 26.0766 52.4972 30.6251C52.7489 34.1354 55.8695 36.5085 53.5039 37.8434C50.6852 39.4255 50.4839 31.4656 46.2559 31.4656C42.028 31.4656 42.3803 39.1783 42.3803 39.1783C36.29 38.7828 32.4144 45.8034 32.4144 45.8034L31.7601 45.1607C31.7601 45.1607 34.5284 38.585 40.669 37.6457C40.669 37.6457 40.0147 27.0654 50.9369 29.0924C50.9369 29.0924 50.2826 21.8741 57.8828 21.528C57.8828 21.528 58.5372 17.1278 61.4061 15.7929C64.2751 14.458 64.4261 11.9365 64.4261 11.9365C64.4261 11.9365 64.5771 14.458 67.4461 15.7929C70.2647 17.1278 70.9694 21.528 70.9694 21.528C78.5697 21.8741 77.865 29.0924 77.865 29.0924C88.8376 27.0654 88.1329 37.6457 88.1329 37.6457C94.3239 38.585 97.0922 45.1607 97.0922 45.1607L96.3875 45.8034Z" fill="white"/>
<path d="M65 31.5065C61.3019 44.2887 51.1585 47 51.1585 47L51 45.8933C51 45.8933 60.2453 42.4073 63.9434 31.3405L65 31.5065Z" fill="white"/>
<path d="M59.3928 39.0299L60.4498 37.7444C53.9065 37.0523 52.4972 28.4001 52.4972 28.4001C52.4972 28.4001 51.8429 37.4972 59.3928 39.0299Z" fill="white"/>
<path d="M64.0738 44.4685C60.5505 42.8369 59.4935 40.9582 59.4935 40.9582L60.3995 39.9199C60.3995 39.9199 61.5571 41.8976 64.0738 42.8864C66.6407 41.8976 68.2514 39.6727 68.2514 39.6727L69.3084 40.711C69.3084 40.711 67.6474 42.8369 64.0738 44.4685Z" fill="white"/>
<path d="M65 15.5252C61.2632 3.49004 51.2105 1 51.2105 1L51 1.98564C51 1.98564 60.2105 5.30569 63.8947 15.6809L65 15.5252Z" fill="white"/>
<path d="M59.3928 8.27783L60.5001 9.56329C53.9065 10.2555 52.4972 18.8581 52.4972 18.8581C52.4972 18.8581 51.8932 9.76105 59.3928 8.27783Z" fill="white"/>
<path d="M32.4647 1.50452C32.4647 1.50452 36.3404 8.47565 42.3803 8.12957C42.3803 8.12957 42.028 15.8423 46.2559 15.8423C50.4839 15.8423 50.7356 7.88236 53.5039 9.46446C55.8695 10.7994 52.7489 13.1725 52.4972 16.6828C52.1449 21.2313 55.0139 24.5933 59.0405 24.2472C59.0405 24.2472 59.7452 28.9935 61.6075 29.9823C63.6711 31.0206 64.4261 32.8005 64.4261 32.8005C64.4261 32.8005 65.2314 31.0206 67.2951 29.9823C69.1071 28.9935 69.8117 24.2472 69.8117 24.2472C73.8384 24.5933 76.7073 21.2313 76.355 16.6828C76.1033 13.1725 72.9827 10.7994 75.3484 9.46446C78.1167 7.88236 78.3683 15.8423 82.5963 15.8423C86.8243 15.8423 86.4719 8.12957 86.4719 8.12957C92.5622 8.47565 96.4378 1.50452 96.4378 1.50452L97.0922 2.14725C97.0922 2.14725 94.3239 8.72285 88.1832 9.61279C88.1832 9.61279 88.8376 20.1931 77.9153 18.2155C77.9153 18.2155 78.5697 25.4338 70.9694 25.7799C70.9694 25.7799 70.3151 30.1307 67.4461 31.4656C64.5771 32.8005 64.4261 35.3219 64.4261 35.3219C64.4261 35.3219 64.2751 32.8005 61.4061 31.4656C58.5875 30.1307 57.8828 25.7799 57.8828 25.7799C50.2826 25.4338 50.9872 18.2155 50.9872 18.2155C40.0147 20.1931 40.7193 9.61279 40.7193 9.61279C34.5284 8.72285 31.7601 2.14725 31.7601 2.14725L32.4647 1.50452Z" fill="white"/>
<path d="M84.6096 1.50452C86.9753 1.65284 96.7398 5.26201 96.7398 12.332C96.7398 19.3526 89.9952 21.7258 89.9952 21.7258C89.9952 21.7258 93.7199 19.3526 93.7199 15.0018C93.7199 12.8264 91.7066 12.8264 91.7066 10.9477C91.7066 9.11838 93.7199 8.97006 94.7265 9.95887C94.7265 9.95887 93.4179 4.56984 84.6096 2.04836V1.50452Z" fill="white"/>
<path d="M64 15.5252C67.434 3.49004 76.8528 1 76.8528 1L77 1.98564C77 1.98564 68.4151 5.30569 64.9811 15.6809L64 15.5252Z" fill="white"/>
<path d="M69.4594 8.27783L68.4024 9.56329C74.9457 10.2555 76.355 18.8581 76.355 18.8581C76.355 18.8581 77.0093 9.76105 69.4594 8.27783Z" fill="white"/>
<path d="M64.7784 2.83936C68.3017 4.4709 69.3587 6.34964 69.3587 6.34964L68.4527 7.33846C68.4527 7.33846 67.2951 5.36083 64.7784 4.37202C62.2115 5.36083 60.6008 7.6351 60.6008 7.6351L59.5438 6.59685C59.5438 6.59685 61.2048 4.4709 64.7784 2.83936Z" fill="white"/>
<path d="M93.8205 8.82178C93.8205 8.82178 93.3675 11.6893 94.4748 12.9748C94.4748 12.9748 95.5318 12.4804 95.8842 13.3703C96.2868 14.2603 95.4815 14.6558 94.9782 14.6063C94.9782 14.6063 94.9278 17.6222 98.9545 19.5504C100.112 20.0942 100.716 20.3415 100.515 21.1325C100.313 21.8741 98.9041 21.7752 97.6961 20.5887C96.4882 19.3526 95.6325 21.0336 95.6325 21.0336C95.6325 21.0336 93.0655 21.3797 91.0522 22.764C89.7939 23.654 89.2905 22.8629 89.2402 22.418C89.1395 21.9236 89.5925 21.6764 89.9449 21.6764C90.2972 21.6764 90.4985 22.2696 90.4985 22.2696C90.4985 22.2696 91.6562 21.2808 92.7132 20.8359C93.7198 20.3909 94.5755 20.292 94.9278 20.292C94.9278 20.292 94.9278 19.0066 96.4378 18.9077C96.4378 18.9077 95.0285 17.7211 94.8272 17.0289C94.8272 17.0289 94.0218 17.5233 93.7198 16.4851C93.4682 15.6446 94.0722 15.4963 94.0722 15.4963C94.0722 15.4963 92.5622 12.9748 93.8205 8.82178Z" fill="#CD9974"/>
<path d="M102.176 23.5055C102.629 23.3572 103.182 23.2583 103.484 21.9234C103.837 20.4896 102.729 19.5503 99.4578 18.4626C95.3305 17.1277 94.9781 14.6062 94.9781 14.6062C94.9781 14.6062 94.7768 18.067 100.011 19.5997C102.276 20.2919 102.427 20.8357 102.427 21.7257C102.427 22.6156 101.219 23.3078 99.4578 23.0111V23.9999C101.219 23.7527 102.427 24.3955 102.427 25.2854C102.427 26.1753 102.276 26.7192 100.011 27.4113C94.7768 28.9934 94.9781 32.4048 94.9781 32.4048C94.9781 32.4048 95.3305 29.9328 99.4578 28.5485C102.729 27.4608 103.837 26.5214 103.484 25.0876C103.182 23.7527 102.629 23.6538 102.176 23.5055Z" fill="#CD9974"/>
<path d="M93.8205 38.1894C93.8205 38.1894 93.3675 35.3219 94.4748 34.0364C94.4748 34.0364 95.5318 34.5308 95.8842 33.6409C96.2868 32.751 95.4815 32.3554 94.9782 32.4049C94.9782 32.4049 94.9278 29.389 98.9545 27.4608C100.112 26.917 100.716 26.6698 100.515 25.9282C100.313 25.1866 98.9041 25.236 97.6961 26.472C96.4882 27.6586 95.6325 25.9776 95.6325 25.9776C95.6325 25.9776 93.0655 25.681 91.0522 24.2966C89.7939 23.4067 89.2905 24.1483 89.2402 24.6427C89.1395 25.0877 89.5925 25.3843 89.9449 25.3843C90.2972 25.3843 90.4985 24.7416 90.4985 24.7416C90.4985 24.7416 91.6562 25.7304 92.7132 26.1754C93.7198 26.6203 94.5755 26.7192 94.9278 26.7192C94.9278 26.7192 94.9278 28.0047 96.4378 28.1035C96.4378 28.1035 95.0285 29.2901 94.8272 29.9823C94.8272 29.9823 94.0218 29.4879 93.7198 30.5261C93.4682 31.3666 94.0722 31.5644 94.0722 31.5644C94.0722 31.5644 92.5622 34.0364 93.8205 38.1894Z" fill="#CD9974"/>
<path d="M108.417 23.5056C106.404 25.681 103.283 26.4226 103.283 26.4226C103.585 26.0765 103.585 25.236 103.585 25.236C103.585 25.236 105.347 24.9888 107.108 23.5056C105.347 22.0224 103.585 21.7752 103.585 21.7752C103.585 21.7752 103.585 20.9841 103.283 20.6381C103.283 20.6381 106.404 21.3302 108.417 23.5056Z" fill="#CD9974"/>
<path d="M99.1055 23.5056C99.1055 24.9888 96.5888 25.7304 96.5888 25.7304C96.5888 25.7304 96.6895 24.4944 97.6961 24.0494C97.6961 24.0494 96.2365 24.6427 95.0285 23.5056C96.2868 22.4673 97.6961 22.9617 97.6961 22.9617C96.6895 22.5662 96.5888 21.2808 96.5888 21.2808C96.5888 21.2808 99.1055 21.9235 99.1055 23.5056Z" fill="#77554B"/>
<path d="M98.5015 22.8133C98.5015 21.9729 99.4075 21.9234 99.4075 22.8133V24.5932C99.4075 25.4831 98.5015 25.4337 98.5015 24.5932V22.8133Z" fill="#CD9974"/>
<path d="M313.863 31.5065C317.614 44.2887 327.705 47 327.705 47L327.863 45.8933C327.863 45.8933 318.671 42.4073 314.973 31.3405L313.863 31.5065Z" fill="white"/>
<path d="M319.427 39.0299L318.37 37.7444C324.913 37.0523 326.373 28.4001 326.373 28.4001C326.373 28.4001 326.977 37.4972 319.427 39.0299Z" fill="white"/>
<path d="M346.405 45.8034C346.405 45.8034 342.53 38.7828 336.49 39.1783C336.49 39.1783 336.792 31.4656 332.614 31.4656C328.386 31.4656 328.135 39.4255 325.366 37.8434C323.001 36.5085 326.121 34.1354 326.373 30.6251C326.725 26.0766 323.856 22.7146 319.779 23.0607C319.779 23.0607 319.125 18.2649 317.263 17.3256C315.199 16.2379 314.394 14.458 314.394 14.458C314.394 14.458 313.639 16.2379 311.575 17.3256C309.763 18.2649 309.058 23.0607 309.058 23.0607C305.032 22.7146 302.163 26.0766 302.515 30.6251C302.767 34.1354 305.837 36.5085 303.471 37.8434C300.703 39.4255 300.451 31.4656 296.274 31.4656C292.046 31.4656 292.398 39.1783 292.398 39.1783C286.308 38.7828 282.432 45.8034 282.432 45.8034L281.778 45.1607C281.778 45.1607 284.496 38.585 290.687 37.6457C290.687 37.6457 290.033 27.0654 300.955 29.0924C300.955 29.0924 300.3 21.8741 307.901 21.528C307.901 21.528 308.555 17.1278 311.424 15.7929C314.293 14.458 314.394 11.9365 314.394 11.9365C314.394 11.9365 314.545 14.458 317.464 15.7929C320.283 17.1278 320.987 21.528 320.987 21.528C328.537 21.8741 327.883 29.0924 327.883 29.0924C338.805 27.0654 338.151 37.6457 338.151 37.6457C344.342 38.585 347.11 45.1607 347.11 45.1607L346.405 45.8034Z" fill="white"/>
<path d="M294.21 45.8034C291.895 45.6551 282.08 42.0459 282.08 34.9759C282.08 27.9059 288.825 25.5822 288.825 25.5822C288.825 25.5822 285.15 27.9059 285.15 32.3061C285.15 34.4815 287.164 34.4815 287.164 36.3108C287.164 38.1895 285.15 38.3378 284.144 37.349C284.144 37.349 285.452 42.6886 294.21 45.2595V45.8034Z" fill="white"/>
<path d="M314.863 31.5065C311.429 44.2887 302.011 47 302.011 47L301.863 45.8933C301.863 45.8933 310.399 42.4073 313.882 31.3405L314.863 31.5065Z" fill="white"/>
<path d="M309.411 39.0299L310.468 37.7444C303.924 37.0523 302.515 28.4001 302.515 28.4001C302.515 28.4001 301.861 37.4972 309.411 39.0299Z" fill="white"/>
<path d="M314.092 44.4685C310.568 42.8369 309.511 40.9582 309.511 40.9582L310.367 39.9199C310.367 39.9199 311.575 41.8976 314.092 42.8864C316.659 41.8976 318.219 39.6727 318.219 39.6727L319.276 40.711C319.276 40.711 317.615 42.8369 314.092 44.4685Z" fill="white"/>
<path d="M294.26 1.50439C291.895 1.65272 282.13 5.26188 282.13 12.3319C282.13 19.3525 288.875 21.7256 288.875 21.7256C288.875 21.7256 285.15 19.3525 285.15 15.0017C285.15 12.8263 287.164 12.8263 287.164 10.9476C287.164 9.11826 285.15 8.96994 284.144 9.95875C284.144 9.95875 285.503 4.56972 294.26 2.04824V1.50439Z" fill="white"/>
<path d="M314.863 15.5252C311.429 3.49004 302.06 1 302.06 1L301.863 1.98564C301.863 1.98564 310.448 5.30569 313.882 15.6809L314.863 15.5252Z" fill="white"/>
<path d="M309.411 8.27783L310.468 9.56329C303.924 10.2555 302.515 18.8581 302.515 18.8581C302.515 18.8581 301.861 9.76105 309.411 8.27783Z" fill="white"/>
<path d="M282.432 1.50439C282.432 1.50439 286.358 8.47553 292.398 8.12944C292.398 8.12944 292.046 15.8422 296.274 15.8422C300.451 15.8422 300.753 7.88224 303.522 9.46434C305.887 10.7992 302.767 13.1724 302.515 16.6827C302.163 21.2312 305.032 24.5932 309.058 24.2471C309.058 24.2471 309.763 28.9934 311.575 29.9822C313.639 31.0205 314.444 32.8003 314.444 32.8003C314.444 32.8003 315.249 31.0205 317.263 29.9822C319.125 28.9934 319.83 24.2471 319.83 24.2471C323.856 24.5932 326.725 21.2312 326.373 16.6827C326.121 13.1724 323.001 10.7992 325.366 9.46434C328.135 7.88224 328.386 15.8422 332.614 15.8422C336.842 15.8422 336.49 8.12944 336.49 8.12944C342.53 8.47553 346.456 1.50439 346.456 1.50439L347.11 2.14712C347.11 2.14712 344.342 8.72273 338.151 9.61266C338.151 9.61266 338.855 20.193 327.883 18.2153C327.883 18.2153 328.537 25.4337 320.987 25.7798C320.987 25.7798 320.333 30.1305 317.464 31.4654C314.595 32.8003 314.444 35.3218 314.444 35.3218C314.444 35.3218 314.293 32.8003 311.424 31.4654C308.555 30.1305 307.901 25.7798 307.901 25.7798C300.3 25.4337 301.005 18.2153 301.005 18.2153C290.033 20.193 290.687 9.61266 290.687 9.61266C284.546 8.72273 281.778 2.14712 281.778 2.14712L282.432 1.50439Z" fill="white"/>
<path d="M313.863 15.5252C317.562 3.49004 327.705 1 327.705 1L327.863 1.98564C327.863 1.98564 318.618 5.30569 314.92 15.6809L313.863 15.5252Z" fill="white"/>
<path d="M319.477 8.27783L318.37 9.56329C324.964 10.2555 326.373 18.8581 326.373 18.8581C326.373 18.8581 326.977 9.76105 319.477 8.27783Z" fill="white"/>
<path d="M314.746 2.83936C318.269 4.4709 319.326 6.34964 319.326 6.34964L318.471 7.33846C318.471 7.33846 317.313 5.36083 314.746 4.37202C312.229 5.36083 310.619 7.6351 310.619 7.6351L309.562 6.59685C309.562 6.59685 311.223 4.4709 314.746 2.83936Z" fill="white"/>
<path d="M284.546 38.1894C284.546 38.1894 285.05 35.3219 283.892 34.0364C283.892 34.0364 282.835 34.5308 282.483 33.6409C282.13 32.751 282.885 32.3554 283.389 32.4049C283.389 32.4049 283.439 29.389 279.412 27.4608C278.305 26.917 277.651 26.6698 277.852 25.9282C278.053 25.1866 279.513 25.236 280.721 26.472C281.929 27.6586 282.734 25.9776 282.734 25.9776C282.734 25.9776 285.301 25.681 287.315 24.2966C288.573 23.4067 289.076 24.1483 289.127 24.6427C289.227 25.0877 288.774 25.3843 288.422 25.3843C288.07 25.3843 287.868 24.7416 287.868 24.7416C287.868 24.7416 286.711 25.7304 285.654 26.2248C284.647 26.6203 283.791 26.7192 283.489 26.7192C283.489 26.7192 283.439 28.0047 281.929 28.1035C281.929 28.1035 283.338 29.2901 283.54 29.9823C283.54 29.9823 284.395 29.4879 284.697 30.5261C284.899 31.3666 284.295 31.5644 284.295 31.5644C284.295 31.5644 285.805 34.0364 284.546 38.1894Z" fill="#CD9974"/>
<path d="M276.191 23.5055C275.738 23.6538 275.184 23.8022 274.882 25.0876C274.53 26.5214 275.637 27.4608 278.909 28.5485C283.036 29.9328 283.389 32.4048 283.389 32.4048C283.389 32.4048 283.59 28.944 278.355 27.4113C276.09 26.7192 275.939 26.1753 275.939 25.2854C275.939 24.3955 277.147 23.7527 278.909 23.9999V23.0111C277.147 23.2583 275.939 22.6156 275.939 21.7257C275.939 20.8357 276.09 20.2919 278.355 19.5997C283.59 18.067 283.389 14.6062 283.389 14.6062C283.389 14.6062 283.036 17.1277 278.909 18.4626C275.637 19.5503 274.53 20.4896 274.882 21.9234C275.184 23.2583 275.738 23.3572 276.191 23.5055Z" fill="#CD9974"/>
<path d="M284.546 8.82178C284.546 8.82178 285.05 11.6893 283.892 12.9748C283.892 12.9748 282.835 12.4804 282.483 13.3703C282.13 14.2603 282.885 14.6558 283.389 14.6063C283.389 14.6063 283.439 17.6222 279.412 19.5504C278.305 20.0943 277.651 20.3415 277.852 21.1325C278.053 21.8741 279.513 21.7752 280.721 20.5887C281.929 19.3526 282.734 21.0336 282.734 21.0336C282.734 21.0336 285.301 21.3797 287.315 22.7146C288.573 23.654 289.076 22.8629 289.127 22.418C289.227 21.9236 288.774 21.6764 288.422 21.6764C288.07 21.6764 287.868 22.2696 287.868 22.2696C287.868 22.2696 286.711 21.2808 285.654 20.8359C284.647 20.3909 283.791 20.292 283.489 20.292C283.489 20.292 283.439 19.0066 281.929 18.9077C281.929 18.9077 283.338 17.7211 283.54 17.0289C283.54 17.0289 284.395 17.5233 284.697 16.4851C284.899 15.6446 284.295 15.4963 284.295 15.4963C284.295 15.4963 285.805 12.9748 284.546 8.82178Z" fill="#CD9974"/>
<path d="M270 23.5056C271.963 21.3302 275.084 20.6381 275.084 20.6381C274.782 20.9347 274.782 21.7752 274.782 21.7752C274.782 21.7752 273.02 22.0224 271.258 23.5056C273.02 24.9888 274.782 25.236 274.782 25.236C274.782 25.236 274.782 26.0765 275.084 26.4226C275.084 26.4226 271.963 25.681 270 23.5056Z" fill="#CD9974"/>
<path d="M279.261 23.5056C279.261 22.0224 281.778 21.2808 281.778 21.2808C281.778 21.2808 281.677 22.5662 280.671 22.9617C280.671 22.9617 282.13 22.4179 283.389 23.5056C282.08 24.5438 280.671 24.0494 280.671 24.0494C281.677 24.4944 281.778 25.7304 281.778 25.7304C281.778 25.7304 279.261 25.0877 279.261 23.5056Z" fill="#77554B"/>
<path d="M279.916 24.1978C279.916 25.0878 278.959 25.0878 278.959 24.1978V22.4674C278.959 21.5775 279.916 21.6269 279.916 22.4674V24.1978Z" fill="#CD9974"/>
</svg>
